G04 #@! TF.FileFunction,Soldermask,Top*
%FSLAX46Y46*%
G04 Gerber Fmt 4.6, Leading zero omitted, Abs format (unit mm)*
G04 Created by KiCad (PCBNEW 4.0.7-e1-6374~58~ubuntu16.04.1) date Tue Aug 22 04:57:06 2017*
%MOMM*%
%LPD*%
G01*
G04 APERTURE LIST*
%ADD10C,0.100000*%
%ADD11R,2.127200X2.127200*%
%ADD12O,2.127200X2.127200*%
%ADD13R,1.600000X1.600000*%
%ADD14R,2.100000X2.100000*%
%ADD15O,2.100000X2.100000*%
%ADD16R,1.700000X1.100000*%
G04 APERTURE END LIST*
D10*
D11*
X113030000Y-98425000D03*
D12*
X115570000Y-98425000D03*
X113030000Y-100965000D03*
X115570000Y-100965000D03*
X113030000Y-103505000D03*
X115570000Y-103505000D03*
X113030000Y-106045000D03*
X115570000Y-106045000D03*
X113030000Y-108585000D03*
X115570000Y-108585000D03*
D13*
X107442000Y-101516000D03*
X107442000Y-103716000D03*
X107442000Y-111844000D03*
X107442000Y-109644000D03*
D14*
X91440000Y-95250000D03*
D15*
X91440000Y-97790000D03*
X91440000Y-100330000D03*
X91440000Y-102870000D03*
X91440000Y-105410000D03*
X91440000Y-107950000D03*
X91440000Y-110490000D03*
X91440000Y-113030000D03*
X91440000Y-115570000D03*
X91440000Y-118110000D03*
X91440000Y-120650000D03*
X91440000Y-123190000D03*
X91440000Y-125730000D03*
X91440000Y-128270000D03*
D14*
X104140000Y-128270000D03*
D15*
X104140000Y-125730000D03*
X104140000Y-123190000D03*
X104140000Y-120650000D03*
X104140000Y-118110000D03*
X104140000Y-115570000D03*
X104140000Y-113030000D03*
X104140000Y-110490000D03*
X104140000Y-107950000D03*
X104140000Y-105410000D03*
X104140000Y-102870000D03*
X104140000Y-100330000D03*
X104140000Y-97790000D03*
X104140000Y-95250000D03*
D11*
X113030000Y-120015000D03*
D12*
X115570000Y-120015000D03*
X113030000Y-122555000D03*
X115570000Y-122555000D03*
X113030000Y-125095000D03*
X115570000Y-125095000D03*
D16*
X100584000Y-107376000D03*
X100584000Y-105476000D03*
X100584000Y-113726000D03*
X100584000Y-111826000D03*
M02*
