M48
;DRILL file {KiCad 4.0.7-e1-6374~58~ubuntu16.04.1} date Tue Aug 22 04:57:09 2017
;FORMAT={-:-/ absolute / inch / decimal}
FMAT,2
INCH,TZ
T1C0.039
T2C0.040
%
G90
G05
M72
T1
X3.6Y-3.75
X3.6Y-3.85
X3.6Y-3.95
X3.6Y-4.05
X3.6Y-4.15
X3.6Y-4.25
X3.6Y-4.35
X3.6Y-4.45
X3.6Y-4.55
X3.6Y-4.65
X3.6Y-4.75
X3.6Y-4.85
X3.6Y-4.95
X3.6Y-5.05
X4.1Y-3.75
X4.1Y-3.85
X4.1Y-3.95
X4.1Y-4.05
X4.1Y-4.15
X4.1Y-4.25
X4.1Y-4.35
X4.1Y-4.45
X4.1Y-4.55
X4.1Y-4.65
X4.1Y-4.75
X4.1Y-4.85
X4.1Y-4.95
X4.1Y-5.05
T2
X4.45Y-3.875
X4.45Y-3.975
X4.45Y-4.075
X4.45Y-4.175
X4.45Y-4.275
X4.45Y-4.725
X4.45Y-4.825
X4.45Y-4.925
X4.55Y-3.875
X4.55Y-3.975
X4.55Y-4.075
X4.55Y-4.175
X4.55Y-4.275
X4.55Y-4.725
X4.55Y-4.825
X4.55Y-4.925
T0
M30
