G04 #@! TF.FileFunction,Legend,Bot*
%FSLAX46Y46*%
G04 Gerber Fmt 4.6, Leading zero omitted, Abs format (unit mm)*
G04 Created by KiCad (PCBNEW 4.0.7-e1-6374~58~ubuntu16.04.1) date Tue Aug 22 04:57:06 2017*
%MOMM*%
%LPD*%
G01*
G04 APERTURE LIST*
%ADD10C,0.100000*%
%ADD11C,0.175000*%
%ADD12C,0.010000*%
G04 APERTURE END LIST*
D10*
D11*
X108774667Y-105077334D02*
X108441333Y-104844000D01*
X108774667Y-104677334D02*
X108074667Y-104677334D01*
X108074667Y-104944000D01*
X108108000Y-105010667D01*
X108141333Y-105044000D01*
X108208000Y-105077334D01*
X108308000Y-105077334D01*
X108374667Y-105044000D01*
X108408000Y-105010667D01*
X108441333Y-104944000D01*
X108441333Y-104677334D01*
X108741333Y-105644000D02*
X108774667Y-105577334D01*
X108774667Y-105444000D01*
X108741333Y-105377334D01*
X108674667Y-105344000D01*
X108408000Y-105344000D01*
X108341333Y-105377334D01*
X108308000Y-105444000D01*
X108308000Y-105577334D01*
X108341333Y-105644000D01*
X108408000Y-105677334D01*
X108474667Y-105677334D01*
X108541333Y-105344000D01*
X108308000Y-105910667D02*
X108774667Y-106077334D01*
X108308000Y-106244000D01*
X108774667Y-106510667D02*
X108308000Y-106510667D01*
X108074667Y-106510667D02*
X108108000Y-106477333D01*
X108141333Y-106510667D01*
X108108000Y-106544000D01*
X108074667Y-106510667D01*
X108141333Y-106510667D01*
X108741333Y-106810666D02*
X108774667Y-106877333D01*
X108774667Y-107010666D01*
X108741333Y-107077333D01*
X108674667Y-107110666D01*
X108641333Y-107110666D01*
X108574667Y-107077333D01*
X108541333Y-107010666D01*
X108541333Y-106910666D01*
X108508000Y-106844000D01*
X108441333Y-106810666D01*
X108408000Y-106810666D01*
X108341333Y-106844000D01*
X108308000Y-106910666D01*
X108308000Y-107010666D01*
X108341333Y-107077333D01*
X108774667Y-107410667D02*
X108308000Y-107410667D01*
X108074667Y-107410667D02*
X108108000Y-107377333D01*
X108141333Y-107410667D01*
X108108000Y-107444000D01*
X108074667Y-107410667D01*
X108141333Y-107410667D01*
X108774667Y-107844000D02*
X108741333Y-107777333D01*
X108708000Y-107744000D01*
X108641333Y-107710666D01*
X108441333Y-107710666D01*
X108374667Y-107744000D01*
X108341333Y-107777333D01*
X108308000Y-107844000D01*
X108308000Y-107944000D01*
X108341333Y-108010666D01*
X108374667Y-108044000D01*
X108441333Y-108077333D01*
X108641333Y-108077333D01*
X108708000Y-108044000D01*
X108741333Y-108010666D01*
X108774667Y-107944000D01*
X108774667Y-107844000D01*
X108308000Y-108377333D02*
X108774667Y-108377333D01*
X108374667Y-108377333D02*
X108341333Y-108410666D01*
X108308000Y-108477333D01*
X108308000Y-108577333D01*
X108341333Y-108643999D01*
X108408000Y-108677333D01*
X108774667Y-108677333D01*
X108574667Y-109510665D02*
X108574667Y-109843999D01*
X108774667Y-109443999D02*
X108074667Y-109677332D01*
X108774667Y-109910665D01*
X108074667Y-112410664D02*
X108074667Y-112477331D01*
X108108000Y-112543997D01*
X108141333Y-112577331D01*
X108208000Y-112610664D01*
X108341333Y-112643997D01*
X108508000Y-112643997D01*
X108641333Y-112610664D01*
X108708000Y-112577331D01*
X108741333Y-112543997D01*
X108774667Y-112477331D01*
X108774667Y-112410664D01*
X108741333Y-112343997D01*
X108708000Y-112310664D01*
X108641333Y-112277331D01*
X108508000Y-112243997D01*
X108341333Y-112243997D01*
X108208000Y-112277331D01*
X108141333Y-112310664D01*
X108108000Y-112343997D01*
X108074667Y-112410664D01*
X108374667Y-113043998D02*
X108341333Y-112977331D01*
X108308000Y-112943998D01*
X108241333Y-112910664D01*
X108208000Y-112910664D01*
X108141333Y-112943998D01*
X108108000Y-112977331D01*
X108074667Y-113043998D01*
X108074667Y-113177331D01*
X108108000Y-113243998D01*
X108141333Y-113277331D01*
X108208000Y-113310664D01*
X108241333Y-113310664D01*
X108308000Y-113277331D01*
X108341333Y-113243998D01*
X108374667Y-113177331D01*
X108374667Y-113043998D01*
X108408000Y-112977331D01*
X108441333Y-112943998D01*
X108508000Y-112910664D01*
X108641333Y-112910664D01*
X108708000Y-112943998D01*
X108741333Y-112977331D01*
X108774667Y-113043998D01*
X108774667Y-113177331D01*
X108741333Y-113243998D01*
X108708000Y-113277331D01*
X108641333Y-113310664D01*
X108508000Y-113310664D01*
X108441333Y-113277331D01*
X108408000Y-113243998D01*
X108374667Y-113177331D01*
X108508000Y-113610665D02*
X108508000Y-114143998D01*
X108141333Y-114443998D02*
X108108000Y-114477332D01*
X108074667Y-114543998D01*
X108074667Y-114710665D01*
X108108000Y-114777332D01*
X108141333Y-114810665D01*
X108208000Y-114843998D01*
X108274667Y-114843998D01*
X108374667Y-114810665D01*
X108774667Y-114410665D01*
X108774667Y-114843998D01*
X108074667Y-115277332D02*
X108074667Y-115343999D01*
X108108000Y-115410665D01*
X108141333Y-115443999D01*
X108208000Y-115477332D01*
X108341333Y-115510665D01*
X108508000Y-115510665D01*
X108641333Y-115477332D01*
X108708000Y-115443999D01*
X108741333Y-115410665D01*
X108774667Y-115343999D01*
X108774667Y-115277332D01*
X108741333Y-115210665D01*
X108708000Y-115177332D01*
X108641333Y-115143999D01*
X108508000Y-115110665D01*
X108341333Y-115110665D01*
X108208000Y-115143999D01*
X108141333Y-115177332D01*
X108108000Y-115210665D01*
X108074667Y-115277332D01*
X108774667Y-116177332D02*
X108774667Y-115777332D01*
X108774667Y-115977332D02*
X108074667Y-115977332D01*
X108174667Y-115910666D01*
X108241333Y-115843999D01*
X108274667Y-115777332D01*
X108074667Y-116410666D02*
X108074667Y-116877333D01*
X108774667Y-116577333D01*
X99564000Y-106899419D02*
X99597333Y-106928585D01*
X99630667Y-106891086D01*
X99597333Y-106861918D01*
X99564000Y-106899419D01*
X99630667Y-106891086D01*
X99564000Y-107232752D02*
X99597333Y-107261918D01*
X99630667Y-107224419D01*
X99597333Y-107195251D01*
X99564000Y-107232752D01*
X99630667Y-107224419D01*
X99564000Y-107566085D02*
X99597333Y-107595251D01*
X99630667Y-107557752D01*
X99597333Y-107528584D01*
X99564000Y-107566085D01*
X99630667Y-107557752D01*
X99630667Y-107891085D02*
X98930667Y-107978585D01*
X99197333Y-107945251D02*
X99164000Y-108016084D01*
X99164000Y-108149418D01*
X99197333Y-108211917D01*
X99230667Y-108241085D01*
X99297333Y-108266084D01*
X99497333Y-108241084D01*
X99564000Y-108199418D01*
X99597333Y-108161917D01*
X99630667Y-108091085D01*
X99630667Y-107957751D01*
X99597333Y-107895251D01*
X99597333Y-108795250D02*
X99630667Y-108724418D01*
X99630667Y-108591084D01*
X99597333Y-108528584D01*
X99530667Y-108503584D01*
X99264000Y-108536917D01*
X99197333Y-108578584D01*
X99164000Y-108649417D01*
X99164000Y-108782751D01*
X99197333Y-108845250D01*
X99264000Y-108870251D01*
X99330667Y-108861918D01*
X99397333Y-108520250D01*
X99597333Y-109428584D02*
X99630667Y-109357751D01*
X99630667Y-109224418D01*
X99597333Y-109161917D01*
X99564000Y-109132751D01*
X99497333Y-109107750D01*
X99297333Y-109132750D01*
X99230667Y-109174418D01*
X99197333Y-109211917D01*
X99164000Y-109282751D01*
X99164000Y-109416084D01*
X99197333Y-109478584D01*
X99630667Y-110024418D02*
X99264000Y-110070251D01*
X99197333Y-110045250D01*
X99164000Y-109982751D01*
X99164000Y-109849417D01*
X99197333Y-109778584D01*
X99597333Y-110028584D02*
X99630667Y-109957751D01*
X99630667Y-109791084D01*
X99597333Y-109728584D01*
X99530667Y-109703584D01*
X99464000Y-109711917D01*
X99397333Y-109753584D01*
X99364000Y-109824417D01*
X99364000Y-109991084D01*
X99330667Y-110061918D01*
X99164000Y-110716084D02*
X99630667Y-110657751D01*
X99164000Y-110416084D02*
X99530667Y-110370251D01*
X99597333Y-110395250D01*
X99630667Y-110457751D01*
X99630667Y-110557751D01*
X99597333Y-110628583D01*
X99564000Y-110666084D01*
X99597333Y-110961916D02*
X99630667Y-111024417D01*
X99630667Y-111157750D01*
X99597333Y-111228583D01*
X99530667Y-111270250D01*
X99497333Y-111274416D01*
X99430667Y-111249417D01*
X99397333Y-111186916D01*
X99397333Y-111086916D01*
X99364000Y-111024417D01*
X99297333Y-110999416D01*
X99264000Y-111003583D01*
X99197333Y-111045250D01*
X99164000Y-111116083D01*
X99164000Y-111216083D01*
X99197333Y-111278583D01*
X99597333Y-111828583D02*
X99630667Y-111757751D01*
X99630667Y-111624417D01*
X99597333Y-111561917D01*
X99530667Y-111536917D01*
X99264000Y-111570250D01*
X99197333Y-111611917D01*
X99164000Y-111682750D01*
X99164000Y-111816084D01*
X99197333Y-111878583D01*
X99264000Y-111903584D01*
X99330667Y-111895251D01*
X99397333Y-111553583D01*
X99164000Y-112682750D02*
X99630667Y-112757750D01*
X99297333Y-112932750D01*
X99630667Y-113024417D01*
X99164000Y-113216083D01*
X99630667Y-113424417D02*
X98930667Y-113511917D01*
X99630667Y-113724417D02*
X99264000Y-113770250D01*
X99197333Y-113745249D01*
X99164000Y-113682750D01*
X99164000Y-113582750D01*
X99197333Y-113511916D01*
X99230667Y-113474417D01*
X99164000Y-114049416D02*
X99630667Y-114157750D01*
X99164000Y-114382749D02*
X99630667Y-114157750D01*
X99797333Y-114070249D01*
X99830667Y-114032750D01*
X99864000Y-113961916D01*
X99164000Y-115182749D02*
X99630667Y-115124416D01*
X99230667Y-115174416D02*
X99197333Y-115211915D01*
X99164000Y-115282749D01*
X99164000Y-115382749D01*
X99197333Y-115445248D01*
X99264000Y-115470249D01*
X99630667Y-115424416D01*
X99630667Y-115857749D02*
X99597333Y-115795248D01*
X99564000Y-115766082D01*
X99497333Y-115741081D01*
X99297333Y-115766081D01*
X99230667Y-115807749D01*
X99197333Y-115845248D01*
X99164000Y-115916082D01*
X99164000Y-116016082D01*
X99197333Y-116078581D01*
X99230667Y-116107749D01*
X99297333Y-116132748D01*
X99497333Y-116107748D01*
X99564000Y-116066082D01*
X99597333Y-116028581D01*
X99630667Y-115957749D01*
X99630667Y-115857749D01*
X99164000Y-116349415D02*
X99164000Y-116616081D01*
X98930667Y-116478582D02*
X99530667Y-116403582D01*
X99597333Y-116428581D01*
X99630667Y-116491082D01*
X99630667Y-116557748D01*
X99564000Y-116899415D02*
X99597333Y-116928581D01*
X99630667Y-116891082D01*
X99597333Y-116861914D01*
X99564000Y-116899415D01*
X99630667Y-116891082D01*
X98964000Y-116841081D02*
X98930667Y-116911915D01*
X98930667Y-117078582D01*
X98964000Y-117141081D01*
X99030667Y-117166082D01*
X99097333Y-117157748D01*
X99164000Y-117116081D01*
X99197333Y-117078581D01*
X99230667Y-117007748D01*
X99264000Y-116970248D01*
X99330667Y-116928582D01*
X99364000Y-116924415D01*
D12*
G36*
X95845486Y-109587661D02*
X95959546Y-109776025D01*
X96134335Y-109925404D01*
X96353700Y-110032270D01*
X96601486Y-110093095D01*
X96861539Y-110104351D01*
X97117704Y-110062510D01*
X97353828Y-109964044D01*
X97409297Y-109929173D01*
X97596376Y-109756418D01*
X97710297Y-109549869D01*
X97748837Y-109321952D01*
X97709775Y-109085093D01*
X97599656Y-108864424D01*
X97496218Y-108712000D01*
X98425000Y-108712000D01*
X98425000Y-108119333D01*
X96828159Y-108119333D01*
X96828159Y-108720542D01*
X97026054Y-108756174D01*
X97181592Y-108833383D01*
X97284806Y-108944347D01*
X97325729Y-109081241D01*
X97294395Y-109236240D01*
X97278592Y-109268700D01*
X97209391Y-109342590D01*
X97101642Y-109408757D01*
X97089452Y-109414084D01*
X96905191Y-109462323D01*
X96707724Y-109467859D01*
X96520437Y-109434837D01*
X96366717Y-109367404D01*
X96269949Y-109269705D01*
X96269407Y-109268700D01*
X96224641Y-109109589D01*
X96255895Y-108961633D01*
X96354569Y-108838821D01*
X96512064Y-108755145D01*
X96597874Y-108734314D01*
X96828159Y-108720542D01*
X96828159Y-108119333D01*
X95842667Y-108119333D01*
X95842667Y-108415667D01*
X95844048Y-108570423D01*
X95852865Y-108658985D01*
X95876121Y-108699823D01*
X95920823Y-108711406D01*
X95955061Y-108712000D01*
X96031701Y-108717111D01*
X96034655Y-108744935D01*
X95999009Y-108787632D01*
X95882869Y-108971809D01*
X95817385Y-109194799D01*
X95808730Y-109424424D01*
X95845486Y-109587661D01*
X95845486Y-109587661D01*
G37*
X95845486Y-109587661D02*
X95959546Y-109776025D01*
X96134335Y-109925404D01*
X96353700Y-110032270D01*
X96601486Y-110093095D01*
X96861539Y-110104351D01*
X97117704Y-110062510D01*
X97353828Y-109964044D01*
X97409297Y-109929173D01*
X97596376Y-109756418D01*
X97710297Y-109549869D01*
X97748837Y-109321952D01*
X97709775Y-109085093D01*
X97599656Y-108864424D01*
X97496218Y-108712000D01*
X98425000Y-108712000D01*
X98425000Y-108119333D01*
X96828159Y-108119333D01*
X96828159Y-108720542D01*
X97026054Y-108756174D01*
X97181592Y-108833383D01*
X97284806Y-108944347D01*
X97325729Y-109081241D01*
X97294395Y-109236240D01*
X97278592Y-109268700D01*
X97209391Y-109342590D01*
X97101642Y-109408757D01*
X97089452Y-109414084D01*
X96905191Y-109462323D01*
X96707724Y-109467859D01*
X96520437Y-109434837D01*
X96366717Y-109367404D01*
X96269949Y-109269705D01*
X96269407Y-109268700D01*
X96224641Y-109109589D01*
X96255895Y-108961633D01*
X96354569Y-108838821D01*
X96512064Y-108755145D01*
X96597874Y-108734314D01*
X96828159Y-108720542D01*
X96828159Y-108119333D01*
X95842667Y-108119333D01*
X95842667Y-108415667D01*
X95844048Y-108570423D01*
X95852865Y-108658985D01*
X95876121Y-108699823D01*
X95920823Y-108711406D01*
X95955061Y-108712000D01*
X96031701Y-108717111D01*
X96034655Y-108744935D01*
X95999009Y-108787632D01*
X95882869Y-108971809D01*
X95817385Y-109194799D01*
X95808730Y-109424424D01*
X95845486Y-109587661D01*
G36*
X95217911Y-102146736D02*
X95238336Y-102333493D01*
X95272306Y-102513751D01*
X95312209Y-102647750D01*
X95386193Y-102827667D01*
X95921373Y-102827667D01*
X95816962Y-102640855D01*
X95714871Y-102391370D01*
X95680211Y-102141504D01*
X95710776Y-101906238D01*
X95804358Y-101700554D01*
X95958752Y-101539431D01*
X95981537Y-101523620D01*
X96084959Y-101462939D01*
X96185547Y-101428303D01*
X96313342Y-101412802D01*
X96477667Y-101409500D01*
X96656026Y-101413635D01*
X96779971Y-101430646D01*
X96879542Y-101467444D01*
X96973796Y-101523620D01*
X97135425Y-101678310D01*
X97236510Y-101879383D01*
X97274846Y-102111855D01*
X97248225Y-102360747D01*
X97154440Y-102611078D01*
X97138371Y-102640855D01*
X97033960Y-102827667D01*
X97569140Y-102827667D01*
X97643673Y-102647750D01*
X97701781Y-102440345D01*
X97732391Y-102186146D01*
X97734720Y-101918701D01*
X97707983Y-101671558D01*
X97669936Y-101524010D01*
X97530165Y-101239220D01*
X97331886Y-101013135D01*
X97109346Y-100859167D01*
X96992350Y-100798584D01*
X96890494Y-100761004D01*
X96776918Y-100741024D01*
X96624764Y-100733245D01*
X96477667Y-100732167D01*
X96281327Y-100734563D01*
X96142620Y-100745360D01*
X96034564Y-100769966D01*
X95930177Y-100813790D01*
X95844172Y-100859167D01*
X95588758Y-101044562D01*
X95397961Y-101283089D01*
X95273513Y-101571189D01*
X95217144Y-101905303D01*
X95217911Y-102146736D01*
X95217911Y-102146736D01*
G37*
X95217911Y-102146736D02*
X95238336Y-102333493D01*
X95272306Y-102513751D01*
X95312209Y-102647750D01*
X95386193Y-102827667D01*
X95921373Y-102827667D01*
X95816962Y-102640855D01*
X95714871Y-102391370D01*
X95680211Y-102141504D01*
X95710776Y-101906238D01*
X95804358Y-101700554D01*
X95958752Y-101539431D01*
X95981537Y-101523620D01*
X96084959Y-101462939D01*
X96185547Y-101428303D01*
X96313342Y-101412802D01*
X96477667Y-101409500D01*
X96656026Y-101413635D01*
X96779971Y-101430646D01*
X96879542Y-101467444D01*
X96973796Y-101523620D01*
X97135425Y-101678310D01*
X97236510Y-101879383D01*
X97274846Y-102111855D01*
X97248225Y-102360747D01*
X97154440Y-102611078D01*
X97138371Y-102640855D01*
X97033960Y-102827667D01*
X97569140Y-102827667D01*
X97643673Y-102647750D01*
X97701781Y-102440345D01*
X97732391Y-102186146D01*
X97734720Y-101918701D01*
X97707983Y-101671558D01*
X97669936Y-101524010D01*
X97530165Y-101239220D01*
X97331886Y-101013135D01*
X97109346Y-100859167D01*
X96992350Y-100798584D01*
X96890494Y-100761004D01*
X96776918Y-100741024D01*
X96624764Y-100733245D01*
X96477667Y-100732167D01*
X96281327Y-100734563D01*
X96142620Y-100745360D01*
X96034564Y-100769966D01*
X95930177Y-100813790D01*
X95844172Y-100859167D01*
X95588758Y-101044562D01*
X95397961Y-101283089D01*
X95273513Y-101571189D01*
X95217144Y-101905303D01*
X95217911Y-102146736D01*
G36*
X96051782Y-115908667D02*
X95948344Y-116061091D01*
X95833370Y-116292015D01*
X95796271Y-116518761D01*
X95830379Y-116732513D01*
X95929029Y-116924453D01*
X96085554Y-117085764D01*
X96293289Y-117207630D01*
X96545568Y-117281232D01*
X96835725Y-117297754D01*
X96881078Y-117294846D01*
X97164236Y-117240537D01*
X97399165Y-117132016D01*
X97579294Y-116978226D01*
X97698054Y-116788112D01*
X97748877Y-116570617D01*
X97725192Y-116334686D01*
X97680633Y-116206259D01*
X97619172Y-116086430D01*
X97554490Y-115990629D01*
X97548729Y-115984009D01*
X97507097Y-115929543D01*
X97531529Y-115910673D01*
X97592939Y-115908667D01*
X97651636Y-115905023D01*
X97685226Y-115881778D01*
X97700715Y-115820462D01*
X97705108Y-115702604D01*
X97705333Y-115612333D01*
X97705333Y-115316000D01*
X96828159Y-115316000D01*
X96828159Y-115917209D01*
X97026054Y-115952840D01*
X97181592Y-116030050D01*
X97284806Y-116141014D01*
X97325729Y-116277907D01*
X97294395Y-116432906D01*
X97278592Y-116465367D01*
X97209391Y-116539256D01*
X97101642Y-116605424D01*
X97089452Y-116610750D01*
X96905191Y-116658990D01*
X96707724Y-116664526D01*
X96520437Y-116631504D01*
X96366717Y-116564070D01*
X96269949Y-116466371D01*
X96269407Y-116465367D01*
X96224641Y-116306256D01*
X96255895Y-116158300D01*
X96354569Y-116035488D01*
X96512064Y-115951811D01*
X96597874Y-115930981D01*
X96828159Y-115917209D01*
X96828159Y-115316000D01*
X95123000Y-115316000D01*
X95123000Y-115908667D01*
X96051782Y-115908667D01*
X96051782Y-115908667D01*
G37*
X96051782Y-115908667D02*
X95948344Y-116061091D01*
X95833370Y-116292015D01*
X95796271Y-116518761D01*
X95830379Y-116732513D01*
X95929029Y-116924453D01*
X96085554Y-117085764D01*
X96293289Y-117207630D01*
X96545568Y-117281232D01*
X96835725Y-117297754D01*
X96881078Y-117294846D01*
X97164236Y-117240537D01*
X97399165Y-117132016D01*
X97579294Y-116978226D01*
X97698054Y-116788112D01*
X97748877Y-116570617D01*
X97725192Y-116334686D01*
X97680633Y-116206259D01*
X97619172Y-116086430D01*
X97554490Y-115990629D01*
X97548729Y-115984009D01*
X97507097Y-115929543D01*
X97531529Y-115910673D01*
X97592939Y-115908667D01*
X97651636Y-115905023D01*
X97685226Y-115881778D01*
X97700715Y-115820462D01*
X97705108Y-115702604D01*
X97705333Y-115612333D01*
X97705333Y-115316000D01*
X96828159Y-115316000D01*
X96828159Y-115917209D01*
X97026054Y-115952840D01*
X97181592Y-116030050D01*
X97284806Y-116141014D01*
X97325729Y-116277907D01*
X97294395Y-116432906D01*
X97278592Y-116465367D01*
X97209391Y-116539256D01*
X97101642Y-116605424D01*
X97089452Y-116610750D01*
X96905191Y-116658990D01*
X96707724Y-116664526D01*
X96520437Y-116631504D01*
X96366717Y-116564070D01*
X96269949Y-116466371D01*
X96269407Y-116465367D01*
X96224641Y-116306256D01*
X96255895Y-116158300D01*
X96354569Y-116035488D01*
X96512064Y-115951811D01*
X96597874Y-115930981D01*
X96828159Y-115917209D01*
X96828159Y-115316000D01*
X95123000Y-115316000D01*
X95123000Y-115908667D01*
X96051782Y-115908667D01*
G36*
X95715667Y-105071333D02*
X95715667Y-103970667D01*
X97705333Y-103970667D01*
X97705333Y-103335667D01*
X95250000Y-103335667D01*
X95250000Y-105071333D01*
X95715667Y-105071333D01*
X95715667Y-105071333D01*
G37*
X95715667Y-105071333D02*
X95715667Y-103970667D01*
X97705333Y-103970667D01*
X97705333Y-103335667D01*
X95250000Y-103335667D01*
X95250000Y-105071333D01*
X95715667Y-105071333D01*
G36*
X96440937Y-107316536D02*
X96741483Y-107428335D01*
X97016736Y-107530749D01*
X97256578Y-107620010D01*
X97450887Y-107692352D01*
X97589545Y-107744008D01*
X97662432Y-107771211D01*
X97670459Y-107774229D01*
X97687606Y-107742716D01*
X97697175Y-107644168D01*
X97697706Y-107495998D01*
X97696605Y-107462085D01*
X97684167Y-107135210D01*
X97493667Y-107060864D01*
X97303167Y-106986517D01*
X97303167Y-105992482D01*
X97493667Y-105918136D01*
X97684167Y-105843789D01*
X97696605Y-105516915D01*
X97698048Y-105360941D01*
X97690163Y-105251121D01*
X97674409Y-105204867D01*
X97670459Y-105204770D01*
X97622429Y-105222730D01*
X97505162Y-105266433D01*
X97328776Y-105332113D01*
X97103393Y-105416003D01*
X96839131Y-105514336D01*
X96794486Y-105530944D01*
X96794486Y-106172000D01*
X96804930Y-106210880D01*
X96812655Y-106313725D01*
X96816238Y-106459843D01*
X96816333Y-106489500D01*
X96813526Y-106641273D01*
X96806100Y-106753542D01*
X96795550Y-106805616D01*
X96793408Y-106807000D01*
X96745202Y-106793868D01*
X96638348Y-106759171D01*
X96493030Y-106709961D01*
X96329431Y-106653288D01*
X96167735Y-106596202D01*
X96028127Y-106545754D01*
X95930789Y-106508996D01*
X95896111Y-106493556D01*
X95928247Y-106476362D01*
X96021467Y-106438909D01*
X96156647Y-106388044D01*
X96314659Y-106330610D01*
X96476378Y-106273455D01*
X96622679Y-106223424D01*
X96734435Y-106187363D01*
X96792520Y-106172117D01*
X96794486Y-106172000D01*
X96794486Y-105530944D01*
X96546109Y-105623344D01*
X96440937Y-105662464D01*
X95250000Y-106105428D01*
X95250000Y-106873571D01*
X96440937Y-107316536D01*
X96440937Y-107316536D01*
G37*
X96440937Y-107316536D02*
X96741483Y-107428335D01*
X97016736Y-107530749D01*
X97256578Y-107620010D01*
X97450887Y-107692352D01*
X97589545Y-107744008D01*
X97662432Y-107771211D01*
X97670459Y-107774229D01*
X97687606Y-107742716D01*
X97697175Y-107644168D01*
X97697706Y-107495998D01*
X97696605Y-107462085D01*
X97684167Y-107135210D01*
X97493667Y-107060864D01*
X97303167Y-106986517D01*
X97303167Y-105992482D01*
X97493667Y-105918136D01*
X97684167Y-105843789D01*
X97696605Y-105516915D01*
X97698048Y-105360941D01*
X97690163Y-105251121D01*
X97674409Y-105204867D01*
X97670459Y-105204770D01*
X97622429Y-105222730D01*
X97505162Y-105266433D01*
X97328776Y-105332113D01*
X97103393Y-105416003D01*
X96839131Y-105514336D01*
X96794486Y-105530944D01*
X96794486Y-106172000D01*
X96804930Y-106210880D01*
X96812655Y-106313725D01*
X96816238Y-106459843D01*
X96816333Y-106489500D01*
X96813526Y-106641273D01*
X96806100Y-106753542D01*
X96795550Y-106805616D01*
X96793408Y-106807000D01*
X96745202Y-106793868D01*
X96638348Y-106759171D01*
X96493030Y-106709961D01*
X96329431Y-106653288D01*
X96167735Y-106596202D01*
X96028127Y-106545754D01*
X95930789Y-106508996D01*
X95896111Y-106493556D01*
X95928247Y-106476362D01*
X96021467Y-106438909D01*
X96156647Y-106388044D01*
X96314659Y-106330610D01*
X96476378Y-106273455D01*
X96622679Y-106223424D01*
X96734435Y-106187363D01*
X96792520Y-106172117D01*
X96794486Y-106172000D01*
X96794486Y-105530944D01*
X96546109Y-105623344D01*
X96440937Y-105662464D01*
X95250000Y-106105428D01*
X95250000Y-106873571D01*
X96440937Y-107316536D01*
G36*
X97239667Y-111167333D02*
X97239667Y-112268000D01*
X97705333Y-112268000D01*
X97705333Y-110532333D01*
X95250000Y-110532333D01*
X95250000Y-111167333D01*
X97239667Y-111167333D01*
X97239667Y-111167333D01*
G37*
X97239667Y-111167333D02*
X97239667Y-112268000D01*
X97705333Y-112268000D01*
X97705333Y-110532333D01*
X95250000Y-110532333D01*
X95250000Y-111167333D01*
X97239667Y-111167333D01*
G36*
X95461667Y-113135833D02*
X95673333Y-113206138D01*
X95673333Y-114208529D01*
X95461666Y-114278833D01*
X95250000Y-114349138D01*
X95250000Y-114663235D01*
X95253927Y-114814039D01*
X95264306Y-114925178D01*
X95279036Y-114975882D01*
X95281750Y-114976999D01*
X95328013Y-114962734D01*
X95443547Y-114922537D01*
X95618287Y-114860042D01*
X95842166Y-114778884D01*
X96105121Y-114682699D01*
X96397084Y-114575122D01*
X96498833Y-114537463D01*
X97684167Y-114098261D01*
X97696344Y-113711856D01*
X97708522Y-113325450D01*
X97590511Y-113280409D01*
X97404870Y-113210176D01*
X97179270Y-113125804D01*
X96925443Y-113031582D01*
X96655119Y-112931797D01*
X96380031Y-112830739D01*
X96139000Y-112742601D01*
X96139000Y-113376131D01*
X96604667Y-113529974D01*
X96787666Y-113592335D01*
X96936852Y-113646796D01*
X97036334Y-113687304D01*
X97070333Y-113707333D01*
X97032652Y-113729023D01*
X96930202Y-113770403D01*
X96778873Y-113825422D01*
X96604667Y-113884692D01*
X96139000Y-114038536D01*
X96139000Y-113376131D01*
X96139000Y-112742601D01*
X96111909Y-112732694D01*
X95862486Y-112641951D01*
X95643492Y-112562799D01*
X95466659Y-112499525D01*
X95343719Y-112456417D01*
X95286403Y-112437764D01*
X95284017Y-112437333D01*
X95267679Y-112476188D01*
X95255630Y-112578887D01*
X95250123Y-112724632D01*
X95250000Y-112751431D01*
X95250000Y-113065529D01*
X95461667Y-113135833D01*
X95461667Y-113135833D01*
G37*
X95461667Y-113135833D02*
X95673333Y-113206138D01*
X95673333Y-114208529D01*
X95461666Y-114278833D01*
X95250000Y-114349138D01*
X95250000Y-114663235D01*
X95253927Y-114814039D01*
X95264306Y-114925178D01*
X95279036Y-114975882D01*
X95281750Y-114976999D01*
X95328013Y-114962734D01*
X95443547Y-114922537D01*
X95618287Y-114860042D01*
X95842166Y-114778884D01*
X96105121Y-114682699D01*
X96397084Y-114575122D01*
X96498833Y-114537463D01*
X97684167Y-114098261D01*
X97696344Y-113711856D01*
X97708522Y-113325450D01*
X97590511Y-113280409D01*
X97404870Y-113210176D01*
X97179270Y-113125804D01*
X96925443Y-113031582D01*
X96655119Y-112931797D01*
X96380031Y-112830739D01*
X96139000Y-112742601D01*
X96139000Y-113376131D01*
X96604667Y-113529974D01*
X96787666Y-113592335D01*
X96936852Y-113646796D01*
X97036334Y-113687304D01*
X97070333Y-113707333D01*
X97032652Y-113729023D01*
X96930202Y-113770403D01*
X96778873Y-113825422D01*
X96604667Y-113884692D01*
X96139000Y-114038536D01*
X96139000Y-113376131D01*
X96139000Y-112742601D01*
X96111909Y-112732694D01*
X95862486Y-112641951D01*
X95643492Y-112562799D01*
X95466659Y-112499525D01*
X95343719Y-112456417D01*
X95286403Y-112437764D01*
X95284017Y-112437333D01*
X95267679Y-112476188D01*
X95255630Y-112578887D01*
X95250123Y-112724632D01*
X95250000Y-112751431D01*
X95250000Y-113065529D01*
X95461667Y-113135833D01*
G36*
X95122043Y-97406944D02*
X95122391Y-97530944D01*
X95122938Y-97650912D01*
X95123684Y-97765048D01*
X95124631Y-97871552D01*
X95125778Y-97968624D01*
X95127124Y-98054465D01*
X95128670Y-98127275D01*
X95130416Y-98185253D01*
X95132361Y-98226600D01*
X95134506Y-98249516D01*
X95135700Y-98253550D01*
X95151130Y-98259318D01*
X95184726Y-98263306D01*
X95237499Y-98265589D01*
X95303393Y-98266250D01*
X95370965Y-98265982D01*
X95420256Y-98263912D01*
X95454147Y-98258140D01*
X95475523Y-98246766D01*
X95487268Y-98227890D01*
X95492265Y-98199613D01*
X95493399Y-98160035D01*
X95493416Y-98141062D01*
X95493416Y-98054583D01*
X96983517Y-98054583D01*
X97044763Y-98086801D01*
X97095399Y-98115782D01*
X97161820Y-98157692D01*
X97243394Y-98212102D01*
X97339490Y-98278581D01*
X97449474Y-98356700D01*
X97567750Y-98442401D01*
X97739969Y-98566869D01*
X97901550Y-98680625D01*
X98057624Y-98787081D01*
X98213317Y-98889647D01*
X98373760Y-98991735D01*
X98544080Y-99096756D01*
X98626083Y-99146345D01*
X98703607Y-99192668D01*
X98787790Y-99242430D01*
X98875945Y-99294091D01*
X98965388Y-99346105D01*
X99053432Y-99396932D01*
X99137393Y-99445027D01*
X99214584Y-99488848D01*
X99282321Y-99526852D01*
X99337918Y-99557495D01*
X99378690Y-99579236D01*
X99386276Y-99583112D01*
X99493856Y-99626841D01*
X99611593Y-99656163D01*
X99733955Y-99670479D01*
X99855407Y-99669193D01*
X99970417Y-99651708D01*
X99986041Y-99647842D01*
X100084908Y-99613775D01*
X100178359Y-99565680D01*
X100262429Y-99506318D01*
X100333155Y-99438452D01*
X100382645Y-99371520D01*
X100391551Y-99357231D01*
X100399705Y-99344614D01*
X100407143Y-99332729D01*
X100413895Y-99320635D01*
X100419995Y-99307392D01*
X100425477Y-99292059D01*
X100430372Y-99273697D01*
X100434714Y-99251365D01*
X100438536Y-99224122D01*
X100441870Y-99191029D01*
X100444750Y-99151145D01*
X100447208Y-99103530D01*
X100449278Y-99047243D01*
X100450992Y-98981344D01*
X100452383Y-98904892D01*
X100453485Y-98816949D01*
X100454329Y-98716572D01*
X100454949Y-98602822D01*
X100455378Y-98474758D01*
X100455649Y-98331441D01*
X100455795Y-98171929D01*
X100455848Y-97995283D01*
X100455841Y-97800562D01*
X100455808Y-97586826D01*
X100455781Y-97353135D01*
X100455779Y-97282000D01*
X100455769Y-97046374D01*
X100455733Y-96830973D01*
X100455662Y-96634851D01*
X100455547Y-96457067D01*
X100455379Y-96296678D01*
X100455151Y-96152740D01*
X100454853Y-96024310D01*
X100454475Y-95910445D01*
X100454011Y-95810202D01*
X100453450Y-95722639D01*
X100452785Y-95646811D01*
X100452005Y-95581776D01*
X100451103Y-95526591D01*
X100450071Y-95480313D01*
X100448898Y-95441999D01*
X100447576Y-95410705D01*
X100446097Y-95385489D01*
X100444451Y-95365407D01*
X100442631Y-95349517D01*
X100440627Y-95336875D01*
X100438431Y-95326538D01*
X100437597Y-95323224D01*
X100402512Y-95229987D01*
X100348747Y-95144730D01*
X100277873Y-95069267D01*
X100191459Y-95005414D01*
X100136747Y-94975347D01*
X100065582Y-94942968D01*
X100001598Y-94920337D01*
X99937969Y-94905961D01*
X99867872Y-94898345D01*
X99784481Y-94895995D01*
X99774375Y-94895993D01*
X99660911Y-94901082D01*
X99561121Y-94916628D01*
X99469677Y-94943762D01*
X99395104Y-94976494D01*
X99335245Y-95007719D01*
X99260006Y-95048797D01*
X99171883Y-95098247D01*
X99073373Y-95154591D01*
X98966975Y-95216350D01*
X98855184Y-95282044D01*
X98740499Y-95350194D01*
X98625417Y-95419321D01*
X98512434Y-95487945D01*
X98404049Y-95554588D01*
X98302757Y-95617770D01*
X98211058Y-95676012D01*
X98176291Y-95698458D01*
X98125368Y-95731681D01*
X98076339Y-95764053D01*
X98027332Y-95796886D01*
X97976471Y-95831492D01*
X97921882Y-95869181D01*
X97890253Y-95891295D01*
X97890253Y-96395295D01*
X97915818Y-96397251D01*
X97927409Y-96403408D01*
X97927583Y-96404552D01*
X97933547Y-96411180D01*
X97936268Y-96410048D01*
X97951456Y-96411321D01*
X97974771Y-96423091D01*
X97999377Y-96440884D01*
X98018440Y-96460225D01*
X98022530Y-96466517D01*
X98029129Y-96483133D01*
X98027741Y-96488250D01*
X98028895Y-96494369D01*
X98037952Y-96504881D01*
X98051429Y-96528687D01*
X98054583Y-96546349D01*
X98057640Y-96575679D01*
X98065315Y-96595268D01*
X98075362Y-96599574D01*
X98076011Y-96599213D01*
X98087722Y-96602837D01*
X98104308Y-96618905D01*
X98105247Y-96620082D01*
X98120933Y-96636586D01*
X98131012Y-96641055D01*
X98131346Y-96640792D01*
X98140786Y-96644274D01*
X98156353Y-96660142D01*
X98157805Y-96661959D01*
X98173617Y-96678678D01*
X98183837Y-96683439D01*
X98184263Y-96683125D01*
X98193702Y-96686607D01*
X98209269Y-96702475D01*
X98210721Y-96704292D01*
X98226534Y-96721011D01*
X98236754Y-96725773D01*
X98237180Y-96725459D01*
X98246619Y-96728941D01*
X98262186Y-96744809D01*
X98263638Y-96746625D01*
X98279451Y-96763345D01*
X98289670Y-96768106D01*
X98290096Y-96767792D01*
X98299470Y-96771405D01*
X98315292Y-96787440D01*
X98317960Y-96790745D01*
X98332701Y-96807755D01*
X98340122Y-96812930D01*
X98340333Y-96812247D01*
X98348123Y-96816305D01*
X98369787Y-96831772D01*
X98402770Y-96856715D01*
X98444515Y-96889200D01*
X98492393Y-96927237D01*
X98644454Y-97049167D01*
X98709352Y-97049167D01*
X98746097Y-97050870D01*
X98768840Y-97055511D01*
X98774250Y-97060374D01*
X98780690Y-97066788D01*
X98784522Y-97065234D01*
X98802867Y-97065155D01*
X98830067Y-97078032D01*
X98861109Y-97100834D01*
X98889196Y-97128484D01*
X98922617Y-97166548D01*
X99351038Y-97167093D01*
X99779460Y-97167639D01*
X99812209Y-97140082D01*
X99834944Y-97124109D01*
X99851726Y-97117871D01*
X99854646Y-97118512D01*
X99863749Y-97117069D01*
X99864333Y-97113771D01*
X99873604Y-97105034D01*
X99896493Y-97097139D01*
X99902395Y-97095902D01*
X99932505Y-97094263D01*
X99966158Y-97098119D01*
X99996752Y-97105916D01*
X100017689Y-97116102D01*
X100023083Y-97124299D01*
X100029252Y-97130730D01*
X100032047Y-97129542D01*
X100044223Y-97133086D01*
X100063509Y-97148967D01*
X100084855Y-97172197D01*
X100103212Y-97197788D01*
X100106011Y-97202625D01*
X100114559Y-97231935D01*
X100117593Y-97272773D01*
X100115286Y-97316276D01*
X100107811Y-97353584D01*
X100102838Y-97365931D01*
X100071588Y-97407299D01*
X100027097Y-97442147D01*
X99981293Y-97463004D01*
X99949566Y-97468660D01*
X99915759Y-97468994D01*
X99886311Y-97464710D01*
X99867663Y-97456512D01*
X99864333Y-97450229D01*
X99857821Y-97444356D01*
X99853750Y-97446042D01*
X99844013Y-97444851D01*
X99843166Y-97440750D01*
X99837303Y-97433341D01*
X99833997Y-97434584D01*
X99821028Y-97431919D01*
X99805899Y-97419334D01*
X99800494Y-97414156D01*
X99793223Y-97409910D01*
X99782089Y-97406505D01*
X99765095Y-97403848D01*
X99740247Y-97401846D01*
X99705549Y-97400407D01*
X99659003Y-97399438D01*
X99598616Y-97398847D01*
X99522390Y-97398542D01*
X99428330Y-97398430D01*
X99354369Y-97398417D01*
X98921769Y-97398417D01*
X98888772Y-97435999D01*
X98858878Y-97465099D01*
X98828030Y-97487206D01*
X98801296Y-97499268D01*
X98784522Y-97498766D01*
X98775013Y-97500309D01*
X98774250Y-97504331D01*
X98763896Y-97511246D01*
X98732830Y-97513869D01*
X98702606Y-97513319D01*
X98630963Y-97510394D01*
X98451252Y-97660298D01*
X98398731Y-97703736D01*
X98351564Y-97742036D01*
X98312180Y-97773285D01*
X98283009Y-97795567D01*
X98266479Y-97806969D01*
X98263807Y-97808038D01*
X98252538Y-97813929D01*
X98241027Y-97827042D01*
X98226603Y-97842505D01*
X98199873Y-97867105D01*
X98165196Y-97896930D01*
X98140788Y-97917000D01*
X98100076Y-97951048D01*
X98074057Y-97976171D01*
X98060002Y-97995464D01*
X98055180Y-98012022D01*
X98055089Y-98014140D01*
X98048649Y-98042018D01*
X98037952Y-98059119D01*
X98027451Y-98071982D01*
X98027741Y-98075750D01*
X98028494Y-98083514D01*
X98022530Y-98097483D01*
X98007012Y-98116310D01*
X97983565Y-98135151D01*
X97959022Y-98149533D01*
X97940220Y-98154980D01*
X97936268Y-98153952D01*
X97928022Y-98156316D01*
X97927583Y-98159448D01*
X97918253Y-98166193D01*
X97894182Y-98168669D01*
X97861242Y-98167401D01*
X97825309Y-98162911D01*
X97792258Y-98155725D01*
X97767962Y-98146366D01*
X97765740Y-98145009D01*
X97725189Y-98109769D01*
X97700281Y-98065591D01*
X97688844Y-98008282D01*
X97687980Y-97994829D01*
X97687798Y-97956433D01*
X97691161Y-97933129D01*
X97695718Y-97927583D01*
X97702347Y-97921619D01*
X97701214Y-97918898D01*
X97701991Y-97902127D01*
X97715596Y-97878222D01*
X97737788Y-97852560D01*
X97764320Y-97830519D01*
X97776851Y-97823059D01*
X97818831Y-97808529D01*
X97865498Y-97802372D01*
X97868249Y-97802347D01*
X97908885Y-97798407D01*
X97936844Y-97785149D01*
X97942622Y-97780202D01*
X97961112Y-97766790D01*
X97973158Y-97765034D01*
X97973347Y-97765209D01*
X97980019Y-97764489D01*
X97980500Y-97760821D01*
X97988191Y-97751659D01*
X98009525Y-97731456D01*
X98041891Y-97702418D01*
X98082676Y-97666746D01*
X98129269Y-97626645D01*
X98179059Y-97584318D01*
X98229435Y-97541968D01*
X98277785Y-97501800D01*
X98321498Y-97466016D01*
X98357962Y-97436821D01*
X98384566Y-97416417D01*
X98398699Y-97407008D01*
X98400179Y-97406691D01*
X98409049Y-97401359D01*
X98425725Y-97384412D01*
X98431656Y-97377558D01*
X98450865Y-97358646D01*
X98465632Y-97350859D01*
X98468298Y-97351388D01*
X98477726Y-97351192D01*
X98478380Y-97348770D01*
X98479003Y-97334156D01*
X98480115Y-97305617D01*
X98481026Y-97281408D01*
X98483208Y-97222608D01*
X98212012Y-97006241D01*
X98147031Y-96953955D01*
X98087977Y-96905582D01*
X98036746Y-96862744D01*
X97995237Y-96827063D01*
X97965347Y-96800162D01*
X97948976Y-96783664D01*
X97946480Y-96779292D01*
X97946522Y-96774278D01*
X97943483Y-96776554D01*
X97929253Y-96777594D01*
X97920676Y-96772660D01*
X97901626Y-96765349D01*
X97871677Y-96761648D01*
X97862463Y-96761528D01*
X97823365Y-96756744D01*
X97783654Y-96744174D01*
X97777324Y-96741183D01*
X97750014Y-96722538D01*
X97725151Y-96697843D01*
X97706968Y-96672440D01*
X97699699Y-96651673D01*
X97701214Y-96645102D01*
X97698850Y-96636856D01*
X97695718Y-96636417D01*
X97689976Y-96626493D01*
X97687491Y-96598974D01*
X97687980Y-96569170D01*
X97696975Y-96508721D01*
X97719006Y-96462245D01*
X97756244Y-96425547D01*
X97765740Y-96418990D01*
X97788457Y-96409386D01*
X97820698Y-96401886D01*
X97856588Y-96397014D01*
X97890253Y-96395295D01*
X97890253Y-95891295D01*
X97861691Y-95911266D01*
X97794023Y-95959059D01*
X97717005Y-96013870D01*
X97628761Y-96077011D01*
X97527418Y-96149793D01*
X97411102Y-96233530D01*
X97393125Y-96246484D01*
X97291974Y-96318293D01*
X97203168Y-96379084D01*
X97127635Y-96428259D01*
X97066300Y-96465217D01*
X97020090Y-96489360D01*
X97011859Y-96492970D01*
X97002056Y-96496199D01*
X96988215Y-96498984D01*
X96968837Y-96501358D01*
X96942423Y-96503351D01*
X96907475Y-96504996D01*
X96862495Y-96506324D01*
X96805985Y-96507366D01*
X96736445Y-96508155D01*
X96652378Y-96508722D01*
X96552284Y-96509099D01*
X96434667Y-96509317D01*
X96298026Y-96509408D01*
X96232957Y-96509417D01*
X95493416Y-96509417D01*
X95493416Y-96386229D01*
X95492985Y-96331886D01*
X95491341Y-96294806D01*
X95487959Y-96271099D01*
X95482314Y-96256873D01*
X95474895Y-96248982D01*
X95456921Y-96243233D01*
X95423022Y-96238821D01*
X95377902Y-96235776D01*
X95326268Y-96234126D01*
X95272824Y-96233898D01*
X95222276Y-96235122D01*
X95179330Y-96237824D01*
X95148689Y-96242034D01*
X95135700Y-96246950D01*
X95133451Y-96259582D01*
X95131401Y-96291579D01*
X95129552Y-96341143D01*
X95127902Y-96406473D01*
X95126452Y-96485769D01*
X95125202Y-96577231D01*
X95124151Y-96679061D01*
X95123300Y-96789457D01*
X95122650Y-96906620D01*
X95122199Y-97028750D01*
X95121947Y-97154047D01*
X95121895Y-97280712D01*
X95122043Y-97406944D01*
X95122043Y-97406944D01*
G37*
X95122043Y-97406944D02*
X95122391Y-97530944D01*
X95122938Y-97650912D01*
X95123684Y-97765048D01*
X95124631Y-97871552D01*
X95125778Y-97968624D01*
X95127124Y-98054465D01*
X95128670Y-98127275D01*
X95130416Y-98185253D01*
X95132361Y-98226600D01*
X95134506Y-98249516D01*
X95135700Y-98253550D01*
X95151130Y-98259318D01*
X95184726Y-98263306D01*
X95237499Y-98265589D01*
X95303393Y-98266250D01*
X95370965Y-98265982D01*
X95420256Y-98263912D01*
X95454147Y-98258140D01*
X95475523Y-98246766D01*
X95487268Y-98227890D01*
X95492265Y-98199613D01*
X95493399Y-98160035D01*
X95493416Y-98141062D01*
X95493416Y-98054583D01*
X96983517Y-98054583D01*
X97044763Y-98086801D01*
X97095399Y-98115782D01*
X97161820Y-98157692D01*
X97243394Y-98212102D01*
X97339490Y-98278581D01*
X97449474Y-98356700D01*
X97567750Y-98442401D01*
X97739969Y-98566869D01*
X97901550Y-98680625D01*
X98057624Y-98787081D01*
X98213317Y-98889647D01*
X98373760Y-98991735D01*
X98544080Y-99096756D01*
X98626083Y-99146345D01*
X98703607Y-99192668D01*
X98787790Y-99242430D01*
X98875945Y-99294091D01*
X98965388Y-99346105D01*
X99053432Y-99396932D01*
X99137393Y-99445027D01*
X99214584Y-99488848D01*
X99282321Y-99526852D01*
X99337918Y-99557495D01*
X99378690Y-99579236D01*
X99386276Y-99583112D01*
X99493856Y-99626841D01*
X99611593Y-99656163D01*
X99733955Y-99670479D01*
X99855407Y-99669193D01*
X99970417Y-99651708D01*
X99986041Y-99647842D01*
X100084908Y-99613775D01*
X100178359Y-99565680D01*
X100262429Y-99506318D01*
X100333155Y-99438452D01*
X100382645Y-99371520D01*
X100391551Y-99357231D01*
X100399705Y-99344614D01*
X100407143Y-99332729D01*
X100413895Y-99320635D01*
X100419995Y-99307392D01*
X100425477Y-99292059D01*
X100430372Y-99273697D01*
X100434714Y-99251365D01*
X100438536Y-99224122D01*
X100441870Y-99191029D01*
X100444750Y-99151145D01*
X100447208Y-99103530D01*
X100449278Y-99047243D01*
X100450992Y-98981344D01*
X100452383Y-98904892D01*
X100453485Y-98816949D01*
X100454329Y-98716572D01*
X100454949Y-98602822D01*
X100455378Y-98474758D01*
X100455649Y-98331441D01*
X100455795Y-98171929D01*
X100455848Y-97995283D01*
X100455841Y-97800562D01*
X100455808Y-97586826D01*
X100455781Y-97353135D01*
X100455779Y-97282000D01*
X100455769Y-97046374D01*
X100455733Y-96830973D01*
X100455662Y-96634851D01*
X100455547Y-96457067D01*
X100455379Y-96296678D01*
X100455151Y-96152740D01*
X100454853Y-96024310D01*
X100454475Y-95910445D01*
X100454011Y-95810202D01*
X100453450Y-95722639D01*
X100452785Y-95646811D01*
X100452005Y-95581776D01*
X100451103Y-95526591D01*
X100450071Y-95480313D01*
X100448898Y-95441999D01*
X100447576Y-95410705D01*
X100446097Y-95385489D01*
X100444451Y-95365407D01*
X100442631Y-95349517D01*
X100440627Y-95336875D01*
X100438431Y-95326538D01*
X100437597Y-95323224D01*
X100402512Y-95229987D01*
X100348747Y-95144730D01*
X100277873Y-95069267D01*
X100191459Y-95005414D01*
X100136747Y-94975347D01*
X100065582Y-94942968D01*
X100001598Y-94920337D01*
X99937969Y-94905961D01*
X99867872Y-94898345D01*
X99784481Y-94895995D01*
X99774375Y-94895993D01*
X99660911Y-94901082D01*
X99561121Y-94916628D01*
X99469677Y-94943762D01*
X99395104Y-94976494D01*
X99335245Y-95007719D01*
X99260006Y-95048797D01*
X99171883Y-95098247D01*
X99073373Y-95154591D01*
X98966975Y-95216350D01*
X98855184Y-95282044D01*
X98740499Y-95350194D01*
X98625417Y-95419321D01*
X98512434Y-95487945D01*
X98404049Y-95554588D01*
X98302757Y-95617770D01*
X98211058Y-95676012D01*
X98176291Y-95698458D01*
X98125368Y-95731681D01*
X98076339Y-95764053D01*
X98027332Y-95796886D01*
X97976471Y-95831492D01*
X97921882Y-95869181D01*
X97890253Y-95891295D01*
X97890253Y-96395295D01*
X97915818Y-96397251D01*
X97927409Y-96403408D01*
X97927583Y-96404552D01*
X97933547Y-96411180D01*
X97936268Y-96410048D01*
X97951456Y-96411321D01*
X97974771Y-96423091D01*
X97999377Y-96440884D01*
X98018440Y-96460225D01*
X98022530Y-96466517D01*
X98029129Y-96483133D01*
X98027741Y-96488250D01*
X98028895Y-96494369D01*
X98037952Y-96504881D01*
X98051429Y-96528687D01*
X98054583Y-96546349D01*
X98057640Y-96575679D01*
X98065315Y-96595268D01*
X98075362Y-96599574D01*
X98076011Y-96599213D01*
X98087722Y-96602837D01*
X98104308Y-96618905D01*
X98105247Y-96620082D01*
X98120933Y-96636586D01*
X98131012Y-96641055D01*
X98131346Y-96640792D01*
X98140786Y-96644274D01*
X98156353Y-96660142D01*
X98157805Y-96661959D01*
X98173617Y-96678678D01*
X98183837Y-96683439D01*
X98184263Y-96683125D01*
X98193702Y-96686607D01*
X98209269Y-96702475D01*
X98210721Y-96704292D01*
X98226534Y-96721011D01*
X98236754Y-96725773D01*
X98237180Y-96725459D01*
X98246619Y-96728941D01*
X98262186Y-96744809D01*
X98263638Y-96746625D01*
X98279451Y-96763345D01*
X98289670Y-96768106D01*
X98290096Y-96767792D01*
X98299470Y-96771405D01*
X98315292Y-96787440D01*
X98317960Y-96790745D01*
X98332701Y-96807755D01*
X98340122Y-96812930D01*
X98340333Y-96812247D01*
X98348123Y-96816305D01*
X98369787Y-96831772D01*
X98402770Y-96856715D01*
X98444515Y-96889200D01*
X98492393Y-96927237D01*
X98644454Y-97049167D01*
X98709352Y-97049167D01*
X98746097Y-97050870D01*
X98768840Y-97055511D01*
X98774250Y-97060374D01*
X98780690Y-97066788D01*
X98784522Y-97065234D01*
X98802867Y-97065155D01*
X98830067Y-97078032D01*
X98861109Y-97100834D01*
X98889196Y-97128484D01*
X98922617Y-97166548D01*
X99351038Y-97167093D01*
X99779460Y-97167639D01*
X99812209Y-97140082D01*
X99834944Y-97124109D01*
X99851726Y-97117871D01*
X99854646Y-97118512D01*
X99863749Y-97117069D01*
X99864333Y-97113771D01*
X99873604Y-97105034D01*
X99896493Y-97097139D01*
X99902395Y-97095902D01*
X99932505Y-97094263D01*
X99966158Y-97098119D01*
X99996752Y-97105916D01*
X100017689Y-97116102D01*
X100023083Y-97124299D01*
X100029252Y-97130730D01*
X100032047Y-97129542D01*
X100044223Y-97133086D01*
X100063509Y-97148967D01*
X100084855Y-97172197D01*
X100103212Y-97197788D01*
X100106011Y-97202625D01*
X100114559Y-97231935D01*
X100117593Y-97272773D01*
X100115286Y-97316276D01*
X100107811Y-97353584D01*
X100102838Y-97365931D01*
X100071588Y-97407299D01*
X100027097Y-97442147D01*
X99981293Y-97463004D01*
X99949566Y-97468660D01*
X99915759Y-97468994D01*
X99886311Y-97464710D01*
X99867663Y-97456512D01*
X99864333Y-97450229D01*
X99857821Y-97444356D01*
X99853750Y-97446042D01*
X99844013Y-97444851D01*
X99843166Y-97440750D01*
X99837303Y-97433341D01*
X99833997Y-97434584D01*
X99821028Y-97431919D01*
X99805899Y-97419334D01*
X99800494Y-97414156D01*
X99793223Y-97409910D01*
X99782089Y-97406505D01*
X99765095Y-97403848D01*
X99740247Y-97401846D01*
X99705549Y-97400407D01*
X99659003Y-97399438D01*
X99598616Y-97398847D01*
X99522390Y-97398542D01*
X99428330Y-97398430D01*
X99354369Y-97398417D01*
X98921769Y-97398417D01*
X98888772Y-97435999D01*
X98858878Y-97465099D01*
X98828030Y-97487206D01*
X98801296Y-97499268D01*
X98784522Y-97498766D01*
X98775013Y-97500309D01*
X98774250Y-97504331D01*
X98763896Y-97511246D01*
X98732830Y-97513869D01*
X98702606Y-97513319D01*
X98630963Y-97510394D01*
X98451252Y-97660298D01*
X98398731Y-97703736D01*
X98351564Y-97742036D01*
X98312180Y-97773285D01*
X98283009Y-97795567D01*
X98266479Y-97806969D01*
X98263807Y-97808038D01*
X98252538Y-97813929D01*
X98241027Y-97827042D01*
X98226603Y-97842505D01*
X98199873Y-97867105D01*
X98165196Y-97896930D01*
X98140788Y-97917000D01*
X98100076Y-97951048D01*
X98074057Y-97976171D01*
X98060002Y-97995464D01*
X98055180Y-98012022D01*
X98055089Y-98014140D01*
X98048649Y-98042018D01*
X98037952Y-98059119D01*
X98027451Y-98071982D01*
X98027741Y-98075750D01*
X98028494Y-98083514D01*
X98022530Y-98097483D01*
X98007012Y-98116310D01*
X97983565Y-98135151D01*
X97959022Y-98149533D01*
X97940220Y-98154980D01*
X97936268Y-98153952D01*
X97928022Y-98156316D01*
X97927583Y-98159448D01*
X97918253Y-98166193D01*
X97894182Y-98168669D01*
X97861242Y-98167401D01*
X97825309Y-98162911D01*
X97792258Y-98155725D01*
X97767962Y-98146366D01*
X97765740Y-98145009D01*
X97725189Y-98109769D01*
X97700281Y-98065591D01*
X97688844Y-98008282D01*
X97687980Y-97994829D01*
X97687798Y-97956433D01*
X97691161Y-97933129D01*
X97695718Y-97927583D01*
X97702347Y-97921619D01*
X97701214Y-97918898D01*
X97701991Y-97902127D01*
X97715596Y-97878222D01*
X97737788Y-97852560D01*
X97764320Y-97830519D01*
X97776851Y-97823059D01*
X97818831Y-97808529D01*
X97865498Y-97802372D01*
X97868249Y-97802347D01*
X97908885Y-97798407D01*
X97936844Y-97785149D01*
X97942622Y-97780202D01*
X97961112Y-97766790D01*
X97973158Y-97765034D01*
X97973347Y-97765209D01*
X97980019Y-97764489D01*
X97980500Y-97760821D01*
X97988191Y-97751659D01*
X98009525Y-97731456D01*
X98041891Y-97702418D01*
X98082676Y-97666746D01*
X98129269Y-97626645D01*
X98179059Y-97584318D01*
X98229435Y-97541968D01*
X98277785Y-97501800D01*
X98321498Y-97466016D01*
X98357962Y-97436821D01*
X98384566Y-97416417D01*
X98398699Y-97407008D01*
X98400179Y-97406691D01*
X98409049Y-97401359D01*
X98425725Y-97384412D01*
X98431656Y-97377558D01*
X98450865Y-97358646D01*
X98465632Y-97350859D01*
X98468298Y-97351388D01*
X98477726Y-97351192D01*
X98478380Y-97348770D01*
X98479003Y-97334156D01*
X98480115Y-97305617D01*
X98481026Y-97281408D01*
X98483208Y-97222608D01*
X98212012Y-97006241D01*
X98147031Y-96953955D01*
X98087977Y-96905582D01*
X98036746Y-96862744D01*
X97995237Y-96827063D01*
X97965347Y-96800162D01*
X97948976Y-96783664D01*
X97946480Y-96779292D01*
X97946522Y-96774278D01*
X97943483Y-96776554D01*
X97929253Y-96777594D01*
X97920676Y-96772660D01*
X97901626Y-96765349D01*
X97871677Y-96761648D01*
X97862463Y-96761528D01*
X97823365Y-96756744D01*
X97783654Y-96744174D01*
X97777324Y-96741183D01*
X97750014Y-96722538D01*
X97725151Y-96697843D01*
X97706968Y-96672440D01*
X97699699Y-96651673D01*
X97701214Y-96645102D01*
X97698850Y-96636856D01*
X97695718Y-96636417D01*
X97689976Y-96626493D01*
X97687491Y-96598974D01*
X97687980Y-96569170D01*
X97696975Y-96508721D01*
X97719006Y-96462245D01*
X97756244Y-96425547D01*
X97765740Y-96418990D01*
X97788457Y-96409386D01*
X97820698Y-96401886D01*
X97856588Y-96397014D01*
X97890253Y-96395295D01*
X97890253Y-95891295D01*
X97861691Y-95911266D01*
X97794023Y-95959059D01*
X97717005Y-96013870D01*
X97628761Y-96077011D01*
X97527418Y-96149793D01*
X97411102Y-96233530D01*
X97393125Y-96246484D01*
X97291974Y-96318293D01*
X97203168Y-96379084D01*
X97127635Y-96428259D01*
X97066300Y-96465217D01*
X97020090Y-96489360D01*
X97011859Y-96492970D01*
X97002056Y-96496199D01*
X96988215Y-96498984D01*
X96968837Y-96501358D01*
X96942423Y-96503351D01*
X96907475Y-96504996D01*
X96862495Y-96506324D01*
X96805985Y-96507366D01*
X96736445Y-96508155D01*
X96652378Y-96508722D01*
X96552284Y-96509099D01*
X96434667Y-96509317D01*
X96298026Y-96509408D01*
X96232957Y-96509417D01*
X95493416Y-96509417D01*
X95493416Y-96386229D01*
X95492985Y-96331886D01*
X95491341Y-96294806D01*
X95487959Y-96271099D01*
X95482314Y-96256873D01*
X95474895Y-96248982D01*
X95456921Y-96243233D01*
X95423022Y-96238821D01*
X95377902Y-96235776D01*
X95326268Y-96234126D01*
X95272824Y-96233898D01*
X95222276Y-96235122D01*
X95179330Y-96237824D01*
X95148689Y-96242034D01*
X95135700Y-96246950D01*
X95133451Y-96259582D01*
X95131401Y-96291579D01*
X95129552Y-96341143D01*
X95127902Y-96406473D01*
X95126452Y-96485769D01*
X95125202Y-96577231D01*
X95124151Y-96679061D01*
X95123300Y-96789457D01*
X95122650Y-96906620D01*
X95122199Y-97028750D01*
X95121947Y-97154047D01*
X95121895Y-97280712D01*
X95122043Y-97406944D01*
G36*
X98504375Y-97610083D02*
X98509666Y-97604792D01*
X98504375Y-97599500D01*
X98499083Y-97604792D01*
X98504375Y-97610083D01*
X98504375Y-97610083D01*
G37*
X98504375Y-97610083D02*
X98509666Y-97604792D01*
X98504375Y-97599500D01*
X98499083Y-97604792D01*
X98504375Y-97610083D01*
G36*
X98440875Y-97663000D02*
X98446166Y-97657708D01*
X98440875Y-97652417D01*
X98435583Y-97657708D01*
X98440875Y-97663000D01*
X98440875Y-97663000D01*
G37*
X98440875Y-97663000D02*
X98446166Y-97657708D01*
X98440875Y-97652417D01*
X98435583Y-97657708D01*
X98440875Y-97663000D01*
G36*
X98377375Y-97715917D02*
X98382666Y-97710625D01*
X98377375Y-97705333D01*
X98372083Y-97710625D01*
X98377375Y-97715917D01*
X98377375Y-97715917D01*
G37*
X98377375Y-97715917D02*
X98382666Y-97710625D01*
X98377375Y-97705333D01*
X98372083Y-97710625D01*
X98377375Y-97715917D01*
G36*
X98345625Y-97461917D02*
X98350916Y-97456625D01*
X98345625Y-97451333D01*
X98340333Y-97456625D01*
X98345625Y-97461917D01*
X98345625Y-97461917D01*
G37*
X98345625Y-97461917D02*
X98350916Y-97456625D01*
X98345625Y-97451333D01*
X98340333Y-97456625D01*
X98345625Y-97461917D01*
G36*
X98313875Y-97080917D02*
X98319166Y-97075625D01*
X98313875Y-97070333D01*
X98308583Y-97075625D01*
X98313875Y-97080917D01*
X98313875Y-97080917D01*
G37*
X98313875Y-97080917D02*
X98319166Y-97075625D01*
X98313875Y-97070333D01*
X98308583Y-97075625D01*
X98313875Y-97080917D01*
G36*
X98313875Y-97768833D02*
X98319166Y-97763542D01*
X98313875Y-97758250D01*
X98308583Y-97763542D01*
X98313875Y-97768833D01*
X98313875Y-97768833D01*
G37*
X98313875Y-97768833D02*
X98319166Y-97763542D01*
X98313875Y-97758250D01*
X98308583Y-97763542D01*
X98313875Y-97768833D01*
G36*
X98282125Y-97514833D02*
X98287416Y-97509542D01*
X98282125Y-97504250D01*
X98276833Y-97509542D01*
X98282125Y-97514833D01*
X98282125Y-97514833D01*
G37*
X98282125Y-97514833D02*
X98287416Y-97509542D01*
X98282125Y-97504250D01*
X98276833Y-97509542D01*
X98282125Y-97514833D01*
G36*
X98260958Y-97038583D02*
X98266250Y-97033292D01*
X98260958Y-97028000D01*
X98255666Y-97033292D01*
X98260958Y-97038583D01*
X98260958Y-97038583D01*
G37*
X98260958Y-97038583D02*
X98266250Y-97033292D01*
X98260958Y-97028000D01*
X98255666Y-97033292D01*
X98260958Y-97038583D01*
G36*
X98218625Y-97567750D02*
X98223916Y-97562458D01*
X98218625Y-97557167D01*
X98213333Y-97562458D01*
X98218625Y-97567750D01*
X98218625Y-97567750D01*
G37*
X98218625Y-97567750D02*
X98223916Y-97562458D01*
X98218625Y-97557167D01*
X98213333Y-97562458D01*
X98218625Y-97567750D01*
G36*
X98208041Y-96996250D02*
X98213333Y-96990958D01*
X98208041Y-96985667D01*
X98202750Y-96990958D01*
X98208041Y-96996250D01*
X98208041Y-96996250D01*
G37*
X98208041Y-96996250D02*
X98213333Y-96990958D01*
X98208041Y-96985667D01*
X98202750Y-96990958D01*
X98208041Y-96996250D01*
G36*
X98155125Y-96953917D02*
X98160416Y-96948625D01*
X98155125Y-96943333D01*
X98149833Y-96948625D01*
X98155125Y-96953917D01*
X98155125Y-96953917D01*
G37*
X98155125Y-96953917D02*
X98160416Y-96948625D01*
X98155125Y-96943333D01*
X98149833Y-96948625D01*
X98155125Y-96953917D01*
G36*
X98102208Y-96911583D02*
X98107500Y-96906292D01*
X98102208Y-96901000D01*
X98096916Y-96906292D01*
X98102208Y-96911583D01*
X98102208Y-96911583D01*
G37*
X98102208Y-96911583D02*
X98107500Y-96906292D01*
X98102208Y-96901000D01*
X98096916Y-96906292D01*
X98102208Y-96911583D01*
G36*
X98049291Y-96869250D02*
X98054583Y-96863958D01*
X98049291Y-96858667D01*
X98044000Y-96863958D01*
X98049291Y-96869250D01*
X98049291Y-96869250D01*
G37*
X98049291Y-96869250D02*
X98054583Y-96863958D01*
X98049291Y-96858667D01*
X98044000Y-96863958D01*
X98049291Y-96869250D01*
G36*
X98006958Y-96467083D02*
X98012250Y-96461792D01*
X98006958Y-96456500D01*
X98001666Y-96461792D01*
X98006958Y-96467083D01*
X98006958Y-96467083D01*
G37*
X98006958Y-96467083D02*
X98012250Y-96461792D01*
X98006958Y-96456500D01*
X98001666Y-96461792D01*
X98006958Y-96467083D01*
G36*
X98006958Y-98107500D02*
X98012250Y-98102208D01*
X98006958Y-98096917D01*
X98001666Y-98102208D01*
X98006958Y-98107500D01*
X98006958Y-98107500D01*
G37*
X98006958Y-98107500D02*
X98012250Y-98102208D01*
X98006958Y-98096917D01*
X98001666Y-98102208D01*
X98006958Y-98107500D01*
G36*
X97996375Y-96826917D02*
X98001666Y-96821625D01*
X97996375Y-96816333D01*
X97991083Y-96821625D01*
X97996375Y-96826917D01*
X97996375Y-96826917D01*
G37*
X97996375Y-96826917D02*
X98001666Y-96821625D01*
X97996375Y-96816333D01*
X97991083Y-96821625D01*
X97996375Y-96826917D01*
G36*
X97985791Y-96445917D02*
X97991083Y-96440625D01*
X97985791Y-96435333D01*
X97980500Y-96440625D01*
X97985791Y-96445917D01*
X97985791Y-96445917D01*
G37*
X97985791Y-96445917D02*
X97991083Y-96440625D01*
X97985791Y-96435333D01*
X97980500Y-96440625D01*
X97985791Y-96445917D01*
G36*
X97985791Y-98128667D02*
X97991083Y-98123375D01*
X97985791Y-98118083D01*
X97980500Y-98123375D01*
X97985791Y-98128667D01*
X97985791Y-98128667D01*
G37*
X97985791Y-98128667D02*
X97991083Y-98123375D01*
X97985791Y-98118083D01*
X97980500Y-98123375D01*
X97985791Y-98128667D01*
G36*
X97752958Y-96721083D02*
X97758250Y-96715792D01*
X97752958Y-96710500D01*
X97747666Y-96715792D01*
X97752958Y-96721083D01*
X97752958Y-96721083D01*
G37*
X97752958Y-96721083D02*
X97758250Y-96715792D01*
X97752958Y-96710500D01*
X97747666Y-96715792D01*
X97752958Y-96721083D01*
M02*
