G04 #@! TF.FileFunction,Copper,L2,Bot,Signal*
%FSLAX46Y46*%
G04 Gerber Fmt 4.6, Leading zero omitted, Abs format (unit mm)*
G04 Created by KiCad (PCBNEW 4.0.7-e1-6374~58~ubuntu16.04.1) date Tue Aug 22 04:57:06 2017*
%MOMM*%
%LPD*%
G01*
G04 APERTURE LIST*
%ADD10C,0.100000*%
%ADD11C,0.002000*%
%ADD12R,1.727200X1.727200*%
%ADD13O,1.727200X1.727200*%
%ADD14R,1.700000X1.700000*%
%ADD15O,1.700000X1.700000*%
%ADD16C,0.600000*%
%ADD17C,0.250000*%
%ADD18C,0.254000*%
G04 APERTURE END LIST*
D10*
D11*
G36*
X94646328Y-125608470D02*
X94799449Y-125638098D01*
X94935644Y-125666254D01*
X95046818Y-125691117D01*
X95124872Y-125710866D01*
X95161710Y-125723680D01*
X95162954Y-125724643D01*
X95181112Y-125756504D01*
X95212930Y-125825100D01*
X95253918Y-125919446D01*
X95299586Y-126028556D01*
X95345446Y-126141444D01*
X95387007Y-126247124D01*
X95419780Y-126334611D01*
X95439276Y-126392920D01*
X95442734Y-126409256D01*
X95428887Y-126438221D01*
X95390371Y-126501986D01*
X95331723Y-126593474D01*
X95257481Y-126705608D01*
X95172180Y-126831314D01*
X95171576Y-126832193D01*
X95085290Y-126958656D01*
X95008896Y-127072075D01*
X94947195Y-127165204D01*
X94904991Y-127230792D01*
X94887122Y-127261500D01*
X94900137Y-127289564D01*
X94943903Y-127345672D01*
X95011781Y-127423103D01*
X95097132Y-127515138D01*
X95193314Y-127615056D01*
X95293688Y-127716137D01*
X95391613Y-127811662D01*
X95480451Y-127894911D01*
X95553560Y-127959164D01*
X95604301Y-127997701D01*
X95622565Y-128005789D01*
X95655566Y-127991934D01*
X95723047Y-127953416D01*
X95817627Y-127894805D01*
X95931929Y-127820670D01*
X96055397Y-127737749D01*
X96181209Y-127653000D01*
X96293794Y-127579274D01*
X96385950Y-127521120D01*
X96450472Y-127483083D01*
X96479988Y-127469708D01*
X96514578Y-127479533D01*
X96584968Y-127505966D01*
X96680500Y-127544444D01*
X96790518Y-127590403D01*
X96904363Y-127639280D01*
X97011377Y-127686513D01*
X97100902Y-127727538D01*
X97162280Y-127757791D01*
X97183846Y-127771062D01*
X97192568Y-127798915D01*
X97208805Y-127867522D01*
X97230665Y-127967456D01*
X97256253Y-128089288D01*
X97283678Y-128223592D01*
X97311047Y-128360939D01*
X97336467Y-128491903D01*
X97358045Y-128607056D01*
X97373889Y-128696971D01*
X97382105Y-128752220D01*
X97382834Y-128762194D01*
X97406820Y-128767541D01*
X97472685Y-128771123D01*
X97571287Y-128773079D01*
X97693484Y-128773545D01*
X97830135Y-128772662D01*
X97972098Y-128770566D01*
X98110233Y-128767395D01*
X98235397Y-128763288D01*
X98338450Y-128758383D01*
X98410249Y-128752818D01*
X98441654Y-128746731D01*
X98442167Y-128746194D01*
X98451760Y-128713912D01*
X98468709Y-128639971D01*
X98491207Y-128532934D01*
X98517447Y-128401369D01*
X98542210Y-128272036D01*
X98571810Y-128122990D01*
X98600907Y-127991696D01*
X98627384Y-127886664D01*
X98649123Y-127816402D01*
X98662024Y-127790613D01*
X98697981Y-127769725D01*
X98770727Y-127735670D01*
X98869408Y-127692824D01*
X98983169Y-127645561D01*
X99101157Y-127598256D01*
X99212517Y-127555284D01*
X99306395Y-127521021D01*
X99371936Y-127499840D01*
X99395089Y-127495141D01*
X99426255Y-127509084D01*
X99491693Y-127547699D01*
X99583933Y-127606262D01*
X99695503Y-127680049D01*
X99798948Y-127750513D01*
X99921735Y-127833598D01*
X100032326Y-127905376D01*
X100123032Y-127961097D01*
X100186166Y-127996013D01*
X100212161Y-128005789D01*
X100240816Y-127988580D01*
X100297962Y-127941437D01*
X100376681Y-127871086D01*
X100470057Y-127784253D01*
X100571174Y-127687665D01*
X100673116Y-127588047D01*
X100768965Y-127492126D01*
X100851807Y-127406628D01*
X100914724Y-127338278D01*
X100950801Y-127293804D01*
X100956703Y-127281719D01*
X100942926Y-127254552D01*
X100904779Y-127192849D01*
X100847037Y-127103991D01*
X100774477Y-126995362D01*
X100713484Y-126905763D01*
X100631568Y-126785309D01*
X100559487Y-126677359D01*
X100502430Y-126589837D01*
X100465582Y-126530666D01*
X100454503Y-126510131D01*
X100457412Y-126468072D01*
X100479964Y-126395316D01*
X100517625Y-126306130D01*
X100522734Y-126295437D01*
X100561589Y-126207165D01*
X100586898Y-126133842D01*
X100593915Y-126089565D01*
X100593122Y-126086367D01*
X100568305Y-126071052D01*
X100502864Y-126039056D01*
X100403360Y-125993187D01*
X100276358Y-125936257D01*
X100128420Y-125871075D01*
X99966109Y-125800451D01*
X99795990Y-125727196D01*
X99624624Y-125654118D01*
X99458574Y-125584029D01*
X99304405Y-125519738D01*
X99168679Y-125464055D01*
X99057959Y-125419790D01*
X98978808Y-125389754D01*
X98937789Y-125376756D01*
X98935006Y-125376442D01*
X98913774Y-125395565D01*
X98870510Y-125446630D01*
X98813060Y-125520177D01*
X98787586Y-125554148D01*
X98627800Y-125732056D01*
X98447344Y-125867483D01*
X98251978Y-125960014D01*
X98047461Y-126009233D01*
X97839552Y-126014726D01*
X97634010Y-125976078D01*
X97436595Y-125892873D01*
X97253065Y-125764696D01*
X97157180Y-125671686D01*
X97026241Y-125495636D01*
X96940272Y-125306522D01*
X96896760Y-125110041D01*
X96893193Y-124911888D01*
X96927056Y-124717760D01*
X96995836Y-124533351D01*
X97097020Y-124364358D01*
X97228094Y-124216476D01*
X97386546Y-124095401D01*
X97569861Y-124006829D01*
X97775526Y-123956456D01*
X97918278Y-123946894D01*
X98146942Y-123971027D01*
X98358294Y-124042930D01*
X98550937Y-124161865D01*
X98723474Y-124327091D01*
X98787586Y-124407379D01*
X98848545Y-124487332D01*
X98898490Y-124548627D01*
X98929576Y-124581805D01*
X98935006Y-124585085D01*
X98968796Y-124575373D01*
X99041854Y-124548111D01*
X99147614Y-124506112D01*
X99279514Y-124452187D01*
X99430991Y-124389151D01*
X99595481Y-124319814D01*
X99766421Y-124246989D01*
X99937249Y-124173489D01*
X100101399Y-124102126D01*
X100252310Y-124035712D01*
X100383418Y-123977061D01*
X100488160Y-123928983D01*
X100559973Y-123894292D01*
X100592292Y-123875801D01*
X100593392Y-123874456D01*
X100589219Y-123835746D01*
X100565686Y-123765627D01*
X100527543Y-123677696D01*
X100517245Y-123656468D01*
X100427223Y-123474633D01*
X100691963Y-123087672D01*
X100776073Y-122963596D01*
X100849161Y-122853610D01*
X100906665Y-122764757D01*
X100944024Y-122704079D01*
X100956703Y-122678888D01*
X100939434Y-122654908D01*
X100891321Y-122600990D01*
X100817907Y-122523010D01*
X100724735Y-122426844D01*
X100617347Y-122318370D01*
X100605368Y-122306402D01*
X100494356Y-122197703D01*
X100393324Y-122102715D01*
X100308547Y-122027024D01*
X100246300Y-121976218D01*
X100212859Y-121955883D01*
X100211488Y-121955739D01*
X100177409Y-121969699D01*
X100109334Y-122008414D01*
X100014935Y-122067137D01*
X99901885Y-122141120D01*
X99798948Y-122211015D01*
X99676894Y-122293957D01*
X99567881Y-122365652D01*
X99479379Y-122421378D01*
X99418859Y-122456409D01*
X99395089Y-122466386D01*
X99355716Y-122456912D01*
X99280442Y-122431305D01*
X99180120Y-122393941D01*
X99065606Y-122349194D01*
X98947752Y-122301440D01*
X98837415Y-122255053D01*
X98745446Y-122214409D01*
X98682702Y-122183882D01*
X98662024Y-122170914D01*
X98645809Y-122135872D01*
X98623103Y-122059016D01*
X98596024Y-121948854D01*
X98566689Y-121813896D01*
X98542210Y-121689491D01*
X98514173Y-121543420D01*
X98488285Y-121414337D01*
X98466355Y-121310806D01*
X98450191Y-121241395D01*
X98442167Y-121215334D01*
X98414619Y-121209209D01*
X98345899Y-121203594D01*
X98245149Y-121198627D01*
X98121509Y-121194447D01*
X97984121Y-121191192D01*
X97842128Y-121188999D01*
X97704669Y-121188007D01*
X97580888Y-121188354D01*
X97479924Y-121190177D01*
X97410920Y-121193615D01*
X97383018Y-121198807D01*
X97382834Y-121199334D01*
X97378028Y-121238863D01*
X97364873Y-121316656D01*
X97345260Y-121423287D01*
X97321084Y-121549328D01*
X97294236Y-121685351D01*
X97266609Y-121821929D01*
X97240096Y-121949635D01*
X97216590Y-122059040D01*
X97197983Y-122140719D01*
X97186168Y-122185242D01*
X97183846Y-122190466D01*
X97152182Y-122209007D01*
X97083966Y-122241917D01*
X96989856Y-122284634D01*
X96880510Y-122332595D01*
X96766586Y-122381236D01*
X96658742Y-122425994D01*
X96567635Y-122462306D01*
X96503924Y-122485609D01*
X96479988Y-122491819D01*
X96449675Y-122478007D01*
X96384642Y-122439604D01*
X96292093Y-122381157D01*
X96179233Y-122307214D01*
X96055397Y-122223779D01*
X95928966Y-122138902D01*
X95815058Y-122065091D01*
X95721050Y-122006915D01*
X95654322Y-121968944D01*
X95622565Y-121955739D01*
X95590688Y-121973106D01*
X95531958Y-122020728D01*
X95453015Y-122091884D01*
X95360499Y-122179855D01*
X95261051Y-122277920D01*
X95161310Y-122379361D01*
X95067916Y-122477456D01*
X94987510Y-122565487D01*
X94926731Y-122636732D01*
X94892219Y-122684473D01*
X94887122Y-122700028D01*
X94905248Y-122731147D01*
X94947634Y-122796994D01*
X95009476Y-122890321D01*
X95085973Y-123003879D01*
X95171576Y-123129334D01*
X95256936Y-123255107D01*
X95331269Y-123367357D01*
X95390037Y-123459009D01*
X95428704Y-123522985D01*
X95442733Y-123552208D01*
X95442734Y-123552271D01*
X95433263Y-123588016D01*
X95407846Y-123659473D01*
X95370970Y-123755657D01*
X95327126Y-123865582D01*
X95280803Y-123978263D01*
X95236491Y-124082713D01*
X95198678Y-124167948D01*
X95171854Y-124222982D01*
X95162954Y-124236885D01*
X95131471Y-124248768D01*
X95057824Y-124267799D01*
X94950109Y-124292157D01*
X94816424Y-124320022D01*
X94664867Y-124349572D01*
X94646328Y-124353058D01*
X94153588Y-124445345D01*
X94153588Y-125516183D01*
X94646328Y-125608470D01*
X94646328Y-125608470D01*
G37*
X94646328Y-125608470D02*
X94799449Y-125638098D01*
X94935644Y-125666254D01*
X95046818Y-125691117D01*
X95124872Y-125710866D01*
X95161710Y-125723680D01*
X95162954Y-125724643D01*
X95181112Y-125756504D01*
X95212930Y-125825100D01*
X95253918Y-125919446D01*
X95299586Y-126028556D01*
X95345446Y-126141444D01*
X95387007Y-126247124D01*
X95419780Y-126334611D01*
X95439276Y-126392920D01*
X95442734Y-126409256D01*
X95428887Y-126438221D01*
X95390371Y-126501986D01*
X95331723Y-126593474D01*
X95257481Y-126705608D01*
X95172180Y-126831314D01*
X95171576Y-126832193D01*
X95085290Y-126958656D01*
X95008896Y-127072075D01*
X94947195Y-127165204D01*
X94904991Y-127230792D01*
X94887122Y-127261500D01*
X94900137Y-127289564D01*
X94943903Y-127345672D01*
X95011781Y-127423103D01*
X95097132Y-127515138D01*
X95193314Y-127615056D01*
X95293688Y-127716137D01*
X95391613Y-127811662D01*
X95480451Y-127894911D01*
X95553560Y-127959164D01*
X95604301Y-127997701D01*
X95622565Y-128005789D01*
X95655566Y-127991934D01*
X95723047Y-127953416D01*
X95817627Y-127894805D01*
X95931929Y-127820670D01*
X96055397Y-127737749D01*
X96181209Y-127653000D01*
X96293794Y-127579274D01*
X96385950Y-127521120D01*
X96450472Y-127483083D01*
X96479988Y-127469708D01*
X96514578Y-127479533D01*
X96584968Y-127505966D01*
X96680500Y-127544444D01*
X96790518Y-127590403D01*
X96904363Y-127639280D01*
X97011377Y-127686513D01*
X97100902Y-127727538D01*
X97162280Y-127757791D01*
X97183846Y-127771062D01*
X97192568Y-127798915D01*
X97208805Y-127867522D01*
X97230665Y-127967456D01*
X97256253Y-128089288D01*
X97283678Y-128223592D01*
X97311047Y-128360939D01*
X97336467Y-128491903D01*
X97358045Y-128607056D01*
X97373889Y-128696971D01*
X97382105Y-128752220D01*
X97382834Y-128762194D01*
X97406820Y-128767541D01*
X97472685Y-128771123D01*
X97571287Y-128773079D01*
X97693484Y-128773545D01*
X97830135Y-128772662D01*
X97972098Y-128770566D01*
X98110233Y-128767395D01*
X98235397Y-128763288D01*
X98338450Y-128758383D01*
X98410249Y-128752818D01*
X98441654Y-128746731D01*
X98442167Y-128746194D01*
X98451760Y-128713912D01*
X98468709Y-128639971D01*
X98491207Y-128532934D01*
X98517447Y-128401369D01*
X98542210Y-128272036D01*
X98571810Y-128122990D01*
X98600907Y-127991696D01*
X98627384Y-127886664D01*
X98649123Y-127816402D01*
X98662024Y-127790613D01*
X98697981Y-127769725D01*
X98770727Y-127735670D01*
X98869408Y-127692824D01*
X98983169Y-127645561D01*
X99101157Y-127598256D01*
X99212517Y-127555284D01*
X99306395Y-127521021D01*
X99371936Y-127499840D01*
X99395089Y-127495141D01*
X99426255Y-127509084D01*
X99491693Y-127547699D01*
X99583933Y-127606262D01*
X99695503Y-127680049D01*
X99798948Y-127750513D01*
X99921735Y-127833598D01*
X100032326Y-127905376D01*
X100123032Y-127961097D01*
X100186166Y-127996013D01*
X100212161Y-128005789D01*
X100240816Y-127988580D01*
X100297962Y-127941437D01*
X100376681Y-127871086D01*
X100470057Y-127784253D01*
X100571174Y-127687665D01*
X100673116Y-127588047D01*
X100768965Y-127492126D01*
X100851807Y-127406628D01*
X100914724Y-127338278D01*
X100950801Y-127293804D01*
X100956703Y-127281719D01*
X100942926Y-127254552D01*
X100904779Y-127192849D01*
X100847037Y-127103991D01*
X100774477Y-126995362D01*
X100713484Y-126905763D01*
X100631568Y-126785309D01*
X100559487Y-126677359D01*
X100502430Y-126589837D01*
X100465582Y-126530666D01*
X100454503Y-126510131D01*
X100457412Y-126468072D01*
X100479964Y-126395316D01*
X100517625Y-126306130D01*
X100522734Y-126295437D01*
X100561589Y-126207165D01*
X100586898Y-126133842D01*
X100593915Y-126089565D01*
X100593122Y-126086367D01*
X100568305Y-126071052D01*
X100502864Y-126039056D01*
X100403360Y-125993187D01*
X100276358Y-125936257D01*
X100128420Y-125871075D01*
X99966109Y-125800451D01*
X99795990Y-125727196D01*
X99624624Y-125654118D01*
X99458574Y-125584029D01*
X99304405Y-125519738D01*
X99168679Y-125464055D01*
X99057959Y-125419790D01*
X98978808Y-125389754D01*
X98937789Y-125376756D01*
X98935006Y-125376442D01*
X98913774Y-125395565D01*
X98870510Y-125446630D01*
X98813060Y-125520177D01*
X98787586Y-125554148D01*
X98627800Y-125732056D01*
X98447344Y-125867483D01*
X98251978Y-125960014D01*
X98047461Y-126009233D01*
X97839552Y-126014726D01*
X97634010Y-125976078D01*
X97436595Y-125892873D01*
X97253065Y-125764696D01*
X97157180Y-125671686D01*
X97026241Y-125495636D01*
X96940272Y-125306522D01*
X96896760Y-125110041D01*
X96893193Y-124911888D01*
X96927056Y-124717760D01*
X96995836Y-124533351D01*
X97097020Y-124364358D01*
X97228094Y-124216476D01*
X97386546Y-124095401D01*
X97569861Y-124006829D01*
X97775526Y-123956456D01*
X97918278Y-123946894D01*
X98146942Y-123971027D01*
X98358294Y-124042930D01*
X98550937Y-124161865D01*
X98723474Y-124327091D01*
X98787586Y-124407379D01*
X98848545Y-124487332D01*
X98898490Y-124548627D01*
X98929576Y-124581805D01*
X98935006Y-124585085D01*
X98968796Y-124575373D01*
X99041854Y-124548111D01*
X99147614Y-124506112D01*
X99279514Y-124452187D01*
X99430991Y-124389151D01*
X99595481Y-124319814D01*
X99766421Y-124246989D01*
X99937249Y-124173489D01*
X100101399Y-124102126D01*
X100252310Y-124035712D01*
X100383418Y-123977061D01*
X100488160Y-123928983D01*
X100559973Y-123894292D01*
X100592292Y-123875801D01*
X100593392Y-123874456D01*
X100589219Y-123835746D01*
X100565686Y-123765627D01*
X100527543Y-123677696D01*
X100517245Y-123656468D01*
X100427223Y-123474633D01*
X100691963Y-123087672D01*
X100776073Y-122963596D01*
X100849161Y-122853610D01*
X100906665Y-122764757D01*
X100944024Y-122704079D01*
X100956703Y-122678888D01*
X100939434Y-122654908D01*
X100891321Y-122600990D01*
X100817907Y-122523010D01*
X100724735Y-122426844D01*
X100617347Y-122318370D01*
X100605368Y-122306402D01*
X100494356Y-122197703D01*
X100393324Y-122102715D01*
X100308547Y-122027024D01*
X100246300Y-121976218D01*
X100212859Y-121955883D01*
X100211488Y-121955739D01*
X100177409Y-121969699D01*
X100109334Y-122008414D01*
X100014935Y-122067137D01*
X99901885Y-122141120D01*
X99798948Y-122211015D01*
X99676894Y-122293957D01*
X99567881Y-122365652D01*
X99479379Y-122421378D01*
X99418859Y-122456409D01*
X99395089Y-122466386D01*
X99355716Y-122456912D01*
X99280442Y-122431305D01*
X99180120Y-122393941D01*
X99065606Y-122349194D01*
X98947752Y-122301440D01*
X98837415Y-122255053D01*
X98745446Y-122214409D01*
X98682702Y-122183882D01*
X98662024Y-122170914D01*
X98645809Y-122135872D01*
X98623103Y-122059016D01*
X98596024Y-121948854D01*
X98566689Y-121813896D01*
X98542210Y-121689491D01*
X98514173Y-121543420D01*
X98488285Y-121414337D01*
X98466355Y-121310806D01*
X98450191Y-121241395D01*
X98442167Y-121215334D01*
X98414619Y-121209209D01*
X98345899Y-121203594D01*
X98245149Y-121198627D01*
X98121509Y-121194447D01*
X97984121Y-121191192D01*
X97842128Y-121188999D01*
X97704669Y-121188007D01*
X97580888Y-121188354D01*
X97479924Y-121190177D01*
X97410920Y-121193615D01*
X97383018Y-121198807D01*
X97382834Y-121199334D01*
X97378028Y-121238863D01*
X97364873Y-121316656D01*
X97345260Y-121423287D01*
X97321084Y-121549328D01*
X97294236Y-121685351D01*
X97266609Y-121821929D01*
X97240096Y-121949635D01*
X97216590Y-122059040D01*
X97197983Y-122140719D01*
X97186168Y-122185242D01*
X97183846Y-122190466D01*
X97152182Y-122209007D01*
X97083966Y-122241917D01*
X96989856Y-122284634D01*
X96880510Y-122332595D01*
X96766586Y-122381236D01*
X96658742Y-122425994D01*
X96567635Y-122462306D01*
X96503924Y-122485609D01*
X96479988Y-122491819D01*
X96449675Y-122478007D01*
X96384642Y-122439604D01*
X96292093Y-122381157D01*
X96179233Y-122307214D01*
X96055397Y-122223779D01*
X95928966Y-122138902D01*
X95815058Y-122065091D01*
X95721050Y-122006915D01*
X95654322Y-121968944D01*
X95622565Y-121955739D01*
X95590688Y-121973106D01*
X95531958Y-122020728D01*
X95453015Y-122091884D01*
X95360499Y-122179855D01*
X95261051Y-122277920D01*
X95161310Y-122379361D01*
X95067916Y-122477456D01*
X94987510Y-122565487D01*
X94926731Y-122636732D01*
X94892219Y-122684473D01*
X94887122Y-122700028D01*
X94905248Y-122731147D01*
X94947634Y-122796994D01*
X95009476Y-122890321D01*
X95085973Y-123003879D01*
X95171576Y-123129334D01*
X95256936Y-123255107D01*
X95331269Y-123367357D01*
X95390037Y-123459009D01*
X95428704Y-123522985D01*
X95442733Y-123552208D01*
X95442734Y-123552271D01*
X95433263Y-123588016D01*
X95407846Y-123659473D01*
X95370970Y-123755657D01*
X95327126Y-123865582D01*
X95280803Y-123978263D01*
X95236491Y-124082713D01*
X95198678Y-124167948D01*
X95171854Y-124222982D01*
X95162954Y-124236885D01*
X95131471Y-124248768D01*
X95057824Y-124267799D01*
X94950109Y-124292157D01*
X94816424Y-124320022D01*
X94664867Y-124349572D01*
X94646328Y-124353058D01*
X94153588Y-124445345D01*
X94153588Y-125516183D01*
X94646328Y-125608470D01*
D12*
X113030000Y-98425000D03*
D13*
X115570000Y-98425000D03*
X113030000Y-100965000D03*
X115570000Y-100965000D03*
X113030000Y-103505000D03*
X115570000Y-103505000D03*
X113030000Y-106045000D03*
X115570000Y-106045000D03*
X113030000Y-108585000D03*
X115570000Y-108585000D03*
D14*
X91440000Y-95250000D03*
D15*
X91440000Y-97790000D03*
X91440000Y-100330000D03*
X91440000Y-102870000D03*
X91440000Y-105410000D03*
X91440000Y-107950000D03*
X91440000Y-110490000D03*
X91440000Y-113030000D03*
X91440000Y-115570000D03*
X91440000Y-118110000D03*
X91440000Y-120650000D03*
X91440000Y-123190000D03*
X91440000Y-125730000D03*
X91440000Y-128270000D03*
D14*
X104140000Y-128270000D03*
D15*
X104140000Y-125730000D03*
X104140000Y-123190000D03*
X104140000Y-120650000D03*
X104140000Y-118110000D03*
X104140000Y-115570000D03*
X104140000Y-113030000D03*
X104140000Y-110490000D03*
X104140000Y-107950000D03*
X104140000Y-105410000D03*
X104140000Y-102870000D03*
X104140000Y-100330000D03*
X104140000Y-97790000D03*
X104140000Y-95250000D03*
D12*
X113030000Y-120015000D03*
D13*
X115570000Y-120015000D03*
X113030000Y-122555000D03*
X115570000Y-122555000D03*
X113030000Y-125095000D03*
X115570000Y-125095000D03*
D16*
X91440000Y-110490000D02*
X93980000Y-110490000D01*
X99060000Y-115570000D02*
X104140000Y-115570000D01*
X93980000Y-110490000D02*
X99060000Y-115570000D01*
X115570000Y-98425000D02*
X115570000Y-97790000D01*
X115570000Y-97790000D02*
X111125000Y-93345000D01*
X93980000Y-107950000D02*
X91440000Y-110490000D01*
X93980000Y-94615000D02*
X93980000Y-107950000D01*
X95250000Y-93345000D02*
X93980000Y-94615000D01*
X111125000Y-93345000D02*
X95250000Y-93345000D01*
X115570000Y-120015000D02*
X116205000Y-120015000D01*
X116205000Y-120015000D02*
X117475000Y-118745000D01*
X117475000Y-118745000D02*
X117475000Y-99695000D01*
X117475000Y-99695000D02*
X116205000Y-98425000D01*
X116205000Y-98425000D02*
X115570000Y-98425000D01*
D17*
X115570000Y-99060000D02*
X115316000Y-99060000D01*
X104140000Y-125730000D02*
X112395000Y-125730000D01*
X112395000Y-125730000D02*
X113030000Y-125095000D01*
X104140000Y-123190000D02*
X105410000Y-123190000D01*
X114300000Y-123825000D02*
X115570000Y-122555000D01*
X106045000Y-123825000D02*
X114300000Y-123825000D01*
X105410000Y-123190000D02*
X106045000Y-123825000D01*
X113030000Y-98425000D02*
X114300000Y-99695000D01*
X114300000Y-121285000D02*
X115570000Y-122555000D01*
X114300000Y-99695000D02*
X114300000Y-121285000D01*
X113030000Y-108585000D02*
X113030000Y-120015000D01*
X104140000Y-120650000D02*
X112395000Y-120650000D01*
X112395000Y-120650000D02*
X113030000Y-120015000D01*
X113030000Y-106045000D02*
X112649000Y-106045000D01*
X112649000Y-106045000D02*
X111252000Y-107442000D01*
X110236000Y-118110000D02*
X104140000Y-118110000D01*
X111252000Y-117094000D02*
X110236000Y-118110000D01*
X111252000Y-107442000D02*
X111252000Y-117094000D01*
D18*
G36*
X93498460Y-94133460D02*
X93350838Y-94354392D01*
X93341766Y-94400000D01*
X93299000Y-94615000D01*
X93299000Y-107667921D01*
X92615212Y-108351708D01*
X92695117Y-107950000D01*
X92601413Y-107478917D01*
X92334565Y-107079552D01*
X91935200Y-106812704D01*
X91464117Y-106719000D01*
X91415883Y-106719000D01*
X90944800Y-106812704D01*
X90545435Y-107079552D01*
X90278587Y-107478917D01*
X90184883Y-107950000D01*
X90278587Y-108421083D01*
X90545435Y-108820448D01*
X90944800Y-109087296D01*
X91415883Y-109181000D01*
X91464117Y-109181000D01*
X91865825Y-109101096D01*
X91667471Y-109299449D01*
X91464117Y-109259000D01*
X91415883Y-109259000D01*
X90944800Y-109352704D01*
X90545435Y-109619552D01*
X90278587Y-110018917D01*
X90184883Y-110490000D01*
X90278587Y-110961083D01*
X90545435Y-111360448D01*
X90944800Y-111627296D01*
X91415883Y-111721000D01*
X91464117Y-111721000D01*
X91935200Y-111627296D01*
X92334565Y-111360448D01*
X92461151Y-111171000D01*
X93697920Y-111171000D01*
X98578460Y-116051540D01*
X98799392Y-116199162D01*
X99060000Y-116251000D01*
X103118849Y-116251000D01*
X103245435Y-116440448D01*
X103644800Y-116707296D01*
X104115883Y-116801000D01*
X104164117Y-116801000D01*
X104635200Y-116707296D01*
X105034565Y-116440448D01*
X105301413Y-116041083D01*
X105395117Y-115570000D01*
X105301413Y-115098917D01*
X105034565Y-114699552D01*
X104635200Y-114432704D01*
X104164117Y-114339000D01*
X104115883Y-114339000D01*
X103644800Y-114432704D01*
X103245435Y-114699552D01*
X103118849Y-114889000D01*
X99342080Y-114889000D01*
X97483080Y-113030000D01*
X102884883Y-113030000D01*
X102978587Y-113501083D01*
X103245435Y-113900448D01*
X103644800Y-114167296D01*
X104115883Y-114261000D01*
X104164117Y-114261000D01*
X104635200Y-114167296D01*
X105034565Y-113900448D01*
X105301413Y-113501083D01*
X105395117Y-113030000D01*
X105301413Y-112558917D01*
X105034565Y-112159552D01*
X104635200Y-111892704D01*
X104164117Y-111799000D01*
X104115883Y-111799000D01*
X103644800Y-111892704D01*
X103245435Y-112159552D01*
X102978587Y-112558917D01*
X102884883Y-113030000D01*
X97483080Y-113030000D01*
X95260060Y-110806980D01*
X102950511Y-110806980D01*
X103074755Y-111106964D01*
X103391944Y-111467652D01*
X103823018Y-111679501D01*
X104013000Y-111619193D01*
X104013000Y-110617000D01*
X104267000Y-110617000D01*
X104267000Y-111619193D01*
X104456982Y-111679501D01*
X104888056Y-111467652D01*
X105205245Y-111106964D01*
X105329489Y-110806980D01*
X105268627Y-110617000D01*
X104267000Y-110617000D01*
X104013000Y-110617000D01*
X103011373Y-110617000D01*
X102950511Y-110806980D01*
X95260060Y-110806980D01*
X94626100Y-110173020D01*
X102950511Y-110173020D01*
X103011373Y-110363000D01*
X104013000Y-110363000D01*
X104013000Y-109360807D01*
X104267000Y-109360807D01*
X104267000Y-110363000D01*
X105268627Y-110363000D01*
X105329489Y-110173020D01*
X105205245Y-109873036D01*
X104888056Y-109512348D01*
X104456982Y-109300499D01*
X104267000Y-109360807D01*
X104013000Y-109360807D01*
X103823018Y-109300499D01*
X103391944Y-109512348D01*
X103074755Y-109873036D01*
X102950511Y-110173020D01*
X94626100Y-110173020D01*
X94461540Y-110008460D01*
X94240608Y-109860838D01*
X93980000Y-109809000D01*
X93084080Y-109809000D01*
X94461537Y-108431542D01*
X94461540Y-108431540D01*
X94609162Y-108210607D01*
X94661000Y-107950000D01*
X102884883Y-107950000D01*
X102978587Y-108421083D01*
X103245435Y-108820448D01*
X103644800Y-109087296D01*
X104115883Y-109181000D01*
X104164117Y-109181000D01*
X104635200Y-109087296D01*
X105034565Y-108820448D01*
X105301413Y-108421083D01*
X105395117Y-107950000D01*
X105301413Y-107478917D01*
X105034565Y-107079552D01*
X104635200Y-106812704D01*
X104164117Y-106719000D01*
X104115883Y-106719000D01*
X103644800Y-106812704D01*
X103245435Y-107079552D01*
X102978587Y-107478917D01*
X102884883Y-107950000D01*
X94661000Y-107950000D01*
X94661000Y-105410000D01*
X102884883Y-105410000D01*
X102978587Y-105881083D01*
X103245435Y-106280448D01*
X103644800Y-106547296D01*
X104115883Y-106641000D01*
X104164117Y-106641000D01*
X104635200Y-106547296D01*
X105034565Y-106280448D01*
X105301413Y-105881083D01*
X105395117Y-105410000D01*
X105301413Y-104938917D01*
X105034565Y-104539552D01*
X104635200Y-104272704D01*
X104164117Y-104179000D01*
X104115883Y-104179000D01*
X103644800Y-104272704D01*
X103245435Y-104539552D01*
X102978587Y-104938917D01*
X102884883Y-105410000D01*
X94661000Y-105410000D01*
X94661000Y-102870000D01*
X102884883Y-102870000D01*
X102978587Y-103341083D01*
X103245435Y-103740448D01*
X103644800Y-104007296D01*
X104115883Y-104101000D01*
X104164117Y-104101000D01*
X104635200Y-104007296D01*
X105034565Y-103740448D01*
X105301413Y-103341083D01*
X105395117Y-102870000D01*
X105301413Y-102398917D01*
X105034565Y-101999552D01*
X104635200Y-101732704D01*
X104164117Y-101639000D01*
X104115883Y-101639000D01*
X103644800Y-101732704D01*
X103245435Y-101999552D01*
X102978587Y-102398917D01*
X102884883Y-102870000D01*
X94661000Y-102870000D01*
X94661000Y-100330000D01*
X102884883Y-100330000D01*
X102978587Y-100801083D01*
X103245435Y-101200448D01*
X103644800Y-101467296D01*
X104115883Y-101561000D01*
X104164117Y-101561000D01*
X104635200Y-101467296D01*
X105034565Y-101200448D01*
X105301413Y-100801083D01*
X105395117Y-100330000D01*
X105301413Y-99858917D01*
X105034565Y-99459552D01*
X104635200Y-99192704D01*
X104164117Y-99099000D01*
X104115883Y-99099000D01*
X103644800Y-99192704D01*
X103245435Y-99459552D01*
X102978587Y-99858917D01*
X102884883Y-100330000D01*
X94661000Y-100330000D01*
X94661000Y-97790000D01*
X102884883Y-97790000D01*
X102978587Y-98261083D01*
X103245435Y-98660448D01*
X103644800Y-98927296D01*
X104115883Y-99021000D01*
X104164117Y-99021000D01*
X104635200Y-98927296D01*
X105034565Y-98660448D01*
X105301413Y-98261083D01*
X105395117Y-97790000D01*
X105301413Y-97318917D01*
X105034565Y-96919552D01*
X104635200Y-96652704D01*
X104164117Y-96559000D01*
X104115883Y-96559000D01*
X103644800Y-96652704D01*
X103245435Y-96919552D01*
X102978587Y-97318917D01*
X102884883Y-97790000D01*
X94661000Y-97790000D01*
X94661000Y-94897080D01*
X95532080Y-94026000D01*
X104080692Y-94026000D01*
X103644800Y-94112704D01*
X103245435Y-94379552D01*
X102978587Y-94778917D01*
X102884883Y-95250000D01*
X102978587Y-95721083D01*
X103245435Y-96120448D01*
X103644800Y-96387296D01*
X104115883Y-96481000D01*
X104164117Y-96481000D01*
X104635200Y-96387296D01*
X105034565Y-96120448D01*
X105301413Y-95721083D01*
X105395117Y-95250000D01*
X105301413Y-94778917D01*
X105034565Y-94379552D01*
X104635200Y-94112704D01*
X104199308Y-94026000D01*
X110842920Y-94026000D01*
X114014298Y-97197378D01*
X113893600Y-97172936D01*
X112166400Y-97172936D01*
X112025210Y-97199503D01*
X111895535Y-97282946D01*
X111808541Y-97410266D01*
X111777936Y-97561400D01*
X111777936Y-99288600D01*
X111804503Y-99429790D01*
X111887946Y-99559465D01*
X112015266Y-99646459D01*
X112166400Y-99677064D01*
X113566472Y-99677064D01*
X113794000Y-99904592D01*
X113794000Y-99983000D01*
X113506288Y-99790757D01*
X113030000Y-99696017D01*
X112553712Y-99790757D01*
X112149935Y-100060552D01*
X111880140Y-100464329D01*
X111785400Y-100940617D01*
X111785400Y-100989383D01*
X111880140Y-101465671D01*
X112149935Y-101869448D01*
X112553712Y-102139243D01*
X113030000Y-102233983D01*
X113506288Y-102139243D01*
X113794000Y-101947000D01*
X113794000Y-102523000D01*
X113506288Y-102330757D01*
X113030000Y-102236017D01*
X112553712Y-102330757D01*
X112149935Y-102600552D01*
X111880140Y-103004329D01*
X111785400Y-103480617D01*
X111785400Y-103529383D01*
X111880140Y-104005671D01*
X112149935Y-104409448D01*
X112553712Y-104679243D01*
X113030000Y-104773983D01*
X113506288Y-104679243D01*
X113794000Y-104487000D01*
X113794000Y-105063000D01*
X113506288Y-104870757D01*
X113030000Y-104776017D01*
X112553712Y-104870757D01*
X112149935Y-105140552D01*
X111880140Y-105544329D01*
X111785400Y-106020617D01*
X111785400Y-106069383D01*
X111805911Y-106172497D01*
X110894204Y-107084204D01*
X110784517Y-107248362D01*
X110746000Y-107442000D01*
X110746000Y-116884408D01*
X110026408Y-117604000D01*
X105278082Y-117604000D01*
X105034565Y-117239552D01*
X104635200Y-116972704D01*
X104164117Y-116879000D01*
X104115883Y-116879000D01*
X103644800Y-116972704D01*
X103245435Y-117239552D01*
X102978587Y-117638917D01*
X102884883Y-118110000D01*
X102978587Y-118581083D01*
X103245435Y-118980448D01*
X103644800Y-119247296D01*
X104115883Y-119341000D01*
X104164117Y-119341000D01*
X104635200Y-119247296D01*
X105034565Y-118980448D01*
X105278082Y-118616000D01*
X110236000Y-118616000D01*
X110429638Y-118577483D01*
X110593796Y-118467796D01*
X111609796Y-117451796D01*
X111719483Y-117287638D01*
X111758000Y-117094000D01*
X111758000Y-107651592D01*
X112335892Y-107073700D01*
X112553712Y-107219243D01*
X113030000Y-107313983D01*
X113506288Y-107219243D01*
X113794000Y-107027000D01*
X113794000Y-107603000D01*
X113506288Y-107410757D01*
X113030000Y-107316017D01*
X112553712Y-107410757D01*
X112149935Y-107680552D01*
X111880140Y-108084329D01*
X111785400Y-108560617D01*
X111785400Y-108609383D01*
X111880140Y-109085671D01*
X112149935Y-109489448D01*
X112524000Y-109739390D01*
X112524000Y-118762936D01*
X112166400Y-118762936D01*
X112025210Y-118789503D01*
X111895535Y-118872946D01*
X111808541Y-119000266D01*
X111777936Y-119151400D01*
X111777936Y-120144000D01*
X105278082Y-120144000D01*
X105034565Y-119779552D01*
X104635200Y-119512704D01*
X104164117Y-119419000D01*
X104115883Y-119419000D01*
X103644800Y-119512704D01*
X103245435Y-119779552D01*
X102978587Y-120178917D01*
X102884883Y-120650000D01*
X102978587Y-121121083D01*
X103245435Y-121520448D01*
X103644800Y-121787296D01*
X104115883Y-121881000D01*
X104164117Y-121881000D01*
X104635200Y-121787296D01*
X105034565Y-121520448D01*
X105278082Y-121156000D01*
X111897510Y-121156000D01*
X112015266Y-121236459D01*
X112166400Y-121267064D01*
X113794000Y-121267064D01*
X113794000Y-121285000D01*
X113832517Y-121478638D01*
X113942204Y-121642796D01*
X114409123Y-122109715D01*
X114325400Y-122530617D01*
X114325400Y-122579383D01*
X114409123Y-123000285D01*
X114090408Y-123319000D01*
X114003909Y-123319000D01*
X114179860Y-123055671D01*
X114274600Y-122579383D01*
X114274600Y-122530617D01*
X114179860Y-122054329D01*
X113910065Y-121650552D01*
X113506288Y-121380757D01*
X113030000Y-121286017D01*
X112553712Y-121380757D01*
X112149935Y-121650552D01*
X111880140Y-122054329D01*
X111785400Y-122530617D01*
X111785400Y-122579383D01*
X111880140Y-123055671D01*
X112056091Y-123319000D01*
X106254592Y-123319000D01*
X105767796Y-122832204D01*
X105603638Y-122722517D01*
X105410000Y-122684000D01*
X105278082Y-122684000D01*
X105034565Y-122319552D01*
X104635200Y-122052704D01*
X104164117Y-121959000D01*
X104115883Y-121959000D01*
X103644800Y-122052704D01*
X103245435Y-122319552D01*
X102978587Y-122718917D01*
X102884883Y-123190000D01*
X102978587Y-123661083D01*
X103245435Y-124060448D01*
X103644800Y-124327296D01*
X104115883Y-124421000D01*
X104164117Y-124421000D01*
X104635200Y-124327296D01*
X105034565Y-124060448D01*
X105246970Y-123742562D01*
X105687204Y-124182796D01*
X105851362Y-124292483D01*
X106045000Y-124331000D01*
X112056091Y-124331000D01*
X111880140Y-124594329D01*
X111785400Y-125070617D01*
X111785400Y-125119383D01*
X111806210Y-125224000D01*
X105278082Y-125224000D01*
X105034565Y-124859552D01*
X104635200Y-124592704D01*
X104164117Y-124499000D01*
X104115883Y-124499000D01*
X103644800Y-124592704D01*
X103245435Y-124859552D01*
X102978587Y-125258917D01*
X102884883Y-125730000D01*
X102978587Y-126201083D01*
X103245435Y-126600448D01*
X103644800Y-126867296D01*
X104115883Y-126961000D01*
X104164117Y-126961000D01*
X104635200Y-126867296D01*
X105034565Y-126600448D01*
X105278082Y-126236000D01*
X112395000Y-126236000D01*
X112478965Y-126219298D01*
X112553712Y-126269243D01*
X113030000Y-126363983D01*
X113506288Y-126269243D01*
X113910065Y-125999448D01*
X114179860Y-125595671D01*
X114215972Y-125414120D01*
X114366995Y-125414120D01*
X114580690Y-125850199D01*
X114944999Y-126171305D01*
X115250882Y-126297993D01*
X115443000Y-126237312D01*
X115443000Y-125222000D01*
X115697000Y-125222000D01*
X115697000Y-126237312D01*
X115889118Y-126297993D01*
X116195001Y-126171305D01*
X116559310Y-125850199D01*
X116773005Y-125414120D01*
X116712865Y-125222000D01*
X115697000Y-125222000D01*
X115443000Y-125222000D01*
X114427135Y-125222000D01*
X114366995Y-125414120D01*
X114215972Y-125414120D01*
X114274600Y-125119383D01*
X114274600Y-125070617D01*
X114215973Y-124775880D01*
X114366995Y-124775880D01*
X114427135Y-124968000D01*
X115443000Y-124968000D01*
X115443000Y-123952688D01*
X115697000Y-123952688D01*
X115697000Y-124968000D01*
X116712865Y-124968000D01*
X116773005Y-124775880D01*
X116559310Y-124339801D01*
X116195001Y-124018695D01*
X115889118Y-123892007D01*
X115697000Y-123952688D01*
X115443000Y-123952688D01*
X115250882Y-123892007D01*
X114944999Y-124018695D01*
X114580690Y-124339801D01*
X114366995Y-124775880D01*
X114215973Y-124775880D01*
X114179860Y-124594329D01*
X114003909Y-124331000D01*
X114300000Y-124331000D01*
X114493638Y-124292483D01*
X114657796Y-124182796D01*
X115108423Y-123732169D01*
X115570000Y-123823983D01*
X116046288Y-123729243D01*
X116450065Y-123459448D01*
X116719860Y-123055671D01*
X116814600Y-122579383D01*
X116814600Y-122530617D01*
X116719860Y-122054329D01*
X116450065Y-121650552D01*
X116046288Y-121380757D01*
X115570000Y-121286017D01*
X115108423Y-121377831D01*
X114806000Y-121075408D01*
X114806000Y-120997000D01*
X115093712Y-121189243D01*
X115570000Y-121283983D01*
X116046288Y-121189243D01*
X116450065Y-120919448D01*
X116719860Y-120515671D01*
X116732884Y-120450196D01*
X117956540Y-119226540D01*
X118104162Y-119005608D01*
X118156000Y-118745000D01*
X118156000Y-99695000D01*
X118117483Y-99501362D01*
X118104162Y-99434392D01*
X117956540Y-99213460D01*
X116732884Y-97989804D01*
X116719860Y-97924329D01*
X116450065Y-97520552D01*
X116046288Y-97250757D01*
X115980813Y-97237733D01*
X111909080Y-93166000D01*
X118924000Y-93166000D01*
X118924000Y-130354000D01*
X89991000Y-130354000D01*
X89991000Y-128270000D01*
X90184883Y-128270000D01*
X90278587Y-128741083D01*
X90545435Y-129140448D01*
X90944800Y-129407296D01*
X91415883Y-129501000D01*
X91464117Y-129501000D01*
X91935200Y-129407296D01*
X92334565Y-129140448D01*
X92601413Y-128741083D01*
X92695117Y-128270000D01*
X92601413Y-127798917D01*
X92334565Y-127399552D01*
X91935200Y-127132704D01*
X91464117Y-127039000D01*
X91415883Y-127039000D01*
X90944800Y-127132704D01*
X90545435Y-127399552D01*
X90278587Y-127798917D01*
X90184883Y-128270000D01*
X89991000Y-128270000D01*
X89991000Y-125730000D01*
X90184883Y-125730000D01*
X90278587Y-126201083D01*
X90545435Y-126600448D01*
X90944800Y-126867296D01*
X91415883Y-126961000D01*
X91464117Y-126961000D01*
X91935200Y-126867296D01*
X92334565Y-126600448D01*
X92601413Y-126201083D01*
X92695117Y-125730000D01*
X92601413Y-125258917D01*
X92334565Y-124859552D01*
X91935200Y-124592704D01*
X91464117Y-124499000D01*
X91415883Y-124499000D01*
X90944800Y-124592704D01*
X90545435Y-124859552D01*
X90278587Y-125258917D01*
X90184883Y-125730000D01*
X89991000Y-125730000D01*
X89991000Y-124445345D01*
X93771588Y-124445345D01*
X93771588Y-125516183D01*
X93779341Y-125555160D01*
X93779786Y-125594899D01*
X93793740Y-125627547D01*
X93800666Y-125662368D01*
X93822744Y-125695410D01*
X93838363Y-125731955D01*
X93863749Y-125756778D01*
X93883473Y-125786298D01*
X93916516Y-125808377D01*
X93944931Y-125836162D01*
X93977883Y-125849381D01*
X94007403Y-125869105D01*
X94046381Y-125876858D01*
X94083265Y-125891654D01*
X94574781Y-125983712D01*
X94724485Y-126012679D01*
X94855323Y-126039727D01*
X94893379Y-126048238D01*
X94902544Y-126069335D01*
X94946431Y-126174191D01*
X94990724Y-126283222D01*
X95023474Y-126366498D01*
X95011641Y-126384956D01*
X94940157Y-126492926D01*
X94856085Y-126616820D01*
X94856072Y-126616851D01*
X94856028Y-126616894D01*
X94769742Y-126743357D01*
X94769285Y-126744431D01*
X94768458Y-126745252D01*
X94692064Y-126858671D01*
X94691492Y-126860038D01*
X94690446Y-126861092D01*
X94628745Y-126954221D01*
X94627760Y-126956625D01*
X94625954Y-126958495D01*
X94583751Y-127024083D01*
X94580568Y-127032158D01*
X94574822Y-127038666D01*
X94556953Y-127069374D01*
X94545999Y-127101285D01*
X94528433Y-127130097D01*
X94522034Y-127171101D01*
X94508562Y-127210349D01*
X94510654Y-127244028D01*
X94505452Y-127277364D01*
X94515230Y-127317689D01*
X94517803Y-127359112D01*
X94531664Y-127387462D01*
X94531951Y-127391362D01*
X94534157Y-127395748D01*
X94540575Y-127422215D01*
X94553590Y-127450279D01*
X94579323Y-127485529D01*
X94598934Y-127524512D01*
X94642700Y-127580620D01*
X94651102Y-127587871D01*
X94656650Y-127597485D01*
X94724528Y-127674916D01*
X94728840Y-127678226D01*
X94731687Y-127682855D01*
X94817038Y-127774890D01*
X94819967Y-127777011D01*
X94821921Y-127780059D01*
X94918103Y-127879977D01*
X94920584Y-127881704D01*
X94922253Y-127884221D01*
X95022627Y-127985302D01*
X95025194Y-127987030D01*
X95026945Y-127989582D01*
X95124870Y-128085107D01*
X95128138Y-128087233D01*
X95130409Y-128090403D01*
X95219247Y-128173652D01*
X95224509Y-128176926D01*
X95228275Y-128181845D01*
X95301383Y-128246098D01*
X95313352Y-128253025D01*
X95322518Y-128263373D01*
X95373258Y-128301910D01*
X95413250Y-128321386D01*
X95449625Y-128346985D01*
X95467889Y-128355073D01*
X95473379Y-128356304D01*
X95478072Y-128359407D01*
X95500088Y-128363677D01*
X95507261Y-128367170D01*
X95523022Y-128368125D01*
X95545913Y-128372564D01*
X95613328Y-128387677D01*
X95618870Y-128386713D01*
X95624395Y-128387785D01*
X95692107Y-128373979D01*
X95760174Y-128362143D01*
X95764927Y-128359131D01*
X95770439Y-128358007D01*
X95803439Y-128344152D01*
X95822789Y-128331088D01*
X95844933Y-128323693D01*
X95912414Y-128285175D01*
X95917704Y-128280581D01*
X95924267Y-128278123D01*
X96018847Y-128219512D01*
X96021774Y-128216779D01*
X96025495Y-128215297D01*
X96139797Y-128141162D01*
X96142032Y-128138988D01*
X96144906Y-128137789D01*
X96268374Y-128054868D01*
X96268565Y-128054676D01*
X96268814Y-128054572D01*
X96392531Y-127971234D01*
X96500373Y-127900615D01*
X96516720Y-127890299D01*
X96535502Y-127897864D01*
X96641531Y-127942156D01*
X96751908Y-127989545D01*
X96854356Y-128034762D01*
X96857133Y-128047459D01*
X96882213Y-128166874D01*
X96909224Y-128299149D01*
X96936228Y-128434661D01*
X96961216Y-128563401D01*
X96982199Y-128675381D01*
X96996796Y-128758217D01*
X97004260Y-128808409D01*
X97006846Y-128815629D01*
X97006560Y-128828088D01*
X97026687Y-128880025D01*
X97041507Y-128933717D01*
X97053416Y-128948999D01*
X97060418Y-128967066D01*
X97098890Y-129007348D01*
X97133128Y-129051281D01*
X97149980Y-129060843D01*
X97163362Y-129074854D01*
X97214314Y-129097344D01*
X97262764Y-129124834D01*
X97281995Y-129127219D01*
X97299718Y-129135042D01*
X97323704Y-129140389D01*
X97355382Y-129141117D01*
X97386076Y-129148977D01*
X97451941Y-129152559D01*
X97458568Y-129151611D01*
X97465109Y-129153048D01*
X97563710Y-129155004D01*
X97566778Y-129154457D01*
X97569830Y-129155076D01*
X97692027Y-129155542D01*
X97693989Y-129155160D01*
X97695952Y-129155537D01*
X97832603Y-129154654D01*
X97834186Y-129154328D01*
X97835774Y-129154620D01*
X97977737Y-129152524D01*
X97979295Y-129152190D01*
X97980865Y-129152465D01*
X98118999Y-129149294D01*
X98120868Y-129148878D01*
X98122761Y-129149190D01*
X98247924Y-129145083D01*
X98250721Y-129144431D01*
X98253558Y-129144856D01*
X98356612Y-129139951D01*
X98362225Y-129138554D01*
X98367970Y-129139241D01*
X98439768Y-129133676D01*
X98460943Y-129127731D01*
X98482937Y-129127839D01*
X98514341Y-129121752D01*
X98554025Y-129105542D01*
X98595866Y-129096220D01*
X98609645Y-129086551D01*
X98624149Y-129082061D01*
X98636393Y-129071896D01*
X98652322Y-129065389D01*
X98682780Y-129035228D01*
X98717871Y-129010603D01*
X98718384Y-129010066D01*
X98726783Y-128996852D01*
X98738827Y-128986853D01*
X98746688Y-128971944D01*
X98758231Y-128960513D01*
X98774493Y-128921790D01*
X98798338Y-128884276D01*
X98801041Y-128868853D01*
X98808341Y-128855007D01*
X98817934Y-128822725D01*
X98819070Y-128810482D01*
X98824103Y-128799262D01*
X98841052Y-128725320D01*
X98841154Y-128721792D01*
X98842540Y-128718546D01*
X98865038Y-128611509D01*
X98865060Y-128609505D01*
X98865829Y-128607650D01*
X98892069Y-128476086D01*
X98892070Y-128474590D01*
X98892632Y-128473205D01*
X98917143Y-128345188D01*
X98945677Y-128201508D01*
X98972664Y-128079734D01*
X98976992Y-128062566D01*
X99018791Y-128044417D01*
X99127573Y-127999224D01*
X99241014Y-127953742D01*
X99346772Y-127912932D01*
X99351528Y-127911196D01*
X99376139Y-127926821D01*
X99482552Y-127997197D01*
X99583892Y-128066227D01*
X99584446Y-128066462D01*
X99584869Y-128066890D01*
X99707656Y-128149975D01*
X99711094Y-128151423D01*
X99713766Y-128154024D01*
X99824357Y-128225802D01*
X99828838Y-128227588D01*
X99832376Y-128230866D01*
X99923082Y-128286588D01*
X99931391Y-128289664D01*
X99938158Y-128295381D01*
X100001292Y-128330297D01*
X100027942Y-128338799D01*
X100051701Y-128353565D01*
X100077695Y-128363340D01*
X100099590Y-128366949D01*
X100119664Y-128376422D01*
X100172540Y-128378974D01*
X100224760Y-128387581D01*
X100246370Y-128382536D01*
X100268540Y-128383606D01*
X100318367Y-128365729D01*
X100369907Y-128353697D01*
X100387941Y-128340767D01*
X100408833Y-128333271D01*
X100437487Y-128316062D01*
X100458686Y-128296814D01*
X100483907Y-128283251D01*
X100541053Y-128236108D01*
X100545906Y-128230163D01*
X100552513Y-128226266D01*
X100631232Y-128155915D01*
X100633543Y-128152843D01*
X100636817Y-128150824D01*
X100730193Y-128063991D01*
X100731717Y-128061880D01*
X100733915Y-128060483D01*
X100835032Y-127963895D01*
X100836303Y-127962084D01*
X100838157Y-127960876D01*
X100940099Y-127861258D01*
X100941408Y-127859346D01*
X100943332Y-127858060D01*
X101039181Y-127762139D01*
X101040844Y-127759649D01*
X101043307Y-127757946D01*
X101126149Y-127672448D01*
X101128844Y-127668273D01*
X101132861Y-127665342D01*
X101195778Y-127596992D01*
X101202080Y-127586660D01*
X101211389Y-127578931D01*
X101247466Y-127534457D01*
X101267731Y-127496019D01*
X101294054Y-127461440D01*
X101299955Y-127449355D01*
X101306739Y-127423641D01*
X101308787Y-127420000D01*
X102901536Y-127420000D01*
X102901536Y-129120000D01*
X102928103Y-129261190D01*
X103011546Y-129390865D01*
X103138866Y-129477859D01*
X103290000Y-129508464D01*
X104990000Y-129508464D01*
X105131190Y-129481897D01*
X105260865Y-129398454D01*
X105347859Y-129271134D01*
X105378464Y-129120000D01*
X105378464Y-127420000D01*
X105351897Y-127278810D01*
X105268454Y-127149135D01*
X105141134Y-127062141D01*
X104990000Y-127031536D01*
X103290000Y-127031536D01*
X103148810Y-127058103D01*
X103019135Y-127141546D01*
X102932141Y-127268866D01*
X102901536Y-127420000D01*
X101308787Y-127420000D01*
X101319781Y-127400457D01*
X101325584Y-127352212D01*
X101337978Y-127305237D01*
X101334405Y-127278883D01*
X101337582Y-127252475D01*
X101324483Y-127205688D01*
X101317956Y-127157539D01*
X101304568Y-127134555D01*
X101297398Y-127108945D01*
X101283621Y-127081778D01*
X101273550Y-127068952D01*
X101267845Y-127053675D01*
X101229698Y-126991972D01*
X101226713Y-126988769D01*
X101225090Y-126984703D01*
X101167348Y-126895845D01*
X101165631Y-126894083D01*
X101164690Y-126891811D01*
X101092130Y-126783182D01*
X101090923Y-126781974D01*
X101090255Y-126780401D01*
X101029262Y-126690802D01*
X101029261Y-126690801D01*
X100948409Y-126571911D01*
X100878335Y-126466968D01*
X100869734Y-126453774D01*
X100869934Y-126452800D01*
X100872362Y-126449334D01*
X100911217Y-126361062D01*
X100914662Y-126345535D01*
X100922683Y-126331804D01*
X100947992Y-126258481D01*
X100952551Y-126225174D01*
X100964189Y-126193635D01*
X100971206Y-126149358D01*
X100971149Y-126147892D01*
X100971646Y-126146512D01*
X100968234Y-126073514D01*
X100965369Y-126000423D01*
X100964882Y-125999365D01*
X100964845Y-125998355D01*
X100964706Y-125998051D01*
X100964686Y-125997626D01*
X100963893Y-125994428D01*
X100933034Y-125928779D01*
X100902868Y-125862802D01*
X100901362Y-125861401D01*
X100900486Y-125859538D01*
X100846821Y-125810667D01*
X100793735Y-125761285D01*
X100768919Y-125745970D01*
X100751162Y-125739356D01*
X100736094Y-125727875D01*
X100670653Y-125695879D01*
X100666370Y-125694747D01*
X100662783Y-125692141D01*
X100563279Y-125646272D01*
X100561287Y-125645794D01*
X100559615Y-125644606D01*
X100432613Y-125587676D01*
X100431400Y-125587398D01*
X100430381Y-125586684D01*
X100282443Y-125521502D01*
X100281566Y-125521307D01*
X100280831Y-125520797D01*
X100118520Y-125450173D01*
X100117799Y-125450016D01*
X100117190Y-125449597D01*
X99947071Y-125376342D01*
X99946402Y-125376199D01*
X99945835Y-125375812D01*
X99774469Y-125302735D01*
X99773767Y-125302588D01*
X99773173Y-125302185D01*
X99607124Y-125232096D01*
X99606301Y-125231927D01*
X99605602Y-125231457D01*
X99451433Y-125167166D01*
X99450331Y-125166944D01*
X99449396Y-125166324D01*
X99313671Y-125110641D01*
X99311953Y-125110305D01*
X99310487Y-125109352D01*
X99199767Y-125065087D01*
X99196396Y-125064460D01*
X99193489Y-125062641D01*
X99114338Y-125032605D01*
X99103675Y-125030815D01*
X99094200Y-125025599D01*
X99053181Y-125012601D01*
X99016129Y-125008489D01*
X98980618Y-124997165D01*
X98977835Y-124996850D01*
X98966230Y-124997827D01*
X98954942Y-124994962D01*
X98928636Y-124998780D01*
X98905042Y-124996162D01*
X98871906Y-125005769D01*
X98829311Y-125009355D01*
X98818962Y-125014699D01*
X98807439Y-125016372D01*
X98780944Y-125032140D01*
X98761887Y-125037665D01*
X98739172Y-125055843D01*
X98738999Y-125055892D01*
X98738633Y-125056183D01*
X98696878Y-125077746D01*
X98689363Y-125086642D01*
X98679356Y-125092598D01*
X98658125Y-125111721D01*
X98642615Y-125132498D01*
X98622315Y-125148632D01*
X98579052Y-125199697D01*
X98575311Y-125206439D01*
X98569468Y-125211475D01*
X98512018Y-125285023D01*
X98510294Y-125288445D01*
X98507442Y-125291002D01*
X98492100Y-125311461D01*
X98368593Y-125448975D01*
X98248933Y-125538777D01*
X98124179Y-125597864D01*
X97997178Y-125628428D01*
X97870144Y-125631784D01*
X97744739Y-125608204D01*
X97622191Y-125556554D01*
X97496982Y-125469108D01*
X97445288Y-125418963D01*
X97357107Y-125300402D01*
X97304586Y-125184865D01*
X97278008Y-125064854D01*
X97275789Y-124941544D01*
X97297309Y-124818175D01*
X97341536Y-124699595D01*
X97406486Y-124591118D01*
X97489423Y-124497545D01*
X97587655Y-124422484D01*
X97699821Y-124368289D01*
X97834168Y-124335384D01*
X97910944Y-124330241D01*
X98064356Y-124346432D01*
X98194370Y-124390664D01*
X98315899Y-124465694D01*
X98440868Y-124585368D01*
X98486408Y-124642397D01*
X98544768Y-124718943D01*
X98549470Y-124723092D01*
X98552407Y-124728634D01*
X98602352Y-124789929D01*
X98612665Y-124798453D01*
X98619730Y-124809810D01*
X98650816Y-124842989D01*
X98693388Y-124873484D01*
X98732065Y-124908781D01*
X98737496Y-124912062D01*
X98744406Y-124914561D01*
X98750018Y-124919306D01*
X98763265Y-124923537D01*
X98771986Y-124929784D01*
X98812032Y-124939114D01*
X98814246Y-124939821D01*
X98877659Y-124962756D01*
X98885001Y-124962421D01*
X98892000Y-124964656D01*
X98913825Y-124962829D01*
X98917148Y-124963603D01*
X98930051Y-124961470D01*
X98959175Y-124959032D01*
X99026552Y-124955954D01*
X99033208Y-124952834D01*
X99040529Y-124952221D01*
X99074319Y-124942509D01*
X99087598Y-124935659D01*
X99102346Y-124933267D01*
X99175404Y-124906005D01*
X99178853Y-124903874D01*
X99182842Y-124903141D01*
X99288602Y-124861142D01*
X99290248Y-124860077D01*
X99292173Y-124859703D01*
X99424073Y-124805778D01*
X99425087Y-124805107D01*
X99426280Y-124804868D01*
X99577757Y-124741832D01*
X99578498Y-124741335D01*
X99579371Y-124741156D01*
X99743861Y-124671819D01*
X99744477Y-124671402D01*
X99745202Y-124671250D01*
X99916142Y-124598425D01*
X99916715Y-124598033D01*
X99917398Y-124597888D01*
X100088226Y-124524388D01*
X100088832Y-124523971D01*
X100089551Y-124523815D01*
X100253700Y-124452452D01*
X100254418Y-124451954D01*
X100255271Y-124451765D01*
X100406182Y-124385351D01*
X100407149Y-124384673D01*
X100408300Y-124384411D01*
X100539408Y-124325760D01*
X100540944Y-124324670D01*
X100542775Y-124324234D01*
X100647517Y-124276156D01*
X100650617Y-124273912D01*
X100654322Y-124272951D01*
X100726135Y-124238260D01*
X100736895Y-124230142D01*
X100749676Y-124225859D01*
X100781995Y-124207368D01*
X100834379Y-124161790D01*
X100887993Y-124117638D01*
X100889093Y-124116293D01*
X100889780Y-124115002D01*
X100890902Y-124114064D01*
X100892295Y-124111399D01*
X100894440Y-124109533D01*
X100918028Y-124062171D01*
X100924758Y-124049294D01*
X100959131Y-123984724D01*
X100959272Y-123983267D01*
X100959949Y-123981972D01*
X100960381Y-123977128D01*
X100960886Y-123976114D01*
X100962346Y-123955099D01*
X100966437Y-123909236D01*
X100973489Y-123836368D01*
X100973061Y-123834967D01*
X100973191Y-123833513D01*
X100969019Y-123794803D01*
X100956631Y-123755280D01*
X100951367Y-123714204D01*
X100927834Y-123644085D01*
X100919626Y-123629754D01*
X100916135Y-123613609D01*
X100877992Y-123525677D01*
X100873312Y-123518918D01*
X100871236Y-123510966D01*
X100868736Y-123505813D01*
X101007239Y-123303369D01*
X101007566Y-123302603D01*
X101008159Y-123302018D01*
X101092269Y-123177942D01*
X101092966Y-123176290D01*
X101094231Y-123175019D01*
X101167319Y-123065033D01*
X101168216Y-123062852D01*
X101169859Y-123061160D01*
X101227363Y-122972307D01*
X101228978Y-122968241D01*
X101231954Y-122965035D01*
X101269313Y-122904357D01*
X101275069Y-122888856D01*
X101285242Y-122875819D01*
X101297921Y-122850628D01*
X101313412Y-122794643D01*
X101333746Y-122740231D01*
X101333152Y-122723301D01*
X101337669Y-122706977D01*
X101330557Y-122649328D01*
X101328520Y-122591273D01*
X101321493Y-122575861D01*
X101319419Y-122559049D01*
X101290784Y-122508506D01*
X101266688Y-122455655D01*
X101249419Y-122431675D01*
X101234682Y-122417937D01*
X101224456Y-122400572D01*
X101176343Y-122346655D01*
X101172205Y-122343536D01*
X101169456Y-122339141D01*
X101096042Y-122261161D01*
X101093771Y-122259543D01*
X101092259Y-122257200D01*
X100999087Y-122161034D01*
X100997362Y-122159841D01*
X100996205Y-122158091D01*
X100888817Y-122049618D01*
X100887933Y-122049021D01*
X100887338Y-122048131D01*
X100875359Y-122036163D01*
X100873730Y-122035076D01*
X100872625Y-122033459D01*
X100761612Y-121924760D01*
X100758310Y-121922604D01*
X100756018Y-121919392D01*
X100654986Y-121824404D01*
X100650746Y-121821756D01*
X100647737Y-121817762D01*
X100562960Y-121742071D01*
X100555558Y-121737710D01*
X100550092Y-121731085D01*
X100487845Y-121680279D01*
X100464360Y-121667807D01*
X100444774Y-121649826D01*
X100411333Y-121629491D01*
X100402413Y-121626235D01*
X100395110Y-121620162D01*
X100374398Y-121613732D01*
X100359053Y-121603392D01*
X100315759Y-121594604D01*
X100271321Y-121578383D01*
X100261832Y-121578788D01*
X100252762Y-121575973D01*
X100251391Y-121575829D01*
X100232033Y-121577609D01*
X100212982Y-121573742D01*
X100166086Y-121582880D01*
X100122407Y-121584746D01*
X100114518Y-121588416D01*
X100102968Y-121589478D01*
X100085765Y-121598530D01*
X100066685Y-121602248D01*
X100032606Y-121616208D01*
X100012011Y-121629853D01*
X99988565Y-121637642D01*
X99920490Y-121676357D01*
X99914712Y-121681358D01*
X99907558Y-121684052D01*
X99813159Y-121742776D01*
X99809901Y-121745828D01*
X99805756Y-121747499D01*
X99692706Y-121821483D01*
X99690346Y-121823798D01*
X99687297Y-121825088D01*
X99584360Y-121894983D01*
X99584309Y-121895035D01*
X99584243Y-121895063D01*
X99464559Y-121976394D01*
X99361135Y-122044413D01*
X99351843Y-122050264D01*
X99316299Y-122037026D01*
X99206825Y-121994248D01*
X99093488Y-121948324D01*
X98988682Y-121904262D01*
X98977185Y-121899181D01*
X98968211Y-121862673D01*
X98940781Y-121736480D01*
X98917196Y-121616621D01*
X98889325Y-121471413D01*
X98888718Y-121469918D01*
X98888715Y-121468304D01*
X98862827Y-121339221D01*
X98862019Y-121337279D01*
X98861993Y-121335178D01*
X98840063Y-121231647D01*
X98838527Y-121228064D01*
X98838400Y-121224166D01*
X98822236Y-121154755D01*
X98816659Y-121142438D01*
X98815278Y-121128987D01*
X98807254Y-121102926D01*
X98782970Y-121057944D01*
X98764469Y-121010283D01*
X98747862Y-120992914D01*
X98736447Y-120971770D01*
X98696796Y-120939504D01*
X98661466Y-120902553D01*
X98639477Y-120892862D01*
X98620838Y-120877694D01*
X98571854Y-120863057D01*
X98525076Y-120842440D01*
X98497528Y-120836315D01*
X98481127Y-120835947D01*
X98478028Y-120835021D01*
X98471183Y-120835724D01*
X98471125Y-120835723D01*
X98445728Y-120828478D01*
X98377008Y-120822863D01*
X98370786Y-120823581D01*
X98364708Y-120822057D01*
X98263959Y-120817090D01*
X98260984Y-120817531D01*
X98258057Y-120816845D01*
X98134416Y-120812665D01*
X98132476Y-120812983D01*
X98130557Y-120812554D01*
X97993169Y-120809299D01*
X97991587Y-120809575D01*
X97990020Y-120809238D01*
X97848027Y-120807045D01*
X97846454Y-120807333D01*
X97844885Y-120807009D01*
X97707426Y-120806017D01*
X97705510Y-120806384D01*
X97703598Y-120806009D01*
X97579817Y-120806356D01*
X97576912Y-120806942D01*
X97573991Y-120806416D01*
X97473028Y-120808239D01*
X97467009Y-120809550D01*
X97460916Y-120808650D01*
X97391911Y-120812088D01*
X97367327Y-120818264D01*
X97361338Y-120817423D01*
X97358054Y-120818273D01*
X97341037Y-120818062D01*
X97313135Y-120823254D01*
X97295817Y-120830177D01*
X97280313Y-120831348D01*
X97251818Y-120845753D01*
X97217038Y-120854750D01*
X97197476Y-120869493D01*
X97174737Y-120878584D01*
X97161682Y-120891320D01*
X97147295Y-120898593D01*
X97126012Y-120923353D01*
X97098008Y-120944458D01*
X97085578Y-120965562D01*
X97068047Y-120982665D01*
X97061100Y-120998867D01*
X97050135Y-121011623D01*
X97039651Y-121043542D01*
X97022368Y-121072888D01*
X97022184Y-121073415D01*
X97018797Y-121097524D01*
X97009309Y-121119652D01*
X97009100Y-121136563D01*
X97003626Y-121153229D01*
X96999892Y-121183937D01*
X96988679Y-121250248D01*
X96969819Y-121352788D01*
X96946127Y-121476303D01*
X96919636Y-121610518D01*
X96892395Y-121745187D01*
X96866355Y-121870619D01*
X96854318Y-121926645D01*
X96834221Y-121935767D01*
X96728818Y-121982000D01*
X96618411Y-122029139D01*
X96516842Y-122071293D01*
X96498769Y-122059879D01*
X96390593Y-121989005D01*
X96268844Y-121906976D01*
X96268545Y-121906851D01*
X96268315Y-121906620D01*
X96141884Y-121821743D01*
X96138966Y-121820527D01*
X96136698Y-121818322D01*
X96022790Y-121744511D01*
X96019033Y-121743016D01*
X96016077Y-121740260D01*
X95922069Y-121682084D01*
X95915378Y-121679582D01*
X95909977Y-121674905D01*
X95843249Y-121636934D01*
X95820715Y-121629442D01*
X95800989Y-121616222D01*
X95769232Y-121603017D01*
X95748901Y-121598944D01*
X95730534Y-121589314D01*
X95676388Y-121584417D01*
X95623087Y-121573739D01*
X95602743Y-121577757D01*
X95582091Y-121575889D01*
X95530192Y-121592085D01*
X95476862Y-121602618D01*
X95459607Y-121614114D01*
X95439809Y-121620292D01*
X95407932Y-121637659D01*
X95381054Y-121660078D01*
X95350094Y-121676393D01*
X95291364Y-121724015D01*
X95284897Y-121731801D01*
X95276201Y-121736981D01*
X95197257Y-121808137D01*
X95194160Y-121812289D01*
X95189786Y-121815055D01*
X95097270Y-121903026D01*
X95095234Y-121905914D01*
X95092282Y-121907856D01*
X94992834Y-122005921D01*
X94991148Y-122008406D01*
X94988663Y-122010097D01*
X94888922Y-122111538D01*
X94887205Y-122114156D01*
X94884647Y-122115957D01*
X94791253Y-122214052D01*
X94789101Y-122217450D01*
X94785862Y-122219833D01*
X94705456Y-122307864D01*
X94702054Y-122313490D01*
X94696894Y-122317563D01*
X94636115Y-122388808D01*
X94628533Y-122402365D01*
X94617151Y-122412937D01*
X94582639Y-122460678D01*
X94558111Y-122514219D01*
X94529211Y-122565524D01*
X94524114Y-122581079D01*
X94522907Y-122591066D01*
X94520562Y-122596184D01*
X94520536Y-122596895D01*
X94517762Y-122602574D01*
X94513850Y-122665985D01*
X94506226Y-122729051D01*
X94509284Y-122739998D01*
X94508584Y-122751341D01*
X94529233Y-122811413D01*
X94546326Y-122872604D01*
X94553341Y-122881548D01*
X94557035Y-122892295D01*
X94575161Y-122923414D01*
X94580877Y-122929881D01*
X94584042Y-122937909D01*
X94626428Y-123003756D01*
X94628222Y-123005612D01*
X94629200Y-123008000D01*
X94691042Y-123101328D01*
X94692085Y-123102379D01*
X94692656Y-123103743D01*
X94769153Y-123217301D01*
X94769977Y-123218118D01*
X94770431Y-123219186D01*
X94855751Y-123344226D01*
X94939618Y-123467799D01*
X95011234Y-123575946D01*
X95023452Y-123595001D01*
X95015202Y-123616520D01*
X94973055Y-123722188D01*
X94928295Y-123831068D01*
X94893393Y-123913337D01*
X94869028Y-123918847D01*
X94740893Y-123945555D01*
X94593037Y-123974384D01*
X94575735Y-123977637D01*
X94575732Y-123977638D01*
X94083265Y-124069874D01*
X94046381Y-124084670D01*
X94007403Y-124092423D01*
X93977883Y-124112147D01*
X93944931Y-124125366D01*
X93916516Y-124153151D01*
X93883473Y-124175230D01*
X93863749Y-124204750D01*
X93838363Y-124229573D01*
X93822744Y-124266118D01*
X93800666Y-124299160D01*
X93793740Y-124333981D01*
X93779786Y-124366629D01*
X93779341Y-124406368D01*
X93771588Y-124445345D01*
X89991000Y-124445345D01*
X89991000Y-123190000D01*
X90184883Y-123190000D01*
X90278587Y-123661083D01*
X90545435Y-124060448D01*
X90944800Y-124327296D01*
X91415883Y-124421000D01*
X91464117Y-124421000D01*
X91935200Y-124327296D01*
X92334565Y-124060448D01*
X92601413Y-123661083D01*
X92695117Y-123190000D01*
X92601413Y-122718917D01*
X92334565Y-122319552D01*
X91935200Y-122052704D01*
X91464117Y-121959000D01*
X91415883Y-121959000D01*
X90944800Y-122052704D01*
X90545435Y-122319552D01*
X90278587Y-122718917D01*
X90184883Y-123190000D01*
X89991000Y-123190000D01*
X89991000Y-120650000D01*
X90184883Y-120650000D01*
X90278587Y-121121083D01*
X90545435Y-121520448D01*
X90944800Y-121787296D01*
X91415883Y-121881000D01*
X91464117Y-121881000D01*
X91935200Y-121787296D01*
X92334565Y-121520448D01*
X92601413Y-121121083D01*
X92695117Y-120650000D01*
X92601413Y-120178917D01*
X92334565Y-119779552D01*
X91935200Y-119512704D01*
X91464117Y-119419000D01*
X91415883Y-119419000D01*
X90944800Y-119512704D01*
X90545435Y-119779552D01*
X90278587Y-120178917D01*
X90184883Y-120650000D01*
X89991000Y-120650000D01*
X89991000Y-118110000D01*
X90184883Y-118110000D01*
X90278587Y-118581083D01*
X90545435Y-118980448D01*
X90944800Y-119247296D01*
X91415883Y-119341000D01*
X91464117Y-119341000D01*
X91935200Y-119247296D01*
X92334565Y-118980448D01*
X92601413Y-118581083D01*
X92695117Y-118110000D01*
X92601413Y-117638917D01*
X92334565Y-117239552D01*
X91935200Y-116972704D01*
X91464117Y-116879000D01*
X91415883Y-116879000D01*
X90944800Y-116972704D01*
X90545435Y-117239552D01*
X90278587Y-117638917D01*
X90184883Y-118110000D01*
X89991000Y-118110000D01*
X89991000Y-115570000D01*
X90184883Y-115570000D01*
X90278587Y-116041083D01*
X90545435Y-116440448D01*
X90944800Y-116707296D01*
X91415883Y-116801000D01*
X91464117Y-116801000D01*
X91935200Y-116707296D01*
X92334565Y-116440448D01*
X92601413Y-116041083D01*
X92695117Y-115570000D01*
X92601413Y-115098917D01*
X92334565Y-114699552D01*
X91935200Y-114432704D01*
X91464117Y-114339000D01*
X91415883Y-114339000D01*
X90944800Y-114432704D01*
X90545435Y-114699552D01*
X90278587Y-115098917D01*
X90184883Y-115570000D01*
X89991000Y-115570000D01*
X89991000Y-113346980D01*
X90250511Y-113346980D01*
X90374755Y-113646964D01*
X90691944Y-114007652D01*
X91123018Y-114219501D01*
X91313000Y-114159193D01*
X91313000Y-113157000D01*
X91567000Y-113157000D01*
X91567000Y-114159193D01*
X91756982Y-114219501D01*
X92188056Y-114007652D01*
X92505245Y-113646964D01*
X92629489Y-113346980D01*
X92568627Y-113157000D01*
X91567000Y-113157000D01*
X91313000Y-113157000D01*
X90311373Y-113157000D01*
X90250511Y-113346980D01*
X89991000Y-113346980D01*
X89991000Y-112713020D01*
X90250511Y-112713020D01*
X90311373Y-112903000D01*
X91313000Y-112903000D01*
X91313000Y-111900807D01*
X91567000Y-111900807D01*
X91567000Y-112903000D01*
X92568627Y-112903000D01*
X92629489Y-112713020D01*
X92505245Y-112413036D01*
X92188056Y-112052348D01*
X91756982Y-111840499D01*
X91567000Y-111900807D01*
X91313000Y-111900807D01*
X91123018Y-111840499D01*
X90691944Y-112052348D01*
X90374755Y-112413036D01*
X90250511Y-112713020D01*
X89991000Y-112713020D01*
X89991000Y-105410000D01*
X90184883Y-105410000D01*
X90278587Y-105881083D01*
X90545435Y-106280448D01*
X90944800Y-106547296D01*
X91415883Y-106641000D01*
X91464117Y-106641000D01*
X91935200Y-106547296D01*
X92334565Y-106280448D01*
X92601413Y-105881083D01*
X92695117Y-105410000D01*
X92601413Y-104938917D01*
X92334565Y-104539552D01*
X91935200Y-104272704D01*
X91464117Y-104179000D01*
X91415883Y-104179000D01*
X90944800Y-104272704D01*
X90545435Y-104539552D01*
X90278587Y-104938917D01*
X90184883Y-105410000D01*
X89991000Y-105410000D01*
X89991000Y-102870000D01*
X90184883Y-102870000D01*
X90278587Y-103341083D01*
X90545435Y-103740448D01*
X90944800Y-104007296D01*
X91415883Y-104101000D01*
X91464117Y-104101000D01*
X91935200Y-104007296D01*
X92334565Y-103740448D01*
X92601413Y-103341083D01*
X92695117Y-102870000D01*
X92601413Y-102398917D01*
X92334565Y-101999552D01*
X91935200Y-101732704D01*
X91464117Y-101639000D01*
X91415883Y-101639000D01*
X90944800Y-101732704D01*
X90545435Y-101999552D01*
X90278587Y-102398917D01*
X90184883Y-102870000D01*
X89991000Y-102870000D01*
X89991000Y-100330000D01*
X90184883Y-100330000D01*
X90278587Y-100801083D01*
X90545435Y-101200448D01*
X90944800Y-101467296D01*
X91415883Y-101561000D01*
X91464117Y-101561000D01*
X91935200Y-101467296D01*
X92334565Y-101200448D01*
X92601413Y-100801083D01*
X92695117Y-100330000D01*
X92601413Y-99858917D01*
X92334565Y-99459552D01*
X91935200Y-99192704D01*
X91464117Y-99099000D01*
X91415883Y-99099000D01*
X90944800Y-99192704D01*
X90545435Y-99459552D01*
X90278587Y-99858917D01*
X90184883Y-100330000D01*
X89991000Y-100330000D01*
X89991000Y-97790000D01*
X90184883Y-97790000D01*
X90278587Y-98261083D01*
X90545435Y-98660448D01*
X90944800Y-98927296D01*
X91415883Y-99021000D01*
X91464117Y-99021000D01*
X91935200Y-98927296D01*
X92334565Y-98660448D01*
X92601413Y-98261083D01*
X92695117Y-97790000D01*
X92601413Y-97318917D01*
X92334565Y-96919552D01*
X91935200Y-96652704D01*
X91464117Y-96559000D01*
X91415883Y-96559000D01*
X90944800Y-96652704D01*
X90545435Y-96919552D01*
X90278587Y-97318917D01*
X90184883Y-97790000D01*
X89991000Y-97790000D01*
X89991000Y-94400000D01*
X90201536Y-94400000D01*
X90201536Y-96100000D01*
X90228103Y-96241190D01*
X90311546Y-96370865D01*
X90438866Y-96457859D01*
X90590000Y-96488464D01*
X92290000Y-96488464D01*
X92431190Y-96461897D01*
X92560865Y-96378454D01*
X92647859Y-96251134D01*
X92678464Y-96100000D01*
X92678464Y-94400000D01*
X92651897Y-94258810D01*
X92568454Y-94129135D01*
X92441134Y-94042141D01*
X92290000Y-94011536D01*
X90590000Y-94011536D01*
X90448810Y-94038103D01*
X90319135Y-94121546D01*
X90232141Y-94248866D01*
X90201536Y-94400000D01*
X89991000Y-94400000D01*
X89991000Y-93166000D01*
X94465920Y-93166000D01*
X93498460Y-94133460D01*
X93498460Y-94133460D01*
G37*
X93498460Y-94133460D02*
X93350838Y-94354392D01*
X93341766Y-94400000D01*
X93299000Y-94615000D01*
X93299000Y-107667921D01*
X92615212Y-108351708D01*
X92695117Y-107950000D01*
X92601413Y-107478917D01*
X92334565Y-107079552D01*
X91935200Y-106812704D01*
X91464117Y-106719000D01*
X91415883Y-106719000D01*
X90944800Y-106812704D01*
X90545435Y-107079552D01*
X90278587Y-107478917D01*
X90184883Y-107950000D01*
X90278587Y-108421083D01*
X90545435Y-108820448D01*
X90944800Y-109087296D01*
X91415883Y-109181000D01*
X91464117Y-109181000D01*
X91865825Y-109101096D01*
X91667471Y-109299449D01*
X91464117Y-109259000D01*
X91415883Y-109259000D01*
X90944800Y-109352704D01*
X90545435Y-109619552D01*
X90278587Y-110018917D01*
X90184883Y-110490000D01*
X90278587Y-110961083D01*
X90545435Y-111360448D01*
X90944800Y-111627296D01*
X91415883Y-111721000D01*
X91464117Y-111721000D01*
X91935200Y-111627296D01*
X92334565Y-111360448D01*
X92461151Y-111171000D01*
X93697920Y-111171000D01*
X98578460Y-116051540D01*
X98799392Y-116199162D01*
X99060000Y-116251000D01*
X103118849Y-116251000D01*
X103245435Y-116440448D01*
X103644800Y-116707296D01*
X104115883Y-116801000D01*
X104164117Y-116801000D01*
X104635200Y-116707296D01*
X105034565Y-116440448D01*
X105301413Y-116041083D01*
X105395117Y-115570000D01*
X105301413Y-115098917D01*
X105034565Y-114699552D01*
X104635200Y-114432704D01*
X104164117Y-114339000D01*
X104115883Y-114339000D01*
X103644800Y-114432704D01*
X103245435Y-114699552D01*
X103118849Y-114889000D01*
X99342080Y-114889000D01*
X97483080Y-113030000D01*
X102884883Y-113030000D01*
X102978587Y-113501083D01*
X103245435Y-113900448D01*
X103644800Y-114167296D01*
X104115883Y-114261000D01*
X104164117Y-114261000D01*
X104635200Y-114167296D01*
X105034565Y-113900448D01*
X105301413Y-113501083D01*
X105395117Y-113030000D01*
X105301413Y-112558917D01*
X105034565Y-112159552D01*
X104635200Y-111892704D01*
X104164117Y-111799000D01*
X104115883Y-111799000D01*
X103644800Y-111892704D01*
X103245435Y-112159552D01*
X102978587Y-112558917D01*
X102884883Y-113030000D01*
X97483080Y-113030000D01*
X95260060Y-110806980D01*
X102950511Y-110806980D01*
X103074755Y-111106964D01*
X103391944Y-111467652D01*
X103823018Y-111679501D01*
X104013000Y-111619193D01*
X104013000Y-110617000D01*
X104267000Y-110617000D01*
X104267000Y-111619193D01*
X104456982Y-111679501D01*
X104888056Y-111467652D01*
X105205245Y-111106964D01*
X105329489Y-110806980D01*
X105268627Y-110617000D01*
X104267000Y-110617000D01*
X104013000Y-110617000D01*
X103011373Y-110617000D01*
X102950511Y-110806980D01*
X95260060Y-110806980D01*
X94626100Y-110173020D01*
X102950511Y-110173020D01*
X103011373Y-110363000D01*
X104013000Y-110363000D01*
X104013000Y-109360807D01*
X104267000Y-109360807D01*
X104267000Y-110363000D01*
X105268627Y-110363000D01*
X105329489Y-110173020D01*
X105205245Y-109873036D01*
X104888056Y-109512348D01*
X104456982Y-109300499D01*
X104267000Y-109360807D01*
X104013000Y-109360807D01*
X103823018Y-109300499D01*
X103391944Y-109512348D01*
X103074755Y-109873036D01*
X102950511Y-110173020D01*
X94626100Y-110173020D01*
X94461540Y-110008460D01*
X94240608Y-109860838D01*
X93980000Y-109809000D01*
X93084080Y-109809000D01*
X94461537Y-108431542D01*
X94461540Y-108431540D01*
X94609162Y-108210607D01*
X94661000Y-107950000D01*
X102884883Y-107950000D01*
X102978587Y-108421083D01*
X103245435Y-108820448D01*
X103644800Y-109087296D01*
X104115883Y-109181000D01*
X104164117Y-109181000D01*
X104635200Y-109087296D01*
X105034565Y-108820448D01*
X105301413Y-108421083D01*
X105395117Y-107950000D01*
X105301413Y-107478917D01*
X105034565Y-107079552D01*
X104635200Y-106812704D01*
X104164117Y-106719000D01*
X104115883Y-106719000D01*
X103644800Y-106812704D01*
X103245435Y-107079552D01*
X102978587Y-107478917D01*
X102884883Y-107950000D01*
X94661000Y-107950000D01*
X94661000Y-105410000D01*
X102884883Y-105410000D01*
X102978587Y-105881083D01*
X103245435Y-106280448D01*
X103644800Y-106547296D01*
X104115883Y-106641000D01*
X104164117Y-106641000D01*
X104635200Y-106547296D01*
X105034565Y-106280448D01*
X105301413Y-105881083D01*
X105395117Y-105410000D01*
X105301413Y-104938917D01*
X105034565Y-104539552D01*
X104635200Y-104272704D01*
X104164117Y-104179000D01*
X104115883Y-104179000D01*
X103644800Y-104272704D01*
X103245435Y-104539552D01*
X102978587Y-104938917D01*
X102884883Y-105410000D01*
X94661000Y-105410000D01*
X94661000Y-102870000D01*
X102884883Y-102870000D01*
X102978587Y-103341083D01*
X103245435Y-103740448D01*
X103644800Y-104007296D01*
X104115883Y-104101000D01*
X104164117Y-104101000D01*
X104635200Y-104007296D01*
X105034565Y-103740448D01*
X105301413Y-103341083D01*
X105395117Y-102870000D01*
X105301413Y-102398917D01*
X105034565Y-101999552D01*
X104635200Y-101732704D01*
X104164117Y-101639000D01*
X104115883Y-101639000D01*
X103644800Y-101732704D01*
X103245435Y-101999552D01*
X102978587Y-102398917D01*
X102884883Y-102870000D01*
X94661000Y-102870000D01*
X94661000Y-100330000D01*
X102884883Y-100330000D01*
X102978587Y-100801083D01*
X103245435Y-101200448D01*
X103644800Y-101467296D01*
X104115883Y-101561000D01*
X104164117Y-101561000D01*
X104635200Y-101467296D01*
X105034565Y-101200448D01*
X105301413Y-100801083D01*
X105395117Y-100330000D01*
X105301413Y-99858917D01*
X105034565Y-99459552D01*
X104635200Y-99192704D01*
X104164117Y-99099000D01*
X104115883Y-99099000D01*
X103644800Y-99192704D01*
X103245435Y-99459552D01*
X102978587Y-99858917D01*
X102884883Y-100330000D01*
X94661000Y-100330000D01*
X94661000Y-97790000D01*
X102884883Y-97790000D01*
X102978587Y-98261083D01*
X103245435Y-98660448D01*
X103644800Y-98927296D01*
X104115883Y-99021000D01*
X104164117Y-99021000D01*
X104635200Y-98927296D01*
X105034565Y-98660448D01*
X105301413Y-98261083D01*
X105395117Y-97790000D01*
X105301413Y-97318917D01*
X105034565Y-96919552D01*
X104635200Y-96652704D01*
X104164117Y-96559000D01*
X104115883Y-96559000D01*
X103644800Y-96652704D01*
X103245435Y-96919552D01*
X102978587Y-97318917D01*
X102884883Y-97790000D01*
X94661000Y-97790000D01*
X94661000Y-94897080D01*
X95532080Y-94026000D01*
X104080692Y-94026000D01*
X103644800Y-94112704D01*
X103245435Y-94379552D01*
X102978587Y-94778917D01*
X102884883Y-95250000D01*
X102978587Y-95721083D01*
X103245435Y-96120448D01*
X103644800Y-96387296D01*
X104115883Y-96481000D01*
X104164117Y-96481000D01*
X104635200Y-96387296D01*
X105034565Y-96120448D01*
X105301413Y-95721083D01*
X105395117Y-95250000D01*
X105301413Y-94778917D01*
X105034565Y-94379552D01*
X104635200Y-94112704D01*
X104199308Y-94026000D01*
X110842920Y-94026000D01*
X114014298Y-97197378D01*
X113893600Y-97172936D01*
X112166400Y-97172936D01*
X112025210Y-97199503D01*
X111895535Y-97282946D01*
X111808541Y-97410266D01*
X111777936Y-97561400D01*
X111777936Y-99288600D01*
X111804503Y-99429790D01*
X111887946Y-99559465D01*
X112015266Y-99646459D01*
X112166400Y-99677064D01*
X113566472Y-99677064D01*
X113794000Y-99904592D01*
X113794000Y-99983000D01*
X113506288Y-99790757D01*
X113030000Y-99696017D01*
X112553712Y-99790757D01*
X112149935Y-100060552D01*
X111880140Y-100464329D01*
X111785400Y-100940617D01*
X111785400Y-100989383D01*
X111880140Y-101465671D01*
X112149935Y-101869448D01*
X112553712Y-102139243D01*
X113030000Y-102233983D01*
X113506288Y-102139243D01*
X113794000Y-101947000D01*
X113794000Y-102523000D01*
X113506288Y-102330757D01*
X113030000Y-102236017D01*
X112553712Y-102330757D01*
X112149935Y-102600552D01*
X111880140Y-103004329D01*
X111785400Y-103480617D01*
X111785400Y-103529383D01*
X111880140Y-104005671D01*
X112149935Y-104409448D01*
X112553712Y-104679243D01*
X113030000Y-104773983D01*
X113506288Y-104679243D01*
X113794000Y-104487000D01*
X113794000Y-105063000D01*
X113506288Y-104870757D01*
X113030000Y-104776017D01*
X112553712Y-104870757D01*
X112149935Y-105140552D01*
X111880140Y-105544329D01*
X111785400Y-106020617D01*
X111785400Y-106069383D01*
X111805911Y-106172497D01*
X110894204Y-107084204D01*
X110784517Y-107248362D01*
X110746000Y-107442000D01*
X110746000Y-116884408D01*
X110026408Y-117604000D01*
X105278082Y-117604000D01*
X105034565Y-117239552D01*
X104635200Y-116972704D01*
X104164117Y-116879000D01*
X104115883Y-116879000D01*
X103644800Y-116972704D01*
X103245435Y-117239552D01*
X102978587Y-117638917D01*
X102884883Y-118110000D01*
X102978587Y-118581083D01*
X103245435Y-118980448D01*
X103644800Y-119247296D01*
X104115883Y-119341000D01*
X104164117Y-119341000D01*
X104635200Y-119247296D01*
X105034565Y-118980448D01*
X105278082Y-118616000D01*
X110236000Y-118616000D01*
X110429638Y-118577483D01*
X110593796Y-118467796D01*
X111609796Y-117451796D01*
X111719483Y-117287638D01*
X111758000Y-117094000D01*
X111758000Y-107651592D01*
X112335892Y-107073700D01*
X112553712Y-107219243D01*
X113030000Y-107313983D01*
X113506288Y-107219243D01*
X113794000Y-107027000D01*
X113794000Y-107603000D01*
X113506288Y-107410757D01*
X113030000Y-107316017D01*
X112553712Y-107410757D01*
X112149935Y-107680552D01*
X111880140Y-108084329D01*
X111785400Y-108560617D01*
X111785400Y-108609383D01*
X111880140Y-109085671D01*
X112149935Y-109489448D01*
X112524000Y-109739390D01*
X112524000Y-118762936D01*
X112166400Y-118762936D01*
X112025210Y-118789503D01*
X111895535Y-118872946D01*
X111808541Y-119000266D01*
X111777936Y-119151400D01*
X111777936Y-120144000D01*
X105278082Y-120144000D01*
X105034565Y-119779552D01*
X104635200Y-119512704D01*
X104164117Y-119419000D01*
X104115883Y-119419000D01*
X103644800Y-119512704D01*
X103245435Y-119779552D01*
X102978587Y-120178917D01*
X102884883Y-120650000D01*
X102978587Y-121121083D01*
X103245435Y-121520448D01*
X103644800Y-121787296D01*
X104115883Y-121881000D01*
X104164117Y-121881000D01*
X104635200Y-121787296D01*
X105034565Y-121520448D01*
X105278082Y-121156000D01*
X111897510Y-121156000D01*
X112015266Y-121236459D01*
X112166400Y-121267064D01*
X113794000Y-121267064D01*
X113794000Y-121285000D01*
X113832517Y-121478638D01*
X113942204Y-121642796D01*
X114409123Y-122109715D01*
X114325400Y-122530617D01*
X114325400Y-122579383D01*
X114409123Y-123000285D01*
X114090408Y-123319000D01*
X114003909Y-123319000D01*
X114179860Y-123055671D01*
X114274600Y-122579383D01*
X114274600Y-122530617D01*
X114179860Y-122054329D01*
X113910065Y-121650552D01*
X113506288Y-121380757D01*
X113030000Y-121286017D01*
X112553712Y-121380757D01*
X112149935Y-121650552D01*
X111880140Y-122054329D01*
X111785400Y-122530617D01*
X111785400Y-122579383D01*
X111880140Y-123055671D01*
X112056091Y-123319000D01*
X106254592Y-123319000D01*
X105767796Y-122832204D01*
X105603638Y-122722517D01*
X105410000Y-122684000D01*
X105278082Y-122684000D01*
X105034565Y-122319552D01*
X104635200Y-122052704D01*
X104164117Y-121959000D01*
X104115883Y-121959000D01*
X103644800Y-122052704D01*
X103245435Y-122319552D01*
X102978587Y-122718917D01*
X102884883Y-123190000D01*
X102978587Y-123661083D01*
X103245435Y-124060448D01*
X103644800Y-124327296D01*
X104115883Y-124421000D01*
X104164117Y-124421000D01*
X104635200Y-124327296D01*
X105034565Y-124060448D01*
X105246970Y-123742562D01*
X105687204Y-124182796D01*
X105851362Y-124292483D01*
X106045000Y-124331000D01*
X112056091Y-124331000D01*
X111880140Y-124594329D01*
X111785400Y-125070617D01*
X111785400Y-125119383D01*
X111806210Y-125224000D01*
X105278082Y-125224000D01*
X105034565Y-124859552D01*
X104635200Y-124592704D01*
X104164117Y-124499000D01*
X104115883Y-124499000D01*
X103644800Y-124592704D01*
X103245435Y-124859552D01*
X102978587Y-125258917D01*
X102884883Y-125730000D01*
X102978587Y-126201083D01*
X103245435Y-126600448D01*
X103644800Y-126867296D01*
X104115883Y-126961000D01*
X104164117Y-126961000D01*
X104635200Y-126867296D01*
X105034565Y-126600448D01*
X105278082Y-126236000D01*
X112395000Y-126236000D01*
X112478965Y-126219298D01*
X112553712Y-126269243D01*
X113030000Y-126363983D01*
X113506288Y-126269243D01*
X113910065Y-125999448D01*
X114179860Y-125595671D01*
X114215972Y-125414120D01*
X114366995Y-125414120D01*
X114580690Y-125850199D01*
X114944999Y-126171305D01*
X115250882Y-126297993D01*
X115443000Y-126237312D01*
X115443000Y-125222000D01*
X115697000Y-125222000D01*
X115697000Y-126237312D01*
X115889118Y-126297993D01*
X116195001Y-126171305D01*
X116559310Y-125850199D01*
X116773005Y-125414120D01*
X116712865Y-125222000D01*
X115697000Y-125222000D01*
X115443000Y-125222000D01*
X114427135Y-125222000D01*
X114366995Y-125414120D01*
X114215972Y-125414120D01*
X114274600Y-125119383D01*
X114274600Y-125070617D01*
X114215973Y-124775880D01*
X114366995Y-124775880D01*
X114427135Y-124968000D01*
X115443000Y-124968000D01*
X115443000Y-123952688D01*
X115697000Y-123952688D01*
X115697000Y-124968000D01*
X116712865Y-124968000D01*
X116773005Y-124775880D01*
X116559310Y-124339801D01*
X116195001Y-124018695D01*
X115889118Y-123892007D01*
X115697000Y-123952688D01*
X115443000Y-123952688D01*
X115250882Y-123892007D01*
X114944999Y-124018695D01*
X114580690Y-124339801D01*
X114366995Y-124775880D01*
X114215973Y-124775880D01*
X114179860Y-124594329D01*
X114003909Y-124331000D01*
X114300000Y-124331000D01*
X114493638Y-124292483D01*
X114657796Y-124182796D01*
X115108423Y-123732169D01*
X115570000Y-123823983D01*
X116046288Y-123729243D01*
X116450065Y-123459448D01*
X116719860Y-123055671D01*
X116814600Y-122579383D01*
X116814600Y-122530617D01*
X116719860Y-122054329D01*
X116450065Y-121650552D01*
X116046288Y-121380757D01*
X115570000Y-121286017D01*
X115108423Y-121377831D01*
X114806000Y-121075408D01*
X114806000Y-120997000D01*
X115093712Y-121189243D01*
X115570000Y-121283983D01*
X116046288Y-121189243D01*
X116450065Y-120919448D01*
X116719860Y-120515671D01*
X116732884Y-120450196D01*
X117956540Y-119226540D01*
X118104162Y-119005608D01*
X118156000Y-118745000D01*
X118156000Y-99695000D01*
X118117483Y-99501362D01*
X118104162Y-99434392D01*
X117956540Y-99213460D01*
X116732884Y-97989804D01*
X116719860Y-97924329D01*
X116450065Y-97520552D01*
X116046288Y-97250757D01*
X115980813Y-97237733D01*
X111909080Y-93166000D01*
X118924000Y-93166000D01*
X118924000Y-130354000D01*
X89991000Y-130354000D01*
X89991000Y-128270000D01*
X90184883Y-128270000D01*
X90278587Y-128741083D01*
X90545435Y-129140448D01*
X90944800Y-129407296D01*
X91415883Y-129501000D01*
X91464117Y-129501000D01*
X91935200Y-129407296D01*
X92334565Y-129140448D01*
X92601413Y-128741083D01*
X92695117Y-128270000D01*
X92601413Y-127798917D01*
X92334565Y-127399552D01*
X91935200Y-127132704D01*
X91464117Y-127039000D01*
X91415883Y-127039000D01*
X90944800Y-127132704D01*
X90545435Y-127399552D01*
X90278587Y-127798917D01*
X90184883Y-128270000D01*
X89991000Y-128270000D01*
X89991000Y-125730000D01*
X90184883Y-125730000D01*
X90278587Y-126201083D01*
X90545435Y-126600448D01*
X90944800Y-126867296D01*
X91415883Y-126961000D01*
X91464117Y-126961000D01*
X91935200Y-126867296D01*
X92334565Y-126600448D01*
X92601413Y-126201083D01*
X92695117Y-125730000D01*
X92601413Y-125258917D01*
X92334565Y-124859552D01*
X91935200Y-124592704D01*
X91464117Y-124499000D01*
X91415883Y-124499000D01*
X90944800Y-124592704D01*
X90545435Y-124859552D01*
X90278587Y-125258917D01*
X90184883Y-125730000D01*
X89991000Y-125730000D01*
X89991000Y-124445345D01*
X93771588Y-124445345D01*
X93771588Y-125516183D01*
X93779341Y-125555160D01*
X93779786Y-125594899D01*
X93793740Y-125627547D01*
X93800666Y-125662368D01*
X93822744Y-125695410D01*
X93838363Y-125731955D01*
X93863749Y-125756778D01*
X93883473Y-125786298D01*
X93916516Y-125808377D01*
X93944931Y-125836162D01*
X93977883Y-125849381D01*
X94007403Y-125869105D01*
X94046381Y-125876858D01*
X94083265Y-125891654D01*
X94574781Y-125983712D01*
X94724485Y-126012679D01*
X94855323Y-126039727D01*
X94893379Y-126048238D01*
X94902544Y-126069335D01*
X94946431Y-126174191D01*
X94990724Y-126283222D01*
X95023474Y-126366498D01*
X95011641Y-126384956D01*
X94940157Y-126492926D01*
X94856085Y-126616820D01*
X94856072Y-126616851D01*
X94856028Y-126616894D01*
X94769742Y-126743357D01*
X94769285Y-126744431D01*
X94768458Y-126745252D01*
X94692064Y-126858671D01*
X94691492Y-126860038D01*
X94690446Y-126861092D01*
X94628745Y-126954221D01*
X94627760Y-126956625D01*
X94625954Y-126958495D01*
X94583751Y-127024083D01*
X94580568Y-127032158D01*
X94574822Y-127038666D01*
X94556953Y-127069374D01*
X94545999Y-127101285D01*
X94528433Y-127130097D01*
X94522034Y-127171101D01*
X94508562Y-127210349D01*
X94510654Y-127244028D01*
X94505452Y-127277364D01*
X94515230Y-127317689D01*
X94517803Y-127359112D01*
X94531664Y-127387462D01*
X94531951Y-127391362D01*
X94534157Y-127395748D01*
X94540575Y-127422215D01*
X94553590Y-127450279D01*
X94579323Y-127485529D01*
X94598934Y-127524512D01*
X94642700Y-127580620D01*
X94651102Y-127587871D01*
X94656650Y-127597485D01*
X94724528Y-127674916D01*
X94728840Y-127678226D01*
X94731687Y-127682855D01*
X94817038Y-127774890D01*
X94819967Y-127777011D01*
X94821921Y-127780059D01*
X94918103Y-127879977D01*
X94920584Y-127881704D01*
X94922253Y-127884221D01*
X95022627Y-127985302D01*
X95025194Y-127987030D01*
X95026945Y-127989582D01*
X95124870Y-128085107D01*
X95128138Y-128087233D01*
X95130409Y-128090403D01*
X95219247Y-128173652D01*
X95224509Y-128176926D01*
X95228275Y-128181845D01*
X95301383Y-128246098D01*
X95313352Y-128253025D01*
X95322518Y-128263373D01*
X95373258Y-128301910D01*
X95413250Y-128321386D01*
X95449625Y-128346985D01*
X95467889Y-128355073D01*
X95473379Y-128356304D01*
X95478072Y-128359407D01*
X95500088Y-128363677D01*
X95507261Y-128367170D01*
X95523022Y-128368125D01*
X95545913Y-128372564D01*
X95613328Y-128387677D01*
X95618870Y-128386713D01*
X95624395Y-128387785D01*
X95692107Y-128373979D01*
X95760174Y-128362143D01*
X95764927Y-128359131D01*
X95770439Y-128358007D01*
X95803439Y-128344152D01*
X95822789Y-128331088D01*
X95844933Y-128323693D01*
X95912414Y-128285175D01*
X95917704Y-128280581D01*
X95924267Y-128278123D01*
X96018847Y-128219512D01*
X96021774Y-128216779D01*
X96025495Y-128215297D01*
X96139797Y-128141162D01*
X96142032Y-128138988D01*
X96144906Y-128137789D01*
X96268374Y-128054868D01*
X96268565Y-128054676D01*
X96268814Y-128054572D01*
X96392531Y-127971234D01*
X96500373Y-127900615D01*
X96516720Y-127890299D01*
X96535502Y-127897864D01*
X96641531Y-127942156D01*
X96751908Y-127989545D01*
X96854356Y-128034762D01*
X96857133Y-128047459D01*
X96882213Y-128166874D01*
X96909224Y-128299149D01*
X96936228Y-128434661D01*
X96961216Y-128563401D01*
X96982199Y-128675381D01*
X96996796Y-128758217D01*
X97004260Y-128808409D01*
X97006846Y-128815629D01*
X97006560Y-128828088D01*
X97026687Y-128880025D01*
X97041507Y-128933717D01*
X97053416Y-128948999D01*
X97060418Y-128967066D01*
X97098890Y-129007348D01*
X97133128Y-129051281D01*
X97149980Y-129060843D01*
X97163362Y-129074854D01*
X97214314Y-129097344D01*
X97262764Y-129124834D01*
X97281995Y-129127219D01*
X97299718Y-129135042D01*
X97323704Y-129140389D01*
X97355382Y-129141117D01*
X97386076Y-129148977D01*
X97451941Y-129152559D01*
X97458568Y-129151611D01*
X97465109Y-129153048D01*
X97563710Y-129155004D01*
X97566778Y-129154457D01*
X97569830Y-129155076D01*
X97692027Y-129155542D01*
X97693989Y-129155160D01*
X97695952Y-129155537D01*
X97832603Y-129154654D01*
X97834186Y-129154328D01*
X97835774Y-129154620D01*
X97977737Y-129152524D01*
X97979295Y-129152190D01*
X97980865Y-129152465D01*
X98118999Y-129149294D01*
X98120868Y-129148878D01*
X98122761Y-129149190D01*
X98247924Y-129145083D01*
X98250721Y-129144431D01*
X98253558Y-129144856D01*
X98356612Y-129139951D01*
X98362225Y-129138554D01*
X98367970Y-129139241D01*
X98439768Y-129133676D01*
X98460943Y-129127731D01*
X98482937Y-129127839D01*
X98514341Y-129121752D01*
X98554025Y-129105542D01*
X98595866Y-129096220D01*
X98609645Y-129086551D01*
X98624149Y-129082061D01*
X98636393Y-129071896D01*
X98652322Y-129065389D01*
X98682780Y-129035228D01*
X98717871Y-129010603D01*
X98718384Y-129010066D01*
X98726783Y-128996852D01*
X98738827Y-128986853D01*
X98746688Y-128971944D01*
X98758231Y-128960513D01*
X98774493Y-128921790D01*
X98798338Y-128884276D01*
X98801041Y-128868853D01*
X98808341Y-128855007D01*
X98817934Y-128822725D01*
X98819070Y-128810482D01*
X98824103Y-128799262D01*
X98841052Y-128725320D01*
X98841154Y-128721792D01*
X98842540Y-128718546D01*
X98865038Y-128611509D01*
X98865060Y-128609505D01*
X98865829Y-128607650D01*
X98892069Y-128476086D01*
X98892070Y-128474590D01*
X98892632Y-128473205D01*
X98917143Y-128345188D01*
X98945677Y-128201508D01*
X98972664Y-128079734D01*
X98976992Y-128062566D01*
X99018791Y-128044417D01*
X99127573Y-127999224D01*
X99241014Y-127953742D01*
X99346772Y-127912932D01*
X99351528Y-127911196D01*
X99376139Y-127926821D01*
X99482552Y-127997197D01*
X99583892Y-128066227D01*
X99584446Y-128066462D01*
X99584869Y-128066890D01*
X99707656Y-128149975D01*
X99711094Y-128151423D01*
X99713766Y-128154024D01*
X99824357Y-128225802D01*
X99828838Y-128227588D01*
X99832376Y-128230866D01*
X99923082Y-128286588D01*
X99931391Y-128289664D01*
X99938158Y-128295381D01*
X100001292Y-128330297D01*
X100027942Y-128338799D01*
X100051701Y-128353565D01*
X100077695Y-128363340D01*
X100099590Y-128366949D01*
X100119664Y-128376422D01*
X100172540Y-128378974D01*
X100224760Y-128387581D01*
X100246370Y-128382536D01*
X100268540Y-128383606D01*
X100318367Y-128365729D01*
X100369907Y-128353697D01*
X100387941Y-128340767D01*
X100408833Y-128333271D01*
X100437487Y-128316062D01*
X100458686Y-128296814D01*
X100483907Y-128283251D01*
X100541053Y-128236108D01*
X100545906Y-128230163D01*
X100552513Y-128226266D01*
X100631232Y-128155915D01*
X100633543Y-128152843D01*
X100636817Y-128150824D01*
X100730193Y-128063991D01*
X100731717Y-128061880D01*
X100733915Y-128060483D01*
X100835032Y-127963895D01*
X100836303Y-127962084D01*
X100838157Y-127960876D01*
X100940099Y-127861258D01*
X100941408Y-127859346D01*
X100943332Y-127858060D01*
X101039181Y-127762139D01*
X101040844Y-127759649D01*
X101043307Y-127757946D01*
X101126149Y-127672448D01*
X101128844Y-127668273D01*
X101132861Y-127665342D01*
X101195778Y-127596992D01*
X101202080Y-127586660D01*
X101211389Y-127578931D01*
X101247466Y-127534457D01*
X101267731Y-127496019D01*
X101294054Y-127461440D01*
X101299955Y-127449355D01*
X101306739Y-127423641D01*
X101308787Y-127420000D01*
X102901536Y-127420000D01*
X102901536Y-129120000D01*
X102928103Y-129261190D01*
X103011546Y-129390865D01*
X103138866Y-129477859D01*
X103290000Y-129508464D01*
X104990000Y-129508464D01*
X105131190Y-129481897D01*
X105260865Y-129398454D01*
X105347859Y-129271134D01*
X105378464Y-129120000D01*
X105378464Y-127420000D01*
X105351897Y-127278810D01*
X105268454Y-127149135D01*
X105141134Y-127062141D01*
X104990000Y-127031536D01*
X103290000Y-127031536D01*
X103148810Y-127058103D01*
X103019135Y-127141546D01*
X102932141Y-127268866D01*
X102901536Y-127420000D01*
X101308787Y-127420000D01*
X101319781Y-127400457D01*
X101325584Y-127352212D01*
X101337978Y-127305237D01*
X101334405Y-127278883D01*
X101337582Y-127252475D01*
X101324483Y-127205688D01*
X101317956Y-127157539D01*
X101304568Y-127134555D01*
X101297398Y-127108945D01*
X101283621Y-127081778D01*
X101273550Y-127068952D01*
X101267845Y-127053675D01*
X101229698Y-126991972D01*
X101226713Y-126988769D01*
X101225090Y-126984703D01*
X101167348Y-126895845D01*
X101165631Y-126894083D01*
X101164690Y-126891811D01*
X101092130Y-126783182D01*
X101090923Y-126781974D01*
X101090255Y-126780401D01*
X101029262Y-126690802D01*
X101029261Y-126690801D01*
X100948409Y-126571911D01*
X100878335Y-126466968D01*
X100869734Y-126453774D01*
X100869934Y-126452800D01*
X100872362Y-126449334D01*
X100911217Y-126361062D01*
X100914662Y-126345535D01*
X100922683Y-126331804D01*
X100947992Y-126258481D01*
X100952551Y-126225174D01*
X100964189Y-126193635D01*
X100971206Y-126149358D01*
X100971149Y-126147892D01*
X100971646Y-126146512D01*
X100968234Y-126073514D01*
X100965369Y-126000423D01*
X100964882Y-125999365D01*
X100964845Y-125998355D01*
X100964706Y-125998051D01*
X100964686Y-125997626D01*
X100963893Y-125994428D01*
X100933034Y-125928779D01*
X100902868Y-125862802D01*
X100901362Y-125861401D01*
X100900486Y-125859538D01*
X100846821Y-125810667D01*
X100793735Y-125761285D01*
X100768919Y-125745970D01*
X100751162Y-125739356D01*
X100736094Y-125727875D01*
X100670653Y-125695879D01*
X100666370Y-125694747D01*
X100662783Y-125692141D01*
X100563279Y-125646272D01*
X100561287Y-125645794D01*
X100559615Y-125644606D01*
X100432613Y-125587676D01*
X100431400Y-125587398D01*
X100430381Y-125586684D01*
X100282443Y-125521502D01*
X100281566Y-125521307D01*
X100280831Y-125520797D01*
X100118520Y-125450173D01*
X100117799Y-125450016D01*
X100117190Y-125449597D01*
X99947071Y-125376342D01*
X99946402Y-125376199D01*
X99945835Y-125375812D01*
X99774469Y-125302735D01*
X99773767Y-125302588D01*
X99773173Y-125302185D01*
X99607124Y-125232096D01*
X99606301Y-125231927D01*
X99605602Y-125231457D01*
X99451433Y-125167166D01*
X99450331Y-125166944D01*
X99449396Y-125166324D01*
X99313671Y-125110641D01*
X99311953Y-125110305D01*
X99310487Y-125109352D01*
X99199767Y-125065087D01*
X99196396Y-125064460D01*
X99193489Y-125062641D01*
X99114338Y-125032605D01*
X99103675Y-125030815D01*
X99094200Y-125025599D01*
X99053181Y-125012601D01*
X99016129Y-125008489D01*
X98980618Y-124997165D01*
X98977835Y-124996850D01*
X98966230Y-124997827D01*
X98954942Y-124994962D01*
X98928636Y-124998780D01*
X98905042Y-124996162D01*
X98871906Y-125005769D01*
X98829311Y-125009355D01*
X98818962Y-125014699D01*
X98807439Y-125016372D01*
X98780944Y-125032140D01*
X98761887Y-125037665D01*
X98739172Y-125055843D01*
X98738999Y-125055892D01*
X98738633Y-125056183D01*
X98696878Y-125077746D01*
X98689363Y-125086642D01*
X98679356Y-125092598D01*
X98658125Y-125111721D01*
X98642615Y-125132498D01*
X98622315Y-125148632D01*
X98579052Y-125199697D01*
X98575311Y-125206439D01*
X98569468Y-125211475D01*
X98512018Y-125285023D01*
X98510294Y-125288445D01*
X98507442Y-125291002D01*
X98492100Y-125311461D01*
X98368593Y-125448975D01*
X98248933Y-125538777D01*
X98124179Y-125597864D01*
X97997178Y-125628428D01*
X97870144Y-125631784D01*
X97744739Y-125608204D01*
X97622191Y-125556554D01*
X97496982Y-125469108D01*
X97445288Y-125418963D01*
X97357107Y-125300402D01*
X97304586Y-125184865D01*
X97278008Y-125064854D01*
X97275789Y-124941544D01*
X97297309Y-124818175D01*
X97341536Y-124699595D01*
X97406486Y-124591118D01*
X97489423Y-124497545D01*
X97587655Y-124422484D01*
X97699821Y-124368289D01*
X97834168Y-124335384D01*
X97910944Y-124330241D01*
X98064356Y-124346432D01*
X98194370Y-124390664D01*
X98315899Y-124465694D01*
X98440868Y-124585368D01*
X98486408Y-124642397D01*
X98544768Y-124718943D01*
X98549470Y-124723092D01*
X98552407Y-124728634D01*
X98602352Y-124789929D01*
X98612665Y-124798453D01*
X98619730Y-124809810D01*
X98650816Y-124842989D01*
X98693388Y-124873484D01*
X98732065Y-124908781D01*
X98737496Y-124912062D01*
X98744406Y-124914561D01*
X98750018Y-124919306D01*
X98763265Y-124923537D01*
X98771986Y-124929784D01*
X98812032Y-124939114D01*
X98814246Y-124939821D01*
X98877659Y-124962756D01*
X98885001Y-124962421D01*
X98892000Y-124964656D01*
X98913825Y-124962829D01*
X98917148Y-124963603D01*
X98930051Y-124961470D01*
X98959175Y-124959032D01*
X99026552Y-124955954D01*
X99033208Y-124952834D01*
X99040529Y-124952221D01*
X99074319Y-124942509D01*
X99087598Y-124935659D01*
X99102346Y-124933267D01*
X99175404Y-124906005D01*
X99178853Y-124903874D01*
X99182842Y-124903141D01*
X99288602Y-124861142D01*
X99290248Y-124860077D01*
X99292173Y-124859703D01*
X99424073Y-124805778D01*
X99425087Y-124805107D01*
X99426280Y-124804868D01*
X99577757Y-124741832D01*
X99578498Y-124741335D01*
X99579371Y-124741156D01*
X99743861Y-124671819D01*
X99744477Y-124671402D01*
X99745202Y-124671250D01*
X99916142Y-124598425D01*
X99916715Y-124598033D01*
X99917398Y-124597888D01*
X100088226Y-124524388D01*
X100088832Y-124523971D01*
X100089551Y-124523815D01*
X100253700Y-124452452D01*
X100254418Y-124451954D01*
X100255271Y-124451765D01*
X100406182Y-124385351D01*
X100407149Y-124384673D01*
X100408300Y-124384411D01*
X100539408Y-124325760D01*
X100540944Y-124324670D01*
X100542775Y-124324234D01*
X100647517Y-124276156D01*
X100650617Y-124273912D01*
X100654322Y-124272951D01*
X100726135Y-124238260D01*
X100736895Y-124230142D01*
X100749676Y-124225859D01*
X100781995Y-124207368D01*
X100834379Y-124161790D01*
X100887993Y-124117638D01*
X100889093Y-124116293D01*
X100889780Y-124115002D01*
X100890902Y-124114064D01*
X100892295Y-124111399D01*
X100894440Y-124109533D01*
X100918028Y-124062171D01*
X100924758Y-124049294D01*
X100959131Y-123984724D01*
X100959272Y-123983267D01*
X100959949Y-123981972D01*
X100960381Y-123977128D01*
X100960886Y-123976114D01*
X100962346Y-123955099D01*
X100966437Y-123909236D01*
X100973489Y-123836368D01*
X100973061Y-123834967D01*
X100973191Y-123833513D01*
X100969019Y-123794803D01*
X100956631Y-123755280D01*
X100951367Y-123714204D01*
X100927834Y-123644085D01*
X100919626Y-123629754D01*
X100916135Y-123613609D01*
X100877992Y-123525677D01*
X100873312Y-123518918D01*
X100871236Y-123510966D01*
X100868736Y-123505813D01*
X101007239Y-123303369D01*
X101007566Y-123302603D01*
X101008159Y-123302018D01*
X101092269Y-123177942D01*
X101092966Y-123176290D01*
X101094231Y-123175019D01*
X101167319Y-123065033D01*
X101168216Y-123062852D01*
X101169859Y-123061160D01*
X101227363Y-122972307D01*
X101228978Y-122968241D01*
X101231954Y-122965035D01*
X101269313Y-122904357D01*
X101275069Y-122888856D01*
X101285242Y-122875819D01*
X101297921Y-122850628D01*
X101313412Y-122794643D01*
X101333746Y-122740231D01*
X101333152Y-122723301D01*
X101337669Y-122706977D01*
X101330557Y-122649328D01*
X101328520Y-122591273D01*
X101321493Y-122575861D01*
X101319419Y-122559049D01*
X101290784Y-122508506D01*
X101266688Y-122455655D01*
X101249419Y-122431675D01*
X101234682Y-122417937D01*
X101224456Y-122400572D01*
X101176343Y-122346655D01*
X101172205Y-122343536D01*
X101169456Y-122339141D01*
X101096042Y-122261161D01*
X101093771Y-122259543D01*
X101092259Y-122257200D01*
X100999087Y-122161034D01*
X100997362Y-122159841D01*
X100996205Y-122158091D01*
X100888817Y-122049618D01*
X100887933Y-122049021D01*
X100887338Y-122048131D01*
X100875359Y-122036163D01*
X100873730Y-122035076D01*
X100872625Y-122033459D01*
X100761612Y-121924760D01*
X100758310Y-121922604D01*
X100756018Y-121919392D01*
X100654986Y-121824404D01*
X100650746Y-121821756D01*
X100647737Y-121817762D01*
X100562960Y-121742071D01*
X100555558Y-121737710D01*
X100550092Y-121731085D01*
X100487845Y-121680279D01*
X100464360Y-121667807D01*
X100444774Y-121649826D01*
X100411333Y-121629491D01*
X100402413Y-121626235D01*
X100395110Y-121620162D01*
X100374398Y-121613732D01*
X100359053Y-121603392D01*
X100315759Y-121594604D01*
X100271321Y-121578383D01*
X100261832Y-121578788D01*
X100252762Y-121575973D01*
X100251391Y-121575829D01*
X100232033Y-121577609D01*
X100212982Y-121573742D01*
X100166086Y-121582880D01*
X100122407Y-121584746D01*
X100114518Y-121588416D01*
X100102968Y-121589478D01*
X100085765Y-121598530D01*
X100066685Y-121602248D01*
X100032606Y-121616208D01*
X100012011Y-121629853D01*
X99988565Y-121637642D01*
X99920490Y-121676357D01*
X99914712Y-121681358D01*
X99907558Y-121684052D01*
X99813159Y-121742776D01*
X99809901Y-121745828D01*
X99805756Y-121747499D01*
X99692706Y-121821483D01*
X99690346Y-121823798D01*
X99687297Y-121825088D01*
X99584360Y-121894983D01*
X99584309Y-121895035D01*
X99584243Y-121895063D01*
X99464559Y-121976394D01*
X99361135Y-122044413D01*
X99351843Y-122050264D01*
X99316299Y-122037026D01*
X99206825Y-121994248D01*
X99093488Y-121948324D01*
X98988682Y-121904262D01*
X98977185Y-121899181D01*
X98968211Y-121862673D01*
X98940781Y-121736480D01*
X98917196Y-121616621D01*
X98889325Y-121471413D01*
X98888718Y-121469918D01*
X98888715Y-121468304D01*
X98862827Y-121339221D01*
X98862019Y-121337279D01*
X98861993Y-121335178D01*
X98840063Y-121231647D01*
X98838527Y-121228064D01*
X98838400Y-121224166D01*
X98822236Y-121154755D01*
X98816659Y-121142438D01*
X98815278Y-121128987D01*
X98807254Y-121102926D01*
X98782970Y-121057944D01*
X98764469Y-121010283D01*
X98747862Y-120992914D01*
X98736447Y-120971770D01*
X98696796Y-120939504D01*
X98661466Y-120902553D01*
X98639477Y-120892862D01*
X98620838Y-120877694D01*
X98571854Y-120863057D01*
X98525076Y-120842440D01*
X98497528Y-120836315D01*
X98481127Y-120835947D01*
X98478028Y-120835021D01*
X98471183Y-120835724D01*
X98471125Y-120835723D01*
X98445728Y-120828478D01*
X98377008Y-120822863D01*
X98370786Y-120823581D01*
X98364708Y-120822057D01*
X98263959Y-120817090D01*
X98260984Y-120817531D01*
X98258057Y-120816845D01*
X98134416Y-120812665D01*
X98132476Y-120812983D01*
X98130557Y-120812554D01*
X97993169Y-120809299D01*
X97991587Y-120809575D01*
X97990020Y-120809238D01*
X97848027Y-120807045D01*
X97846454Y-120807333D01*
X97844885Y-120807009D01*
X97707426Y-120806017D01*
X97705510Y-120806384D01*
X97703598Y-120806009D01*
X97579817Y-120806356D01*
X97576912Y-120806942D01*
X97573991Y-120806416D01*
X97473028Y-120808239D01*
X97467009Y-120809550D01*
X97460916Y-120808650D01*
X97391911Y-120812088D01*
X97367327Y-120818264D01*
X97361338Y-120817423D01*
X97358054Y-120818273D01*
X97341037Y-120818062D01*
X97313135Y-120823254D01*
X97295817Y-120830177D01*
X97280313Y-120831348D01*
X97251818Y-120845753D01*
X97217038Y-120854750D01*
X97197476Y-120869493D01*
X97174737Y-120878584D01*
X97161682Y-120891320D01*
X97147295Y-120898593D01*
X97126012Y-120923353D01*
X97098008Y-120944458D01*
X97085578Y-120965562D01*
X97068047Y-120982665D01*
X97061100Y-120998867D01*
X97050135Y-121011623D01*
X97039651Y-121043542D01*
X97022368Y-121072888D01*
X97022184Y-121073415D01*
X97018797Y-121097524D01*
X97009309Y-121119652D01*
X97009100Y-121136563D01*
X97003626Y-121153229D01*
X96999892Y-121183937D01*
X96988679Y-121250248D01*
X96969819Y-121352788D01*
X96946127Y-121476303D01*
X96919636Y-121610518D01*
X96892395Y-121745187D01*
X96866355Y-121870619D01*
X96854318Y-121926645D01*
X96834221Y-121935767D01*
X96728818Y-121982000D01*
X96618411Y-122029139D01*
X96516842Y-122071293D01*
X96498769Y-122059879D01*
X96390593Y-121989005D01*
X96268844Y-121906976D01*
X96268545Y-121906851D01*
X96268315Y-121906620D01*
X96141884Y-121821743D01*
X96138966Y-121820527D01*
X96136698Y-121818322D01*
X96022790Y-121744511D01*
X96019033Y-121743016D01*
X96016077Y-121740260D01*
X95922069Y-121682084D01*
X95915378Y-121679582D01*
X95909977Y-121674905D01*
X95843249Y-121636934D01*
X95820715Y-121629442D01*
X95800989Y-121616222D01*
X95769232Y-121603017D01*
X95748901Y-121598944D01*
X95730534Y-121589314D01*
X95676388Y-121584417D01*
X95623087Y-121573739D01*
X95602743Y-121577757D01*
X95582091Y-121575889D01*
X95530192Y-121592085D01*
X95476862Y-121602618D01*
X95459607Y-121614114D01*
X95439809Y-121620292D01*
X95407932Y-121637659D01*
X95381054Y-121660078D01*
X95350094Y-121676393D01*
X95291364Y-121724015D01*
X95284897Y-121731801D01*
X95276201Y-121736981D01*
X95197257Y-121808137D01*
X95194160Y-121812289D01*
X95189786Y-121815055D01*
X95097270Y-121903026D01*
X95095234Y-121905914D01*
X95092282Y-121907856D01*
X94992834Y-122005921D01*
X94991148Y-122008406D01*
X94988663Y-122010097D01*
X94888922Y-122111538D01*
X94887205Y-122114156D01*
X94884647Y-122115957D01*
X94791253Y-122214052D01*
X94789101Y-122217450D01*
X94785862Y-122219833D01*
X94705456Y-122307864D01*
X94702054Y-122313490D01*
X94696894Y-122317563D01*
X94636115Y-122388808D01*
X94628533Y-122402365D01*
X94617151Y-122412937D01*
X94582639Y-122460678D01*
X94558111Y-122514219D01*
X94529211Y-122565524D01*
X94524114Y-122581079D01*
X94522907Y-122591066D01*
X94520562Y-122596184D01*
X94520536Y-122596895D01*
X94517762Y-122602574D01*
X94513850Y-122665985D01*
X94506226Y-122729051D01*
X94509284Y-122739998D01*
X94508584Y-122751341D01*
X94529233Y-122811413D01*
X94546326Y-122872604D01*
X94553341Y-122881548D01*
X94557035Y-122892295D01*
X94575161Y-122923414D01*
X94580877Y-122929881D01*
X94584042Y-122937909D01*
X94626428Y-123003756D01*
X94628222Y-123005612D01*
X94629200Y-123008000D01*
X94691042Y-123101328D01*
X94692085Y-123102379D01*
X94692656Y-123103743D01*
X94769153Y-123217301D01*
X94769977Y-123218118D01*
X94770431Y-123219186D01*
X94855751Y-123344226D01*
X94939618Y-123467799D01*
X95011234Y-123575946D01*
X95023452Y-123595001D01*
X95015202Y-123616520D01*
X94973055Y-123722188D01*
X94928295Y-123831068D01*
X94893393Y-123913337D01*
X94869028Y-123918847D01*
X94740893Y-123945555D01*
X94593037Y-123974384D01*
X94575735Y-123977637D01*
X94575732Y-123977638D01*
X94083265Y-124069874D01*
X94046381Y-124084670D01*
X94007403Y-124092423D01*
X93977883Y-124112147D01*
X93944931Y-124125366D01*
X93916516Y-124153151D01*
X93883473Y-124175230D01*
X93863749Y-124204750D01*
X93838363Y-124229573D01*
X93822744Y-124266118D01*
X93800666Y-124299160D01*
X93793740Y-124333981D01*
X93779786Y-124366629D01*
X93779341Y-124406368D01*
X93771588Y-124445345D01*
X89991000Y-124445345D01*
X89991000Y-123190000D01*
X90184883Y-123190000D01*
X90278587Y-123661083D01*
X90545435Y-124060448D01*
X90944800Y-124327296D01*
X91415883Y-124421000D01*
X91464117Y-124421000D01*
X91935200Y-124327296D01*
X92334565Y-124060448D01*
X92601413Y-123661083D01*
X92695117Y-123190000D01*
X92601413Y-122718917D01*
X92334565Y-122319552D01*
X91935200Y-122052704D01*
X91464117Y-121959000D01*
X91415883Y-121959000D01*
X90944800Y-122052704D01*
X90545435Y-122319552D01*
X90278587Y-122718917D01*
X90184883Y-123190000D01*
X89991000Y-123190000D01*
X89991000Y-120650000D01*
X90184883Y-120650000D01*
X90278587Y-121121083D01*
X90545435Y-121520448D01*
X90944800Y-121787296D01*
X91415883Y-121881000D01*
X91464117Y-121881000D01*
X91935200Y-121787296D01*
X92334565Y-121520448D01*
X92601413Y-121121083D01*
X92695117Y-120650000D01*
X92601413Y-120178917D01*
X92334565Y-119779552D01*
X91935200Y-119512704D01*
X91464117Y-119419000D01*
X91415883Y-119419000D01*
X90944800Y-119512704D01*
X90545435Y-119779552D01*
X90278587Y-120178917D01*
X90184883Y-120650000D01*
X89991000Y-120650000D01*
X89991000Y-118110000D01*
X90184883Y-118110000D01*
X90278587Y-118581083D01*
X90545435Y-118980448D01*
X90944800Y-119247296D01*
X91415883Y-119341000D01*
X91464117Y-119341000D01*
X91935200Y-119247296D01*
X92334565Y-118980448D01*
X92601413Y-118581083D01*
X92695117Y-118110000D01*
X92601413Y-117638917D01*
X92334565Y-117239552D01*
X91935200Y-116972704D01*
X91464117Y-116879000D01*
X91415883Y-116879000D01*
X90944800Y-116972704D01*
X90545435Y-117239552D01*
X90278587Y-117638917D01*
X90184883Y-118110000D01*
X89991000Y-118110000D01*
X89991000Y-115570000D01*
X90184883Y-115570000D01*
X90278587Y-116041083D01*
X90545435Y-116440448D01*
X90944800Y-116707296D01*
X91415883Y-116801000D01*
X91464117Y-116801000D01*
X91935200Y-116707296D01*
X92334565Y-116440448D01*
X92601413Y-116041083D01*
X92695117Y-115570000D01*
X92601413Y-115098917D01*
X92334565Y-114699552D01*
X91935200Y-114432704D01*
X91464117Y-114339000D01*
X91415883Y-114339000D01*
X90944800Y-114432704D01*
X90545435Y-114699552D01*
X90278587Y-115098917D01*
X90184883Y-115570000D01*
X89991000Y-115570000D01*
X89991000Y-113346980D01*
X90250511Y-113346980D01*
X90374755Y-113646964D01*
X90691944Y-114007652D01*
X91123018Y-114219501D01*
X91313000Y-114159193D01*
X91313000Y-113157000D01*
X91567000Y-113157000D01*
X91567000Y-114159193D01*
X91756982Y-114219501D01*
X92188056Y-114007652D01*
X92505245Y-113646964D01*
X92629489Y-113346980D01*
X92568627Y-113157000D01*
X91567000Y-113157000D01*
X91313000Y-113157000D01*
X90311373Y-113157000D01*
X90250511Y-113346980D01*
X89991000Y-113346980D01*
X89991000Y-112713020D01*
X90250511Y-112713020D01*
X90311373Y-112903000D01*
X91313000Y-112903000D01*
X91313000Y-111900807D01*
X91567000Y-111900807D01*
X91567000Y-112903000D01*
X92568627Y-112903000D01*
X92629489Y-112713020D01*
X92505245Y-112413036D01*
X92188056Y-112052348D01*
X91756982Y-111840499D01*
X91567000Y-111900807D01*
X91313000Y-111900807D01*
X91123018Y-111840499D01*
X90691944Y-112052348D01*
X90374755Y-112413036D01*
X90250511Y-112713020D01*
X89991000Y-112713020D01*
X89991000Y-105410000D01*
X90184883Y-105410000D01*
X90278587Y-105881083D01*
X90545435Y-106280448D01*
X90944800Y-106547296D01*
X91415883Y-106641000D01*
X91464117Y-106641000D01*
X91935200Y-106547296D01*
X92334565Y-106280448D01*
X92601413Y-105881083D01*
X92695117Y-105410000D01*
X92601413Y-104938917D01*
X92334565Y-104539552D01*
X91935200Y-104272704D01*
X91464117Y-104179000D01*
X91415883Y-104179000D01*
X90944800Y-104272704D01*
X90545435Y-104539552D01*
X90278587Y-104938917D01*
X90184883Y-105410000D01*
X89991000Y-105410000D01*
X89991000Y-102870000D01*
X90184883Y-102870000D01*
X90278587Y-103341083D01*
X90545435Y-103740448D01*
X90944800Y-104007296D01*
X91415883Y-104101000D01*
X91464117Y-104101000D01*
X91935200Y-104007296D01*
X92334565Y-103740448D01*
X92601413Y-103341083D01*
X92695117Y-102870000D01*
X92601413Y-102398917D01*
X92334565Y-101999552D01*
X91935200Y-101732704D01*
X91464117Y-101639000D01*
X91415883Y-101639000D01*
X90944800Y-101732704D01*
X90545435Y-101999552D01*
X90278587Y-102398917D01*
X90184883Y-102870000D01*
X89991000Y-102870000D01*
X89991000Y-100330000D01*
X90184883Y-100330000D01*
X90278587Y-100801083D01*
X90545435Y-101200448D01*
X90944800Y-101467296D01*
X91415883Y-101561000D01*
X91464117Y-101561000D01*
X91935200Y-101467296D01*
X92334565Y-101200448D01*
X92601413Y-100801083D01*
X92695117Y-100330000D01*
X92601413Y-99858917D01*
X92334565Y-99459552D01*
X91935200Y-99192704D01*
X91464117Y-99099000D01*
X91415883Y-99099000D01*
X90944800Y-99192704D01*
X90545435Y-99459552D01*
X90278587Y-99858917D01*
X90184883Y-100330000D01*
X89991000Y-100330000D01*
X89991000Y-97790000D01*
X90184883Y-97790000D01*
X90278587Y-98261083D01*
X90545435Y-98660448D01*
X90944800Y-98927296D01*
X91415883Y-99021000D01*
X91464117Y-99021000D01*
X91935200Y-98927296D01*
X92334565Y-98660448D01*
X92601413Y-98261083D01*
X92695117Y-97790000D01*
X92601413Y-97318917D01*
X92334565Y-96919552D01*
X91935200Y-96652704D01*
X91464117Y-96559000D01*
X91415883Y-96559000D01*
X90944800Y-96652704D01*
X90545435Y-96919552D01*
X90278587Y-97318917D01*
X90184883Y-97790000D01*
X89991000Y-97790000D01*
X89991000Y-94400000D01*
X90201536Y-94400000D01*
X90201536Y-96100000D01*
X90228103Y-96241190D01*
X90311546Y-96370865D01*
X90438866Y-96457859D01*
X90590000Y-96488464D01*
X92290000Y-96488464D01*
X92431190Y-96461897D01*
X92560865Y-96378454D01*
X92647859Y-96251134D01*
X92678464Y-96100000D01*
X92678464Y-94400000D01*
X92651897Y-94258810D01*
X92568454Y-94129135D01*
X92441134Y-94042141D01*
X92290000Y-94011536D01*
X90590000Y-94011536D01*
X90448810Y-94038103D01*
X90319135Y-94121546D01*
X90232141Y-94248866D01*
X90201536Y-94400000D01*
X89991000Y-94400000D01*
X89991000Y-93166000D01*
X94465920Y-93166000D01*
X93498460Y-94133460D01*
G36*
X116794000Y-105917998D02*
X116712866Y-105917998D01*
X116773005Y-105725880D01*
X116559310Y-105289801D01*
X116195001Y-104968695D01*
X115889118Y-104842007D01*
X115697000Y-104902688D01*
X115697000Y-105918000D01*
X115717000Y-105918000D01*
X115717000Y-106172000D01*
X115697000Y-106172000D01*
X115697000Y-107187312D01*
X115889118Y-107247993D01*
X116195001Y-107121305D01*
X116559310Y-106800199D01*
X116773005Y-106364120D01*
X116712866Y-106172002D01*
X116794000Y-106172002D01*
X116794000Y-108457998D01*
X116712866Y-108457998D01*
X116773005Y-108265880D01*
X116559310Y-107829801D01*
X116195001Y-107508695D01*
X115889118Y-107382007D01*
X115697000Y-107442688D01*
X115697000Y-108458000D01*
X115717000Y-108458000D01*
X115717000Y-108712000D01*
X115697000Y-108712000D01*
X115697000Y-109727312D01*
X115889118Y-109787993D01*
X116195001Y-109661305D01*
X116559310Y-109340199D01*
X116773005Y-108904120D01*
X116712866Y-108712002D01*
X116794000Y-108712002D01*
X116794000Y-118462920D01*
X116268012Y-118988908D01*
X116046288Y-118840757D01*
X115570000Y-118746017D01*
X115093712Y-118840757D01*
X114806000Y-119033000D01*
X114806000Y-109538790D01*
X114944999Y-109661305D01*
X115250882Y-109787993D01*
X115443000Y-109727312D01*
X115443000Y-108712000D01*
X115423000Y-108712000D01*
X115423000Y-108458000D01*
X115443000Y-108458000D01*
X115443000Y-107442688D01*
X115250882Y-107382007D01*
X114944999Y-107508695D01*
X114806000Y-107631210D01*
X114806000Y-106998790D01*
X114944999Y-107121305D01*
X115250882Y-107247993D01*
X115443000Y-107187312D01*
X115443000Y-106172000D01*
X115423000Y-106172000D01*
X115423000Y-105918000D01*
X115443000Y-105918000D01*
X115443000Y-104902688D01*
X115250882Y-104842007D01*
X114944999Y-104968695D01*
X114806000Y-105091210D01*
X114806000Y-104487000D01*
X115093712Y-104679243D01*
X115570000Y-104773983D01*
X116046288Y-104679243D01*
X116450065Y-104409448D01*
X116719860Y-104005671D01*
X116794000Y-103632946D01*
X116794000Y-105917998D01*
X116794000Y-105917998D01*
G37*
X116794000Y-105917998D02*
X116712866Y-105917998D01*
X116773005Y-105725880D01*
X116559310Y-105289801D01*
X116195001Y-104968695D01*
X115889118Y-104842007D01*
X115697000Y-104902688D01*
X115697000Y-105918000D01*
X115717000Y-105918000D01*
X115717000Y-106172000D01*
X115697000Y-106172000D01*
X115697000Y-107187312D01*
X115889118Y-107247993D01*
X116195001Y-107121305D01*
X116559310Y-106800199D01*
X116773005Y-106364120D01*
X116712866Y-106172002D01*
X116794000Y-106172002D01*
X116794000Y-108457998D01*
X116712866Y-108457998D01*
X116773005Y-108265880D01*
X116559310Y-107829801D01*
X116195001Y-107508695D01*
X115889118Y-107382007D01*
X115697000Y-107442688D01*
X115697000Y-108458000D01*
X115717000Y-108458000D01*
X115717000Y-108712000D01*
X115697000Y-108712000D01*
X115697000Y-109727312D01*
X115889118Y-109787993D01*
X116195001Y-109661305D01*
X116559310Y-109340199D01*
X116773005Y-108904120D01*
X116712866Y-108712002D01*
X116794000Y-108712002D01*
X116794000Y-118462920D01*
X116268012Y-118988908D01*
X116046288Y-118840757D01*
X115570000Y-118746017D01*
X115093712Y-118840757D01*
X114806000Y-119033000D01*
X114806000Y-109538790D01*
X114944999Y-109661305D01*
X115250882Y-109787993D01*
X115443000Y-109727312D01*
X115443000Y-108712000D01*
X115423000Y-108712000D01*
X115423000Y-108458000D01*
X115443000Y-108458000D01*
X115443000Y-107442688D01*
X115250882Y-107382007D01*
X114944999Y-107508695D01*
X114806000Y-107631210D01*
X114806000Y-106998790D01*
X114944999Y-107121305D01*
X115250882Y-107247993D01*
X115443000Y-107187312D01*
X115443000Y-106172000D01*
X115423000Y-106172000D01*
X115423000Y-105918000D01*
X115443000Y-105918000D01*
X115443000Y-104902688D01*
X115250882Y-104842007D01*
X114944999Y-104968695D01*
X114806000Y-105091210D01*
X114806000Y-104487000D01*
X115093712Y-104679243D01*
X115570000Y-104773983D01*
X116046288Y-104679243D01*
X116450065Y-104409448D01*
X116719860Y-104005671D01*
X116794000Y-103632946D01*
X116794000Y-105917998D01*
M02*
