G04 #@! TF.FileFunction,Soldermask,Bot*
%FSLAX46Y46*%
G04 Gerber Fmt 4.6, Leading zero omitted, Abs format (unit mm)*
G04 Created by KiCad (PCBNEW 4.0.7-e1-6374~58~ubuntu16.04.1) date Tue Aug 22 04:57:06 2017*
%MOMM*%
%LPD*%
G01*
G04 APERTURE LIST*
%ADD10C,0.100000*%
%ADD11C,0.002000*%
%ADD12R,2.127200X2.127200*%
%ADD13O,2.127200X2.127200*%
%ADD14R,2.100000X2.100000*%
%ADD15O,2.100000X2.100000*%
G04 APERTURE END LIST*
D10*
D11*
G36*
X94646328Y-125608470D02*
X94799449Y-125638098D01*
X94935644Y-125666254D01*
X95046818Y-125691117D01*
X95124872Y-125710866D01*
X95161710Y-125723680D01*
X95162954Y-125724643D01*
X95181112Y-125756504D01*
X95212930Y-125825100D01*
X95253918Y-125919446D01*
X95299586Y-126028556D01*
X95345446Y-126141444D01*
X95387007Y-126247124D01*
X95419780Y-126334611D01*
X95439276Y-126392920D01*
X95442734Y-126409256D01*
X95428887Y-126438221D01*
X95390371Y-126501986D01*
X95331723Y-126593474D01*
X95257481Y-126705608D01*
X95172180Y-126831314D01*
X95171576Y-126832193D01*
X95085290Y-126958656D01*
X95008896Y-127072075D01*
X94947195Y-127165204D01*
X94904991Y-127230792D01*
X94887122Y-127261500D01*
X94900137Y-127289564D01*
X94943903Y-127345672D01*
X95011781Y-127423103D01*
X95097132Y-127515138D01*
X95193314Y-127615056D01*
X95293688Y-127716137D01*
X95391613Y-127811662D01*
X95480451Y-127894911D01*
X95553560Y-127959164D01*
X95604301Y-127997701D01*
X95622565Y-128005789D01*
X95655566Y-127991934D01*
X95723047Y-127953416D01*
X95817627Y-127894805D01*
X95931929Y-127820670D01*
X96055397Y-127737749D01*
X96181209Y-127653000D01*
X96293794Y-127579274D01*
X96385950Y-127521120D01*
X96450472Y-127483083D01*
X96479988Y-127469708D01*
X96514578Y-127479533D01*
X96584968Y-127505966D01*
X96680500Y-127544444D01*
X96790518Y-127590403D01*
X96904363Y-127639280D01*
X97011377Y-127686513D01*
X97100902Y-127727538D01*
X97162280Y-127757791D01*
X97183846Y-127771062D01*
X97192568Y-127798915D01*
X97208805Y-127867522D01*
X97230665Y-127967456D01*
X97256253Y-128089288D01*
X97283678Y-128223592D01*
X97311047Y-128360939D01*
X97336467Y-128491903D01*
X97358045Y-128607056D01*
X97373889Y-128696971D01*
X97382105Y-128752220D01*
X97382834Y-128762194D01*
X97406820Y-128767541D01*
X97472685Y-128771123D01*
X97571287Y-128773079D01*
X97693484Y-128773545D01*
X97830135Y-128772662D01*
X97972098Y-128770566D01*
X98110233Y-128767395D01*
X98235397Y-128763288D01*
X98338450Y-128758383D01*
X98410249Y-128752818D01*
X98441654Y-128746731D01*
X98442167Y-128746194D01*
X98451760Y-128713912D01*
X98468709Y-128639971D01*
X98491207Y-128532934D01*
X98517447Y-128401369D01*
X98542210Y-128272036D01*
X98571810Y-128122990D01*
X98600907Y-127991696D01*
X98627384Y-127886664D01*
X98649123Y-127816402D01*
X98662024Y-127790613D01*
X98697981Y-127769725D01*
X98770727Y-127735670D01*
X98869408Y-127692824D01*
X98983169Y-127645561D01*
X99101157Y-127598256D01*
X99212517Y-127555284D01*
X99306395Y-127521021D01*
X99371936Y-127499840D01*
X99395089Y-127495141D01*
X99426255Y-127509084D01*
X99491693Y-127547699D01*
X99583933Y-127606262D01*
X99695503Y-127680049D01*
X99798948Y-127750513D01*
X99921735Y-127833598D01*
X100032326Y-127905376D01*
X100123032Y-127961097D01*
X100186166Y-127996013D01*
X100212161Y-128005789D01*
X100240816Y-127988580D01*
X100297962Y-127941437D01*
X100376681Y-127871086D01*
X100470057Y-127784253D01*
X100571174Y-127687665D01*
X100673116Y-127588047D01*
X100768965Y-127492126D01*
X100851807Y-127406628D01*
X100914724Y-127338278D01*
X100950801Y-127293804D01*
X100956703Y-127281719D01*
X100942926Y-127254552D01*
X100904779Y-127192849D01*
X100847037Y-127103991D01*
X100774477Y-126995362D01*
X100713484Y-126905763D01*
X100631568Y-126785309D01*
X100559487Y-126677359D01*
X100502430Y-126589837D01*
X100465582Y-126530666D01*
X100454503Y-126510131D01*
X100457412Y-126468072D01*
X100479964Y-126395316D01*
X100517625Y-126306130D01*
X100522734Y-126295437D01*
X100561589Y-126207165D01*
X100586898Y-126133842D01*
X100593915Y-126089565D01*
X100593122Y-126086367D01*
X100568305Y-126071052D01*
X100502864Y-126039056D01*
X100403360Y-125993187D01*
X100276358Y-125936257D01*
X100128420Y-125871075D01*
X99966109Y-125800451D01*
X99795990Y-125727196D01*
X99624624Y-125654118D01*
X99458574Y-125584029D01*
X99304405Y-125519738D01*
X99168679Y-125464055D01*
X99057959Y-125419790D01*
X98978808Y-125389754D01*
X98937789Y-125376756D01*
X98935006Y-125376442D01*
X98913774Y-125395565D01*
X98870510Y-125446630D01*
X98813060Y-125520177D01*
X98787586Y-125554148D01*
X98627800Y-125732056D01*
X98447344Y-125867483D01*
X98251978Y-125960014D01*
X98047461Y-126009233D01*
X97839552Y-126014726D01*
X97634010Y-125976078D01*
X97436595Y-125892873D01*
X97253065Y-125764696D01*
X97157180Y-125671686D01*
X97026241Y-125495636D01*
X96940272Y-125306522D01*
X96896760Y-125110041D01*
X96893193Y-124911888D01*
X96927056Y-124717760D01*
X96995836Y-124533351D01*
X97097020Y-124364358D01*
X97228094Y-124216476D01*
X97386546Y-124095401D01*
X97569861Y-124006829D01*
X97775526Y-123956456D01*
X97918278Y-123946894D01*
X98146942Y-123971027D01*
X98358294Y-124042930D01*
X98550937Y-124161865D01*
X98723474Y-124327091D01*
X98787586Y-124407379D01*
X98848545Y-124487332D01*
X98898490Y-124548627D01*
X98929576Y-124581805D01*
X98935006Y-124585085D01*
X98968796Y-124575373D01*
X99041854Y-124548111D01*
X99147614Y-124506112D01*
X99279514Y-124452187D01*
X99430991Y-124389151D01*
X99595481Y-124319814D01*
X99766421Y-124246989D01*
X99937249Y-124173489D01*
X100101399Y-124102126D01*
X100252310Y-124035712D01*
X100383418Y-123977061D01*
X100488160Y-123928983D01*
X100559973Y-123894292D01*
X100592292Y-123875801D01*
X100593392Y-123874456D01*
X100589219Y-123835746D01*
X100565686Y-123765627D01*
X100527543Y-123677696D01*
X100517245Y-123656468D01*
X100427223Y-123474633D01*
X100691963Y-123087672D01*
X100776073Y-122963596D01*
X100849161Y-122853610D01*
X100906665Y-122764757D01*
X100944024Y-122704079D01*
X100956703Y-122678888D01*
X100939434Y-122654908D01*
X100891321Y-122600990D01*
X100817907Y-122523010D01*
X100724735Y-122426844D01*
X100617347Y-122318370D01*
X100605368Y-122306402D01*
X100494356Y-122197703D01*
X100393324Y-122102715D01*
X100308547Y-122027024D01*
X100246300Y-121976218D01*
X100212859Y-121955883D01*
X100211488Y-121955739D01*
X100177409Y-121969699D01*
X100109334Y-122008414D01*
X100014935Y-122067137D01*
X99901885Y-122141120D01*
X99798948Y-122211015D01*
X99676894Y-122293957D01*
X99567881Y-122365652D01*
X99479379Y-122421378D01*
X99418859Y-122456409D01*
X99395089Y-122466386D01*
X99355716Y-122456912D01*
X99280442Y-122431305D01*
X99180120Y-122393941D01*
X99065606Y-122349194D01*
X98947752Y-122301440D01*
X98837415Y-122255053D01*
X98745446Y-122214409D01*
X98682702Y-122183882D01*
X98662024Y-122170914D01*
X98645809Y-122135872D01*
X98623103Y-122059016D01*
X98596024Y-121948854D01*
X98566689Y-121813896D01*
X98542210Y-121689491D01*
X98514173Y-121543420D01*
X98488285Y-121414337D01*
X98466355Y-121310806D01*
X98450191Y-121241395D01*
X98442167Y-121215334D01*
X98414619Y-121209209D01*
X98345899Y-121203594D01*
X98245149Y-121198627D01*
X98121509Y-121194447D01*
X97984121Y-121191192D01*
X97842128Y-121188999D01*
X97704669Y-121188007D01*
X97580888Y-121188354D01*
X97479924Y-121190177D01*
X97410920Y-121193615D01*
X97383018Y-121198807D01*
X97382834Y-121199334D01*
X97378028Y-121238863D01*
X97364873Y-121316656D01*
X97345260Y-121423287D01*
X97321084Y-121549328D01*
X97294236Y-121685351D01*
X97266609Y-121821929D01*
X97240096Y-121949635D01*
X97216590Y-122059040D01*
X97197983Y-122140719D01*
X97186168Y-122185242D01*
X97183846Y-122190466D01*
X97152182Y-122209007D01*
X97083966Y-122241917D01*
X96989856Y-122284634D01*
X96880510Y-122332595D01*
X96766586Y-122381236D01*
X96658742Y-122425994D01*
X96567635Y-122462306D01*
X96503924Y-122485609D01*
X96479988Y-122491819D01*
X96449675Y-122478007D01*
X96384642Y-122439604D01*
X96292093Y-122381157D01*
X96179233Y-122307214D01*
X96055397Y-122223779D01*
X95928966Y-122138902D01*
X95815058Y-122065091D01*
X95721050Y-122006915D01*
X95654322Y-121968944D01*
X95622565Y-121955739D01*
X95590688Y-121973106D01*
X95531958Y-122020728D01*
X95453015Y-122091884D01*
X95360499Y-122179855D01*
X95261051Y-122277920D01*
X95161310Y-122379361D01*
X95067916Y-122477456D01*
X94987510Y-122565487D01*
X94926731Y-122636732D01*
X94892219Y-122684473D01*
X94887122Y-122700028D01*
X94905248Y-122731147D01*
X94947634Y-122796994D01*
X95009476Y-122890321D01*
X95085973Y-123003879D01*
X95171576Y-123129334D01*
X95256936Y-123255107D01*
X95331269Y-123367357D01*
X95390037Y-123459009D01*
X95428704Y-123522985D01*
X95442733Y-123552208D01*
X95442734Y-123552271D01*
X95433263Y-123588016D01*
X95407846Y-123659473D01*
X95370970Y-123755657D01*
X95327126Y-123865582D01*
X95280803Y-123978263D01*
X95236491Y-124082713D01*
X95198678Y-124167948D01*
X95171854Y-124222982D01*
X95162954Y-124236885D01*
X95131471Y-124248768D01*
X95057824Y-124267799D01*
X94950109Y-124292157D01*
X94816424Y-124320022D01*
X94664867Y-124349572D01*
X94646328Y-124353058D01*
X94153588Y-124445345D01*
X94153588Y-125516183D01*
X94646328Y-125608470D01*
X94646328Y-125608470D01*
G37*
X94646328Y-125608470D02*
X94799449Y-125638098D01*
X94935644Y-125666254D01*
X95046818Y-125691117D01*
X95124872Y-125710866D01*
X95161710Y-125723680D01*
X95162954Y-125724643D01*
X95181112Y-125756504D01*
X95212930Y-125825100D01*
X95253918Y-125919446D01*
X95299586Y-126028556D01*
X95345446Y-126141444D01*
X95387007Y-126247124D01*
X95419780Y-126334611D01*
X95439276Y-126392920D01*
X95442734Y-126409256D01*
X95428887Y-126438221D01*
X95390371Y-126501986D01*
X95331723Y-126593474D01*
X95257481Y-126705608D01*
X95172180Y-126831314D01*
X95171576Y-126832193D01*
X95085290Y-126958656D01*
X95008896Y-127072075D01*
X94947195Y-127165204D01*
X94904991Y-127230792D01*
X94887122Y-127261500D01*
X94900137Y-127289564D01*
X94943903Y-127345672D01*
X95011781Y-127423103D01*
X95097132Y-127515138D01*
X95193314Y-127615056D01*
X95293688Y-127716137D01*
X95391613Y-127811662D01*
X95480451Y-127894911D01*
X95553560Y-127959164D01*
X95604301Y-127997701D01*
X95622565Y-128005789D01*
X95655566Y-127991934D01*
X95723047Y-127953416D01*
X95817627Y-127894805D01*
X95931929Y-127820670D01*
X96055397Y-127737749D01*
X96181209Y-127653000D01*
X96293794Y-127579274D01*
X96385950Y-127521120D01*
X96450472Y-127483083D01*
X96479988Y-127469708D01*
X96514578Y-127479533D01*
X96584968Y-127505966D01*
X96680500Y-127544444D01*
X96790518Y-127590403D01*
X96904363Y-127639280D01*
X97011377Y-127686513D01*
X97100902Y-127727538D01*
X97162280Y-127757791D01*
X97183846Y-127771062D01*
X97192568Y-127798915D01*
X97208805Y-127867522D01*
X97230665Y-127967456D01*
X97256253Y-128089288D01*
X97283678Y-128223592D01*
X97311047Y-128360939D01*
X97336467Y-128491903D01*
X97358045Y-128607056D01*
X97373889Y-128696971D01*
X97382105Y-128752220D01*
X97382834Y-128762194D01*
X97406820Y-128767541D01*
X97472685Y-128771123D01*
X97571287Y-128773079D01*
X97693484Y-128773545D01*
X97830135Y-128772662D01*
X97972098Y-128770566D01*
X98110233Y-128767395D01*
X98235397Y-128763288D01*
X98338450Y-128758383D01*
X98410249Y-128752818D01*
X98441654Y-128746731D01*
X98442167Y-128746194D01*
X98451760Y-128713912D01*
X98468709Y-128639971D01*
X98491207Y-128532934D01*
X98517447Y-128401369D01*
X98542210Y-128272036D01*
X98571810Y-128122990D01*
X98600907Y-127991696D01*
X98627384Y-127886664D01*
X98649123Y-127816402D01*
X98662024Y-127790613D01*
X98697981Y-127769725D01*
X98770727Y-127735670D01*
X98869408Y-127692824D01*
X98983169Y-127645561D01*
X99101157Y-127598256D01*
X99212517Y-127555284D01*
X99306395Y-127521021D01*
X99371936Y-127499840D01*
X99395089Y-127495141D01*
X99426255Y-127509084D01*
X99491693Y-127547699D01*
X99583933Y-127606262D01*
X99695503Y-127680049D01*
X99798948Y-127750513D01*
X99921735Y-127833598D01*
X100032326Y-127905376D01*
X100123032Y-127961097D01*
X100186166Y-127996013D01*
X100212161Y-128005789D01*
X100240816Y-127988580D01*
X100297962Y-127941437D01*
X100376681Y-127871086D01*
X100470057Y-127784253D01*
X100571174Y-127687665D01*
X100673116Y-127588047D01*
X100768965Y-127492126D01*
X100851807Y-127406628D01*
X100914724Y-127338278D01*
X100950801Y-127293804D01*
X100956703Y-127281719D01*
X100942926Y-127254552D01*
X100904779Y-127192849D01*
X100847037Y-127103991D01*
X100774477Y-126995362D01*
X100713484Y-126905763D01*
X100631568Y-126785309D01*
X100559487Y-126677359D01*
X100502430Y-126589837D01*
X100465582Y-126530666D01*
X100454503Y-126510131D01*
X100457412Y-126468072D01*
X100479964Y-126395316D01*
X100517625Y-126306130D01*
X100522734Y-126295437D01*
X100561589Y-126207165D01*
X100586898Y-126133842D01*
X100593915Y-126089565D01*
X100593122Y-126086367D01*
X100568305Y-126071052D01*
X100502864Y-126039056D01*
X100403360Y-125993187D01*
X100276358Y-125936257D01*
X100128420Y-125871075D01*
X99966109Y-125800451D01*
X99795990Y-125727196D01*
X99624624Y-125654118D01*
X99458574Y-125584029D01*
X99304405Y-125519738D01*
X99168679Y-125464055D01*
X99057959Y-125419790D01*
X98978808Y-125389754D01*
X98937789Y-125376756D01*
X98935006Y-125376442D01*
X98913774Y-125395565D01*
X98870510Y-125446630D01*
X98813060Y-125520177D01*
X98787586Y-125554148D01*
X98627800Y-125732056D01*
X98447344Y-125867483D01*
X98251978Y-125960014D01*
X98047461Y-126009233D01*
X97839552Y-126014726D01*
X97634010Y-125976078D01*
X97436595Y-125892873D01*
X97253065Y-125764696D01*
X97157180Y-125671686D01*
X97026241Y-125495636D01*
X96940272Y-125306522D01*
X96896760Y-125110041D01*
X96893193Y-124911888D01*
X96927056Y-124717760D01*
X96995836Y-124533351D01*
X97097020Y-124364358D01*
X97228094Y-124216476D01*
X97386546Y-124095401D01*
X97569861Y-124006829D01*
X97775526Y-123956456D01*
X97918278Y-123946894D01*
X98146942Y-123971027D01*
X98358294Y-124042930D01*
X98550937Y-124161865D01*
X98723474Y-124327091D01*
X98787586Y-124407379D01*
X98848545Y-124487332D01*
X98898490Y-124548627D01*
X98929576Y-124581805D01*
X98935006Y-124585085D01*
X98968796Y-124575373D01*
X99041854Y-124548111D01*
X99147614Y-124506112D01*
X99279514Y-124452187D01*
X99430991Y-124389151D01*
X99595481Y-124319814D01*
X99766421Y-124246989D01*
X99937249Y-124173489D01*
X100101399Y-124102126D01*
X100252310Y-124035712D01*
X100383418Y-123977061D01*
X100488160Y-123928983D01*
X100559973Y-123894292D01*
X100592292Y-123875801D01*
X100593392Y-123874456D01*
X100589219Y-123835746D01*
X100565686Y-123765627D01*
X100527543Y-123677696D01*
X100517245Y-123656468D01*
X100427223Y-123474633D01*
X100691963Y-123087672D01*
X100776073Y-122963596D01*
X100849161Y-122853610D01*
X100906665Y-122764757D01*
X100944024Y-122704079D01*
X100956703Y-122678888D01*
X100939434Y-122654908D01*
X100891321Y-122600990D01*
X100817907Y-122523010D01*
X100724735Y-122426844D01*
X100617347Y-122318370D01*
X100605368Y-122306402D01*
X100494356Y-122197703D01*
X100393324Y-122102715D01*
X100308547Y-122027024D01*
X100246300Y-121976218D01*
X100212859Y-121955883D01*
X100211488Y-121955739D01*
X100177409Y-121969699D01*
X100109334Y-122008414D01*
X100014935Y-122067137D01*
X99901885Y-122141120D01*
X99798948Y-122211015D01*
X99676894Y-122293957D01*
X99567881Y-122365652D01*
X99479379Y-122421378D01*
X99418859Y-122456409D01*
X99395089Y-122466386D01*
X99355716Y-122456912D01*
X99280442Y-122431305D01*
X99180120Y-122393941D01*
X99065606Y-122349194D01*
X98947752Y-122301440D01*
X98837415Y-122255053D01*
X98745446Y-122214409D01*
X98682702Y-122183882D01*
X98662024Y-122170914D01*
X98645809Y-122135872D01*
X98623103Y-122059016D01*
X98596024Y-121948854D01*
X98566689Y-121813896D01*
X98542210Y-121689491D01*
X98514173Y-121543420D01*
X98488285Y-121414337D01*
X98466355Y-121310806D01*
X98450191Y-121241395D01*
X98442167Y-121215334D01*
X98414619Y-121209209D01*
X98345899Y-121203594D01*
X98245149Y-121198627D01*
X98121509Y-121194447D01*
X97984121Y-121191192D01*
X97842128Y-121188999D01*
X97704669Y-121188007D01*
X97580888Y-121188354D01*
X97479924Y-121190177D01*
X97410920Y-121193615D01*
X97383018Y-121198807D01*
X97382834Y-121199334D01*
X97378028Y-121238863D01*
X97364873Y-121316656D01*
X97345260Y-121423287D01*
X97321084Y-121549328D01*
X97294236Y-121685351D01*
X97266609Y-121821929D01*
X97240096Y-121949635D01*
X97216590Y-122059040D01*
X97197983Y-122140719D01*
X97186168Y-122185242D01*
X97183846Y-122190466D01*
X97152182Y-122209007D01*
X97083966Y-122241917D01*
X96989856Y-122284634D01*
X96880510Y-122332595D01*
X96766586Y-122381236D01*
X96658742Y-122425994D01*
X96567635Y-122462306D01*
X96503924Y-122485609D01*
X96479988Y-122491819D01*
X96449675Y-122478007D01*
X96384642Y-122439604D01*
X96292093Y-122381157D01*
X96179233Y-122307214D01*
X96055397Y-122223779D01*
X95928966Y-122138902D01*
X95815058Y-122065091D01*
X95721050Y-122006915D01*
X95654322Y-121968944D01*
X95622565Y-121955739D01*
X95590688Y-121973106D01*
X95531958Y-122020728D01*
X95453015Y-122091884D01*
X95360499Y-122179855D01*
X95261051Y-122277920D01*
X95161310Y-122379361D01*
X95067916Y-122477456D01*
X94987510Y-122565487D01*
X94926731Y-122636732D01*
X94892219Y-122684473D01*
X94887122Y-122700028D01*
X94905248Y-122731147D01*
X94947634Y-122796994D01*
X95009476Y-122890321D01*
X95085973Y-123003879D01*
X95171576Y-123129334D01*
X95256936Y-123255107D01*
X95331269Y-123367357D01*
X95390037Y-123459009D01*
X95428704Y-123522985D01*
X95442733Y-123552208D01*
X95442734Y-123552271D01*
X95433263Y-123588016D01*
X95407846Y-123659473D01*
X95370970Y-123755657D01*
X95327126Y-123865582D01*
X95280803Y-123978263D01*
X95236491Y-124082713D01*
X95198678Y-124167948D01*
X95171854Y-124222982D01*
X95162954Y-124236885D01*
X95131471Y-124248768D01*
X95057824Y-124267799D01*
X94950109Y-124292157D01*
X94816424Y-124320022D01*
X94664867Y-124349572D01*
X94646328Y-124353058D01*
X94153588Y-124445345D01*
X94153588Y-125516183D01*
X94646328Y-125608470D01*
D12*
X113030000Y-98425000D03*
D13*
X115570000Y-98425000D03*
X113030000Y-100965000D03*
X115570000Y-100965000D03*
X113030000Y-103505000D03*
X115570000Y-103505000D03*
X113030000Y-106045000D03*
X115570000Y-106045000D03*
X113030000Y-108585000D03*
X115570000Y-108585000D03*
D14*
X91440000Y-95250000D03*
D15*
X91440000Y-97790000D03*
X91440000Y-100330000D03*
X91440000Y-102870000D03*
X91440000Y-105410000D03*
X91440000Y-107950000D03*
X91440000Y-110490000D03*
X91440000Y-113030000D03*
X91440000Y-115570000D03*
X91440000Y-118110000D03*
X91440000Y-120650000D03*
X91440000Y-123190000D03*
X91440000Y-125730000D03*
X91440000Y-128270000D03*
D14*
X104140000Y-128270000D03*
D15*
X104140000Y-125730000D03*
X104140000Y-123190000D03*
X104140000Y-120650000D03*
X104140000Y-118110000D03*
X104140000Y-115570000D03*
X104140000Y-113030000D03*
X104140000Y-110490000D03*
X104140000Y-107950000D03*
X104140000Y-105410000D03*
X104140000Y-102870000D03*
X104140000Y-100330000D03*
X104140000Y-97790000D03*
X104140000Y-95250000D03*
D12*
X113030000Y-120015000D03*
D13*
X115570000Y-120015000D03*
X113030000Y-122555000D03*
X115570000Y-122555000D03*
X113030000Y-125095000D03*
X115570000Y-125095000D03*
M02*
