G04 #@! TF.FileFunction,Legend,Top*
%FSLAX46Y46*%
G04 Gerber Fmt 4.6, Leading zero omitted, Abs format (unit mm)*
G04 Created by KiCad (PCBNEW 4.0.7-e1-6374~58~ubuntu16.04.1) date Tue Aug 22 04:57:06 2017*
%MOMM*%
%LPD*%
G01*
G04 APERTURE LIST*
%ADD10C,0.100000*%
%ADD11C,0.200000*%
%ADD12C,0.250000*%
%ADD13C,0.300000*%
%ADD14C,0.120000*%
%ADD15C,0.150000*%
G04 APERTURE END LIST*
D10*
D11*
X98367905Y-127570858D02*
X99015524Y-127570858D01*
X99091714Y-127475619D01*
X99129810Y-127380381D01*
X99167905Y-127189905D01*
X99167905Y-126808953D01*
X99129810Y-126618477D01*
X99091714Y-126523238D01*
X99015524Y-126428000D01*
X98367905Y-126428000D01*
X99129810Y-125570858D02*
X99167905Y-125285143D01*
X99167905Y-124808953D01*
X99129810Y-124618477D01*
X99091714Y-124523239D01*
X99015524Y-124428000D01*
X98939333Y-124428000D01*
X98863143Y-124523239D01*
X98825048Y-124618477D01*
X98786952Y-124808953D01*
X98748857Y-125189905D01*
X98710762Y-125380381D01*
X98672667Y-125475620D01*
X98596476Y-125570858D01*
X98520286Y-125570858D01*
X98444095Y-125475620D01*
X98406000Y-125380381D01*
X98367905Y-125189905D01*
X98367905Y-124713715D01*
X98406000Y-124428000D01*
X98748857Y-122904191D02*
X98786952Y-122618477D01*
X98825048Y-122523238D01*
X98901238Y-122428000D01*
X99015524Y-122428000D01*
X99091714Y-122523238D01*
X99129810Y-122618477D01*
X99167905Y-122808953D01*
X99167905Y-123570858D01*
X98367905Y-123570858D01*
X98367905Y-122904191D01*
X98406000Y-122713715D01*
X98444095Y-122618477D01*
X98520286Y-122523238D01*
X98596476Y-122523238D01*
X98672667Y-122618477D01*
X98710762Y-122713715D01*
X98748857Y-122904191D01*
X98748857Y-123570858D01*
X99167905Y-120713715D02*
X98748857Y-120713715D01*
X98672667Y-120808953D01*
X98634571Y-120999429D01*
X98634571Y-121380381D01*
X98672667Y-121570858D01*
X99129810Y-120713715D02*
X99167905Y-120904191D01*
X99167905Y-121380381D01*
X99129810Y-121570858D01*
X99053619Y-121666096D01*
X98977429Y-121666096D01*
X98901238Y-121570858D01*
X98863143Y-121380381D01*
X98863143Y-120904191D01*
X98825048Y-120713715D01*
X99129810Y-119856572D02*
X99167905Y-119666095D01*
X99167905Y-119285143D01*
X99129810Y-119094667D01*
X99053619Y-118999429D01*
X99015524Y-118999429D01*
X98939333Y-119094667D01*
X98901238Y-119285143D01*
X98901238Y-119570857D01*
X98863143Y-119761334D01*
X98786952Y-119856572D01*
X98748857Y-119856572D01*
X98672667Y-119761334D01*
X98634571Y-119570857D01*
X98634571Y-119285143D01*
X98672667Y-119094667D01*
X98634571Y-118142286D02*
X99434571Y-118142286D01*
X98672667Y-118142286D02*
X98634571Y-117951809D01*
X98634571Y-117570857D01*
X98672667Y-117380381D01*
X98710762Y-117285143D01*
X98786952Y-117189905D01*
X99015524Y-117189905D01*
X99091714Y-117285143D01*
X99129810Y-117380381D01*
X99167905Y-117570857D01*
X99167905Y-117951809D01*
X99129810Y-118142286D01*
D12*
X97226381Y-125602572D02*
X96750190Y-126602572D01*
X97226381Y-127316857D02*
X96226381Y-127316857D01*
X96226381Y-126174000D01*
X96274000Y-125888286D01*
X96321619Y-125745429D01*
X96416857Y-125602572D01*
X96559714Y-125602572D01*
X96654952Y-125745429D01*
X96702571Y-125888286D01*
X96750190Y-126174000D01*
X96750190Y-127316857D01*
X96226381Y-124316857D02*
X97035905Y-124316857D01*
X97131143Y-124174000D01*
X97178762Y-124031143D01*
X97226381Y-123745429D01*
X97226381Y-123174000D01*
X97178762Y-122888286D01*
X97131143Y-122745429D01*
X97035905Y-122602572D01*
X96226381Y-122602572D01*
X97226381Y-121174000D02*
X96226381Y-121174000D01*
X96226381Y-120459715D01*
X96274000Y-120031143D01*
X96369238Y-119745429D01*
X96464476Y-119602572D01*
X96654952Y-119459715D01*
X96797810Y-119459715D01*
X96988286Y-119602572D01*
X97083524Y-119745429D01*
X97178762Y-120031143D01*
X97226381Y-120459715D01*
X97226381Y-121174000D01*
X96750190Y-117602572D02*
X97226381Y-117602572D01*
X96226381Y-118602572D02*
X96750190Y-117602572D01*
X96226381Y-116602572D01*
X95274190Y-99923381D02*
X95274190Y-100732905D01*
X95321809Y-100828143D01*
X95369428Y-100875762D01*
X95464666Y-100923381D01*
X95655143Y-100923381D01*
X95750381Y-100875762D01*
X95798000Y-100828143D01*
X95845619Y-100732905D01*
X95845619Y-99923381D01*
X96274190Y-100875762D02*
X96417047Y-100923381D01*
X96655143Y-100923381D01*
X96750381Y-100875762D01*
X96798000Y-100828143D01*
X96845619Y-100732905D01*
X96845619Y-100637667D01*
X96798000Y-100542429D01*
X96750381Y-100494810D01*
X96655143Y-100447190D01*
X96464666Y-100399571D01*
X96369428Y-100351952D01*
X96321809Y-100304333D01*
X96274190Y-100209095D01*
X96274190Y-100113857D01*
X96321809Y-100018619D01*
X96369428Y-99971000D01*
X96464666Y-99923381D01*
X96702762Y-99923381D01*
X96845619Y-99971000D01*
X97607524Y-100399571D02*
X97750381Y-100447190D01*
X97798000Y-100494810D01*
X97845619Y-100590048D01*
X97845619Y-100732905D01*
X97798000Y-100828143D01*
X97750381Y-100875762D01*
X97655143Y-100923381D01*
X97274190Y-100923381D01*
X97274190Y-99923381D01*
X97607524Y-99923381D01*
X97702762Y-99971000D01*
X97750381Y-100018619D01*
X97798000Y-100113857D01*
X97798000Y-100209095D01*
X97750381Y-100304333D01*
X97702762Y-100351952D01*
X97607524Y-100399571D01*
X97274190Y-100399571D01*
X98893238Y-100256714D02*
X99274190Y-100256714D01*
X99036095Y-99923381D02*
X99036095Y-100780524D01*
X99083714Y-100875762D01*
X99178952Y-100923381D01*
X99274190Y-100923381D01*
X99607524Y-100923381D02*
X99607524Y-99923381D01*
X100036096Y-100923381D02*
X100036096Y-100399571D01*
X99988477Y-100304333D01*
X99893239Y-100256714D01*
X99750381Y-100256714D01*
X99655143Y-100304333D01*
X99607524Y-100351952D01*
X100512286Y-100923381D02*
X100512286Y-100256714D01*
X100512286Y-99923381D02*
X100464667Y-99971000D01*
X100512286Y-100018619D01*
X100559905Y-99971000D01*
X100512286Y-99923381D01*
X100512286Y-100018619D01*
X100940857Y-100875762D02*
X101036095Y-100923381D01*
X101226571Y-100923381D01*
X101321810Y-100875762D01*
X101369429Y-100780524D01*
X101369429Y-100732905D01*
X101321810Y-100637667D01*
X101226571Y-100590048D01*
X101083714Y-100590048D01*
X100988476Y-100542429D01*
X100940857Y-100447190D01*
X100940857Y-100399571D01*
X100988476Y-100304333D01*
X101083714Y-100256714D01*
X101226571Y-100256714D01*
X101321810Y-100304333D01*
X95678952Y-102625762D02*
X95774190Y-102673381D01*
X95964666Y-102673381D01*
X96059905Y-102625762D01*
X96107524Y-102530524D01*
X96107524Y-102482905D01*
X96059905Y-102387667D01*
X95964666Y-102340048D01*
X95821809Y-102340048D01*
X95726571Y-102292429D01*
X95678952Y-102197190D01*
X95678952Y-102149571D01*
X95726571Y-102054333D01*
X95821809Y-102006714D01*
X95964666Y-102006714D01*
X96059905Y-102054333D01*
X96536095Y-102673381D02*
X96536095Y-102006714D01*
X96536095Y-101673381D02*
X96488476Y-101721000D01*
X96536095Y-101768619D01*
X96583714Y-101721000D01*
X96536095Y-101673381D01*
X96536095Y-101768619D01*
X97440857Y-102673381D02*
X97440857Y-101673381D01*
X97440857Y-102625762D02*
X97345619Y-102673381D01*
X97155142Y-102673381D01*
X97059904Y-102625762D01*
X97012285Y-102578143D01*
X96964666Y-102482905D01*
X96964666Y-102197190D01*
X97012285Y-102101952D01*
X97059904Y-102054333D01*
X97155142Y-102006714D01*
X97345619Y-102006714D01*
X97440857Y-102054333D01*
X98298000Y-102625762D02*
X98202762Y-102673381D01*
X98012285Y-102673381D01*
X97917047Y-102625762D01*
X97869428Y-102530524D01*
X97869428Y-102149571D01*
X97917047Y-102054333D01*
X98012285Y-102006714D01*
X98202762Y-102006714D01*
X98298000Y-102054333D01*
X98345619Y-102149571D01*
X98345619Y-102244810D01*
X97869428Y-102340048D01*
X99964667Y-102006714D02*
X99964667Y-102673381D01*
X99536095Y-102006714D02*
X99536095Y-102530524D01*
X99583714Y-102625762D01*
X99678952Y-102673381D01*
X99821810Y-102673381D01*
X99917048Y-102625762D01*
X99964667Y-102578143D01*
X100440857Y-102006714D02*
X100440857Y-103006714D01*
X100440857Y-102054333D02*
X100536095Y-102006714D01*
X100726572Y-102006714D01*
X100821810Y-102054333D01*
X100869429Y-102101952D01*
X100917048Y-102197190D01*
X100917048Y-102482905D01*
X100869429Y-102578143D01*
X100821810Y-102625762D01*
X100726572Y-102673381D01*
X100536095Y-102673381D01*
X100440857Y-102625762D01*
D11*
X95758000Y-95250000D02*
X98552000Y-97028000D01*
X93218000Y-95250000D02*
X95758000Y-95250000D01*
X93218000Y-95250000D02*
X94996000Y-96012000D01*
X93218000Y-95250000D02*
X94996000Y-94488000D01*
D13*
X99996572Y-97960571D02*
X99139429Y-97960571D01*
X99568001Y-97960571D02*
X99568001Y-96460571D01*
X99425144Y-96674857D01*
X99282286Y-96817714D01*
X99139429Y-96889143D01*
D14*
X119100000Y-93095000D02*
X119100000Y-113915000D01*
X119100000Y-113915000D02*
X109500000Y-113915000D01*
X109500000Y-113915000D02*
X109500000Y-93095000D01*
X109500000Y-93095000D02*
X119100000Y-93095000D01*
X106742000Y-104416000D02*
X108142000Y-104416000D01*
X108142000Y-104416000D02*
X108142000Y-101616000D01*
X106742000Y-104416000D02*
X106742000Y-101616000D01*
X108142000Y-108944000D02*
X106742000Y-108944000D01*
X106742000Y-108944000D02*
X106742000Y-111744000D01*
X108142000Y-108944000D02*
X108142000Y-111744000D01*
X90110000Y-129600000D02*
X92770000Y-129600000D01*
X90110000Y-96520000D02*
X90110000Y-129600000D01*
X92770000Y-96520000D02*
X92770000Y-129600000D01*
X90110000Y-96520000D02*
X92770000Y-96520000D01*
X90110000Y-95250000D02*
X90110000Y-93920000D01*
X90110000Y-93920000D02*
X91440000Y-93920000D01*
X105470000Y-93920000D02*
X102810000Y-93920000D01*
X105470000Y-127000000D02*
X105470000Y-93920000D01*
X102810000Y-127000000D02*
X102810000Y-93920000D01*
X105470000Y-127000000D02*
X102810000Y-127000000D01*
X105470000Y-128270000D02*
X105470000Y-129600000D01*
X105470000Y-129600000D02*
X104140000Y-129600000D01*
X119100000Y-114685000D02*
X119100000Y-130425000D01*
X119100000Y-130425000D02*
X109500000Y-130425000D01*
X109500000Y-130425000D02*
X109500000Y-114685000D01*
X109500000Y-114685000D02*
X119100000Y-114685000D01*
X101464000Y-105826000D02*
X101464000Y-107026000D01*
X99704000Y-107026000D02*
X99704000Y-105826000D01*
X101464000Y-112176000D02*
X101464000Y-113376000D01*
X99704000Y-113376000D02*
X99704000Y-112176000D01*
X111762381Y-98159285D02*
X111762381Y-98730714D01*
X111762381Y-98445000D02*
X110762381Y-98445000D01*
X110905238Y-98540238D01*
X111000476Y-98635476D01*
X111048095Y-98730714D01*
D15*
X106703905Y-100528381D02*
X106703905Y-99528381D01*
X106942000Y-99528381D01*
X107084858Y-99576000D01*
X107180096Y-99671238D01*
X107227715Y-99766476D01*
X107275334Y-99956952D01*
X107275334Y-100099810D01*
X107227715Y-100290286D01*
X107180096Y-100385524D01*
X107084858Y-100480762D01*
X106942000Y-100528381D01*
X106703905Y-100528381D01*
X108227715Y-100528381D02*
X107656286Y-100528381D01*
X107942000Y-100528381D02*
X107942000Y-99528381D01*
X107846762Y-99671238D01*
X107751524Y-99766476D01*
X107656286Y-99814095D01*
X106703905Y-113736381D02*
X106703905Y-112736381D01*
X106942000Y-112736381D01*
X107084858Y-112784000D01*
X107180096Y-112879238D01*
X107227715Y-112974476D01*
X107275334Y-113164952D01*
X107275334Y-113307810D01*
X107227715Y-113498286D01*
X107180096Y-113593524D01*
X107084858Y-113688762D01*
X106942000Y-113736381D01*
X106703905Y-113736381D01*
X107656286Y-112831619D02*
X107703905Y-112784000D01*
X107799143Y-112736381D01*
X108037239Y-112736381D01*
X108132477Y-112784000D01*
X108180096Y-112831619D01*
X108227715Y-112926857D01*
X108227715Y-113022095D01*
X108180096Y-113164952D01*
X107608667Y-113736381D01*
X108227715Y-113736381D01*
D14*
X111762381Y-119749285D02*
X111762381Y-120320714D01*
X111762381Y-120035000D02*
X110762381Y-120035000D01*
X110905238Y-120130238D01*
X111000476Y-120225476D01*
X111048095Y-120320714D01*
D15*
X99386381Y-106592666D02*
X98910190Y-106926000D01*
X99386381Y-107164095D02*
X98386381Y-107164095D01*
X98386381Y-106783142D01*
X98434000Y-106687904D01*
X98481619Y-106640285D01*
X98576857Y-106592666D01*
X98719714Y-106592666D01*
X98814952Y-106640285D01*
X98862571Y-106687904D01*
X98910190Y-106783142D01*
X98910190Y-107164095D01*
X99386381Y-105640285D02*
X99386381Y-106211714D01*
X99386381Y-105926000D02*
X98386381Y-105926000D01*
X98529238Y-106021238D01*
X98624476Y-106116476D01*
X98672095Y-106211714D01*
X99386381Y-112942666D02*
X98910190Y-113276000D01*
X99386381Y-113514095D02*
X98386381Y-113514095D01*
X98386381Y-113133142D01*
X98434000Y-113037904D01*
X98481619Y-112990285D01*
X98576857Y-112942666D01*
X98719714Y-112942666D01*
X98814952Y-112990285D01*
X98862571Y-113037904D01*
X98910190Y-113133142D01*
X98910190Y-113514095D01*
X98481619Y-112561714D02*
X98434000Y-112514095D01*
X98386381Y-112418857D01*
X98386381Y-112180761D01*
X98434000Y-112085523D01*
X98481619Y-112037904D01*
X98576857Y-111990285D01*
X98672095Y-111990285D01*
X98814952Y-112037904D01*
X99386381Y-112609333D01*
X99386381Y-111990285D01*
M02*
