G04 #@! TF.FileFunction,Legend,Bot*
%FSLAX46Y46*%
G04 Gerber Fmt 4.6, Leading zero omitted, Abs format (unit mm)*
G04 Created by KiCad (PCBNEW 4.0.2+e4-6225~38~ubuntu15.10.1-stable) date Wed 09 Aug 2017 03:20:26 AM EEST*
%MOMM*%
G01*
G04 APERTURE LIST*
%ADD10C,0.100000*%
%ADD11C,0.125000*%
%ADD12C,0.300000*%
%ADD13C,0.150000*%
%ADD14C,0.120000*%
%ADD15C,0.010000*%
G04 APERTURE END LIST*
D10*
D11*
X77366666Y-101461571D02*
X77414285Y-101485381D01*
X77557142Y-101509190D01*
X77652380Y-101509190D01*
X77795238Y-101485381D01*
X77890476Y-101437762D01*
X77938095Y-101390143D01*
X77985714Y-101294905D01*
X77985714Y-101223476D01*
X77938095Y-101128238D01*
X77890476Y-101080619D01*
X77795238Y-101033000D01*
X77652380Y-101009190D01*
X77557142Y-101009190D01*
X77414285Y-101033000D01*
X77366666Y-101056810D01*
X76938095Y-101247286D02*
X76604761Y-101247286D01*
X76461904Y-101509190D02*
X76938095Y-101509190D01*
X76938095Y-101009190D01*
X76461904Y-101009190D01*
X75461904Y-101509190D02*
X75795238Y-101271095D01*
X76033333Y-101509190D02*
X76033333Y-101009190D01*
X75652380Y-101009190D01*
X75557142Y-101033000D01*
X75509523Y-101056810D01*
X75461904Y-101104429D01*
X75461904Y-101175857D01*
X75509523Y-101223476D01*
X75557142Y-101247286D01*
X75652380Y-101271095D01*
X76033333Y-101271095D01*
X75033333Y-101509190D02*
X75033333Y-101009190D01*
X74461904Y-101509190D01*
X74461904Y-101009190D01*
X77223810Y-101834190D02*
X77033333Y-101834190D01*
X76938095Y-101858000D01*
X76842857Y-101905619D01*
X76795238Y-102000857D01*
X76795238Y-102167524D01*
X76842857Y-102262762D01*
X76938095Y-102310381D01*
X77033333Y-102334190D01*
X77223810Y-102334190D01*
X77319048Y-102310381D01*
X77414286Y-102262762D01*
X77461905Y-102167524D01*
X77461905Y-102000857D01*
X77414286Y-101905619D01*
X77319048Y-101858000D01*
X77223810Y-101834190D01*
X76366667Y-102334190D02*
X76366667Y-101834190D01*
X76366667Y-102072286D02*
X75795238Y-102072286D01*
X75795238Y-102334190D02*
X75795238Y-101834190D01*
X74842857Y-102334190D02*
X75319048Y-102334190D01*
X75319048Y-101834190D01*
X77866666Y-102825857D02*
X77628571Y-103159190D01*
X77390475Y-102825857D01*
X77009523Y-103111571D02*
X76961904Y-103135381D01*
X77009523Y-103159190D01*
X77057142Y-103135381D01*
X77009523Y-103111571D01*
X77009523Y-103159190D01*
X76009523Y-103159190D02*
X76580952Y-103159190D01*
X76295238Y-103159190D02*
X76295238Y-102659190D01*
X76390476Y-102730619D01*
X76485714Y-102778238D01*
X76580952Y-102802048D01*
X75580952Y-103111571D02*
X75533333Y-103135381D01*
X75580952Y-103159190D01*
X75628571Y-103135381D01*
X75580952Y-103111571D01*
X75580952Y-103159190D01*
X75152381Y-102706810D02*
X75104762Y-102683000D01*
X75009524Y-102659190D01*
X74771428Y-102659190D01*
X74676190Y-102683000D01*
X74628571Y-102706810D01*
X74580952Y-102754429D01*
X74580952Y-102802048D01*
X74628571Y-102873476D01*
X75200000Y-103159190D01*
X74580952Y-103159190D01*
D12*
X80568285Y-114080857D02*
X81768285Y-113509429D01*
X82625428Y-114080857D02*
X82625428Y-112880857D01*
X81254000Y-112880857D01*
X80911142Y-112938000D01*
X80739714Y-112995143D01*
X80568285Y-113109429D01*
X80568285Y-113280857D01*
X80739714Y-113395143D01*
X80911142Y-113452286D01*
X81254000Y-113509429D01*
X82625428Y-113509429D01*
X79025428Y-112880857D02*
X79025428Y-113852286D01*
X78854000Y-113966571D01*
X78682571Y-114023714D01*
X78339714Y-114080857D01*
X77654000Y-114080857D01*
X77311142Y-114023714D01*
X77139714Y-113966571D01*
X76968285Y-113852286D01*
X76968285Y-112880857D01*
X75253999Y-114080857D02*
X75253999Y-112880857D01*
X74396856Y-112880857D01*
X73882571Y-112938000D01*
X73539713Y-113052286D01*
X73368285Y-113166571D01*
X73196856Y-113395143D01*
X73196856Y-113566571D01*
X73368285Y-113795143D01*
X73539713Y-113909429D01*
X73882571Y-114023714D01*
X74396856Y-114080857D01*
X75253999Y-114080857D01*
X70968285Y-113509429D02*
X70968285Y-114080857D01*
X72168285Y-112880857D02*
X70968285Y-113509429D01*
X69768285Y-112880857D01*
D13*
X79295238Y-120807429D02*
X79628572Y-120521714D01*
X79866667Y-120807429D02*
X79866667Y-120207429D01*
X79485714Y-120207429D01*
X79390476Y-120236000D01*
X79342857Y-120264571D01*
X79295238Y-120321714D01*
X79295238Y-120407429D01*
X79342857Y-120464571D01*
X79390476Y-120493143D01*
X79485714Y-120521714D01*
X79866667Y-120521714D01*
X78485714Y-120778857D02*
X78580952Y-120807429D01*
X78771429Y-120807429D01*
X78866667Y-120778857D01*
X78914286Y-120721714D01*
X78914286Y-120493143D01*
X78866667Y-120436000D01*
X78771429Y-120407429D01*
X78580952Y-120407429D01*
X78485714Y-120436000D01*
X78438095Y-120493143D01*
X78438095Y-120550286D01*
X78914286Y-120607429D01*
X78104762Y-120407429D02*
X77866667Y-120807429D01*
X77628571Y-120407429D01*
X77247619Y-120807429D02*
X77247619Y-120407429D01*
X77247619Y-120207429D02*
X77295238Y-120236000D01*
X77247619Y-120264571D01*
X77200000Y-120236000D01*
X77247619Y-120207429D01*
X77247619Y-120264571D01*
X76819048Y-120778857D02*
X76723810Y-120807429D01*
X76533334Y-120807429D01*
X76438095Y-120778857D01*
X76390476Y-120721714D01*
X76390476Y-120693143D01*
X76438095Y-120636000D01*
X76533334Y-120607429D01*
X76676191Y-120607429D01*
X76771429Y-120578857D01*
X76819048Y-120521714D01*
X76819048Y-120493143D01*
X76771429Y-120436000D01*
X76676191Y-120407429D01*
X76533334Y-120407429D01*
X76438095Y-120436000D01*
X75961905Y-120807429D02*
X75961905Y-120407429D01*
X75961905Y-120207429D02*
X76009524Y-120236000D01*
X75961905Y-120264571D01*
X75914286Y-120236000D01*
X75961905Y-120207429D01*
X75961905Y-120264571D01*
X75342858Y-120807429D02*
X75438096Y-120778857D01*
X75485715Y-120750286D01*
X75533334Y-120693143D01*
X75533334Y-120521714D01*
X75485715Y-120464571D01*
X75438096Y-120436000D01*
X75342858Y-120407429D01*
X75200000Y-120407429D01*
X75104762Y-120436000D01*
X75057143Y-120464571D01*
X75009524Y-120521714D01*
X75009524Y-120693143D01*
X75057143Y-120750286D01*
X75104762Y-120778857D01*
X75200000Y-120807429D01*
X75342858Y-120807429D01*
X74580953Y-120407429D02*
X74580953Y-120807429D01*
X74580953Y-120464571D02*
X74533334Y-120436000D01*
X74438096Y-120407429D01*
X74295238Y-120407429D01*
X74200000Y-120436000D01*
X74152381Y-120493143D01*
X74152381Y-120807429D01*
X72961905Y-120636000D02*
X72485714Y-120636000D01*
X73057143Y-120807429D02*
X72723810Y-120207429D01*
X72390476Y-120807429D01*
X79247619Y-121197429D02*
X79152380Y-121197429D01*
X79057142Y-121226000D01*
X79009523Y-121254571D01*
X78961904Y-121311714D01*
X78914285Y-121426000D01*
X78914285Y-121568857D01*
X78961904Y-121683143D01*
X79009523Y-121740286D01*
X79057142Y-121768857D01*
X79152380Y-121797429D01*
X79247619Y-121797429D01*
X79342857Y-121768857D01*
X79390476Y-121740286D01*
X79438095Y-121683143D01*
X79485714Y-121568857D01*
X79485714Y-121426000D01*
X79438095Y-121311714D01*
X79390476Y-121254571D01*
X79342857Y-121226000D01*
X79247619Y-121197429D01*
X78342857Y-121454571D02*
X78438095Y-121426000D01*
X78485714Y-121397429D01*
X78533333Y-121340286D01*
X78533333Y-121311714D01*
X78485714Y-121254571D01*
X78438095Y-121226000D01*
X78342857Y-121197429D01*
X78152380Y-121197429D01*
X78057142Y-121226000D01*
X78009523Y-121254571D01*
X77961904Y-121311714D01*
X77961904Y-121340286D01*
X78009523Y-121397429D01*
X78057142Y-121426000D01*
X78152380Y-121454571D01*
X78342857Y-121454571D01*
X78438095Y-121483143D01*
X78485714Y-121511714D01*
X78533333Y-121568857D01*
X78533333Y-121683143D01*
X78485714Y-121740286D01*
X78438095Y-121768857D01*
X78342857Y-121797429D01*
X78152380Y-121797429D01*
X78057142Y-121768857D01*
X78009523Y-121740286D01*
X77961904Y-121683143D01*
X77961904Y-121568857D01*
X78009523Y-121511714D01*
X78057142Y-121483143D01*
X78152380Y-121454571D01*
X77533333Y-121568857D02*
X76771428Y-121568857D01*
X76342857Y-121254571D02*
X76295238Y-121226000D01*
X76200000Y-121197429D01*
X75961904Y-121197429D01*
X75866666Y-121226000D01*
X75819047Y-121254571D01*
X75771428Y-121311714D01*
X75771428Y-121368857D01*
X75819047Y-121454571D01*
X76390476Y-121797429D01*
X75771428Y-121797429D01*
X75152381Y-121197429D02*
X75057142Y-121197429D01*
X74961904Y-121226000D01*
X74914285Y-121254571D01*
X74866666Y-121311714D01*
X74819047Y-121426000D01*
X74819047Y-121568857D01*
X74866666Y-121683143D01*
X74914285Y-121740286D01*
X74961904Y-121768857D01*
X75057142Y-121797429D01*
X75152381Y-121797429D01*
X75247619Y-121768857D01*
X75295238Y-121740286D01*
X75342857Y-121683143D01*
X75390476Y-121568857D01*
X75390476Y-121426000D01*
X75342857Y-121311714D01*
X75295238Y-121254571D01*
X75247619Y-121226000D01*
X75152381Y-121197429D01*
X73866666Y-121797429D02*
X74438095Y-121797429D01*
X74152381Y-121797429D02*
X74152381Y-121197429D01*
X74247619Y-121283143D01*
X74342857Y-121340286D01*
X74438095Y-121368857D01*
X73533333Y-121197429D02*
X72866666Y-121197429D01*
X73295238Y-121797429D01*
D14*
X81158000Y-56280000D02*
X81158000Y-57540000D01*
X81158000Y-63100000D02*
X81158000Y-61840000D01*
X77398000Y-56280000D02*
X81158000Y-56280000D01*
X75148000Y-63100000D02*
X81158000Y-63100000D01*
D15*
G36*
X75744809Y-95736268D02*
X75723751Y-95845093D01*
X75703740Y-95941889D01*
X75686070Y-96020902D01*
X75672034Y-96076376D01*
X75662927Y-96102558D01*
X75662243Y-96103442D01*
X75639599Y-96116347D01*
X75590846Y-96138961D01*
X75523793Y-96168091D01*
X75446248Y-96200548D01*
X75366017Y-96233141D01*
X75290908Y-96262679D01*
X75228729Y-96285972D01*
X75187288Y-96299828D01*
X75175678Y-96302285D01*
X75155093Y-96292444D01*
X75109774Y-96265070D01*
X75044752Y-96223389D01*
X74965056Y-96170623D01*
X74875716Y-96109999D01*
X74875091Y-96109570D01*
X74785212Y-96048245D01*
X74704603Y-95993950D01*
X74638416Y-95950099D01*
X74591801Y-95920104D01*
X74569976Y-95907404D01*
X74550031Y-95916654D01*
X74510154Y-95947759D01*
X74455123Y-95996001D01*
X74389713Y-96056661D01*
X74318699Y-96125019D01*
X74246859Y-96196356D01*
X74178968Y-96265953D01*
X74119802Y-96329091D01*
X74074136Y-96381051D01*
X74046748Y-96417113D01*
X74041000Y-96430094D01*
X74050846Y-96453548D01*
X74078222Y-96501508D01*
X74119877Y-96568728D01*
X74172566Y-96649963D01*
X74231500Y-96737714D01*
X74291732Y-96827130D01*
X74344130Y-96907146D01*
X74385461Y-96972642D01*
X74412494Y-97018499D01*
X74422000Y-97039477D01*
X74415017Y-97064060D01*
X74396231Y-97114087D01*
X74368884Y-97181984D01*
X74336220Y-97260175D01*
X74301483Y-97341086D01*
X74267914Y-97417143D01*
X74238757Y-97480769D01*
X74217255Y-97524391D01*
X74207824Y-97539718D01*
X74188028Y-97545918D01*
X74139268Y-97557458D01*
X74068243Y-97572993D01*
X73981656Y-97591179D01*
X73886204Y-97610671D01*
X73788589Y-97630122D01*
X73695511Y-97648188D01*
X73613670Y-97663524D01*
X73549767Y-97674785D01*
X73510501Y-97680624D01*
X73503412Y-97681142D01*
X73499612Y-97698190D01*
X73497066Y-97745001D01*
X73495676Y-97815078D01*
X73495344Y-97901925D01*
X73495972Y-97999045D01*
X73497462Y-98099941D01*
X73499715Y-98198115D01*
X73502634Y-98287071D01*
X73506120Y-98360312D01*
X73510075Y-98411341D01*
X73514402Y-98433660D01*
X73514783Y-98434026D01*
X73537726Y-98440843D01*
X73590277Y-98452889D01*
X73666350Y-98468879D01*
X73759855Y-98487528D01*
X73851774Y-98505128D01*
X73957703Y-98526164D01*
X74051016Y-98546844D01*
X74125664Y-98565662D01*
X74175599Y-98581112D01*
X74193928Y-98590281D01*
X74208774Y-98615836D01*
X74232977Y-98667538D01*
X74263428Y-98737671D01*
X74297019Y-98818523D01*
X74330639Y-98902379D01*
X74361180Y-98981524D01*
X74385531Y-99048244D01*
X74400584Y-99094825D01*
X74403924Y-99111280D01*
X74394015Y-99133430D01*
X74366571Y-99179938D01*
X74324949Y-99245495D01*
X74272508Y-99324789D01*
X74222428Y-99398309D01*
X74163378Y-99485576D01*
X74112364Y-99564174D01*
X74072762Y-99628640D01*
X74047948Y-99673510D01*
X74041000Y-99691985D01*
X74053230Y-99712351D01*
X74086736Y-99752965D01*
X74136735Y-99808912D01*
X74198448Y-99875276D01*
X74267095Y-99947141D01*
X74337895Y-100019592D01*
X74406067Y-100087714D01*
X74466832Y-100146591D01*
X74515409Y-100191307D01*
X74547017Y-100216947D01*
X74555606Y-100221142D01*
X74574914Y-100211351D01*
X74618768Y-100184239D01*
X74681920Y-100143201D01*
X74759125Y-100091631D01*
X74822804Y-100048283D01*
X74908412Y-99990064D01*
X74985134Y-99938835D01*
X75047337Y-99898283D01*
X75089391Y-99872096D01*
X75103985Y-99864221D01*
X75133877Y-99866289D01*
X75185586Y-99882317D01*
X75248972Y-99909083D01*
X75256571Y-99912714D01*
X75319308Y-99940329D01*
X75371419Y-99958316D01*
X75402888Y-99963303D01*
X75405160Y-99962740D01*
X75416045Y-99945102D01*
X75438785Y-99898592D01*
X75471384Y-99827873D01*
X75511846Y-99737611D01*
X75558171Y-99632469D01*
X75608365Y-99517113D01*
X75660429Y-99396206D01*
X75712366Y-99274414D01*
X75762179Y-99156401D01*
X75807872Y-99046830D01*
X75847446Y-98950368D01*
X75878906Y-98871677D01*
X75900253Y-98815424D01*
X75909491Y-98786271D01*
X75909714Y-98784293D01*
X75896123Y-98769203D01*
X75859831Y-98738455D01*
X75807560Y-98697624D01*
X75783416Y-98679520D01*
X75656974Y-98565957D01*
X75560724Y-98437705D01*
X75494961Y-98298855D01*
X75459980Y-98153502D01*
X75456076Y-98005738D01*
X75483544Y-97859657D01*
X75542679Y-97719351D01*
X75633776Y-97588914D01*
X75699880Y-97520767D01*
X75825002Y-97427706D01*
X75959407Y-97366607D01*
X76099049Y-97335683D01*
X76239879Y-97333147D01*
X76377849Y-97357214D01*
X76508911Y-97406097D01*
X76629017Y-97478010D01*
X76734119Y-97571166D01*
X76820168Y-97683780D01*
X76883117Y-97814065D01*
X76918918Y-97960234D01*
X76925714Y-98061690D01*
X76908563Y-98224205D01*
X76857460Y-98374416D01*
X76772931Y-98511330D01*
X76655503Y-98633954D01*
X76598441Y-98679520D01*
X76541617Y-98722844D01*
X76498054Y-98758341D01*
X76474474Y-98780434D01*
X76472142Y-98784293D01*
X76479045Y-98808308D01*
X76498421Y-98860231D01*
X76528270Y-98935397D01*
X76566595Y-99029140D01*
X76611396Y-99136797D01*
X76660675Y-99253702D01*
X76712432Y-99375192D01*
X76764670Y-99496601D01*
X76815389Y-99613265D01*
X76862590Y-99720520D01*
X76904274Y-99813700D01*
X76938444Y-99888142D01*
X76963099Y-99939180D01*
X76976241Y-99962150D01*
X76977197Y-99962932D01*
X77004709Y-99959966D01*
X77054543Y-99943240D01*
X77117037Y-99916132D01*
X77132124Y-99908813D01*
X77261357Y-99844833D01*
X77536376Y-100032988D01*
X77624558Y-100092766D01*
X77702727Y-100144710D01*
X77765876Y-100185579D01*
X77809000Y-100212131D01*
X77826904Y-100221142D01*
X77843947Y-100208869D01*
X77882268Y-100174674D01*
X77937689Y-100122498D01*
X78006035Y-100056279D01*
X78083129Y-99979957D01*
X78091636Y-99971443D01*
X78168889Y-99892546D01*
X78236399Y-99820740D01*
X78290193Y-99760488D01*
X78326302Y-99716248D01*
X78340754Y-99692481D01*
X78340857Y-99691507D01*
X78330935Y-99667287D01*
X78303420Y-99618905D01*
X78261685Y-99551814D01*
X78209104Y-99471467D01*
X78159428Y-99398309D01*
X78100480Y-99311564D01*
X78049525Y-99234086D01*
X78009920Y-99171187D01*
X77985023Y-99128174D01*
X77977932Y-99111280D01*
X77984666Y-99083298D01*
X78002865Y-99029799D01*
X78029420Y-98958499D01*
X78061222Y-98877112D01*
X78095162Y-98793352D01*
X78128130Y-98714933D01*
X78157016Y-98649570D01*
X78178712Y-98604977D01*
X78187928Y-98590281D01*
X78212833Y-98578757D01*
X78267456Y-98562619D01*
X78345750Y-98543373D01*
X78441667Y-98522525D01*
X78530083Y-98505128D01*
X78633897Y-98485201D01*
X78725639Y-98466802D01*
X78799219Y-98451216D01*
X78848551Y-98439728D01*
X78867073Y-98434026D01*
X78871426Y-98414447D01*
X78875417Y-98365606D01*
X78878947Y-98294002D01*
X78881918Y-98206129D01*
X78884231Y-98108486D01*
X78885789Y-98007569D01*
X78886494Y-97909875D01*
X78886247Y-97821902D01*
X78884952Y-97750146D01*
X78882509Y-97701104D01*
X78878819Y-97681273D01*
X78878445Y-97681142D01*
X78850351Y-97677727D01*
X78795062Y-97668377D01*
X78719278Y-97654438D01*
X78629699Y-97637256D01*
X78533025Y-97618174D01*
X78435957Y-97598539D01*
X78345195Y-97579696D01*
X78267439Y-97562990D01*
X78209389Y-97549766D01*
X78177745Y-97541369D01*
X78174033Y-97539718D01*
X78160856Y-97517215D01*
X78137466Y-97468733D01*
X78107106Y-97401847D01*
X78073020Y-97324134D01*
X78038450Y-97243166D01*
X78006640Y-97166519D01*
X77980832Y-97101769D01*
X77964271Y-97056488D01*
X77959857Y-97039477D01*
X77969673Y-97017933D01*
X77996967Y-96971713D01*
X78038506Y-96905937D01*
X78091058Y-96825726D01*
X78150357Y-96737714D01*
X78210680Y-96647858D01*
X78263139Y-96566901D01*
X78304485Y-96500089D01*
X78331472Y-96452664D01*
X78340857Y-96430094D01*
X78328514Y-96407438D01*
X78294668Y-96365698D01*
X78244096Y-96309592D01*
X78181574Y-96243840D01*
X78111878Y-96173160D01*
X78039782Y-96102273D01*
X77970065Y-96035897D01*
X77907500Y-95978751D01*
X77856865Y-95935555D01*
X77822935Y-95911027D01*
X77811880Y-95907404D01*
X77789763Y-95920287D01*
X77742964Y-95950411D01*
X77676636Y-95994363D01*
X77595928Y-96048730D01*
X77506765Y-96109570D01*
X77417377Y-96170236D01*
X77337599Y-96223066D01*
X77272461Y-96264833D01*
X77226993Y-96292314D01*
X77206223Y-96302285D01*
X77206178Y-96302285D01*
X77180774Y-96295555D01*
X77129988Y-96277490D01*
X77061629Y-96251282D01*
X76983504Y-96220121D01*
X76903420Y-96187199D01*
X76829186Y-96155705D01*
X76768608Y-96128831D01*
X76729495Y-96109768D01*
X76719614Y-96103442D01*
X76711168Y-96081066D01*
X76697643Y-96028724D01*
X76680331Y-95952170D01*
X76660527Y-95857158D01*
X76639525Y-95749444D01*
X76637048Y-95736268D01*
X76571458Y-95386071D01*
X75810398Y-95386071D01*
X75744809Y-95736268D01*
X75744809Y-95736268D01*
G37*
X75744809Y-95736268D02*
X75723751Y-95845093D01*
X75703740Y-95941889D01*
X75686070Y-96020902D01*
X75672034Y-96076376D01*
X75662927Y-96102558D01*
X75662243Y-96103442D01*
X75639599Y-96116347D01*
X75590846Y-96138961D01*
X75523793Y-96168091D01*
X75446248Y-96200548D01*
X75366017Y-96233141D01*
X75290908Y-96262679D01*
X75228729Y-96285972D01*
X75187288Y-96299828D01*
X75175678Y-96302285D01*
X75155093Y-96292444D01*
X75109774Y-96265070D01*
X75044752Y-96223389D01*
X74965056Y-96170623D01*
X74875716Y-96109999D01*
X74875091Y-96109570D01*
X74785212Y-96048245D01*
X74704603Y-95993950D01*
X74638416Y-95950099D01*
X74591801Y-95920104D01*
X74569976Y-95907404D01*
X74550031Y-95916654D01*
X74510154Y-95947759D01*
X74455123Y-95996001D01*
X74389713Y-96056661D01*
X74318699Y-96125019D01*
X74246859Y-96196356D01*
X74178968Y-96265953D01*
X74119802Y-96329091D01*
X74074136Y-96381051D01*
X74046748Y-96417113D01*
X74041000Y-96430094D01*
X74050846Y-96453548D01*
X74078222Y-96501508D01*
X74119877Y-96568728D01*
X74172566Y-96649963D01*
X74231500Y-96737714D01*
X74291732Y-96827130D01*
X74344130Y-96907146D01*
X74385461Y-96972642D01*
X74412494Y-97018499D01*
X74422000Y-97039477D01*
X74415017Y-97064060D01*
X74396231Y-97114087D01*
X74368884Y-97181984D01*
X74336220Y-97260175D01*
X74301483Y-97341086D01*
X74267914Y-97417143D01*
X74238757Y-97480769D01*
X74217255Y-97524391D01*
X74207824Y-97539718D01*
X74188028Y-97545918D01*
X74139268Y-97557458D01*
X74068243Y-97572993D01*
X73981656Y-97591179D01*
X73886204Y-97610671D01*
X73788589Y-97630122D01*
X73695511Y-97648188D01*
X73613670Y-97663524D01*
X73549767Y-97674785D01*
X73510501Y-97680624D01*
X73503412Y-97681142D01*
X73499612Y-97698190D01*
X73497066Y-97745001D01*
X73495676Y-97815078D01*
X73495344Y-97901925D01*
X73495972Y-97999045D01*
X73497462Y-98099941D01*
X73499715Y-98198115D01*
X73502634Y-98287071D01*
X73506120Y-98360312D01*
X73510075Y-98411341D01*
X73514402Y-98433660D01*
X73514783Y-98434026D01*
X73537726Y-98440843D01*
X73590277Y-98452889D01*
X73666350Y-98468879D01*
X73759855Y-98487528D01*
X73851774Y-98505128D01*
X73957703Y-98526164D01*
X74051016Y-98546844D01*
X74125664Y-98565662D01*
X74175599Y-98581112D01*
X74193928Y-98590281D01*
X74208774Y-98615836D01*
X74232977Y-98667538D01*
X74263428Y-98737671D01*
X74297019Y-98818523D01*
X74330639Y-98902379D01*
X74361180Y-98981524D01*
X74385531Y-99048244D01*
X74400584Y-99094825D01*
X74403924Y-99111280D01*
X74394015Y-99133430D01*
X74366571Y-99179938D01*
X74324949Y-99245495D01*
X74272508Y-99324789D01*
X74222428Y-99398309D01*
X74163378Y-99485576D01*
X74112364Y-99564174D01*
X74072762Y-99628640D01*
X74047948Y-99673510D01*
X74041000Y-99691985D01*
X74053230Y-99712351D01*
X74086736Y-99752965D01*
X74136735Y-99808912D01*
X74198448Y-99875276D01*
X74267095Y-99947141D01*
X74337895Y-100019592D01*
X74406067Y-100087714D01*
X74466832Y-100146591D01*
X74515409Y-100191307D01*
X74547017Y-100216947D01*
X74555606Y-100221142D01*
X74574914Y-100211351D01*
X74618768Y-100184239D01*
X74681920Y-100143201D01*
X74759125Y-100091631D01*
X74822804Y-100048283D01*
X74908412Y-99990064D01*
X74985134Y-99938835D01*
X75047337Y-99898283D01*
X75089391Y-99872096D01*
X75103985Y-99864221D01*
X75133877Y-99866289D01*
X75185586Y-99882317D01*
X75248972Y-99909083D01*
X75256571Y-99912714D01*
X75319308Y-99940329D01*
X75371419Y-99958316D01*
X75402888Y-99963303D01*
X75405160Y-99962740D01*
X75416045Y-99945102D01*
X75438785Y-99898592D01*
X75471384Y-99827873D01*
X75511846Y-99737611D01*
X75558171Y-99632469D01*
X75608365Y-99517113D01*
X75660429Y-99396206D01*
X75712366Y-99274414D01*
X75762179Y-99156401D01*
X75807872Y-99046830D01*
X75847446Y-98950368D01*
X75878906Y-98871677D01*
X75900253Y-98815424D01*
X75909491Y-98786271D01*
X75909714Y-98784293D01*
X75896123Y-98769203D01*
X75859831Y-98738455D01*
X75807560Y-98697624D01*
X75783416Y-98679520D01*
X75656974Y-98565957D01*
X75560724Y-98437705D01*
X75494961Y-98298855D01*
X75459980Y-98153502D01*
X75456076Y-98005738D01*
X75483544Y-97859657D01*
X75542679Y-97719351D01*
X75633776Y-97588914D01*
X75699880Y-97520767D01*
X75825002Y-97427706D01*
X75959407Y-97366607D01*
X76099049Y-97335683D01*
X76239879Y-97333147D01*
X76377849Y-97357214D01*
X76508911Y-97406097D01*
X76629017Y-97478010D01*
X76734119Y-97571166D01*
X76820168Y-97683780D01*
X76883117Y-97814065D01*
X76918918Y-97960234D01*
X76925714Y-98061690D01*
X76908563Y-98224205D01*
X76857460Y-98374416D01*
X76772931Y-98511330D01*
X76655503Y-98633954D01*
X76598441Y-98679520D01*
X76541617Y-98722844D01*
X76498054Y-98758341D01*
X76474474Y-98780434D01*
X76472142Y-98784293D01*
X76479045Y-98808308D01*
X76498421Y-98860231D01*
X76528270Y-98935397D01*
X76566595Y-99029140D01*
X76611396Y-99136797D01*
X76660675Y-99253702D01*
X76712432Y-99375192D01*
X76764670Y-99496601D01*
X76815389Y-99613265D01*
X76862590Y-99720520D01*
X76904274Y-99813700D01*
X76938444Y-99888142D01*
X76963099Y-99939180D01*
X76976241Y-99962150D01*
X76977197Y-99962932D01*
X77004709Y-99959966D01*
X77054543Y-99943240D01*
X77117037Y-99916132D01*
X77132124Y-99908813D01*
X77261357Y-99844833D01*
X77536376Y-100032988D01*
X77624558Y-100092766D01*
X77702727Y-100144710D01*
X77765876Y-100185579D01*
X77809000Y-100212131D01*
X77826904Y-100221142D01*
X77843947Y-100208869D01*
X77882268Y-100174674D01*
X77937689Y-100122498D01*
X78006035Y-100056279D01*
X78083129Y-99979957D01*
X78091636Y-99971443D01*
X78168889Y-99892546D01*
X78236399Y-99820740D01*
X78290193Y-99760488D01*
X78326302Y-99716248D01*
X78340754Y-99692481D01*
X78340857Y-99691507D01*
X78330935Y-99667287D01*
X78303420Y-99618905D01*
X78261685Y-99551814D01*
X78209104Y-99471467D01*
X78159428Y-99398309D01*
X78100480Y-99311564D01*
X78049525Y-99234086D01*
X78009920Y-99171187D01*
X77985023Y-99128174D01*
X77977932Y-99111280D01*
X77984666Y-99083298D01*
X78002865Y-99029799D01*
X78029420Y-98958499D01*
X78061222Y-98877112D01*
X78095162Y-98793352D01*
X78128130Y-98714933D01*
X78157016Y-98649570D01*
X78178712Y-98604977D01*
X78187928Y-98590281D01*
X78212833Y-98578757D01*
X78267456Y-98562619D01*
X78345750Y-98543373D01*
X78441667Y-98522525D01*
X78530083Y-98505128D01*
X78633897Y-98485201D01*
X78725639Y-98466802D01*
X78799219Y-98451216D01*
X78848551Y-98439728D01*
X78867073Y-98434026D01*
X78871426Y-98414447D01*
X78875417Y-98365606D01*
X78878947Y-98294002D01*
X78881918Y-98206129D01*
X78884231Y-98108486D01*
X78885789Y-98007569D01*
X78886494Y-97909875D01*
X78886247Y-97821902D01*
X78884952Y-97750146D01*
X78882509Y-97701104D01*
X78878819Y-97681273D01*
X78878445Y-97681142D01*
X78850351Y-97677727D01*
X78795062Y-97668377D01*
X78719278Y-97654438D01*
X78629699Y-97637256D01*
X78533025Y-97618174D01*
X78435957Y-97598539D01*
X78345195Y-97579696D01*
X78267439Y-97562990D01*
X78209389Y-97549766D01*
X78177745Y-97541369D01*
X78174033Y-97539718D01*
X78160856Y-97517215D01*
X78137466Y-97468733D01*
X78107106Y-97401847D01*
X78073020Y-97324134D01*
X78038450Y-97243166D01*
X78006640Y-97166519D01*
X77980832Y-97101769D01*
X77964271Y-97056488D01*
X77959857Y-97039477D01*
X77969673Y-97017933D01*
X77996967Y-96971713D01*
X78038506Y-96905937D01*
X78091058Y-96825726D01*
X78150357Y-96737714D01*
X78210680Y-96647858D01*
X78263139Y-96566901D01*
X78304485Y-96500089D01*
X78331472Y-96452664D01*
X78340857Y-96430094D01*
X78328514Y-96407438D01*
X78294668Y-96365698D01*
X78244096Y-96309592D01*
X78181574Y-96243840D01*
X78111878Y-96173160D01*
X78039782Y-96102273D01*
X77970065Y-96035897D01*
X77907500Y-95978751D01*
X77856865Y-95935555D01*
X77822935Y-95911027D01*
X77811880Y-95907404D01*
X77789763Y-95920287D01*
X77742964Y-95950411D01*
X77676636Y-95994363D01*
X77595928Y-96048730D01*
X77506765Y-96109570D01*
X77417377Y-96170236D01*
X77337599Y-96223066D01*
X77272461Y-96264833D01*
X77226993Y-96292314D01*
X77206223Y-96302285D01*
X77206178Y-96302285D01*
X77180774Y-96295555D01*
X77129988Y-96277490D01*
X77061629Y-96251282D01*
X76983504Y-96220121D01*
X76903420Y-96187199D01*
X76829186Y-96155705D01*
X76768608Y-96128831D01*
X76729495Y-96109768D01*
X76719614Y-96103442D01*
X76711168Y-96081066D01*
X76697643Y-96028724D01*
X76680331Y-95952170D01*
X76660527Y-95857158D01*
X76639525Y-95749444D01*
X76637048Y-95736268D01*
X76571458Y-95386071D01*
X75810398Y-95386071D01*
X75744809Y-95736268D01*
D14*
X80049000Y-67810000D02*
X80049000Y-66810000D01*
X81749000Y-66810000D02*
X81749000Y-67810000D01*
X68546000Y-59072000D02*
X68546000Y-63322000D01*
X70646000Y-59072000D02*
X70646000Y-63322000D01*
X68546000Y-59072000D02*
X70646000Y-59072000D01*
X70959000Y-59072000D02*
X70959000Y-63322000D01*
X73059000Y-59072000D02*
X73059000Y-63322000D01*
X70959000Y-59072000D02*
X73059000Y-59072000D01*
X77636000Y-109974000D02*
X77636000Y-108974000D01*
X79336000Y-108974000D02*
X79336000Y-109974000D01*
X72810000Y-109974000D02*
X72810000Y-108974000D01*
X74510000Y-108974000D02*
X74510000Y-109974000D01*
X73803000Y-92047000D02*
X73803000Y-87747000D01*
X73803000Y-87747000D02*
X75803000Y-87747000D01*
X75803000Y-87747000D02*
X75803000Y-92047000D01*
X76724000Y-92047000D02*
X76724000Y-87747000D01*
X76724000Y-87747000D02*
X78724000Y-87747000D01*
X78724000Y-87747000D02*
X78724000Y-92047000D01*
X76800000Y-80400000D02*
X75600000Y-80400000D01*
X75600000Y-82160000D02*
X76800000Y-82160000D01*
X76800000Y-77860000D02*
X75600000Y-77860000D01*
X75600000Y-79620000D02*
X76800000Y-79620000D01*
X76800000Y-82940000D02*
X75600000Y-82940000D01*
X75600000Y-84700000D02*
X76800000Y-84700000D01*
X75600000Y-77080000D02*
X76800000Y-77080000D01*
X76800000Y-75320000D02*
X75600000Y-75320000D01*
D15*
G36*
X76075056Y-68833043D02*
X75951056Y-68833391D01*
X75831088Y-68833938D01*
X75716952Y-68834684D01*
X75610448Y-68835631D01*
X75513376Y-68836778D01*
X75427535Y-68838124D01*
X75354725Y-68839670D01*
X75296747Y-68841416D01*
X75255400Y-68843361D01*
X75232484Y-68845506D01*
X75228450Y-68846700D01*
X75222682Y-68862130D01*
X75218694Y-68895726D01*
X75216411Y-68948499D01*
X75215750Y-69014393D01*
X75216018Y-69081965D01*
X75218088Y-69131256D01*
X75223860Y-69165147D01*
X75235234Y-69186523D01*
X75254110Y-69198268D01*
X75282387Y-69203265D01*
X75321965Y-69204399D01*
X75340938Y-69204416D01*
X75427417Y-69204416D01*
X75427417Y-70694517D01*
X75395199Y-70755763D01*
X75366218Y-70806399D01*
X75324308Y-70872820D01*
X75269898Y-70954394D01*
X75203419Y-71050490D01*
X75125300Y-71160474D01*
X75039599Y-71278750D01*
X74915131Y-71450969D01*
X74801375Y-71612550D01*
X74694919Y-71768624D01*
X74592353Y-71924317D01*
X74490265Y-72084760D01*
X74385244Y-72255080D01*
X74335655Y-72337083D01*
X74289332Y-72414607D01*
X74239570Y-72498790D01*
X74187909Y-72586945D01*
X74135895Y-72676388D01*
X74085068Y-72764432D01*
X74036973Y-72848393D01*
X73993152Y-72925584D01*
X73955148Y-72993321D01*
X73924505Y-73048918D01*
X73902764Y-73089690D01*
X73898888Y-73097276D01*
X73855159Y-73204856D01*
X73825837Y-73322593D01*
X73811521Y-73444955D01*
X73812807Y-73566407D01*
X73830292Y-73681417D01*
X73834158Y-73697041D01*
X73868225Y-73795908D01*
X73916320Y-73889359D01*
X73975682Y-73973429D01*
X74043548Y-74044155D01*
X74110480Y-74093645D01*
X74124769Y-74102551D01*
X74137386Y-74110705D01*
X74149271Y-74118143D01*
X74161365Y-74124895D01*
X74174608Y-74130995D01*
X74189941Y-74136477D01*
X74208303Y-74141372D01*
X74230635Y-74145714D01*
X74257878Y-74149536D01*
X74290971Y-74152870D01*
X74330855Y-74155750D01*
X74378470Y-74158208D01*
X74434757Y-74160278D01*
X74500656Y-74161992D01*
X74577108Y-74163383D01*
X74665051Y-74164485D01*
X74765428Y-74165329D01*
X74879178Y-74165949D01*
X75007242Y-74166378D01*
X75150559Y-74166649D01*
X75310071Y-74166795D01*
X75486717Y-74166848D01*
X75681438Y-74166841D01*
X75895174Y-74166808D01*
X76128865Y-74166781D01*
X76200000Y-74166779D01*
X76435626Y-74166769D01*
X76651027Y-74166733D01*
X76847149Y-74166662D01*
X77024933Y-74166547D01*
X77185322Y-74166379D01*
X77329260Y-74166151D01*
X77457690Y-74165853D01*
X77571555Y-74165475D01*
X77671798Y-74165011D01*
X77759361Y-74164450D01*
X77835189Y-74163785D01*
X77900224Y-74163005D01*
X77955409Y-74162103D01*
X78001687Y-74161071D01*
X78040001Y-74159898D01*
X78071295Y-74158576D01*
X78096511Y-74157097D01*
X78116593Y-74155451D01*
X78132483Y-74153631D01*
X78145125Y-74151627D01*
X78155462Y-74149431D01*
X78158776Y-74148597D01*
X78252013Y-74113512D01*
X78337270Y-74059747D01*
X78412733Y-73988873D01*
X78476586Y-73902459D01*
X78506653Y-73847747D01*
X78539032Y-73776582D01*
X78561663Y-73712598D01*
X78576039Y-73648969D01*
X78583655Y-73578872D01*
X78586005Y-73495481D01*
X78586007Y-73485375D01*
X78580918Y-73371911D01*
X78565372Y-73272121D01*
X78538238Y-73180677D01*
X78505506Y-73106104D01*
X78474281Y-73046245D01*
X78433203Y-72971006D01*
X78383753Y-72882883D01*
X78327409Y-72784373D01*
X78265650Y-72677975D01*
X78199956Y-72566184D01*
X78131806Y-72451499D01*
X78062679Y-72336417D01*
X77994055Y-72223434D01*
X77927412Y-72115049D01*
X77864230Y-72013757D01*
X77805988Y-71922058D01*
X77783542Y-71887291D01*
X77750319Y-71836368D01*
X77717947Y-71787339D01*
X77685114Y-71738332D01*
X77650508Y-71687471D01*
X77612819Y-71632882D01*
X77590705Y-71601253D01*
X77086705Y-71601253D01*
X77084749Y-71626818D01*
X77078592Y-71638409D01*
X77077448Y-71638583D01*
X77070820Y-71644547D01*
X77071952Y-71647268D01*
X77070679Y-71662456D01*
X77058909Y-71685771D01*
X77041116Y-71710377D01*
X77021775Y-71729440D01*
X77015483Y-71733530D01*
X76998867Y-71740129D01*
X76993750Y-71738741D01*
X76987631Y-71739895D01*
X76977119Y-71748952D01*
X76953313Y-71762429D01*
X76935651Y-71765583D01*
X76906321Y-71768640D01*
X76886732Y-71776315D01*
X76882426Y-71786362D01*
X76882787Y-71787011D01*
X76879163Y-71798722D01*
X76863095Y-71815308D01*
X76861918Y-71816247D01*
X76845414Y-71831933D01*
X76840945Y-71842012D01*
X76841208Y-71842346D01*
X76837726Y-71851786D01*
X76821858Y-71867353D01*
X76820041Y-71868805D01*
X76803322Y-71884617D01*
X76798561Y-71894837D01*
X76798875Y-71895263D01*
X76795393Y-71904702D01*
X76779525Y-71920269D01*
X76777708Y-71921721D01*
X76760989Y-71937534D01*
X76756227Y-71947754D01*
X76756541Y-71948180D01*
X76753059Y-71957619D01*
X76737191Y-71973186D01*
X76735375Y-71974638D01*
X76718655Y-71990451D01*
X76713894Y-72000670D01*
X76714208Y-72001096D01*
X76710595Y-72010470D01*
X76694560Y-72026292D01*
X76691255Y-72028960D01*
X76674245Y-72043701D01*
X76669070Y-72051122D01*
X76669753Y-72051333D01*
X76665695Y-72059123D01*
X76650228Y-72080787D01*
X76625285Y-72113770D01*
X76592800Y-72155515D01*
X76554763Y-72203393D01*
X76432833Y-72355454D01*
X76432833Y-72420352D01*
X76431130Y-72457097D01*
X76426489Y-72479840D01*
X76421626Y-72485250D01*
X76415212Y-72491690D01*
X76416766Y-72495522D01*
X76416845Y-72513867D01*
X76403968Y-72541067D01*
X76381166Y-72572109D01*
X76353516Y-72600196D01*
X76315452Y-72633617D01*
X76314907Y-73062038D01*
X76314361Y-73490460D01*
X76341918Y-73523209D01*
X76357891Y-73545944D01*
X76364129Y-73562726D01*
X76363488Y-73565646D01*
X76364931Y-73574749D01*
X76368229Y-73575333D01*
X76376966Y-73584604D01*
X76384861Y-73607493D01*
X76386098Y-73613395D01*
X76387737Y-73643505D01*
X76383881Y-73677158D01*
X76376084Y-73707752D01*
X76365898Y-73728689D01*
X76357701Y-73734083D01*
X76351270Y-73740252D01*
X76352458Y-73743047D01*
X76348914Y-73755223D01*
X76333033Y-73774509D01*
X76309803Y-73795855D01*
X76284212Y-73814212D01*
X76279375Y-73817011D01*
X76250065Y-73825559D01*
X76209227Y-73828593D01*
X76165724Y-73826286D01*
X76128416Y-73818811D01*
X76116069Y-73813838D01*
X76074701Y-73782588D01*
X76039853Y-73738097D01*
X76018996Y-73692293D01*
X76013340Y-73660566D01*
X76013006Y-73626759D01*
X76017290Y-73597311D01*
X76025488Y-73578663D01*
X76031771Y-73575333D01*
X76037644Y-73568821D01*
X76035958Y-73564750D01*
X76037149Y-73555013D01*
X76041250Y-73554166D01*
X76048659Y-73548303D01*
X76047416Y-73544997D01*
X76050081Y-73532028D01*
X76062666Y-73516899D01*
X76067844Y-73511494D01*
X76072090Y-73504223D01*
X76075495Y-73493089D01*
X76078152Y-73476095D01*
X76080154Y-73451247D01*
X76081593Y-73416549D01*
X76082562Y-73370003D01*
X76083153Y-73309616D01*
X76083458Y-73233390D01*
X76083570Y-73139330D01*
X76083583Y-73065369D01*
X76083583Y-72632769D01*
X76046001Y-72599772D01*
X76016901Y-72569878D01*
X75994794Y-72539030D01*
X75982732Y-72512296D01*
X75983234Y-72495522D01*
X75981691Y-72486013D01*
X75977669Y-72485250D01*
X75970754Y-72474896D01*
X75968131Y-72443830D01*
X75968681Y-72413606D01*
X75971606Y-72341963D01*
X75821702Y-72162252D01*
X75778264Y-72109731D01*
X75739964Y-72062564D01*
X75708715Y-72023180D01*
X75686433Y-71994009D01*
X75675031Y-71977479D01*
X75673962Y-71974807D01*
X75668071Y-71963538D01*
X75654958Y-71952027D01*
X75639495Y-71937603D01*
X75614895Y-71910873D01*
X75585070Y-71876196D01*
X75565000Y-71851788D01*
X75530952Y-71811076D01*
X75505829Y-71785057D01*
X75486536Y-71771002D01*
X75469978Y-71766180D01*
X75467860Y-71766089D01*
X75439982Y-71759649D01*
X75422881Y-71748952D01*
X75410018Y-71738451D01*
X75406250Y-71738741D01*
X75398486Y-71739494D01*
X75384517Y-71733530D01*
X75365690Y-71718012D01*
X75346849Y-71694565D01*
X75332467Y-71670022D01*
X75327020Y-71651220D01*
X75328048Y-71647268D01*
X75325684Y-71639022D01*
X75322552Y-71638583D01*
X75315807Y-71629253D01*
X75313331Y-71605182D01*
X75314599Y-71572242D01*
X75319089Y-71536309D01*
X75326275Y-71503258D01*
X75335634Y-71478962D01*
X75336991Y-71476740D01*
X75372231Y-71436189D01*
X75416409Y-71411281D01*
X75473718Y-71399844D01*
X75487171Y-71398980D01*
X75525567Y-71398798D01*
X75548871Y-71402161D01*
X75554417Y-71406718D01*
X75560381Y-71413347D01*
X75563102Y-71412214D01*
X75579873Y-71412991D01*
X75603778Y-71426596D01*
X75629440Y-71448788D01*
X75651481Y-71475320D01*
X75658941Y-71487851D01*
X75673471Y-71529831D01*
X75679628Y-71576498D01*
X75679653Y-71579249D01*
X75683593Y-71619885D01*
X75696851Y-71647844D01*
X75701798Y-71653622D01*
X75715210Y-71672112D01*
X75716966Y-71684158D01*
X75716791Y-71684347D01*
X75717511Y-71691019D01*
X75721179Y-71691500D01*
X75730341Y-71699191D01*
X75750544Y-71720525D01*
X75779582Y-71752891D01*
X75815254Y-71793676D01*
X75855355Y-71840269D01*
X75897682Y-71890059D01*
X75940032Y-71940435D01*
X75980200Y-71988785D01*
X76015984Y-72032498D01*
X76045179Y-72068962D01*
X76065583Y-72095566D01*
X76074992Y-72109699D01*
X76075309Y-72111179D01*
X76080641Y-72120049D01*
X76097588Y-72136725D01*
X76104442Y-72142656D01*
X76123354Y-72161865D01*
X76131141Y-72176632D01*
X76130612Y-72179298D01*
X76130808Y-72188726D01*
X76133230Y-72189380D01*
X76147844Y-72190003D01*
X76176383Y-72191115D01*
X76200592Y-72192026D01*
X76259392Y-72194208D01*
X76475759Y-71923012D01*
X76528045Y-71858031D01*
X76576418Y-71798977D01*
X76619256Y-71747746D01*
X76654937Y-71706237D01*
X76681838Y-71676347D01*
X76698336Y-71659976D01*
X76702708Y-71657480D01*
X76707722Y-71657522D01*
X76705446Y-71654483D01*
X76704406Y-71640253D01*
X76709340Y-71631676D01*
X76716651Y-71612626D01*
X76720352Y-71582677D01*
X76720472Y-71573463D01*
X76725256Y-71534365D01*
X76737826Y-71494654D01*
X76740817Y-71488324D01*
X76759462Y-71461014D01*
X76784157Y-71436151D01*
X76809560Y-71417968D01*
X76830327Y-71410699D01*
X76836898Y-71412214D01*
X76845144Y-71409850D01*
X76845583Y-71406718D01*
X76855507Y-71400976D01*
X76883026Y-71398491D01*
X76912830Y-71398980D01*
X76973279Y-71407975D01*
X77019755Y-71430006D01*
X77056453Y-71467244D01*
X77063010Y-71476740D01*
X77072614Y-71499457D01*
X77080114Y-71531698D01*
X77084986Y-71567588D01*
X77086705Y-71601253D01*
X77590705Y-71601253D01*
X77570734Y-71572691D01*
X77522941Y-71505023D01*
X77468130Y-71428005D01*
X77404989Y-71339761D01*
X77332207Y-71238418D01*
X77248470Y-71122102D01*
X77235516Y-71104125D01*
X77163707Y-71002974D01*
X77102916Y-70914168D01*
X77053741Y-70838635D01*
X77016783Y-70777300D01*
X76992640Y-70731090D01*
X76989030Y-70722859D01*
X76985801Y-70713056D01*
X76983016Y-70699215D01*
X76980642Y-70679837D01*
X76978649Y-70653423D01*
X76977004Y-70618475D01*
X76975676Y-70573495D01*
X76974634Y-70516985D01*
X76973845Y-70447445D01*
X76973278Y-70363378D01*
X76972901Y-70263284D01*
X76972683Y-70145667D01*
X76972592Y-70009026D01*
X76972583Y-69943957D01*
X76972583Y-69204416D01*
X77095771Y-69204416D01*
X77150114Y-69203985D01*
X77187194Y-69202341D01*
X77210901Y-69198959D01*
X77225127Y-69193314D01*
X77233018Y-69185895D01*
X77238767Y-69167921D01*
X77243179Y-69134022D01*
X77246224Y-69088902D01*
X77247874Y-69037268D01*
X77248102Y-68983824D01*
X77246878Y-68933276D01*
X77244176Y-68890330D01*
X77239966Y-68859689D01*
X77235050Y-68846700D01*
X77222418Y-68844451D01*
X77190421Y-68842401D01*
X77140857Y-68840552D01*
X77075527Y-68838902D01*
X76996231Y-68837452D01*
X76904769Y-68836202D01*
X76802939Y-68835151D01*
X76692543Y-68834300D01*
X76575380Y-68833650D01*
X76453250Y-68833199D01*
X76327953Y-68832947D01*
X76201288Y-68832895D01*
X76075056Y-68833043D01*
X76075056Y-68833043D01*
G37*
X76075056Y-68833043D02*
X75951056Y-68833391D01*
X75831088Y-68833938D01*
X75716952Y-68834684D01*
X75610448Y-68835631D01*
X75513376Y-68836778D01*
X75427535Y-68838124D01*
X75354725Y-68839670D01*
X75296747Y-68841416D01*
X75255400Y-68843361D01*
X75232484Y-68845506D01*
X75228450Y-68846700D01*
X75222682Y-68862130D01*
X75218694Y-68895726D01*
X75216411Y-68948499D01*
X75215750Y-69014393D01*
X75216018Y-69081965D01*
X75218088Y-69131256D01*
X75223860Y-69165147D01*
X75235234Y-69186523D01*
X75254110Y-69198268D01*
X75282387Y-69203265D01*
X75321965Y-69204399D01*
X75340938Y-69204416D01*
X75427417Y-69204416D01*
X75427417Y-70694517D01*
X75395199Y-70755763D01*
X75366218Y-70806399D01*
X75324308Y-70872820D01*
X75269898Y-70954394D01*
X75203419Y-71050490D01*
X75125300Y-71160474D01*
X75039599Y-71278750D01*
X74915131Y-71450969D01*
X74801375Y-71612550D01*
X74694919Y-71768624D01*
X74592353Y-71924317D01*
X74490265Y-72084760D01*
X74385244Y-72255080D01*
X74335655Y-72337083D01*
X74289332Y-72414607D01*
X74239570Y-72498790D01*
X74187909Y-72586945D01*
X74135895Y-72676388D01*
X74085068Y-72764432D01*
X74036973Y-72848393D01*
X73993152Y-72925584D01*
X73955148Y-72993321D01*
X73924505Y-73048918D01*
X73902764Y-73089690D01*
X73898888Y-73097276D01*
X73855159Y-73204856D01*
X73825837Y-73322593D01*
X73811521Y-73444955D01*
X73812807Y-73566407D01*
X73830292Y-73681417D01*
X73834158Y-73697041D01*
X73868225Y-73795908D01*
X73916320Y-73889359D01*
X73975682Y-73973429D01*
X74043548Y-74044155D01*
X74110480Y-74093645D01*
X74124769Y-74102551D01*
X74137386Y-74110705D01*
X74149271Y-74118143D01*
X74161365Y-74124895D01*
X74174608Y-74130995D01*
X74189941Y-74136477D01*
X74208303Y-74141372D01*
X74230635Y-74145714D01*
X74257878Y-74149536D01*
X74290971Y-74152870D01*
X74330855Y-74155750D01*
X74378470Y-74158208D01*
X74434757Y-74160278D01*
X74500656Y-74161992D01*
X74577108Y-74163383D01*
X74665051Y-74164485D01*
X74765428Y-74165329D01*
X74879178Y-74165949D01*
X75007242Y-74166378D01*
X75150559Y-74166649D01*
X75310071Y-74166795D01*
X75486717Y-74166848D01*
X75681438Y-74166841D01*
X75895174Y-74166808D01*
X76128865Y-74166781D01*
X76200000Y-74166779D01*
X76435626Y-74166769D01*
X76651027Y-74166733D01*
X76847149Y-74166662D01*
X77024933Y-74166547D01*
X77185322Y-74166379D01*
X77329260Y-74166151D01*
X77457690Y-74165853D01*
X77571555Y-74165475D01*
X77671798Y-74165011D01*
X77759361Y-74164450D01*
X77835189Y-74163785D01*
X77900224Y-74163005D01*
X77955409Y-74162103D01*
X78001687Y-74161071D01*
X78040001Y-74159898D01*
X78071295Y-74158576D01*
X78096511Y-74157097D01*
X78116593Y-74155451D01*
X78132483Y-74153631D01*
X78145125Y-74151627D01*
X78155462Y-74149431D01*
X78158776Y-74148597D01*
X78252013Y-74113512D01*
X78337270Y-74059747D01*
X78412733Y-73988873D01*
X78476586Y-73902459D01*
X78506653Y-73847747D01*
X78539032Y-73776582D01*
X78561663Y-73712598D01*
X78576039Y-73648969D01*
X78583655Y-73578872D01*
X78586005Y-73495481D01*
X78586007Y-73485375D01*
X78580918Y-73371911D01*
X78565372Y-73272121D01*
X78538238Y-73180677D01*
X78505506Y-73106104D01*
X78474281Y-73046245D01*
X78433203Y-72971006D01*
X78383753Y-72882883D01*
X78327409Y-72784373D01*
X78265650Y-72677975D01*
X78199956Y-72566184D01*
X78131806Y-72451499D01*
X78062679Y-72336417D01*
X77994055Y-72223434D01*
X77927412Y-72115049D01*
X77864230Y-72013757D01*
X77805988Y-71922058D01*
X77783542Y-71887291D01*
X77750319Y-71836368D01*
X77717947Y-71787339D01*
X77685114Y-71738332D01*
X77650508Y-71687471D01*
X77612819Y-71632882D01*
X77590705Y-71601253D01*
X77086705Y-71601253D01*
X77084749Y-71626818D01*
X77078592Y-71638409D01*
X77077448Y-71638583D01*
X77070820Y-71644547D01*
X77071952Y-71647268D01*
X77070679Y-71662456D01*
X77058909Y-71685771D01*
X77041116Y-71710377D01*
X77021775Y-71729440D01*
X77015483Y-71733530D01*
X76998867Y-71740129D01*
X76993750Y-71738741D01*
X76987631Y-71739895D01*
X76977119Y-71748952D01*
X76953313Y-71762429D01*
X76935651Y-71765583D01*
X76906321Y-71768640D01*
X76886732Y-71776315D01*
X76882426Y-71786362D01*
X76882787Y-71787011D01*
X76879163Y-71798722D01*
X76863095Y-71815308D01*
X76861918Y-71816247D01*
X76845414Y-71831933D01*
X76840945Y-71842012D01*
X76841208Y-71842346D01*
X76837726Y-71851786D01*
X76821858Y-71867353D01*
X76820041Y-71868805D01*
X76803322Y-71884617D01*
X76798561Y-71894837D01*
X76798875Y-71895263D01*
X76795393Y-71904702D01*
X76779525Y-71920269D01*
X76777708Y-71921721D01*
X76760989Y-71937534D01*
X76756227Y-71947754D01*
X76756541Y-71948180D01*
X76753059Y-71957619D01*
X76737191Y-71973186D01*
X76735375Y-71974638D01*
X76718655Y-71990451D01*
X76713894Y-72000670D01*
X76714208Y-72001096D01*
X76710595Y-72010470D01*
X76694560Y-72026292D01*
X76691255Y-72028960D01*
X76674245Y-72043701D01*
X76669070Y-72051122D01*
X76669753Y-72051333D01*
X76665695Y-72059123D01*
X76650228Y-72080787D01*
X76625285Y-72113770D01*
X76592800Y-72155515D01*
X76554763Y-72203393D01*
X76432833Y-72355454D01*
X76432833Y-72420352D01*
X76431130Y-72457097D01*
X76426489Y-72479840D01*
X76421626Y-72485250D01*
X76415212Y-72491690D01*
X76416766Y-72495522D01*
X76416845Y-72513867D01*
X76403968Y-72541067D01*
X76381166Y-72572109D01*
X76353516Y-72600196D01*
X76315452Y-72633617D01*
X76314907Y-73062038D01*
X76314361Y-73490460D01*
X76341918Y-73523209D01*
X76357891Y-73545944D01*
X76364129Y-73562726D01*
X76363488Y-73565646D01*
X76364931Y-73574749D01*
X76368229Y-73575333D01*
X76376966Y-73584604D01*
X76384861Y-73607493D01*
X76386098Y-73613395D01*
X76387737Y-73643505D01*
X76383881Y-73677158D01*
X76376084Y-73707752D01*
X76365898Y-73728689D01*
X76357701Y-73734083D01*
X76351270Y-73740252D01*
X76352458Y-73743047D01*
X76348914Y-73755223D01*
X76333033Y-73774509D01*
X76309803Y-73795855D01*
X76284212Y-73814212D01*
X76279375Y-73817011D01*
X76250065Y-73825559D01*
X76209227Y-73828593D01*
X76165724Y-73826286D01*
X76128416Y-73818811D01*
X76116069Y-73813838D01*
X76074701Y-73782588D01*
X76039853Y-73738097D01*
X76018996Y-73692293D01*
X76013340Y-73660566D01*
X76013006Y-73626759D01*
X76017290Y-73597311D01*
X76025488Y-73578663D01*
X76031771Y-73575333D01*
X76037644Y-73568821D01*
X76035958Y-73564750D01*
X76037149Y-73555013D01*
X76041250Y-73554166D01*
X76048659Y-73548303D01*
X76047416Y-73544997D01*
X76050081Y-73532028D01*
X76062666Y-73516899D01*
X76067844Y-73511494D01*
X76072090Y-73504223D01*
X76075495Y-73493089D01*
X76078152Y-73476095D01*
X76080154Y-73451247D01*
X76081593Y-73416549D01*
X76082562Y-73370003D01*
X76083153Y-73309616D01*
X76083458Y-73233390D01*
X76083570Y-73139330D01*
X76083583Y-73065369D01*
X76083583Y-72632769D01*
X76046001Y-72599772D01*
X76016901Y-72569878D01*
X75994794Y-72539030D01*
X75982732Y-72512296D01*
X75983234Y-72495522D01*
X75981691Y-72486013D01*
X75977669Y-72485250D01*
X75970754Y-72474896D01*
X75968131Y-72443830D01*
X75968681Y-72413606D01*
X75971606Y-72341963D01*
X75821702Y-72162252D01*
X75778264Y-72109731D01*
X75739964Y-72062564D01*
X75708715Y-72023180D01*
X75686433Y-71994009D01*
X75675031Y-71977479D01*
X75673962Y-71974807D01*
X75668071Y-71963538D01*
X75654958Y-71952027D01*
X75639495Y-71937603D01*
X75614895Y-71910873D01*
X75585070Y-71876196D01*
X75565000Y-71851788D01*
X75530952Y-71811076D01*
X75505829Y-71785057D01*
X75486536Y-71771002D01*
X75469978Y-71766180D01*
X75467860Y-71766089D01*
X75439982Y-71759649D01*
X75422881Y-71748952D01*
X75410018Y-71738451D01*
X75406250Y-71738741D01*
X75398486Y-71739494D01*
X75384517Y-71733530D01*
X75365690Y-71718012D01*
X75346849Y-71694565D01*
X75332467Y-71670022D01*
X75327020Y-71651220D01*
X75328048Y-71647268D01*
X75325684Y-71639022D01*
X75322552Y-71638583D01*
X75315807Y-71629253D01*
X75313331Y-71605182D01*
X75314599Y-71572242D01*
X75319089Y-71536309D01*
X75326275Y-71503258D01*
X75335634Y-71478962D01*
X75336991Y-71476740D01*
X75372231Y-71436189D01*
X75416409Y-71411281D01*
X75473718Y-71399844D01*
X75487171Y-71398980D01*
X75525567Y-71398798D01*
X75548871Y-71402161D01*
X75554417Y-71406718D01*
X75560381Y-71413347D01*
X75563102Y-71412214D01*
X75579873Y-71412991D01*
X75603778Y-71426596D01*
X75629440Y-71448788D01*
X75651481Y-71475320D01*
X75658941Y-71487851D01*
X75673471Y-71529831D01*
X75679628Y-71576498D01*
X75679653Y-71579249D01*
X75683593Y-71619885D01*
X75696851Y-71647844D01*
X75701798Y-71653622D01*
X75715210Y-71672112D01*
X75716966Y-71684158D01*
X75716791Y-71684347D01*
X75717511Y-71691019D01*
X75721179Y-71691500D01*
X75730341Y-71699191D01*
X75750544Y-71720525D01*
X75779582Y-71752891D01*
X75815254Y-71793676D01*
X75855355Y-71840269D01*
X75897682Y-71890059D01*
X75940032Y-71940435D01*
X75980200Y-71988785D01*
X76015984Y-72032498D01*
X76045179Y-72068962D01*
X76065583Y-72095566D01*
X76074992Y-72109699D01*
X76075309Y-72111179D01*
X76080641Y-72120049D01*
X76097588Y-72136725D01*
X76104442Y-72142656D01*
X76123354Y-72161865D01*
X76131141Y-72176632D01*
X76130612Y-72179298D01*
X76130808Y-72188726D01*
X76133230Y-72189380D01*
X76147844Y-72190003D01*
X76176383Y-72191115D01*
X76200592Y-72192026D01*
X76259392Y-72194208D01*
X76475759Y-71923012D01*
X76528045Y-71858031D01*
X76576418Y-71798977D01*
X76619256Y-71747746D01*
X76654937Y-71706237D01*
X76681838Y-71676347D01*
X76698336Y-71659976D01*
X76702708Y-71657480D01*
X76707722Y-71657522D01*
X76705446Y-71654483D01*
X76704406Y-71640253D01*
X76709340Y-71631676D01*
X76716651Y-71612626D01*
X76720352Y-71582677D01*
X76720472Y-71573463D01*
X76725256Y-71534365D01*
X76737826Y-71494654D01*
X76740817Y-71488324D01*
X76759462Y-71461014D01*
X76784157Y-71436151D01*
X76809560Y-71417968D01*
X76830327Y-71410699D01*
X76836898Y-71412214D01*
X76845144Y-71409850D01*
X76845583Y-71406718D01*
X76855507Y-71400976D01*
X76883026Y-71398491D01*
X76912830Y-71398980D01*
X76973279Y-71407975D01*
X77019755Y-71430006D01*
X77056453Y-71467244D01*
X77063010Y-71476740D01*
X77072614Y-71499457D01*
X77080114Y-71531698D01*
X77084986Y-71567588D01*
X77086705Y-71601253D01*
X77590705Y-71601253D01*
X77570734Y-71572691D01*
X77522941Y-71505023D01*
X77468130Y-71428005D01*
X77404989Y-71339761D01*
X77332207Y-71238418D01*
X77248470Y-71122102D01*
X77235516Y-71104125D01*
X77163707Y-71002974D01*
X77102916Y-70914168D01*
X77053741Y-70838635D01*
X77016783Y-70777300D01*
X76992640Y-70731090D01*
X76989030Y-70722859D01*
X76985801Y-70713056D01*
X76983016Y-70699215D01*
X76980642Y-70679837D01*
X76978649Y-70653423D01*
X76977004Y-70618475D01*
X76975676Y-70573495D01*
X76974634Y-70516985D01*
X76973845Y-70447445D01*
X76973278Y-70363378D01*
X76972901Y-70263284D01*
X76972683Y-70145667D01*
X76972592Y-70009026D01*
X76972583Y-69943957D01*
X76972583Y-69204416D01*
X77095771Y-69204416D01*
X77150114Y-69203985D01*
X77187194Y-69202341D01*
X77210901Y-69198959D01*
X77225127Y-69193314D01*
X77233018Y-69185895D01*
X77238767Y-69167921D01*
X77243179Y-69134022D01*
X77246224Y-69088902D01*
X77247874Y-69037268D01*
X77248102Y-68983824D01*
X77246878Y-68933276D01*
X77244176Y-68890330D01*
X77239966Y-68859689D01*
X77235050Y-68846700D01*
X77222418Y-68844451D01*
X77190421Y-68842401D01*
X77140857Y-68840552D01*
X77075527Y-68838902D01*
X76996231Y-68837452D01*
X76904769Y-68836202D01*
X76802939Y-68835151D01*
X76692543Y-68834300D01*
X76575380Y-68833650D01*
X76453250Y-68833199D01*
X76327953Y-68832947D01*
X76201288Y-68832895D01*
X76075056Y-68833043D01*
G36*
X75871917Y-72215375D02*
X75877208Y-72220666D01*
X75882500Y-72215375D01*
X75877208Y-72210083D01*
X75871917Y-72215375D01*
X75871917Y-72215375D01*
G37*
X75871917Y-72215375D02*
X75877208Y-72220666D01*
X75882500Y-72215375D01*
X75877208Y-72210083D01*
X75871917Y-72215375D01*
G36*
X75819000Y-72151875D02*
X75824292Y-72157166D01*
X75829583Y-72151875D01*
X75824292Y-72146583D01*
X75819000Y-72151875D01*
X75819000Y-72151875D01*
G37*
X75819000Y-72151875D02*
X75824292Y-72157166D01*
X75829583Y-72151875D01*
X75824292Y-72146583D01*
X75819000Y-72151875D01*
G36*
X75766083Y-72088375D02*
X75771375Y-72093666D01*
X75776667Y-72088375D01*
X75771375Y-72083083D01*
X75766083Y-72088375D01*
X75766083Y-72088375D01*
G37*
X75766083Y-72088375D02*
X75771375Y-72093666D01*
X75776667Y-72088375D01*
X75771375Y-72083083D01*
X75766083Y-72088375D01*
G36*
X76020083Y-72056625D02*
X76025375Y-72061916D01*
X76030667Y-72056625D01*
X76025375Y-72051333D01*
X76020083Y-72056625D01*
X76020083Y-72056625D01*
G37*
X76020083Y-72056625D02*
X76025375Y-72061916D01*
X76030667Y-72056625D01*
X76025375Y-72051333D01*
X76020083Y-72056625D01*
G36*
X76401083Y-72024875D02*
X76406375Y-72030166D01*
X76411667Y-72024875D01*
X76406375Y-72019583D01*
X76401083Y-72024875D01*
X76401083Y-72024875D01*
G37*
X76401083Y-72024875D02*
X76406375Y-72030166D01*
X76411667Y-72024875D01*
X76406375Y-72019583D01*
X76401083Y-72024875D01*
G36*
X75713167Y-72024875D02*
X75718458Y-72030166D01*
X75723750Y-72024875D01*
X75718458Y-72019583D01*
X75713167Y-72024875D01*
X75713167Y-72024875D01*
G37*
X75713167Y-72024875D02*
X75718458Y-72030166D01*
X75723750Y-72024875D01*
X75718458Y-72019583D01*
X75713167Y-72024875D01*
G36*
X75967167Y-71993125D02*
X75972458Y-71998416D01*
X75977750Y-71993125D01*
X75972458Y-71987833D01*
X75967167Y-71993125D01*
X75967167Y-71993125D01*
G37*
X75967167Y-71993125D02*
X75972458Y-71998416D01*
X75977750Y-71993125D01*
X75972458Y-71987833D01*
X75967167Y-71993125D01*
G36*
X76443417Y-71971958D02*
X76448708Y-71977250D01*
X76454000Y-71971958D01*
X76448708Y-71966666D01*
X76443417Y-71971958D01*
X76443417Y-71971958D01*
G37*
X76443417Y-71971958D02*
X76448708Y-71977250D01*
X76454000Y-71971958D01*
X76448708Y-71966666D01*
X76443417Y-71971958D01*
G36*
X75914250Y-71929625D02*
X75919542Y-71934916D01*
X75924833Y-71929625D01*
X75919542Y-71924333D01*
X75914250Y-71929625D01*
X75914250Y-71929625D01*
G37*
X75914250Y-71929625D02*
X75919542Y-71934916D01*
X75924833Y-71929625D01*
X75919542Y-71924333D01*
X75914250Y-71929625D01*
G36*
X76485750Y-71919041D02*
X76491042Y-71924333D01*
X76496333Y-71919041D01*
X76491042Y-71913750D01*
X76485750Y-71919041D01*
X76485750Y-71919041D01*
G37*
X76485750Y-71919041D02*
X76491042Y-71924333D01*
X76496333Y-71919041D01*
X76491042Y-71913750D01*
X76485750Y-71919041D01*
G36*
X76528083Y-71866125D02*
X76533375Y-71871416D01*
X76538667Y-71866125D01*
X76533375Y-71860833D01*
X76528083Y-71866125D01*
X76528083Y-71866125D01*
G37*
X76528083Y-71866125D02*
X76533375Y-71871416D01*
X76538667Y-71866125D01*
X76533375Y-71860833D01*
X76528083Y-71866125D01*
G36*
X76570417Y-71813208D02*
X76575708Y-71818500D01*
X76581000Y-71813208D01*
X76575708Y-71807916D01*
X76570417Y-71813208D01*
X76570417Y-71813208D01*
G37*
X76570417Y-71813208D02*
X76575708Y-71818500D01*
X76581000Y-71813208D01*
X76575708Y-71807916D01*
X76570417Y-71813208D01*
G36*
X76612750Y-71760291D02*
X76618042Y-71765583D01*
X76623333Y-71760291D01*
X76618042Y-71755000D01*
X76612750Y-71760291D01*
X76612750Y-71760291D01*
G37*
X76612750Y-71760291D02*
X76618042Y-71765583D01*
X76623333Y-71760291D01*
X76618042Y-71755000D01*
X76612750Y-71760291D01*
G36*
X77014917Y-71717958D02*
X77020208Y-71723250D01*
X77025500Y-71717958D01*
X77020208Y-71712666D01*
X77014917Y-71717958D01*
X77014917Y-71717958D01*
G37*
X77014917Y-71717958D02*
X77020208Y-71723250D01*
X77025500Y-71717958D01*
X77020208Y-71712666D01*
X77014917Y-71717958D01*
G36*
X75374500Y-71717958D02*
X75379792Y-71723250D01*
X75385083Y-71717958D01*
X75379792Y-71712666D01*
X75374500Y-71717958D01*
X75374500Y-71717958D01*
G37*
X75374500Y-71717958D02*
X75379792Y-71723250D01*
X75385083Y-71717958D01*
X75379792Y-71712666D01*
X75374500Y-71717958D01*
G36*
X76655083Y-71707375D02*
X76660375Y-71712666D01*
X76665667Y-71707375D01*
X76660375Y-71702083D01*
X76655083Y-71707375D01*
X76655083Y-71707375D01*
G37*
X76655083Y-71707375D02*
X76660375Y-71712666D01*
X76665667Y-71707375D01*
X76660375Y-71702083D01*
X76655083Y-71707375D01*
G36*
X77036083Y-71696791D02*
X77041375Y-71702083D01*
X77046667Y-71696791D01*
X77041375Y-71691500D01*
X77036083Y-71696791D01*
X77036083Y-71696791D01*
G37*
X77036083Y-71696791D02*
X77041375Y-71702083D01*
X77046667Y-71696791D01*
X77041375Y-71691500D01*
X77036083Y-71696791D01*
G36*
X75353333Y-71696791D02*
X75358625Y-71702083D01*
X75363917Y-71696791D01*
X75358625Y-71691500D01*
X75353333Y-71696791D01*
X75353333Y-71696791D01*
G37*
X75353333Y-71696791D02*
X75358625Y-71702083D01*
X75363917Y-71696791D01*
X75358625Y-71691500D01*
X75353333Y-71696791D01*
G36*
X76760917Y-71463958D02*
X76766208Y-71469250D01*
X76771500Y-71463958D01*
X76766208Y-71458666D01*
X76760917Y-71463958D01*
X76760917Y-71463958D01*
G37*
X76760917Y-71463958D02*
X76766208Y-71469250D01*
X76771500Y-71463958D01*
X76766208Y-71458666D01*
X76760917Y-71463958D01*
D13*
X81065666Y-65127143D02*
X81113285Y-65174762D01*
X81256142Y-65222381D01*
X81351380Y-65222381D01*
X81494238Y-65174762D01*
X81589476Y-65079524D01*
X81637095Y-64984286D01*
X81684714Y-64793810D01*
X81684714Y-64650952D01*
X81637095Y-64460476D01*
X81589476Y-64365238D01*
X81494238Y-64270000D01*
X81351380Y-64222381D01*
X81256142Y-64222381D01*
X81113285Y-64270000D01*
X81065666Y-64317619D01*
X80113285Y-65222381D02*
X80684714Y-65222381D01*
X80399000Y-65222381D02*
X80399000Y-64222381D01*
X80494238Y-64365238D01*
X80589476Y-64460476D01*
X80684714Y-64508095D01*
X69762666Y-58523143D02*
X69810285Y-58570762D01*
X69953142Y-58618381D01*
X70048380Y-58618381D01*
X70191238Y-58570762D01*
X70286476Y-58475524D01*
X70334095Y-58380286D01*
X70381714Y-58189810D01*
X70381714Y-58046952D01*
X70334095Y-57856476D01*
X70286476Y-57761238D01*
X70191238Y-57666000D01*
X70048380Y-57618381D01*
X69953142Y-57618381D01*
X69810285Y-57666000D01*
X69762666Y-57713619D01*
X69381714Y-57713619D02*
X69334095Y-57666000D01*
X69238857Y-57618381D01*
X69000761Y-57618381D01*
X68905523Y-57666000D01*
X68857904Y-57713619D01*
X68810285Y-57808857D01*
X68810285Y-57904095D01*
X68857904Y-58046952D01*
X69429333Y-58618381D01*
X68810285Y-58618381D01*
X72175666Y-58523143D02*
X72223285Y-58570762D01*
X72366142Y-58618381D01*
X72461380Y-58618381D01*
X72604238Y-58570762D01*
X72699476Y-58475524D01*
X72747095Y-58380286D01*
X72794714Y-58189810D01*
X72794714Y-58046952D01*
X72747095Y-57856476D01*
X72699476Y-57761238D01*
X72604238Y-57666000D01*
X72461380Y-57618381D01*
X72366142Y-57618381D01*
X72223285Y-57666000D01*
X72175666Y-57713619D01*
X71842333Y-57618381D02*
X71223285Y-57618381D01*
X71556619Y-57999333D01*
X71413761Y-57999333D01*
X71318523Y-58046952D01*
X71270904Y-58094571D01*
X71223285Y-58189810D01*
X71223285Y-58427905D01*
X71270904Y-58523143D01*
X71318523Y-58570762D01*
X71413761Y-58618381D01*
X71699476Y-58618381D01*
X71794714Y-58570762D01*
X71842333Y-58523143D01*
X78652666Y-107418143D02*
X78700285Y-107465762D01*
X78843142Y-107513381D01*
X78938380Y-107513381D01*
X79081238Y-107465762D01*
X79176476Y-107370524D01*
X79224095Y-107275286D01*
X79271714Y-107084810D01*
X79271714Y-106941952D01*
X79224095Y-106751476D01*
X79176476Y-106656238D01*
X79081238Y-106561000D01*
X78938380Y-106513381D01*
X78843142Y-106513381D01*
X78700285Y-106561000D01*
X78652666Y-106608619D01*
X77795523Y-106846714D02*
X77795523Y-107513381D01*
X78033619Y-106465762D02*
X78271714Y-107180048D01*
X77652666Y-107180048D01*
X73826666Y-107418143D02*
X73874285Y-107465762D01*
X74017142Y-107513381D01*
X74112380Y-107513381D01*
X74255238Y-107465762D01*
X74350476Y-107370524D01*
X74398095Y-107275286D01*
X74445714Y-107084810D01*
X74445714Y-106941952D01*
X74398095Y-106751476D01*
X74350476Y-106656238D01*
X74255238Y-106561000D01*
X74112380Y-106513381D01*
X74017142Y-106513381D01*
X73874285Y-106561000D01*
X73826666Y-106608619D01*
X72921904Y-106513381D02*
X73398095Y-106513381D01*
X73445714Y-106989571D01*
X73398095Y-106941952D01*
X73302857Y-106894333D01*
X73064761Y-106894333D01*
X72969523Y-106941952D01*
X72921904Y-106989571D01*
X72874285Y-107084810D01*
X72874285Y-107322905D01*
X72921904Y-107418143D01*
X72969523Y-107465762D01*
X73064761Y-107513381D01*
X73302857Y-107513381D01*
X73398095Y-107465762D01*
X73445714Y-107418143D01*
X75541095Y-87320381D02*
X75541095Y-86320381D01*
X75303000Y-86320381D01*
X75160142Y-86368000D01*
X75064904Y-86463238D01*
X75017285Y-86558476D01*
X74969666Y-86748952D01*
X74969666Y-86891810D01*
X75017285Y-87082286D01*
X75064904Y-87177524D01*
X75160142Y-87272762D01*
X75303000Y-87320381D01*
X75541095Y-87320381D01*
X74017285Y-87320381D02*
X74588714Y-87320381D01*
X74303000Y-87320381D02*
X74303000Y-86320381D01*
X74398238Y-86463238D01*
X74493476Y-86558476D01*
X74588714Y-86606095D01*
X78462095Y-87320381D02*
X78462095Y-86320381D01*
X78224000Y-86320381D01*
X78081142Y-86368000D01*
X77985904Y-86463238D01*
X77938285Y-86558476D01*
X77890666Y-86748952D01*
X77890666Y-86891810D01*
X77938285Y-87082286D01*
X77985904Y-87177524D01*
X78081142Y-87272762D01*
X78224000Y-87320381D01*
X78462095Y-87320381D01*
X77509714Y-86415619D02*
X77462095Y-86368000D01*
X77366857Y-86320381D01*
X77128761Y-86320381D01*
X77033523Y-86368000D01*
X76985904Y-86415619D01*
X76938285Y-86510857D01*
X76938285Y-86606095D01*
X76985904Y-86748952D01*
X77557333Y-87320381D01*
X76938285Y-87320381D01*
X74842666Y-80462381D02*
X75176000Y-79986190D01*
X75414095Y-80462381D02*
X75414095Y-79462381D01*
X75033142Y-79462381D01*
X74937904Y-79510000D01*
X74890285Y-79557619D01*
X74842666Y-79652857D01*
X74842666Y-79795714D01*
X74890285Y-79890952D01*
X74937904Y-79938571D01*
X75033142Y-79986190D01*
X75414095Y-79986190D01*
X73890285Y-80462381D02*
X74461714Y-80462381D01*
X74176000Y-80462381D02*
X74176000Y-79462381D01*
X74271238Y-79605238D01*
X74366476Y-79700476D01*
X74461714Y-79748095D01*
X74842666Y-77922381D02*
X75176000Y-77446190D01*
X75414095Y-77922381D02*
X75414095Y-76922381D01*
X75033142Y-76922381D01*
X74937904Y-76970000D01*
X74890285Y-77017619D01*
X74842666Y-77112857D01*
X74842666Y-77255714D01*
X74890285Y-77350952D01*
X74937904Y-77398571D01*
X75033142Y-77446190D01*
X75414095Y-77446190D01*
X74461714Y-77017619D02*
X74414095Y-76970000D01*
X74318857Y-76922381D01*
X74080761Y-76922381D01*
X73985523Y-76970000D01*
X73937904Y-77017619D01*
X73890285Y-77112857D01*
X73890285Y-77208095D01*
X73937904Y-77350952D01*
X74509333Y-77922381D01*
X73890285Y-77922381D01*
X74842666Y-83002381D02*
X75176000Y-82526190D01*
X75414095Y-83002381D02*
X75414095Y-82002381D01*
X75033142Y-82002381D01*
X74937904Y-82050000D01*
X74890285Y-82097619D01*
X74842666Y-82192857D01*
X74842666Y-82335714D01*
X74890285Y-82430952D01*
X74937904Y-82478571D01*
X75033142Y-82526190D01*
X75414095Y-82526190D01*
X74509333Y-82002381D02*
X73890285Y-82002381D01*
X74223619Y-82383333D01*
X74080761Y-82383333D01*
X73985523Y-82430952D01*
X73937904Y-82478571D01*
X73890285Y-82573810D01*
X73890285Y-82811905D01*
X73937904Y-82907143D01*
X73985523Y-82954762D01*
X74080761Y-83002381D01*
X74366476Y-83002381D01*
X74461714Y-82954762D01*
X74509333Y-82907143D01*
X74842666Y-75382381D02*
X75176000Y-74906190D01*
X75414095Y-75382381D02*
X75414095Y-74382381D01*
X75033142Y-74382381D01*
X74937904Y-74430000D01*
X74890285Y-74477619D01*
X74842666Y-74572857D01*
X74842666Y-74715714D01*
X74890285Y-74810952D01*
X74937904Y-74858571D01*
X75033142Y-74906190D01*
X75414095Y-74906190D01*
X73985523Y-74715714D02*
X73985523Y-75382381D01*
X74223619Y-74334762D02*
X74461714Y-75049048D01*
X73842666Y-75049048D01*
M02*
