G04 #@! TF.FileFunction,Legend,Top*
%FSLAX46Y46*%
G04 Gerber Fmt 4.6, Leading zero omitted, Abs format (unit mm)*
G04 Created by KiCad (PCBNEW 4.0.7-e1-6374~58~ubuntu16.04.1) date Thu Aug 10 00:36:04 2017*
%MOMM*%
%LPD*%
G01*
G04 APERTURE LIST*
%ADD10C,0.100000*%
%ADD11C,0.200000*%
%ADD12C,0.175000*%
%ADD13C,0.250000*%
%ADD14C,0.120000*%
%ADD15C,0.010000*%
G04 APERTURE END LIST*
D10*
D11*
X70927631Y-93980000D02*
G75*
G03X70927631Y-93980000I-1077631J0D01*
G01*
X70927631Y-91440000D02*
G75*
G03X70927631Y-91440000I-1077631J0D01*
G01*
X70927631Y-83820000D02*
G75*
G03X70927631Y-83820000I-1077631J0D01*
G01*
X70927631Y-81280000D02*
G75*
G03X70927631Y-81280000I-1077631J0D01*
G01*
X70927631Y-78740000D02*
G75*
G03X70927631Y-78740000I-1077631J0D01*
G01*
D12*
X80901333Y-107673999D02*
X80201333Y-107973999D01*
X80901333Y-108273999D01*
X80668000Y-108574000D02*
X79968000Y-108574000D01*
X80634667Y-108574000D02*
X80668000Y-108659714D01*
X80668000Y-108831143D01*
X80634667Y-108916857D01*
X80601333Y-108959714D01*
X80534667Y-109002571D01*
X80334667Y-109002571D01*
X80268000Y-108959714D01*
X80234667Y-108916857D01*
X80201333Y-108831143D01*
X80201333Y-108659714D01*
X80234667Y-108574000D01*
X80201333Y-109388286D02*
X80668000Y-109388286D01*
X80534667Y-109388286D02*
X80601333Y-109431143D01*
X80634667Y-109474000D01*
X80668000Y-109559714D01*
X80668000Y-109645429D01*
X80201333Y-110074000D02*
X80234667Y-109988286D01*
X80268000Y-109945429D01*
X80334667Y-109902572D01*
X80534667Y-109902572D01*
X80601333Y-109945429D01*
X80634667Y-109988286D01*
X80668000Y-110074000D01*
X80668000Y-110202572D01*
X80634667Y-110288286D01*
X80601333Y-110331143D01*
X80534667Y-110374000D01*
X80334667Y-110374000D01*
X80268000Y-110331143D01*
X80234667Y-110288286D01*
X80201333Y-110202572D01*
X80201333Y-110074000D01*
X80668000Y-111145429D02*
X80101333Y-111145429D01*
X80034667Y-111102572D01*
X80001333Y-111059715D01*
X79968000Y-110974000D01*
X79968000Y-110845429D01*
X80001333Y-110759715D01*
X80234667Y-111145429D02*
X80201333Y-111059715D01*
X80201333Y-110888286D01*
X80234667Y-110802572D01*
X80268000Y-110759715D01*
X80334667Y-110716858D01*
X80534667Y-110716858D01*
X80601333Y-110759715D01*
X80634667Y-110802572D01*
X80668000Y-110888286D01*
X80668000Y-111059715D01*
X80634667Y-111145429D01*
D11*
X81242001Y-66998905D02*
X80670572Y-66998905D01*
X80613429Y-67379857D01*
X80670572Y-67341762D01*
X80784858Y-67303667D01*
X81070572Y-67303667D01*
X81184858Y-67341762D01*
X81242001Y-67379857D01*
X81299144Y-67456048D01*
X81299144Y-67646524D01*
X81242001Y-67722714D01*
X81184858Y-67760810D01*
X81070572Y-67798905D01*
X80784858Y-67798905D01*
X80670572Y-67760810D01*
X80613429Y-67722714D01*
X81642001Y-66998905D02*
X82042001Y-67798905D01*
X82442001Y-66998905D01*
X83070572Y-66998905D02*
X83184857Y-66998905D01*
X83299143Y-67037000D01*
X83356286Y-67075095D01*
X83413429Y-67151286D01*
X83470572Y-67303667D01*
X83470572Y-67494143D01*
X83413429Y-67646524D01*
X83356286Y-67722714D01*
X83299143Y-67760810D01*
X83184857Y-67798905D01*
X83070572Y-67798905D01*
X82956286Y-67760810D01*
X82899143Y-67722714D01*
X82842000Y-67646524D01*
X82784857Y-67494143D01*
X82784857Y-67303667D01*
X82842000Y-67151286D01*
X82899143Y-67075095D01*
X82956286Y-67037000D01*
X83070572Y-66998905D01*
X68745287Y-66998905D02*
X69488144Y-66998905D01*
X69088144Y-67303667D01*
X69259572Y-67303667D01*
X69373858Y-67341762D01*
X69431001Y-67379857D01*
X69488144Y-67456048D01*
X69488144Y-67646524D01*
X69431001Y-67722714D01*
X69373858Y-67760810D01*
X69259572Y-67798905D01*
X68916715Y-67798905D01*
X68802429Y-67760810D01*
X68745287Y-67722714D01*
X69831001Y-66998905D02*
X70231001Y-67798905D01*
X70631001Y-66998905D01*
X70916715Y-66998905D02*
X71659572Y-66998905D01*
X71259572Y-67303667D01*
X71431000Y-67303667D01*
X71545286Y-67341762D01*
X71602429Y-67379857D01*
X71659572Y-67456048D01*
X71659572Y-67646524D01*
X71602429Y-67722714D01*
X71545286Y-67760810D01*
X71431000Y-67798905D01*
X71088143Y-67798905D01*
X70973857Y-67760810D01*
X70916715Y-67722714D01*
D10*
X74749048Y-91590001D02*
X75015714Y-91590001D01*
X74939524Y-91590001D02*
X74977619Y-91647144D01*
X74996667Y-91704287D01*
X75015714Y-91818573D01*
X75015714Y-91932858D01*
X75015714Y-92847144D02*
X74749048Y-92847144D01*
X75015714Y-92332858D02*
X74806190Y-92332858D01*
X74768095Y-92390001D01*
X74749048Y-92504287D01*
X74749048Y-92675715D01*
X74768095Y-92790001D01*
X74787143Y-92847144D01*
X74749048Y-93932858D02*
X75149048Y-93932858D01*
X74768095Y-93932858D02*
X74749048Y-93818572D01*
X74749048Y-93590001D01*
X74768095Y-93475715D01*
X74787143Y-93418572D01*
X74825238Y-93361429D01*
X74939524Y-93361429D01*
X74977619Y-93418572D01*
X74996667Y-93475715D01*
X75015714Y-93590001D01*
X75015714Y-93818572D01*
X74996667Y-93932858D01*
X75015714Y-94390001D02*
X74749048Y-94675715D01*
X75015714Y-94961429D02*
X74749048Y-94675715D01*
X74653810Y-94561429D01*
X74634762Y-94504286D01*
X74615714Y-94390001D01*
X74787143Y-95418572D02*
X74768095Y-95475715D01*
X74749048Y-95418572D01*
X74768095Y-95361429D01*
X74787143Y-95418572D01*
X74749048Y-95418572D01*
X74768095Y-96504287D02*
X74749048Y-96390001D01*
X74749048Y-96161430D01*
X74768095Y-96047144D01*
X74787143Y-95990001D01*
X74825238Y-95932858D01*
X74939524Y-95932858D01*
X74977619Y-95990001D01*
X74996667Y-96047144D01*
X75015714Y-96161430D01*
X75015714Y-96390001D01*
X74996667Y-96504287D01*
X74749048Y-97018572D02*
X75015714Y-97018572D01*
X74939524Y-97018572D02*
X74977619Y-97075715D01*
X74996667Y-97132858D01*
X75015714Y-97247144D01*
X75015714Y-97361429D01*
X74749048Y-98275715D02*
X74958571Y-98275715D01*
X74996667Y-98218572D01*
X75015714Y-98104286D01*
X75015714Y-97875715D01*
X74996667Y-97761429D01*
X74768095Y-98275715D02*
X74749048Y-98161429D01*
X74749048Y-97875715D01*
X74768095Y-97761429D01*
X74806190Y-97704286D01*
X74844286Y-97704286D01*
X74882381Y-97761429D01*
X74901429Y-97875715D01*
X74901429Y-98161429D01*
X74920476Y-98275715D01*
X75015714Y-98847143D02*
X74615714Y-98847143D01*
X74996667Y-98847143D02*
X75015714Y-98961429D01*
X75015714Y-99190000D01*
X74996667Y-99304286D01*
X74977619Y-99361429D01*
X74939524Y-99418572D01*
X74825238Y-99418572D01*
X74787143Y-99361429D01*
X74768095Y-99304286D01*
X74749048Y-99190000D01*
X74749048Y-98961429D01*
X74768095Y-98847143D01*
X74749048Y-100104286D02*
X74768095Y-99990000D01*
X74806190Y-99932857D01*
X75149048Y-99932857D01*
X74749048Y-101075714D02*
X74958571Y-101075714D01*
X74996667Y-101018571D01*
X75015714Y-100904285D01*
X75015714Y-100675714D01*
X74996667Y-100561428D01*
X74768095Y-101075714D02*
X74749048Y-100961428D01*
X74749048Y-100675714D01*
X74768095Y-100561428D01*
X74806190Y-100504285D01*
X74844286Y-100504285D01*
X74882381Y-100561428D01*
X74901429Y-100675714D01*
X74901429Y-100961428D01*
X74920476Y-101075714D01*
X74749048Y-101647142D02*
X75149048Y-101647142D01*
X74996667Y-101647142D02*
X75015714Y-101761428D01*
X75015714Y-101989999D01*
X74996667Y-102104285D01*
X74977619Y-102161428D01*
X74939524Y-102218571D01*
X74825238Y-102218571D01*
X74787143Y-102161428D01*
X74768095Y-102104285D01*
X74749048Y-101989999D01*
X74749048Y-101761428D01*
X74768095Y-101647142D01*
X74787143Y-102732856D02*
X74768095Y-102789999D01*
X74749048Y-102732856D01*
X74768095Y-102675713D01*
X74787143Y-102732856D01*
X74749048Y-102732856D01*
X75015714Y-103132857D02*
X75015714Y-103590000D01*
X74749048Y-103304285D02*
X75091905Y-103304285D01*
X75130000Y-103361428D01*
X75149048Y-103475714D01*
X75149048Y-103590000D01*
X74749048Y-103989999D02*
X75015714Y-103989999D01*
X75149048Y-103989999D02*
X75130000Y-103932856D01*
X75110952Y-103989999D01*
X75130000Y-104047142D01*
X75149048Y-103989999D01*
X75110952Y-103989999D01*
D13*
X76255619Y-94122571D02*
X76731810Y-93122571D01*
X76255619Y-92408286D02*
X77255619Y-92408286D01*
X77255619Y-93551143D01*
X77208000Y-93836857D01*
X77160381Y-93979714D01*
X77065143Y-94122571D01*
X76922286Y-94122571D01*
X76827048Y-93979714D01*
X76779429Y-93836857D01*
X76731810Y-93551143D01*
X76731810Y-92408286D01*
X77255619Y-95408286D02*
X76446095Y-95408286D01*
X76350857Y-95551143D01*
X76303238Y-95694000D01*
X76255619Y-95979714D01*
X76255619Y-96551143D01*
X76303238Y-96836857D01*
X76350857Y-96979714D01*
X76446095Y-97122571D01*
X77255619Y-97122571D01*
X76255619Y-98551143D02*
X77255619Y-98551143D01*
X77255619Y-99265428D01*
X77208000Y-99694000D01*
X77112762Y-99979714D01*
X77017524Y-100122571D01*
X76827048Y-100265428D01*
X76684190Y-100265428D01*
X76493714Y-100122571D01*
X76398476Y-99979714D01*
X76303238Y-99694000D01*
X76255619Y-99265428D01*
X76255619Y-98551143D01*
X76731810Y-102122571D02*
X76255619Y-102122571D01*
X77255619Y-101122571D02*
X76731810Y-102122571D01*
X77255619Y-103122571D01*
D14*
X84070000Y-122402000D02*
X68330000Y-122402000D01*
X68330000Y-122402000D02*
X68330000Y-112802000D01*
X68330000Y-112802000D02*
X84070000Y-112802000D01*
X84070000Y-112802000D02*
X84070000Y-122402000D01*
X75200000Y-69730000D02*
X73430000Y-69730000D01*
X73430000Y-69730000D02*
X73430000Y-105530000D01*
X73430000Y-105530000D02*
X78970000Y-105530000D01*
X78970000Y-105530000D02*
X78970000Y-69730000D01*
X78970000Y-69730000D02*
X77200000Y-69730000D01*
X77200000Y-69730000D02*
G75*
G02X75200000Y-69730000I-1000000J0D01*
G01*
X77139000Y-111745000D02*
X70889000Y-111745000D01*
X77139000Y-106695000D02*
X70889000Y-106695000D01*
X77139000Y-106695000D02*
G75*
G02X77139000Y-111745000I0J-2525000D01*
G01*
X70889000Y-106695000D02*
G75*
G03X70889000Y-111745000I0J-2525000D01*
G01*
X79943000Y-68767000D02*
X79943000Y-66107000D01*
X74803000Y-68767000D02*
X79943000Y-68767000D01*
X74803000Y-66107000D02*
X79943000Y-66107000D01*
X74803000Y-68767000D02*
X74803000Y-66107000D01*
X73533000Y-68767000D02*
X72203000Y-68767000D01*
X72203000Y-68767000D02*
X72203000Y-67437000D01*
X81220000Y-111820000D02*
X83880000Y-111820000D01*
X81220000Y-109220000D02*
X81220000Y-111820000D01*
X83880000Y-109220000D02*
X83880000Y-111820000D01*
X81220000Y-109220000D02*
X83880000Y-109220000D01*
X81220000Y-107950000D02*
X81220000Y-106620000D01*
X81220000Y-106620000D02*
X82550000Y-106620000D01*
X68520000Y-72390000D02*
X68520000Y-105470000D01*
X68520000Y-105470000D02*
X71180000Y-105470000D01*
X71180000Y-105470000D02*
X71180000Y-72390000D01*
X71180000Y-72390000D02*
X68520000Y-72390000D01*
X68520000Y-71120000D02*
X68520000Y-69790000D01*
X68520000Y-69790000D02*
X69850000Y-69790000D01*
X83880000Y-102870000D02*
X83880000Y-69790000D01*
X83880000Y-69790000D02*
X81220000Y-69790000D01*
X81220000Y-69790000D02*
X81220000Y-102870000D01*
X81220000Y-102870000D02*
X83880000Y-102870000D01*
X83880000Y-104140000D02*
X83880000Y-105470000D01*
X83880000Y-105470000D02*
X82550000Y-105470000D01*
X80050000Y-56456000D02*
X72350000Y-56456000D01*
X80050000Y-55456000D02*
X72350000Y-55456000D01*
X72350000Y-55456000D02*
X72350000Y-64656000D01*
X72350000Y-64656000D02*
X80050000Y-64656000D01*
X80050000Y-64656000D02*
X80050000Y-55456000D01*
D15*
G36*
X76874514Y-80631661D02*
X76760454Y-80820025D01*
X76585665Y-80969404D01*
X76366300Y-81076270D01*
X76118514Y-81137095D01*
X75858461Y-81148351D01*
X75602296Y-81106510D01*
X75366172Y-81008044D01*
X75310703Y-80973173D01*
X75123624Y-80800418D01*
X75009703Y-80593869D01*
X74971163Y-80365952D01*
X75010225Y-80129093D01*
X75120344Y-79908424D01*
X75223782Y-79756000D01*
X74295000Y-79756000D01*
X74295000Y-79163333D01*
X75891841Y-79163333D01*
X75891841Y-79764542D01*
X75693946Y-79800174D01*
X75538408Y-79877383D01*
X75435194Y-79988347D01*
X75394271Y-80125241D01*
X75425605Y-80280240D01*
X75441408Y-80312700D01*
X75510609Y-80386590D01*
X75618358Y-80452757D01*
X75630548Y-80458084D01*
X75814809Y-80506323D01*
X76012276Y-80511859D01*
X76199563Y-80478837D01*
X76353283Y-80411404D01*
X76450051Y-80313705D01*
X76450593Y-80312700D01*
X76495359Y-80153589D01*
X76464105Y-80005633D01*
X76365431Y-79882821D01*
X76207936Y-79799145D01*
X76122126Y-79778314D01*
X75891841Y-79764542D01*
X75891841Y-79163333D01*
X76877333Y-79163333D01*
X76877333Y-79459667D01*
X76875952Y-79614423D01*
X76867135Y-79702985D01*
X76843879Y-79743823D01*
X76799177Y-79755406D01*
X76764939Y-79756000D01*
X76688299Y-79761111D01*
X76685345Y-79788935D01*
X76720991Y-79831632D01*
X76837131Y-80015809D01*
X76902615Y-80238799D01*
X76911270Y-80468424D01*
X76874514Y-80631661D01*
X76874514Y-80631661D01*
G37*
X76874514Y-80631661D02*
X76760454Y-80820025D01*
X76585665Y-80969404D01*
X76366300Y-81076270D01*
X76118514Y-81137095D01*
X75858461Y-81148351D01*
X75602296Y-81106510D01*
X75366172Y-81008044D01*
X75310703Y-80973173D01*
X75123624Y-80800418D01*
X75009703Y-80593869D01*
X74971163Y-80365952D01*
X75010225Y-80129093D01*
X75120344Y-79908424D01*
X75223782Y-79756000D01*
X74295000Y-79756000D01*
X74295000Y-79163333D01*
X75891841Y-79163333D01*
X75891841Y-79764542D01*
X75693946Y-79800174D01*
X75538408Y-79877383D01*
X75435194Y-79988347D01*
X75394271Y-80125241D01*
X75425605Y-80280240D01*
X75441408Y-80312700D01*
X75510609Y-80386590D01*
X75618358Y-80452757D01*
X75630548Y-80458084D01*
X75814809Y-80506323D01*
X76012276Y-80511859D01*
X76199563Y-80478837D01*
X76353283Y-80411404D01*
X76450051Y-80313705D01*
X76450593Y-80312700D01*
X76495359Y-80153589D01*
X76464105Y-80005633D01*
X76365431Y-79882821D01*
X76207936Y-79799145D01*
X76122126Y-79778314D01*
X75891841Y-79764542D01*
X75891841Y-79163333D01*
X76877333Y-79163333D01*
X76877333Y-79459667D01*
X76875952Y-79614423D01*
X76867135Y-79702985D01*
X76843879Y-79743823D01*
X76799177Y-79755406D01*
X76764939Y-79756000D01*
X76688299Y-79761111D01*
X76685345Y-79788935D01*
X76720991Y-79831632D01*
X76837131Y-80015809D01*
X76902615Y-80238799D01*
X76911270Y-80468424D01*
X76874514Y-80631661D01*
G36*
X77502089Y-73190736D02*
X77481664Y-73377493D01*
X77447694Y-73557751D01*
X77407791Y-73691750D01*
X77333807Y-73871667D01*
X76798627Y-73871667D01*
X76903038Y-73684855D01*
X77005129Y-73435370D01*
X77039789Y-73185504D01*
X77009224Y-72950238D01*
X76915642Y-72744554D01*
X76761248Y-72583431D01*
X76738463Y-72567620D01*
X76635041Y-72506939D01*
X76534453Y-72472303D01*
X76406658Y-72456802D01*
X76242333Y-72453500D01*
X76063974Y-72457635D01*
X75940029Y-72474646D01*
X75840458Y-72511444D01*
X75746204Y-72567620D01*
X75584575Y-72722310D01*
X75483490Y-72923383D01*
X75445154Y-73155855D01*
X75471775Y-73404747D01*
X75565560Y-73655078D01*
X75581629Y-73684855D01*
X75686040Y-73871667D01*
X75150860Y-73871667D01*
X75076327Y-73691750D01*
X75018219Y-73484345D01*
X74987609Y-73230146D01*
X74985280Y-72962701D01*
X75012017Y-72715558D01*
X75050064Y-72568010D01*
X75189835Y-72283220D01*
X75388114Y-72057135D01*
X75610654Y-71903167D01*
X75727650Y-71842584D01*
X75829506Y-71805004D01*
X75943082Y-71785024D01*
X76095236Y-71777245D01*
X76242333Y-71776167D01*
X76438673Y-71778563D01*
X76577380Y-71789360D01*
X76685436Y-71813966D01*
X76789823Y-71857790D01*
X76875828Y-71903167D01*
X77131242Y-72088562D01*
X77322039Y-72327089D01*
X77446487Y-72615189D01*
X77502856Y-72949303D01*
X77502089Y-73190736D01*
X77502089Y-73190736D01*
G37*
X77502089Y-73190736D02*
X77481664Y-73377493D01*
X77447694Y-73557751D01*
X77407791Y-73691750D01*
X77333807Y-73871667D01*
X76798627Y-73871667D01*
X76903038Y-73684855D01*
X77005129Y-73435370D01*
X77039789Y-73185504D01*
X77009224Y-72950238D01*
X76915642Y-72744554D01*
X76761248Y-72583431D01*
X76738463Y-72567620D01*
X76635041Y-72506939D01*
X76534453Y-72472303D01*
X76406658Y-72456802D01*
X76242333Y-72453500D01*
X76063974Y-72457635D01*
X75940029Y-72474646D01*
X75840458Y-72511444D01*
X75746204Y-72567620D01*
X75584575Y-72722310D01*
X75483490Y-72923383D01*
X75445154Y-73155855D01*
X75471775Y-73404747D01*
X75565560Y-73655078D01*
X75581629Y-73684855D01*
X75686040Y-73871667D01*
X75150860Y-73871667D01*
X75076327Y-73691750D01*
X75018219Y-73484345D01*
X74987609Y-73230146D01*
X74985280Y-72962701D01*
X75012017Y-72715558D01*
X75050064Y-72568010D01*
X75189835Y-72283220D01*
X75388114Y-72057135D01*
X75610654Y-71903167D01*
X75727650Y-71842584D01*
X75829506Y-71805004D01*
X75943082Y-71785024D01*
X76095236Y-71777245D01*
X76242333Y-71776167D01*
X76438673Y-71778563D01*
X76577380Y-71789360D01*
X76685436Y-71813966D01*
X76789823Y-71857790D01*
X76875828Y-71903167D01*
X77131242Y-72088562D01*
X77322039Y-72327089D01*
X77446487Y-72615189D01*
X77502856Y-72949303D01*
X77502089Y-73190736D01*
G36*
X76668218Y-86952667D02*
X76771656Y-87105091D01*
X76886630Y-87336015D01*
X76923729Y-87562761D01*
X76889621Y-87776513D01*
X76790971Y-87968453D01*
X76634446Y-88129764D01*
X76426711Y-88251630D01*
X76174432Y-88325232D01*
X75884275Y-88341754D01*
X75838922Y-88338846D01*
X75555764Y-88284537D01*
X75320835Y-88176016D01*
X75140706Y-88022226D01*
X75021946Y-87832112D01*
X74971123Y-87614617D01*
X74994808Y-87378686D01*
X75039367Y-87250259D01*
X75100828Y-87130430D01*
X75165510Y-87034629D01*
X75171271Y-87028009D01*
X75212903Y-86973543D01*
X75188471Y-86954673D01*
X75127061Y-86952667D01*
X75068364Y-86949023D01*
X75034774Y-86925778D01*
X75019285Y-86864462D01*
X75014892Y-86746604D01*
X75014667Y-86656333D01*
X75014667Y-86360000D01*
X75891841Y-86360000D01*
X75891841Y-86961209D01*
X75693946Y-86996840D01*
X75538408Y-87074050D01*
X75435194Y-87185014D01*
X75394271Y-87321907D01*
X75425605Y-87476906D01*
X75441408Y-87509367D01*
X75510609Y-87583256D01*
X75618358Y-87649424D01*
X75630548Y-87654750D01*
X75814809Y-87702990D01*
X76012276Y-87708526D01*
X76199563Y-87675504D01*
X76353283Y-87608070D01*
X76450051Y-87510371D01*
X76450593Y-87509367D01*
X76495359Y-87350256D01*
X76464105Y-87202300D01*
X76365431Y-87079488D01*
X76207936Y-86995811D01*
X76122126Y-86974981D01*
X75891841Y-86961209D01*
X75891841Y-86360000D01*
X77597000Y-86360000D01*
X77597000Y-86952667D01*
X76668218Y-86952667D01*
X76668218Y-86952667D01*
G37*
X76668218Y-86952667D02*
X76771656Y-87105091D01*
X76886630Y-87336015D01*
X76923729Y-87562761D01*
X76889621Y-87776513D01*
X76790971Y-87968453D01*
X76634446Y-88129764D01*
X76426711Y-88251630D01*
X76174432Y-88325232D01*
X75884275Y-88341754D01*
X75838922Y-88338846D01*
X75555764Y-88284537D01*
X75320835Y-88176016D01*
X75140706Y-88022226D01*
X75021946Y-87832112D01*
X74971123Y-87614617D01*
X74994808Y-87378686D01*
X75039367Y-87250259D01*
X75100828Y-87130430D01*
X75165510Y-87034629D01*
X75171271Y-87028009D01*
X75212903Y-86973543D01*
X75188471Y-86954673D01*
X75127061Y-86952667D01*
X75068364Y-86949023D01*
X75034774Y-86925778D01*
X75019285Y-86864462D01*
X75014892Y-86746604D01*
X75014667Y-86656333D01*
X75014667Y-86360000D01*
X75891841Y-86360000D01*
X75891841Y-86961209D01*
X75693946Y-86996840D01*
X75538408Y-87074050D01*
X75435194Y-87185014D01*
X75394271Y-87321907D01*
X75425605Y-87476906D01*
X75441408Y-87509367D01*
X75510609Y-87583256D01*
X75618358Y-87649424D01*
X75630548Y-87654750D01*
X75814809Y-87702990D01*
X76012276Y-87708526D01*
X76199563Y-87675504D01*
X76353283Y-87608070D01*
X76450051Y-87510371D01*
X76450593Y-87509367D01*
X76495359Y-87350256D01*
X76464105Y-87202300D01*
X76365431Y-87079488D01*
X76207936Y-86995811D01*
X76122126Y-86974981D01*
X75891841Y-86961209D01*
X75891841Y-86360000D01*
X77597000Y-86360000D01*
X77597000Y-86952667D01*
X76668218Y-86952667D01*
G36*
X77004333Y-76115333D02*
X77004333Y-75014667D01*
X75014667Y-75014667D01*
X75014667Y-74379667D01*
X77470000Y-74379667D01*
X77470000Y-76115333D01*
X77004333Y-76115333D01*
X77004333Y-76115333D01*
G37*
X77004333Y-76115333D02*
X77004333Y-75014667D01*
X75014667Y-75014667D01*
X75014667Y-74379667D01*
X77470000Y-74379667D01*
X77470000Y-76115333D01*
X77004333Y-76115333D01*
G36*
X76279063Y-78360536D02*
X75978517Y-78472335D01*
X75703264Y-78574749D01*
X75463422Y-78664010D01*
X75269113Y-78736352D01*
X75130455Y-78788008D01*
X75057568Y-78815211D01*
X75049541Y-78818229D01*
X75032394Y-78786716D01*
X75022825Y-78688168D01*
X75022294Y-78539998D01*
X75023395Y-78506085D01*
X75035833Y-78179210D01*
X75226333Y-78104864D01*
X75416833Y-78030517D01*
X75416833Y-77036482D01*
X75226333Y-76962136D01*
X75035833Y-76887789D01*
X75023395Y-76560915D01*
X75021952Y-76404941D01*
X75029837Y-76295121D01*
X75045591Y-76248867D01*
X75049541Y-76248770D01*
X75097571Y-76266730D01*
X75214838Y-76310433D01*
X75391224Y-76376113D01*
X75616607Y-76460003D01*
X75880869Y-76558336D01*
X75925514Y-76574944D01*
X75925514Y-77216000D01*
X75915070Y-77254880D01*
X75907345Y-77357725D01*
X75903762Y-77503843D01*
X75903667Y-77533500D01*
X75906474Y-77685273D01*
X75913900Y-77797542D01*
X75924450Y-77849616D01*
X75926592Y-77851000D01*
X75974798Y-77837868D01*
X76081652Y-77803171D01*
X76226970Y-77753961D01*
X76390569Y-77697288D01*
X76552265Y-77640202D01*
X76691873Y-77589754D01*
X76789211Y-77552996D01*
X76823889Y-77537556D01*
X76791753Y-77520362D01*
X76698533Y-77482909D01*
X76563353Y-77432044D01*
X76405341Y-77374610D01*
X76243622Y-77317455D01*
X76097321Y-77267424D01*
X75985565Y-77231363D01*
X75927480Y-77216117D01*
X75925514Y-77216000D01*
X75925514Y-76574944D01*
X76173891Y-76667344D01*
X76279063Y-76706464D01*
X77470000Y-77149428D01*
X77470000Y-77917571D01*
X76279063Y-78360536D01*
X76279063Y-78360536D01*
G37*
X76279063Y-78360536D02*
X75978517Y-78472335D01*
X75703264Y-78574749D01*
X75463422Y-78664010D01*
X75269113Y-78736352D01*
X75130455Y-78788008D01*
X75057568Y-78815211D01*
X75049541Y-78818229D01*
X75032394Y-78786716D01*
X75022825Y-78688168D01*
X75022294Y-78539998D01*
X75023395Y-78506085D01*
X75035833Y-78179210D01*
X75226333Y-78104864D01*
X75416833Y-78030517D01*
X75416833Y-77036482D01*
X75226333Y-76962136D01*
X75035833Y-76887789D01*
X75023395Y-76560915D01*
X75021952Y-76404941D01*
X75029837Y-76295121D01*
X75045591Y-76248867D01*
X75049541Y-76248770D01*
X75097571Y-76266730D01*
X75214838Y-76310433D01*
X75391224Y-76376113D01*
X75616607Y-76460003D01*
X75880869Y-76558336D01*
X75925514Y-76574944D01*
X75925514Y-77216000D01*
X75915070Y-77254880D01*
X75907345Y-77357725D01*
X75903762Y-77503843D01*
X75903667Y-77533500D01*
X75906474Y-77685273D01*
X75913900Y-77797542D01*
X75924450Y-77849616D01*
X75926592Y-77851000D01*
X75974798Y-77837868D01*
X76081652Y-77803171D01*
X76226970Y-77753961D01*
X76390569Y-77697288D01*
X76552265Y-77640202D01*
X76691873Y-77589754D01*
X76789211Y-77552996D01*
X76823889Y-77537556D01*
X76791753Y-77520362D01*
X76698533Y-77482909D01*
X76563353Y-77432044D01*
X76405341Y-77374610D01*
X76243622Y-77317455D01*
X76097321Y-77267424D01*
X75985565Y-77231363D01*
X75927480Y-77216117D01*
X75925514Y-77216000D01*
X75925514Y-76574944D01*
X76173891Y-76667344D01*
X76279063Y-76706464D01*
X77470000Y-77149428D01*
X77470000Y-77917571D01*
X76279063Y-78360536D01*
G36*
X75480333Y-82211333D02*
X75480333Y-83312000D01*
X75014667Y-83312000D01*
X75014667Y-81576333D01*
X77470000Y-81576333D01*
X77470000Y-82211333D01*
X75480333Y-82211333D01*
X75480333Y-82211333D01*
G37*
X75480333Y-82211333D02*
X75480333Y-83312000D01*
X75014667Y-83312000D01*
X75014667Y-81576333D01*
X77470000Y-81576333D01*
X77470000Y-82211333D01*
X75480333Y-82211333D01*
G36*
X77258333Y-84179833D02*
X77046667Y-84250138D01*
X77046667Y-85252529D01*
X77258334Y-85322833D01*
X77470000Y-85393138D01*
X77470000Y-85707235D01*
X77466073Y-85858039D01*
X77455694Y-85969178D01*
X77440964Y-86019882D01*
X77438250Y-86020999D01*
X77391987Y-86006734D01*
X77276453Y-85966537D01*
X77101713Y-85904042D01*
X76877834Y-85822884D01*
X76614879Y-85726699D01*
X76322916Y-85619122D01*
X76221167Y-85581463D01*
X75035833Y-85142261D01*
X75023656Y-84755856D01*
X75011478Y-84369450D01*
X75129489Y-84324409D01*
X75315130Y-84254176D01*
X75540730Y-84169804D01*
X75794557Y-84075582D01*
X76064881Y-83975797D01*
X76339969Y-83874739D01*
X76581000Y-83786601D01*
X76581000Y-84420131D01*
X76115333Y-84573974D01*
X75932334Y-84636335D01*
X75783148Y-84690796D01*
X75683666Y-84731304D01*
X75649667Y-84751333D01*
X75687348Y-84773023D01*
X75789798Y-84814403D01*
X75941127Y-84869422D01*
X76115333Y-84928692D01*
X76581000Y-85082536D01*
X76581000Y-84420131D01*
X76581000Y-83786601D01*
X76608091Y-83776694D01*
X76857514Y-83685951D01*
X77076508Y-83606799D01*
X77253341Y-83543525D01*
X77376281Y-83500417D01*
X77433597Y-83481764D01*
X77435983Y-83481333D01*
X77452321Y-83520188D01*
X77464370Y-83622887D01*
X77469877Y-83768632D01*
X77470000Y-83795431D01*
X77470000Y-84109529D01*
X77258333Y-84179833D01*
X77258333Y-84179833D01*
G37*
X77258333Y-84179833D02*
X77046667Y-84250138D01*
X77046667Y-85252529D01*
X77258334Y-85322833D01*
X77470000Y-85393138D01*
X77470000Y-85707235D01*
X77466073Y-85858039D01*
X77455694Y-85969178D01*
X77440964Y-86019882D01*
X77438250Y-86020999D01*
X77391987Y-86006734D01*
X77276453Y-85966537D01*
X77101713Y-85904042D01*
X76877834Y-85822884D01*
X76614879Y-85726699D01*
X76322916Y-85619122D01*
X76221167Y-85581463D01*
X75035833Y-85142261D01*
X75023656Y-84755856D01*
X75011478Y-84369450D01*
X75129489Y-84324409D01*
X75315130Y-84254176D01*
X75540730Y-84169804D01*
X75794557Y-84075582D01*
X76064881Y-83975797D01*
X76339969Y-83874739D01*
X76581000Y-83786601D01*
X76581000Y-84420131D01*
X76115333Y-84573974D01*
X75932334Y-84636335D01*
X75783148Y-84690796D01*
X75683666Y-84731304D01*
X75649667Y-84751333D01*
X75687348Y-84773023D01*
X75789798Y-84814403D01*
X75941127Y-84869422D01*
X76115333Y-84928692D01*
X76581000Y-85082536D01*
X76581000Y-84420131D01*
X76581000Y-83786601D01*
X76608091Y-83776694D01*
X76857514Y-83685951D01*
X77076508Y-83606799D01*
X77253341Y-83543525D01*
X77376281Y-83500417D01*
X77433597Y-83481764D01*
X77435983Y-83481333D01*
X77452321Y-83520188D01*
X77464370Y-83622887D01*
X77469877Y-83768632D01*
X77470000Y-83795431D01*
X77470000Y-84109529D01*
X77258333Y-84179833D01*
D14*
X79005715Y-115064381D02*
X78434286Y-115064381D01*
X78720000Y-115064381D02*
X78720000Y-114064381D01*
X78624762Y-114207238D01*
X78529524Y-114302476D01*
X78434286Y-114350095D01*
M02*
