G04 #@! TF.FileFunction,Soldermask,Bot*
%FSLAX46Y46*%
G04 Gerber Fmt 4.6, Leading zero omitted, Abs format (unit mm)*
G04 Created by KiCad (PCBNEW 4.0.2+e4-6225~38~ubuntu15.10.1-stable) date Sun 23 Jul 2017 03:00:31 AM EEST*
%MOMM*%
G01*
G04 APERTURE LIST*
%ADD10C,0.100000*%
%ADD11R,1.727200X1.727200*%
%ADD12O,1.727200X1.727200*%
%ADD13R,1.600000X1.600000*%
%ADD14O,1.600000X1.600000*%
%ADD15R,2.000000X3.800000*%
%ADD16R,2.000000X1.500000*%
%ADD17C,1.500000*%
%ADD18R,1.700000X1.700000*%
%ADD19O,1.700000X1.700000*%
%ADD20R,1.500000X1.250000*%
%ADD21R,1.500000X3.200000*%
%ADD22R,1.250000X1.500000*%
%ADD23R,1.700000X3.300000*%
%ADD24C,0.900000*%
%ADD25R,1.500000X1.300000*%
G04 APERTURE END LIST*
D10*
D11*
X78740000Y-116332000D03*
D12*
X78740000Y-118872000D03*
X76200000Y-116332000D03*
X76200000Y-118872000D03*
X73660000Y-116332000D03*
X73660000Y-118872000D03*
D13*
X72390000Y-71120000D03*
D14*
X80010000Y-104140000D03*
X72390000Y-73660000D03*
X80010000Y-101600000D03*
X72390000Y-76200000D03*
X80010000Y-99060000D03*
X72390000Y-78740000D03*
X80010000Y-96520000D03*
X72390000Y-81280000D03*
X80010000Y-93980000D03*
X72390000Y-83820000D03*
X80010000Y-91440000D03*
X72390000Y-86360000D03*
X80010000Y-88900000D03*
X72390000Y-88900000D03*
X80010000Y-86360000D03*
X72390000Y-91440000D03*
X80010000Y-83820000D03*
X72390000Y-93980000D03*
X80010000Y-81280000D03*
X72390000Y-96520000D03*
X80010000Y-78740000D03*
X72390000Y-99060000D03*
X80010000Y-76200000D03*
X72390000Y-101600000D03*
X80010000Y-73660000D03*
X72390000Y-104140000D03*
X80010000Y-71120000D03*
D15*
X82398000Y-59690000D03*
D16*
X76098000Y-59690000D03*
X76098000Y-57390000D03*
X76098000Y-61990000D03*
D17*
X76454000Y-109220000D03*
X71574000Y-109220000D03*
D18*
X77470000Y-67056000D03*
D19*
X80010000Y-67056000D03*
X82550000Y-67056000D03*
D18*
X82550000Y-107950000D03*
D19*
X82550000Y-110490000D03*
D18*
X69850000Y-71120000D03*
D19*
X69850000Y-73660000D03*
X69850000Y-76200000D03*
X69850000Y-78740000D03*
X69850000Y-81280000D03*
X69850000Y-83820000D03*
X69850000Y-86360000D03*
X69850000Y-88900000D03*
X69850000Y-91440000D03*
X69850000Y-93980000D03*
X69850000Y-96520000D03*
X69850000Y-99060000D03*
X69850000Y-101600000D03*
X69850000Y-104140000D03*
D18*
X82550000Y-104140000D03*
D19*
X82550000Y-101600000D03*
X82550000Y-99060000D03*
X82550000Y-96520000D03*
X82550000Y-93980000D03*
X82550000Y-91440000D03*
X82550000Y-88900000D03*
X82550000Y-86360000D03*
X82550000Y-83820000D03*
X82550000Y-81280000D03*
X82550000Y-78740000D03*
X82550000Y-76200000D03*
X82550000Y-73660000D03*
X82550000Y-71120000D03*
D20*
X72116000Y-67564000D03*
X69616000Y-67564000D03*
D21*
X69596000Y-59722000D03*
X69596000Y-63722000D03*
X72009000Y-59722000D03*
X72009000Y-63722000D03*
D22*
X78486000Y-108224000D03*
X78486000Y-110724000D03*
X69596000Y-108224000D03*
X69596000Y-110724000D03*
D23*
X74930000Y-94278000D03*
X74930000Y-99778000D03*
X77470000Y-94278000D03*
X77470000Y-99778000D03*
D24*
X78400000Y-60906000D03*
X74000000Y-60906000D03*
D25*
X74850000Y-81280000D03*
X77550000Y-81280000D03*
X74850000Y-78740000D03*
X77550000Y-78740000D03*
X74850000Y-83820000D03*
X77550000Y-83820000D03*
X77550000Y-76200000D03*
X74850000Y-76200000D03*
M02*
