M48
;DRILL file {KiCad 4.0.2+e4-6225~38~ubuntu15.10.1-stable} date Wed 09 Aug 2017 03:20:31 AM EEST
;FORMAT={-:-/ absolute / inch / decimal}
FMAT,2
INCH,TZ
T1C0.016
T2C0.031
T3C0.039
T4C0.040
T5C0.035
%
G90
G05
M72
T1
X2.7575Y-2.5975
X2.81Y-4.39
X2.905Y-2.2775
X2.91Y-3.42
X2.945Y-2.5825
X2.955Y-2.615
X3.01Y-4.39
X3.015Y-4.095
X3.045Y-3.15
X3.125Y-2.735
X3.195Y-4.165
T2
X2.8179Y-4.3
X2.85Y-2.8
X2.85Y-2.9
X2.85Y-3.
X2.85Y-3.1
X2.85Y-3.2
X2.85Y-3.3
X2.85Y-3.4
X2.85Y-3.5
X2.85Y-3.6
X2.85Y-3.7
X2.85Y-3.8
X2.85Y-3.9
X2.85Y-4.
X2.85Y-4.1
X3.01Y-4.3
X3.15Y-2.8
X3.15Y-2.9
X3.15Y-3.
X3.15Y-3.1
X3.15Y-3.2
X3.15Y-3.3
X3.15Y-3.4
X3.15Y-3.5
X3.15Y-3.6
X3.15Y-3.7
X3.15Y-3.8
X3.15Y-3.9
X3.15Y-4.
X3.15Y-4.1
T3
X2.75Y-2.8
X2.75Y-2.9
X2.75Y-3.
X2.75Y-3.1
X2.75Y-3.2
X2.75Y-3.3
X2.75Y-3.4
X2.75Y-3.5
X2.75Y-3.6
X2.75Y-3.7
X2.75Y-3.8
X2.75Y-3.9
X2.75Y-4.
X2.75Y-4.1
X2.895Y-2.655
X2.995Y-2.655
X3.095Y-2.655
X3.25Y-2.8
X3.25Y-2.9
X3.25Y-3.
X3.25Y-3.1
X3.25Y-3.2
X3.25Y-3.3
X3.25Y-3.4
X3.25Y-3.5
X3.25Y-3.6
X3.25Y-3.7
X3.25Y-3.8
X3.25Y-3.9
X3.25Y-4.
X3.25Y-4.1
X3.25Y-4.25
X3.25Y-4.35
T4
X2.9Y-4.58
X2.9Y-4.68
X3.Y-4.58
X3.Y-4.68
X3.1Y-4.58
X3.1Y-4.68
T5
X2.9134Y-2.3979
X3.0866Y-2.3979
T0
M30
