G04 #@! TF.FileFunction,Copper,L2,Bot,Signal*
%FSLAX46Y46*%
G04 Gerber Fmt 4.6, Leading zero omitted, Abs format (unit mm)*
G04 Created by KiCad (PCBNEW 4.0.2+e4-6225~38~ubuntu15.10.1-stable) date Sun 23 Jul 2017 03:00:31 AM EEST*
%MOMM*%
G01*
G04 APERTURE LIST*
%ADD10C,0.100000*%
%ADD11R,1.727200X1.727200*%
%ADD12O,1.727200X1.727200*%
%ADD13R,1.600000X1.600000*%
%ADD14O,1.600000X1.600000*%
%ADD15R,2.000000X3.800000*%
%ADD16R,2.000000X1.500000*%
%ADD17C,1.500000*%
%ADD18R,1.700000X1.700000*%
%ADD19O,1.700000X1.700000*%
%ADD20R,1.500000X1.250000*%
%ADD21R,1.500000X3.200000*%
%ADD22R,1.250000X1.500000*%
%ADD23R,1.700000X3.300000*%
%ADD24R,1.500000X1.300000*%
%ADD25C,0.600000*%
%ADD26C,0.250000*%
%ADD27C,0.127000*%
G04 APERTURE END LIST*
D10*
D11*
X78740000Y-116332000D03*
D12*
X78740000Y-118872000D03*
X76200000Y-116332000D03*
X76200000Y-118872000D03*
X73660000Y-116332000D03*
X73660000Y-118872000D03*
D13*
X72390000Y-71120000D03*
D14*
X80010000Y-104140000D03*
X72390000Y-73660000D03*
X80010000Y-101600000D03*
X72390000Y-76200000D03*
X80010000Y-99060000D03*
X72390000Y-78740000D03*
X80010000Y-96520000D03*
X72390000Y-81280000D03*
X80010000Y-93980000D03*
X72390000Y-83820000D03*
X80010000Y-91440000D03*
X72390000Y-86360000D03*
X80010000Y-88900000D03*
X72390000Y-88900000D03*
X80010000Y-86360000D03*
X72390000Y-91440000D03*
X80010000Y-83820000D03*
X72390000Y-93980000D03*
X80010000Y-81280000D03*
X72390000Y-96520000D03*
X80010000Y-78740000D03*
X72390000Y-99060000D03*
X80010000Y-76200000D03*
X72390000Y-101600000D03*
X80010000Y-73660000D03*
X72390000Y-104140000D03*
X80010000Y-71120000D03*
D15*
X82398000Y-59690000D03*
D16*
X76098000Y-59690000D03*
X76098000Y-57390000D03*
X76098000Y-61990000D03*
D17*
X76454000Y-109220000D03*
X71574000Y-109220000D03*
D18*
X77470000Y-67056000D03*
D19*
X80010000Y-67056000D03*
X82550000Y-67056000D03*
D18*
X82550000Y-107950000D03*
D19*
X82550000Y-110490000D03*
D18*
X69850000Y-71120000D03*
D19*
X69850000Y-73660000D03*
X69850000Y-76200000D03*
X69850000Y-78740000D03*
X69850000Y-81280000D03*
X69850000Y-83820000D03*
X69850000Y-86360000D03*
X69850000Y-88900000D03*
X69850000Y-91440000D03*
X69850000Y-93980000D03*
X69850000Y-96520000D03*
X69850000Y-99060000D03*
X69850000Y-101600000D03*
X69850000Y-104140000D03*
D18*
X82550000Y-104140000D03*
D19*
X82550000Y-101600000D03*
X82550000Y-99060000D03*
X82550000Y-96520000D03*
X82550000Y-93980000D03*
X82550000Y-91440000D03*
X82550000Y-88900000D03*
X82550000Y-86360000D03*
X82550000Y-83820000D03*
X82550000Y-81280000D03*
X82550000Y-78740000D03*
X82550000Y-76200000D03*
X82550000Y-73660000D03*
X82550000Y-71120000D03*
D20*
X72116000Y-67564000D03*
X69616000Y-67564000D03*
D21*
X69596000Y-59722000D03*
X69596000Y-63722000D03*
X72009000Y-59722000D03*
X72009000Y-63722000D03*
D22*
X78486000Y-108224000D03*
X78486000Y-110724000D03*
X69596000Y-108224000D03*
X69596000Y-110724000D03*
D23*
X74930000Y-94278000D03*
X74930000Y-99778000D03*
X77470000Y-94278000D03*
X77470000Y-99778000D03*
D24*
X74850000Y-81280000D03*
X77550000Y-81280000D03*
X74850000Y-78740000D03*
X77550000Y-78740000D03*
X74850000Y-83820000D03*
X77550000Y-83820000D03*
X77550000Y-76200000D03*
X74850000Y-76200000D03*
D25*
X76454000Y-105410000D03*
X73660000Y-69977000D03*
X75692000Y-69342000D03*
X74676000Y-61976000D03*
X81153000Y-105791000D03*
X77216000Y-80137000D03*
X75692000Y-74676000D03*
D26*
X81534000Y-106934000D02*
X82550000Y-107950000D01*
X77978000Y-106934000D02*
X81534000Y-106934000D01*
X76454000Y-105410000D02*
X77978000Y-106934000D01*
X73660000Y-69977000D02*
X73713500Y-69923500D01*
X73713500Y-69923500D02*
X73713500Y-69522500D01*
X73713500Y-69522500D02*
X73767000Y-69469000D01*
X75692000Y-69342000D02*
X75565000Y-69469000D01*
X75565000Y-69469000D02*
X73767000Y-69469000D01*
X73767000Y-69469000D02*
X71862000Y-67564000D01*
X76098000Y-61990000D02*
X74690000Y-61990000D01*
X74690000Y-61990000D02*
X74676000Y-61976000D01*
X69596000Y-59722000D02*
X69596000Y-57912000D01*
X70118000Y-57390000D02*
X76098000Y-57390000D01*
X69596000Y-57912000D02*
X70118000Y-57390000D01*
X76098000Y-57390000D02*
X79234000Y-57390000D01*
X81026000Y-65532000D02*
X82550000Y-67056000D01*
X81026000Y-59182000D02*
X81026000Y-65532000D01*
X79234000Y-57390000D02*
X81026000Y-59182000D01*
X69342000Y-58420000D02*
X69342000Y-59722000D01*
X69342000Y-59722000D02*
X69342000Y-58166000D01*
X69850000Y-59976000D02*
X69850000Y-58928000D01*
X76098000Y-59690000D02*
X72041000Y-59690000D01*
X72041000Y-59690000D02*
X72009000Y-59722000D01*
X76200000Y-59690000D02*
X77470000Y-60960000D01*
X77470000Y-60960000D02*
X77470000Y-67056000D01*
X76098000Y-59690000D02*
X76200000Y-59690000D01*
X76066000Y-59722000D02*
X76098000Y-59690000D01*
X78486000Y-108224000D02*
X77450000Y-108224000D01*
X77450000Y-108224000D02*
X76454000Y-109220000D01*
X69596000Y-108224000D02*
X70578000Y-108224000D01*
X70578000Y-108224000D02*
X71574000Y-109220000D01*
X74850000Y-81280000D02*
X75241998Y-81280000D01*
X75241998Y-81280000D02*
X76003998Y-82042000D01*
X76003998Y-93204002D02*
X74930000Y-94278000D01*
X76003998Y-82042000D02*
X76003998Y-93204002D01*
X74850000Y-81280000D02*
X72390000Y-81280000D01*
X74850000Y-78740000D02*
X74930000Y-78740000D01*
X74930000Y-78740000D02*
X76454000Y-80264000D01*
X76454000Y-93262000D02*
X77470000Y-94278000D01*
X76454000Y-80264000D02*
X76454000Y-93262000D01*
X74850000Y-78740000D02*
X75438000Y-78740000D01*
X72390000Y-78740000D02*
X74850000Y-78740000D01*
X72390000Y-71120000D02*
X71882000Y-71120000D01*
X71882000Y-71120000D02*
X71120000Y-71882000D01*
X73660000Y-108966000D02*
X73660000Y-116332000D01*
X71120000Y-106426000D02*
X73660000Y-108966000D01*
X71120000Y-71882000D02*
X71120000Y-106426000D01*
X81153000Y-100457000D02*
X82550000Y-99060000D01*
X81153000Y-105791000D02*
X81153000Y-100457000D01*
X72390000Y-83820000D02*
X74850000Y-83820000D01*
X77550000Y-80471000D02*
X77550000Y-81280000D01*
X77216000Y-80137000D02*
X77550000Y-80471000D01*
X77550000Y-80692000D02*
X77550000Y-81280000D01*
X77550000Y-83820000D02*
X77550000Y-81280000D01*
X75692000Y-74676000D02*
X77216000Y-76200000D01*
X77216000Y-76200000D02*
X77550000Y-76200000D01*
X77550000Y-78740000D02*
X77550000Y-76200000D01*
D27*
G36*
X83833500Y-85763062D02*
X83801630Y-85686109D01*
X83448468Y-85258428D01*
X82958523Y-84998451D01*
X82740500Y-85094182D01*
X82740500Y-86169500D01*
X82760500Y-86169500D01*
X82760500Y-86550500D01*
X82740500Y-86550500D01*
X82740500Y-87625818D01*
X82958523Y-87721549D01*
X83448468Y-87461572D01*
X83801630Y-87033891D01*
X83833500Y-86956938D01*
X83833500Y-122187500D01*
X68566500Y-122187500D01*
X68566500Y-119282667D01*
X72284913Y-119282667D01*
X72397270Y-119553957D01*
X72754363Y-119985272D01*
X73249331Y-120247102D01*
X73469500Y-120151540D01*
X73469500Y-119062500D01*
X72381894Y-119062500D01*
X72284913Y-119282667D01*
X68566500Y-119282667D01*
X68566500Y-111877722D01*
X68647271Y-111958494D01*
X68857321Y-112045500D01*
X69262625Y-112045500D01*
X69405500Y-111902625D01*
X69405500Y-110914500D01*
X69786500Y-110914500D01*
X69786500Y-111902625D01*
X69929375Y-112045500D01*
X70334679Y-112045500D01*
X70544729Y-111958494D01*
X70705494Y-111797728D01*
X70792500Y-111587678D01*
X70792500Y-111057375D01*
X70649625Y-110914500D01*
X69786500Y-110914500D01*
X69405500Y-110914500D01*
X69385500Y-110914500D01*
X69385500Y-110533500D01*
X69405500Y-110533500D01*
X69405500Y-109545375D01*
X69262625Y-109402500D01*
X68857321Y-109402500D01*
X68647271Y-109489506D01*
X68566500Y-109570278D01*
X68566500Y-107474000D01*
X68702338Y-107474000D01*
X68702338Y-108974000D01*
X68720712Y-109071647D01*
X68778421Y-109161330D01*
X68866475Y-109221495D01*
X68971000Y-109242662D01*
X70221000Y-109242662D01*
X70318647Y-109224288D01*
X70408330Y-109166579D01*
X70468495Y-109078525D01*
X70489662Y-108974000D01*
X70489662Y-108685084D01*
X70637378Y-108832800D01*
X70560676Y-109017518D01*
X70560324Y-109420713D01*
X70619745Y-109564522D01*
X70544729Y-109489506D01*
X70334679Y-109402500D01*
X69929375Y-109402500D01*
X69786500Y-109545375D01*
X69786500Y-110533500D01*
X70649625Y-110533500D01*
X70792500Y-110390625D01*
X70792500Y-109871693D01*
X70999149Y-110078703D01*
X71371518Y-110233324D01*
X71774713Y-110233676D01*
X72147352Y-110079705D01*
X72432703Y-109794851D01*
X72587324Y-109422482D01*
X72587676Y-109019287D01*
X72433705Y-108646648D01*
X72148851Y-108361297D01*
X71776482Y-108206676D01*
X71373287Y-108206324D01*
X71186801Y-108283379D01*
X70852711Y-107949289D01*
X70726673Y-107865073D01*
X70578000Y-107835500D01*
X70489662Y-107835500D01*
X70489662Y-107474000D01*
X70471288Y-107376353D01*
X70413579Y-107286670D01*
X70325525Y-107226505D01*
X70221000Y-107205338D01*
X68971000Y-107205338D01*
X68873353Y-107223712D01*
X68783670Y-107281421D01*
X68723505Y-107369475D01*
X68702338Y-107474000D01*
X68566500Y-107474000D01*
X68566500Y-89496938D01*
X68598370Y-89573891D01*
X68951532Y-90001572D01*
X69441477Y-90261549D01*
X69659500Y-90165818D01*
X69659500Y-89090500D01*
X69639500Y-89090500D01*
X69639500Y-88709500D01*
X69659500Y-88709500D01*
X69659500Y-87634182D01*
X69441477Y-87538451D01*
X68951532Y-87798428D01*
X68598370Y-88226109D01*
X68566500Y-88303062D01*
X68566500Y-73660000D01*
X68714685Y-73660000D01*
X68799445Y-74086118D01*
X69040822Y-74447363D01*
X69402067Y-74688740D01*
X69828185Y-74773500D01*
X69871815Y-74773500D01*
X70297933Y-74688740D01*
X70659178Y-74447363D01*
X70731500Y-74339126D01*
X70731500Y-75520874D01*
X70659178Y-75412637D01*
X70297933Y-75171260D01*
X69871815Y-75086500D01*
X69828185Y-75086500D01*
X69402067Y-75171260D01*
X69040822Y-75412637D01*
X68799445Y-75773882D01*
X68714685Y-76200000D01*
X68799445Y-76626118D01*
X69040822Y-76987363D01*
X69402067Y-77228740D01*
X69828185Y-77313500D01*
X69871815Y-77313500D01*
X70297933Y-77228740D01*
X70659178Y-76987363D01*
X70731500Y-76879126D01*
X70731500Y-78060874D01*
X70659178Y-77952637D01*
X70297933Y-77711260D01*
X69871815Y-77626500D01*
X69828185Y-77626500D01*
X69402067Y-77711260D01*
X69040822Y-77952637D01*
X68799445Y-78313882D01*
X68714685Y-78740000D01*
X68799445Y-79166118D01*
X69040822Y-79527363D01*
X69402067Y-79768740D01*
X69828185Y-79853500D01*
X69871815Y-79853500D01*
X70297933Y-79768740D01*
X70659178Y-79527363D01*
X70731500Y-79419126D01*
X70731500Y-80600874D01*
X70659178Y-80492637D01*
X70297933Y-80251260D01*
X69871815Y-80166500D01*
X69828185Y-80166500D01*
X69402067Y-80251260D01*
X69040822Y-80492637D01*
X68799445Y-80853882D01*
X68714685Y-81280000D01*
X68799445Y-81706118D01*
X69040822Y-82067363D01*
X69402067Y-82308740D01*
X69828185Y-82393500D01*
X69871815Y-82393500D01*
X70297933Y-82308740D01*
X70659178Y-82067363D01*
X70731500Y-81959126D01*
X70731500Y-83140874D01*
X70659178Y-83032637D01*
X70297933Y-82791260D01*
X69871815Y-82706500D01*
X69828185Y-82706500D01*
X69402067Y-82791260D01*
X69040822Y-83032637D01*
X68799445Y-83393882D01*
X68714685Y-83820000D01*
X68799445Y-84246118D01*
X69040822Y-84607363D01*
X69402067Y-84848740D01*
X69828185Y-84933500D01*
X69871815Y-84933500D01*
X70297933Y-84848740D01*
X70659178Y-84607363D01*
X70731500Y-84499126D01*
X70731500Y-85680874D01*
X70659178Y-85572637D01*
X70297933Y-85331260D01*
X69871815Y-85246500D01*
X69828185Y-85246500D01*
X69402067Y-85331260D01*
X69040822Y-85572637D01*
X68799445Y-85933882D01*
X68714685Y-86360000D01*
X68799445Y-86786118D01*
X69040822Y-87147363D01*
X69402067Y-87388740D01*
X69828185Y-87473500D01*
X69871815Y-87473500D01*
X70297933Y-87388740D01*
X70659178Y-87147363D01*
X70731500Y-87039126D01*
X70731500Y-87789424D01*
X70258523Y-87538451D01*
X70040500Y-87634182D01*
X70040500Y-88709500D01*
X70060500Y-88709500D01*
X70060500Y-89090500D01*
X70040500Y-89090500D01*
X70040500Y-90165818D01*
X70258523Y-90261549D01*
X70731500Y-90010576D01*
X70731500Y-90760874D01*
X70659178Y-90652637D01*
X70297933Y-90411260D01*
X69871815Y-90326500D01*
X69828185Y-90326500D01*
X69402067Y-90411260D01*
X69040822Y-90652637D01*
X68799445Y-91013882D01*
X68714685Y-91440000D01*
X68799445Y-91866118D01*
X69040822Y-92227363D01*
X69402067Y-92468740D01*
X69828185Y-92553500D01*
X69871815Y-92553500D01*
X70297933Y-92468740D01*
X70659178Y-92227363D01*
X70731500Y-92119126D01*
X70731500Y-93300874D01*
X70659178Y-93192637D01*
X70297933Y-92951260D01*
X69871815Y-92866500D01*
X69828185Y-92866500D01*
X69402067Y-92951260D01*
X69040822Y-93192637D01*
X68799445Y-93553882D01*
X68714685Y-93980000D01*
X68799445Y-94406118D01*
X69040822Y-94767363D01*
X69402067Y-95008740D01*
X69828185Y-95093500D01*
X69871815Y-95093500D01*
X70297933Y-95008740D01*
X70659178Y-94767363D01*
X70731500Y-94659126D01*
X70731500Y-95840874D01*
X70659178Y-95732637D01*
X70297933Y-95491260D01*
X69871815Y-95406500D01*
X69828185Y-95406500D01*
X69402067Y-95491260D01*
X69040822Y-95732637D01*
X68799445Y-96093882D01*
X68714685Y-96520000D01*
X68799445Y-96946118D01*
X69040822Y-97307363D01*
X69402067Y-97548740D01*
X69828185Y-97633500D01*
X69871815Y-97633500D01*
X70297933Y-97548740D01*
X70659178Y-97307363D01*
X70731500Y-97199126D01*
X70731500Y-98380874D01*
X70659178Y-98272637D01*
X70297933Y-98031260D01*
X69871815Y-97946500D01*
X69828185Y-97946500D01*
X69402067Y-98031260D01*
X69040822Y-98272637D01*
X68799445Y-98633882D01*
X68714685Y-99060000D01*
X68799445Y-99486118D01*
X69040822Y-99847363D01*
X69402067Y-100088740D01*
X69828185Y-100173500D01*
X69871815Y-100173500D01*
X70297933Y-100088740D01*
X70659178Y-99847363D01*
X70731500Y-99739126D01*
X70731500Y-100920874D01*
X70659178Y-100812637D01*
X70297933Y-100571260D01*
X69871815Y-100486500D01*
X69828185Y-100486500D01*
X69402067Y-100571260D01*
X69040822Y-100812637D01*
X68799445Y-101173882D01*
X68714685Y-101600000D01*
X68799445Y-102026118D01*
X69040822Y-102387363D01*
X69402067Y-102628740D01*
X69828185Y-102713500D01*
X69871815Y-102713500D01*
X70297933Y-102628740D01*
X70659178Y-102387363D01*
X70731500Y-102279126D01*
X70731500Y-103460874D01*
X70659178Y-103352637D01*
X70297933Y-103111260D01*
X69871815Y-103026500D01*
X69828185Y-103026500D01*
X69402067Y-103111260D01*
X69040822Y-103352637D01*
X68799445Y-103713882D01*
X68714685Y-104140000D01*
X68799445Y-104566118D01*
X69040822Y-104927363D01*
X69402067Y-105168740D01*
X69828185Y-105253500D01*
X69871815Y-105253500D01*
X70297933Y-105168740D01*
X70659178Y-104927363D01*
X70731500Y-104819126D01*
X70731500Y-106426000D01*
X70761073Y-106574673D01*
X70817612Y-106659289D01*
X70845289Y-106700711D01*
X73271500Y-109126922D01*
X73271500Y-115277785D01*
X73206597Y-115290695D01*
X72840939Y-115535020D01*
X72596614Y-115900678D01*
X72510819Y-116332000D01*
X72596614Y-116763322D01*
X72840939Y-117128980D01*
X73206597Y-117373305D01*
X73526312Y-117436900D01*
X73469498Y-117436900D01*
X73469498Y-117592459D01*
X73249331Y-117496898D01*
X72754363Y-117758728D01*
X72397270Y-118190043D01*
X72284913Y-118461333D01*
X72381894Y-118681500D01*
X73469500Y-118681500D01*
X73469500Y-118661500D01*
X73850500Y-118661500D01*
X73850500Y-118681500D01*
X73870500Y-118681500D01*
X73870500Y-119062500D01*
X73850500Y-119062500D01*
X73850500Y-120151540D01*
X74070669Y-120247102D01*
X74565637Y-119985272D01*
X74922730Y-119553957D01*
X75035087Y-119282667D01*
X74938107Y-119062502D01*
X75088712Y-119062502D01*
X75136614Y-119303322D01*
X75380939Y-119668980D01*
X75746597Y-119913305D01*
X76177919Y-119999100D01*
X76222081Y-119999100D01*
X76653403Y-119913305D01*
X77019061Y-119668980D01*
X77263386Y-119303322D01*
X77349181Y-118872000D01*
X77590819Y-118872000D01*
X77676614Y-119303322D01*
X77920939Y-119668980D01*
X78286597Y-119913305D01*
X78717919Y-119999100D01*
X78762081Y-119999100D01*
X79193403Y-119913305D01*
X79559061Y-119668980D01*
X79803386Y-119303322D01*
X79889181Y-118872000D01*
X79803386Y-118440678D01*
X79559061Y-118075020D01*
X79193403Y-117830695D01*
X78762081Y-117744900D01*
X78717919Y-117744900D01*
X78286597Y-117830695D01*
X77920939Y-118075020D01*
X77676614Y-118440678D01*
X77590819Y-118872000D01*
X77349181Y-118872000D01*
X77263386Y-118440678D01*
X77019061Y-118075020D01*
X76653403Y-117830695D01*
X76222081Y-117744900D01*
X76177919Y-117744900D01*
X75746597Y-117830695D01*
X75380939Y-118075020D01*
X75136614Y-118440678D01*
X75088712Y-118681498D01*
X74938107Y-118681498D01*
X75035087Y-118461333D01*
X74922730Y-118190043D01*
X74565637Y-117758728D01*
X74070669Y-117496898D01*
X73850502Y-117592459D01*
X73850502Y-117436900D01*
X73793688Y-117436900D01*
X74113403Y-117373305D01*
X74479061Y-117128980D01*
X74723386Y-116763322D01*
X74809181Y-116332000D01*
X75050819Y-116332000D01*
X75136614Y-116763322D01*
X75380939Y-117128980D01*
X75746597Y-117373305D01*
X76177919Y-117459100D01*
X76222081Y-117459100D01*
X76653403Y-117373305D01*
X77019061Y-117128980D01*
X77263386Y-116763322D01*
X77349181Y-116332000D01*
X77263386Y-115900678D01*
X77019061Y-115535020D01*
X76919358Y-115468400D01*
X77607738Y-115468400D01*
X77607738Y-117195600D01*
X77626112Y-117293247D01*
X77683821Y-117382930D01*
X77771875Y-117443095D01*
X77876400Y-117464262D01*
X79603600Y-117464262D01*
X79701247Y-117445888D01*
X79790930Y-117388179D01*
X79851095Y-117300125D01*
X79872262Y-117195600D01*
X79872262Y-115468400D01*
X79853888Y-115370753D01*
X79796179Y-115281070D01*
X79708125Y-115220905D01*
X79603600Y-115199738D01*
X77876400Y-115199738D01*
X77778753Y-115218112D01*
X77689070Y-115275821D01*
X77628905Y-115363875D01*
X77607738Y-115468400D01*
X76919358Y-115468400D01*
X76653403Y-115290695D01*
X76222081Y-115204900D01*
X76177919Y-115204900D01*
X75746597Y-115290695D01*
X75380939Y-115535020D01*
X75136614Y-115900678D01*
X75050819Y-116332000D01*
X74809181Y-116332000D01*
X74723386Y-115900678D01*
X74479061Y-115535020D01*
X74113403Y-115290695D01*
X74048500Y-115277785D01*
X74048500Y-111057375D01*
X77289500Y-111057375D01*
X77289500Y-111587678D01*
X77376506Y-111797728D01*
X77537271Y-111958494D01*
X77747321Y-112045500D01*
X78152625Y-112045500D01*
X78295500Y-111902625D01*
X78295500Y-110914500D01*
X78676500Y-110914500D01*
X78676500Y-111902625D01*
X78819375Y-112045500D01*
X79224679Y-112045500D01*
X79434729Y-111958494D01*
X79595494Y-111797728D01*
X79682500Y-111587678D01*
X79682500Y-111057375D01*
X79539625Y-110914500D01*
X78676500Y-110914500D01*
X78295500Y-110914500D01*
X77432375Y-110914500D01*
X77289500Y-111057375D01*
X74048500Y-111057375D01*
X74048500Y-109420713D01*
X75440324Y-109420713D01*
X75594295Y-109793352D01*
X75879149Y-110078703D01*
X76251518Y-110233324D01*
X76654713Y-110233676D01*
X77027352Y-110079705D01*
X77247117Y-109860322D01*
X77289500Y-109860322D01*
X77289500Y-110390625D01*
X77432375Y-110533500D01*
X78295500Y-110533500D01*
X78295500Y-109545375D01*
X78676500Y-109545375D01*
X78676500Y-110533500D01*
X79539625Y-110533500D01*
X79583125Y-110490000D01*
X81414685Y-110490000D01*
X81499445Y-110916118D01*
X81740822Y-111277363D01*
X82102067Y-111518740D01*
X82528185Y-111603500D01*
X82571815Y-111603500D01*
X82997933Y-111518740D01*
X83359178Y-111277363D01*
X83600555Y-110916118D01*
X83685315Y-110490000D01*
X83600555Y-110063882D01*
X83359178Y-109702637D01*
X82997933Y-109461260D01*
X82571815Y-109376500D01*
X82528185Y-109376500D01*
X82102067Y-109461260D01*
X81740822Y-109702637D01*
X81499445Y-110063882D01*
X81414685Y-110490000D01*
X79583125Y-110490000D01*
X79682500Y-110390625D01*
X79682500Y-109860322D01*
X79595494Y-109650272D01*
X79434729Y-109489506D01*
X79224679Y-109402500D01*
X78819375Y-109402500D01*
X78676500Y-109545375D01*
X78295500Y-109545375D01*
X78152625Y-109402500D01*
X77747321Y-109402500D01*
X77537271Y-109489506D01*
X77376506Y-109650272D01*
X77289500Y-109860322D01*
X77247117Y-109860322D01*
X77312703Y-109794851D01*
X77467324Y-109422482D01*
X77467676Y-109019287D01*
X77390621Y-108832801D01*
X77592338Y-108631084D01*
X77592338Y-108974000D01*
X77610712Y-109071647D01*
X77668421Y-109161330D01*
X77756475Y-109221495D01*
X77861000Y-109242662D01*
X79111000Y-109242662D01*
X79208647Y-109224288D01*
X79298330Y-109166579D01*
X79358495Y-109078525D01*
X79379662Y-108974000D01*
X79379662Y-107474000D01*
X79361288Y-107376353D01*
X79326635Y-107322500D01*
X81373078Y-107322500D01*
X81431338Y-107380760D01*
X81431338Y-108800000D01*
X81449712Y-108897647D01*
X81507421Y-108987330D01*
X81595475Y-109047495D01*
X81700000Y-109068662D01*
X83400000Y-109068662D01*
X83497647Y-109050288D01*
X83587330Y-108992579D01*
X83647495Y-108904525D01*
X83668662Y-108800000D01*
X83668662Y-107100000D01*
X83650288Y-107002353D01*
X83592579Y-106912670D01*
X83504525Y-106852505D01*
X83400000Y-106831338D01*
X81980760Y-106831338D01*
X81808711Y-106659289D01*
X81682673Y-106575073D01*
X81534000Y-106545500D01*
X78138922Y-106545500D01*
X77017488Y-105424066D01*
X77017598Y-105298405D01*
X76931991Y-105091220D01*
X76773614Y-104932566D01*
X76566579Y-104846598D01*
X76342405Y-104846402D01*
X76135220Y-104932009D01*
X75976566Y-105090386D01*
X75890598Y-105297421D01*
X75890402Y-105521595D01*
X75976009Y-105728780D01*
X76134386Y-105887434D01*
X76341421Y-105973402D01*
X76468091Y-105973513D01*
X77703289Y-107208711D01*
X77744192Y-107236042D01*
X77673670Y-107281421D01*
X77613505Y-107369475D01*
X77592338Y-107474000D01*
X77592338Y-107835500D01*
X77450000Y-107835500D01*
X77301328Y-107865072D01*
X77175289Y-107949289D01*
X76841200Y-108283378D01*
X76656482Y-108206676D01*
X76253287Y-108206324D01*
X75880648Y-108360295D01*
X75595297Y-108645149D01*
X75440676Y-109017518D01*
X75440324Y-109420713D01*
X74048500Y-109420713D01*
X74048500Y-108966000D01*
X74018927Y-108817327D01*
X73934711Y-108691289D01*
X71508500Y-106265078D01*
X71508500Y-104729392D01*
X71617157Y-104892008D01*
X71962181Y-105122546D01*
X72369165Y-105203500D01*
X72410835Y-105203500D01*
X72817819Y-105122546D01*
X73162843Y-104892008D01*
X73393381Y-104546984D01*
X73474335Y-104140000D01*
X73393381Y-103733016D01*
X73162843Y-103387992D01*
X72817819Y-103157454D01*
X72410835Y-103076500D01*
X72369165Y-103076500D01*
X71962181Y-103157454D01*
X71617157Y-103387992D01*
X71508500Y-103550608D01*
X71508500Y-102189392D01*
X71617157Y-102352008D01*
X71962181Y-102582546D01*
X72369165Y-102663500D01*
X72410835Y-102663500D01*
X72817819Y-102582546D01*
X73162843Y-102352008D01*
X73393381Y-102006984D01*
X73474335Y-101600000D01*
X73393381Y-101193016D01*
X73162843Y-100847992D01*
X72817819Y-100617454D01*
X72410835Y-100536500D01*
X72369165Y-100536500D01*
X71962181Y-100617454D01*
X71617157Y-100847992D01*
X71508500Y-101010608D01*
X71508500Y-99649392D01*
X71617157Y-99812008D01*
X71962181Y-100042546D01*
X72369165Y-100123500D01*
X72410835Y-100123500D01*
X72471791Y-100111375D01*
X73508500Y-100111375D01*
X73508500Y-101541678D01*
X73595506Y-101751728D01*
X73756271Y-101912494D01*
X73966321Y-101999500D01*
X74596625Y-101999500D01*
X74739500Y-101856625D01*
X74739500Y-99968500D01*
X75120500Y-99968500D01*
X75120500Y-101856625D01*
X75263375Y-101999500D01*
X75893679Y-101999500D01*
X76103729Y-101912494D01*
X76200000Y-101816222D01*
X76296271Y-101912494D01*
X76506321Y-101999500D01*
X77136625Y-101999500D01*
X77279500Y-101856625D01*
X77279500Y-99968500D01*
X77660500Y-99968500D01*
X77660500Y-101856625D01*
X77803375Y-101999500D01*
X78433679Y-101999500D01*
X78643729Y-101912494D01*
X78804494Y-101751728D01*
X78867342Y-101600000D01*
X78925665Y-101600000D01*
X79006619Y-102006984D01*
X79237157Y-102352008D01*
X79582181Y-102582546D01*
X79989165Y-102663500D01*
X80030835Y-102663500D01*
X80437819Y-102582546D01*
X80764500Y-102364264D01*
X80764500Y-103375736D01*
X80437819Y-103157454D01*
X80030835Y-103076500D01*
X79989165Y-103076500D01*
X79582181Y-103157454D01*
X79237157Y-103387992D01*
X79006619Y-103733016D01*
X78925665Y-104140000D01*
X79006619Y-104546984D01*
X79237157Y-104892008D01*
X79582181Y-105122546D01*
X79989165Y-105203500D01*
X80030835Y-105203500D01*
X80437819Y-105122546D01*
X80764500Y-104904264D01*
X80764500Y-105382607D01*
X80675566Y-105471386D01*
X80589598Y-105678421D01*
X80589402Y-105902595D01*
X80675009Y-106109780D01*
X80833386Y-106268434D01*
X81040421Y-106354402D01*
X81264595Y-106354598D01*
X81471780Y-106268991D01*
X81630434Y-106110614D01*
X81716402Y-105903579D01*
X81716598Y-105679405D01*
X81630991Y-105472220D01*
X81541500Y-105382572D01*
X81541500Y-105200615D01*
X81595475Y-105237495D01*
X81700000Y-105258662D01*
X83400000Y-105258662D01*
X83497647Y-105240288D01*
X83587330Y-105182579D01*
X83647495Y-105094525D01*
X83668662Y-104990000D01*
X83668662Y-103290000D01*
X83650288Y-103192353D01*
X83592579Y-103102670D01*
X83504525Y-103042505D01*
X83400000Y-103021338D01*
X81700000Y-103021338D01*
X81602353Y-103039712D01*
X81541500Y-103078870D01*
X81541500Y-102089058D01*
X81740822Y-102387363D01*
X82102067Y-102628740D01*
X82528185Y-102713500D01*
X82571815Y-102713500D01*
X82997933Y-102628740D01*
X83359178Y-102387363D01*
X83600555Y-102026118D01*
X83685315Y-101600000D01*
X83600555Y-101173882D01*
X83359178Y-100812637D01*
X82997933Y-100571260D01*
X82571815Y-100486500D01*
X82528185Y-100486500D01*
X82102067Y-100571260D01*
X81740822Y-100812637D01*
X81541500Y-101110942D01*
X81541500Y-100617922D01*
X82083253Y-100076169D01*
X82102067Y-100088740D01*
X82528185Y-100173500D01*
X82571815Y-100173500D01*
X82997933Y-100088740D01*
X83359178Y-99847363D01*
X83600555Y-99486118D01*
X83685315Y-99060000D01*
X83600555Y-98633882D01*
X83359178Y-98272637D01*
X82997933Y-98031260D01*
X82571815Y-97946500D01*
X82528185Y-97946500D01*
X82102067Y-98031260D01*
X81740822Y-98272637D01*
X81499445Y-98633882D01*
X81414685Y-99060000D01*
X81499445Y-99486118D01*
X81529492Y-99531086D01*
X80878289Y-100182289D01*
X80794073Y-100308327D01*
X80764500Y-100457000D01*
X80764500Y-100835736D01*
X80437819Y-100617454D01*
X80030835Y-100536500D01*
X79989165Y-100536500D01*
X79582181Y-100617454D01*
X79237157Y-100847992D01*
X79006619Y-101193016D01*
X78925665Y-101600000D01*
X78867342Y-101600000D01*
X78891500Y-101541678D01*
X78891500Y-100111375D01*
X78748625Y-99968500D01*
X77660500Y-99968500D01*
X77279500Y-99968500D01*
X75120500Y-99968500D01*
X74739500Y-99968500D01*
X73651375Y-99968500D01*
X73508500Y-100111375D01*
X72471791Y-100111375D01*
X72817819Y-100042546D01*
X73162843Y-99812008D01*
X73393381Y-99466984D01*
X73474335Y-99060000D01*
X73393381Y-98653016D01*
X73162843Y-98307992D01*
X72817819Y-98077454D01*
X72500433Y-98014322D01*
X73508500Y-98014322D01*
X73508500Y-99444625D01*
X73651375Y-99587500D01*
X74739500Y-99587500D01*
X74739500Y-97699375D01*
X75120500Y-97699375D01*
X75120500Y-99587500D01*
X77279500Y-99587500D01*
X77279500Y-97699375D01*
X77660500Y-97699375D01*
X77660500Y-99587500D01*
X78748625Y-99587500D01*
X78891500Y-99444625D01*
X78891500Y-99060000D01*
X78925665Y-99060000D01*
X79006619Y-99466984D01*
X79237157Y-99812008D01*
X79582181Y-100042546D01*
X79989165Y-100123500D01*
X80030835Y-100123500D01*
X80437819Y-100042546D01*
X80782843Y-99812008D01*
X81013381Y-99466984D01*
X81094335Y-99060000D01*
X81013381Y-98653016D01*
X80782843Y-98307992D01*
X80437819Y-98077454D01*
X80030835Y-97996500D01*
X79989165Y-97996500D01*
X79582181Y-98077454D01*
X79237157Y-98307992D01*
X79006619Y-98653016D01*
X78925665Y-99060000D01*
X78891500Y-99060000D01*
X78891500Y-98014322D01*
X78804494Y-97804272D01*
X78643729Y-97643506D01*
X78433679Y-97556500D01*
X77803375Y-97556500D01*
X77660500Y-97699375D01*
X77279500Y-97699375D01*
X77136625Y-97556500D01*
X76506321Y-97556500D01*
X76296271Y-97643506D01*
X76200000Y-97739778D01*
X76103729Y-97643506D01*
X75893679Y-97556500D01*
X75263375Y-97556500D01*
X75120500Y-97699375D01*
X74739500Y-97699375D01*
X74596625Y-97556500D01*
X73966321Y-97556500D01*
X73756271Y-97643506D01*
X73595506Y-97804272D01*
X73508500Y-98014322D01*
X72500433Y-98014322D01*
X72410835Y-97996500D01*
X72369165Y-97996500D01*
X71962181Y-98077454D01*
X71617157Y-98307992D01*
X71508500Y-98470608D01*
X71508500Y-97109392D01*
X71617157Y-97272008D01*
X71962181Y-97502546D01*
X72369165Y-97583500D01*
X72410835Y-97583500D01*
X72817819Y-97502546D01*
X73162843Y-97272008D01*
X73393381Y-96926984D01*
X73474335Y-96520000D01*
X78925665Y-96520000D01*
X79006619Y-96926984D01*
X79237157Y-97272008D01*
X79582181Y-97502546D01*
X79989165Y-97583500D01*
X80030835Y-97583500D01*
X80437819Y-97502546D01*
X80782843Y-97272008D01*
X81013381Y-96926984D01*
X81094335Y-96520000D01*
X81414685Y-96520000D01*
X81499445Y-96946118D01*
X81740822Y-97307363D01*
X82102067Y-97548740D01*
X82528185Y-97633500D01*
X82571815Y-97633500D01*
X82997933Y-97548740D01*
X83359178Y-97307363D01*
X83600555Y-96946118D01*
X83685315Y-96520000D01*
X83600555Y-96093882D01*
X83359178Y-95732637D01*
X82997933Y-95491260D01*
X82571815Y-95406500D01*
X82528185Y-95406500D01*
X82102067Y-95491260D01*
X81740822Y-95732637D01*
X81499445Y-96093882D01*
X81414685Y-96520000D01*
X81094335Y-96520000D01*
X81013381Y-96113016D01*
X80782843Y-95767992D01*
X80437819Y-95537454D01*
X80030835Y-95456500D01*
X79989165Y-95456500D01*
X79582181Y-95537454D01*
X79237157Y-95767992D01*
X79006619Y-96113016D01*
X78925665Y-96520000D01*
X73474335Y-96520000D01*
X73393381Y-96113016D01*
X73162843Y-95767992D01*
X72817819Y-95537454D01*
X72410835Y-95456500D01*
X72369165Y-95456500D01*
X71962181Y-95537454D01*
X71617157Y-95767992D01*
X71508500Y-95930608D01*
X71508500Y-94569392D01*
X71617157Y-94732008D01*
X71962181Y-94962546D01*
X72369165Y-95043500D01*
X72410835Y-95043500D01*
X72817819Y-94962546D01*
X73162843Y-94732008D01*
X73393381Y-94386984D01*
X73474335Y-93980000D01*
X73393381Y-93573016D01*
X73162843Y-93227992D01*
X72817819Y-92997454D01*
X72410835Y-92916500D01*
X72369165Y-92916500D01*
X71962181Y-92997454D01*
X71617157Y-93227992D01*
X71508500Y-93390608D01*
X71508500Y-92029392D01*
X71617157Y-92192008D01*
X71962181Y-92422546D01*
X72369165Y-92503500D01*
X72410835Y-92503500D01*
X72817819Y-92422546D01*
X73162843Y-92192008D01*
X73393381Y-91846984D01*
X73474335Y-91440000D01*
X73393381Y-91033016D01*
X73162843Y-90687992D01*
X72817819Y-90457454D01*
X72410835Y-90376500D01*
X72369165Y-90376500D01*
X71962181Y-90457454D01*
X71617157Y-90687992D01*
X71508500Y-90850608D01*
X71508500Y-89947035D01*
X71517904Y-89958538D01*
X71989373Y-90211698D01*
X72199500Y-90115346D01*
X72199500Y-89090500D01*
X72580500Y-89090500D01*
X72580500Y-90115346D01*
X72790627Y-90211698D01*
X73262096Y-89958538D01*
X73600797Y-89544225D01*
X73701682Y-89300625D01*
X73603767Y-89090500D01*
X72580500Y-89090500D01*
X72199500Y-89090500D01*
X72179500Y-89090500D01*
X72179500Y-88709500D01*
X72199500Y-88709500D01*
X72199500Y-87684654D01*
X72580500Y-87684654D01*
X72580500Y-88709500D01*
X73603767Y-88709500D01*
X73701682Y-88499375D01*
X73600797Y-88255775D01*
X73262096Y-87841462D01*
X72790627Y-87588302D01*
X72580500Y-87684654D01*
X72199500Y-87684654D01*
X71989373Y-87588302D01*
X71517904Y-87841462D01*
X71508500Y-87852965D01*
X71508500Y-86949392D01*
X71617157Y-87112008D01*
X71962181Y-87342546D01*
X72369165Y-87423500D01*
X72410835Y-87423500D01*
X72817819Y-87342546D01*
X73162843Y-87112008D01*
X73393381Y-86766984D01*
X73474335Y-86360000D01*
X73393381Y-85953016D01*
X73162843Y-85607992D01*
X72817819Y-85377454D01*
X72410835Y-85296500D01*
X72369165Y-85296500D01*
X71962181Y-85377454D01*
X71617157Y-85607992D01*
X71508500Y-85770608D01*
X71508500Y-84409392D01*
X71617157Y-84572008D01*
X71962181Y-84802546D01*
X72369165Y-84883500D01*
X72410835Y-84883500D01*
X72817819Y-84802546D01*
X73162843Y-84572008D01*
X73393381Y-84226984D01*
X73397058Y-84208500D01*
X73831338Y-84208500D01*
X73831338Y-84470000D01*
X73849712Y-84567647D01*
X73907421Y-84657330D01*
X73995475Y-84717495D01*
X74100000Y-84738662D01*
X75600000Y-84738662D01*
X75615498Y-84735746D01*
X75615498Y-92359338D01*
X74080000Y-92359338D01*
X73982353Y-92377712D01*
X73892670Y-92435421D01*
X73832505Y-92523475D01*
X73811338Y-92628000D01*
X73811338Y-95928000D01*
X73829712Y-96025647D01*
X73887421Y-96115330D01*
X73975475Y-96175495D01*
X74080000Y-96196662D01*
X75780000Y-96196662D01*
X75877647Y-96178288D01*
X75967330Y-96120579D01*
X76027495Y-96032525D01*
X76048662Y-95928000D01*
X76048662Y-93708760D01*
X76200000Y-93557422D01*
X76351338Y-93708760D01*
X76351338Y-95928000D01*
X76369712Y-96025647D01*
X76427421Y-96115330D01*
X76515475Y-96175495D01*
X76620000Y-96196662D01*
X78320000Y-96196662D01*
X78417647Y-96178288D01*
X78507330Y-96120579D01*
X78567495Y-96032525D01*
X78588662Y-95928000D01*
X78588662Y-93980000D01*
X78925665Y-93980000D01*
X79006619Y-94386984D01*
X79237157Y-94732008D01*
X79582181Y-94962546D01*
X79989165Y-95043500D01*
X80030835Y-95043500D01*
X80437819Y-94962546D01*
X80782843Y-94732008D01*
X81013381Y-94386984D01*
X81094335Y-93980000D01*
X81414685Y-93980000D01*
X81499445Y-94406118D01*
X81740822Y-94767363D01*
X82102067Y-95008740D01*
X82528185Y-95093500D01*
X82571815Y-95093500D01*
X82997933Y-95008740D01*
X83359178Y-94767363D01*
X83600555Y-94406118D01*
X83685315Y-93980000D01*
X83600555Y-93553882D01*
X83359178Y-93192637D01*
X82997933Y-92951260D01*
X82571815Y-92866500D01*
X82528185Y-92866500D01*
X82102067Y-92951260D01*
X81740822Y-93192637D01*
X81499445Y-93553882D01*
X81414685Y-93980000D01*
X81094335Y-93980000D01*
X81013381Y-93573016D01*
X80782843Y-93227992D01*
X80437819Y-92997454D01*
X80030835Y-92916500D01*
X79989165Y-92916500D01*
X79582181Y-92997454D01*
X79237157Y-93227992D01*
X79006619Y-93573016D01*
X78925665Y-93980000D01*
X78588662Y-93980000D01*
X78588662Y-92628000D01*
X78570288Y-92530353D01*
X78512579Y-92440670D01*
X78424525Y-92380505D01*
X78320000Y-92359338D01*
X76842500Y-92359338D01*
X76842500Y-91440000D01*
X78925665Y-91440000D01*
X79006619Y-91846984D01*
X79237157Y-92192008D01*
X79582181Y-92422546D01*
X79989165Y-92503500D01*
X80030835Y-92503500D01*
X80437819Y-92422546D01*
X80782843Y-92192008D01*
X81013381Y-91846984D01*
X81094335Y-91440000D01*
X81414685Y-91440000D01*
X81499445Y-91866118D01*
X81740822Y-92227363D01*
X82102067Y-92468740D01*
X82528185Y-92553500D01*
X82571815Y-92553500D01*
X82997933Y-92468740D01*
X83359178Y-92227363D01*
X83600555Y-91866118D01*
X83685315Y-91440000D01*
X83600555Y-91013882D01*
X83359178Y-90652637D01*
X82997933Y-90411260D01*
X82571815Y-90326500D01*
X82528185Y-90326500D01*
X82102067Y-90411260D01*
X81740822Y-90652637D01*
X81499445Y-91013882D01*
X81414685Y-91440000D01*
X81094335Y-91440000D01*
X81013381Y-91033016D01*
X80782843Y-90687992D01*
X80437819Y-90457454D01*
X80030835Y-90376500D01*
X79989165Y-90376500D01*
X79582181Y-90457454D01*
X79237157Y-90687992D01*
X79006619Y-91033016D01*
X78925665Y-91440000D01*
X76842500Y-91440000D01*
X76842500Y-88900000D01*
X78925665Y-88900000D01*
X79006619Y-89306984D01*
X79237157Y-89652008D01*
X79582181Y-89882546D01*
X79989165Y-89963500D01*
X80030835Y-89963500D01*
X80437819Y-89882546D01*
X80782843Y-89652008D01*
X81013381Y-89306984D01*
X81094335Y-88900000D01*
X81414685Y-88900000D01*
X81499445Y-89326118D01*
X81740822Y-89687363D01*
X82102067Y-89928740D01*
X82528185Y-90013500D01*
X82571815Y-90013500D01*
X82997933Y-89928740D01*
X83359178Y-89687363D01*
X83600555Y-89326118D01*
X83685315Y-88900000D01*
X83600555Y-88473882D01*
X83359178Y-88112637D01*
X82997933Y-87871260D01*
X82571815Y-87786500D01*
X82528185Y-87786500D01*
X82102067Y-87871260D01*
X81740822Y-88112637D01*
X81499445Y-88473882D01*
X81414685Y-88900000D01*
X81094335Y-88900000D01*
X81013381Y-88493016D01*
X80782843Y-88147992D01*
X80437819Y-87917454D01*
X80030835Y-87836500D01*
X79989165Y-87836500D01*
X79582181Y-87917454D01*
X79237157Y-88147992D01*
X79006619Y-88493016D01*
X78925665Y-88900000D01*
X76842500Y-88900000D01*
X76842500Y-86760625D01*
X78698318Y-86760625D01*
X78799203Y-87004225D01*
X79137904Y-87418538D01*
X79609373Y-87671698D01*
X79819500Y-87575346D01*
X79819500Y-86550500D01*
X80200500Y-86550500D01*
X80200500Y-87575346D01*
X80410627Y-87671698D01*
X80882096Y-87418538D01*
X81220797Y-87004225D01*
X81253440Y-86925404D01*
X81298370Y-87033891D01*
X81651532Y-87461572D01*
X82141477Y-87721549D01*
X82359500Y-87625818D01*
X82359500Y-86550500D01*
X81285646Y-86550500D01*
X81255394Y-86618371D01*
X81223767Y-86550500D01*
X80200500Y-86550500D01*
X79819500Y-86550500D01*
X78796233Y-86550500D01*
X78698318Y-86760625D01*
X76842500Y-86760625D01*
X76842500Y-85959375D01*
X78698318Y-85959375D01*
X78796233Y-86169500D01*
X79819500Y-86169500D01*
X79819500Y-85144654D01*
X80200500Y-85144654D01*
X80200500Y-86169500D01*
X81223767Y-86169500D01*
X81255394Y-86101629D01*
X81285646Y-86169500D01*
X82359500Y-86169500D01*
X82359500Y-85094182D01*
X82141477Y-84998451D01*
X81651532Y-85258428D01*
X81298370Y-85686109D01*
X81253440Y-85794596D01*
X81220797Y-85715775D01*
X80882096Y-85301462D01*
X80410627Y-85048302D01*
X80200500Y-85144654D01*
X79819500Y-85144654D01*
X79609373Y-85048302D01*
X79137904Y-85301462D01*
X78799203Y-85715775D01*
X78698318Y-85959375D01*
X76842500Y-85959375D01*
X76842500Y-84738662D01*
X78300000Y-84738662D01*
X78397647Y-84720288D01*
X78487330Y-84662579D01*
X78547495Y-84574525D01*
X78568662Y-84470000D01*
X78568662Y-83820000D01*
X78925665Y-83820000D01*
X79006619Y-84226984D01*
X79237157Y-84572008D01*
X79582181Y-84802546D01*
X79989165Y-84883500D01*
X80030835Y-84883500D01*
X80437819Y-84802546D01*
X80782843Y-84572008D01*
X81013381Y-84226984D01*
X81094335Y-83820000D01*
X81414685Y-83820000D01*
X81499445Y-84246118D01*
X81740822Y-84607363D01*
X82102067Y-84848740D01*
X82528185Y-84933500D01*
X82571815Y-84933500D01*
X82997933Y-84848740D01*
X83359178Y-84607363D01*
X83600555Y-84246118D01*
X83685315Y-83820000D01*
X83600555Y-83393882D01*
X83359178Y-83032637D01*
X82997933Y-82791260D01*
X82571815Y-82706500D01*
X82528185Y-82706500D01*
X82102067Y-82791260D01*
X81740822Y-83032637D01*
X81499445Y-83393882D01*
X81414685Y-83820000D01*
X81094335Y-83820000D01*
X81013381Y-83413016D01*
X80782843Y-83067992D01*
X80437819Y-82837454D01*
X80030835Y-82756500D01*
X79989165Y-82756500D01*
X79582181Y-82837454D01*
X79237157Y-83067992D01*
X79006619Y-83413016D01*
X78925665Y-83820000D01*
X78568662Y-83820000D01*
X78568662Y-83170000D01*
X78550288Y-83072353D01*
X78492579Y-82982670D01*
X78404525Y-82922505D01*
X78300000Y-82901338D01*
X77938500Y-82901338D01*
X77938500Y-82198662D01*
X78300000Y-82198662D01*
X78397647Y-82180288D01*
X78487330Y-82122579D01*
X78547495Y-82034525D01*
X78568662Y-81930000D01*
X78568662Y-81280000D01*
X78925665Y-81280000D01*
X79006619Y-81686984D01*
X79237157Y-82032008D01*
X79582181Y-82262546D01*
X79989165Y-82343500D01*
X80030835Y-82343500D01*
X80437819Y-82262546D01*
X80782843Y-82032008D01*
X81013381Y-81686984D01*
X81094335Y-81280000D01*
X81414685Y-81280000D01*
X81499445Y-81706118D01*
X81740822Y-82067363D01*
X82102067Y-82308740D01*
X82528185Y-82393500D01*
X82571815Y-82393500D01*
X82997933Y-82308740D01*
X83359178Y-82067363D01*
X83600555Y-81706118D01*
X83685315Y-81280000D01*
X83600555Y-80853882D01*
X83359178Y-80492637D01*
X82997933Y-80251260D01*
X82571815Y-80166500D01*
X82528185Y-80166500D01*
X82102067Y-80251260D01*
X81740822Y-80492637D01*
X81499445Y-80853882D01*
X81414685Y-81280000D01*
X81094335Y-81280000D01*
X81013381Y-80873016D01*
X80782843Y-80527992D01*
X80437819Y-80297454D01*
X80030835Y-80216500D01*
X79989165Y-80216500D01*
X79582181Y-80297454D01*
X79237157Y-80527992D01*
X79006619Y-80873016D01*
X78925665Y-81280000D01*
X78568662Y-81280000D01*
X78568662Y-80630000D01*
X78550288Y-80532353D01*
X78492579Y-80442670D01*
X78404525Y-80382505D01*
X78300000Y-80361338D01*
X77916687Y-80361338D01*
X77908927Y-80322327D01*
X77824711Y-80196289D01*
X77779488Y-80151066D01*
X77779598Y-80025405D01*
X77693991Y-79818220D01*
X77535614Y-79659566D01*
X77533437Y-79658662D01*
X78300000Y-79658662D01*
X78397647Y-79640288D01*
X78487330Y-79582579D01*
X78547495Y-79494525D01*
X78568662Y-79390000D01*
X78568662Y-78740000D01*
X78925665Y-78740000D01*
X79006619Y-79146984D01*
X79237157Y-79492008D01*
X79582181Y-79722546D01*
X79989165Y-79803500D01*
X80030835Y-79803500D01*
X80437819Y-79722546D01*
X80782843Y-79492008D01*
X81013381Y-79146984D01*
X81094335Y-78740000D01*
X81414685Y-78740000D01*
X81499445Y-79166118D01*
X81740822Y-79527363D01*
X82102067Y-79768740D01*
X82528185Y-79853500D01*
X82571815Y-79853500D01*
X82997933Y-79768740D01*
X83359178Y-79527363D01*
X83600555Y-79166118D01*
X83685315Y-78740000D01*
X83600555Y-78313882D01*
X83359178Y-77952637D01*
X82997933Y-77711260D01*
X82571815Y-77626500D01*
X82528185Y-77626500D01*
X82102067Y-77711260D01*
X81740822Y-77952637D01*
X81499445Y-78313882D01*
X81414685Y-78740000D01*
X81094335Y-78740000D01*
X81013381Y-78333016D01*
X80782843Y-77987992D01*
X80437819Y-77757454D01*
X80030835Y-77676500D01*
X79989165Y-77676500D01*
X79582181Y-77757454D01*
X79237157Y-77987992D01*
X79006619Y-78333016D01*
X78925665Y-78740000D01*
X78568662Y-78740000D01*
X78568662Y-78090000D01*
X78550288Y-77992353D01*
X78492579Y-77902670D01*
X78404525Y-77842505D01*
X78300000Y-77821338D01*
X77938500Y-77821338D01*
X77938500Y-77118662D01*
X78300000Y-77118662D01*
X78397647Y-77100288D01*
X78487330Y-77042579D01*
X78547495Y-76954525D01*
X78568662Y-76850000D01*
X78568662Y-76200000D01*
X78925665Y-76200000D01*
X79006619Y-76606984D01*
X79237157Y-76952008D01*
X79582181Y-77182546D01*
X79989165Y-77263500D01*
X80030835Y-77263500D01*
X80437819Y-77182546D01*
X80782843Y-76952008D01*
X81013381Y-76606984D01*
X81094335Y-76200000D01*
X81414685Y-76200000D01*
X81499445Y-76626118D01*
X81740822Y-76987363D01*
X82102067Y-77228740D01*
X82528185Y-77313500D01*
X82571815Y-77313500D01*
X82997933Y-77228740D01*
X83359178Y-76987363D01*
X83600555Y-76626118D01*
X83685315Y-76200000D01*
X83600555Y-75773882D01*
X83359178Y-75412637D01*
X82997933Y-75171260D01*
X82571815Y-75086500D01*
X82528185Y-75086500D01*
X82102067Y-75171260D01*
X81740822Y-75412637D01*
X81499445Y-75773882D01*
X81414685Y-76200000D01*
X81094335Y-76200000D01*
X81013381Y-75793016D01*
X80782843Y-75447992D01*
X80437819Y-75217454D01*
X80030835Y-75136500D01*
X79989165Y-75136500D01*
X79582181Y-75217454D01*
X79237157Y-75447992D01*
X79006619Y-75793016D01*
X78925665Y-76200000D01*
X78568662Y-76200000D01*
X78568662Y-75550000D01*
X78550288Y-75452353D01*
X78492579Y-75362670D01*
X78404525Y-75302505D01*
X78300000Y-75281338D01*
X76846760Y-75281338D01*
X76255488Y-74690066D01*
X76255598Y-74564405D01*
X76169991Y-74357220D01*
X76011614Y-74198566D01*
X75804579Y-74112598D01*
X75580405Y-74112402D01*
X75373220Y-74198009D01*
X75214566Y-74356386D01*
X75128598Y-74563421D01*
X75128402Y-74787595D01*
X75207282Y-74978500D01*
X75183375Y-74978500D01*
X75040500Y-75121375D01*
X75040500Y-76009500D01*
X76028625Y-76009500D01*
X76171500Y-75866625D01*
X76171500Y-75704922D01*
X76531338Y-76064760D01*
X76531338Y-76850000D01*
X76549712Y-76947647D01*
X76607421Y-77037330D01*
X76695475Y-77097495D01*
X76800000Y-77118662D01*
X77161500Y-77118662D01*
X77161500Y-77821338D01*
X76800000Y-77821338D01*
X76702353Y-77839712D01*
X76612670Y-77897421D01*
X76552505Y-77985475D01*
X76531338Y-78090000D01*
X76531338Y-79390000D01*
X76549712Y-79487647D01*
X76607421Y-79577330D01*
X76695475Y-79637495D01*
X76800000Y-79658662D01*
X76898060Y-79658662D01*
X76897220Y-79659009D01*
X76738566Y-79817386D01*
X76685238Y-79945816D01*
X75868662Y-79129240D01*
X75868662Y-78090000D01*
X75850288Y-77992353D01*
X75792579Y-77902670D01*
X75704525Y-77842505D01*
X75600000Y-77821338D01*
X74100000Y-77821338D01*
X74002353Y-77839712D01*
X73912670Y-77897421D01*
X73852505Y-77985475D01*
X73831338Y-78090000D01*
X73831338Y-78351500D01*
X73397058Y-78351500D01*
X73393381Y-78333016D01*
X73162843Y-77987992D01*
X72817819Y-77757454D01*
X72410835Y-77676500D01*
X72369165Y-77676500D01*
X71962181Y-77757454D01*
X71617157Y-77987992D01*
X71508500Y-78150608D01*
X71508500Y-76789392D01*
X71617157Y-76952008D01*
X71962181Y-77182546D01*
X72369165Y-77263500D01*
X72410835Y-77263500D01*
X72817819Y-77182546D01*
X73162843Y-76952008D01*
X73393381Y-76606984D01*
X73408022Y-76533375D01*
X73528500Y-76533375D01*
X73528500Y-76963679D01*
X73615506Y-77173729D01*
X73776272Y-77334494D01*
X73986322Y-77421500D01*
X74516625Y-77421500D01*
X74659500Y-77278625D01*
X74659500Y-76390500D01*
X75040500Y-76390500D01*
X75040500Y-77278625D01*
X75183375Y-77421500D01*
X75713678Y-77421500D01*
X75923728Y-77334494D01*
X76084494Y-77173729D01*
X76171500Y-76963679D01*
X76171500Y-76533375D01*
X76028625Y-76390500D01*
X75040500Y-76390500D01*
X74659500Y-76390500D01*
X73671375Y-76390500D01*
X73528500Y-76533375D01*
X73408022Y-76533375D01*
X73474335Y-76200000D01*
X73393381Y-75793016D01*
X73162843Y-75447992D01*
X73145377Y-75436321D01*
X73528500Y-75436321D01*
X73528500Y-75866625D01*
X73671375Y-76009500D01*
X74659500Y-76009500D01*
X74659500Y-75121375D01*
X74516625Y-74978500D01*
X73986322Y-74978500D01*
X73776272Y-75065506D01*
X73615506Y-75226271D01*
X73528500Y-75436321D01*
X73145377Y-75436321D01*
X72817819Y-75217454D01*
X72410835Y-75136500D01*
X72369165Y-75136500D01*
X71962181Y-75217454D01*
X71617157Y-75447992D01*
X71508500Y-75610608D01*
X71508500Y-74249392D01*
X71617157Y-74412008D01*
X71962181Y-74642546D01*
X72369165Y-74723500D01*
X72410835Y-74723500D01*
X72817819Y-74642546D01*
X73162843Y-74412008D01*
X73393381Y-74066984D01*
X73474335Y-73660000D01*
X78925665Y-73660000D01*
X79006619Y-74066984D01*
X79237157Y-74412008D01*
X79582181Y-74642546D01*
X79989165Y-74723500D01*
X80030835Y-74723500D01*
X80437819Y-74642546D01*
X80782843Y-74412008D01*
X81013381Y-74066984D01*
X81094335Y-73660000D01*
X81414685Y-73660000D01*
X81499445Y-74086118D01*
X81740822Y-74447363D01*
X82102067Y-74688740D01*
X82528185Y-74773500D01*
X82571815Y-74773500D01*
X82997933Y-74688740D01*
X83359178Y-74447363D01*
X83600555Y-74086118D01*
X83685315Y-73660000D01*
X83600555Y-73233882D01*
X83359178Y-72872637D01*
X82997933Y-72631260D01*
X82571815Y-72546500D01*
X82528185Y-72546500D01*
X82102067Y-72631260D01*
X81740822Y-72872637D01*
X81499445Y-73233882D01*
X81414685Y-73660000D01*
X81094335Y-73660000D01*
X81013381Y-73253016D01*
X80782843Y-72907992D01*
X80437819Y-72677454D01*
X80030835Y-72596500D01*
X79989165Y-72596500D01*
X79582181Y-72677454D01*
X79237157Y-72907992D01*
X79006619Y-73253016D01*
X78925665Y-73660000D01*
X73474335Y-73660000D01*
X73393381Y-73253016D01*
X73162843Y-72907992D01*
X72817819Y-72677454D01*
X72410835Y-72596500D01*
X72369165Y-72596500D01*
X71962181Y-72677454D01*
X71617157Y-72907992D01*
X71508500Y-73070608D01*
X71508500Y-72172158D01*
X71590000Y-72188662D01*
X73190000Y-72188662D01*
X73287647Y-72170288D01*
X73377330Y-72112579D01*
X73437495Y-72024525D01*
X73458662Y-71920000D01*
X73458662Y-71120000D01*
X78925665Y-71120000D01*
X79006619Y-71526984D01*
X79237157Y-71872008D01*
X79582181Y-72102546D01*
X79989165Y-72183500D01*
X80030835Y-72183500D01*
X80437819Y-72102546D01*
X80782843Y-71872008D01*
X81013381Y-71526984D01*
X81094335Y-71120000D01*
X81414685Y-71120000D01*
X81499445Y-71546118D01*
X81740822Y-71907363D01*
X82102067Y-72148740D01*
X82528185Y-72233500D01*
X82571815Y-72233500D01*
X82997933Y-72148740D01*
X83359178Y-71907363D01*
X83600555Y-71546118D01*
X83685315Y-71120000D01*
X83600555Y-70693882D01*
X83359178Y-70332637D01*
X82997933Y-70091260D01*
X82571815Y-70006500D01*
X82528185Y-70006500D01*
X82102067Y-70091260D01*
X81740822Y-70332637D01*
X81499445Y-70693882D01*
X81414685Y-71120000D01*
X81094335Y-71120000D01*
X81013381Y-70713016D01*
X80782843Y-70367992D01*
X80437819Y-70137454D01*
X80030835Y-70056500D01*
X79989165Y-70056500D01*
X79582181Y-70137454D01*
X79237157Y-70367992D01*
X79006619Y-70713016D01*
X78925665Y-71120000D01*
X73458662Y-71120000D01*
X73458662Y-70503546D01*
X73547421Y-70540402D01*
X73771595Y-70540598D01*
X73978780Y-70454991D01*
X74137434Y-70296614D01*
X74223402Y-70089579D01*
X74223598Y-69865405D01*
X74220332Y-69857500D01*
X75464060Y-69857500D01*
X75579421Y-69905402D01*
X75803595Y-69905598D01*
X76010780Y-69819991D01*
X76169434Y-69661614D01*
X76255402Y-69454579D01*
X76255598Y-69230405D01*
X76169991Y-69023220D01*
X76011614Y-68864566D01*
X75804579Y-68778598D01*
X75580405Y-68778402D01*
X75373220Y-68864009D01*
X75214566Y-69022386D01*
X75190435Y-69080500D01*
X73927922Y-69080500D01*
X73118118Y-68270696D01*
X73134662Y-68189000D01*
X73134662Y-66939000D01*
X73116288Y-66841353D01*
X73058579Y-66751670D01*
X72970525Y-66691505D01*
X72866000Y-66670338D01*
X71366000Y-66670338D01*
X71268353Y-66688712D01*
X71178670Y-66746421D01*
X71118505Y-66834475D01*
X71097338Y-66939000D01*
X71097338Y-68189000D01*
X71115712Y-68286647D01*
X71173421Y-68376330D01*
X71261475Y-68436495D01*
X71366000Y-68457662D01*
X72206240Y-68457662D01*
X73294363Y-69545785D01*
X73182566Y-69657386D01*
X73096598Y-69864421D01*
X73096435Y-70051338D01*
X71590000Y-70051338D01*
X71492353Y-70069712D01*
X71402670Y-70127421D01*
X71342505Y-70215475D01*
X71321338Y-70320000D01*
X71321338Y-71131240D01*
X70968662Y-71483916D01*
X70968662Y-70270000D01*
X70950288Y-70172353D01*
X70892579Y-70082670D01*
X70804525Y-70022505D01*
X70700000Y-70001338D01*
X69000000Y-70001338D01*
X68902353Y-70019712D01*
X68812670Y-70077421D01*
X68752505Y-70165475D01*
X68731338Y-70270000D01*
X68731338Y-71970000D01*
X68749712Y-72067647D01*
X68807421Y-72157330D01*
X68895475Y-72217495D01*
X69000000Y-72238662D01*
X70700000Y-72238662D01*
X70731500Y-72232735D01*
X70731500Y-72980874D01*
X70659178Y-72872637D01*
X70297933Y-72631260D01*
X69871815Y-72546500D01*
X69828185Y-72546500D01*
X69402067Y-72631260D01*
X69040822Y-72872637D01*
X68799445Y-73233882D01*
X68714685Y-73660000D01*
X68566500Y-73660000D01*
X68566500Y-68683530D01*
X68752322Y-68760500D01*
X69282625Y-68760500D01*
X69425500Y-68617625D01*
X69425500Y-67754500D01*
X69806500Y-67754500D01*
X69806500Y-68617625D01*
X69949375Y-68760500D01*
X70479678Y-68760500D01*
X70689728Y-68673494D01*
X70850494Y-68512729D01*
X70937500Y-68302679D01*
X70937500Y-67897375D01*
X70794625Y-67754500D01*
X69806500Y-67754500D01*
X69425500Y-67754500D01*
X69405500Y-67754500D01*
X69405500Y-67373500D01*
X69425500Y-67373500D01*
X69425500Y-66510375D01*
X69806500Y-66510375D01*
X69806500Y-67373500D01*
X70794625Y-67373500D01*
X70937500Y-67230625D01*
X70937500Y-66825321D01*
X70850494Y-66615271D01*
X70689728Y-66454506D01*
X70479678Y-66367500D01*
X69949375Y-66367500D01*
X69806500Y-66510375D01*
X69425500Y-66510375D01*
X69282625Y-66367500D01*
X68752322Y-66367500D01*
X68566500Y-66444470D01*
X68566500Y-65824814D01*
X68732321Y-65893500D01*
X69262625Y-65893500D01*
X69405500Y-65750625D01*
X69405500Y-63912500D01*
X69786500Y-63912500D01*
X69786500Y-65750625D01*
X69929375Y-65893500D01*
X70459679Y-65893500D01*
X70669729Y-65806494D01*
X70802500Y-65673722D01*
X70935271Y-65806494D01*
X71145321Y-65893500D01*
X71675625Y-65893500D01*
X71818500Y-65750625D01*
X71818500Y-63912500D01*
X72199500Y-63912500D01*
X72199500Y-65750625D01*
X72342375Y-65893500D01*
X72872679Y-65893500D01*
X73082729Y-65806494D01*
X73243494Y-65645728D01*
X73330500Y-65435678D01*
X73330500Y-64055375D01*
X73187625Y-63912500D01*
X72199500Y-63912500D01*
X71818500Y-63912500D01*
X70830375Y-63912500D01*
X70802500Y-63940375D01*
X70774625Y-63912500D01*
X69786500Y-63912500D01*
X69405500Y-63912500D01*
X69385500Y-63912500D01*
X69385500Y-63531500D01*
X69405500Y-63531500D01*
X69405500Y-63511500D01*
X69786500Y-63511500D01*
X69786500Y-63531500D01*
X70774625Y-63531500D01*
X70802500Y-63503625D01*
X70830375Y-63531500D01*
X71818500Y-63531500D01*
X71818500Y-63511500D01*
X72199500Y-63511500D01*
X72199500Y-63531500D01*
X73187625Y-63531500D01*
X73330500Y-63388625D01*
X73330500Y-62323375D01*
X74526500Y-62323375D01*
X74526500Y-62853679D01*
X74613506Y-63063729D01*
X74774272Y-63224494D01*
X74984322Y-63311500D01*
X75764625Y-63311500D01*
X75907500Y-63168625D01*
X75907500Y-62180500D01*
X74669375Y-62180500D01*
X74526500Y-62323375D01*
X73330500Y-62323375D01*
X73330500Y-62008322D01*
X73243494Y-61798272D01*
X73082729Y-61637506D01*
X72883525Y-61554993D01*
X72946330Y-61514579D01*
X73006495Y-61426525D01*
X73027662Y-61322000D01*
X73027662Y-60078500D01*
X74829338Y-60078500D01*
X74829338Y-60440000D01*
X74847712Y-60537647D01*
X74905421Y-60627330D01*
X74972713Y-60673309D01*
X74774272Y-60755506D01*
X74713578Y-60816199D01*
X74713623Y-60764699D01*
X74605228Y-60502363D01*
X74404693Y-60301477D01*
X74142547Y-60192624D01*
X73858699Y-60192377D01*
X73596363Y-60300772D01*
X73395477Y-60501307D01*
X73286624Y-60763453D01*
X73286377Y-61047301D01*
X73394772Y-61309637D01*
X73595307Y-61510523D01*
X73857453Y-61619376D01*
X74141301Y-61619623D01*
X74403637Y-61511228D01*
X74526500Y-61388580D01*
X74526500Y-61656625D01*
X74669375Y-61799500D01*
X75907500Y-61799500D01*
X75907500Y-61779500D01*
X76288500Y-61779500D01*
X76288500Y-61799500D01*
X76308500Y-61799500D01*
X76308500Y-62180500D01*
X76288500Y-62180500D01*
X76288500Y-63168625D01*
X76431375Y-63311500D01*
X77081500Y-63311500D01*
X77081500Y-65937338D01*
X76620000Y-65937338D01*
X76522353Y-65955712D01*
X76432670Y-66013421D01*
X76372505Y-66101475D01*
X76351338Y-66206000D01*
X76351338Y-67906000D01*
X76369712Y-68003647D01*
X76427421Y-68093330D01*
X76515475Y-68153495D01*
X76620000Y-68174662D01*
X78320000Y-68174662D01*
X78417647Y-68156288D01*
X78507330Y-68098579D01*
X78567495Y-68010525D01*
X78588662Y-67906000D01*
X78588662Y-67034185D01*
X78896500Y-67034185D01*
X78896500Y-67077815D01*
X78981260Y-67503933D01*
X79222637Y-67865178D01*
X79583882Y-68106555D01*
X80010000Y-68191315D01*
X80436118Y-68106555D01*
X80797363Y-67865178D01*
X81038740Y-67503933D01*
X81123500Y-67077815D01*
X81123500Y-67034185D01*
X81038740Y-66608067D01*
X80797363Y-66246822D01*
X80436118Y-66005445D01*
X80010000Y-65920685D01*
X79583882Y-66005445D01*
X79222637Y-66246822D01*
X78981260Y-66608067D01*
X78896500Y-67034185D01*
X78588662Y-67034185D01*
X78588662Y-66206000D01*
X78570288Y-66108353D01*
X78512579Y-66018670D01*
X78424525Y-65958505D01*
X78320000Y-65937338D01*
X77858500Y-65937338D01*
X77858500Y-61373477D01*
X77995307Y-61510523D01*
X78257453Y-61619376D01*
X78541301Y-61619623D01*
X78803637Y-61511228D01*
X79004523Y-61310693D01*
X79113376Y-61048547D01*
X79113623Y-60764699D01*
X79005228Y-60502363D01*
X78804693Y-60301477D01*
X78542547Y-60192624D01*
X78258699Y-60192377D01*
X77996363Y-60300772D01*
X77795477Y-60501307D01*
X77726601Y-60667179D01*
X77366662Y-60307240D01*
X77366662Y-58940000D01*
X77348288Y-58842353D01*
X77290579Y-58752670D01*
X77202525Y-58692505D01*
X77098000Y-58671338D01*
X75098000Y-58671338D01*
X75000353Y-58689712D01*
X74910670Y-58747421D01*
X74850505Y-58835475D01*
X74829338Y-58940000D01*
X74829338Y-59301500D01*
X73027662Y-59301500D01*
X73027662Y-58122000D01*
X73009288Y-58024353D01*
X72951579Y-57934670D01*
X72863525Y-57874505D01*
X72759000Y-57853338D01*
X71259000Y-57853338D01*
X71161353Y-57871712D01*
X71071670Y-57929421D01*
X71011505Y-58017475D01*
X70990338Y-58122000D01*
X70990338Y-61322000D01*
X71008712Y-61419647D01*
X71066421Y-61509330D01*
X71133712Y-61555308D01*
X70935271Y-61637506D01*
X70802500Y-61770278D01*
X70669729Y-61637506D01*
X70470525Y-61554993D01*
X70533330Y-61514579D01*
X70593495Y-61426525D01*
X70614662Y-61322000D01*
X70614662Y-58122000D01*
X70596288Y-58024353D01*
X70538579Y-57934670D01*
X70450525Y-57874505D01*
X70346000Y-57853338D01*
X70204084Y-57853338D01*
X70278922Y-57778500D01*
X74829338Y-57778500D01*
X74829338Y-58140000D01*
X74847712Y-58237647D01*
X74905421Y-58327330D01*
X74993475Y-58387495D01*
X75098000Y-58408662D01*
X77098000Y-58408662D01*
X77195647Y-58390288D01*
X77285330Y-58332579D01*
X77345495Y-58244525D01*
X77366662Y-58140000D01*
X77366662Y-57778500D01*
X79073078Y-57778500D01*
X80637500Y-59342922D01*
X80637500Y-65532000D01*
X80667073Y-65680673D01*
X80751144Y-65806494D01*
X80751289Y-65806711D01*
X81533831Y-66589253D01*
X81521260Y-66608067D01*
X81436500Y-67034185D01*
X81436500Y-67077815D01*
X81521260Y-67503933D01*
X81762637Y-67865178D01*
X82123882Y-68106555D01*
X82550000Y-68191315D01*
X82976118Y-68106555D01*
X83337363Y-67865178D01*
X83578740Y-67503933D01*
X83663500Y-67077815D01*
X83663500Y-67034185D01*
X83578740Y-66608067D01*
X83337363Y-66246822D01*
X82976118Y-66005445D01*
X82550000Y-65920685D01*
X82123882Y-66005445D01*
X82078914Y-66035492D01*
X81414500Y-65371078D01*
X81414500Y-61858662D01*
X83398000Y-61858662D01*
X83495647Y-61840288D01*
X83585330Y-61782579D01*
X83645495Y-61694525D01*
X83666662Y-61590000D01*
X83666662Y-57790000D01*
X83648288Y-57692353D01*
X83590579Y-57602670D01*
X83502525Y-57542505D01*
X83398000Y-57521338D01*
X81398000Y-57521338D01*
X81300353Y-57539712D01*
X81210670Y-57597421D01*
X81150505Y-57685475D01*
X81129338Y-57790000D01*
X81129338Y-58735916D01*
X79508711Y-57115289D01*
X79382673Y-57031073D01*
X79234000Y-57001500D01*
X77366662Y-57001500D01*
X77366662Y-56640000D01*
X77348288Y-56542353D01*
X77290579Y-56452670D01*
X77202525Y-56392505D01*
X77098000Y-56371338D01*
X75098000Y-56371338D01*
X75000353Y-56389712D01*
X74910670Y-56447421D01*
X74850505Y-56535475D01*
X74829338Y-56640000D01*
X74829338Y-57001500D01*
X70118000Y-57001500D01*
X69969327Y-57031073D01*
X69843289Y-57115289D01*
X69321289Y-57637289D01*
X69237073Y-57763327D01*
X69229815Y-57799815D01*
X69193327Y-57807073D01*
X69124087Y-57853338D01*
X68846000Y-57853338D01*
X68748353Y-57871712D01*
X68658670Y-57929421D01*
X68598505Y-58017475D01*
X68577338Y-58122000D01*
X68577338Y-61322000D01*
X68595712Y-61419647D01*
X68653421Y-61509330D01*
X68720712Y-61555308D01*
X68566500Y-61619186D01*
X68566500Y-55612500D01*
X83833500Y-55612500D01*
X83833500Y-85763062D01*
X83833500Y-85763062D01*
G37*
X83833500Y-85763062D02*
X83801630Y-85686109D01*
X83448468Y-85258428D01*
X82958523Y-84998451D01*
X82740500Y-85094182D01*
X82740500Y-86169500D01*
X82760500Y-86169500D01*
X82760500Y-86550500D01*
X82740500Y-86550500D01*
X82740500Y-87625818D01*
X82958523Y-87721549D01*
X83448468Y-87461572D01*
X83801630Y-87033891D01*
X83833500Y-86956938D01*
X83833500Y-122187500D01*
X68566500Y-122187500D01*
X68566500Y-119282667D01*
X72284913Y-119282667D01*
X72397270Y-119553957D01*
X72754363Y-119985272D01*
X73249331Y-120247102D01*
X73469500Y-120151540D01*
X73469500Y-119062500D01*
X72381894Y-119062500D01*
X72284913Y-119282667D01*
X68566500Y-119282667D01*
X68566500Y-111877722D01*
X68647271Y-111958494D01*
X68857321Y-112045500D01*
X69262625Y-112045500D01*
X69405500Y-111902625D01*
X69405500Y-110914500D01*
X69786500Y-110914500D01*
X69786500Y-111902625D01*
X69929375Y-112045500D01*
X70334679Y-112045500D01*
X70544729Y-111958494D01*
X70705494Y-111797728D01*
X70792500Y-111587678D01*
X70792500Y-111057375D01*
X70649625Y-110914500D01*
X69786500Y-110914500D01*
X69405500Y-110914500D01*
X69385500Y-110914500D01*
X69385500Y-110533500D01*
X69405500Y-110533500D01*
X69405500Y-109545375D01*
X69262625Y-109402500D01*
X68857321Y-109402500D01*
X68647271Y-109489506D01*
X68566500Y-109570278D01*
X68566500Y-107474000D01*
X68702338Y-107474000D01*
X68702338Y-108974000D01*
X68720712Y-109071647D01*
X68778421Y-109161330D01*
X68866475Y-109221495D01*
X68971000Y-109242662D01*
X70221000Y-109242662D01*
X70318647Y-109224288D01*
X70408330Y-109166579D01*
X70468495Y-109078525D01*
X70489662Y-108974000D01*
X70489662Y-108685084D01*
X70637378Y-108832800D01*
X70560676Y-109017518D01*
X70560324Y-109420713D01*
X70619745Y-109564522D01*
X70544729Y-109489506D01*
X70334679Y-109402500D01*
X69929375Y-109402500D01*
X69786500Y-109545375D01*
X69786500Y-110533500D01*
X70649625Y-110533500D01*
X70792500Y-110390625D01*
X70792500Y-109871693D01*
X70999149Y-110078703D01*
X71371518Y-110233324D01*
X71774713Y-110233676D01*
X72147352Y-110079705D01*
X72432703Y-109794851D01*
X72587324Y-109422482D01*
X72587676Y-109019287D01*
X72433705Y-108646648D01*
X72148851Y-108361297D01*
X71776482Y-108206676D01*
X71373287Y-108206324D01*
X71186801Y-108283379D01*
X70852711Y-107949289D01*
X70726673Y-107865073D01*
X70578000Y-107835500D01*
X70489662Y-107835500D01*
X70489662Y-107474000D01*
X70471288Y-107376353D01*
X70413579Y-107286670D01*
X70325525Y-107226505D01*
X70221000Y-107205338D01*
X68971000Y-107205338D01*
X68873353Y-107223712D01*
X68783670Y-107281421D01*
X68723505Y-107369475D01*
X68702338Y-107474000D01*
X68566500Y-107474000D01*
X68566500Y-89496938D01*
X68598370Y-89573891D01*
X68951532Y-90001572D01*
X69441477Y-90261549D01*
X69659500Y-90165818D01*
X69659500Y-89090500D01*
X69639500Y-89090500D01*
X69639500Y-88709500D01*
X69659500Y-88709500D01*
X69659500Y-87634182D01*
X69441477Y-87538451D01*
X68951532Y-87798428D01*
X68598370Y-88226109D01*
X68566500Y-88303062D01*
X68566500Y-73660000D01*
X68714685Y-73660000D01*
X68799445Y-74086118D01*
X69040822Y-74447363D01*
X69402067Y-74688740D01*
X69828185Y-74773500D01*
X69871815Y-74773500D01*
X70297933Y-74688740D01*
X70659178Y-74447363D01*
X70731500Y-74339126D01*
X70731500Y-75520874D01*
X70659178Y-75412637D01*
X70297933Y-75171260D01*
X69871815Y-75086500D01*
X69828185Y-75086500D01*
X69402067Y-75171260D01*
X69040822Y-75412637D01*
X68799445Y-75773882D01*
X68714685Y-76200000D01*
X68799445Y-76626118D01*
X69040822Y-76987363D01*
X69402067Y-77228740D01*
X69828185Y-77313500D01*
X69871815Y-77313500D01*
X70297933Y-77228740D01*
X70659178Y-76987363D01*
X70731500Y-76879126D01*
X70731500Y-78060874D01*
X70659178Y-77952637D01*
X70297933Y-77711260D01*
X69871815Y-77626500D01*
X69828185Y-77626500D01*
X69402067Y-77711260D01*
X69040822Y-77952637D01*
X68799445Y-78313882D01*
X68714685Y-78740000D01*
X68799445Y-79166118D01*
X69040822Y-79527363D01*
X69402067Y-79768740D01*
X69828185Y-79853500D01*
X69871815Y-79853500D01*
X70297933Y-79768740D01*
X70659178Y-79527363D01*
X70731500Y-79419126D01*
X70731500Y-80600874D01*
X70659178Y-80492637D01*
X70297933Y-80251260D01*
X69871815Y-80166500D01*
X69828185Y-80166500D01*
X69402067Y-80251260D01*
X69040822Y-80492637D01*
X68799445Y-80853882D01*
X68714685Y-81280000D01*
X68799445Y-81706118D01*
X69040822Y-82067363D01*
X69402067Y-82308740D01*
X69828185Y-82393500D01*
X69871815Y-82393500D01*
X70297933Y-82308740D01*
X70659178Y-82067363D01*
X70731500Y-81959126D01*
X70731500Y-83140874D01*
X70659178Y-83032637D01*
X70297933Y-82791260D01*
X69871815Y-82706500D01*
X69828185Y-82706500D01*
X69402067Y-82791260D01*
X69040822Y-83032637D01*
X68799445Y-83393882D01*
X68714685Y-83820000D01*
X68799445Y-84246118D01*
X69040822Y-84607363D01*
X69402067Y-84848740D01*
X69828185Y-84933500D01*
X69871815Y-84933500D01*
X70297933Y-84848740D01*
X70659178Y-84607363D01*
X70731500Y-84499126D01*
X70731500Y-85680874D01*
X70659178Y-85572637D01*
X70297933Y-85331260D01*
X69871815Y-85246500D01*
X69828185Y-85246500D01*
X69402067Y-85331260D01*
X69040822Y-85572637D01*
X68799445Y-85933882D01*
X68714685Y-86360000D01*
X68799445Y-86786118D01*
X69040822Y-87147363D01*
X69402067Y-87388740D01*
X69828185Y-87473500D01*
X69871815Y-87473500D01*
X70297933Y-87388740D01*
X70659178Y-87147363D01*
X70731500Y-87039126D01*
X70731500Y-87789424D01*
X70258523Y-87538451D01*
X70040500Y-87634182D01*
X70040500Y-88709500D01*
X70060500Y-88709500D01*
X70060500Y-89090500D01*
X70040500Y-89090500D01*
X70040500Y-90165818D01*
X70258523Y-90261549D01*
X70731500Y-90010576D01*
X70731500Y-90760874D01*
X70659178Y-90652637D01*
X70297933Y-90411260D01*
X69871815Y-90326500D01*
X69828185Y-90326500D01*
X69402067Y-90411260D01*
X69040822Y-90652637D01*
X68799445Y-91013882D01*
X68714685Y-91440000D01*
X68799445Y-91866118D01*
X69040822Y-92227363D01*
X69402067Y-92468740D01*
X69828185Y-92553500D01*
X69871815Y-92553500D01*
X70297933Y-92468740D01*
X70659178Y-92227363D01*
X70731500Y-92119126D01*
X70731500Y-93300874D01*
X70659178Y-93192637D01*
X70297933Y-92951260D01*
X69871815Y-92866500D01*
X69828185Y-92866500D01*
X69402067Y-92951260D01*
X69040822Y-93192637D01*
X68799445Y-93553882D01*
X68714685Y-93980000D01*
X68799445Y-94406118D01*
X69040822Y-94767363D01*
X69402067Y-95008740D01*
X69828185Y-95093500D01*
X69871815Y-95093500D01*
X70297933Y-95008740D01*
X70659178Y-94767363D01*
X70731500Y-94659126D01*
X70731500Y-95840874D01*
X70659178Y-95732637D01*
X70297933Y-95491260D01*
X69871815Y-95406500D01*
X69828185Y-95406500D01*
X69402067Y-95491260D01*
X69040822Y-95732637D01*
X68799445Y-96093882D01*
X68714685Y-96520000D01*
X68799445Y-96946118D01*
X69040822Y-97307363D01*
X69402067Y-97548740D01*
X69828185Y-97633500D01*
X69871815Y-97633500D01*
X70297933Y-97548740D01*
X70659178Y-97307363D01*
X70731500Y-97199126D01*
X70731500Y-98380874D01*
X70659178Y-98272637D01*
X70297933Y-98031260D01*
X69871815Y-97946500D01*
X69828185Y-97946500D01*
X69402067Y-98031260D01*
X69040822Y-98272637D01*
X68799445Y-98633882D01*
X68714685Y-99060000D01*
X68799445Y-99486118D01*
X69040822Y-99847363D01*
X69402067Y-100088740D01*
X69828185Y-100173500D01*
X69871815Y-100173500D01*
X70297933Y-100088740D01*
X70659178Y-99847363D01*
X70731500Y-99739126D01*
X70731500Y-100920874D01*
X70659178Y-100812637D01*
X70297933Y-100571260D01*
X69871815Y-100486500D01*
X69828185Y-100486500D01*
X69402067Y-100571260D01*
X69040822Y-100812637D01*
X68799445Y-101173882D01*
X68714685Y-101600000D01*
X68799445Y-102026118D01*
X69040822Y-102387363D01*
X69402067Y-102628740D01*
X69828185Y-102713500D01*
X69871815Y-102713500D01*
X70297933Y-102628740D01*
X70659178Y-102387363D01*
X70731500Y-102279126D01*
X70731500Y-103460874D01*
X70659178Y-103352637D01*
X70297933Y-103111260D01*
X69871815Y-103026500D01*
X69828185Y-103026500D01*
X69402067Y-103111260D01*
X69040822Y-103352637D01*
X68799445Y-103713882D01*
X68714685Y-104140000D01*
X68799445Y-104566118D01*
X69040822Y-104927363D01*
X69402067Y-105168740D01*
X69828185Y-105253500D01*
X69871815Y-105253500D01*
X70297933Y-105168740D01*
X70659178Y-104927363D01*
X70731500Y-104819126D01*
X70731500Y-106426000D01*
X70761073Y-106574673D01*
X70817612Y-106659289D01*
X70845289Y-106700711D01*
X73271500Y-109126922D01*
X73271500Y-115277785D01*
X73206597Y-115290695D01*
X72840939Y-115535020D01*
X72596614Y-115900678D01*
X72510819Y-116332000D01*
X72596614Y-116763322D01*
X72840939Y-117128980D01*
X73206597Y-117373305D01*
X73526312Y-117436900D01*
X73469498Y-117436900D01*
X73469498Y-117592459D01*
X73249331Y-117496898D01*
X72754363Y-117758728D01*
X72397270Y-118190043D01*
X72284913Y-118461333D01*
X72381894Y-118681500D01*
X73469500Y-118681500D01*
X73469500Y-118661500D01*
X73850500Y-118661500D01*
X73850500Y-118681500D01*
X73870500Y-118681500D01*
X73870500Y-119062500D01*
X73850500Y-119062500D01*
X73850500Y-120151540D01*
X74070669Y-120247102D01*
X74565637Y-119985272D01*
X74922730Y-119553957D01*
X75035087Y-119282667D01*
X74938107Y-119062502D01*
X75088712Y-119062502D01*
X75136614Y-119303322D01*
X75380939Y-119668980D01*
X75746597Y-119913305D01*
X76177919Y-119999100D01*
X76222081Y-119999100D01*
X76653403Y-119913305D01*
X77019061Y-119668980D01*
X77263386Y-119303322D01*
X77349181Y-118872000D01*
X77590819Y-118872000D01*
X77676614Y-119303322D01*
X77920939Y-119668980D01*
X78286597Y-119913305D01*
X78717919Y-119999100D01*
X78762081Y-119999100D01*
X79193403Y-119913305D01*
X79559061Y-119668980D01*
X79803386Y-119303322D01*
X79889181Y-118872000D01*
X79803386Y-118440678D01*
X79559061Y-118075020D01*
X79193403Y-117830695D01*
X78762081Y-117744900D01*
X78717919Y-117744900D01*
X78286597Y-117830695D01*
X77920939Y-118075020D01*
X77676614Y-118440678D01*
X77590819Y-118872000D01*
X77349181Y-118872000D01*
X77263386Y-118440678D01*
X77019061Y-118075020D01*
X76653403Y-117830695D01*
X76222081Y-117744900D01*
X76177919Y-117744900D01*
X75746597Y-117830695D01*
X75380939Y-118075020D01*
X75136614Y-118440678D01*
X75088712Y-118681498D01*
X74938107Y-118681498D01*
X75035087Y-118461333D01*
X74922730Y-118190043D01*
X74565637Y-117758728D01*
X74070669Y-117496898D01*
X73850502Y-117592459D01*
X73850502Y-117436900D01*
X73793688Y-117436900D01*
X74113403Y-117373305D01*
X74479061Y-117128980D01*
X74723386Y-116763322D01*
X74809181Y-116332000D01*
X75050819Y-116332000D01*
X75136614Y-116763322D01*
X75380939Y-117128980D01*
X75746597Y-117373305D01*
X76177919Y-117459100D01*
X76222081Y-117459100D01*
X76653403Y-117373305D01*
X77019061Y-117128980D01*
X77263386Y-116763322D01*
X77349181Y-116332000D01*
X77263386Y-115900678D01*
X77019061Y-115535020D01*
X76919358Y-115468400D01*
X77607738Y-115468400D01*
X77607738Y-117195600D01*
X77626112Y-117293247D01*
X77683821Y-117382930D01*
X77771875Y-117443095D01*
X77876400Y-117464262D01*
X79603600Y-117464262D01*
X79701247Y-117445888D01*
X79790930Y-117388179D01*
X79851095Y-117300125D01*
X79872262Y-117195600D01*
X79872262Y-115468400D01*
X79853888Y-115370753D01*
X79796179Y-115281070D01*
X79708125Y-115220905D01*
X79603600Y-115199738D01*
X77876400Y-115199738D01*
X77778753Y-115218112D01*
X77689070Y-115275821D01*
X77628905Y-115363875D01*
X77607738Y-115468400D01*
X76919358Y-115468400D01*
X76653403Y-115290695D01*
X76222081Y-115204900D01*
X76177919Y-115204900D01*
X75746597Y-115290695D01*
X75380939Y-115535020D01*
X75136614Y-115900678D01*
X75050819Y-116332000D01*
X74809181Y-116332000D01*
X74723386Y-115900678D01*
X74479061Y-115535020D01*
X74113403Y-115290695D01*
X74048500Y-115277785D01*
X74048500Y-111057375D01*
X77289500Y-111057375D01*
X77289500Y-111587678D01*
X77376506Y-111797728D01*
X77537271Y-111958494D01*
X77747321Y-112045500D01*
X78152625Y-112045500D01*
X78295500Y-111902625D01*
X78295500Y-110914500D01*
X78676500Y-110914500D01*
X78676500Y-111902625D01*
X78819375Y-112045500D01*
X79224679Y-112045500D01*
X79434729Y-111958494D01*
X79595494Y-111797728D01*
X79682500Y-111587678D01*
X79682500Y-111057375D01*
X79539625Y-110914500D01*
X78676500Y-110914500D01*
X78295500Y-110914500D01*
X77432375Y-110914500D01*
X77289500Y-111057375D01*
X74048500Y-111057375D01*
X74048500Y-109420713D01*
X75440324Y-109420713D01*
X75594295Y-109793352D01*
X75879149Y-110078703D01*
X76251518Y-110233324D01*
X76654713Y-110233676D01*
X77027352Y-110079705D01*
X77247117Y-109860322D01*
X77289500Y-109860322D01*
X77289500Y-110390625D01*
X77432375Y-110533500D01*
X78295500Y-110533500D01*
X78295500Y-109545375D01*
X78676500Y-109545375D01*
X78676500Y-110533500D01*
X79539625Y-110533500D01*
X79583125Y-110490000D01*
X81414685Y-110490000D01*
X81499445Y-110916118D01*
X81740822Y-111277363D01*
X82102067Y-111518740D01*
X82528185Y-111603500D01*
X82571815Y-111603500D01*
X82997933Y-111518740D01*
X83359178Y-111277363D01*
X83600555Y-110916118D01*
X83685315Y-110490000D01*
X83600555Y-110063882D01*
X83359178Y-109702637D01*
X82997933Y-109461260D01*
X82571815Y-109376500D01*
X82528185Y-109376500D01*
X82102067Y-109461260D01*
X81740822Y-109702637D01*
X81499445Y-110063882D01*
X81414685Y-110490000D01*
X79583125Y-110490000D01*
X79682500Y-110390625D01*
X79682500Y-109860322D01*
X79595494Y-109650272D01*
X79434729Y-109489506D01*
X79224679Y-109402500D01*
X78819375Y-109402500D01*
X78676500Y-109545375D01*
X78295500Y-109545375D01*
X78152625Y-109402500D01*
X77747321Y-109402500D01*
X77537271Y-109489506D01*
X77376506Y-109650272D01*
X77289500Y-109860322D01*
X77247117Y-109860322D01*
X77312703Y-109794851D01*
X77467324Y-109422482D01*
X77467676Y-109019287D01*
X77390621Y-108832801D01*
X77592338Y-108631084D01*
X77592338Y-108974000D01*
X77610712Y-109071647D01*
X77668421Y-109161330D01*
X77756475Y-109221495D01*
X77861000Y-109242662D01*
X79111000Y-109242662D01*
X79208647Y-109224288D01*
X79298330Y-109166579D01*
X79358495Y-109078525D01*
X79379662Y-108974000D01*
X79379662Y-107474000D01*
X79361288Y-107376353D01*
X79326635Y-107322500D01*
X81373078Y-107322500D01*
X81431338Y-107380760D01*
X81431338Y-108800000D01*
X81449712Y-108897647D01*
X81507421Y-108987330D01*
X81595475Y-109047495D01*
X81700000Y-109068662D01*
X83400000Y-109068662D01*
X83497647Y-109050288D01*
X83587330Y-108992579D01*
X83647495Y-108904525D01*
X83668662Y-108800000D01*
X83668662Y-107100000D01*
X83650288Y-107002353D01*
X83592579Y-106912670D01*
X83504525Y-106852505D01*
X83400000Y-106831338D01*
X81980760Y-106831338D01*
X81808711Y-106659289D01*
X81682673Y-106575073D01*
X81534000Y-106545500D01*
X78138922Y-106545500D01*
X77017488Y-105424066D01*
X77017598Y-105298405D01*
X76931991Y-105091220D01*
X76773614Y-104932566D01*
X76566579Y-104846598D01*
X76342405Y-104846402D01*
X76135220Y-104932009D01*
X75976566Y-105090386D01*
X75890598Y-105297421D01*
X75890402Y-105521595D01*
X75976009Y-105728780D01*
X76134386Y-105887434D01*
X76341421Y-105973402D01*
X76468091Y-105973513D01*
X77703289Y-107208711D01*
X77744192Y-107236042D01*
X77673670Y-107281421D01*
X77613505Y-107369475D01*
X77592338Y-107474000D01*
X77592338Y-107835500D01*
X77450000Y-107835500D01*
X77301328Y-107865072D01*
X77175289Y-107949289D01*
X76841200Y-108283378D01*
X76656482Y-108206676D01*
X76253287Y-108206324D01*
X75880648Y-108360295D01*
X75595297Y-108645149D01*
X75440676Y-109017518D01*
X75440324Y-109420713D01*
X74048500Y-109420713D01*
X74048500Y-108966000D01*
X74018927Y-108817327D01*
X73934711Y-108691289D01*
X71508500Y-106265078D01*
X71508500Y-104729392D01*
X71617157Y-104892008D01*
X71962181Y-105122546D01*
X72369165Y-105203500D01*
X72410835Y-105203500D01*
X72817819Y-105122546D01*
X73162843Y-104892008D01*
X73393381Y-104546984D01*
X73474335Y-104140000D01*
X73393381Y-103733016D01*
X73162843Y-103387992D01*
X72817819Y-103157454D01*
X72410835Y-103076500D01*
X72369165Y-103076500D01*
X71962181Y-103157454D01*
X71617157Y-103387992D01*
X71508500Y-103550608D01*
X71508500Y-102189392D01*
X71617157Y-102352008D01*
X71962181Y-102582546D01*
X72369165Y-102663500D01*
X72410835Y-102663500D01*
X72817819Y-102582546D01*
X73162843Y-102352008D01*
X73393381Y-102006984D01*
X73474335Y-101600000D01*
X73393381Y-101193016D01*
X73162843Y-100847992D01*
X72817819Y-100617454D01*
X72410835Y-100536500D01*
X72369165Y-100536500D01*
X71962181Y-100617454D01*
X71617157Y-100847992D01*
X71508500Y-101010608D01*
X71508500Y-99649392D01*
X71617157Y-99812008D01*
X71962181Y-100042546D01*
X72369165Y-100123500D01*
X72410835Y-100123500D01*
X72471791Y-100111375D01*
X73508500Y-100111375D01*
X73508500Y-101541678D01*
X73595506Y-101751728D01*
X73756271Y-101912494D01*
X73966321Y-101999500D01*
X74596625Y-101999500D01*
X74739500Y-101856625D01*
X74739500Y-99968500D01*
X75120500Y-99968500D01*
X75120500Y-101856625D01*
X75263375Y-101999500D01*
X75893679Y-101999500D01*
X76103729Y-101912494D01*
X76200000Y-101816222D01*
X76296271Y-101912494D01*
X76506321Y-101999500D01*
X77136625Y-101999500D01*
X77279500Y-101856625D01*
X77279500Y-99968500D01*
X77660500Y-99968500D01*
X77660500Y-101856625D01*
X77803375Y-101999500D01*
X78433679Y-101999500D01*
X78643729Y-101912494D01*
X78804494Y-101751728D01*
X78867342Y-101600000D01*
X78925665Y-101600000D01*
X79006619Y-102006984D01*
X79237157Y-102352008D01*
X79582181Y-102582546D01*
X79989165Y-102663500D01*
X80030835Y-102663500D01*
X80437819Y-102582546D01*
X80764500Y-102364264D01*
X80764500Y-103375736D01*
X80437819Y-103157454D01*
X80030835Y-103076500D01*
X79989165Y-103076500D01*
X79582181Y-103157454D01*
X79237157Y-103387992D01*
X79006619Y-103733016D01*
X78925665Y-104140000D01*
X79006619Y-104546984D01*
X79237157Y-104892008D01*
X79582181Y-105122546D01*
X79989165Y-105203500D01*
X80030835Y-105203500D01*
X80437819Y-105122546D01*
X80764500Y-104904264D01*
X80764500Y-105382607D01*
X80675566Y-105471386D01*
X80589598Y-105678421D01*
X80589402Y-105902595D01*
X80675009Y-106109780D01*
X80833386Y-106268434D01*
X81040421Y-106354402D01*
X81264595Y-106354598D01*
X81471780Y-106268991D01*
X81630434Y-106110614D01*
X81716402Y-105903579D01*
X81716598Y-105679405D01*
X81630991Y-105472220D01*
X81541500Y-105382572D01*
X81541500Y-105200615D01*
X81595475Y-105237495D01*
X81700000Y-105258662D01*
X83400000Y-105258662D01*
X83497647Y-105240288D01*
X83587330Y-105182579D01*
X83647495Y-105094525D01*
X83668662Y-104990000D01*
X83668662Y-103290000D01*
X83650288Y-103192353D01*
X83592579Y-103102670D01*
X83504525Y-103042505D01*
X83400000Y-103021338D01*
X81700000Y-103021338D01*
X81602353Y-103039712D01*
X81541500Y-103078870D01*
X81541500Y-102089058D01*
X81740822Y-102387363D01*
X82102067Y-102628740D01*
X82528185Y-102713500D01*
X82571815Y-102713500D01*
X82997933Y-102628740D01*
X83359178Y-102387363D01*
X83600555Y-102026118D01*
X83685315Y-101600000D01*
X83600555Y-101173882D01*
X83359178Y-100812637D01*
X82997933Y-100571260D01*
X82571815Y-100486500D01*
X82528185Y-100486500D01*
X82102067Y-100571260D01*
X81740822Y-100812637D01*
X81541500Y-101110942D01*
X81541500Y-100617922D01*
X82083253Y-100076169D01*
X82102067Y-100088740D01*
X82528185Y-100173500D01*
X82571815Y-100173500D01*
X82997933Y-100088740D01*
X83359178Y-99847363D01*
X83600555Y-99486118D01*
X83685315Y-99060000D01*
X83600555Y-98633882D01*
X83359178Y-98272637D01*
X82997933Y-98031260D01*
X82571815Y-97946500D01*
X82528185Y-97946500D01*
X82102067Y-98031260D01*
X81740822Y-98272637D01*
X81499445Y-98633882D01*
X81414685Y-99060000D01*
X81499445Y-99486118D01*
X81529492Y-99531086D01*
X80878289Y-100182289D01*
X80794073Y-100308327D01*
X80764500Y-100457000D01*
X80764500Y-100835736D01*
X80437819Y-100617454D01*
X80030835Y-100536500D01*
X79989165Y-100536500D01*
X79582181Y-100617454D01*
X79237157Y-100847992D01*
X79006619Y-101193016D01*
X78925665Y-101600000D01*
X78867342Y-101600000D01*
X78891500Y-101541678D01*
X78891500Y-100111375D01*
X78748625Y-99968500D01*
X77660500Y-99968500D01*
X77279500Y-99968500D01*
X75120500Y-99968500D01*
X74739500Y-99968500D01*
X73651375Y-99968500D01*
X73508500Y-100111375D01*
X72471791Y-100111375D01*
X72817819Y-100042546D01*
X73162843Y-99812008D01*
X73393381Y-99466984D01*
X73474335Y-99060000D01*
X73393381Y-98653016D01*
X73162843Y-98307992D01*
X72817819Y-98077454D01*
X72500433Y-98014322D01*
X73508500Y-98014322D01*
X73508500Y-99444625D01*
X73651375Y-99587500D01*
X74739500Y-99587500D01*
X74739500Y-97699375D01*
X75120500Y-97699375D01*
X75120500Y-99587500D01*
X77279500Y-99587500D01*
X77279500Y-97699375D01*
X77660500Y-97699375D01*
X77660500Y-99587500D01*
X78748625Y-99587500D01*
X78891500Y-99444625D01*
X78891500Y-99060000D01*
X78925665Y-99060000D01*
X79006619Y-99466984D01*
X79237157Y-99812008D01*
X79582181Y-100042546D01*
X79989165Y-100123500D01*
X80030835Y-100123500D01*
X80437819Y-100042546D01*
X80782843Y-99812008D01*
X81013381Y-99466984D01*
X81094335Y-99060000D01*
X81013381Y-98653016D01*
X80782843Y-98307992D01*
X80437819Y-98077454D01*
X80030835Y-97996500D01*
X79989165Y-97996500D01*
X79582181Y-98077454D01*
X79237157Y-98307992D01*
X79006619Y-98653016D01*
X78925665Y-99060000D01*
X78891500Y-99060000D01*
X78891500Y-98014322D01*
X78804494Y-97804272D01*
X78643729Y-97643506D01*
X78433679Y-97556500D01*
X77803375Y-97556500D01*
X77660500Y-97699375D01*
X77279500Y-97699375D01*
X77136625Y-97556500D01*
X76506321Y-97556500D01*
X76296271Y-97643506D01*
X76200000Y-97739778D01*
X76103729Y-97643506D01*
X75893679Y-97556500D01*
X75263375Y-97556500D01*
X75120500Y-97699375D01*
X74739500Y-97699375D01*
X74596625Y-97556500D01*
X73966321Y-97556500D01*
X73756271Y-97643506D01*
X73595506Y-97804272D01*
X73508500Y-98014322D01*
X72500433Y-98014322D01*
X72410835Y-97996500D01*
X72369165Y-97996500D01*
X71962181Y-98077454D01*
X71617157Y-98307992D01*
X71508500Y-98470608D01*
X71508500Y-97109392D01*
X71617157Y-97272008D01*
X71962181Y-97502546D01*
X72369165Y-97583500D01*
X72410835Y-97583500D01*
X72817819Y-97502546D01*
X73162843Y-97272008D01*
X73393381Y-96926984D01*
X73474335Y-96520000D01*
X78925665Y-96520000D01*
X79006619Y-96926984D01*
X79237157Y-97272008D01*
X79582181Y-97502546D01*
X79989165Y-97583500D01*
X80030835Y-97583500D01*
X80437819Y-97502546D01*
X80782843Y-97272008D01*
X81013381Y-96926984D01*
X81094335Y-96520000D01*
X81414685Y-96520000D01*
X81499445Y-96946118D01*
X81740822Y-97307363D01*
X82102067Y-97548740D01*
X82528185Y-97633500D01*
X82571815Y-97633500D01*
X82997933Y-97548740D01*
X83359178Y-97307363D01*
X83600555Y-96946118D01*
X83685315Y-96520000D01*
X83600555Y-96093882D01*
X83359178Y-95732637D01*
X82997933Y-95491260D01*
X82571815Y-95406500D01*
X82528185Y-95406500D01*
X82102067Y-95491260D01*
X81740822Y-95732637D01*
X81499445Y-96093882D01*
X81414685Y-96520000D01*
X81094335Y-96520000D01*
X81013381Y-96113016D01*
X80782843Y-95767992D01*
X80437819Y-95537454D01*
X80030835Y-95456500D01*
X79989165Y-95456500D01*
X79582181Y-95537454D01*
X79237157Y-95767992D01*
X79006619Y-96113016D01*
X78925665Y-96520000D01*
X73474335Y-96520000D01*
X73393381Y-96113016D01*
X73162843Y-95767992D01*
X72817819Y-95537454D01*
X72410835Y-95456500D01*
X72369165Y-95456500D01*
X71962181Y-95537454D01*
X71617157Y-95767992D01*
X71508500Y-95930608D01*
X71508500Y-94569392D01*
X71617157Y-94732008D01*
X71962181Y-94962546D01*
X72369165Y-95043500D01*
X72410835Y-95043500D01*
X72817819Y-94962546D01*
X73162843Y-94732008D01*
X73393381Y-94386984D01*
X73474335Y-93980000D01*
X73393381Y-93573016D01*
X73162843Y-93227992D01*
X72817819Y-92997454D01*
X72410835Y-92916500D01*
X72369165Y-92916500D01*
X71962181Y-92997454D01*
X71617157Y-93227992D01*
X71508500Y-93390608D01*
X71508500Y-92029392D01*
X71617157Y-92192008D01*
X71962181Y-92422546D01*
X72369165Y-92503500D01*
X72410835Y-92503500D01*
X72817819Y-92422546D01*
X73162843Y-92192008D01*
X73393381Y-91846984D01*
X73474335Y-91440000D01*
X73393381Y-91033016D01*
X73162843Y-90687992D01*
X72817819Y-90457454D01*
X72410835Y-90376500D01*
X72369165Y-90376500D01*
X71962181Y-90457454D01*
X71617157Y-90687992D01*
X71508500Y-90850608D01*
X71508500Y-89947035D01*
X71517904Y-89958538D01*
X71989373Y-90211698D01*
X72199500Y-90115346D01*
X72199500Y-89090500D01*
X72580500Y-89090500D01*
X72580500Y-90115346D01*
X72790627Y-90211698D01*
X73262096Y-89958538D01*
X73600797Y-89544225D01*
X73701682Y-89300625D01*
X73603767Y-89090500D01*
X72580500Y-89090500D01*
X72199500Y-89090500D01*
X72179500Y-89090500D01*
X72179500Y-88709500D01*
X72199500Y-88709500D01*
X72199500Y-87684654D01*
X72580500Y-87684654D01*
X72580500Y-88709500D01*
X73603767Y-88709500D01*
X73701682Y-88499375D01*
X73600797Y-88255775D01*
X73262096Y-87841462D01*
X72790627Y-87588302D01*
X72580500Y-87684654D01*
X72199500Y-87684654D01*
X71989373Y-87588302D01*
X71517904Y-87841462D01*
X71508500Y-87852965D01*
X71508500Y-86949392D01*
X71617157Y-87112008D01*
X71962181Y-87342546D01*
X72369165Y-87423500D01*
X72410835Y-87423500D01*
X72817819Y-87342546D01*
X73162843Y-87112008D01*
X73393381Y-86766984D01*
X73474335Y-86360000D01*
X73393381Y-85953016D01*
X73162843Y-85607992D01*
X72817819Y-85377454D01*
X72410835Y-85296500D01*
X72369165Y-85296500D01*
X71962181Y-85377454D01*
X71617157Y-85607992D01*
X71508500Y-85770608D01*
X71508500Y-84409392D01*
X71617157Y-84572008D01*
X71962181Y-84802546D01*
X72369165Y-84883500D01*
X72410835Y-84883500D01*
X72817819Y-84802546D01*
X73162843Y-84572008D01*
X73393381Y-84226984D01*
X73397058Y-84208500D01*
X73831338Y-84208500D01*
X73831338Y-84470000D01*
X73849712Y-84567647D01*
X73907421Y-84657330D01*
X73995475Y-84717495D01*
X74100000Y-84738662D01*
X75600000Y-84738662D01*
X75615498Y-84735746D01*
X75615498Y-92359338D01*
X74080000Y-92359338D01*
X73982353Y-92377712D01*
X73892670Y-92435421D01*
X73832505Y-92523475D01*
X73811338Y-92628000D01*
X73811338Y-95928000D01*
X73829712Y-96025647D01*
X73887421Y-96115330D01*
X73975475Y-96175495D01*
X74080000Y-96196662D01*
X75780000Y-96196662D01*
X75877647Y-96178288D01*
X75967330Y-96120579D01*
X76027495Y-96032525D01*
X76048662Y-95928000D01*
X76048662Y-93708760D01*
X76200000Y-93557422D01*
X76351338Y-93708760D01*
X76351338Y-95928000D01*
X76369712Y-96025647D01*
X76427421Y-96115330D01*
X76515475Y-96175495D01*
X76620000Y-96196662D01*
X78320000Y-96196662D01*
X78417647Y-96178288D01*
X78507330Y-96120579D01*
X78567495Y-96032525D01*
X78588662Y-95928000D01*
X78588662Y-93980000D01*
X78925665Y-93980000D01*
X79006619Y-94386984D01*
X79237157Y-94732008D01*
X79582181Y-94962546D01*
X79989165Y-95043500D01*
X80030835Y-95043500D01*
X80437819Y-94962546D01*
X80782843Y-94732008D01*
X81013381Y-94386984D01*
X81094335Y-93980000D01*
X81414685Y-93980000D01*
X81499445Y-94406118D01*
X81740822Y-94767363D01*
X82102067Y-95008740D01*
X82528185Y-95093500D01*
X82571815Y-95093500D01*
X82997933Y-95008740D01*
X83359178Y-94767363D01*
X83600555Y-94406118D01*
X83685315Y-93980000D01*
X83600555Y-93553882D01*
X83359178Y-93192637D01*
X82997933Y-92951260D01*
X82571815Y-92866500D01*
X82528185Y-92866500D01*
X82102067Y-92951260D01*
X81740822Y-93192637D01*
X81499445Y-93553882D01*
X81414685Y-93980000D01*
X81094335Y-93980000D01*
X81013381Y-93573016D01*
X80782843Y-93227992D01*
X80437819Y-92997454D01*
X80030835Y-92916500D01*
X79989165Y-92916500D01*
X79582181Y-92997454D01*
X79237157Y-93227992D01*
X79006619Y-93573016D01*
X78925665Y-93980000D01*
X78588662Y-93980000D01*
X78588662Y-92628000D01*
X78570288Y-92530353D01*
X78512579Y-92440670D01*
X78424525Y-92380505D01*
X78320000Y-92359338D01*
X76842500Y-92359338D01*
X76842500Y-91440000D01*
X78925665Y-91440000D01*
X79006619Y-91846984D01*
X79237157Y-92192008D01*
X79582181Y-92422546D01*
X79989165Y-92503500D01*
X80030835Y-92503500D01*
X80437819Y-92422546D01*
X80782843Y-92192008D01*
X81013381Y-91846984D01*
X81094335Y-91440000D01*
X81414685Y-91440000D01*
X81499445Y-91866118D01*
X81740822Y-92227363D01*
X82102067Y-92468740D01*
X82528185Y-92553500D01*
X82571815Y-92553500D01*
X82997933Y-92468740D01*
X83359178Y-92227363D01*
X83600555Y-91866118D01*
X83685315Y-91440000D01*
X83600555Y-91013882D01*
X83359178Y-90652637D01*
X82997933Y-90411260D01*
X82571815Y-90326500D01*
X82528185Y-90326500D01*
X82102067Y-90411260D01*
X81740822Y-90652637D01*
X81499445Y-91013882D01*
X81414685Y-91440000D01*
X81094335Y-91440000D01*
X81013381Y-91033016D01*
X80782843Y-90687992D01*
X80437819Y-90457454D01*
X80030835Y-90376500D01*
X79989165Y-90376500D01*
X79582181Y-90457454D01*
X79237157Y-90687992D01*
X79006619Y-91033016D01*
X78925665Y-91440000D01*
X76842500Y-91440000D01*
X76842500Y-88900000D01*
X78925665Y-88900000D01*
X79006619Y-89306984D01*
X79237157Y-89652008D01*
X79582181Y-89882546D01*
X79989165Y-89963500D01*
X80030835Y-89963500D01*
X80437819Y-89882546D01*
X80782843Y-89652008D01*
X81013381Y-89306984D01*
X81094335Y-88900000D01*
X81414685Y-88900000D01*
X81499445Y-89326118D01*
X81740822Y-89687363D01*
X82102067Y-89928740D01*
X82528185Y-90013500D01*
X82571815Y-90013500D01*
X82997933Y-89928740D01*
X83359178Y-89687363D01*
X83600555Y-89326118D01*
X83685315Y-88900000D01*
X83600555Y-88473882D01*
X83359178Y-88112637D01*
X82997933Y-87871260D01*
X82571815Y-87786500D01*
X82528185Y-87786500D01*
X82102067Y-87871260D01*
X81740822Y-88112637D01*
X81499445Y-88473882D01*
X81414685Y-88900000D01*
X81094335Y-88900000D01*
X81013381Y-88493016D01*
X80782843Y-88147992D01*
X80437819Y-87917454D01*
X80030835Y-87836500D01*
X79989165Y-87836500D01*
X79582181Y-87917454D01*
X79237157Y-88147992D01*
X79006619Y-88493016D01*
X78925665Y-88900000D01*
X76842500Y-88900000D01*
X76842500Y-86760625D01*
X78698318Y-86760625D01*
X78799203Y-87004225D01*
X79137904Y-87418538D01*
X79609373Y-87671698D01*
X79819500Y-87575346D01*
X79819500Y-86550500D01*
X80200500Y-86550500D01*
X80200500Y-87575346D01*
X80410627Y-87671698D01*
X80882096Y-87418538D01*
X81220797Y-87004225D01*
X81253440Y-86925404D01*
X81298370Y-87033891D01*
X81651532Y-87461572D01*
X82141477Y-87721549D01*
X82359500Y-87625818D01*
X82359500Y-86550500D01*
X81285646Y-86550500D01*
X81255394Y-86618371D01*
X81223767Y-86550500D01*
X80200500Y-86550500D01*
X79819500Y-86550500D01*
X78796233Y-86550500D01*
X78698318Y-86760625D01*
X76842500Y-86760625D01*
X76842500Y-85959375D01*
X78698318Y-85959375D01*
X78796233Y-86169500D01*
X79819500Y-86169500D01*
X79819500Y-85144654D01*
X80200500Y-85144654D01*
X80200500Y-86169500D01*
X81223767Y-86169500D01*
X81255394Y-86101629D01*
X81285646Y-86169500D01*
X82359500Y-86169500D01*
X82359500Y-85094182D01*
X82141477Y-84998451D01*
X81651532Y-85258428D01*
X81298370Y-85686109D01*
X81253440Y-85794596D01*
X81220797Y-85715775D01*
X80882096Y-85301462D01*
X80410627Y-85048302D01*
X80200500Y-85144654D01*
X79819500Y-85144654D01*
X79609373Y-85048302D01*
X79137904Y-85301462D01*
X78799203Y-85715775D01*
X78698318Y-85959375D01*
X76842500Y-85959375D01*
X76842500Y-84738662D01*
X78300000Y-84738662D01*
X78397647Y-84720288D01*
X78487330Y-84662579D01*
X78547495Y-84574525D01*
X78568662Y-84470000D01*
X78568662Y-83820000D01*
X78925665Y-83820000D01*
X79006619Y-84226984D01*
X79237157Y-84572008D01*
X79582181Y-84802546D01*
X79989165Y-84883500D01*
X80030835Y-84883500D01*
X80437819Y-84802546D01*
X80782843Y-84572008D01*
X81013381Y-84226984D01*
X81094335Y-83820000D01*
X81414685Y-83820000D01*
X81499445Y-84246118D01*
X81740822Y-84607363D01*
X82102067Y-84848740D01*
X82528185Y-84933500D01*
X82571815Y-84933500D01*
X82997933Y-84848740D01*
X83359178Y-84607363D01*
X83600555Y-84246118D01*
X83685315Y-83820000D01*
X83600555Y-83393882D01*
X83359178Y-83032637D01*
X82997933Y-82791260D01*
X82571815Y-82706500D01*
X82528185Y-82706500D01*
X82102067Y-82791260D01*
X81740822Y-83032637D01*
X81499445Y-83393882D01*
X81414685Y-83820000D01*
X81094335Y-83820000D01*
X81013381Y-83413016D01*
X80782843Y-83067992D01*
X80437819Y-82837454D01*
X80030835Y-82756500D01*
X79989165Y-82756500D01*
X79582181Y-82837454D01*
X79237157Y-83067992D01*
X79006619Y-83413016D01*
X78925665Y-83820000D01*
X78568662Y-83820000D01*
X78568662Y-83170000D01*
X78550288Y-83072353D01*
X78492579Y-82982670D01*
X78404525Y-82922505D01*
X78300000Y-82901338D01*
X77938500Y-82901338D01*
X77938500Y-82198662D01*
X78300000Y-82198662D01*
X78397647Y-82180288D01*
X78487330Y-82122579D01*
X78547495Y-82034525D01*
X78568662Y-81930000D01*
X78568662Y-81280000D01*
X78925665Y-81280000D01*
X79006619Y-81686984D01*
X79237157Y-82032008D01*
X79582181Y-82262546D01*
X79989165Y-82343500D01*
X80030835Y-82343500D01*
X80437819Y-82262546D01*
X80782843Y-82032008D01*
X81013381Y-81686984D01*
X81094335Y-81280000D01*
X81414685Y-81280000D01*
X81499445Y-81706118D01*
X81740822Y-82067363D01*
X82102067Y-82308740D01*
X82528185Y-82393500D01*
X82571815Y-82393500D01*
X82997933Y-82308740D01*
X83359178Y-82067363D01*
X83600555Y-81706118D01*
X83685315Y-81280000D01*
X83600555Y-80853882D01*
X83359178Y-80492637D01*
X82997933Y-80251260D01*
X82571815Y-80166500D01*
X82528185Y-80166500D01*
X82102067Y-80251260D01*
X81740822Y-80492637D01*
X81499445Y-80853882D01*
X81414685Y-81280000D01*
X81094335Y-81280000D01*
X81013381Y-80873016D01*
X80782843Y-80527992D01*
X80437819Y-80297454D01*
X80030835Y-80216500D01*
X79989165Y-80216500D01*
X79582181Y-80297454D01*
X79237157Y-80527992D01*
X79006619Y-80873016D01*
X78925665Y-81280000D01*
X78568662Y-81280000D01*
X78568662Y-80630000D01*
X78550288Y-80532353D01*
X78492579Y-80442670D01*
X78404525Y-80382505D01*
X78300000Y-80361338D01*
X77916687Y-80361338D01*
X77908927Y-80322327D01*
X77824711Y-80196289D01*
X77779488Y-80151066D01*
X77779598Y-80025405D01*
X77693991Y-79818220D01*
X77535614Y-79659566D01*
X77533437Y-79658662D01*
X78300000Y-79658662D01*
X78397647Y-79640288D01*
X78487330Y-79582579D01*
X78547495Y-79494525D01*
X78568662Y-79390000D01*
X78568662Y-78740000D01*
X78925665Y-78740000D01*
X79006619Y-79146984D01*
X79237157Y-79492008D01*
X79582181Y-79722546D01*
X79989165Y-79803500D01*
X80030835Y-79803500D01*
X80437819Y-79722546D01*
X80782843Y-79492008D01*
X81013381Y-79146984D01*
X81094335Y-78740000D01*
X81414685Y-78740000D01*
X81499445Y-79166118D01*
X81740822Y-79527363D01*
X82102067Y-79768740D01*
X82528185Y-79853500D01*
X82571815Y-79853500D01*
X82997933Y-79768740D01*
X83359178Y-79527363D01*
X83600555Y-79166118D01*
X83685315Y-78740000D01*
X83600555Y-78313882D01*
X83359178Y-77952637D01*
X82997933Y-77711260D01*
X82571815Y-77626500D01*
X82528185Y-77626500D01*
X82102067Y-77711260D01*
X81740822Y-77952637D01*
X81499445Y-78313882D01*
X81414685Y-78740000D01*
X81094335Y-78740000D01*
X81013381Y-78333016D01*
X80782843Y-77987992D01*
X80437819Y-77757454D01*
X80030835Y-77676500D01*
X79989165Y-77676500D01*
X79582181Y-77757454D01*
X79237157Y-77987992D01*
X79006619Y-78333016D01*
X78925665Y-78740000D01*
X78568662Y-78740000D01*
X78568662Y-78090000D01*
X78550288Y-77992353D01*
X78492579Y-77902670D01*
X78404525Y-77842505D01*
X78300000Y-77821338D01*
X77938500Y-77821338D01*
X77938500Y-77118662D01*
X78300000Y-77118662D01*
X78397647Y-77100288D01*
X78487330Y-77042579D01*
X78547495Y-76954525D01*
X78568662Y-76850000D01*
X78568662Y-76200000D01*
X78925665Y-76200000D01*
X79006619Y-76606984D01*
X79237157Y-76952008D01*
X79582181Y-77182546D01*
X79989165Y-77263500D01*
X80030835Y-77263500D01*
X80437819Y-77182546D01*
X80782843Y-76952008D01*
X81013381Y-76606984D01*
X81094335Y-76200000D01*
X81414685Y-76200000D01*
X81499445Y-76626118D01*
X81740822Y-76987363D01*
X82102067Y-77228740D01*
X82528185Y-77313500D01*
X82571815Y-77313500D01*
X82997933Y-77228740D01*
X83359178Y-76987363D01*
X83600555Y-76626118D01*
X83685315Y-76200000D01*
X83600555Y-75773882D01*
X83359178Y-75412637D01*
X82997933Y-75171260D01*
X82571815Y-75086500D01*
X82528185Y-75086500D01*
X82102067Y-75171260D01*
X81740822Y-75412637D01*
X81499445Y-75773882D01*
X81414685Y-76200000D01*
X81094335Y-76200000D01*
X81013381Y-75793016D01*
X80782843Y-75447992D01*
X80437819Y-75217454D01*
X80030835Y-75136500D01*
X79989165Y-75136500D01*
X79582181Y-75217454D01*
X79237157Y-75447992D01*
X79006619Y-75793016D01*
X78925665Y-76200000D01*
X78568662Y-76200000D01*
X78568662Y-75550000D01*
X78550288Y-75452353D01*
X78492579Y-75362670D01*
X78404525Y-75302505D01*
X78300000Y-75281338D01*
X76846760Y-75281338D01*
X76255488Y-74690066D01*
X76255598Y-74564405D01*
X76169991Y-74357220D01*
X76011614Y-74198566D01*
X75804579Y-74112598D01*
X75580405Y-74112402D01*
X75373220Y-74198009D01*
X75214566Y-74356386D01*
X75128598Y-74563421D01*
X75128402Y-74787595D01*
X75207282Y-74978500D01*
X75183375Y-74978500D01*
X75040500Y-75121375D01*
X75040500Y-76009500D01*
X76028625Y-76009500D01*
X76171500Y-75866625D01*
X76171500Y-75704922D01*
X76531338Y-76064760D01*
X76531338Y-76850000D01*
X76549712Y-76947647D01*
X76607421Y-77037330D01*
X76695475Y-77097495D01*
X76800000Y-77118662D01*
X77161500Y-77118662D01*
X77161500Y-77821338D01*
X76800000Y-77821338D01*
X76702353Y-77839712D01*
X76612670Y-77897421D01*
X76552505Y-77985475D01*
X76531338Y-78090000D01*
X76531338Y-79390000D01*
X76549712Y-79487647D01*
X76607421Y-79577330D01*
X76695475Y-79637495D01*
X76800000Y-79658662D01*
X76898060Y-79658662D01*
X76897220Y-79659009D01*
X76738566Y-79817386D01*
X76685238Y-79945816D01*
X75868662Y-79129240D01*
X75868662Y-78090000D01*
X75850288Y-77992353D01*
X75792579Y-77902670D01*
X75704525Y-77842505D01*
X75600000Y-77821338D01*
X74100000Y-77821338D01*
X74002353Y-77839712D01*
X73912670Y-77897421D01*
X73852505Y-77985475D01*
X73831338Y-78090000D01*
X73831338Y-78351500D01*
X73397058Y-78351500D01*
X73393381Y-78333016D01*
X73162843Y-77987992D01*
X72817819Y-77757454D01*
X72410835Y-77676500D01*
X72369165Y-77676500D01*
X71962181Y-77757454D01*
X71617157Y-77987992D01*
X71508500Y-78150608D01*
X71508500Y-76789392D01*
X71617157Y-76952008D01*
X71962181Y-77182546D01*
X72369165Y-77263500D01*
X72410835Y-77263500D01*
X72817819Y-77182546D01*
X73162843Y-76952008D01*
X73393381Y-76606984D01*
X73408022Y-76533375D01*
X73528500Y-76533375D01*
X73528500Y-76963679D01*
X73615506Y-77173729D01*
X73776272Y-77334494D01*
X73986322Y-77421500D01*
X74516625Y-77421500D01*
X74659500Y-77278625D01*
X74659500Y-76390500D01*
X75040500Y-76390500D01*
X75040500Y-77278625D01*
X75183375Y-77421500D01*
X75713678Y-77421500D01*
X75923728Y-77334494D01*
X76084494Y-77173729D01*
X76171500Y-76963679D01*
X76171500Y-76533375D01*
X76028625Y-76390500D01*
X75040500Y-76390500D01*
X74659500Y-76390500D01*
X73671375Y-76390500D01*
X73528500Y-76533375D01*
X73408022Y-76533375D01*
X73474335Y-76200000D01*
X73393381Y-75793016D01*
X73162843Y-75447992D01*
X73145377Y-75436321D01*
X73528500Y-75436321D01*
X73528500Y-75866625D01*
X73671375Y-76009500D01*
X74659500Y-76009500D01*
X74659500Y-75121375D01*
X74516625Y-74978500D01*
X73986322Y-74978500D01*
X73776272Y-75065506D01*
X73615506Y-75226271D01*
X73528500Y-75436321D01*
X73145377Y-75436321D01*
X72817819Y-75217454D01*
X72410835Y-75136500D01*
X72369165Y-75136500D01*
X71962181Y-75217454D01*
X71617157Y-75447992D01*
X71508500Y-75610608D01*
X71508500Y-74249392D01*
X71617157Y-74412008D01*
X71962181Y-74642546D01*
X72369165Y-74723500D01*
X72410835Y-74723500D01*
X72817819Y-74642546D01*
X73162843Y-74412008D01*
X73393381Y-74066984D01*
X73474335Y-73660000D01*
X78925665Y-73660000D01*
X79006619Y-74066984D01*
X79237157Y-74412008D01*
X79582181Y-74642546D01*
X79989165Y-74723500D01*
X80030835Y-74723500D01*
X80437819Y-74642546D01*
X80782843Y-74412008D01*
X81013381Y-74066984D01*
X81094335Y-73660000D01*
X81414685Y-73660000D01*
X81499445Y-74086118D01*
X81740822Y-74447363D01*
X82102067Y-74688740D01*
X82528185Y-74773500D01*
X82571815Y-74773500D01*
X82997933Y-74688740D01*
X83359178Y-74447363D01*
X83600555Y-74086118D01*
X83685315Y-73660000D01*
X83600555Y-73233882D01*
X83359178Y-72872637D01*
X82997933Y-72631260D01*
X82571815Y-72546500D01*
X82528185Y-72546500D01*
X82102067Y-72631260D01*
X81740822Y-72872637D01*
X81499445Y-73233882D01*
X81414685Y-73660000D01*
X81094335Y-73660000D01*
X81013381Y-73253016D01*
X80782843Y-72907992D01*
X80437819Y-72677454D01*
X80030835Y-72596500D01*
X79989165Y-72596500D01*
X79582181Y-72677454D01*
X79237157Y-72907992D01*
X79006619Y-73253016D01*
X78925665Y-73660000D01*
X73474335Y-73660000D01*
X73393381Y-73253016D01*
X73162843Y-72907992D01*
X72817819Y-72677454D01*
X72410835Y-72596500D01*
X72369165Y-72596500D01*
X71962181Y-72677454D01*
X71617157Y-72907992D01*
X71508500Y-73070608D01*
X71508500Y-72172158D01*
X71590000Y-72188662D01*
X73190000Y-72188662D01*
X73287647Y-72170288D01*
X73377330Y-72112579D01*
X73437495Y-72024525D01*
X73458662Y-71920000D01*
X73458662Y-71120000D01*
X78925665Y-71120000D01*
X79006619Y-71526984D01*
X79237157Y-71872008D01*
X79582181Y-72102546D01*
X79989165Y-72183500D01*
X80030835Y-72183500D01*
X80437819Y-72102546D01*
X80782843Y-71872008D01*
X81013381Y-71526984D01*
X81094335Y-71120000D01*
X81414685Y-71120000D01*
X81499445Y-71546118D01*
X81740822Y-71907363D01*
X82102067Y-72148740D01*
X82528185Y-72233500D01*
X82571815Y-72233500D01*
X82997933Y-72148740D01*
X83359178Y-71907363D01*
X83600555Y-71546118D01*
X83685315Y-71120000D01*
X83600555Y-70693882D01*
X83359178Y-70332637D01*
X82997933Y-70091260D01*
X82571815Y-70006500D01*
X82528185Y-70006500D01*
X82102067Y-70091260D01*
X81740822Y-70332637D01*
X81499445Y-70693882D01*
X81414685Y-71120000D01*
X81094335Y-71120000D01*
X81013381Y-70713016D01*
X80782843Y-70367992D01*
X80437819Y-70137454D01*
X80030835Y-70056500D01*
X79989165Y-70056500D01*
X79582181Y-70137454D01*
X79237157Y-70367992D01*
X79006619Y-70713016D01*
X78925665Y-71120000D01*
X73458662Y-71120000D01*
X73458662Y-70503546D01*
X73547421Y-70540402D01*
X73771595Y-70540598D01*
X73978780Y-70454991D01*
X74137434Y-70296614D01*
X74223402Y-70089579D01*
X74223598Y-69865405D01*
X74220332Y-69857500D01*
X75464060Y-69857500D01*
X75579421Y-69905402D01*
X75803595Y-69905598D01*
X76010780Y-69819991D01*
X76169434Y-69661614D01*
X76255402Y-69454579D01*
X76255598Y-69230405D01*
X76169991Y-69023220D01*
X76011614Y-68864566D01*
X75804579Y-68778598D01*
X75580405Y-68778402D01*
X75373220Y-68864009D01*
X75214566Y-69022386D01*
X75190435Y-69080500D01*
X73927922Y-69080500D01*
X73118118Y-68270696D01*
X73134662Y-68189000D01*
X73134662Y-66939000D01*
X73116288Y-66841353D01*
X73058579Y-66751670D01*
X72970525Y-66691505D01*
X72866000Y-66670338D01*
X71366000Y-66670338D01*
X71268353Y-66688712D01*
X71178670Y-66746421D01*
X71118505Y-66834475D01*
X71097338Y-66939000D01*
X71097338Y-68189000D01*
X71115712Y-68286647D01*
X71173421Y-68376330D01*
X71261475Y-68436495D01*
X71366000Y-68457662D01*
X72206240Y-68457662D01*
X73294363Y-69545785D01*
X73182566Y-69657386D01*
X73096598Y-69864421D01*
X73096435Y-70051338D01*
X71590000Y-70051338D01*
X71492353Y-70069712D01*
X71402670Y-70127421D01*
X71342505Y-70215475D01*
X71321338Y-70320000D01*
X71321338Y-71131240D01*
X70968662Y-71483916D01*
X70968662Y-70270000D01*
X70950288Y-70172353D01*
X70892579Y-70082670D01*
X70804525Y-70022505D01*
X70700000Y-70001338D01*
X69000000Y-70001338D01*
X68902353Y-70019712D01*
X68812670Y-70077421D01*
X68752505Y-70165475D01*
X68731338Y-70270000D01*
X68731338Y-71970000D01*
X68749712Y-72067647D01*
X68807421Y-72157330D01*
X68895475Y-72217495D01*
X69000000Y-72238662D01*
X70700000Y-72238662D01*
X70731500Y-72232735D01*
X70731500Y-72980874D01*
X70659178Y-72872637D01*
X70297933Y-72631260D01*
X69871815Y-72546500D01*
X69828185Y-72546500D01*
X69402067Y-72631260D01*
X69040822Y-72872637D01*
X68799445Y-73233882D01*
X68714685Y-73660000D01*
X68566500Y-73660000D01*
X68566500Y-68683530D01*
X68752322Y-68760500D01*
X69282625Y-68760500D01*
X69425500Y-68617625D01*
X69425500Y-67754500D01*
X69806500Y-67754500D01*
X69806500Y-68617625D01*
X69949375Y-68760500D01*
X70479678Y-68760500D01*
X70689728Y-68673494D01*
X70850494Y-68512729D01*
X70937500Y-68302679D01*
X70937500Y-67897375D01*
X70794625Y-67754500D01*
X69806500Y-67754500D01*
X69425500Y-67754500D01*
X69405500Y-67754500D01*
X69405500Y-67373500D01*
X69425500Y-67373500D01*
X69425500Y-66510375D01*
X69806500Y-66510375D01*
X69806500Y-67373500D01*
X70794625Y-67373500D01*
X70937500Y-67230625D01*
X70937500Y-66825321D01*
X70850494Y-66615271D01*
X70689728Y-66454506D01*
X70479678Y-66367500D01*
X69949375Y-66367500D01*
X69806500Y-66510375D01*
X69425500Y-66510375D01*
X69282625Y-66367500D01*
X68752322Y-66367500D01*
X68566500Y-66444470D01*
X68566500Y-65824814D01*
X68732321Y-65893500D01*
X69262625Y-65893500D01*
X69405500Y-65750625D01*
X69405500Y-63912500D01*
X69786500Y-63912500D01*
X69786500Y-65750625D01*
X69929375Y-65893500D01*
X70459679Y-65893500D01*
X70669729Y-65806494D01*
X70802500Y-65673722D01*
X70935271Y-65806494D01*
X71145321Y-65893500D01*
X71675625Y-65893500D01*
X71818500Y-65750625D01*
X71818500Y-63912500D01*
X72199500Y-63912500D01*
X72199500Y-65750625D01*
X72342375Y-65893500D01*
X72872679Y-65893500D01*
X73082729Y-65806494D01*
X73243494Y-65645728D01*
X73330500Y-65435678D01*
X73330500Y-64055375D01*
X73187625Y-63912500D01*
X72199500Y-63912500D01*
X71818500Y-63912500D01*
X70830375Y-63912500D01*
X70802500Y-63940375D01*
X70774625Y-63912500D01*
X69786500Y-63912500D01*
X69405500Y-63912500D01*
X69385500Y-63912500D01*
X69385500Y-63531500D01*
X69405500Y-63531500D01*
X69405500Y-63511500D01*
X69786500Y-63511500D01*
X69786500Y-63531500D01*
X70774625Y-63531500D01*
X70802500Y-63503625D01*
X70830375Y-63531500D01*
X71818500Y-63531500D01*
X71818500Y-63511500D01*
X72199500Y-63511500D01*
X72199500Y-63531500D01*
X73187625Y-63531500D01*
X73330500Y-63388625D01*
X73330500Y-62323375D01*
X74526500Y-62323375D01*
X74526500Y-62853679D01*
X74613506Y-63063729D01*
X74774272Y-63224494D01*
X74984322Y-63311500D01*
X75764625Y-63311500D01*
X75907500Y-63168625D01*
X75907500Y-62180500D01*
X74669375Y-62180500D01*
X74526500Y-62323375D01*
X73330500Y-62323375D01*
X73330500Y-62008322D01*
X73243494Y-61798272D01*
X73082729Y-61637506D01*
X72883525Y-61554993D01*
X72946330Y-61514579D01*
X73006495Y-61426525D01*
X73027662Y-61322000D01*
X73027662Y-60078500D01*
X74829338Y-60078500D01*
X74829338Y-60440000D01*
X74847712Y-60537647D01*
X74905421Y-60627330D01*
X74972713Y-60673309D01*
X74774272Y-60755506D01*
X74713578Y-60816199D01*
X74713623Y-60764699D01*
X74605228Y-60502363D01*
X74404693Y-60301477D01*
X74142547Y-60192624D01*
X73858699Y-60192377D01*
X73596363Y-60300772D01*
X73395477Y-60501307D01*
X73286624Y-60763453D01*
X73286377Y-61047301D01*
X73394772Y-61309637D01*
X73595307Y-61510523D01*
X73857453Y-61619376D01*
X74141301Y-61619623D01*
X74403637Y-61511228D01*
X74526500Y-61388580D01*
X74526500Y-61656625D01*
X74669375Y-61799500D01*
X75907500Y-61799500D01*
X75907500Y-61779500D01*
X76288500Y-61779500D01*
X76288500Y-61799500D01*
X76308500Y-61799500D01*
X76308500Y-62180500D01*
X76288500Y-62180500D01*
X76288500Y-63168625D01*
X76431375Y-63311500D01*
X77081500Y-63311500D01*
X77081500Y-65937338D01*
X76620000Y-65937338D01*
X76522353Y-65955712D01*
X76432670Y-66013421D01*
X76372505Y-66101475D01*
X76351338Y-66206000D01*
X76351338Y-67906000D01*
X76369712Y-68003647D01*
X76427421Y-68093330D01*
X76515475Y-68153495D01*
X76620000Y-68174662D01*
X78320000Y-68174662D01*
X78417647Y-68156288D01*
X78507330Y-68098579D01*
X78567495Y-68010525D01*
X78588662Y-67906000D01*
X78588662Y-67034185D01*
X78896500Y-67034185D01*
X78896500Y-67077815D01*
X78981260Y-67503933D01*
X79222637Y-67865178D01*
X79583882Y-68106555D01*
X80010000Y-68191315D01*
X80436118Y-68106555D01*
X80797363Y-67865178D01*
X81038740Y-67503933D01*
X81123500Y-67077815D01*
X81123500Y-67034185D01*
X81038740Y-66608067D01*
X80797363Y-66246822D01*
X80436118Y-66005445D01*
X80010000Y-65920685D01*
X79583882Y-66005445D01*
X79222637Y-66246822D01*
X78981260Y-66608067D01*
X78896500Y-67034185D01*
X78588662Y-67034185D01*
X78588662Y-66206000D01*
X78570288Y-66108353D01*
X78512579Y-66018670D01*
X78424525Y-65958505D01*
X78320000Y-65937338D01*
X77858500Y-65937338D01*
X77858500Y-61373477D01*
X77995307Y-61510523D01*
X78257453Y-61619376D01*
X78541301Y-61619623D01*
X78803637Y-61511228D01*
X79004523Y-61310693D01*
X79113376Y-61048547D01*
X79113623Y-60764699D01*
X79005228Y-60502363D01*
X78804693Y-60301477D01*
X78542547Y-60192624D01*
X78258699Y-60192377D01*
X77996363Y-60300772D01*
X77795477Y-60501307D01*
X77726601Y-60667179D01*
X77366662Y-60307240D01*
X77366662Y-58940000D01*
X77348288Y-58842353D01*
X77290579Y-58752670D01*
X77202525Y-58692505D01*
X77098000Y-58671338D01*
X75098000Y-58671338D01*
X75000353Y-58689712D01*
X74910670Y-58747421D01*
X74850505Y-58835475D01*
X74829338Y-58940000D01*
X74829338Y-59301500D01*
X73027662Y-59301500D01*
X73027662Y-58122000D01*
X73009288Y-58024353D01*
X72951579Y-57934670D01*
X72863525Y-57874505D01*
X72759000Y-57853338D01*
X71259000Y-57853338D01*
X71161353Y-57871712D01*
X71071670Y-57929421D01*
X71011505Y-58017475D01*
X70990338Y-58122000D01*
X70990338Y-61322000D01*
X71008712Y-61419647D01*
X71066421Y-61509330D01*
X71133712Y-61555308D01*
X70935271Y-61637506D01*
X70802500Y-61770278D01*
X70669729Y-61637506D01*
X70470525Y-61554993D01*
X70533330Y-61514579D01*
X70593495Y-61426525D01*
X70614662Y-61322000D01*
X70614662Y-58122000D01*
X70596288Y-58024353D01*
X70538579Y-57934670D01*
X70450525Y-57874505D01*
X70346000Y-57853338D01*
X70204084Y-57853338D01*
X70278922Y-57778500D01*
X74829338Y-57778500D01*
X74829338Y-58140000D01*
X74847712Y-58237647D01*
X74905421Y-58327330D01*
X74993475Y-58387495D01*
X75098000Y-58408662D01*
X77098000Y-58408662D01*
X77195647Y-58390288D01*
X77285330Y-58332579D01*
X77345495Y-58244525D01*
X77366662Y-58140000D01*
X77366662Y-57778500D01*
X79073078Y-57778500D01*
X80637500Y-59342922D01*
X80637500Y-65532000D01*
X80667073Y-65680673D01*
X80751144Y-65806494D01*
X80751289Y-65806711D01*
X81533831Y-66589253D01*
X81521260Y-66608067D01*
X81436500Y-67034185D01*
X81436500Y-67077815D01*
X81521260Y-67503933D01*
X81762637Y-67865178D01*
X82123882Y-68106555D01*
X82550000Y-68191315D01*
X82976118Y-68106555D01*
X83337363Y-67865178D01*
X83578740Y-67503933D01*
X83663500Y-67077815D01*
X83663500Y-67034185D01*
X83578740Y-66608067D01*
X83337363Y-66246822D01*
X82976118Y-66005445D01*
X82550000Y-65920685D01*
X82123882Y-66005445D01*
X82078914Y-66035492D01*
X81414500Y-65371078D01*
X81414500Y-61858662D01*
X83398000Y-61858662D01*
X83495647Y-61840288D01*
X83585330Y-61782579D01*
X83645495Y-61694525D01*
X83666662Y-61590000D01*
X83666662Y-57790000D01*
X83648288Y-57692353D01*
X83590579Y-57602670D01*
X83502525Y-57542505D01*
X83398000Y-57521338D01*
X81398000Y-57521338D01*
X81300353Y-57539712D01*
X81210670Y-57597421D01*
X81150505Y-57685475D01*
X81129338Y-57790000D01*
X81129338Y-58735916D01*
X79508711Y-57115289D01*
X79382673Y-57031073D01*
X79234000Y-57001500D01*
X77366662Y-57001500D01*
X77366662Y-56640000D01*
X77348288Y-56542353D01*
X77290579Y-56452670D01*
X77202525Y-56392505D01*
X77098000Y-56371338D01*
X75098000Y-56371338D01*
X75000353Y-56389712D01*
X74910670Y-56447421D01*
X74850505Y-56535475D01*
X74829338Y-56640000D01*
X74829338Y-57001500D01*
X70118000Y-57001500D01*
X69969327Y-57031073D01*
X69843289Y-57115289D01*
X69321289Y-57637289D01*
X69237073Y-57763327D01*
X69229815Y-57799815D01*
X69193327Y-57807073D01*
X69124087Y-57853338D01*
X68846000Y-57853338D01*
X68748353Y-57871712D01*
X68658670Y-57929421D01*
X68598505Y-58017475D01*
X68577338Y-58122000D01*
X68577338Y-61322000D01*
X68595712Y-61419647D01*
X68653421Y-61509330D01*
X68720712Y-61555308D01*
X68566500Y-61619186D01*
X68566500Y-55612500D01*
X83833500Y-55612500D01*
X83833500Y-85763062D01*
M02*
