G04 #@! TF.GenerationSoftware,KiCad,Pcbnew,5.1.6-1.fc31*
G04 #@! TF.CreationDate,2020-07-21T16:24:12+03:00*
G04 #@! TF.ProjectId,rudy,72756479-2e6b-4696-9361-645f70636258,rev?*
G04 #@! TF.SameCoordinates,Original*
G04 #@! TF.FileFunction,Paste,Bot*
G04 #@! TF.FilePolarity,Positive*
%FSLAX46Y46*%
G04 Gerber Fmt 4.6, Leading zero omitted, Abs format (unit mm)*
G04 Created by KiCad (PCBNEW 5.1.6-1.fc31) date 2020-07-21 16:24:12*
%MOMM*%
%LPD*%
G01*
G04 APERTURE LIST*
%ADD10R,2.000000X3.800000*%
%ADD11R,2.000000X1.500000*%
%ADD12R,1.500000X1.950000*%
%ADD13R,0.500000X0.500000*%
G04 APERTURE END LIST*
D10*
X82398000Y-59690000D03*
D11*
X76098000Y-59690000D03*
X76098000Y-57390000D03*
X76098000Y-61990000D03*
D12*
X69596000Y-60347000D03*
X69596000Y-63097000D03*
X72009000Y-60347000D03*
X72009000Y-63097000D03*
D13*
X77150000Y-88700000D03*
X74950000Y-88700000D03*
X77150000Y-92100000D03*
X74950000Y-92100000D03*
G36*
G01*
X80442750Y-65885000D02*
X81355250Y-65885000D01*
G75*
G02*
X81599000Y-66128750I0J-243750D01*
G01*
X81599000Y-66616250D01*
G75*
G02*
X81355250Y-66860000I-243750J0D01*
G01*
X80442750Y-66860000D01*
G75*
G02*
X80199000Y-66616250I0J243750D01*
G01*
X80199000Y-66128750D01*
G75*
G02*
X80442750Y-65885000I243750J0D01*
G01*
G37*
G36*
G01*
X80442750Y-67760000D02*
X81355250Y-67760000D01*
G75*
G02*
X81599000Y-68003750I0J-243750D01*
G01*
X81599000Y-68491250D01*
G75*
G02*
X81355250Y-68735000I-243750J0D01*
G01*
X80442750Y-68735000D01*
G75*
G02*
X80199000Y-68491250I0J243750D01*
G01*
X80199000Y-68003750D01*
G75*
G02*
X80442750Y-67760000I243750J0D01*
G01*
G37*
G36*
G01*
X78029750Y-108049000D02*
X78942250Y-108049000D01*
G75*
G02*
X79186000Y-108292750I0J-243750D01*
G01*
X79186000Y-108780250D01*
G75*
G02*
X78942250Y-109024000I-243750J0D01*
G01*
X78029750Y-109024000D01*
G75*
G02*
X77786000Y-108780250I0J243750D01*
G01*
X77786000Y-108292750D01*
G75*
G02*
X78029750Y-108049000I243750J0D01*
G01*
G37*
G36*
G01*
X78029750Y-109924000D02*
X78942250Y-109924000D01*
G75*
G02*
X79186000Y-110167750I0J-243750D01*
G01*
X79186000Y-110655250D01*
G75*
G02*
X78942250Y-110899000I-243750J0D01*
G01*
X78029750Y-110899000D01*
G75*
G02*
X77786000Y-110655250I0J243750D01*
G01*
X77786000Y-110167750D01*
G75*
G02*
X78029750Y-109924000I243750J0D01*
G01*
G37*
G36*
G01*
X73203750Y-109924000D02*
X74116250Y-109924000D01*
G75*
G02*
X74360000Y-110167750I0J-243750D01*
G01*
X74360000Y-110655250D01*
G75*
G02*
X74116250Y-110899000I-243750J0D01*
G01*
X73203750Y-110899000D01*
G75*
G02*
X72960000Y-110655250I0J243750D01*
G01*
X72960000Y-110167750D01*
G75*
G02*
X73203750Y-109924000I243750J0D01*
G01*
G37*
G36*
G01*
X73203750Y-108049000D02*
X74116250Y-108049000D01*
G75*
G02*
X74360000Y-108292750I0J-243750D01*
G01*
X74360000Y-108780250D01*
G75*
G02*
X74116250Y-109024000I-243750J0D01*
G01*
X73203750Y-109024000D01*
G75*
G02*
X72960000Y-108780250I0J243750D01*
G01*
X72960000Y-108292750D01*
G75*
G02*
X73203750Y-108049000I243750J0D01*
G01*
G37*
G36*
G01*
X74775000Y-81736250D02*
X74775000Y-80823750D01*
G75*
G02*
X75018750Y-80580000I243750J0D01*
G01*
X75506250Y-80580000D01*
G75*
G02*
X75750000Y-80823750I0J-243750D01*
G01*
X75750000Y-81736250D01*
G75*
G02*
X75506250Y-81980000I-243750J0D01*
G01*
X75018750Y-81980000D01*
G75*
G02*
X74775000Y-81736250I0J243750D01*
G01*
G37*
G36*
G01*
X76650000Y-81736250D02*
X76650000Y-80823750D01*
G75*
G02*
X76893750Y-80580000I243750J0D01*
G01*
X77381250Y-80580000D01*
G75*
G02*
X77625000Y-80823750I0J-243750D01*
G01*
X77625000Y-81736250D01*
G75*
G02*
X77381250Y-81980000I-243750J0D01*
G01*
X76893750Y-81980000D01*
G75*
G02*
X76650000Y-81736250I0J243750D01*
G01*
G37*
G36*
G01*
X74775000Y-79196250D02*
X74775000Y-78283750D01*
G75*
G02*
X75018750Y-78040000I243750J0D01*
G01*
X75506250Y-78040000D01*
G75*
G02*
X75750000Y-78283750I0J-243750D01*
G01*
X75750000Y-79196250D01*
G75*
G02*
X75506250Y-79440000I-243750J0D01*
G01*
X75018750Y-79440000D01*
G75*
G02*
X74775000Y-79196250I0J243750D01*
G01*
G37*
G36*
G01*
X76650000Y-79196250D02*
X76650000Y-78283750D01*
G75*
G02*
X76893750Y-78040000I243750J0D01*
G01*
X77381250Y-78040000D01*
G75*
G02*
X77625000Y-78283750I0J-243750D01*
G01*
X77625000Y-79196250D01*
G75*
G02*
X77381250Y-79440000I-243750J0D01*
G01*
X76893750Y-79440000D01*
G75*
G02*
X76650000Y-79196250I0J243750D01*
G01*
G37*
G36*
G01*
X76650000Y-84276250D02*
X76650000Y-83363750D01*
G75*
G02*
X76893750Y-83120000I243750J0D01*
G01*
X77381250Y-83120000D01*
G75*
G02*
X77625000Y-83363750I0J-243750D01*
G01*
X77625000Y-84276250D01*
G75*
G02*
X77381250Y-84520000I-243750J0D01*
G01*
X76893750Y-84520000D01*
G75*
G02*
X76650000Y-84276250I0J243750D01*
G01*
G37*
G36*
G01*
X74775000Y-84276250D02*
X74775000Y-83363750D01*
G75*
G02*
X75018750Y-83120000I243750J0D01*
G01*
X75506250Y-83120000D01*
G75*
G02*
X75750000Y-83363750I0J-243750D01*
G01*
X75750000Y-84276250D01*
G75*
G02*
X75506250Y-84520000I-243750J0D01*
G01*
X75018750Y-84520000D01*
G75*
G02*
X74775000Y-84276250I0J243750D01*
G01*
G37*
G36*
G01*
X75750000Y-75743750D02*
X75750000Y-76656250D01*
G75*
G02*
X75506250Y-76900000I-243750J0D01*
G01*
X75018750Y-76900000D01*
G75*
G02*
X74775000Y-76656250I0J243750D01*
G01*
X74775000Y-75743750D01*
G75*
G02*
X75018750Y-75500000I243750J0D01*
G01*
X75506250Y-75500000D01*
G75*
G02*
X75750000Y-75743750I0J-243750D01*
G01*
G37*
G36*
G01*
X77625000Y-75743750D02*
X77625000Y-76656250D01*
G75*
G02*
X77381250Y-76900000I-243750J0D01*
G01*
X76893750Y-76900000D01*
G75*
G02*
X76650000Y-76656250I0J243750D01*
G01*
X76650000Y-75743750D01*
G75*
G02*
X76893750Y-75500000I243750J0D01*
G01*
X77381250Y-75500000D01*
G75*
G02*
X77625000Y-75743750I0J-243750D01*
G01*
G37*
G36*
G01*
X76587500Y-96156250D02*
X76587500Y-95243750D01*
G75*
G02*
X76831250Y-95000000I243750J0D01*
G01*
X77318750Y-95000000D01*
G75*
G02*
X77562500Y-95243750I0J-243750D01*
G01*
X77562500Y-96156250D01*
G75*
G02*
X77318750Y-96400000I-243750J0D01*
G01*
X76831250Y-96400000D01*
G75*
G02*
X76587500Y-96156250I0J243750D01*
G01*
G37*
G36*
G01*
X74712500Y-96156250D02*
X74712500Y-95243750D01*
G75*
G02*
X74956250Y-95000000I243750J0D01*
G01*
X75443750Y-95000000D01*
G75*
G02*
X75687500Y-95243750I0J-243750D01*
G01*
X75687500Y-96156250D01*
G75*
G02*
X75443750Y-96400000I-243750J0D01*
G01*
X74956250Y-96400000D01*
G75*
G02*
X74712500Y-96156250I0J243750D01*
G01*
G37*
G36*
G01*
X74675000Y-99156250D02*
X74675000Y-98243750D01*
G75*
G02*
X74918750Y-98000000I243750J0D01*
G01*
X75406250Y-98000000D01*
G75*
G02*
X75650000Y-98243750I0J-243750D01*
G01*
X75650000Y-99156250D01*
G75*
G02*
X75406250Y-99400000I-243750J0D01*
G01*
X74918750Y-99400000D01*
G75*
G02*
X74675000Y-99156250I0J243750D01*
G01*
G37*
G36*
G01*
X76550000Y-99156250D02*
X76550000Y-98243750D01*
G75*
G02*
X76793750Y-98000000I243750J0D01*
G01*
X77281250Y-98000000D01*
G75*
G02*
X77525000Y-98243750I0J-243750D01*
G01*
X77525000Y-99156250D01*
G75*
G02*
X77281250Y-99400000I-243750J0D01*
G01*
X76793750Y-99400000D01*
G75*
G02*
X76550000Y-99156250I0J243750D01*
G01*
G37*
G36*
G01*
X82393750Y-65885000D02*
X83306250Y-65885000D01*
G75*
G02*
X83550000Y-66128750I0J-243750D01*
G01*
X83550000Y-66616250D01*
G75*
G02*
X83306250Y-66860000I-243750J0D01*
G01*
X82393750Y-66860000D01*
G75*
G02*
X82150000Y-66616250I0J243750D01*
G01*
X82150000Y-66128750D01*
G75*
G02*
X82393750Y-65885000I243750J0D01*
G01*
G37*
G36*
G01*
X82393750Y-67760000D02*
X83306250Y-67760000D01*
G75*
G02*
X83550000Y-68003750I0J-243750D01*
G01*
X83550000Y-68491250D01*
G75*
G02*
X83306250Y-68735000I-243750J0D01*
G01*
X82393750Y-68735000D01*
G75*
G02*
X82150000Y-68491250I0J243750D01*
G01*
X82150000Y-68003750D01*
G75*
G02*
X82393750Y-67760000I243750J0D01*
G01*
G37*
M02*
