G04 #@! TF.GenerationSoftware,KiCad,Pcbnew,5.1.6-1.fc31*
G04 #@! TF.CreationDate,2020-07-21T16:24:12+03:00*
G04 #@! TF.ProjectId,rudy,72756479-2e6b-4696-9361-645f70636258,rev?*
G04 #@! TF.SameCoordinates,Original*
G04 #@! TF.FileFunction,Legend,Bot*
G04 #@! TF.FilePolarity,Positive*
%FSLAX46Y46*%
G04 Gerber Fmt 4.6, Leading zero omitted, Abs format (unit mm)*
G04 Created by KiCad (PCBNEW 5.1.6-1.fc31) date 2020-07-21 16:24:12*
%MOMM*%
%LPD*%
G01*
G04 APERTURE LIST*
%ADD10C,0.010000*%
%ADD11C,0.120000*%
%ADD12C,0.150000*%
G04 APERTURE END LIST*
D10*
G36*
X75744809Y-101446268D02*
G01*
X75723751Y-101555093D01*
X75703740Y-101651889D01*
X75686070Y-101730902D01*
X75672034Y-101786376D01*
X75662927Y-101812558D01*
X75662243Y-101813442D01*
X75639599Y-101826347D01*
X75590846Y-101848961D01*
X75523793Y-101878091D01*
X75446248Y-101910548D01*
X75366017Y-101943141D01*
X75290908Y-101972679D01*
X75228729Y-101995972D01*
X75187288Y-102009828D01*
X75175678Y-102012285D01*
X75155093Y-102002444D01*
X75109774Y-101975070D01*
X75044752Y-101933389D01*
X74965056Y-101880623D01*
X74875716Y-101819999D01*
X74875091Y-101819570D01*
X74785212Y-101758245D01*
X74704603Y-101703950D01*
X74638416Y-101660099D01*
X74591801Y-101630104D01*
X74569976Y-101617404D01*
X74550031Y-101626654D01*
X74510154Y-101657759D01*
X74455123Y-101706001D01*
X74389713Y-101766661D01*
X74318699Y-101835019D01*
X74246859Y-101906356D01*
X74178968Y-101975953D01*
X74119802Y-102039091D01*
X74074136Y-102091051D01*
X74046748Y-102127113D01*
X74041000Y-102140094D01*
X74050846Y-102163548D01*
X74078222Y-102211508D01*
X74119877Y-102278728D01*
X74172566Y-102359963D01*
X74231500Y-102447714D01*
X74291732Y-102537130D01*
X74344130Y-102617146D01*
X74385461Y-102682642D01*
X74412494Y-102728499D01*
X74422000Y-102749477D01*
X74415017Y-102774060D01*
X74396231Y-102824087D01*
X74368884Y-102891984D01*
X74336220Y-102970175D01*
X74301483Y-103051086D01*
X74267914Y-103127143D01*
X74238757Y-103190769D01*
X74217255Y-103234391D01*
X74207824Y-103249718D01*
X74188028Y-103255918D01*
X74139268Y-103267458D01*
X74068243Y-103282993D01*
X73981656Y-103301179D01*
X73886204Y-103320671D01*
X73788589Y-103340122D01*
X73695511Y-103358188D01*
X73613670Y-103373524D01*
X73549767Y-103384785D01*
X73510501Y-103390624D01*
X73503412Y-103391142D01*
X73499612Y-103408190D01*
X73497066Y-103455001D01*
X73495676Y-103525078D01*
X73495344Y-103611925D01*
X73495972Y-103709045D01*
X73497462Y-103809941D01*
X73499715Y-103908115D01*
X73502634Y-103997071D01*
X73506120Y-104070312D01*
X73510075Y-104121341D01*
X73514402Y-104143660D01*
X73514783Y-104144026D01*
X73537726Y-104150843D01*
X73590277Y-104162889D01*
X73666350Y-104178879D01*
X73759855Y-104197528D01*
X73851774Y-104215128D01*
X73957703Y-104236164D01*
X74051016Y-104256844D01*
X74125664Y-104275662D01*
X74175599Y-104291112D01*
X74193928Y-104300281D01*
X74208774Y-104325836D01*
X74232977Y-104377538D01*
X74263428Y-104447671D01*
X74297019Y-104528523D01*
X74330639Y-104612379D01*
X74361180Y-104691524D01*
X74385531Y-104758244D01*
X74400584Y-104804825D01*
X74403924Y-104821280D01*
X74394015Y-104843430D01*
X74366571Y-104889938D01*
X74324949Y-104955495D01*
X74272508Y-105034789D01*
X74222428Y-105108309D01*
X74163378Y-105195576D01*
X74112364Y-105274174D01*
X74072762Y-105338640D01*
X74047948Y-105383510D01*
X74041000Y-105401985D01*
X74053230Y-105422351D01*
X74086736Y-105462965D01*
X74136735Y-105518912D01*
X74198448Y-105585276D01*
X74267095Y-105657141D01*
X74337895Y-105729592D01*
X74406067Y-105797714D01*
X74466832Y-105856591D01*
X74515409Y-105901307D01*
X74547017Y-105926947D01*
X74555606Y-105931142D01*
X74574914Y-105921351D01*
X74618768Y-105894239D01*
X74681920Y-105853201D01*
X74759125Y-105801631D01*
X74822804Y-105758283D01*
X74908412Y-105700064D01*
X74985134Y-105648835D01*
X75047337Y-105608283D01*
X75089391Y-105582096D01*
X75103985Y-105574221D01*
X75133877Y-105576289D01*
X75185586Y-105592317D01*
X75248972Y-105619083D01*
X75256571Y-105622714D01*
X75319308Y-105650329D01*
X75371419Y-105668316D01*
X75402888Y-105673303D01*
X75405160Y-105672740D01*
X75416045Y-105655102D01*
X75438785Y-105608592D01*
X75471384Y-105537873D01*
X75511846Y-105447611D01*
X75558171Y-105342469D01*
X75608365Y-105227113D01*
X75660429Y-105106206D01*
X75712366Y-104984414D01*
X75762179Y-104866401D01*
X75807872Y-104756830D01*
X75847446Y-104660368D01*
X75878906Y-104581677D01*
X75900253Y-104525424D01*
X75909491Y-104496271D01*
X75909714Y-104494293D01*
X75896123Y-104479203D01*
X75859831Y-104448455D01*
X75807560Y-104407624D01*
X75783416Y-104389520D01*
X75656974Y-104275957D01*
X75560724Y-104147705D01*
X75494961Y-104008855D01*
X75459980Y-103863502D01*
X75456076Y-103715738D01*
X75483544Y-103569657D01*
X75542679Y-103429351D01*
X75633776Y-103298914D01*
X75699880Y-103230767D01*
X75825002Y-103137706D01*
X75959407Y-103076607D01*
X76099049Y-103045683D01*
X76239879Y-103043147D01*
X76377849Y-103067214D01*
X76508911Y-103116097D01*
X76629017Y-103188010D01*
X76734119Y-103281166D01*
X76820168Y-103393780D01*
X76883117Y-103524065D01*
X76918918Y-103670234D01*
X76925714Y-103771690D01*
X76908563Y-103934205D01*
X76857460Y-104084416D01*
X76772931Y-104221330D01*
X76655503Y-104343954D01*
X76598441Y-104389520D01*
X76541617Y-104432844D01*
X76498054Y-104468341D01*
X76474474Y-104490434D01*
X76472142Y-104494293D01*
X76479045Y-104518308D01*
X76498421Y-104570231D01*
X76528270Y-104645397D01*
X76566595Y-104739140D01*
X76611396Y-104846797D01*
X76660675Y-104963702D01*
X76712432Y-105085192D01*
X76764670Y-105206601D01*
X76815389Y-105323265D01*
X76862590Y-105430520D01*
X76904274Y-105523700D01*
X76938444Y-105598142D01*
X76963099Y-105649180D01*
X76976241Y-105672150D01*
X76977197Y-105672932D01*
X77004709Y-105669966D01*
X77054543Y-105653240D01*
X77117037Y-105626132D01*
X77132124Y-105618813D01*
X77261357Y-105554833D01*
X77536376Y-105742988D01*
X77624558Y-105802766D01*
X77702727Y-105854710D01*
X77765876Y-105895579D01*
X77809000Y-105922131D01*
X77826904Y-105931142D01*
X77843947Y-105918869D01*
X77882268Y-105884674D01*
X77937689Y-105832498D01*
X78006035Y-105766279D01*
X78083129Y-105689957D01*
X78091636Y-105681443D01*
X78168889Y-105602546D01*
X78236399Y-105530740D01*
X78290193Y-105470488D01*
X78326302Y-105426248D01*
X78340754Y-105402481D01*
X78340857Y-105401507D01*
X78330935Y-105377287D01*
X78303420Y-105328905D01*
X78261685Y-105261814D01*
X78209104Y-105181467D01*
X78159428Y-105108309D01*
X78100480Y-105021564D01*
X78049525Y-104944086D01*
X78009920Y-104881187D01*
X77985023Y-104838174D01*
X77977932Y-104821280D01*
X77984666Y-104793298D01*
X78002865Y-104739799D01*
X78029420Y-104668499D01*
X78061222Y-104587112D01*
X78095162Y-104503352D01*
X78128130Y-104424933D01*
X78157016Y-104359570D01*
X78178712Y-104314977D01*
X78187928Y-104300281D01*
X78212833Y-104288757D01*
X78267456Y-104272619D01*
X78345750Y-104253373D01*
X78441667Y-104232525D01*
X78530083Y-104215128D01*
X78633897Y-104195201D01*
X78725639Y-104176802D01*
X78799219Y-104161216D01*
X78848551Y-104149728D01*
X78867073Y-104144026D01*
X78871426Y-104124447D01*
X78875417Y-104075606D01*
X78878947Y-104004002D01*
X78881918Y-103916129D01*
X78884231Y-103818486D01*
X78885789Y-103717569D01*
X78886494Y-103619875D01*
X78886247Y-103531902D01*
X78884952Y-103460146D01*
X78882509Y-103411104D01*
X78878819Y-103391273D01*
X78878445Y-103391142D01*
X78850351Y-103387727D01*
X78795062Y-103378377D01*
X78719278Y-103364438D01*
X78629699Y-103347256D01*
X78533025Y-103328174D01*
X78435957Y-103308539D01*
X78345195Y-103289696D01*
X78267439Y-103272990D01*
X78209389Y-103259766D01*
X78177745Y-103251369D01*
X78174033Y-103249718D01*
X78160856Y-103227215D01*
X78137466Y-103178733D01*
X78107106Y-103111847D01*
X78073020Y-103034134D01*
X78038450Y-102953166D01*
X78006640Y-102876519D01*
X77980832Y-102811769D01*
X77964271Y-102766488D01*
X77959857Y-102749477D01*
X77969673Y-102727933D01*
X77996967Y-102681713D01*
X78038506Y-102615937D01*
X78091058Y-102535726D01*
X78150357Y-102447714D01*
X78210680Y-102357858D01*
X78263139Y-102276901D01*
X78304485Y-102210089D01*
X78331472Y-102162664D01*
X78340857Y-102140094D01*
X78328514Y-102117438D01*
X78294668Y-102075698D01*
X78244096Y-102019592D01*
X78181574Y-101953840D01*
X78111878Y-101883160D01*
X78039782Y-101812273D01*
X77970065Y-101745897D01*
X77907500Y-101688751D01*
X77856865Y-101645555D01*
X77822935Y-101621027D01*
X77811880Y-101617404D01*
X77789763Y-101630287D01*
X77742964Y-101660411D01*
X77676636Y-101704363D01*
X77595928Y-101758730D01*
X77506765Y-101819570D01*
X77417377Y-101880236D01*
X77337599Y-101933066D01*
X77272461Y-101974833D01*
X77226993Y-102002314D01*
X77206223Y-102012285D01*
X77206178Y-102012285D01*
X77180774Y-102005555D01*
X77129988Y-101987490D01*
X77061629Y-101961282D01*
X76983504Y-101930121D01*
X76903420Y-101897199D01*
X76829186Y-101865705D01*
X76768608Y-101838831D01*
X76729495Y-101819768D01*
X76719614Y-101813442D01*
X76711168Y-101791066D01*
X76697643Y-101738724D01*
X76680331Y-101662170D01*
X76660527Y-101567158D01*
X76639525Y-101459444D01*
X76637048Y-101446268D01*
X76571458Y-101096071D01*
X75810398Y-101096071D01*
X75744809Y-101446268D01*
G37*
X75744809Y-101446268D02*
X75723751Y-101555093D01*
X75703740Y-101651889D01*
X75686070Y-101730902D01*
X75672034Y-101786376D01*
X75662927Y-101812558D01*
X75662243Y-101813442D01*
X75639599Y-101826347D01*
X75590846Y-101848961D01*
X75523793Y-101878091D01*
X75446248Y-101910548D01*
X75366017Y-101943141D01*
X75290908Y-101972679D01*
X75228729Y-101995972D01*
X75187288Y-102009828D01*
X75175678Y-102012285D01*
X75155093Y-102002444D01*
X75109774Y-101975070D01*
X75044752Y-101933389D01*
X74965056Y-101880623D01*
X74875716Y-101819999D01*
X74875091Y-101819570D01*
X74785212Y-101758245D01*
X74704603Y-101703950D01*
X74638416Y-101660099D01*
X74591801Y-101630104D01*
X74569976Y-101617404D01*
X74550031Y-101626654D01*
X74510154Y-101657759D01*
X74455123Y-101706001D01*
X74389713Y-101766661D01*
X74318699Y-101835019D01*
X74246859Y-101906356D01*
X74178968Y-101975953D01*
X74119802Y-102039091D01*
X74074136Y-102091051D01*
X74046748Y-102127113D01*
X74041000Y-102140094D01*
X74050846Y-102163548D01*
X74078222Y-102211508D01*
X74119877Y-102278728D01*
X74172566Y-102359963D01*
X74231500Y-102447714D01*
X74291732Y-102537130D01*
X74344130Y-102617146D01*
X74385461Y-102682642D01*
X74412494Y-102728499D01*
X74422000Y-102749477D01*
X74415017Y-102774060D01*
X74396231Y-102824087D01*
X74368884Y-102891984D01*
X74336220Y-102970175D01*
X74301483Y-103051086D01*
X74267914Y-103127143D01*
X74238757Y-103190769D01*
X74217255Y-103234391D01*
X74207824Y-103249718D01*
X74188028Y-103255918D01*
X74139268Y-103267458D01*
X74068243Y-103282993D01*
X73981656Y-103301179D01*
X73886204Y-103320671D01*
X73788589Y-103340122D01*
X73695511Y-103358188D01*
X73613670Y-103373524D01*
X73549767Y-103384785D01*
X73510501Y-103390624D01*
X73503412Y-103391142D01*
X73499612Y-103408190D01*
X73497066Y-103455001D01*
X73495676Y-103525078D01*
X73495344Y-103611925D01*
X73495972Y-103709045D01*
X73497462Y-103809941D01*
X73499715Y-103908115D01*
X73502634Y-103997071D01*
X73506120Y-104070312D01*
X73510075Y-104121341D01*
X73514402Y-104143660D01*
X73514783Y-104144026D01*
X73537726Y-104150843D01*
X73590277Y-104162889D01*
X73666350Y-104178879D01*
X73759855Y-104197528D01*
X73851774Y-104215128D01*
X73957703Y-104236164D01*
X74051016Y-104256844D01*
X74125664Y-104275662D01*
X74175599Y-104291112D01*
X74193928Y-104300281D01*
X74208774Y-104325836D01*
X74232977Y-104377538D01*
X74263428Y-104447671D01*
X74297019Y-104528523D01*
X74330639Y-104612379D01*
X74361180Y-104691524D01*
X74385531Y-104758244D01*
X74400584Y-104804825D01*
X74403924Y-104821280D01*
X74394015Y-104843430D01*
X74366571Y-104889938D01*
X74324949Y-104955495D01*
X74272508Y-105034789D01*
X74222428Y-105108309D01*
X74163378Y-105195576D01*
X74112364Y-105274174D01*
X74072762Y-105338640D01*
X74047948Y-105383510D01*
X74041000Y-105401985D01*
X74053230Y-105422351D01*
X74086736Y-105462965D01*
X74136735Y-105518912D01*
X74198448Y-105585276D01*
X74267095Y-105657141D01*
X74337895Y-105729592D01*
X74406067Y-105797714D01*
X74466832Y-105856591D01*
X74515409Y-105901307D01*
X74547017Y-105926947D01*
X74555606Y-105931142D01*
X74574914Y-105921351D01*
X74618768Y-105894239D01*
X74681920Y-105853201D01*
X74759125Y-105801631D01*
X74822804Y-105758283D01*
X74908412Y-105700064D01*
X74985134Y-105648835D01*
X75047337Y-105608283D01*
X75089391Y-105582096D01*
X75103985Y-105574221D01*
X75133877Y-105576289D01*
X75185586Y-105592317D01*
X75248972Y-105619083D01*
X75256571Y-105622714D01*
X75319308Y-105650329D01*
X75371419Y-105668316D01*
X75402888Y-105673303D01*
X75405160Y-105672740D01*
X75416045Y-105655102D01*
X75438785Y-105608592D01*
X75471384Y-105537873D01*
X75511846Y-105447611D01*
X75558171Y-105342469D01*
X75608365Y-105227113D01*
X75660429Y-105106206D01*
X75712366Y-104984414D01*
X75762179Y-104866401D01*
X75807872Y-104756830D01*
X75847446Y-104660368D01*
X75878906Y-104581677D01*
X75900253Y-104525424D01*
X75909491Y-104496271D01*
X75909714Y-104494293D01*
X75896123Y-104479203D01*
X75859831Y-104448455D01*
X75807560Y-104407624D01*
X75783416Y-104389520D01*
X75656974Y-104275957D01*
X75560724Y-104147705D01*
X75494961Y-104008855D01*
X75459980Y-103863502D01*
X75456076Y-103715738D01*
X75483544Y-103569657D01*
X75542679Y-103429351D01*
X75633776Y-103298914D01*
X75699880Y-103230767D01*
X75825002Y-103137706D01*
X75959407Y-103076607D01*
X76099049Y-103045683D01*
X76239879Y-103043147D01*
X76377849Y-103067214D01*
X76508911Y-103116097D01*
X76629017Y-103188010D01*
X76734119Y-103281166D01*
X76820168Y-103393780D01*
X76883117Y-103524065D01*
X76918918Y-103670234D01*
X76925714Y-103771690D01*
X76908563Y-103934205D01*
X76857460Y-104084416D01*
X76772931Y-104221330D01*
X76655503Y-104343954D01*
X76598441Y-104389520D01*
X76541617Y-104432844D01*
X76498054Y-104468341D01*
X76474474Y-104490434D01*
X76472142Y-104494293D01*
X76479045Y-104518308D01*
X76498421Y-104570231D01*
X76528270Y-104645397D01*
X76566595Y-104739140D01*
X76611396Y-104846797D01*
X76660675Y-104963702D01*
X76712432Y-105085192D01*
X76764670Y-105206601D01*
X76815389Y-105323265D01*
X76862590Y-105430520D01*
X76904274Y-105523700D01*
X76938444Y-105598142D01*
X76963099Y-105649180D01*
X76976241Y-105672150D01*
X76977197Y-105672932D01*
X77004709Y-105669966D01*
X77054543Y-105653240D01*
X77117037Y-105626132D01*
X77132124Y-105618813D01*
X77261357Y-105554833D01*
X77536376Y-105742988D01*
X77624558Y-105802766D01*
X77702727Y-105854710D01*
X77765876Y-105895579D01*
X77809000Y-105922131D01*
X77826904Y-105931142D01*
X77843947Y-105918869D01*
X77882268Y-105884674D01*
X77937689Y-105832498D01*
X78006035Y-105766279D01*
X78083129Y-105689957D01*
X78091636Y-105681443D01*
X78168889Y-105602546D01*
X78236399Y-105530740D01*
X78290193Y-105470488D01*
X78326302Y-105426248D01*
X78340754Y-105402481D01*
X78340857Y-105401507D01*
X78330935Y-105377287D01*
X78303420Y-105328905D01*
X78261685Y-105261814D01*
X78209104Y-105181467D01*
X78159428Y-105108309D01*
X78100480Y-105021564D01*
X78049525Y-104944086D01*
X78009920Y-104881187D01*
X77985023Y-104838174D01*
X77977932Y-104821280D01*
X77984666Y-104793298D01*
X78002865Y-104739799D01*
X78029420Y-104668499D01*
X78061222Y-104587112D01*
X78095162Y-104503352D01*
X78128130Y-104424933D01*
X78157016Y-104359570D01*
X78178712Y-104314977D01*
X78187928Y-104300281D01*
X78212833Y-104288757D01*
X78267456Y-104272619D01*
X78345750Y-104253373D01*
X78441667Y-104232525D01*
X78530083Y-104215128D01*
X78633897Y-104195201D01*
X78725639Y-104176802D01*
X78799219Y-104161216D01*
X78848551Y-104149728D01*
X78867073Y-104144026D01*
X78871426Y-104124447D01*
X78875417Y-104075606D01*
X78878947Y-104004002D01*
X78881918Y-103916129D01*
X78884231Y-103818486D01*
X78885789Y-103717569D01*
X78886494Y-103619875D01*
X78886247Y-103531902D01*
X78884952Y-103460146D01*
X78882509Y-103411104D01*
X78878819Y-103391273D01*
X78878445Y-103391142D01*
X78850351Y-103387727D01*
X78795062Y-103378377D01*
X78719278Y-103364438D01*
X78629699Y-103347256D01*
X78533025Y-103328174D01*
X78435957Y-103308539D01*
X78345195Y-103289696D01*
X78267439Y-103272990D01*
X78209389Y-103259766D01*
X78177745Y-103251369D01*
X78174033Y-103249718D01*
X78160856Y-103227215D01*
X78137466Y-103178733D01*
X78107106Y-103111847D01*
X78073020Y-103034134D01*
X78038450Y-102953166D01*
X78006640Y-102876519D01*
X77980832Y-102811769D01*
X77964271Y-102766488D01*
X77959857Y-102749477D01*
X77969673Y-102727933D01*
X77996967Y-102681713D01*
X78038506Y-102615937D01*
X78091058Y-102535726D01*
X78150357Y-102447714D01*
X78210680Y-102357858D01*
X78263139Y-102276901D01*
X78304485Y-102210089D01*
X78331472Y-102162664D01*
X78340857Y-102140094D01*
X78328514Y-102117438D01*
X78294668Y-102075698D01*
X78244096Y-102019592D01*
X78181574Y-101953840D01*
X78111878Y-101883160D01*
X78039782Y-101812273D01*
X77970065Y-101745897D01*
X77907500Y-101688751D01*
X77856865Y-101645555D01*
X77822935Y-101621027D01*
X77811880Y-101617404D01*
X77789763Y-101630287D01*
X77742964Y-101660411D01*
X77676636Y-101704363D01*
X77595928Y-101758730D01*
X77506765Y-101819570D01*
X77417377Y-101880236D01*
X77337599Y-101933066D01*
X77272461Y-101974833D01*
X77226993Y-102002314D01*
X77206223Y-102012285D01*
X77206178Y-102012285D01*
X77180774Y-102005555D01*
X77129988Y-101987490D01*
X77061629Y-101961282D01*
X76983504Y-101930121D01*
X76903420Y-101897199D01*
X76829186Y-101865705D01*
X76768608Y-101838831D01*
X76729495Y-101819768D01*
X76719614Y-101813442D01*
X76711168Y-101791066D01*
X76697643Y-101738724D01*
X76680331Y-101662170D01*
X76660527Y-101567158D01*
X76639525Y-101459444D01*
X76637048Y-101446268D01*
X76571458Y-101096071D01*
X75810398Y-101096071D01*
X75744809Y-101446268D01*
D11*
X68546000Y-59072000D02*
X68546000Y-63322000D01*
X70646000Y-59072000D02*
X70646000Y-63322000D01*
X68546000Y-59072000D02*
X70646000Y-59072000D01*
X70959000Y-59072000D02*
X70959000Y-63322000D01*
X73059000Y-59072000D02*
X73059000Y-63322000D01*
X70959000Y-59072000D02*
X73059000Y-59072000D01*
X77550000Y-87850000D02*
X77550000Y-89550000D01*
X77550000Y-89550000D02*
X75000000Y-89550000D01*
X77550000Y-87850000D02*
X75000000Y-87850000D01*
X77550000Y-91250000D02*
X77550000Y-92950000D01*
X77550000Y-92950000D02*
X75000000Y-92950000D01*
X77550000Y-91250000D02*
X75000000Y-91250000D01*
X80189000Y-67051422D02*
X80189000Y-67568578D01*
X81609000Y-67051422D02*
X81609000Y-67568578D01*
X77776000Y-109215422D02*
X77776000Y-109732578D01*
X79196000Y-109215422D02*
X79196000Y-109732578D01*
X74370000Y-109215422D02*
X74370000Y-109732578D01*
X72950000Y-109215422D02*
X72950000Y-109732578D01*
X75941422Y-81990000D02*
X76458578Y-81990000D01*
X75941422Y-80570000D02*
X76458578Y-80570000D01*
X75941422Y-79450000D02*
X76458578Y-79450000D01*
X75941422Y-78030000D02*
X76458578Y-78030000D01*
X75941422Y-83110000D02*
X76458578Y-83110000D01*
X75941422Y-84530000D02*
X76458578Y-84530000D01*
X76458578Y-76910000D02*
X75941422Y-76910000D01*
X76458578Y-75490000D02*
X75941422Y-75490000D01*
X75878922Y-94990000D02*
X76396078Y-94990000D01*
X75878922Y-96410000D02*
X76396078Y-96410000D01*
X75841422Y-99410000D02*
X76358578Y-99410000D01*
X75841422Y-97990000D02*
X76358578Y-97990000D01*
X83560000Y-67051422D02*
X83560000Y-67568578D01*
X82140000Y-67051422D02*
X82140000Y-67568578D01*
D12*
X69762666Y-58523142D02*
X69810285Y-58570761D01*
X69953142Y-58618380D01*
X70048380Y-58618380D01*
X70191238Y-58570761D01*
X70286476Y-58475523D01*
X70334095Y-58380285D01*
X70381714Y-58189809D01*
X70381714Y-58046952D01*
X70334095Y-57856476D01*
X70286476Y-57761238D01*
X70191238Y-57666000D01*
X70048380Y-57618380D01*
X69953142Y-57618380D01*
X69810285Y-57666000D01*
X69762666Y-57713619D01*
X69381714Y-57713619D02*
X69334095Y-57666000D01*
X69238857Y-57618380D01*
X69000761Y-57618380D01*
X68905523Y-57666000D01*
X68857904Y-57713619D01*
X68810285Y-57808857D01*
X68810285Y-57904095D01*
X68857904Y-58046952D01*
X69429333Y-58618380D01*
X68810285Y-58618380D01*
X72175666Y-58523142D02*
X72223285Y-58570761D01*
X72366142Y-58618380D01*
X72461380Y-58618380D01*
X72604238Y-58570761D01*
X72699476Y-58475523D01*
X72747095Y-58380285D01*
X72794714Y-58189809D01*
X72794714Y-58046952D01*
X72747095Y-57856476D01*
X72699476Y-57761238D01*
X72604238Y-57666000D01*
X72461380Y-57618380D01*
X72366142Y-57618380D01*
X72223285Y-57666000D01*
X72175666Y-57713619D01*
X71842333Y-57618380D02*
X71223285Y-57618380D01*
X71556619Y-57999333D01*
X71413761Y-57999333D01*
X71318523Y-58046952D01*
X71270904Y-58094571D01*
X71223285Y-58189809D01*
X71223285Y-58427904D01*
X71270904Y-58523142D01*
X71318523Y-58570761D01*
X71413761Y-58618380D01*
X71699476Y-58618380D01*
X71794714Y-58570761D01*
X71842333Y-58523142D01*
X75238095Y-87602380D02*
X75238095Y-86602380D01*
X75000000Y-86602380D01*
X74857142Y-86650000D01*
X74761904Y-86745238D01*
X74714285Y-86840476D01*
X74666666Y-87030952D01*
X74666666Y-87173809D01*
X74714285Y-87364285D01*
X74761904Y-87459523D01*
X74857142Y-87554761D01*
X75000000Y-87602380D01*
X75238095Y-87602380D01*
X73714285Y-87602380D02*
X74285714Y-87602380D01*
X74000000Y-87602380D02*
X74000000Y-86602380D01*
X74095238Y-86745238D01*
X74190476Y-86840476D01*
X74285714Y-86888095D01*
X75238095Y-90952380D02*
X75238095Y-89952380D01*
X75000000Y-89952380D01*
X74857142Y-90000000D01*
X74761904Y-90095238D01*
X74714285Y-90190476D01*
X74666666Y-90380952D01*
X74666666Y-90523809D01*
X74714285Y-90714285D01*
X74761904Y-90809523D01*
X74857142Y-90904761D01*
X75000000Y-90952380D01*
X75238095Y-90952380D01*
X74285714Y-90047619D02*
X74238095Y-90000000D01*
X74142857Y-89952380D01*
X73904761Y-89952380D01*
X73809523Y-90000000D01*
X73761904Y-90047619D01*
X73714285Y-90142857D01*
X73714285Y-90238095D01*
X73761904Y-90380952D01*
X74333333Y-90952380D01*
X73714285Y-90952380D01*
X80966666Y-65457142D02*
X81014285Y-65504761D01*
X81157142Y-65552380D01*
X81252380Y-65552380D01*
X81395238Y-65504761D01*
X81490476Y-65409523D01*
X81538095Y-65314285D01*
X81585714Y-65123809D01*
X81585714Y-64980952D01*
X81538095Y-64790476D01*
X81490476Y-64695238D01*
X81395238Y-64600000D01*
X81252380Y-64552380D01*
X81157142Y-64552380D01*
X81014285Y-64600000D01*
X80966666Y-64647619D01*
X80014285Y-65552380D02*
X80585714Y-65552380D01*
X80300000Y-65552380D02*
X80300000Y-64552380D01*
X80395238Y-64695238D01*
X80490476Y-64790476D01*
X80585714Y-64838095D01*
X78666666Y-107557142D02*
X78714285Y-107604761D01*
X78857142Y-107652380D01*
X78952380Y-107652380D01*
X79095238Y-107604761D01*
X79190476Y-107509523D01*
X79238095Y-107414285D01*
X79285714Y-107223809D01*
X79285714Y-107080952D01*
X79238095Y-106890476D01*
X79190476Y-106795238D01*
X79095238Y-106700000D01*
X78952380Y-106652380D01*
X78857142Y-106652380D01*
X78714285Y-106700000D01*
X78666666Y-106747619D01*
X77809523Y-106985714D02*
X77809523Y-107652380D01*
X78047619Y-106604761D02*
X78285714Y-107319047D01*
X77666666Y-107319047D01*
X73866666Y-107557142D02*
X73914285Y-107604761D01*
X74057142Y-107652380D01*
X74152380Y-107652380D01*
X74295238Y-107604761D01*
X74390476Y-107509523D01*
X74438095Y-107414285D01*
X74485714Y-107223809D01*
X74485714Y-107080952D01*
X74438095Y-106890476D01*
X74390476Y-106795238D01*
X74295238Y-106700000D01*
X74152380Y-106652380D01*
X74057142Y-106652380D01*
X73914285Y-106700000D01*
X73866666Y-106747619D01*
X72961904Y-106652380D02*
X73438095Y-106652380D01*
X73485714Y-107128571D01*
X73438095Y-107080952D01*
X73342857Y-107033333D01*
X73104761Y-107033333D01*
X73009523Y-107080952D01*
X72961904Y-107128571D01*
X72914285Y-107223809D01*
X72914285Y-107461904D01*
X72961904Y-107557142D01*
X73009523Y-107604761D01*
X73104761Y-107652380D01*
X73342857Y-107652380D01*
X73438095Y-107604761D01*
X73485714Y-107557142D01*
X74666666Y-80452380D02*
X75000000Y-79976190D01*
X75238095Y-80452380D02*
X75238095Y-79452380D01*
X74857142Y-79452380D01*
X74761904Y-79500000D01*
X74714285Y-79547619D01*
X74666666Y-79642857D01*
X74666666Y-79785714D01*
X74714285Y-79880952D01*
X74761904Y-79928571D01*
X74857142Y-79976190D01*
X75238095Y-79976190D01*
X73714285Y-80452380D02*
X74285714Y-80452380D01*
X74000000Y-80452380D02*
X74000000Y-79452380D01*
X74095238Y-79595238D01*
X74190476Y-79690476D01*
X74285714Y-79738095D01*
X74666666Y-78052380D02*
X75000000Y-77576190D01*
X75238095Y-78052380D02*
X75238095Y-77052380D01*
X74857142Y-77052380D01*
X74761904Y-77100000D01*
X74714285Y-77147619D01*
X74666666Y-77242857D01*
X74666666Y-77385714D01*
X74714285Y-77480952D01*
X74761904Y-77528571D01*
X74857142Y-77576190D01*
X75238095Y-77576190D01*
X74285714Y-77147619D02*
X74238095Y-77100000D01*
X74142857Y-77052380D01*
X73904761Y-77052380D01*
X73809523Y-77100000D01*
X73761904Y-77147619D01*
X73714285Y-77242857D01*
X73714285Y-77338095D01*
X73761904Y-77480952D01*
X74333333Y-78052380D01*
X73714285Y-78052380D01*
X74666666Y-83052380D02*
X75000000Y-82576190D01*
X75238095Y-83052380D02*
X75238095Y-82052380D01*
X74857142Y-82052380D01*
X74761904Y-82100000D01*
X74714285Y-82147619D01*
X74666666Y-82242857D01*
X74666666Y-82385714D01*
X74714285Y-82480952D01*
X74761904Y-82528571D01*
X74857142Y-82576190D01*
X75238095Y-82576190D01*
X74333333Y-82052380D02*
X73714285Y-82052380D01*
X74047619Y-82433333D01*
X73904761Y-82433333D01*
X73809523Y-82480952D01*
X73761904Y-82528571D01*
X73714285Y-82623809D01*
X73714285Y-82861904D01*
X73761904Y-82957142D01*
X73809523Y-83004761D01*
X73904761Y-83052380D01*
X74190476Y-83052380D01*
X74285714Y-83004761D01*
X74333333Y-82957142D01*
X74666666Y-75252380D02*
X75000000Y-74776190D01*
X75238095Y-75252380D02*
X75238095Y-74252380D01*
X74857142Y-74252380D01*
X74761904Y-74300000D01*
X74714285Y-74347619D01*
X74666666Y-74442857D01*
X74666666Y-74585714D01*
X74714285Y-74680952D01*
X74761904Y-74728571D01*
X74857142Y-74776190D01*
X75238095Y-74776190D01*
X73809523Y-74585714D02*
X73809523Y-75252380D01*
X74047619Y-74204761D02*
X74285714Y-74919047D01*
X73666666Y-74919047D01*
X74666666Y-94552380D02*
X75000000Y-94076190D01*
X75238095Y-94552380D02*
X75238095Y-93552380D01*
X74857142Y-93552380D01*
X74761904Y-93600000D01*
X74714285Y-93647619D01*
X74666666Y-93742857D01*
X74666666Y-93885714D01*
X74714285Y-93980952D01*
X74761904Y-94028571D01*
X74857142Y-94076190D01*
X75238095Y-94076190D01*
X73761904Y-93552380D02*
X74238095Y-93552380D01*
X74285714Y-94028571D01*
X74238095Y-93980952D01*
X74142857Y-93933333D01*
X73904761Y-93933333D01*
X73809523Y-93980952D01*
X73761904Y-94028571D01*
X73714285Y-94123809D01*
X73714285Y-94361904D01*
X73761904Y-94457142D01*
X73809523Y-94504761D01*
X73904761Y-94552380D01*
X74142857Y-94552380D01*
X74238095Y-94504761D01*
X74285714Y-94457142D01*
X74666666Y-97552380D02*
X75000000Y-97076190D01*
X75238095Y-97552380D02*
X75238095Y-96552380D01*
X74857142Y-96552380D01*
X74761904Y-96600000D01*
X74714285Y-96647619D01*
X74666666Y-96742857D01*
X74666666Y-96885714D01*
X74714285Y-96980952D01*
X74761904Y-97028571D01*
X74857142Y-97076190D01*
X75238095Y-97076190D01*
X73809523Y-96552380D02*
X74000000Y-96552380D01*
X74095238Y-96600000D01*
X74142857Y-96647619D01*
X74238095Y-96790476D01*
X74285714Y-96980952D01*
X74285714Y-97361904D01*
X74238095Y-97457142D01*
X74190476Y-97504761D01*
X74095238Y-97552380D01*
X73904761Y-97552380D01*
X73809523Y-97504761D01*
X73761904Y-97457142D01*
X73714285Y-97361904D01*
X73714285Y-97123809D01*
X73761904Y-97028571D01*
X73809523Y-96980952D01*
X73904761Y-96933333D01*
X74095238Y-96933333D01*
X74190476Y-96980952D01*
X74238095Y-97028571D01*
X74285714Y-97123809D01*
X83066666Y-65457142D02*
X83114285Y-65504761D01*
X83257142Y-65552380D01*
X83352380Y-65552380D01*
X83495238Y-65504761D01*
X83590476Y-65409523D01*
X83638095Y-65314285D01*
X83685714Y-65123809D01*
X83685714Y-64980952D01*
X83638095Y-64790476D01*
X83590476Y-64695238D01*
X83495238Y-64600000D01*
X83352380Y-64552380D01*
X83257142Y-64552380D01*
X83114285Y-64600000D01*
X83066666Y-64647619D01*
X82209523Y-64552380D02*
X82400000Y-64552380D01*
X82495238Y-64600000D01*
X82542857Y-64647619D01*
X82638095Y-64790476D01*
X82685714Y-64980952D01*
X82685714Y-65361904D01*
X82638095Y-65457142D01*
X82590476Y-65504761D01*
X82495238Y-65552380D01*
X82304761Y-65552380D01*
X82209523Y-65504761D01*
X82161904Y-65457142D01*
X82114285Y-65361904D01*
X82114285Y-65123809D01*
X82161904Y-65028571D01*
X82209523Y-64980952D01*
X82304761Y-64933333D01*
X82495238Y-64933333D01*
X82590476Y-64980952D01*
X82638095Y-65028571D01*
X82685714Y-65123809D01*
M02*
