G04 #@! TF.GenerationSoftware,KiCad,Pcbnew,5.1.6-1.fc31*
G04 #@! TF.CreationDate,2020-07-21T16:24:12+03:00*
G04 #@! TF.ProjectId,rudy,72756479-2e6b-4696-9361-645f70636258,rev?*
G04 #@! TF.SameCoordinates,Original*
G04 #@! TF.FileFunction,Paste,Top*
G04 #@! TF.FilePolarity,Positive*
%FSLAX46Y46*%
G04 Gerber Fmt 4.6, Leading zero omitted, Abs format (unit mm)*
G04 Created by KiCad (PCBNEW 5.1.6-1.fc31) date 2020-07-21 16:24:12*
%MOMM*%
%LPD*%
G01*
G04 APERTURE LIST*
%ADD10R,0.500000X2.300000*%
%ADD11R,2.000000X2.500000*%
G04 APERTURE END LIST*
D10*
X77800000Y-63506000D03*
X77000000Y-63506000D03*
X76200000Y-63506000D03*
X75400000Y-63506000D03*
X74600000Y-63506000D03*
D11*
X80650000Y-63406000D03*
X80650000Y-57906000D03*
X71750000Y-63406000D03*
X71750000Y-57906000D03*
G36*
G01*
X75543750Y-76312500D02*
X76456250Y-76312500D01*
G75*
G02*
X76700000Y-76556250I0J-243750D01*
G01*
X76700000Y-77043750D01*
G75*
G02*
X76456250Y-77287500I-243750J0D01*
G01*
X75543750Y-77287500D01*
G75*
G02*
X75300000Y-77043750I0J243750D01*
G01*
X75300000Y-76556250D01*
G75*
G02*
X75543750Y-76312500I243750J0D01*
G01*
G37*
G36*
G01*
X75543750Y-78187500D02*
X76456250Y-78187500D01*
G75*
G02*
X76700000Y-78431250I0J-243750D01*
G01*
X76700000Y-78918750D01*
G75*
G02*
X76456250Y-79162500I-243750J0D01*
G01*
X75543750Y-79162500D01*
G75*
G02*
X75300000Y-78918750I0J243750D01*
G01*
X75300000Y-78431250D01*
G75*
G02*
X75543750Y-78187500I243750J0D01*
G01*
G37*
G36*
G01*
X75643750Y-97650000D02*
X76556250Y-97650000D01*
G75*
G02*
X76800000Y-97893750I0J-243750D01*
G01*
X76800000Y-98381250D01*
G75*
G02*
X76556250Y-98625000I-243750J0D01*
G01*
X75643750Y-98625000D01*
G75*
G02*
X75400000Y-98381250I0J243750D01*
G01*
X75400000Y-97893750D01*
G75*
G02*
X75643750Y-97650000I243750J0D01*
G01*
G37*
G36*
G01*
X75643750Y-95775000D02*
X76556250Y-95775000D01*
G75*
G02*
X76800000Y-96018750I0J-243750D01*
G01*
X76800000Y-96506250D01*
G75*
G02*
X76556250Y-96750000I-243750J0D01*
G01*
X75643750Y-96750000D01*
G75*
G02*
X75400000Y-96506250I0J243750D01*
G01*
X75400000Y-96018750D01*
G75*
G02*
X75643750Y-95775000I243750J0D01*
G01*
G37*
M02*
