G04 #@! TF.FileFunction,Copper,L1,Top,Signal*
%FSLAX46Y46*%
G04 Gerber Fmt 4.6, Leading zero omitted, Abs format (unit mm)*
G04 Created by KiCad (PCBNEW 4.0.7-e2-6376~58~ubuntu16.04.1) date Tue Sep 12 20:01:57 2017*
%MOMM*%
%LPD*%
G01*
G04 APERTURE LIST*
%ADD10C,0.100000*%
%ADD11R,1.727200X1.727200*%
%ADD12O,1.727200X1.727200*%
%ADD13R,1.600000X1.600000*%
%ADD14O,1.600000X1.600000*%
%ADD15C,1.500000*%
%ADD16R,1.700000X1.700000*%
%ADD17O,1.700000X1.700000*%
%ADD18R,0.500000X2.300000*%
%ADD19R,2.000000X2.500000*%
%ADD20C,0.600000*%
%ADD21C,0.400000*%
%ADD22C,0.250000*%
%ADD23C,0.127000*%
G04 APERTURE END LIST*
D10*
D11*
X78740000Y-116332000D03*
D12*
X78740000Y-118872000D03*
X76200000Y-116332000D03*
X76200000Y-118872000D03*
X73660000Y-116332000D03*
X73660000Y-118872000D03*
D13*
X72390000Y-71120000D03*
D14*
X80010000Y-104140000D03*
X72390000Y-73660000D03*
X80010000Y-101600000D03*
X72390000Y-76200000D03*
X80010000Y-99060000D03*
X72390000Y-78740000D03*
X80010000Y-96520000D03*
X72390000Y-81280000D03*
X80010000Y-93980000D03*
X72390000Y-83820000D03*
X80010000Y-91440000D03*
X72390000Y-86360000D03*
X80010000Y-88900000D03*
X72390000Y-88900000D03*
X80010000Y-86360000D03*
X72390000Y-91440000D03*
X80010000Y-83820000D03*
X72390000Y-93980000D03*
X80010000Y-81280000D03*
X72390000Y-96520000D03*
X80010000Y-78740000D03*
X72390000Y-99060000D03*
X80010000Y-76200000D03*
X72390000Y-101600000D03*
X80010000Y-73660000D03*
X72390000Y-104140000D03*
X80010000Y-71120000D03*
D15*
X76454000Y-109220000D03*
X71574000Y-109220000D03*
D16*
X73533000Y-67437000D03*
D17*
X76073000Y-67437000D03*
X78613000Y-67437000D03*
D16*
X82550000Y-107950000D03*
D17*
X82550000Y-110490000D03*
D16*
X69850000Y-71120000D03*
D17*
X69850000Y-73660000D03*
X69850000Y-76200000D03*
X69850000Y-78740000D03*
X69850000Y-81280000D03*
X69850000Y-83820000D03*
X69850000Y-86360000D03*
X69850000Y-88900000D03*
X69850000Y-91440000D03*
X69850000Y-93980000D03*
X69850000Y-96520000D03*
X69850000Y-99060000D03*
X69850000Y-101600000D03*
X69850000Y-104140000D03*
D16*
X82550000Y-104140000D03*
D17*
X82550000Y-101600000D03*
X82550000Y-99060000D03*
X82550000Y-96520000D03*
X82550000Y-93980000D03*
X82550000Y-91440000D03*
X82550000Y-88900000D03*
X82550000Y-86360000D03*
X82550000Y-83820000D03*
X82550000Y-81280000D03*
X82550000Y-78740000D03*
X82550000Y-76200000D03*
X82550000Y-73660000D03*
X82550000Y-71120000D03*
D18*
X77800000Y-63506000D03*
X77000000Y-63506000D03*
X76200000Y-63506000D03*
X75400000Y-63506000D03*
X74600000Y-63506000D03*
D19*
X80650000Y-63406000D03*
X80650000Y-57906000D03*
X71750000Y-63406000D03*
X71750000Y-57906000D03*
D20*
X76581000Y-104013000D03*
X70040500Y-65976500D03*
X74803000Y-65595500D03*
X71374000Y-111506000D03*
X79375000Y-69469000D03*
X76454000Y-111506000D03*
X73787000Y-57848500D03*
X81153000Y-105791000D03*
X77200000Y-80100000D03*
X75800000Y-65800000D03*
D21*
X69850000Y-86360000D02*
X72390000Y-86360000D01*
X72390000Y-86360000D02*
X73279000Y-86360000D01*
X73279000Y-86360000D02*
X74549000Y-85090000D01*
X74549000Y-85090000D02*
X74549000Y-68961000D01*
X74549000Y-68961000D02*
X76073000Y-67437000D01*
X72390000Y-86360000D02*
X72390000Y-86614000D01*
X72390000Y-86614000D02*
X76581000Y-90805000D01*
X76581000Y-90805000D02*
X76581000Y-104013000D01*
D22*
X72390000Y-86360000D02*
X72390000Y-86868000D01*
X72390000Y-86360000D02*
X73152000Y-86360000D01*
X74600000Y-63506000D02*
X74600000Y-63957000D01*
X74600000Y-63957000D02*
X72580500Y-65976500D01*
X72580500Y-65976500D02*
X70040500Y-65976500D01*
X74803000Y-65595500D02*
X75400000Y-64998500D01*
X75400000Y-64998500D02*
X75400000Y-63506000D01*
X71374000Y-111506000D02*
X71374000Y-117856000D01*
X71374000Y-117856000D02*
X72390000Y-118872000D01*
X72390000Y-118872000D02*
X73660000Y-118872000D01*
X80010000Y-86360000D02*
X79756000Y-86360000D01*
X79756000Y-86360000D02*
X78613000Y-85217000D01*
X78613000Y-85217000D02*
X78613000Y-70231000D01*
X78613000Y-70231000D02*
X79375000Y-69469000D01*
X75400000Y-64046000D02*
X75400000Y-63506000D01*
X74600000Y-63506000D02*
X74600000Y-63957000D01*
X74600000Y-63424000D02*
X74600000Y-63506000D01*
X79629000Y-86360000D02*
X80010000Y-86360000D01*
X73660000Y-118872000D02*
X73914000Y-118872000D01*
X73914000Y-118872000D02*
X74930000Y-117856000D01*
X74930000Y-117856000D02*
X74930000Y-113030000D01*
X74930000Y-113030000D02*
X76454000Y-111506000D01*
X80010000Y-86360000D02*
X82550000Y-86360000D01*
X69850000Y-88900000D02*
X72390000Y-88900000D01*
D21*
X77800000Y-63506000D02*
X77800000Y-61861500D01*
X77800000Y-61861500D02*
X73787000Y-57848500D01*
X77800000Y-63506000D02*
X77800000Y-66306500D01*
X77800000Y-66306500D02*
X78613000Y-67119500D01*
X78613000Y-67119500D02*
X78613000Y-67437000D01*
D22*
X77800000Y-63506000D02*
X77800000Y-63830000D01*
X77800000Y-63506000D02*
X77800000Y-63576000D01*
X72390000Y-91440000D02*
X72390000Y-91948000D01*
X72390000Y-91948000D02*
X75438000Y-94996000D01*
X75438000Y-94996000D02*
X75438000Y-106426000D01*
X75438000Y-106426000D02*
X76454000Y-107442000D01*
X76454000Y-107442000D02*
X76454000Y-109220000D01*
X72390000Y-91440000D02*
X72390000Y-91948000D01*
X72390000Y-91440000D02*
X72644000Y-91440000D01*
X69850000Y-91440000D02*
X72390000Y-91440000D01*
X71574000Y-109220000D02*
X71574000Y-109020000D01*
X71574000Y-109020000D02*
X74422000Y-106172000D01*
X74422000Y-96012000D02*
X72390000Y-93980000D01*
X74422000Y-106172000D02*
X74422000Y-96012000D01*
X69850000Y-93980000D02*
X72390000Y-93980000D01*
X69850000Y-81280000D02*
X72390000Y-81280000D01*
X69850000Y-78740000D02*
X72390000Y-78740000D01*
X69850000Y-71120000D02*
X72390000Y-71120000D01*
X80010000Y-104140000D02*
X82550000Y-104140000D01*
X69850000Y-73660000D02*
X72390000Y-73660000D01*
X80010000Y-101600000D02*
X82550000Y-101600000D01*
X69850000Y-76200000D02*
X72390000Y-76200000D01*
X76200000Y-118872000D02*
X76708000Y-118872000D01*
X76708000Y-118872000D02*
X77978000Y-117602000D01*
X81153000Y-116586000D02*
X81153000Y-105791000D01*
X80137000Y-117602000D02*
X81153000Y-116586000D01*
X77978000Y-117602000D02*
X80137000Y-117602000D01*
X80010000Y-99060000D02*
X82550000Y-99060000D01*
X78740000Y-116332000D02*
X78740000Y-97790000D01*
X78740000Y-97790000D02*
X80010000Y-96520000D01*
X80010000Y-96520000D02*
X82550000Y-96520000D01*
X80010000Y-93980000D02*
X80010000Y-94234000D01*
X80010000Y-94234000D02*
X77724000Y-96520000D01*
X77724000Y-114808000D02*
X76200000Y-116332000D01*
X77724000Y-96520000D02*
X77724000Y-114808000D01*
X76200000Y-116332000D02*
X76200000Y-115824000D01*
X80010000Y-93980000D02*
X82550000Y-93980000D01*
X69850000Y-83820000D02*
X72390000Y-83820000D01*
X80010000Y-91440000D02*
X82550000Y-91440000D01*
X80010000Y-88900000D02*
X82550000Y-88900000D01*
X80010000Y-83820000D02*
X82550000Y-83820000D01*
X80010000Y-81280000D02*
X82550000Y-81280000D01*
X69850000Y-96520000D02*
X72390000Y-96520000D01*
X80010000Y-78740000D02*
X82550000Y-78740000D01*
X69850000Y-99060000D02*
X72390000Y-99060000D01*
X80010000Y-76200000D02*
X82550000Y-76200000D01*
X69850000Y-101600000D02*
X72390000Y-101600000D01*
X80010000Y-73660000D02*
X82550000Y-73660000D01*
X69850000Y-104140000D02*
X72390000Y-104140000D01*
X80010000Y-71120000D02*
X82550000Y-71120000D01*
D21*
X78740000Y-118872000D02*
X80010000Y-118872000D01*
X80010000Y-118872000D02*
X81788000Y-117094000D01*
X81788000Y-117094000D02*
X81788000Y-111252000D01*
X81788000Y-111252000D02*
X82550000Y-110490000D01*
D22*
X77000000Y-63506000D02*
X77000000Y-66248964D01*
X77400000Y-79900000D02*
X77200000Y-80100000D01*
X77400000Y-66648964D02*
X77400000Y-79900000D01*
X77000000Y-66248964D02*
X77400000Y-66648964D01*
X76200000Y-63506000D02*
X76200000Y-65400000D01*
X76200000Y-65400000D02*
X75800000Y-65800000D01*
D23*
G36*
X83770500Y-85648410D02*
X83448468Y-85258428D01*
X82958523Y-84998451D01*
X82740500Y-85094182D01*
X82740500Y-86169500D01*
X82760500Y-86169500D01*
X82760500Y-86550500D01*
X82740500Y-86550500D01*
X82740500Y-87625818D01*
X82958523Y-87721549D01*
X83448468Y-87461572D01*
X83770500Y-87071590D01*
X83770500Y-122124500D01*
X68629500Y-122124500D01*
X68629500Y-119282667D01*
X72284913Y-119282667D01*
X72397270Y-119553957D01*
X72754363Y-119985272D01*
X73249331Y-120247102D01*
X73469500Y-120151540D01*
X73469500Y-119062500D01*
X72381894Y-119062500D01*
X72284913Y-119282667D01*
X68629500Y-119282667D01*
X68629500Y-104140000D01*
X68714685Y-104140000D01*
X68799445Y-104566118D01*
X69040822Y-104927363D01*
X69402067Y-105168740D01*
X69828185Y-105253500D01*
X69871815Y-105253500D01*
X70297933Y-105168740D01*
X70659178Y-104927363D01*
X70900555Y-104566118D01*
X70908038Y-104528500D01*
X71382942Y-104528500D01*
X71386619Y-104546984D01*
X71617157Y-104892008D01*
X71962181Y-105122546D01*
X72369165Y-105203500D01*
X72410835Y-105203500D01*
X72817819Y-105122546D01*
X73162843Y-104892008D01*
X73393381Y-104546984D01*
X73474335Y-104140000D01*
X73393381Y-103733016D01*
X73162843Y-103387992D01*
X72817819Y-103157454D01*
X72410835Y-103076500D01*
X72369165Y-103076500D01*
X71962181Y-103157454D01*
X71617157Y-103387992D01*
X71386619Y-103733016D01*
X71382942Y-103751500D01*
X70908038Y-103751500D01*
X70900555Y-103713882D01*
X70659178Y-103352637D01*
X70297933Y-103111260D01*
X69871815Y-103026500D01*
X69828185Y-103026500D01*
X69402067Y-103111260D01*
X69040822Y-103352637D01*
X68799445Y-103713882D01*
X68714685Y-104140000D01*
X68629500Y-104140000D01*
X68629500Y-101600000D01*
X68714685Y-101600000D01*
X68799445Y-102026118D01*
X69040822Y-102387363D01*
X69402067Y-102628740D01*
X69828185Y-102713500D01*
X69871815Y-102713500D01*
X70297933Y-102628740D01*
X70659178Y-102387363D01*
X70900555Y-102026118D01*
X70908038Y-101988500D01*
X71382942Y-101988500D01*
X71386619Y-102006984D01*
X71617157Y-102352008D01*
X71962181Y-102582546D01*
X72369165Y-102663500D01*
X72410835Y-102663500D01*
X72817819Y-102582546D01*
X73162843Y-102352008D01*
X73393381Y-102006984D01*
X73474335Y-101600000D01*
X73393381Y-101193016D01*
X73162843Y-100847992D01*
X72817819Y-100617454D01*
X72410835Y-100536500D01*
X72369165Y-100536500D01*
X71962181Y-100617454D01*
X71617157Y-100847992D01*
X71386619Y-101193016D01*
X71382942Y-101211500D01*
X70908038Y-101211500D01*
X70900555Y-101173882D01*
X70659178Y-100812637D01*
X70297933Y-100571260D01*
X69871815Y-100486500D01*
X69828185Y-100486500D01*
X69402067Y-100571260D01*
X69040822Y-100812637D01*
X68799445Y-101173882D01*
X68714685Y-101600000D01*
X68629500Y-101600000D01*
X68629500Y-99060000D01*
X68714685Y-99060000D01*
X68799445Y-99486118D01*
X69040822Y-99847363D01*
X69402067Y-100088740D01*
X69828185Y-100173500D01*
X69871815Y-100173500D01*
X70297933Y-100088740D01*
X70659178Y-99847363D01*
X70900555Y-99486118D01*
X70908038Y-99448500D01*
X71382942Y-99448500D01*
X71386619Y-99466984D01*
X71617157Y-99812008D01*
X71962181Y-100042546D01*
X72369165Y-100123500D01*
X72410835Y-100123500D01*
X72817819Y-100042546D01*
X73162843Y-99812008D01*
X73393381Y-99466984D01*
X73474335Y-99060000D01*
X73393381Y-98653016D01*
X73162843Y-98307992D01*
X72817819Y-98077454D01*
X72410835Y-97996500D01*
X72369165Y-97996500D01*
X71962181Y-98077454D01*
X71617157Y-98307992D01*
X71386619Y-98653016D01*
X71382942Y-98671500D01*
X70908038Y-98671500D01*
X70900555Y-98633882D01*
X70659178Y-98272637D01*
X70297933Y-98031260D01*
X69871815Y-97946500D01*
X69828185Y-97946500D01*
X69402067Y-98031260D01*
X69040822Y-98272637D01*
X68799445Y-98633882D01*
X68714685Y-99060000D01*
X68629500Y-99060000D01*
X68629500Y-96520000D01*
X68714685Y-96520000D01*
X68799445Y-96946118D01*
X69040822Y-97307363D01*
X69402067Y-97548740D01*
X69828185Y-97633500D01*
X69871815Y-97633500D01*
X70297933Y-97548740D01*
X70659178Y-97307363D01*
X70900555Y-96946118D01*
X70908038Y-96908500D01*
X71382942Y-96908500D01*
X71386619Y-96926984D01*
X71617157Y-97272008D01*
X71962181Y-97502546D01*
X72369165Y-97583500D01*
X72410835Y-97583500D01*
X72817819Y-97502546D01*
X73162843Y-97272008D01*
X73393381Y-96926984D01*
X73474335Y-96520000D01*
X73393381Y-96113016D01*
X73162843Y-95767992D01*
X72817819Y-95537454D01*
X72410835Y-95456500D01*
X72369165Y-95456500D01*
X71962181Y-95537454D01*
X71617157Y-95767992D01*
X71386619Y-96113016D01*
X71382942Y-96131500D01*
X70908038Y-96131500D01*
X70900555Y-96093882D01*
X70659178Y-95732637D01*
X70297933Y-95491260D01*
X69871815Y-95406500D01*
X69828185Y-95406500D01*
X69402067Y-95491260D01*
X69040822Y-95732637D01*
X68799445Y-96093882D01*
X68714685Y-96520000D01*
X68629500Y-96520000D01*
X68629500Y-91440000D01*
X68714685Y-91440000D01*
X68799445Y-91866118D01*
X69040822Y-92227363D01*
X69402067Y-92468740D01*
X69828185Y-92553500D01*
X69871815Y-92553500D01*
X70297933Y-92468740D01*
X70659178Y-92227363D01*
X70900555Y-91866118D01*
X70908038Y-91828500D01*
X71382942Y-91828500D01*
X71386619Y-91846984D01*
X71617157Y-92192008D01*
X71962181Y-92422546D01*
X72369165Y-92503500D01*
X72396078Y-92503500D01*
X73035446Y-93142868D01*
X72817819Y-92997454D01*
X72410835Y-92916500D01*
X72369165Y-92916500D01*
X71962181Y-92997454D01*
X71617157Y-93227992D01*
X71386619Y-93573016D01*
X71382942Y-93591500D01*
X70908038Y-93591500D01*
X70900555Y-93553882D01*
X70659178Y-93192637D01*
X70297933Y-92951260D01*
X69871815Y-92866500D01*
X69828185Y-92866500D01*
X69402067Y-92951260D01*
X69040822Y-93192637D01*
X68799445Y-93553882D01*
X68714685Y-93980000D01*
X68799445Y-94406118D01*
X69040822Y-94767363D01*
X69402067Y-95008740D01*
X69828185Y-95093500D01*
X69871815Y-95093500D01*
X70297933Y-95008740D01*
X70659178Y-94767363D01*
X70900555Y-94406118D01*
X70908038Y-94368500D01*
X71382942Y-94368500D01*
X71386619Y-94386984D01*
X71617157Y-94732008D01*
X71962181Y-94962546D01*
X72369165Y-95043500D01*
X72410835Y-95043500D01*
X72817819Y-94962546D01*
X72820999Y-94960421D01*
X74033500Y-96172922D01*
X74033500Y-106011078D01*
X71819881Y-108224697D01*
X71776482Y-108206676D01*
X71373287Y-108206324D01*
X71000648Y-108360295D01*
X70715297Y-108645149D01*
X70560676Y-109017518D01*
X70560324Y-109420713D01*
X70714295Y-109793352D01*
X70999149Y-110078703D01*
X71371518Y-110233324D01*
X71774713Y-110233676D01*
X72147352Y-110079705D01*
X72432703Y-109794851D01*
X72587324Y-109422482D01*
X72587676Y-109019287D01*
X72452145Y-108691277D01*
X74696711Y-106446711D01*
X74758259Y-106354598D01*
X74780927Y-106320673D01*
X74810500Y-106172000D01*
X74810500Y-96012000D01*
X74780927Y-95863327D01*
X74696711Y-95737289D01*
X73374565Y-94415143D01*
X73393381Y-94386984D01*
X73474335Y-93980000D01*
X73393381Y-93573016D01*
X73247967Y-93355389D01*
X75049500Y-95156922D01*
X75049500Y-106426000D01*
X75079073Y-106574673D01*
X75163289Y-106700711D01*
X76065500Y-107602922D01*
X76065500Y-108283916D01*
X75880648Y-108360295D01*
X75595297Y-108645149D01*
X75440676Y-109017518D01*
X75440324Y-109420713D01*
X75594295Y-109793352D01*
X75879149Y-110078703D01*
X76251518Y-110233324D01*
X76654713Y-110233676D01*
X77027352Y-110079705D01*
X77312703Y-109794851D01*
X77335500Y-109739950D01*
X77335500Y-114647078D01*
X76676470Y-115306108D01*
X76653403Y-115290695D01*
X76222081Y-115204900D01*
X76177919Y-115204900D01*
X75746597Y-115290695D01*
X75380939Y-115535020D01*
X75136614Y-115900678D01*
X75050819Y-116332000D01*
X75136614Y-116763322D01*
X75380939Y-117128980D01*
X75746597Y-117373305D01*
X76177919Y-117459100D01*
X76222081Y-117459100D01*
X76653403Y-117373305D01*
X77019061Y-117128980D01*
X77263386Y-116763322D01*
X77349181Y-116332000D01*
X77263386Y-115900678D01*
X77230284Y-115851138D01*
X77607738Y-115473684D01*
X77607738Y-117195600D01*
X77626112Y-117293247D01*
X77669658Y-117360920D01*
X76980994Y-118049584D01*
X76653403Y-117830695D01*
X76222081Y-117744900D01*
X76177919Y-117744900D01*
X75746597Y-117830695D01*
X75380939Y-118075020D01*
X75136614Y-118440678D01*
X75088712Y-118681498D01*
X74938107Y-118681498D01*
X75035087Y-118461333D01*
X74922730Y-118190043D01*
X74565637Y-117758728D01*
X74070669Y-117496898D01*
X73850502Y-117592459D01*
X73850502Y-117436900D01*
X73793688Y-117436900D01*
X74113403Y-117373305D01*
X74479061Y-117128980D01*
X74723386Y-116763322D01*
X74809181Y-116332000D01*
X74723386Y-115900678D01*
X74479061Y-115535020D01*
X74113403Y-115290695D01*
X73682081Y-115204900D01*
X73637919Y-115204900D01*
X73206597Y-115290695D01*
X72840939Y-115535020D01*
X72596614Y-115900678D01*
X72510819Y-116332000D01*
X72596614Y-116763322D01*
X72840939Y-117128980D01*
X73206597Y-117373305D01*
X73526312Y-117436900D01*
X73469498Y-117436900D01*
X73469498Y-117592459D01*
X73249331Y-117496898D01*
X72754363Y-117758728D01*
X72397270Y-118190043D01*
X72284913Y-118461333D01*
X72381894Y-118681500D01*
X73469500Y-118681500D01*
X73469500Y-118661500D01*
X73850500Y-118661500D01*
X73850500Y-118681500D01*
X73870500Y-118681500D01*
X73870500Y-119062500D01*
X73850500Y-119062500D01*
X73850500Y-120151540D01*
X74070669Y-120247102D01*
X74565637Y-119985272D01*
X74922730Y-119553957D01*
X75035087Y-119282667D01*
X74938107Y-119062502D01*
X75088712Y-119062502D01*
X75136614Y-119303322D01*
X75380939Y-119668980D01*
X75746597Y-119913305D01*
X76177919Y-119999100D01*
X76222081Y-119999100D01*
X76653403Y-119913305D01*
X77019061Y-119668980D01*
X77263386Y-119303322D01*
X77349181Y-118872000D01*
X77333957Y-118795465D01*
X77673602Y-118455820D01*
X77590819Y-118872000D01*
X77676614Y-119303322D01*
X77920939Y-119668980D01*
X78286597Y-119913305D01*
X78717919Y-119999100D01*
X78762081Y-119999100D01*
X79193403Y-119913305D01*
X79559061Y-119668980D01*
X79781885Y-119335500D01*
X80010000Y-119335500D01*
X80187374Y-119300218D01*
X80337744Y-119199744D01*
X82115744Y-117421744D01*
X82148110Y-117373305D01*
X82216218Y-117271374D01*
X82251500Y-117094000D01*
X82251500Y-111548464D01*
X82528185Y-111603500D01*
X82571815Y-111603500D01*
X82997933Y-111518740D01*
X83359178Y-111277363D01*
X83600555Y-110916118D01*
X83685315Y-110490000D01*
X83600555Y-110063882D01*
X83359178Y-109702637D01*
X82997933Y-109461260D01*
X82571815Y-109376500D01*
X82528185Y-109376500D01*
X82102067Y-109461260D01*
X81740822Y-109702637D01*
X81541500Y-110000942D01*
X81541500Y-109010615D01*
X81595475Y-109047495D01*
X81700000Y-109068662D01*
X83400000Y-109068662D01*
X83497647Y-109050288D01*
X83587330Y-108992579D01*
X83647495Y-108904525D01*
X83668662Y-108800000D01*
X83668662Y-107100000D01*
X83650288Y-107002353D01*
X83592579Y-106912670D01*
X83504525Y-106852505D01*
X83400000Y-106831338D01*
X81700000Y-106831338D01*
X81602353Y-106849712D01*
X81541500Y-106888870D01*
X81541500Y-106199393D01*
X81630434Y-106110614D01*
X81716402Y-105903579D01*
X81716598Y-105679405D01*
X81630991Y-105472220D01*
X81472614Y-105313566D01*
X81265579Y-105227598D01*
X81041405Y-105227402D01*
X80834220Y-105313009D01*
X80675566Y-105471386D01*
X80589598Y-105678421D01*
X80589402Y-105902595D01*
X80675009Y-106109780D01*
X80764500Y-106199428D01*
X80764500Y-116425078D01*
X79976078Y-117213500D01*
X79868637Y-117213500D01*
X79872262Y-117195600D01*
X79872262Y-115468400D01*
X79853888Y-115370753D01*
X79796179Y-115281070D01*
X79708125Y-115220905D01*
X79603600Y-115199738D01*
X79128500Y-115199738D01*
X79128500Y-104729392D01*
X79237157Y-104892008D01*
X79582181Y-105122546D01*
X79989165Y-105203500D01*
X80030835Y-105203500D01*
X80437819Y-105122546D01*
X80782843Y-104892008D01*
X81013381Y-104546984D01*
X81017058Y-104528500D01*
X81431338Y-104528500D01*
X81431338Y-104990000D01*
X81449712Y-105087647D01*
X81507421Y-105177330D01*
X81595475Y-105237495D01*
X81700000Y-105258662D01*
X83400000Y-105258662D01*
X83497647Y-105240288D01*
X83587330Y-105182579D01*
X83647495Y-105094525D01*
X83668662Y-104990000D01*
X83668662Y-103290000D01*
X83650288Y-103192353D01*
X83592579Y-103102670D01*
X83504525Y-103042505D01*
X83400000Y-103021338D01*
X81700000Y-103021338D01*
X81602353Y-103039712D01*
X81512670Y-103097421D01*
X81452505Y-103185475D01*
X81431338Y-103290000D01*
X81431338Y-103751500D01*
X81017058Y-103751500D01*
X81013381Y-103733016D01*
X80782843Y-103387992D01*
X80437819Y-103157454D01*
X80030835Y-103076500D01*
X79989165Y-103076500D01*
X79582181Y-103157454D01*
X79237157Y-103387992D01*
X79128500Y-103550608D01*
X79128500Y-102189392D01*
X79237157Y-102352008D01*
X79582181Y-102582546D01*
X79989165Y-102663500D01*
X80030835Y-102663500D01*
X80437819Y-102582546D01*
X80782843Y-102352008D01*
X81013381Y-102006984D01*
X81017058Y-101988500D01*
X81491962Y-101988500D01*
X81499445Y-102026118D01*
X81740822Y-102387363D01*
X82102067Y-102628740D01*
X82528185Y-102713500D01*
X82571815Y-102713500D01*
X82997933Y-102628740D01*
X83359178Y-102387363D01*
X83600555Y-102026118D01*
X83685315Y-101600000D01*
X83600555Y-101173882D01*
X83359178Y-100812637D01*
X82997933Y-100571260D01*
X82571815Y-100486500D01*
X82528185Y-100486500D01*
X82102067Y-100571260D01*
X81740822Y-100812637D01*
X81499445Y-101173882D01*
X81491962Y-101211500D01*
X81017058Y-101211500D01*
X81013381Y-101193016D01*
X80782843Y-100847992D01*
X80437819Y-100617454D01*
X80030835Y-100536500D01*
X79989165Y-100536500D01*
X79582181Y-100617454D01*
X79237157Y-100847992D01*
X79128500Y-101010608D01*
X79128500Y-99649392D01*
X79237157Y-99812008D01*
X79582181Y-100042546D01*
X79989165Y-100123500D01*
X80030835Y-100123500D01*
X80437819Y-100042546D01*
X80782843Y-99812008D01*
X81013381Y-99466984D01*
X81017058Y-99448500D01*
X81491962Y-99448500D01*
X81499445Y-99486118D01*
X81740822Y-99847363D01*
X82102067Y-100088740D01*
X82528185Y-100173500D01*
X82571815Y-100173500D01*
X82997933Y-100088740D01*
X83359178Y-99847363D01*
X83600555Y-99486118D01*
X83685315Y-99060000D01*
X83600555Y-98633882D01*
X83359178Y-98272637D01*
X82997933Y-98031260D01*
X82571815Y-97946500D01*
X82528185Y-97946500D01*
X82102067Y-98031260D01*
X81740822Y-98272637D01*
X81499445Y-98633882D01*
X81491962Y-98671500D01*
X81017058Y-98671500D01*
X81013381Y-98653016D01*
X80782843Y-98307992D01*
X80437819Y-98077454D01*
X80030835Y-97996500D01*
X79989165Y-97996500D01*
X79582181Y-98077454D01*
X79237157Y-98307992D01*
X79128500Y-98470608D01*
X79128500Y-97950922D01*
X79579001Y-97500421D01*
X79582181Y-97502546D01*
X79989165Y-97583500D01*
X80030835Y-97583500D01*
X80437819Y-97502546D01*
X80782843Y-97272008D01*
X81013381Y-96926984D01*
X81017058Y-96908500D01*
X81491962Y-96908500D01*
X81499445Y-96946118D01*
X81740822Y-97307363D01*
X82102067Y-97548740D01*
X82528185Y-97633500D01*
X82571815Y-97633500D01*
X82997933Y-97548740D01*
X83359178Y-97307363D01*
X83600555Y-96946118D01*
X83685315Y-96520000D01*
X83600555Y-96093882D01*
X83359178Y-95732637D01*
X82997933Y-95491260D01*
X82571815Y-95406500D01*
X82528185Y-95406500D01*
X82102067Y-95491260D01*
X81740822Y-95732637D01*
X81499445Y-96093882D01*
X81491962Y-96131500D01*
X81017058Y-96131500D01*
X81013381Y-96113016D01*
X80782843Y-95767992D01*
X80437819Y-95537454D01*
X80030835Y-95456500D01*
X79989165Y-95456500D01*
X79582181Y-95537454D01*
X79237157Y-95767992D01*
X79006619Y-96113016D01*
X78925665Y-96520000D01*
X79006619Y-96926984D01*
X79025435Y-96955143D01*
X78465289Y-97515289D01*
X78381073Y-97641327D01*
X78351500Y-97790000D01*
X78351500Y-115199738D01*
X77881684Y-115199738D01*
X77998711Y-115082711D01*
X78082927Y-114956673D01*
X78112500Y-114808000D01*
X78112500Y-96680922D01*
X79789615Y-95003807D01*
X79989165Y-95043500D01*
X80030835Y-95043500D01*
X80437819Y-94962546D01*
X80782843Y-94732008D01*
X81013381Y-94386984D01*
X81017058Y-94368500D01*
X81491962Y-94368500D01*
X81499445Y-94406118D01*
X81740822Y-94767363D01*
X82102067Y-95008740D01*
X82528185Y-95093500D01*
X82571815Y-95093500D01*
X82997933Y-95008740D01*
X83359178Y-94767363D01*
X83600555Y-94406118D01*
X83685315Y-93980000D01*
X83600555Y-93553882D01*
X83359178Y-93192637D01*
X82997933Y-92951260D01*
X82571815Y-92866500D01*
X82528185Y-92866500D01*
X82102067Y-92951260D01*
X81740822Y-93192637D01*
X81499445Y-93553882D01*
X81491962Y-93591500D01*
X81017058Y-93591500D01*
X81013381Y-93573016D01*
X80782843Y-93227992D01*
X80437819Y-92997454D01*
X80030835Y-92916500D01*
X79989165Y-92916500D01*
X79582181Y-92997454D01*
X79237157Y-93227992D01*
X79006619Y-93573016D01*
X78925665Y-93980000D01*
X79006619Y-94386984D01*
X79127173Y-94567405D01*
X77449289Y-96245289D01*
X77365073Y-96371327D01*
X77335500Y-96520000D01*
X77335500Y-108699396D01*
X77313705Y-108646648D01*
X77028851Y-108361297D01*
X76842500Y-108283917D01*
X76842500Y-107442000D01*
X76812927Y-107293327D01*
X76728711Y-107167289D01*
X75826500Y-106265078D01*
X75826500Y-94996000D01*
X75796927Y-94847327D01*
X75712711Y-94721289D01*
X73171089Y-92179667D01*
X73393381Y-91846984D01*
X73474335Y-91440000D01*
X73393381Y-91033016D01*
X73162843Y-90687992D01*
X72817819Y-90457454D01*
X72410835Y-90376500D01*
X72369165Y-90376500D01*
X71962181Y-90457454D01*
X71617157Y-90687992D01*
X71386619Y-91033016D01*
X71382942Y-91051500D01*
X70908038Y-91051500D01*
X70900555Y-91013882D01*
X70659178Y-90652637D01*
X70297933Y-90411260D01*
X69871815Y-90326500D01*
X69828185Y-90326500D01*
X69402067Y-90411260D01*
X69040822Y-90652637D01*
X68799445Y-91013882D01*
X68714685Y-91440000D01*
X68629500Y-91440000D01*
X68629500Y-89611590D01*
X68951532Y-90001572D01*
X69441477Y-90261549D01*
X69659500Y-90165818D01*
X69659500Y-89090500D01*
X70040500Y-89090500D01*
X70040500Y-90165818D01*
X70258523Y-90261549D01*
X70748468Y-90001572D01*
X71101630Y-89573891D01*
X71146560Y-89465404D01*
X71179203Y-89544225D01*
X71517904Y-89958538D01*
X71989373Y-90211698D01*
X72199500Y-90115346D01*
X72199500Y-89090500D01*
X72580500Y-89090500D01*
X72580500Y-90115346D01*
X72790627Y-90211698D01*
X73262096Y-89958538D01*
X73600797Y-89544225D01*
X73701682Y-89300625D01*
X73603767Y-89090500D01*
X72580500Y-89090500D01*
X72199500Y-89090500D01*
X71176233Y-89090500D01*
X71144606Y-89158371D01*
X71114354Y-89090500D01*
X70040500Y-89090500D01*
X69659500Y-89090500D01*
X69639500Y-89090500D01*
X69639500Y-88709500D01*
X69659500Y-88709500D01*
X69659500Y-87634182D01*
X70040500Y-87634182D01*
X70040500Y-88709500D01*
X71114354Y-88709500D01*
X71144606Y-88641629D01*
X71176233Y-88709500D01*
X72199500Y-88709500D01*
X72199500Y-87684654D01*
X71989373Y-87588302D01*
X71517904Y-87841462D01*
X71179203Y-88255775D01*
X71146560Y-88334596D01*
X71101630Y-88226109D01*
X70748468Y-87798428D01*
X70258523Y-87538451D01*
X70040500Y-87634182D01*
X69659500Y-87634182D01*
X69441477Y-87538451D01*
X68951532Y-87798428D01*
X68629500Y-88188410D01*
X68629500Y-86360000D01*
X68714685Y-86360000D01*
X68799445Y-86786118D01*
X69040822Y-87147363D01*
X69402067Y-87388740D01*
X69828185Y-87473500D01*
X69871815Y-87473500D01*
X70297933Y-87388740D01*
X70659178Y-87147363D01*
X70875577Y-86823500D01*
X71424382Y-86823500D01*
X71617157Y-87112008D01*
X71962181Y-87342546D01*
X72369165Y-87423500D01*
X72410835Y-87423500D01*
X72521917Y-87401405D01*
X72734535Y-87614023D01*
X72580500Y-87684654D01*
X72580500Y-88709500D01*
X73603767Y-88709500D01*
X73675682Y-88555170D01*
X76117500Y-90996988D01*
X76117500Y-103679476D01*
X76103566Y-103693386D01*
X76017598Y-103900421D01*
X76017402Y-104124595D01*
X76103009Y-104331780D01*
X76261386Y-104490434D01*
X76468421Y-104576402D01*
X76692595Y-104576598D01*
X76899780Y-104490991D01*
X77058434Y-104332614D01*
X77144402Y-104125579D01*
X77144598Y-103901405D01*
X77058991Y-103694220D01*
X77044500Y-103679704D01*
X77044500Y-91440000D01*
X78925665Y-91440000D01*
X79006619Y-91846984D01*
X79237157Y-92192008D01*
X79582181Y-92422546D01*
X79989165Y-92503500D01*
X80030835Y-92503500D01*
X80437819Y-92422546D01*
X80782843Y-92192008D01*
X81013381Y-91846984D01*
X81017058Y-91828500D01*
X81491962Y-91828500D01*
X81499445Y-91866118D01*
X81740822Y-92227363D01*
X82102067Y-92468740D01*
X82528185Y-92553500D01*
X82571815Y-92553500D01*
X82997933Y-92468740D01*
X83359178Y-92227363D01*
X83600555Y-91866118D01*
X83685315Y-91440000D01*
X83600555Y-91013882D01*
X83359178Y-90652637D01*
X82997933Y-90411260D01*
X82571815Y-90326500D01*
X82528185Y-90326500D01*
X82102067Y-90411260D01*
X81740822Y-90652637D01*
X81499445Y-91013882D01*
X81491962Y-91051500D01*
X81017058Y-91051500D01*
X81013381Y-91033016D01*
X80782843Y-90687992D01*
X80437819Y-90457454D01*
X80030835Y-90376500D01*
X79989165Y-90376500D01*
X79582181Y-90457454D01*
X79237157Y-90687992D01*
X79006619Y-91033016D01*
X78925665Y-91440000D01*
X77044500Y-91440000D01*
X77044500Y-90805000D01*
X77009218Y-90627626D01*
X76908744Y-90477256D01*
X75331488Y-88900000D01*
X78925665Y-88900000D01*
X79006619Y-89306984D01*
X79237157Y-89652008D01*
X79582181Y-89882546D01*
X79989165Y-89963500D01*
X80030835Y-89963500D01*
X80437819Y-89882546D01*
X80782843Y-89652008D01*
X81013381Y-89306984D01*
X81017058Y-89288500D01*
X81491962Y-89288500D01*
X81499445Y-89326118D01*
X81740822Y-89687363D01*
X82102067Y-89928740D01*
X82528185Y-90013500D01*
X82571815Y-90013500D01*
X82997933Y-89928740D01*
X83359178Y-89687363D01*
X83600555Y-89326118D01*
X83685315Y-88900000D01*
X83600555Y-88473882D01*
X83359178Y-88112637D01*
X82997933Y-87871260D01*
X82571815Y-87786500D01*
X82528185Y-87786500D01*
X82102067Y-87871260D01*
X81740822Y-88112637D01*
X81499445Y-88473882D01*
X81491962Y-88511500D01*
X81017058Y-88511500D01*
X81013381Y-88493016D01*
X80782843Y-88147992D01*
X80437819Y-87917454D01*
X80030835Y-87836500D01*
X79989165Y-87836500D01*
X79582181Y-87917454D01*
X79237157Y-88147992D01*
X79006619Y-88493016D01*
X78925665Y-88900000D01*
X75331488Y-88900000D01*
X73315311Y-86883823D01*
X73367362Y-86805924D01*
X73456374Y-86788218D01*
X73497669Y-86760625D01*
X78698318Y-86760625D01*
X78799203Y-87004225D01*
X79137904Y-87418538D01*
X79609373Y-87671698D01*
X79819500Y-87575346D01*
X79819500Y-86550500D01*
X80200500Y-86550500D01*
X80200500Y-87575346D01*
X80410627Y-87671698D01*
X80882096Y-87418538D01*
X81220797Y-87004225D01*
X81253440Y-86925404D01*
X81298370Y-87033891D01*
X81651532Y-87461572D01*
X82141477Y-87721549D01*
X82359500Y-87625818D01*
X82359500Y-86550500D01*
X81285646Y-86550500D01*
X81255394Y-86618371D01*
X81223767Y-86550500D01*
X80200500Y-86550500D01*
X79819500Y-86550500D01*
X78796233Y-86550500D01*
X78698318Y-86760625D01*
X73497669Y-86760625D01*
X73606744Y-86687744D01*
X74335113Y-85959375D01*
X78698318Y-85959375D01*
X78796233Y-86169500D01*
X79819500Y-86169500D01*
X79819500Y-85144654D01*
X80200500Y-85144654D01*
X80200500Y-86169500D01*
X81223767Y-86169500D01*
X81255394Y-86101629D01*
X81285646Y-86169500D01*
X82359500Y-86169500D01*
X82359500Y-85094182D01*
X82141477Y-84998451D01*
X81651532Y-85258428D01*
X81298370Y-85686109D01*
X81253440Y-85794596D01*
X81220797Y-85715775D01*
X80882096Y-85301462D01*
X80410627Y-85048302D01*
X80200500Y-85144654D01*
X79819500Y-85144654D01*
X79609373Y-85048302D01*
X79137904Y-85301462D01*
X78799203Y-85715775D01*
X78698318Y-85959375D01*
X74335113Y-85959375D01*
X74876744Y-85417744D01*
X74977218Y-85267374D01*
X75012500Y-85090000D01*
X75012500Y-83820000D01*
X78925665Y-83820000D01*
X79006619Y-84226984D01*
X79237157Y-84572008D01*
X79582181Y-84802546D01*
X79989165Y-84883500D01*
X80030835Y-84883500D01*
X80437819Y-84802546D01*
X80782843Y-84572008D01*
X81013381Y-84226984D01*
X81017058Y-84208500D01*
X81491962Y-84208500D01*
X81499445Y-84246118D01*
X81740822Y-84607363D01*
X82102067Y-84848740D01*
X82528185Y-84933500D01*
X82571815Y-84933500D01*
X82997933Y-84848740D01*
X83359178Y-84607363D01*
X83600555Y-84246118D01*
X83685315Y-83820000D01*
X83600555Y-83393882D01*
X83359178Y-83032637D01*
X82997933Y-82791260D01*
X82571815Y-82706500D01*
X82528185Y-82706500D01*
X82102067Y-82791260D01*
X81740822Y-83032637D01*
X81499445Y-83393882D01*
X81491962Y-83431500D01*
X81017058Y-83431500D01*
X81013381Y-83413016D01*
X80782843Y-83067992D01*
X80437819Y-82837454D01*
X80030835Y-82756500D01*
X79989165Y-82756500D01*
X79582181Y-82837454D01*
X79237157Y-83067992D01*
X79006619Y-83413016D01*
X78925665Y-83820000D01*
X75012500Y-83820000D01*
X75012500Y-81280000D01*
X78925665Y-81280000D01*
X79006619Y-81686984D01*
X79237157Y-82032008D01*
X79582181Y-82262546D01*
X79989165Y-82343500D01*
X80030835Y-82343500D01*
X80437819Y-82262546D01*
X80782843Y-82032008D01*
X81013381Y-81686984D01*
X81017058Y-81668500D01*
X81491962Y-81668500D01*
X81499445Y-81706118D01*
X81740822Y-82067363D01*
X82102067Y-82308740D01*
X82528185Y-82393500D01*
X82571815Y-82393500D01*
X82997933Y-82308740D01*
X83359178Y-82067363D01*
X83600555Y-81706118D01*
X83685315Y-81280000D01*
X83600555Y-80853882D01*
X83359178Y-80492637D01*
X82997933Y-80251260D01*
X82571815Y-80166500D01*
X82528185Y-80166500D01*
X82102067Y-80251260D01*
X81740822Y-80492637D01*
X81499445Y-80853882D01*
X81491962Y-80891500D01*
X81017058Y-80891500D01*
X81013381Y-80873016D01*
X80782843Y-80527992D01*
X80437819Y-80297454D01*
X80030835Y-80216500D01*
X79989165Y-80216500D01*
X79582181Y-80297454D01*
X79237157Y-80527992D01*
X79006619Y-80873016D01*
X78925665Y-81280000D01*
X75012500Y-81280000D01*
X75012500Y-69152988D01*
X75672781Y-68492707D01*
X76073000Y-68572315D01*
X76499118Y-68487555D01*
X76860363Y-68246178D01*
X77011500Y-68019986D01*
X77011500Y-79568178D01*
X76881220Y-79622009D01*
X76722566Y-79780386D01*
X76636598Y-79987421D01*
X76636402Y-80211595D01*
X76722009Y-80418780D01*
X76880386Y-80577434D01*
X77087421Y-80663402D01*
X77311595Y-80663598D01*
X77518780Y-80577991D01*
X77677434Y-80419614D01*
X77763402Y-80212579D01*
X77763566Y-80025356D01*
X77788500Y-79900000D01*
X77788500Y-78740000D01*
X78925665Y-78740000D01*
X79006619Y-79146984D01*
X79237157Y-79492008D01*
X79582181Y-79722546D01*
X79989165Y-79803500D01*
X80030835Y-79803500D01*
X80437819Y-79722546D01*
X80782843Y-79492008D01*
X81013381Y-79146984D01*
X81017058Y-79128500D01*
X81491962Y-79128500D01*
X81499445Y-79166118D01*
X81740822Y-79527363D01*
X82102067Y-79768740D01*
X82528185Y-79853500D01*
X82571815Y-79853500D01*
X82997933Y-79768740D01*
X83359178Y-79527363D01*
X83600555Y-79166118D01*
X83685315Y-78740000D01*
X83600555Y-78313882D01*
X83359178Y-77952637D01*
X82997933Y-77711260D01*
X82571815Y-77626500D01*
X82528185Y-77626500D01*
X82102067Y-77711260D01*
X81740822Y-77952637D01*
X81499445Y-78313882D01*
X81491962Y-78351500D01*
X81017058Y-78351500D01*
X81013381Y-78333016D01*
X80782843Y-77987992D01*
X80437819Y-77757454D01*
X80030835Y-77676500D01*
X79989165Y-77676500D01*
X79582181Y-77757454D01*
X79237157Y-77987992D01*
X79006619Y-78333016D01*
X78925665Y-78740000D01*
X77788500Y-78740000D01*
X77788500Y-76200000D01*
X78925665Y-76200000D01*
X79006619Y-76606984D01*
X79237157Y-76952008D01*
X79582181Y-77182546D01*
X79989165Y-77263500D01*
X80030835Y-77263500D01*
X80437819Y-77182546D01*
X80782843Y-76952008D01*
X81013381Y-76606984D01*
X81017058Y-76588500D01*
X81491962Y-76588500D01*
X81499445Y-76626118D01*
X81740822Y-76987363D01*
X82102067Y-77228740D01*
X82528185Y-77313500D01*
X82571815Y-77313500D01*
X82997933Y-77228740D01*
X83359178Y-76987363D01*
X83600555Y-76626118D01*
X83685315Y-76200000D01*
X83600555Y-75773882D01*
X83359178Y-75412637D01*
X82997933Y-75171260D01*
X82571815Y-75086500D01*
X82528185Y-75086500D01*
X82102067Y-75171260D01*
X81740822Y-75412637D01*
X81499445Y-75773882D01*
X81491962Y-75811500D01*
X81017058Y-75811500D01*
X81013381Y-75793016D01*
X80782843Y-75447992D01*
X80437819Y-75217454D01*
X80030835Y-75136500D01*
X79989165Y-75136500D01*
X79582181Y-75217454D01*
X79237157Y-75447992D01*
X79006619Y-75793016D01*
X78925665Y-76200000D01*
X77788500Y-76200000D01*
X77788500Y-73660000D01*
X78925665Y-73660000D01*
X79006619Y-74066984D01*
X79237157Y-74412008D01*
X79582181Y-74642546D01*
X79989165Y-74723500D01*
X80030835Y-74723500D01*
X80437819Y-74642546D01*
X80782843Y-74412008D01*
X81013381Y-74066984D01*
X81017058Y-74048500D01*
X81491962Y-74048500D01*
X81499445Y-74086118D01*
X81740822Y-74447363D01*
X82102067Y-74688740D01*
X82528185Y-74773500D01*
X82571815Y-74773500D01*
X82997933Y-74688740D01*
X83359178Y-74447363D01*
X83600555Y-74086118D01*
X83685315Y-73660000D01*
X83600555Y-73233882D01*
X83359178Y-72872637D01*
X82997933Y-72631260D01*
X82571815Y-72546500D01*
X82528185Y-72546500D01*
X82102067Y-72631260D01*
X81740822Y-72872637D01*
X81499445Y-73233882D01*
X81491962Y-73271500D01*
X81017058Y-73271500D01*
X81013381Y-73253016D01*
X80782843Y-72907992D01*
X80437819Y-72677454D01*
X80030835Y-72596500D01*
X79989165Y-72596500D01*
X79582181Y-72677454D01*
X79237157Y-72907992D01*
X79006619Y-73253016D01*
X78925665Y-73660000D01*
X77788500Y-73660000D01*
X77788500Y-71120000D01*
X78925665Y-71120000D01*
X79006619Y-71526984D01*
X79237157Y-71872008D01*
X79582181Y-72102546D01*
X79989165Y-72183500D01*
X80030835Y-72183500D01*
X80437819Y-72102546D01*
X80782843Y-71872008D01*
X81013381Y-71526984D01*
X81017058Y-71508500D01*
X81491962Y-71508500D01*
X81499445Y-71546118D01*
X81740822Y-71907363D01*
X82102067Y-72148740D01*
X82528185Y-72233500D01*
X82571815Y-72233500D01*
X82997933Y-72148740D01*
X83359178Y-71907363D01*
X83600555Y-71546118D01*
X83685315Y-71120000D01*
X83600555Y-70693882D01*
X83359178Y-70332637D01*
X82997933Y-70091260D01*
X82571815Y-70006500D01*
X82528185Y-70006500D01*
X82102067Y-70091260D01*
X81740822Y-70332637D01*
X81499445Y-70693882D01*
X81491962Y-70731500D01*
X81017058Y-70731500D01*
X81013381Y-70713016D01*
X80782843Y-70367992D01*
X80437819Y-70137454D01*
X80030835Y-70056500D01*
X79989165Y-70056500D01*
X79582181Y-70137454D01*
X79237157Y-70367992D01*
X79006619Y-70713016D01*
X78925665Y-71120000D01*
X77788500Y-71120000D01*
X77788500Y-68190599D01*
X77825637Y-68246178D01*
X78186882Y-68487555D01*
X78613000Y-68572315D01*
X79039118Y-68487555D01*
X79400363Y-68246178D01*
X79641740Y-67884933D01*
X79726500Y-67458815D01*
X79726500Y-67415185D01*
X79641740Y-66989067D01*
X79400363Y-66627822D01*
X79039118Y-66386445D01*
X78613000Y-66301685D01*
X78477605Y-66328617D01*
X78263500Y-66114512D01*
X78263500Y-64810278D01*
X78297495Y-64760525D01*
X78318662Y-64656000D01*
X78318662Y-62356000D01*
X78300288Y-62258353D01*
X78263500Y-62201182D01*
X78263500Y-62156000D01*
X79381338Y-62156000D01*
X79381338Y-64656000D01*
X79399712Y-64753647D01*
X79457421Y-64843330D01*
X79545475Y-64903495D01*
X79650000Y-64924662D01*
X81650000Y-64924662D01*
X81747647Y-64906288D01*
X81837330Y-64848579D01*
X81897495Y-64760525D01*
X81918662Y-64656000D01*
X81918662Y-62156000D01*
X81900288Y-62058353D01*
X81842579Y-61968670D01*
X81754525Y-61908505D01*
X81650000Y-61887338D01*
X79650000Y-61887338D01*
X79552353Y-61905712D01*
X79462670Y-61963421D01*
X79402505Y-62051475D01*
X79381338Y-62156000D01*
X78263500Y-62156000D01*
X78263500Y-61861500D01*
X78228218Y-61684126D01*
X78157114Y-61577711D01*
X78257453Y-61619376D01*
X78541301Y-61619623D01*
X78803637Y-61511228D01*
X79004523Y-61310693D01*
X79113376Y-61048547D01*
X79113623Y-60764699D01*
X79005228Y-60502363D01*
X78804693Y-60301477D01*
X78542547Y-60192624D01*
X78258699Y-60192377D01*
X77996363Y-60300772D01*
X77795477Y-60501307D01*
X77686624Y-60763453D01*
X77686377Y-61047301D01*
X77718125Y-61124137D01*
X74350581Y-57756593D01*
X74350598Y-57736905D01*
X74264991Y-57529720D01*
X74106614Y-57371066D01*
X73899579Y-57285098D01*
X73675405Y-57284902D01*
X73468220Y-57370509D01*
X73309566Y-57528886D01*
X73223598Y-57735921D01*
X73223402Y-57960095D01*
X73309009Y-58167280D01*
X73467386Y-58325934D01*
X73674421Y-58411902D01*
X73694932Y-58411920D01*
X77336500Y-62053488D01*
X77336500Y-62104855D01*
X77250000Y-62087338D01*
X76750000Y-62087338D01*
X76652353Y-62105712D01*
X76599867Y-62139486D01*
X76554525Y-62108505D01*
X76450000Y-62087338D01*
X76157303Y-62087338D01*
X76134494Y-62032272D01*
X75973729Y-61871506D01*
X75763679Y-61784500D01*
X75667875Y-61784500D01*
X75525000Y-61927375D01*
X75525000Y-63315500D01*
X75610500Y-63315500D01*
X75610500Y-63696500D01*
X75525000Y-63696500D01*
X75525000Y-65084625D01*
X75667875Y-65227500D01*
X75763679Y-65227500D01*
X75811500Y-65207692D01*
X75811500Y-65236510D01*
X75688405Y-65236402D01*
X75481220Y-65322009D01*
X75322566Y-65480386D01*
X75236598Y-65687421D01*
X75236402Y-65911595D01*
X75322009Y-66118780D01*
X75480386Y-66277434D01*
X75687421Y-66363402D01*
X75762398Y-66363468D01*
X75646882Y-66386445D01*
X75285637Y-66627822D01*
X75044260Y-66989067D01*
X74959500Y-67415185D01*
X74959500Y-67458815D01*
X75031870Y-67822642D01*
X74651662Y-68202850D01*
X74651662Y-66587000D01*
X74633288Y-66489353D01*
X74575579Y-66399670D01*
X74487525Y-66339505D01*
X74383000Y-66318338D01*
X72683000Y-66318338D01*
X72585353Y-66336712D01*
X72495670Y-66394421D01*
X72435505Y-66482475D01*
X72414338Y-66587000D01*
X72414338Y-68287000D01*
X72432712Y-68384647D01*
X72490421Y-68474330D01*
X72578475Y-68534495D01*
X72683000Y-68555662D01*
X74298850Y-68555662D01*
X74221256Y-68633256D01*
X74120782Y-68783626D01*
X74085500Y-68961000D01*
X74085500Y-84898012D01*
X73248030Y-85735482D01*
X73162843Y-85607992D01*
X72817819Y-85377454D01*
X72410835Y-85296500D01*
X72369165Y-85296500D01*
X71962181Y-85377454D01*
X71617157Y-85607992D01*
X71424382Y-85896500D01*
X70875577Y-85896500D01*
X70659178Y-85572637D01*
X70297933Y-85331260D01*
X69871815Y-85246500D01*
X69828185Y-85246500D01*
X69402067Y-85331260D01*
X69040822Y-85572637D01*
X68799445Y-85933882D01*
X68714685Y-86360000D01*
X68629500Y-86360000D01*
X68629500Y-83820000D01*
X68714685Y-83820000D01*
X68799445Y-84246118D01*
X69040822Y-84607363D01*
X69402067Y-84848740D01*
X69828185Y-84933500D01*
X69871815Y-84933500D01*
X70297933Y-84848740D01*
X70659178Y-84607363D01*
X70900555Y-84246118D01*
X70908038Y-84208500D01*
X71382942Y-84208500D01*
X71386619Y-84226984D01*
X71617157Y-84572008D01*
X71962181Y-84802546D01*
X72369165Y-84883500D01*
X72410835Y-84883500D01*
X72817819Y-84802546D01*
X73162843Y-84572008D01*
X73393381Y-84226984D01*
X73474335Y-83820000D01*
X73393381Y-83413016D01*
X73162843Y-83067992D01*
X72817819Y-82837454D01*
X72410835Y-82756500D01*
X72369165Y-82756500D01*
X71962181Y-82837454D01*
X71617157Y-83067992D01*
X71386619Y-83413016D01*
X71382942Y-83431500D01*
X70908038Y-83431500D01*
X70900555Y-83393882D01*
X70659178Y-83032637D01*
X70297933Y-82791260D01*
X69871815Y-82706500D01*
X69828185Y-82706500D01*
X69402067Y-82791260D01*
X69040822Y-83032637D01*
X68799445Y-83393882D01*
X68714685Y-83820000D01*
X68629500Y-83820000D01*
X68629500Y-81280000D01*
X68714685Y-81280000D01*
X68799445Y-81706118D01*
X69040822Y-82067363D01*
X69402067Y-82308740D01*
X69828185Y-82393500D01*
X69871815Y-82393500D01*
X70297933Y-82308740D01*
X70659178Y-82067363D01*
X70900555Y-81706118D01*
X70908038Y-81668500D01*
X71382942Y-81668500D01*
X71386619Y-81686984D01*
X71617157Y-82032008D01*
X71962181Y-82262546D01*
X72369165Y-82343500D01*
X72410835Y-82343500D01*
X72817819Y-82262546D01*
X73162843Y-82032008D01*
X73393381Y-81686984D01*
X73474335Y-81280000D01*
X73393381Y-80873016D01*
X73162843Y-80527992D01*
X72817819Y-80297454D01*
X72410835Y-80216500D01*
X72369165Y-80216500D01*
X71962181Y-80297454D01*
X71617157Y-80527992D01*
X71386619Y-80873016D01*
X71382942Y-80891500D01*
X70908038Y-80891500D01*
X70900555Y-80853882D01*
X70659178Y-80492637D01*
X70297933Y-80251260D01*
X69871815Y-80166500D01*
X69828185Y-80166500D01*
X69402067Y-80251260D01*
X69040822Y-80492637D01*
X68799445Y-80853882D01*
X68714685Y-81280000D01*
X68629500Y-81280000D01*
X68629500Y-78740000D01*
X68714685Y-78740000D01*
X68799445Y-79166118D01*
X69040822Y-79527363D01*
X69402067Y-79768740D01*
X69828185Y-79853500D01*
X69871815Y-79853500D01*
X70297933Y-79768740D01*
X70659178Y-79527363D01*
X70900555Y-79166118D01*
X70908038Y-79128500D01*
X71382942Y-79128500D01*
X71386619Y-79146984D01*
X71617157Y-79492008D01*
X71962181Y-79722546D01*
X72369165Y-79803500D01*
X72410835Y-79803500D01*
X72817819Y-79722546D01*
X73162843Y-79492008D01*
X73393381Y-79146984D01*
X73474335Y-78740000D01*
X73393381Y-78333016D01*
X73162843Y-77987992D01*
X72817819Y-77757454D01*
X72410835Y-77676500D01*
X72369165Y-77676500D01*
X71962181Y-77757454D01*
X71617157Y-77987992D01*
X71386619Y-78333016D01*
X71382942Y-78351500D01*
X70908038Y-78351500D01*
X70900555Y-78313882D01*
X70659178Y-77952637D01*
X70297933Y-77711260D01*
X69871815Y-77626500D01*
X69828185Y-77626500D01*
X69402067Y-77711260D01*
X69040822Y-77952637D01*
X68799445Y-78313882D01*
X68714685Y-78740000D01*
X68629500Y-78740000D01*
X68629500Y-76200000D01*
X68714685Y-76200000D01*
X68799445Y-76626118D01*
X69040822Y-76987363D01*
X69402067Y-77228740D01*
X69828185Y-77313500D01*
X69871815Y-77313500D01*
X70297933Y-77228740D01*
X70659178Y-76987363D01*
X70900555Y-76626118D01*
X70908038Y-76588500D01*
X71382942Y-76588500D01*
X71386619Y-76606984D01*
X71617157Y-76952008D01*
X71962181Y-77182546D01*
X72369165Y-77263500D01*
X72410835Y-77263500D01*
X72817819Y-77182546D01*
X73162843Y-76952008D01*
X73393381Y-76606984D01*
X73474335Y-76200000D01*
X73393381Y-75793016D01*
X73162843Y-75447992D01*
X72817819Y-75217454D01*
X72410835Y-75136500D01*
X72369165Y-75136500D01*
X71962181Y-75217454D01*
X71617157Y-75447992D01*
X71386619Y-75793016D01*
X71382942Y-75811500D01*
X70908038Y-75811500D01*
X70900555Y-75773882D01*
X70659178Y-75412637D01*
X70297933Y-75171260D01*
X69871815Y-75086500D01*
X69828185Y-75086500D01*
X69402067Y-75171260D01*
X69040822Y-75412637D01*
X68799445Y-75773882D01*
X68714685Y-76200000D01*
X68629500Y-76200000D01*
X68629500Y-73660000D01*
X68714685Y-73660000D01*
X68799445Y-74086118D01*
X69040822Y-74447363D01*
X69402067Y-74688740D01*
X69828185Y-74773500D01*
X69871815Y-74773500D01*
X70297933Y-74688740D01*
X70659178Y-74447363D01*
X70900555Y-74086118D01*
X70908038Y-74048500D01*
X71382942Y-74048500D01*
X71386619Y-74066984D01*
X71617157Y-74412008D01*
X71962181Y-74642546D01*
X72369165Y-74723500D01*
X72410835Y-74723500D01*
X72817819Y-74642546D01*
X73162843Y-74412008D01*
X73393381Y-74066984D01*
X73474335Y-73660000D01*
X73393381Y-73253016D01*
X73162843Y-72907992D01*
X72817819Y-72677454D01*
X72410835Y-72596500D01*
X72369165Y-72596500D01*
X71962181Y-72677454D01*
X71617157Y-72907992D01*
X71386619Y-73253016D01*
X71382942Y-73271500D01*
X70908038Y-73271500D01*
X70900555Y-73233882D01*
X70659178Y-72872637D01*
X70297933Y-72631260D01*
X69871815Y-72546500D01*
X69828185Y-72546500D01*
X69402067Y-72631260D01*
X69040822Y-72872637D01*
X68799445Y-73233882D01*
X68714685Y-73660000D01*
X68629500Y-73660000D01*
X68629500Y-70270000D01*
X68731338Y-70270000D01*
X68731338Y-71970000D01*
X68749712Y-72067647D01*
X68807421Y-72157330D01*
X68895475Y-72217495D01*
X69000000Y-72238662D01*
X70700000Y-72238662D01*
X70797647Y-72220288D01*
X70887330Y-72162579D01*
X70947495Y-72074525D01*
X70968662Y-71970000D01*
X70968662Y-71508500D01*
X71321338Y-71508500D01*
X71321338Y-71920000D01*
X71339712Y-72017647D01*
X71397421Y-72107330D01*
X71485475Y-72167495D01*
X71590000Y-72188662D01*
X73190000Y-72188662D01*
X73287647Y-72170288D01*
X73377330Y-72112579D01*
X73437495Y-72024525D01*
X73458662Y-71920000D01*
X73458662Y-70320000D01*
X73440288Y-70222353D01*
X73382579Y-70132670D01*
X73294525Y-70072505D01*
X73190000Y-70051338D01*
X71590000Y-70051338D01*
X71492353Y-70069712D01*
X71402670Y-70127421D01*
X71342505Y-70215475D01*
X71321338Y-70320000D01*
X71321338Y-70731500D01*
X70968662Y-70731500D01*
X70968662Y-70270000D01*
X70950288Y-70172353D01*
X70892579Y-70082670D01*
X70804525Y-70022505D01*
X70700000Y-70001338D01*
X69000000Y-70001338D01*
X68902353Y-70019712D01*
X68812670Y-70077421D01*
X68752505Y-70165475D01*
X68731338Y-70270000D01*
X68629500Y-70270000D01*
X68629500Y-62156000D01*
X70481338Y-62156000D01*
X70481338Y-64656000D01*
X70499712Y-64753647D01*
X70557421Y-64843330D01*
X70645475Y-64903495D01*
X70750000Y-64924662D01*
X72750000Y-64924662D01*
X72847647Y-64906288D01*
X72937330Y-64848579D01*
X72997495Y-64760525D01*
X73018662Y-64656000D01*
X73018662Y-63839375D01*
X73778500Y-63839375D01*
X73778500Y-64769678D01*
X73865506Y-64979728D01*
X74026271Y-65140494D01*
X74236321Y-65227500D01*
X74332125Y-65227500D01*
X74475000Y-65084625D01*
X74475000Y-63839375D01*
X74578500Y-63839375D01*
X74578500Y-64769678D01*
X74665506Y-64979728D01*
X74725000Y-65039222D01*
X74725000Y-65084625D01*
X74867875Y-65227500D01*
X74963679Y-65227500D01*
X75000000Y-65212455D01*
X75036321Y-65227500D01*
X75132125Y-65227500D01*
X75275000Y-65084625D01*
X75275000Y-65039222D01*
X75334494Y-64979728D01*
X75421500Y-64769678D01*
X75421500Y-63839375D01*
X75278625Y-63696500D01*
X74721375Y-63696500D01*
X74578500Y-63839375D01*
X74475000Y-63839375D01*
X74475000Y-63696500D01*
X73921375Y-63696500D01*
X73778500Y-63839375D01*
X73018662Y-63839375D01*
X73018662Y-62242322D01*
X73778500Y-62242322D01*
X73778500Y-63172625D01*
X73921375Y-63315500D01*
X74475000Y-63315500D01*
X74475000Y-62242322D01*
X74578500Y-62242322D01*
X74578500Y-63172625D01*
X74721375Y-63315500D01*
X75278625Y-63315500D01*
X75421500Y-63172625D01*
X75421500Y-62242322D01*
X75334494Y-62032272D01*
X75275000Y-61972778D01*
X75275000Y-61927375D01*
X75132125Y-61784500D01*
X75036321Y-61784500D01*
X75000000Y-61799545D01*
X74963679Y-61784500D01*
X74867875Y-61784500D01*
X74725000Y-61927375D01*
X74725000Y-61972778D01*
X74665506Y-62032272D01*
X74578500Y-62242322D01*
X74475000Y-62242322D01*
X74475000Y-61927375D01*
X74332125Y-61784500D01*
X74236321Y-61784500D01*
X74026271Y-61871506D01*
X73865506Y-62032272D01*
X73778500Y-62242322D01*
X73018662Y-62242322D01*
X73018662Y-62156000D01*
X73000288Y-62058353D01*
X72942579Y-61968670D01*
X72854525Y-61908505D01*
X72750000Y-61887338D01*
X70750000Y-61887338D01*
X70652353Y-61905712D01*
X70562670Y-61963421D01*
X70502505Y-62051475D01*
X70481338Y-62156000D01*
X68629500Y-62156000D01*
X68629500Y-61047301D01*
X73286377Y-61047301D01*
X73394772Y-61309637D01*
X73595307Y-61510523D01*
X73857453Y-61619376D01*
X74141301Y-61619623D01*
X74403637Y-61511228D01*
X74604523Y-61310693D01*
X74713376Y-61048547D01*
X74713623Y-60764699D01*
X74605228Y-60502363D01*
X74404693Y-60301477D01*
X74142547Y-60192624D01*
X73858699Y-60192377D01*
X73596363Y-60300772D01*
X73395477Y-60501307D01*
X73286624Y-60763453D01*
X73286377Y-61047301D01*
X68629500Y-61047301D01*
X68629500Y-56656000D01*
X70481338Y-56656000D01*
X70481338Y-59156000D01*
X70499712Y-59253647D01*
X70557421Y-59343330D01*
X70645475Y-59403495D01*
X70750000Y-59424662D01*
X72750000Y-59424662D01*
X72847647Y-59406288D01*
X72937330Y-59348579D01*
X72997495Y-59260525D01*
X73018662Y-59156000D01*
X73018662Y-56656000D01*
X79381338Y-56656000D01*
X79381338Y-59156000D01*
X79399712Y-59253647D01*
X79457421Y-59343330D01*
X79545475Y-59403495D01*
X79650000Y-59424662D01*
X81650000Y-59424662D01*
X81747647Y-59406288D01*
X81837330Y-59348579D01*
X81897495Y-59260525D01*
X81918662Y-59156000D01*
X81918662Y-56656000D01*
X81900288Y-56558353D01*
X81842579Y-56468670D01*
X81754525Y-56408505D01*
X81650000Y-56387338D01*
X79650000Y-56387338D01*
X79552353Y-56405712D01*
X79462670Y-56463421D01*
X79402505Y-56551475D01*
X79381338Y-56656000D01*
X73018662Y-56656000D01*
X73000288Y-56558353D01*
X72942579Y-56468670D01*
X72854525Y-56408505D01*
X72750000Y-56387338D01*
X70750000Y-56387338D01*
X70652353Y-56405712D01*
X70562670Y-56463421D01*
X70502505Y-56551475D01*
X70481338Y-56656000D01*
X68629500Y-56656000D01*
X68629500Y-55675500D01*
X83770500Y-55675500D01*
X83770500Y-85648410D01*
X83770500Y-85648410D01*
G37*
X83770500Y-85648410D02*
X83448468Y-85258428D01*
X82958523Y-84998451D01*
X82740500Y-85094182D01*
X82740500Y-86169500D01*
X82760500Y-86169500D01*
X82760500Y-86550500D01*
X82740500Y-86550500D01*
X82740500Y-87625818D01*
X82958523Y-87721549D01*
X83448468Y-87461572D01*
X83770500Y-87071590D01*
X83770500Y-122124500D01*
X68629500Y-122124500D01*
X68629500Y-119282667D01*
X72284913Y-119282667D01*
X72397270Y-119553957D01*
X72754363Y-119985272D01*
X73249331Y-120247102D01*
X73469500Y-120151540D01*
X73469500Y-119062500D01*
X72381894Y-119062500D01*
X72284913Y-119282667D01*
X68629500Y-119282667D01*
X68629500Y-104140000D01*
X68714685Y-104140000D01*
X68799445Y-104566118D01*
X69040822Y-104927363D01*
X69402067Y-105168740D01*
X69828185Y-105253500D01*
X69871815Y-105253500D01*
X70297933Y-105168740D01*
X70659178Y-104927363D01*
X70900555Y-104566118D01*
X70908038Y-104528500D01*
X71382942Y-104528500D01*
X71386619Y-104546984D01*
X71617157Y-104892008D01*
X71962181Y-105122546D01*
X72369165Y-105203500D01*
X72410835Y-105203500D01*
X72817819Y-105122546D01*
X73162843Y-104892008D01*
X73393381Y-104546984D01*
X73474335Y-104140000D01*
X73393381Y-103733016D01*
X73162843Y-103387992D01*
X72817819Y-103157454D01*
X72410835Y-103076500D01*
X72369165Y-103076500D01*
X71962181Y-103157454D01*
X71617157Y-103387992D01*
X71386619Y-103733016D01*
X71382942Y-103751500D01*
X70908038Y-103751500D01*
X70900555Y-103713882D01*
X70659178Y-103352637D01*
X70297933Y-103111260D01*
X69871815Y-103026500D01*
X69828185Y-103026500D01*
X69402067Y-103111260D01*
X69040822Y-103352637D01*
X68799445Y-103713882D01*
X68714685Y-104140000D01*
X68629500Y-104140000D01*
X68629500Y-101600000D01*
X68714685Y-101600000D01*
X68799445Y-102026118D01*
X69040822Y-102387363D01*
X69402067Y-102628740D01*
X69828185Y-102713500D01*
X69871815Y-102713500D01*
X70297933Y-102628740D01*
X70659178Y-102387363D01*
X70900555Y-102026118D01*
X70908038Y-101988500D01*
X71382942Y-101988500D01*
X71386619Y-102006984D01*
X71617157Y-102352008D01*
X71962181Y-102582546D01*
X72369165Y-102663500D01*
X72410835Y-102663500D01*
X72817819Y-102582546D01*
X73162843Y-102352008D01*
X73393381Y-102006984D01*
X73474335Y-101600000D01*
X73393381Y-101193016D01*
X73162843Y-100847992D01*
X72817819Y-100617454D01*
X72410835Y-100536500D01*
X72369165Y-100536500D01*
X71962181Y-100617454D01*
X71617157Y-100847992D01*
X71386619Y-101193016D01*
X71382942Y-101211500D01*
X70908038Y-101211500D01*
X70900555Y-101173882D01*
X70659178Y-100812637D01*
X70297933Y-100571260D01*
X69871815Y-100486500D01*
X69828185Y-100486500D01*
X69402067Y-100571260D01*
X69040822Y-100812637D01*
X68799445Y-101173882D01*
X68714685Y-101600000D01*
X68629500Y-101600000D01*
X68629500Y-99060000D01*
X68714685Y-99060000D01*
X68799445Y-99486118D01*
X69040822Y-99847363D01*
X69402067Y-100088740D01*
X69828185Y-100173500D01*
X69871815Y-100173500D01*
X70297933Y-100088740D01*
X70659178Y-99847363D01*
X70900555Y-99486118D01*
X70908038Y-99448500D01*
X71382942Y-99448500D01*
X71386619Y-99466984D01*
X71617157Y-99812008D01*
X71962181Y-100042546D01*
X72369165Y-100123500D01*
X72410835Y-100123500D01*
X72817819Y-100042546D01*
X73162843Y-99812008D01*
X73393381Y-99466984D01*
X73474335Y-99060000D01*
X73393381Y-98653016D01*
X73162843Y-98307992D01*
X72817819Y-98077454D01*
X72410835Y-97996500D01*
X72369165Y-97996500D01*
X71962181Y-98077454D01*
X71617157Y-98307992D01*
X71386619Y-98653016D01*
X71382942Y-98671500D01*
X70908038Y-98671500D01*
X70900555Y-98633882D01*
X70659178Y-98272637D01*
X70297933Y-98031260D01*
X69871815Y-97946500D01*
X69828185Y-97946500D01*
X69402067Y-98031260D01*
X69040822Y-98272637D01*
X68799445Y-98633882D01*
X68714685Y-99060000D01*
X68629500Y-99060000D01*
X68629500Y-96520000D01*
X68714685Y-96520000D01*
X68799445Y-96946118D01*
X69040822Y-97307363D01*
X69402067Y-97548740D01*
X69828185Y-97633500D01*
X69871815Y-97633500D01*
X70297933Y-97548740D01*
X70659178Y-97307363D01*
X70900555Y-96946118D01*
X70908038Y-96908500D01*
X71382942Y-96908500D01*
X71386619Y-96926984D01*
X71617157Y-97272008D01*
X71962181Y-97502546D01*
X72369165Y-97583500D01*
X72410835Y-97583500D01*
X72817819Y-97502546D01*
X73162843Y-97272008D01*
X73393381Y-96926984D01*
X73474335Y-96520000D01*
X73393381Y-96113016D01*
X73162843Y-95767992D01*
X72817819Y-95537454D01*
X72410835Y-95456500D01*
X72369165Y-95456500D01*
X71962181Y-95537454D01*
X71617157Y-95767992D01*
X71386619Y-96113016D01*
X71382942Y-96131500D01*
X70908038Y-96131500D01*
X70900555Y-96093882D01*
X70659178Y-95732637D01*
X70297933Y-95491260D01*
X69871815Y-95406500D01*
X69828185Y-95406500D01*
X69402067Y-95491260D01*
X69040822Y-95732637D01*
X68799445Y-96093882D01*
X68714685Y-96520000D01*
X68629500Y-96520000D01*
X68629500Y-91440000D01*
X68714685Y-91440000D01*
X68799445Y-91866118D01*
X69040822Y-92227363D01*
X69402067Y-92468740D01*
X69828185Y-92553500D01*
X69871815Y-92553500D01*
X70297933Y-92468740D01*
X70659178Y-92227363D01*
X70900555Y-91866118D01*
X70908038Y-91828500D01*
X71382942Y-91828500D01*
X71386619Y-91846984D01*
X71617157Y-92192008D01*
X71962181Y-92422546D01*
X72369165Y-92503500D01*
X72396078Y-92503500D01*
X73035446Y-93142868D01*
X72817819Y-92997454D01*
X72410835Y-92916500D01*
X72369165Y-92916500D01*
X71962181Y-92997454D01*
X71617157Y-93227992D01*
X71386619Y-93573016D01*
X71382942Y-93591500D01*
X70908038Y-93591500D01*
X70900555Y-93553882D01*
X70659178Y-93192637D01*
X70297933Y-92951260D01*
X69871815Y-92866500D01*
X69828185Y-92866500D01*
X69402067Y-92951260D01*
X69040822Y-93192637D01*
X68799445Y-93553882D01*
X68714685Y-93980000D01*
X68799445Y-94406118D01*
X69040822Y-94767363D01*
X69402067Y-95008740D01*
X69828185Y-95093500D01*
X69871815Y-95093500D01*
X70297933Y-95008740D01*
X70659178Y-94767363D01*
X70900555Y-94406118D01*
X70908038Y-94368500D01*
X71382942Y-94368500D01*
X71386619Y-94386984D01*
X71617157Y-94732008D01*
X71962181Y-94962546D01*
X72369165Y-95043500D01*
X72410835Y-95043500D01*
X72817819Y-94962546D01*
X72820999Y-94960421D01*
X74033500Y-96172922D01*
X74033500Y-106011078D01*
X71819881Y-108224697D01*
X71776482Y-108206676D01*
X71373287Y-108206324D01*
X71000648Y-108360295D01*
X70715297Y-108645149D01*
X70560676Y-109017518D01*
X70560324Y-109420713D01*
X70714295Y-109793352D01*
X70999149Y-110078703D01*
X71371518Y-110233324D01*
X71774713Y-110233676D01*
X72147352Y-110079705D01*
X72432703Y-109794851D01*
X72587324Y-109422482D01*
X72587676Y-109019287D01*
X72452145Y-108691277D01*
X74696711Y-106446711D01*
X74758259Y-106354598D01*
X74780927Y-106320673D01*
X74810500Y-106172000D01*
X74810500Y-96012000D01*
X74780927Y-95863327D01*
X74696711Y-95737289D01*
X73374565Y-94415143D01*
X73393381Y-94386984D01*
X73474335Y-93980000D01*
X73393381Y-93573016D01*
X73247967Y-93355389D01*
X75049500Y-95156922D01*
X75049500Y-106426000D01*
X75079073Y-106574673D01*
X75163289Y-106700711D01*
X76065500Y-107602922D01*
X76065500Y-108283916D01*
X75880648Y-108360295D01*
X75595297Y-108645149D01*
X75440676Y-109017518D01*
X75440324Y-109420713D01*
X75594295Y-109793352D01*
X75879149Y-110078703D01*
X76251518Y-110233324D01*
X76654713Y-110233676D01*
X77027352Y-110079705D01*
X77312703Y-109794851D01*
X77335500Y-109739950D01*
X77335500Y-114647078D01*
X76676470Y-115306108D01*
X76653403Y-115290695D01*
X76222081Y-115204900D01*
X76177919Y-115204900D01*
X75746597Y-115290695D01*
X75380939Y-115535020D01*
X75136614Y-115900678D01*
X75050819Y-116332000D01*
X75136614Y-116763322D01*
X75380939Y-117128980D01*
X75746597Y-117373305D01*
X76177919Y-117459100D01*
X76222081Y-117459100D01*
X76653403Y-117373305D01*
X77019061Y-117128980D01*
X77263386Y-116763322D01*
X77349181Y-116332000D01*
X77263386Y-115900678D01*
X77230284Y-115851138D01*
X77607738Y-115473684D01*
X77607738Y-117195600D01*
X77626112Y-117293247D01*
X77669658Y-117360920D01*
X76980994Y-118049584D01*
X76653403Y-117830695D01*
X76222081Y-117744900D01*
X76177919Y-117744900D01*
X75746597Y-117830695D01*
X75380939Y-118075020D01*
X75136614Y-118440678D01*
X75088712Y-118681498D01*
X74938107Y-118681498D01*
X75035087Y-118461333D01*
X74922730Y-118190043D01*
X74565637Y-117758728D01*
X74070669Y-117496898D01*
X73850502Y-117592459D01*
X73850502Y-117436900D01*
X73793688Y-117436900D01*
X74113403Y-117373305D01*
X74479061Y-117128980D01*
X74723386Y-116763322D01*
X74809181Y-116332000D01*
X74723386Y-115900678D01*
X74479061Y-115535020D01*
X74113403Y-115290695D01*
X73682081Y-115204900D01*
X73637919Y-115204900D01*
X73206597Y-115290695D01*
X72840939Y-115535020D01*
X72596614Y-115900678D01*
X72510819Y-116332000D01*
X72596614Y-116763322D01*
X72840939Y-117128980D01*
X73206597Y-117373305D01*
X73526312Y-117436900D01*
X73469498Y-117436900D01*
X73469498Y-117592459D01*
X73249331Y-117496898D01*
X72754363Y-117758728D01*
X72397270Y-118190043D01*
X72284913Y-118461333D01*
X72381894Y-118681500D01*
X73469500Y-118681500D01*
X73469500Y-118661500D01*
X73850500Y-118661500D01*
X73850500Y-118681500D01*
X73870500Y-118681500D01*
X73870500Y-119062500D01*
X73850500Y-119062500D01*
X73850500Y-120151540D01*
X74070669Y-120247102D01*
X74565637Y-119985272D01*
X74922730Y-119553957D01*
X75035087Y-119282667D01*
X74938107Y-119062502D01*
X75088712Y-119062502D01*
X75136614Y-119303322D01*
X75380939Y-119668980D01*
X75746597Y-119913305D01*
X76177919Y-119999100D01*
X76222081Y-119999100D01*
X76653403Y-119913305D01*
X77019061Y-119668980D01*
X77263386Y-119303322D01*
X77349181Y-118872000D01*
X77333957Y-118795465D01*
X77673602Y-118455820D01*
X77590819Y-118872000D01*
X77676614Y-119303322D01*
X77920939Y-119668980D01*
X78286597Y-119913305D01*
X78717919Y-119999100D01*
X78762081Y-119999100D01*
X79193403Y-119913305D01*
X79559061Y-119668980D01*
X79781885Y-119335500D01*
X80010000Y-119335500D01*
X80187374Y-119300218D01*
X80337744Y-119199744D01*
X82115744Y-117421744D01*
X82148110Y-117373305D01*
X82216218Y-117271374D01*
X82251500Y-117094000D01*
X82251500Y-111548464D01*
X82528185Y-111603500D01*
X82571815Y-111603500D01*
X82997933Y-111518740D01*
X83359178Y-111277363D01*
X83600555Y-110916118D01*
X83685315Y-110490000D01*
X83600555Y-110063882D01*
X83359178Y-109702637D01*
X82997933Y-109461260D01*
X82571815Y-109376500D01*
X82528185Y-109376500D01*
X82102067Y-109461260D01*
X81740822Y-109702637D01*
X81541500Y-110000942D01*
X81541500Y-109010615D01*
X81595475Y-109047495D01*
X81700000Y-109068662D01*
X83400000Y-109068662D01*
X83497647Y-109050288D01*
X83587330Y-108992579D01*
X83647495Y-108904525D01*
X83668662Y-108800000D01*
X83668662Y-107100000D01*
X83650288Y-107002353D01*
X83592579Y-106912670D01*
X83504525Y-106852505D01*
X83400000Y-106831338D01*
X81700000Y-106831338D01*
X81602353Y-106849712D01*
X81541500Y-106888870D01*
X81541500Y-106199393D01*
X81630434Y-106110614D01*
X81716402Y-105903579D01*
X81716598Y-105679405D01*
X81630991Y-105472220D01*
X81472614Y-105313566D01*
X81265579Y-105227598D01*
X81041405Y-105227402D01*
X80834220Y-105313009D01*
X80675566Y-105471386D01*
X80589598Y-105678421D01*
X80589402Y-105902595D01*
X80675009Y-106109780D01*
X80764500Y-106199428D01*
X80764500Y-116425078D01*
X79976078Y-117213500D01*
X79868637Y-117213500D01*
X79872262Y-117195600D01*
X79872262Y-115468400D01*
X79853888Y-115370753D01*
X79796179Y-115281070D01*
X79708125Y-115220905D01*
X79603600Y-115199738D01*
X79128500Y-115199738D01*
X79128500Y-104729392D01*
X79237157Y-104892008D01*
X79582181Y-105122546D01*
X79989165Y-105203500D01*
X80030835Y-105203500D01*
X80437819Y-105122546D01*
X80782843Y-104892008D01*
X81013381Y-104546984D01*
X81017058Y-104528500D01*
X81431338Y-104528500D01*
X81431338Y-104990000D01*
X81449712Y-105087647D01*
X81507421Y-105177330D01*
X81595475Y-105237495D01*
X81700000Y-105258662D01*
X83400000Y-105258662D01*
X83497647Y-105240288D01*
X83587330Y-105182579D01*
X83647495Y-105094525D01*
X83668662Y-104990000D01*
X83668662Y-103290000D01*
X83650288Y-103192353D01*
X83592579Y-103102670D01*
X83504525Y-103042505D01*
X83400000Y-103021338D01*
X81700000Y-103021338D01*
X81602353Y-103039712D01*
X81512670Y-103097421D01*
X81452505Y-103185475D01*
X81431338Y-103290000D01*
X81431338Y-103751500D01*
X81017058Y-103751500D01*
X81013381Y-103733016D01*
X80782843Y-103387992D01*
X80437819Y-103157454D01*
X80030835Y-103076500D01*
X79989165Y-103076500D01*
X79582181Y-103157454D01*
X79237157Y-103387992D01*
X79128500Y-103550608D01*
X79128500Y-102189392D01*
X79237157Y-102352008D01*
X79582181Y-102582546D01*
X79989165Y-102663500D01*
X80030835Y-102663500D01*
X80437819Y-102582546D01*
X80782843Y-102352008D01*
X81013381Y-102006984D01*
X81017058Y-101988500D01*
X81491962Y-101988500D01*
X81499445Y-102026118D01*
X81740822Y-102387363D01*
X82102067Y-102628740D01*
X82528185Y-102713500D01*
X82571815Y-102713500D01*
X82997933Y-102628740D01*
X83359178Y-102387363D01*
X83600555Y-102026118D01*
X83685315Y-101600000D01*
X83600555Y-101173882D01*
X83359178Y-100812637D01*
X82997933Y-100571260D01*
X82571815Y-100486500D01*
X82528185Y-100486500D01*
X82102067Y-100571260D01*
X81740822Y-100812637D01*
X81499445Y-101173882D01*
X81491962Y-101211500D01*
X81017058Y-101211500D01*
X81013381Y-101193016D01*
X80782843Y-100847992D01*
X80437819Y-100617454D01*
X80030835Y-100536500D01*
X79989165Y-100536500D01*
X79582181Y-100617454D01*
X79237157Y-100847992D01*
X79128500Y-101010608D01*
X79128500Y-99649392D01*
X79237157Y-99812008D01*
X79582181Y-100042546D01*
X79989165Y-100123500D01*
X80030835Y-100123500D01*
X80437819Y-100042546D01*
X80782843Y-99812008D01*
X81013381Y-99466984D01*
X81017058Y-99448500D01*
X81491962Y-99448500D01*
X81499445Y-99486118D01*
X81740822Y-99847363D01*
X82102067Y-100088740D01*
X82528185Y-100173500D01*
X82571815Y-100173500D01*
X82997933Y-100088740D01*
X83359178Y-99847363D01*
X83600555Y-99486118D01*
X83685315Y-99060000D01*
X83600555Y-98633882D01*
X83359178Y-98272637D01*
X82997933Y-98031260D01*
X82571815Y-97946500D01*
X82528185Y-97946500D01*
X82102067Y-98031260D01*
X81740822Y-98272637D01*
X81499445Y-98633882D01*
X81491962Y-98671500D01*
X81017058Y-98671500D01*
X81013381Y-98653016D01*
X80782843Y-98307992D01*
X80437819Y-98077454D01*
X80030835Y-97996500D01*
X79989165Y-97996500D01*
X79582181Y-98077454D01*
X79237157Y-98307992D01*
X79128500Y-98470608D01*
X79128500Y-97950922D01*
X79579001Y-97500421D01*
X79582181Y-97502546D01*
X79989165Y-97583500D01*
X80030835Y-97583500D01*
X80437819Y-97502546D01*
X80782843Y-97272008D01*
X81013381Y-96926984D01*
X81017058Y-96908500D01*
X81491962Y-96908500D01*
X81499445Y-96946118D01*
X81740822Y-97307363D01*
X82102067Y-97548740D01*
X82528185Y-97633500D01*
X82571815Y-97633500D01*
X82997933Y-97548740D01*
X83359178Y-97307363D01*
X83600555Y-96946118D01*
X83685315Y-96520000D01*
X83600555Y-96093882D01*
X83359178Y-95732637D01*
X82997933Y-95491260D01*
X82571815Y-95406500D01*
X82528185Y-95406500D01*
X82102067Y-95491260D01*
X81740822Y-95732637D01*
X81499445Y-96093882D01*
X81491962Y-96131500D01*
X81017058Y-96131500D01*
X81013381Y-96113016D01*
X80782843Y-95767992D01*
X80437819Y-95537454D01*
X80030835Y-95456500D01*
X79989165Y-95456500D01*
X79582181Y-95537454D01*
X79237157Y-95767992D01*
X79006619Y-96113016D01*
X78925665Y-96520000D01*
X79006619Y-96926984D01*
X79025435Y-96955143D01*
X78465289Y-97515289D01*
X78381073Y-97641327D01*
X78351500Y-97790000D01*
X78351500Y-115199738D01*
X77881684Y-115199738D01*
X77998711Y-115082711D01*
X78082927Y-114956673D01*
X78112500Y-114808000D01*
X78112500Y-96680922D01*
X79789615Y-95003807D01*
X79989165Y-95043500D01*
X80030835Y-95043500D01*
X80437819Y-94962546D01*
X80782843Y-94732008D01*
X81013381Y-94386984D01*
X81017058Y-94368500D01*
X81491962Y-94368500D01*
X81499445Y-94406118D01*
X81740822Y-94767363D01*
X82102067Y-95008740D01*
X82528185Y-95093500D01*
X82571815Y-95093500D01*
X82997933Y-95008740D01*
X83359178Y-94767363D01*
X83600555Y-94406118D01*
X83685315Y-93980000D01*
X83600555Y-93553882D01*
X83359178Y-93192637D01*
X82997933Y-92951260D01*
X82571815Y-92866500D01*
X82528185Y-92866500D01*
X82102067Y-92951260D01*
X81740822Y-93192637D01*
X81499445Y-93553882D01*
X81491962Y-93591500D01*
X81017058Y-93591500D01*
X81013381Y-93573016D01*
X80782843Y-93227992D01*
X80437819Y-92997454D01*
X80030835Y-92916500D01*
X79989165Y-92916500D01*
X79582181Y-92997454D01*
X79237157Y-93227992D01*
X79006619Y-93573016D01*
X78925665Y-93980000D01*
X79006619Y-94386984D01*
X79127173Y-94567405D01*
X77449289Y-96245289D01*
X77365073Y-96371327D01*
X77335500Y-96520000D01*
X77335500Y-108699396D01*
X77313705Y-108646648D01*
X77028851Y-108361297D01*
X76842500Y-108283917D01*
X76842500Y-107442000D01*
X76812927Y-107293327D01*
X76728711Y-107167289D01*
X75826500Y-106265078D01*
X75826500Y-94996000D01*
X75796927Y-94847327D01*
X75712711Y-94721289D01*
X73171089Y-92179667D01*
X73393381Y-91846984D01*
X73474335Y-91440000D01*
X73393381Y-91033016D01*
X73162843Y-90687992D01*
X72817819Y-90457454D01*
X72410835Y-90376500D01*
X72369165Y-90376500D01*
X71962181Y-90457454D01*
X71617157Y-90687992D01*
X71386619Y-91033016D01*
X71382942Y-91051500D01*
X70908038Y-91051500D01*
X70900555Y-91013882D01*
X70659178Y-90652637D01*
X70297933Y-90411260D01*
X69871815Y-90326500D01*
X69828185Y-90326500D01*
X69402067Y-90411260D01*
X69040822Y-90652637D01*
X68799445Y-91013882D01*
X68714685Y-91440000D01*
X68629500Y-91440000D01*
X68629500Y-89611590D01*
X68951532Y-90001572D01*
X69441477Y-90261549D01*
X69659500Y-90165818D01*
X69659500Y-89090500D01*
X70040500Y-89090500D01*
X70040500Y-90165818D01*
X70258523Y-90261549D01*
X70748468Y-90001572D01*
X71101630Y-89573891D01*
X71146560Y-89465404D01*
X71179203Y-89544225D01*
X71517904Y-89958538D01*
X71989373Y-90211698D01*
X72199500Y-90115346D01*
X72199500Y-89090500D01*
X72580500Y-89090500D01*
X72580500Y-90115346D01*
X72790627Y-90211698D01*
X73262096Y-89958538D01*
X73600797Y-89544225D01*
X73701682Y-89300625D01*
X73603767Y-89090500D01*
X72580500Y-89090500D01*
X72199500Y-89090500D01*
X71176233Y-89090500D01*
X71144606Y-89158371D01*
X71114354Y-89090500D01*
X70040500Y-89090500D01*
X69659500Y-89090500D01*
X69639500Y-89090500D01*
X69639500Y-88709500D01*
X69659500Y-88709500D01*
X69659500Y-87634182D01*
X70040500Y-87634182D01*
X70040500Y-88709500D01*
X71114354Y-88709500D01*
X71144606Y-88641629D01*
X71176233Y-88709500D01*
X72199500Y-88709500D01*
X72199500Y-87684654D01*
X71989373Y-87588302D01*
X71517904Y-87841462D01*
X71179203Y-88255775D01*
X71146560Y-88334596D01*
X71101630Y-88226109D01*
X70748468Y-87798428D01*
X70258523Y-87538451D01*
X70040500Y-87634182D01*
X69659500Y-87634182D01*
X69441477Y-87538451D01*
X68951532Y-87798428D01*
X68629500Y-88188410D01*
X68629500Y-86360000D01*
X68714685Y-86360000D01*
X68799445Y-86786118D01*
X69040822Y-87147363D01*
X69402067Y-87388740D01*
X69828185Y-87473500D01*
X69871815Y-87473500D01*
X70297933Y-87388740D01*
X70659178Y-87147363D01*
X70875577Y-86823500D01*
X71424382Y-86823500D01*
X71617157Y-87112008D01*
X71962181Y-87342546D01*
X72369165Y-87423500D01*
X72410835Y-87423500D01*
X72521917Y-87401405D01*
X72734535Y-87614023D01*
X72580500Y-87684654D01*
X72580500Y-88709500D01*
X73603767Y-88709500D01*
X73675682Y-88555170D01*
X76117500Y-90996988D01*
X76117500Y-103679476D01*
X76103566Y-103693386D01*
X76017598Y-103900421D01*
X76017402Y-104124595D01*
X76103009Y-104331780D01*
X76261386Y-104490434D01*
X76468421Y-104576402D01*
X76692595Y-104576598D01*
X76899780Y-104490991D01*
X77058434Y-104332614D01*
X77144402Y-104125579D01*
X77144598Y-103901405D01*
X77058991Y-103694220D01*
X77044500Y-103679704D01*
X77044500Y-91440000D01*
X78925665Y-91440000D01*
X79006619Y-91846984D01*
X79237157Y-92192008D01*
X79582181Y-92422546D01*
X79989165Y-92503500D01*
X80030835Y-92503500D01*
X80437819Y-92422546D01*
X80782843Y-92192008D01*
X81013381Y-91846984D01*
X81017058Y-91828500D01*
X81491962Y-91828500D01*
X81499445Y-91866118D01*
X81740822Y-92227363D01*
X82102067Y-92468740D01*
X82528185Y-92553500D01*
X82571815Y-92553500D01*
X82997933Y-92468740D01*
X83359178Y-92227363D01*
X83600555Y-91866118D01*
X83685315Y-91440000D01*
X83600555Y-91013882D01*
X83359178Y-90652637D01*
X82997933Y-90411260D01*
X82571815Y-90326500D01*
X82528185Y-90326500D01*
X82102067Y-90411260D01*
X81740822Y-90652637D01*
X81499445Y-91013882D01*
X81491962Y-91051500D01*
X81017058Y-91051500D01*
X81013381Y-91033016D01*
X80782843Y-90687992D01*
X80437819Y-90457454D01*
X80030835Y-90376500D01*
X79989165Y-90376500D01*
X79582181Y-90457454D01*
X79237157Y-90687992D01*
X79006619Y-91033016D01*
X78925665Y-91440000D01*
X77044500Y-91440000D01*
X77044500Y-90805000D01*
X77009218Y-90627626D01*
X76908744Y-90477256D01*
X75331488Y-88900000D01*
X78925665Y-88900000D01*
X79006619Y-89306984D01*
X79237157Y-89652008D01*
X79582181Y-89882546D01*
X79989165Y-89963500D01*
X80030835Y-89963500D01*
X80437819Y-89882546D01*
X80782843Y-89652008D01*
X81013381Y-89306984D01*
X81017058Y-89288500D01*
X81491962Y-89288500D01*
X81499445Y-89326118D01*
X81740822Y-89687363D01*
X82102067Y-89928740D01*
X82528185Y-90013500D01*
X82571815Y-90013500D01*
X82997933Y-89928740D01*
X83359178Y-89687363D01*
X83600555Y-89326118D01*
X83685315Y-88900000D01*
X83600555Y-88473882D01*
X83359178Y-88112637D01*
X82997933Y-87871260D01*
X82571815Y-87786500D01*
X82528185Y-87786500D01*
X82102067Y-87871260D01*
X81740822Y-88112637D01*
X81499445Y-88473882D01*
X81491962Y-88511500D01*
X81017058Y-88511500D01*
X81013381Y-88493016D01*
X80782843Y-88147992D01*
X80437819Y-87917454D01*
X80030835Y-87836500D01*
X79989165Y-87836500D01*
X79582181Y-87917454D01*
X79237157Y-88147992D01*
X79006619Y-88493016D01*
X78925665Y-88900000D01*
X75331488Y-88900000D01*
X73315311Y-86883823D01*
X73367362Y-86805924D01*
X73456374Y-86788218D01*
X73497669Y-86760625D01*
X78698318Y-86760625D01*
X78799203Y-87004225D01*
X79137904Y-87418538D01*
X79609373Y-87671698D01*
X79819500Y-87575346D01*
X79819500Y-86550500D01*
X80200500Y-86550500D01*
X80200500Y-87575346D01*
X80410627Y-87671698D01*
X80882096Y-87418538D01*
X81220797Y-87004225D01*
X81253440Y-86925404D01*
X81298370Y-87033891D01*
X81651532Y-87461572D01*
X82141477Y-87721549D01*
X82359500Y-87625818D01*
X82359500Y-86550500D01*
X81285646Y-86550500D01*
X81255394Y-86618371D01*
X81223767Y-86550500D01*
X80200500Y-86550500D01*
X79819500Y-86550500D01*
X78796233Y-86550500D01*
X78698318Y-86760625D01*
X73497669Y-86760625D01*
X73606744Y-86687744D01*
X74335113Y-85959375D01*
X78698318Y-85959375D01*
X78796233Y-86169500D01*
X79819500Y-86169500D01*
X79819500Y-85144654D01*
X80200500Y-85144654D01*
X80200500Y-86169500D01*
X81223767Y-86169500D01*
X81255394Y-86101629D01*
X81285646Y-86169500D01*
X82359500Y-86169500D01*
X82359500Y-85094182D01*
X82141477Y-84998451D01*
X81651532Y-85258428D01*
X81298370Y-85686109D01*
X81253440Y-85794596D01*
X81220797Y-85715775D01*
X80882096Y-85301462D01*
X80410627Y-85048302D01*
X80200500Y-85144654D01*
X79819500Y-85144654D01*
X79609373Y-85048302D01*
X79137904Y-85301462D01*
X78799203Y-85715775D01*
X78698318Y-85959375D01*
X74335113Y-85959375D01*
X74876744Y-85417744D01*
X74977218Y-85267374D01*
X75012500Y-85090000D01*
X75012500Y-83820000D01*
X78925665Y-83820000D01*
X79006619Y-84226984D01*
X79237157Y-84572008D01*
X79582181Y-84802546D01*
X79989165Y-84883500D01*
X80030835Y-84883500D01*
X80437819Y-84802546D01*
X80782843Y-84572008D01*
X81013381Y-84226984D01*
X81017058Y-84208500D01*
X81491962Y-84208500D01*
X81499445Y-84246118D01*
X81740822Y-84607363D01*
X82102067Y-84848740D01*
X82528185Y-84933500D01*
X82571815Y-84933500D01*
X82997933Y-84848740D01*
X83359178Y-84607363D01*
X83600555Y-84246118D01*
X83685315Y-83820000D01*
X83600555Y-83393882D01*
X83359178Y-83032637D01*
X82997933Y-82791260D01*
X82571815Y-82706500D01*
X82528185Y-82706500D01*
X82102067Y-82791260D01*
X81740822Y-83032637D01*
X81499445Y-83393882D01*
X81491962Y-83431500D01*
X81017058Y-83431500D01*
X81013381Y-83413016D01*
X80782843Y-83067992D01*
X80437819Y-82837454D01*
X80030835Y-82756500D01*
X79989165Y-82756500D01*
X79582181Y-82837454D01*
X79237157Y-83067992D01*
X79006619Y-83413016D01*
X78925665Y-83820000D01*
X75012500Y-83820000D01*
X75012500Y-81280000D01*
X78925665Y-81280000D01*
X79006619Y-81686984D01*
X79237157Y-82032008D01*
X79582181Y-82262546D01*
X79989165Y-82343500D01*
X80030835Y-82343500D01*
X80437819Y-82262546D01*
X80782843Y-82032008D01*
X81013381Y-81686984D01*
X81017058Y-81668500D01*
X81491962Y-81668500D01*
X81499445Y-81706118D01*
X81740822Y-82067363D01*
X82102067Y-82308740D01*
X82528185Y-82393500D01*
X82571815Y-82393500D01*
X82997933Y-82308740D01*
X83359178Y-82067363D01*
X83600555Y-81706118D01*
X83685315Y-81280000D01*
X83600555Y-80853882D01*
X83359178Y-80492637D01*
X82997933Y-80251260D01*
X82571815Y-80166500D01*
X82528185Y-80166500D01*
X82102067Y-80251260D01*
X81740822Y-80492637D01*
X81499445Y-80853882D01*
X81491962Y-80891500D01*
X81017058Y-80891500D01*
X81013381Y-80873016D01*
X80782843Y-80527992D01*
X80437819Y-80297454D01*
X80030835Y-80216500D01*
X79989165Y-80216500D01*
X79582181Y-80297454D01*
X79237157Y-80527992D01*
X79006619Y-80873016D01*
X78925665Y-81280000D01*
X75012500Y-81280000D01*
X75012500Y-69152988D01*
X75672781Y-68492707D01*
X76073000Y-68572315D01*
X76499118Y-68487555D01*
X76860363Y-68246178D01*
X77011500Y-68019986D01*
X77011500Y-79568178D01*
X76881220Y-79622009D01*
X76722566Y-79780386D01*
X76636598Y-79987421D01*
X76636402Y-80211595D01*
X76722009Y-80418780D01*
X76880386Y-80577434D01*
X77087421Y-80663402D01*
X77311595Y-80663598D01*
X77518780Y-80577991D01*
X77677434Y-80419614D01*
X77763402Y-80212579D01*
X77763566Y-80025356D01*
X77788500Y-79900000D01*
X77788500Y-78740000D01*
X78925665Y-78740000D01*
X79006619Y-79146984D01*
X79237157Y-79492008D01*
X79582181Y-79722546D01*
X79989165Y-79803500D01*
X80030835Y-79803500D01*
X80437819Y-79722546D01*
X80782843Y-79492008D01*
X81013381Y-79146984D01*
X81017058Y-79128500D01*
X81491962Y-79128500D01*
X81499445Y-79166118D01*
X81740822Y-79527363D01*
X82102067Y-79768740D01*
X82528185Y-79853500D01*
X82571815Y-79853500D01*
X82997933Y-79768740D01*
X83359178Y-79527363D01*
X83600555Y-79166118D01*
X83685315Y-78740000D01*
X83600555Y-78313882D01*
X83359178Y-77952637D01*
X82997933Y-77711260D01*
X82571815Y-77626500D01*
X82528185Y-77626500D01*
X82102067Y-77711260D01*
X81740822Y-77952637D01*
X81499445Y-78313882D01*
X81491962Y-78351500D01*
X81017058Y-78351500D01*
X81013381Y-78333016D01*
X80782843Y-77987992D01*
X80437819Y-77757454D01*
X80030835Y-77676500D01*
X79989165Y-77676500D01*
X79582181Y-77757454D01*
X79237157Y-77987992D01*
X79006619Y-78333016D01*
X78925665Y-78740000D01*
X77788500Y-78740000D01*
X77788500Y-76200000D01*
X78925665Y-76200000D01*
X79006619Y-76606984D01*
X79237157Y-76952008D01*
X79582181Y-77182546D01*
X79989165Y-77263500D01*
X80030835Y-77263500D01*
X80437819Y-77182546D01*
X80782843Y-76952008D01*
X81013381Y-76606984D01*
X81017058Y-76588500D01*
X81491962Y-76588500D01*
X81499445Y-76626118D01*
X81740822Y-76987363D01*
X82102067Y-77228740D01*
X82528185Y-77313500D01*
X82571815Y-77313500D01*
X82997933Y-77228740D01*
X83359178Y-76987363D01*
X83600555Y-76626118D01*
X83685315Y-76200000D01*
X83600555Y-75773882D01*
X83359178Y-75412637D01*
X82997933Y-75171260D01*
X82571815Y-75086500D01*
X82528185Y-75086500D01*
X82102067Y-75171260D01*
X81740822Y-75412637D01*
X81499445Y-75773882D01*
X81491962Y-75811500D01*
X81017058Y-75811500D01*
X81013381Y-75793016D01*
X80782843Y-75447992D01*
X80437819Y-75217454D01*
X80030835Y-75136500D01*
X79989165Y-75136500D01*
X79582181Y-75217454D01*
X79237157Y-75447992D01*
X79006619Y-75793016D01*
X78925665Y-76200000D01*
X77788500Y-76200000D01*
X77788500Y-73660000D01*
X78925665Y-73660000D01*
X79006619Y-74066984D01*
X79237157Y-74412008D01*
X79582181Y-74642546D01*
X79989165Y-74723500D01*
X80030835Y-74723500D01*
X80437819Y-74642546D01*
X80782843Y-74412008D01*
X81013381Y-74066984D01*
X81017058Y-74048500D01*
X81491962Y-74048500D01*
X81499445Y-74086118D01*
X81740822Y-74447363D01*
X82102067Y-74688740D01*
X82528185Y-74773500D01*
X82571815Y-74773500D01*
X82997933Y-74688740D01*
X83359178Y-74447363D01*
X83600555Y-74086118D01*
X83685315Y-73660000D01*
X83600555Y-73233882D01*
X83359178Y-72872637D01*
X82997933Y-72631260D01*
X82571815Y-72546500D01*
X82528185Y-72546500D01*
X82102067Y-72631260D01*
X81740822Y-72872637D01*
X81499445Y-73233882D01*
X81491962Y-73271500D01*
X81017058Y-73271500D01*
X81013381Y-73253016D01*
X80782843Y-72907992D01*
X80437819Y-72677454D01*
X80030835Y-72596500D01*
X79989165Y-72596500D01*
X79582181Y-72677454D01*
X79237157Y-72907992D01*
X79006619Y-73253016D01*
X78925665Y-73660000D01*
X77788500Y-73660000D01*
X77788500Y-71120000D01*
X78925665Y-71120000D01*
X79006619Y-71526984D01*
X79237157Y-71872008D01*
X79582181Y-72102546D01*
X79989165Y-72183500D01*
X80030835Y-72183500D01*
X80437819Y-72102546D01*
X80782843Y-71872008D01*
X81013381Y-71526984D01*
X81017058Y-71508500D01*
X81491962Y-71508500D01*
X81499445Y-71546118D01*
X81740822Y-71907363D01*
X82102067Y-72148740D01*
X82528185Y-72233500D01*
X82571815Y-72233500D01*
X82997933Y-72148740D01*
X83359178Y-71907363D01*
X83600555Y-71546118D01*
X83685315Y-71120000D01*
X83600555Y-70693882D01*
X83359178Y-70332637D01*
X82997933Y-70091260D01*
X82571815Y-70006500D01*
X82528185Y-70006500D01*
X82102067Y-70091260D01*
X81740822Y-70332637D01*
X81499445Y-70693882D01*
X81491962Y-70731500D01*
X81017058Y-70731500D01*
X81013381Y-70713016D01*
X80782843Y-70367992D01*
X80437819Y-70137454D01*
X80030835Y-70056500D01*
X79989165Y-70056500D01*
X79582181Y-70137454D01*
X79237157Y-70367992D01*
X79006619Y-70713016D01*
X78925665Y-71120000D01*
X77788500Y-71120000D01*
X77788500Y-68190599D01*
X77825637Y-68246178D01*
X78186882Y-68487555D01*
X78613000Y-68572315D01*
X79039118Y-68487555D01*
X79400363Y-68246178D01*
X79641740Y-67884933D01*
X79726500Y-67458815D01*
X79726500Y-67415185D01*
X79641740Y-66989067D01*
X79400363Y-66627822D01*
X79039118Y-66386445D01*
X78613000Y-66301685D01*
X78477605Y-66328617D01*
X78263500Y-66114512D01*
X78263500Y-64810278D01*
X78297495Y-64760525D01*
X78318662Y-64656000D01*
X78318662Y-62356000D01*
X78300288Y-62258353D01*
X78263500Y-62201182D01*
X78263500Y-62156000D01*
X79381338Y-62156000D01*
X79381338Y-64656000D01*
X79399712Y-64753647D01*
X79457421Y-64843330D01*
X79545475Y-64903495D01*
X79650000Y-64924662D01*
X81650000Y-64924662D01*
X81747647Y-64906288D01*
X81837330Y-64848579D01*
X81897495Y-64760525D01*
X81918662Y-64656000D01*
X81918662Y-62156000D01*
X81900288Y-62058353D01*
X81842579Y-61968670D01*
X81754525Y-61908505D01*
X81650000Y-61887338D01*
X79650000Y-61887338D01*
X79552353Y-61905712D01*
X79462670Y-61963421D01*
X79402505Y-62051475D01*
X79381338Y-62156000D01*
X78263500Y-62156000D01*
X78263500Y-61861500D01*
X78228218Y-61684126D01*
X78157114Y-61577711D01*
X78257453Y-61619376D01*
X78541301Y-61619623D01*
X78803637Y-61511228D01*
X79004523Y-61310693D01*
X79113376Y-61048547D01*
X79113623Y-60764699D01*
X79005228Y-60502363D01*
X78804693Y-60301477D01*
X78542547Y-60192624D01*
X78258699Y-60192377D01*
X77996363Y-60300772D01*
X77795477Y-60501307D01*
X77686624Y-60763453D01*
X77686377Y-61047301D01*
X77718125Y-61124137D01*
X74350581Y-57756593D01*
X74350598Y-57736905D01*
X74264991Y-57529720D01*
X74106614Y-57371066D01*
X73899579Y-57285098D01*
X73675405Y-57284902D01*
X73468220Y-57370509D01*
X73309566Y-57528886D01*
X73223598Y-57735921D01*
X73223402Y-57960095D01*
X73309009Y-58167280D01*
X73467386Y-58325934D01*
X73674421Y-58411902D01*
X73694932Y-58411920D01*
X77336500Y-62053488D01*
X77336500Y-62104855D01*
X77250000Y-62087338D01*
X76750000Y-62087338D01*
X76652353Y-62105712D01*
X76599867Y-62139486D01*
X76554525Y-62108505D01*
X76450000Y-62087338D01*
X76157303Y-62087338D01*
X76134494Y-62032272D01*
X75973729Y-61871506D01*
X75763679Y-61784500D01*
X75667875Y-61784500D01*
X75525000Y-61927375D01*
X75525000Y-63315500D01*
X75610500Y-63315500D01*
X75610500Y-63696500D01*
X75525000Y-63696500D01*
X75525000Y-65084625D01*
X75667875Y-65227500D01*
X75763679Y-65227500D01*
X75811500Y-65207692D01*
X75811500Y-65236510D01*
X75688405Y-65236402D01*
X75481220Y-65322009D01*
X75322566Y-65480386D01*
X75236598Y-65687421D01*
X75236402Y-65911595D01*
X75322009Y-66118780D01*
X75480386Y-66277434D01*
X75687421Y-66363402D01*
X75762398Y-66363468D01*
X75646882Y-66386445D01*
X75285637Y-66627822D01*
X75044260Y-66989067D01*
X74959500Y-67415185D01*
X74959500Y-67458815D01*
X75031870Y-67822642D01*
X74651662Y-68202850D01*
X74651662Y-66587000D01*
X74633288Y-66489353D01*
X74575579Y-66399670D01*
X74487525Y-66339505D01*
X74383000Y-66318338D01*
X72683000Y-66318338D01*
X72585353Y-66336712D01*
X72495670Y-66394421D01*
X72435505Y-66482475D01*
X72414338Y-66587000D01*
X72414338Y-68287000D01*
X72432712Y-68384647D01*
X72490421Y-68474330D01*
X72578475Y-68534495D01*
X72683000Y-68555662D01*
X74298850Y-68555662D01*
X74221256Y-68633256D01*
X74120782Y-68783626D01*
X74085500Y-68961000D01*
X74085500Y-84898012D01*
X73248030Y-85735482D01*
X73162843Y-85607992D01*
X72817819Y-85377454D01*
X72410835Y-85296500D01*
X72369165Y-85296500D01*
X71962181Y-85377454D01*
X71617157Y-85607992D01*
X71424382Y-85896500D01*
X70875577Y-85896500D01*
X70659178Y-85572637D01*
X70297933Y-85331260D01*
X69871815Y-85246500D01*
X69828185Y-85246500D01*
X69402067Y-85331260D01*
X69040822Y-85572637D01*
X68799445Y-85933882D01*
X68714685Y-86360000D01*
X68629500Y-86360000D01*
X68629500Y-83820000D01*
X68714685Y-83820000D01*
X68799445Y-84246118D01*
X69040822Y-84607363D01*
X69402067Y-84848740D01*
X69828185Y-84933500D01*
X69871815Y-84933500D01*
X70297933Y-84848740D01*
X70659178Y-84607363D01*
X70900555Y-84246118D01*
X70908038Y-84208500D01*
X71382942Y-84208500D01*
X71386619Y-84226984D01*
X71617157Y-84572008D01*
X71962181Y-84802546D01*
X72369165Y-84883500D01*
X72410835Y-84883500D01*
X72817819Y-84802546D01*
X73162843Y-84572008D01*
X73393381Y-84226984D01*
X73474335Y-83820000D01*
X73393381Y-83413016D01*
X73162843Y-83067992D01*
X72817819Y-82837454D01*
X72410835Y-82756500D01*
X72369165Y-82756500D01*
X71962181Y-82837454D01*
X71617157Y-83067992D01*
X71386619Y-83413016D01*
X71382942Y-83431500D01*
X70908038Y-83431500D01*
X70900555Y-83393882D01*
X70659178Y-83032637D01*
X70297933Y-82791260D01*
X69871815Y-82706500D01*
X69828185Y-82706500D01*
X69402067Y-82791260D01*
X69040822Y-83032637D01*
X68799445Y-83393882D01*
X68714685Y-83820000D01*
X68629500Y-83820000D01*
X68629500Y-81280000D01*
X68714685Y-81280000D01*
X68799445Y-81706118D01*
X69040822Y-82067363D01*
X69402067Y-82308740D01*
X69828185Y-82393500D01*
X69871815Y-82393500D01*
X70297933Y-82308740D01*
X70659178Y-82067363D01*
X70900555Y-81706118D01*
X70908038Y-81668500D01*
X71382942Y-81668500D01*
X71386619Y-81686984D01*
X71617157Y-82032008D01*
X71962181Y-82262546D01*
X72369165Y-82343500D01*
X72410835Y-82343500D01*
X72817819Y-82262546D01*
X73162843Y-82032008D01*
X73393381Y-81686984D01*
X73474335Y-81280000D01*
X73393381Y-80873016D01*
X73162843Y-80527992D01*
X72817819Y-80297454D01*
X72410835Y-80216500D01*
X72369165Y-80216500D01*
X71962181Y-80297454D01*
X71617157Y-80527992D01*
X71386619Y-80873016D01*
X71382942Y-80891500D01*
X70908038Y-80891500D01*
X70900555Y-80853882D01*
X70659178Y-80492637D01*
X70297933Y-80251260D01*
X69871815Y-80166500D01*
X69828185Y-80166500D01*
X69402067Y-80251260D01*
X69040822Y-80492637D01*
X68799445Y-80853882D01*
X68714685Y-81280000D01*
X68629500Y-81280000D01*
X68629500Y-78740000D01*
X68714685Y-78740000D01*
X68799445Y-79166118D01*
X69040822Y-79527363D01*
X69402067Y-79768740D01*
X69828185Y-79853500D01*
X69871815Y-79853500D01*
X70297933Y-79768740D01*
X70659178Y-79527363D01*
X70900555Y-79166118D01*
X70908038Y-79128500D01*
X71382942Y-79128500D01*
X71386619Y-79146984D01*
X71617157Y-79492008D01*
X71962181Y-79722546D01*
X72369165Y-79803500D01*
X72410835Y-79803500D01*
X72817819Y-79722546D01*
X73162843Y-79492008D01*
X73393381Y-79146984D01*
X73474335Y-78740000D01*
X73393381Y-78333016D01*
X73162843Y-77987992D01*
X72817819Y-77757454D01*
X72410835Y-77676500D01*
X72369165Y-77676500D01*
X71962181Y-77757454D01*
X71617157Y-77987992D01*
X71386619Y-78333016D01*
X71382942Y-78351500D01*
X70908038Y-78351500D01*
X70900555Y-78313882D01*
X70659178Y-77952637D01*
X70297933Y-77711260D01*
X69871815Y-77626500D01*
X69828185Y-77626500D01*
X69402067Y-77711260D01*
X69040822Y-77952637D01*
X68799445Y-78313882D01*
X68714685Y-78740000D01*
X68629500Y-78740000D01*
X68629500Y-76200000D01*
X68714685Y-76200000D01*
X68799445Y-76626118D01*
X69040822Y-76987363D01*
X69402067Y-77228740D01*
X69828185Y-77313500D01*
X69871815Y-77313500D01*
X70297933Y-77228740D01*
X70659178Y-76987363D01*
X70900555Y-76626118D01*
X70908038Y-76588500D01*
X71382942Y-76588500D01*
X71386619Y-76606984D01*
X71617157Y-76952008D01*
X71962181Y-77182546D01*
X72369165Y-77263500D01*
X72410835Y-77263500D01*
X72817819Y-77182546D01*
X73162843Y-76952008D01*
X73393381Y-76606984D01*
X73474335Y-76200000D01*
X73393381Y-75793016D01*
X73162843Y-75447992D01*
X72817819Y-75217454D01*
X72410835Y-75136500D01*
X72369165Y-75136500D01*
X71962181Y-75217454D01*
X71617157Y-75447992D01*
X71386619Y-75793016D01*
X71382942Y-75811500D01*
X70908038Y-75811500D01*
X70900555Y-75773882D01*
X70659178Y-75412637D01*
X70297933Y-75171260D01*
X69871815Y-75086500D01*
X69828185Y-75086500D01*
X69402067Y-75171260D01*
X69040822Y-75412637D01*
X68799445Y-75773882D01*
X68714685Y-76200000D01*
X68629500Y-76200000D01*
X68629500Y-73660000D01*
X68714685Y-73660000D01*
X68799445Y-74086118D01*
X69040822Y-74447363D01*
X69402067Y-74688740D01*
X69828185Y-74773500D01*
X69871815Y-74773500D01*
X70297933Y-74688740D01*
X70659178Y-74447363D01*
X70900555Y-74086118D01*
X70908038Y-74048500D01*
X71382942Y-74048500D01*
X71386619Y-74066984D01*
X71617157Y-74412008D01*
X71962181Y-74642546D01*
X72369165Y-74723500D01*
X72410835Y-74723500D01*
X72817819Y-74642546D01*
X73162843Y-74412008D01*
X73393381Y-74066984D01*
X73474335Y-73660000D01*
X73393381Y-73253016D01*
X73162843Y-72907992D01*
X72817819Y-72677454D01*
X72410835Y-72596500D01*
X72369165Y-72596500D01*
X71962181Y-72677454D01*
X71617157Y-72907992D01*
X71386619Y-73253016D01*
X71382942Y-73271500D01*
X70908038Y-73271500D01*
X70900555Y-73233882D01*
X70659178Y-72872637D01*
X70297933Y-72631260D01*
X69871815Y-72546500D01*
X69828185Y-72546500D01*
X69402067Y-72631260D01*
X69040822Y-72872637D01*
X68799445Y-73233882D01*
X68714685Y-73660000D01*
X68629500Y-73660000D01*
X68629500Y-70270000D01*
X68731338Y-70270000D01*
X68731338Y-71970000D01*
X68749712Y-72067647D01*
X68807421Y-72157330D01*
X68895475Y-72217495D01*
X69000000Y-72238662D01*
X70700000Y-72238662D01*
X70797647Y-72220288D01*
X70887330Y-72162579D01*
X70947495Y-72074525D01*
X70968662Y-71970000D01*
X70968662Y-71508500D01*
X71321338Y-71508500D01*
X71321338Y-71920000D01*
X71339712Y-72017647D01*
X71397421Y-72107330D01*
X71485475Y-72167495D01*
X71590000Y-72188662D01*
X73190000Y-72188662D01*
X73287647Y-72170288D01*
X73377330Y-72112579D01*
X73437495Y-72024525D01*
X73458662Y-71920000D01*
X73458662Y-70320000D01*
X73440288Y-70222353D01*
X73382579Y-70132670D01*
X73294525Y-70072505D01*
X73190000Y-70051338D01*
X71590000Y-70051338D01*
X71492353Y-70069712D01*
X71402670Y-70127421D01*
X71342505Y-70215475D01*
X71321338Y-70320000D01*
X71321338Y-70731500D01*
X70968662Y-70731500D01*
X70968662Y-70270000D01*
X70950288Y-70172353D01*
X70892579Y-70082670D01*
X70804525Y-70022505D01*
X70700000Y-70001338D01*
X69000000Y-70001338D01*
X68902353Y-70019712D01*
X68812670Y-70077421D01*
X68752505Y-70165475D01*
X68731338Y-70270000D01*
X68629500Y-70270000D01*
X68629500Y-62156000D01*
X70481338Y-62156000D01*
X70481338Y-64656000D01*
X70499712Y-64753647D01*
X70557421Y-64843330D01*
X70645475Y-64903495D01*
X70750000Y-64924662D01*
X72750000Y-64924662D01*
X72847647Y-64906288D01*
X72937330Y-64848579D01*
X72997495Y-64760525D01*
X73018662Y-64656000D01*
X73018662Y-63839375D01*
X73778500Y-63839375D01*
X73778500Y-64769678D01*
X73865506Y-64979728D01*
X74026271Y-65140494D01*
X74236321Y-65227500D01*
X74332125Y-65227500D01*
X74475000Y-65084625D01*
X74475000Y-63839375D01*
X74578500Y-63839375D01*
X74578500Y-64769678D01*
X74665506Y-64979728D01*
X74725000Y-65039222D01*
X74725000Y-65084625D01*
X74867875Y-65227500D01*
X74963679Y-65227500D01*
X75000000Y-65212455D01*
X75036321Y-65227500D01*
X75132125Y-65227500D01*
X75275000Y-65084625D01*
X75275000Y-65039222D01*
X75334494Y-64979728D01*
X75421500Y-64769678D01*
X75421500Y-63839375D01*
X75278625Y-63696500D01*
X74721375Y-63696500D01*
X74578500Y-63839375D01*
X74475000Y-63839375D01*
X74475000Y-63696500D01*
X73921375Y-63696500D01*
X73778500Y-63839375D01*
X73018662Y-63839375D01*
X73018662Y-62242322D01*
X73778500Y-62242322D01*
X73778500Y-63172625D01*
X73921375Y-63315500D01*
X74475000Y-63315500D01*
X74475000Y-62242322D01*
X74578500Y-62242322D01*
X74578500Y-63172625D01*
X74721375Y-63315500D01*
X75278625Y-63315500D01*
X75421500Y-63172625D01*
X75421500Y-62242322D01*
X75334494Y-62032272D01*
X75275000Y-61972778D01*
X75275000Y-61927375D01*
X75132125Y-61784500D01*
X75036321Y-61784500D01*
X75000000Y-61799545D01*
X74963679Y-61784500D01*
X74867875Y-61784500D01*
X74725000Y-61927375D01*
X74725000Y-61972778D01*
X74665506Y-62032272D01*
X74578500Y-62242322D01*
X74475000Y-62242322D01*
X74475000Y-61927375D01*
X74332125Y-61784500D01*
X74236321Y-61784500D01*
X74026271Y-61871506D01*
X73865506Y-62032272D01*
X73778500Y-62242322D01*
X73018662Y-62242322D01*
X73018662Y-62156000D01*
X73000288Y-62058353D01*
X72942579Y-61968670D01*
X72854525Y-61908505D01*
X72750000Y-61887338D01*
X70750000Y-61887338D01*
X70652353Y-61905712D01*
X70562670Y-61963421D01*
X70502505Y-62051475D01*
X70481338Y-62156000D01*
X68629500Y-62156000D01*
X68629500Y-61047301D01*
X73286377Y-61047301D01*
X73394772Y-61309637D01*
X73595307Y-61510523D01*
X73857453Y-61619376D01*
X74141301Y-61619623D01*
X74403637Y-61511228D01*
X74604523Y-61310693D01*
X74713376Y-61048547D01*
X74713623Y-60764699D01*
X74605228Y-60502363D01*
X74404693Y-60301477D01*
X74142547Y-60192624D01*
X73858699Y-60192377D01*
X73596363Y-60300772D01*
X73395477Y-60501307D01*
X73286624Y-60763453D01*
X73286377Y-61047301D01*
X68629500Y-61047301D01*
X68629500Y-56656000D01*
X70481338Y-56656000D01*
X70481338Y-59156000D01*
X70499712Y-59253647D01*
X70557421Y-59343330D01*
X70645475Y-59403495D01*
X70750000Y-59424662D01*
X72750000Y-59424662D01*
X72847647Y-59406288D01*
X72937330Y-59348579D01*
X72997495Y-59260525D01*
X73018662Y-59156000D01*
X73018662Y-56656000D01*
X79381338Y-56656000D01*
X79381338Y-59156000D01*
X79399712Y-59253647D01*
X79457421Y-59343330D01*
X79545475Y-59403495D01*
X79650000Y-59424662D01*
X81650000Y-59424662D01*
X81747647Y-59406288D01*
X81837330Y-59348579D01*
X81897495Y-59260525D01*
X81918662Y-59156000D01*
X81918662Y-56656000D01*
X81900288Y-56558353D01*
X81842579Y-56468670D01*
X81754525Y-56408505D01*
X81650000Y-56387338D01*
X79650000Y-56387338D01*
X79552353Y-56405712D01*
X79462670Y-56463421D01*
X79402505Y-56551475D01*
X79381338Y-56656000D01*
X73018662Y-56656000D01*
X73000288Y-56558353D01*
X72942579Y-56468670D01*
X72854525Y-56408505D01*
X72750000Y-56387338D01*
X70750000Y-56387338D01*
X70652353Y-56405712D01*
X70562670Y-56463421D01*
X70502505Y-56551475D01*
X70481338Y-56656000D01*
X68629500Y-56656000D01*
X68629500Y-55675500D01*
X83770500Y-55675500D01*
X83770500Y-85648410D01*
M02*
