M48
; DRILL file {KiCad 5.1.6-1.fc31} date Tue Jul 21 16:24:53 2020
; FORMAT={-:-/ absolute / inch / decimal}
; #@! TF.CreationDate,2020-07-21T16:24:53+03:00
; #@! TF.GenerationSoftware,Kicad,Pcbnew,5.1.6-1.fc31
FMAT,2
INCH
T1C0.0157
T2C0.0315
T3C0.0394
T4C0.0400
T5C0.0354
%
G90
G05
T1
X2.8Y-4.165
X2.905Y-2.2775
X2.9511Y-2.5889
X2.9843Y-2.5906
X2.9843Y-3.9528
X2.9961Y-3.4016
X3.01Y-4.39
X3.0394Y-3.1535
X3.0394Y-3.689
X3.195Y-4.165
T2
X2.85Y-2.8
X2.85Y-2.9
X2.85Y-3.0
X2.85Y-3.1
X2.85Y-3.2
X2.85Y-3.3
X2.85Y-3.4
X2.85Y-3.5
X2.85Y-3.6
X2.85Y-3.7
X2.85Y-3.8
X2.85Y-3.9
X2.85Y-4.0
X2.85Y-4.1
X3.15Y-2.8
X3.15Y-2.9
X3.15Y-3.0
X3.15Y-3.1
X3.15Y-3.2
X3.15Y-3.3
X3.15Y-3.4
X3.15Y-3.5
X3.15Y-3.6
X3.15Y-3.7
X3.15Y-3.8
X3.15Y-3.9
X3.15Y-4.0
X3.15Y-4.1
X2.8179Y-4.3
X3.01Y-4.3
T3
X3.25Y-2.8
X3.25Y-2.9
X3.25Y-3.0
X3.25Y-3.1
X3.25Y-3.2
X3.25Y-3.3
X3.25Y-3.4
X3.25Y-3.5
X3.25Y-3.6
X3.25Y-3.7
X3.25Y-3.8
X3.25Y-3.9
X3.25Y-4.0
X3.25Y-4.1
X2.895Y-2.655
X2.995Y-2.655
X3.095Y-2.655
X3.25Y-4.25
X3.25Y-4.35
X2.75Y-2.8
X2.75Y-2.9
X2.75Y-3.0
X2.75Y-3.1
X2.75Y-3.2
X2.75Y-3.3
X2.75Y-3.4
X2.75Y-3.5
X2.75Y-3.6
X2.75Y-3.7
X2.75Y-3.8
X2.75Y-3.9
X2.75Y-4.0
X2.75Y-4.1
T4
X2.9Y-4.58
X2.9Y-4.68
X3.0Y-4.58
X3.0Y-4.68
X3.1Y-4.58
X3.1Y-4.68
T5
X2.9134Y-2.3979
X3.0866Y-2.3979
T0
M30
