G04 #@! TF.GenerationSoftware,KiCad,Pcbnew,5.1.6-1.fc31*
G04 #@! TF.CreationDate,2020-07-21T16:24:12+03:00*
G04 #@! TF.ProjectId,rudy,72756479-2e6b-4696-9361-645f70636258,rev?*
G04 #@! TF.SameCoordinates,Original*
G04 #@! TF.FileFunction,Copper,L2,Bot*
G04 #@! TF.FilePolarity,Positive*
%FSLAX46Y46*%
G04 Gerber Fmt 4.6, Leading zero omitted, Abs format (unit mm)*
G04 Created by KiCad (PCBNEW 5.1.6-1.fc31) date 2020-07-21 16:24:12*
%MOMM*%
%LPD*%
G01*
G04 APERTURE LIST*
G04 #@! TA.AperFunction,SMDPad,CuDef*
%ADD10R,2.000000X3.800000*%
G04 #@! TD*
G04 #@! TA.AperFunction,SMDPad,CuDef*
%ADD11R,2.000000X1.500000*%
G04 #@! TD*
G04 #@! TA.AperFunction,ComponentPad*
%ADD12R,1.700000X1.700000*%
G04 #@! TD*
G04 #@! TA.AperFunction,ComponentPad*
%ADD13O,1.700000X1.700000*%
G04 #@! TD*
G04 #@! TA.AperFunction,ComponentPad*
%ADD14R,1.727200X1.727200*%
G04 #@! TD*
G04 #@! TA.AperFunction,ComponentPad*
%ADD15O,1.727200X1.727200*%
G04 #@! TD*
G04 #@! TA.AperFunction,ComponentPad*
%ADD16C,1.500000*%
G04 #@! TD*
G04 #@! TA.AperFunction,ComponentPad*
%ADD17R,1.600000X1.600000*%
G04 #@! TD*
G04 #@! TA.AperFunction,ComponentPad*
%ADD18O,1.600000X1.600000*%
G04 #@! TD*
G04 #@! TA.AperFunction,SMDPad,CuDef*
%ADD19R,1.500000X1.950000*%
G04 #@! TD*
G04 #@! TA.AperFunction,SMDPad,CuDef*
%ADD20R,0.500000X0.500000*%
G04 #@! TD*
G04 #@! TA.AperFunction,ViaPad*
%ADD21C,0.600000*%
G04 #@! TD*
G04 #@! TA.AperFunction,Conductor*
%ADD22C,0.400000*%
G04 #@! TD*
G04 #@! TA.AperFunction,Conductor*
%ADD23C,0.250000*%
G04 #@! TD*
G04 #@! TA.AperFunction,Conductor*
%ADD24C,0.127000*%
G04 #@! TD*
G04 #@! TA.AperFunction,Conductor*
%ADD25C,0.100000*%
G04 #@! TD*
G04 APERTURE END LIST*
D10*
X82398000Y-59690000D03*
D11*
X76098000Y-59690000D03*
X76098000Y-57390000D03*
X76098000Y-61990000D03*
D12*
X73533000Y-67437000D03*
D13*
X76073000Y-67437000D03*
X78613000Y-67437000D03*
D12*
X69850000Y-71120000D03*
D13*
X69850000Y-73660000D03*
X69850000Y-76200000D03*
X69850000Y-78740000D03*
X69850000Y-81280000D03*
X69850000Y-83820000D03*
X69850000Y-86360000D03*
X69850000Y-88900000D03*
X69850000Y-91440000D03*
X69850000Y-93980000D03*
X69850000Y-96520000D03*
X69850000Y-99060000D03*
X69850000Y-101600000D03*
X69850000Y-104140000D03*
D12*
X82550000Y-104140000D03*
D13*
X82550000Y-101600000D03*
X82550000Y-99060000D03*
X82550000Y-96520000D03*
X82550000Y-93980000D03*
X82550000Y-91440000D03*
X82550000Y-88900000D03*
X82550000Y-86360000D03*
X82550000Y-83820000D03*
X82550000Y-81280000D03*
X82550000Y-78740000D03*
X82550000Y-76200000D03*
X82550000Y-73660000D03*
X82550000Y-71120000D03*
D12*
X82550000Y-107950000D03*
D13*
X82550000Y-110490000D03*
D14*
X78740000Y-116332000D03*
D15*
X78740000Y-118872000D03*
X76200000Y-116332000D03*
X76200000Y-118872000D03*
X73660000Y-116332000D03*
X73660000Y-118872000D03*
D16*
X76454000Y-109220000D03*
X71574000Y-109220000D03*
D17*
X72390000Y-71120000D03*
D18*
X80010000Y-104140000D03*
X72390000Y-73660000D03*
X80010000Y-101600000D03*
X72390000Y-76200000D03*
X80010000Y-99060000D03*
X72390000Y-78740000D03*
X80010000Y-96520000D03*
X72390000Y-81280000D03*
X80010000Y-93980000D03*
X72390000Y-83820000D03*
X80010000Y-91440000D03*
X72390000Y-86360000D03*
X80010000Y-88900000D03*
X72390000Y-88900000D03*
X80010000Y-86360000D03*
X72390000Y-91440000D03*
X80010000Y-83820000D03*
X72390000Y-93980000D03*
X80010000Y-81280000D03*
X72390000Y-96520000D03*
X80010000Y-78740000D03*
X72390000Y-99060000D03*
X80010000Y-76200000D03*
X72390000Y-101600000D03*
X80010000Y-73660000D03*
X72390000Y-104140000D03*
X80010000Y-71120000D03*
D19*
X69596000Y-60347000D03*
X69596000Y-63097000D03*
X72009000Y-60347000D03*
X72009000Y-63097000D03*
D20*
X77150000Y-88700000D03*
X74950000Y-88700000D03*
X77150000Y-92100000D03*
X74950000Y-92100000D03*
G04 #@! TA.AperFunction,SMDPad,CuDef*
G36*
G01*
X80442750Y-65885000D02*
X81355250Y-65885000D01*
G75*
G02*
X81599000Y-66128750I0J-243750D01*
G01*
X81599000Y-66616250D01*
G75*
G02*
X81355250Y-66860000I-243750J0D01*
G01*
X80442750Y-66860000D01*
G75*
G02*
X80199000Y-66616250I0J243750D01*
G01*
X80199000Y-66128750D01*
G75*
G02*
X80442750Y-65885000I243750J0D01*
G01*
G37*
G04 #@! TD.AperFunction*
G04 #@! TA.AperFunction,SMDPad,CuDef*
G36*
G01*
X80442750Y-67760000D02*
X81355250Y-67760000D01*
G75*
G02*
X81599000Y-68003750I0J-243750D01*
G01*
X81599000Y-68491250D01*
G75*
G02*
X81355250Y-68735000I-243750J0D01*
G01*
X80442750Y-68735000D01*
G75*
G02*
X80199000Y-68491250I0J243750D01*
G01*
X80199000Y-68003750D01*
G75*
G02*
X80442750Y-67760000I243750J0D01*
G01*
G37*
G04 #@! TD.AperFunction*
G04 #@! TA.AperFunction,SMDPad,CuDef*
G36*
G01*
X78029750Y-108049000D02*
X78942250Y-108049000D01*
G75*
G02*
X79186000Y-108292750I0J-243750D01*
G01*
X79186000Y-108780250D01*
G75*
G02*
X78942250Y-109024000I-243750J0D01*
G01*
X78029750Y-109024000D01*
G75*
G02*
X77786000Y-108780250I0J243750D01*
G01*
X77786000Y-108292750D01*
G75*
G02*
X78029750Y-108049000I243750J0D01*
G01*
G37*
G04 #@! TD.AperFunction*
G04 #@! TA.AperFunction,SMDPad,CuDef*
G36*
G01*
X78029750Y-109924000D02*
X78942250Y-109924000D01*
G75*
G02*
X79186000Y-110167750I0J-243750D01*
G01*
X79186000Y-110655250D01*
G75*
G02*
X78942250Y-110899000I-243750J0D01*
G01*
X78029750Y-110899000D01*
G75*
G02*
X77786000Y-110655250I0J243750D01*
G01*
X77786000Y-110167750D01*
G75*
G02*
X78029750Y-109924000I243750J0D01*
G01*
G37*
G04 #@! TD.AperFunction*
G04 #@! TA.AperFunction,SMDPad,CuDef*
G36*
G01*
X73203750Y-109924000D02*
X74116250Y-109924000D01*
G75*
G02*
X74360000Y-110167750I0J-243750D01*
G01*
X74360000Y-110655250D01*
G75*
G02*
X74116250Y-110899000I-243750J0D01*
G01*
X73203750Y-110899000D01*
G75*
G02*
X72960000Y-110655250I0J243750D01*
G01*
X72960000Y-110167750D01*
G75*
G02*
X73203750Y-109924000I243750J0D01*
G01*
G37*
G04 #@! TD.AperFunction*
G04 #@! TA.AperFunction,SMDPad,CuDef*
G36*
G01*
X73203750Y-108049000D02*
X74116250Y-108049000D01*
G75*
G02*
X74360000Y-108292750I0J-243750D01*
G01*
X74360000Y-108780250D01*
G75*
G02*
X74116250Y-109024000I-243750J0D01*
G01*
X73203750Y-109024000D01*
G75*
G02*
X72960000Y-108780250I0J243750D01*
G01*
X72960000Y-108292750D01*
G75*
G02*
X73203750Y-108049000I243750J0D01*
G01*
G37*
G04 #@! TD.AperFunction*
G04 #@! TA.AperFunction,SMDPad,CuDef*
G36*
G01*
X74775000Y-81736250D02*
X74775000Y-80823750D01*
G75*
G02*
X75018750Y-80580000I243750J0D01*
G01*
X75506250Y-80580000D01*
G75*
G02*
X75750000Y-80823750I0J-243750D01*
G01*
X75750000Y-81736250D01*
G75*
G02*
X75506250Y-81980000I-243750J0D01*
G01*
X75018750Y-81980000D01*
G75*
G02*
X74775000Y-81736250I0J243750D01*
G01*
G37*
G04 #@! TD.AperFunction*
G04 #@! TA.AperFunction,SMDPad,CuDef*
G36*
G01*
X76650000Y-81736250D02*
X76650000Y-80823750D01*
G75*
G02*
X76893750Y-80580000I243750J0D01*
G01*
X77381250Y-80580000D01*
G75*
G02*
X77625000Y-80823750I0J-243750D01*
G01*
X77625000Y-81736250D01*
G75*
G02*
X77381250Y-81980000I-243750J0D01*
G01*
X76893750Y-81980000D01*
G75*
G02*
X76650000Y-81736250I0J243750D01*
G01*
G37*
G04 #@! TD.AperFunction*
G04 #@! TA.AperFunction,SMDPad,CuDef*
G36*
G01*
X74775000Y-79196250D02*
X74775000Y-78283750D01*
G75*
G02*
X75018750Y-78040000I243750J0D01*
G01*
X75506250Y-78040000D01*
G75*
G02*
X75750000Y-78283750I0J-243750D01*
G01*
X75750000Y-79196250D01*
G75*
G02*
X75506250Y-79440000I-243750J0D01*
G01*
X75018750Y-79440000D01*
G75*
G02*
X74775000Y-79196250I0J243750D01*
G01*
G37*
G04 #@! TD.AperFunction*
G04 #@! TA.AperFunction,SMDPad,CuDef*
G36*
G01*
X76650000Y-79196250D02*
X76650000Y-78283750D01*
G75*
G02*
X76893750Y-78040000I243750J0D01*
G01*
X77381250Y-78040000D01*
G75*
G02*
X77625000Y-78283750I0J-243750D01*
G01*
X77625000Y-79196250D01*
G75*
G02*
X77381250Y-79440000I-243750J0D01*
G01*
X76893750Y-79440000D01*
G75*
G02*
X76650000Y-79196250I0J243750D01*
G01*
G37*
G04 #@! TD.AperFunction*
G04 #@! TA.AperFunction,SMDPad,CuDef*
G36*
G01*
X76650000Y-84276250D02*
X76650000Y-83363750D01*
G75*
G02*
X76893750Y-83120000I243750J0D01*
G01*
X77381250Y-83120000D01*
G75*
G02*
X77625000Y-83363750I0J-243750D01*
G01*
X77625000Y-84276250D01*
G75*
G02*
X77381250Y-84520000I-243750J0D01*
G01*
X76893750Y-84520000D01*
G75*
G02*
X76650000Y-84276250I0J243750D01*
G01*
G37*
G04 #@! TD.AperFunction*
G04 #@! TA.AperFunction,SMDPad,CuDef*
G36*
G01*
X74775000Y-84276250D02*
X74775000Y-83363750D01*
G75*
G02*
X75018750Y-83120000I243750J0D01*
G01*
X75506250Y-83120000D01*
G75*
G02*
X75750000Y-83363750I0J-243750D01*
G01*
X75750000Y-84276250D01*
G75*
G02*
X75506250Y-84520000I-243750J0D01*
G01*
X75018750Y-84520000D01*
G75*
G02*
X74775000Y-84276250I0J243750D01*
G01*
G37*
G04 #@! TD.AperFunction*
G04 #@! TA.AperFunction,SMDPad,CuDef*
G36*
G01*
X75750000Y-75743750D02*
X75750000Y-76656250D01*
G75*
G02*
X75506250Y-76900000I-243750J0D01*
G01*
X75018750Y-76900000D01*
G75*
G02*
X74775000Y-76656250I0J243750D01*
G01*
X74775000Y-75743750D01*
G75*
G02*
X75018750Y-75500000I243750J0D01*
G01*
X75506250Y-75500000D01*
G75*
G02*
X75750000Y-75743750I0J-243750D01*
G01*
G37*
G04 #@! TD.AperFunction*
G04 #@! TA.AperFunction,SMDPad,CuDef*
G36*
G01*
X77625000Y-75743750D02*
X77625000Y-76656250D01*
G75*
G02*
X77381250Y-76900000I-243750J0D01*
G01*
X76893750Y-76900000D01*
G75*
G02*
X76650000Y-76656250I0J243750D01*
G01*
X76650000Y-75743750D01*
G75*
G02*
X76893750Y-75500000I243750J0D01*
G01*
X77381250Y-75500000D01*
G75*
G02*
X77625000Y-75743750I0J-243750D01*
G01*
G37*
G04 #@! TD.AperFunction*
G04 #@! TA.AperFunction,SMDPad,CuDef*
G36*
G01*
X76587500Y-96156250D02*
X76587500Y-95243750D01*
G75*
G02*
X76831250Y-95000000I243750J0D01*
G01*
X77318750Y-95000000D01*
G75*
G02*
X77562500Y-95243750I0J-243750D01*
G01*
X77562500Y-96156250D01*
G75*
G02*
X77318750Y-96400000I-243750J0D01*
G01*
X76831250Y-96400000D01*
G75*
G02*
X76587500Y-96156250I0J243750D01*
G01*
G37*
G04 #@! TD.AperFunction*
G04 #@! TA.AperFunction,SMDPad,CuDef*
G36*
G01*
X74712500Y-96156250D02*
X74712500Y-95243750D01*
G75*
G02*
X74956250Y-95000000I243750J0D01*
G01*
X75443750Y-95000000D01*
G75*
G02*
X75687500Y-95243750I0J-243750D01*
G01*
X75687500Y-96156250D01*
G75*
G02*
X75443750Y-96400000I-243750J0D01*
G01*
X74956250Y-96400000D01*
G75*
G02*
X74712500Y-96156250I0J243750D01*
G01*
G37*
G04 #@! TD.AperFunction*
G04 #@! TA.AperFunction,SMDPad,CuDef*
G36*
G01*
X74675000Y-99156250D02*
X74675000Y-98243750D01*
G75*
G02*
X74918750Y-98000000I243750J0D01*
G01*
X75406250Y-98000000D01*
G75*
G02*
X75650000Y-98243750I0J-243750D01*
G01*
X75650000Y-99156250D01*
G75*
G02*
X75406250Y-99400000I-243750J0D01*
G01*
X74918750Y-99400000D01*
G75*
G02*
X74675000Y-99156250I0J243750D01*
G01*
G37*
G04 #@! TD.AperFunction*
G04 #@! TA.AperFunction,SMDPad,CuDef*
G36*
G01*
X76550000Y-99156250D02*
X76550000Y-98243750D01*
G75*
G02*
X76793750Y-98000000I243750J0D01*
G01*
X77281250Y-98000000D01*
G75*
G02*
X77525000Y-98243750I0J-243750D01*
G01*
X77525000Y-99156250D01*
G75*
G02*
X77281250Y-99400000I-243750J0D01*
G01*
X76793750Y-99400000D01*
G75*
G02*
X76550000Y-99156250I0J243750D01*
G01*
G37*
G04 #@! TD.AperFunction*
G04 #@! TA.AperFunction,SMDPad,CuDef*
G36*
G01*
X82393750Y-65885000D02*
X83306250Y-65885000D01*
G75*
G02*
X83550000Y-66128750I0J-243750D01*
G01*
X83550000Y-66616250D01*
G75*
G02*
X83306250Y-66860000I-243750J0D01*
G01*
X82393750Y-66860000D01*
G75*
G02*
X82150000Y-66616250I0J243750D01*
G01*
X82150000Y-66128750D01*
G75*
G02*
X82393750Y-65885000I243750J0D01*
G01*
G37*
G04 #@! TD.AperFunction*
G04 #@! TA.AperFunction,SMDPad,CuDef*
G36*
G01*
X82393750Y-67760000D02*
X83306250Y-67760000D01*
G75*
G02*
X83550000Y-68003750I0J-243750D01*
G01*
X83550000Y-68491250D01*
G75*
G02*
X83306250Y-68735000I-243750J0D01*
G01*
X82393750Y-68735000D01*
G75*
G02*
X82150000Y-68491250I0J243750D01*
G01*
X82150000Y-68003750D01*
G75*
G02*
X82393750Y-67760000I243750J0D01*
G01*
G37*
G04 #@! TD.AperFunction*
D21*
X77200000Y-93700000D03*
X76454000Y-111506000D03*
X74958058Y-65758058D03*
X73787000Y-57848500D03*
X71120000Y-105791000D03*
X81153000Y-105791000D03*
X77200000Y-80100000D03*
X75800000Y-65800000D03*
X76100000Y-86400000D03*
X75800000Y-100400000D03*
D22*
X76073000Y-67437000D02*
X76073000Y-66675000D01*
X76073000Y-66675000D02*
X77216000Y-65532000D01*
X77216000Y-65532000D02*
X80121000Y-65532000D01*
X80121000Y-65532000D02*
X80899000Y-66310000D01*
X77037500Y-103687500D02*
X77037500Y-98900000D01*
X81300000Y-107950000D02*
X77037500Y-103687500D01*
X82550000Y-107950000D02*
X81300000Y-107950000D01*
X77075000Y-98662500D02*
X77037500Y-98700000D01*
X77075000Y-95700000D02*
X77075000Y-98662500D01*
X77200000Y-95575000D02*
X77075000Y-95700000D01*
X77200000Y-93700000D02*
X77200000Y-95575000D01*
X80899000Y-66372500D02*
X82850000Y-66372500D01*
D23*
X80010000Y-86360000D02*
X79629000Y-86360000D01*
X76454000Y-111506000D02*
X77236000Y-110724000D01*
X77236000Y-110724000D02*
X78486000Y-110724000D01*
X72009000Y-63722000D02*
X72009000Y-63754000D01*
X76098000Y-64618116D02*
X76098000Y-61990000D01*
X74958058Y-65758058D02*
X76098000Y-64618116D01*
D22*
X73787000Y-57848500D02*
X73660000Y-57721500D01*
X73660000Y-57721500D02*
X73660000Y-57340500D01*
X73533000Y-67437000D02*
X73533000Y-61871000D01*
X73533000Y-61871000D02*
X72009000Y-60347000D01*
D23*
X72285000Y-60347000D02*
X72009000Y-60347000D01*
X72041000Y-59690000D02*
X72009000Y-59722000D01*
X76098000Y-59690000D02*
X76200000Y-59690000D01*
X76066000Y-59722000D02*
X76098000Y-59690000D01*
X77200000Y-108474000D02*
X76454000Y-109220000D01*
X78486000Y-108474000D02*
X77200000Y-108474000D01*
X72320000Y-108474000D02*
X71574000Y-109220000D01*
X73660000Y-108474000D02*
X72320000Y-108474000D01*
X72390000Y-81280000D02*
X75250000Y-81280000D01*
X72390000Y-78740000D02*
X75250000Y-78740000D01*
X72390000Y-71120000D02*
X71882000Y-71120000D01*
X71120000Y-105791000D02*
X71120000Y-72390000D01*
X72390000Y-71120000D02*
X71120000Y-72390000D01*
X81153000Y-100203000D02*
X81153000Y-100647000D01*
X80010000Y-99060000D02*
X81153000Y-100203000D01*
X81153000Y-105791000D02*
X81153000Y-100647000D01*
X81153000Y-100647000D02*
X81153000Y-100457000D01*
X72390000Y-83820000D02*
X75250000Y-83820000D01*
X81135001Y-69962499D02*
X82850000Y-68247500D01*
X81135001Y-90314999D02*
X81135001Y-89864999D01*
X80010000Y-91440000D02*
X81135001Y-90314999D01*
X81135001Y-90025001D02*
X81135001Y-89864999D01*
X81135001Y-89864999D02*
X81135001Y-69962499D01*
X77150000Y-80150000D02*
X77150000Y-81280000D01*
X77200000Y-80100000D02*
X77150000Y-80150000D01*
X77150000Y-88700000D02*
X77150000Y-83820000D01*
X76980000Y-81280000D02*
X77150000Y-81280000D01*
X77150000Y-81280000D02*
X77150000Y-80706000D01*
X77150000Y-81280000D02*
X77150000Y-83820000D01*
X77150000Y-72750000D02*
X77150000Y-76200000D01*
X74800000Y-70400000D02*
X77150000Y-72750000D01*
X74800000Y-66800000D02*
X74800000Y-70400000D01*
X75800000Y-65800000D02*
X74800000Y-66800000D01*
X77150000Y-78740000D02*
X77150000Y-79000000D01*
X77150000Y-79000000D02*
X78200000Y-80050000D01*
X78200000Y-91050000D02*
X77150000Y-92100000D01*
X78200000Y-80050000D02*
X78200000Y-91050000D01*
X77150000Y-76200000D02*
X77150000Y-78740000D01*
X75200000Y-95700000D02*
X76100000Y-94800000D01*
X76100000Y-94800000D02*
X76100000Y-86400000D01*
X75800000Y-99337500D02*
X75162500Y-98700000D01*
X75800000Y-100400000D02*
X75800000Y-99337500D01*
D24*
G36*
X70830375Y-62906500D02*
G01*
X71818500Y-62906500D01*
X71818500Y-62886500D01*
X72199500Y-62886500D01*
X72199500Y-62906500D01*
X72219500Y-62906500D01*
X72219500Y-63287500D01*
X72199500Y-63287500D01*
X72199500Y-64500625D01*
X72342375Y-64643500D01*
X72759000Y-64646265D01*
X72871034Y-64635231D01*
X72978762Y-64602552D01*
X73069501Y-64554051D01*
X73069500Y-66322226D01*
X72683000Y-66322226D01*
X72631345Y-66327314D01*
X72581675Y-66342381D01*
X72535899Y-66366848D01*
X72495777Y-66399777D01*
X72462848Y-66439899D01*
X72438381Y-66485675D01*
X72423314Y-66535345D01*
X72418226Y-66587000D01*
X72418226Y-68287000D01*
X72423314Y-68338655D01*
X72438381Y-68388325D01*
X72462848Y-68434101D01*
X72495777Y-68474223D01*
X72535899Y-68507152D01*
X72581675Y-68531619D01*
X72631345Y-68546686D01*
X72683000Y-68551774D01*
X74383000Y-68551774D01*
X74411500Y-68548967D01*
X74411501Y-70380915D01*
X74409621Y-70400000D01*
X74417123Y-70476158D01*
X74439337Y-70549391D01*
X74475412Y-70616883D01*
X74504865Y-70652772D01*
X74523961Y-70676040D01*
X74538782Y-70688203D01*
X76761500Y-72910922D01*
X76761501Y-75255020D01*
X76699146Y-75273935D01*
X76611229Y-75320928D01*
X76534169Y-75384169D01*
X76470928Y-75461229D01*
X76423935Y-75549146D01*
X76394997Y-75644542D01*
X76385226Y-75743750D01*
X76385226Y-76656250D01*
X76394997Y-76755458D01*
X76423935Y-76850854D01*
X76470928Y-76938771D01*
X76534169Y-77015831D01*
X76611229Y-77079072D01*
X76699146Y-77126065D01*
X76761500Y-77144980D01*
X76761501Y-77795020D01*
X76699146Y-77813935D01*
X76611229Y-77860928D01*
X76534169Y-77924169D01*
X76470928Y-78001229D01*
X76423935Y-78089146D01*
X76394997Y-78184542D01*
X76385226Y-78283750D01*
X76385226Y-79196250D01*
X76394997Y-79295458D01*
X76423935Y-79390854D01*
X76470928Y-79478771D01*
X76534169Y-79555831D01*
X76611229Y-79619072D01*
X76699146Y-79666065D01*
X76794542Y-79695003D01*
X76806873Y-79696217D01*
X76762301Y-79740789D01*
X76700632Y-79833082D01*
X76658155Y-79935633D01*
X76636500Y-80044500D01*
X76636500Y-80155500D01*
X76658155Y-80264367D01*
X76695960Y-80355638D01*
X76611229Y-80400928D01*
X76534169Y-80464169D01*
X76470928Y-80541229D01*
X76423935Y-80629146D01*
X76394997Y-80724542D01*
X76385226Y-80823750D01*
X76385226Y-81736250D01*
X76394997Y-81835458D01*
X76423935Y-81930854D01*
X76470928Y-82018771D01*
X76534169Y-82095831D01*
X76611229Y-82159072D01*
X76699146Y-82206065D01*
X76761500Y-82224980D01*
X76761501Y-82875020D01*
X76699146Y-82893935D01*
X76611229Y-82940928D01*
X76534169Y-83004169D01*
X76470928Y-83081229D01*
X76423935Y-83169146D01*
X76394997Y-83264542D01*
X76385226Y-83363750D01*
X76385226Y-84276250D01*
X76394997Y-84375458D01*
X76423935Y-84470854D01*
X76470928Y-84558771D01*
X76534169Y-84635831D01*
X76611229Y-84699072D01*
X76699146Y-84746065D01*
X76761501Y-84764980D01*
X76761500Y-88225251D01*
X76752899Y-88229848D01*
X76712777Y-88262777D01*
X76679848Y-88302899D01*
X76655381Y-88348675D01*
X76640314Y-88398345D01*
X76635226Y-88450000D01*
X76635226Y-88950000D01*
X76640314Y-89001655D01*
X76655381Y-89051325D01*
X76679848Y-89097101D01*
X76712777Y-89137223D01*
X76752899Y-89170152D01*
X76798675Y-89194619D01*
X76848345Y-89209686D01*
X76900000Y-89214774D01*
X77400000Y-89214774D01*
X77451655Y-89209686D01*
X77501325Y-89194619D01*
X77547101Y-89170152D01*
X77587223Y-89137223D01*
X77620152Y-89097101D01*
X77644619Y-89051325D01*
X77659686Y-89001655D01*
X77664774Y-88950000D01*
X77664774Y-88450000D01*
X77659686Y-88398345D01*
X77644619Y-88348675D01*
X77620152Y-88302899D01*
X77587223Y-88262777D01*
X77547101Y-88229848D01*
X77538500Y-88225251D01*
X77538500Y-84757396D01*
X77575854Y-84746065D01*
X77663771Y-84699072D01*
X77740831Y-84635831D01*
X77804072Y-84558771D01*
X77811500Y-84544874D01*
X77811501Y-90889078D01*
X77115353Y-91585226D01*
X76900000Y-91585226D01*
X76848345Y-91590314D01*
X76798675Y-91605381D01*
X76752899Y-91629848D01*
X76712777Y-91662777D01*
X76679848Y-91702899D01*
X76655381Y-91748675D01*
X76640314Y-91798345D01*
X76635226Y-91850000D01*
X76635226Y-92350000D01*
X76640314Y-92401655D01*
X76655381Y-92451325D01*
X76679848Y-92497101D01*
X76712777Y-92537223D01*
X76752899Y-92570152D01*
X76798675Y-92594619D01*
X76848345Y-92609686D01*
X76900000Y-92614774D01*
X77400000Y-92614774D01*
X77451655Y-92609686D01*
X77501325Y-92594619D01*
X77547101Y-92570152D01*
X77587223Y-92537223D01*
X77620152Y-92497101D01*
X77644619Y-92451325D01*
X77659686Y-92401655D01*
X77664774Y-92350000D01*
X77664774Y-92134647D01*
X78461213Y-91338208D01*
X78476040Y-91326040D01*
X78511229Y-91283161D01*
X78524588Y-91266884D01*
X78560663Y-91199392D01*
X78582878Y-91126159D01*
X78588500Y-91069078D01*
X78588500Y-91069076D01*
X78590379Y-91050001D01*
X78588500Y-91030926D01*
X78588500Y-86760625D01*
X78698318Y-86760625D01*
X78799210Y-87004220D01*
X78948156Y-87228055D01*
X79137908Y-87418531D01*
X79361174Y-87568328D01*
X79609374Y-87671690D01*
X79819500Y-87575338D01*
X79819500Y-86550500D01*
X78796233Y-86550500D01*
X78698318Y-86760625D01*
X78588500Y-86760625D01*
X78588500Y-85959375D01*
X78698318Y-85959375D01*
X78796233Y-86169500D01*
X79819500Y-86169500D01*
X79819500Y-85144662D01*
X79609374Y-85048310D01*
X79361174Y-85151672D01*
X79137908Y-85301469D01*
X78948156Y-85491945D01*
X78799210Y-85715780D01*
X78698318Y-85959375D01*
X78588500Y-85959375D01*
X78588500Y-80069074D01*
X78590379Y-80049999D01*
X78588500Y-80030922D01*
X78582878Y-79973841D01*
X78560663Y-79900608D01*
X78524589Y-79833118D01*
X78524588Y-79833116D01*
X78507093Y-79811799D01*
X78476040Y-79773960D01*
X78461214Y-79761793D01*
X77889774Y-79190353D01*
X77889774Y-78283750D01*
X77880003Y-78184542D01*
X77851065Y-78089146D01*
X77804072Y-78001229D01*
X77740831Y-77924169D01*
X77663771Y-77860928D01*
X77575854Y-77813935D01*
X77538500Y-77802604D01*
X77538500Y-77137396D01*
X77575854Y-77126065D01*
X77663771Y-77079072D01*
X77740831Y-77015831D01*
X77804072Y-76938771D01*
X77851065Y-76850854D01*
X77880003Y-76755458D01*
X77889774Y-76656250D01*
X77889774Y-75743750D01*
X77880003Y-75644542D01*
X77851065Y-75549146D01*
X77804072Y-75461229D01*
X77740831Y-75384169D01*
X77663771Y-75320928D01*
X77575854Y-75273935D01*
X77538500Y-75262604D01*
X77538500Y-72769075D01*
X77540379Y-72750000D01*
X77538500Y-72730922D01*
X77532878Y-72673841D01*
X77510663Y-72600608D01*
X77474588Y-72533117D01*
X77426040Y-72473960D01*
X77411220Y-72461798D01*
X75188500Y-70239079D01*
X75188500Y-68735000D01*
X79624735Y-68735000D01*
X79635769Y-68847034D01*
X79668448Y-68954762D01*
X79721516Y-69054045D01*
X79792933Y-69141067D01*
X79879955Y-69212484D01*
X79979238Y-69265552D01*
X80086966Y-69298231D01*
X80199000Y-69309265D01*
X80565625Y-69306500D01*
X80708500Y-69163625D01*
X80708500Y-68438000D01*
X79770375Y-68438000D01*
X79627500Y-68580875D01*
X79624735Y-68735000D01*
X75188500Y-68735000D01*
X75188500Y-68117499D01*
X75208088Y-68146815D01*
X75363185Y-68301912D01*
X75545560Y-68423771D01*
X75748204Y-68507709D01*
X75963330Y-68550500D01*
X76182670Y-68550500D01*
X76397796Y-68507709D01*
X76600440Y-68423771D01*
X76782815Y-68301912D01*
X76937912Y-68146815D01*
X77059771Y-67964440D01*
X77143709Y-67761796D01*
X77186500Y-67546670D01*
X77186500Y-67327330D01*
X77499500Y-67327330D01*
X77499500Y-67546670D01*
X77542291Y-67761796D01*
X77626229Y-67964440D01*
X77748088Y-68146815D01*
X77903185Y-68301912D01*
X78085560Y-68423771D01*
X78288204Y-68507709D01*
X78503330Y-68550500D01*
X78722670Y-68550500D01*
X78937796Y-68507709D01*
X79140440Y-68423771D01*
X79322815Y-68301912D01*
X79477912Y-68146815D01*
X79599771Y-67964440D01*
X79627214Y-67898187D01*
X79627500Y-67914125D01*
X79770375Y-68057000D01*
X80708500Y-68057000D01*
X80708500Y-67331375D01*
X80565625Y-67188500D01*
X80199000Y-67185735D01*
X80086966Y-67196769D01*
X79979238Y-67229448D01*
X79879955Y-67282516D01*
X79792933Y-67353933D01*
X79726500Y-67434882D01*
X79726500Y-67327330D01*
X79683709Y-67112204D01*
X79599771Y-66909560D01*
X79477912Y-66727185D01*
X79322815Y-66572088D01*
X79140440Y-66450229D01*
X78937796Y-66366291D01*
X78722670Y-66323500D01*
X78503330Y-66323500D01*
X78288204Y-66366291D01*
X78085560Y-66450229D01*
X77903185Y-66572088D01*
X77748088Y-66727185D01*
X77626229Y-66909560D01*
X77542291Y-67112204D01*
X77499500Y-67327330D01*
X77186500Y-67327330D01*
X77143709Y-67112204D01*
X77059771Y-66909560D01*
X76937912Y-66727185D01*
X76807107Y-66596380D01*
X77407988Y-65995500D01*
X79929013Y-65995500D01*
X79948433Y-66014920D01*
X79943997Y-66029542D01*
X79934226Y-66128750D01*
X79934226Y-66616250D01*
X79943997Y-66715458D01*
X79972935Y-66810854D01*
X80019928Y-66898771D01*
X80083169Y-66975831D01*
X80160229Y-67039072D01*
X80248146Y-67086065D01*
X80343542Y-67115003D01*
X80442750Y-67124774D01*
X81355250Y-67124774D01*
X81454458Y-67115003D01*
X81549854Y-67086065D01*
X81637771Y-67039072D01*
X81714831Y-66975831D01*
X81778072Y-66898771D01*
X81811624Y-66836000D01*
X81937376Y-66836000D01*
X81970928Y-66898771D01*
X82034169Y-66975831D01*
X82111229Y-67039072D01*
X82199146Y-67086065D01*
X82294542Y-67115003D01*
X82393750Y-67124774D01*
X83306250Y-67124774D01*
X83405458Y-67115003D01*
X83500854Y-67086065D01*
X83588771Y-67039072D01*
X83665831Y-66975831D01*
X83729072Y-66898771D01*
X83770501Y-66821264D01*
X83770501Y-67798736D01*
X83729072Y-67721229D01*
X83665831Y-67644169D01*
X83588771Y-67580928D01*
X83500854Y-67533935D01*
X83405458Y-67504997D01*
X83306250Y-67495226D01*
X82393750Y-67495226D01*
X82294542Y-67504997D01*
X82199146Y-67533935D01*
X82137617Y-67566823D01*
X82129552Y-67540238D01*
X82076484Y-67440955D01*
X82005067Y-67353933D01*
X81918045Y-67282516D01*
X81818762Y-67229448D01*
X81711034Y-67196769D01*
X81599000Y-67185735D01*
X81232375Y-67188500D01*
X81089500Y-67331375D01*
X81089500Y-68057000D01*
X81109500Y-68057000D01*
X81109500Y-68438000D01*
X81089500Y-68438000D01*
X81089500Y-69163625D01*
X81232375Y-69306500D01*
X81241510Y-69306569D01*
X80873783Y-69674296D01*
X80858962Y-69686459D01*
X80846800Y-69701279D01*
X80810413Y-69745616D01*
X80774338Y-69813108D01*
X80752124Y-69886341D01*
X80744622Y-69962499D01*
X80746502Y-69981584D01*
X80746502Y-70352485D01*
X80687942Y-70293925D01*
X80513756Y-70177538D01*
X80320212Y-70097370D01*
X80114746Y-70056500D01*
X79905254Y-70056500D01*
X79699788Y-70097370D01*
X79506244Y-70177538D01*
X79332058Y-70293925D01*
X79183925Y-70442058D01*
X79067538Y-70616244D01*
X78987370Y-70809788D01*
X78946500Y-71015254D01*
X78946500Y-71224746D01*
X78987370Y-71430212D01*
X79067538Y-71623756D01*
X79183925Y-71797942D01*
X79332058Y-71946075D01*
X79506244Y-72062462D01*
X79699788Y-72142630D01*
X79905254Y-72183500D01*
X80114746Y-72183500D01*
X80320212Y-72142630D01*
X80513756Y-72062462D01*
X80687942Y-71946075D01*
X80746502Y-71887515D01*
X80746502Y-72892485D01*
X80687942Y-72833925D01*
X80513756Y-72717538D01*
X80320212Y-72637370D01*
X80114746Y-72596500D01*
X79905254Y-72596500D01*
X79699788Y-72637370D01*
X79506244Y-72717538D01*
X79332058Y-72833925D01*
X79183925Y-72982058D01*
X79067538Y-73156244D01*
X78987370Y-73349788D01*
X78946500Y-73555254D01*
X78946500Y-73764746D01*
X78987370Y-73970212D01*
X79067538Y-74163756D01*
X79183925Y-74337942D01*
X79332058Y-74486075D01*
X79506244Y-74602462D01*
X79699788Y-74682630D01*
X79905254Y-74723500D01*
X80114746Y-74723500D01*
X80320212Y-74682630D01*
X80513756Y-74602462D01*
X80687942Y-74486075D01*
X80746502Y-74427515D01*
X80746502Y-75432485D01*
X80687942Y-75373925D01*
X80513756Y-75257538D01*
X80320212Y-75177370D01*
X80114746Y-75136500D01*
X79905254Y-75136500D01*
X79699788Y-75177370D01*
X79506244Y-75257538D01*
X79332058Y-75373925D01*
X79183925Y-75522058D01*
X79067538Y-75696244D01*
X78987370Y-75889788D01*
X78946500Y-76095254D01*
X78946500Y-76304746D01*
X78987370Y-76510212D01*
X79067538Y-76703756D01*
X79183925Y-76877942D01*
X79332058Y-77026075D01*
X79506244Y-77142462D01*
X79699788Y-77222630D01*
X79905254Y-77263500D01*
X80114746Y-77263500D01*
X80320212Y-77222630D01*
X80513756Y-77142462D01*
X80687942Y-77026075D01*
X80746502Y-76967515D01*
X80746502Y-77972485D01*
X80687942Y-77913925D01*
X80513756Y-77797538D01*
X80320212Y-77717370D01*
X80114746Y-77676500D01*
X79905254Y-77676500D01*
X79699788Y-77717370D01*
X79506244Y-77797538D01*
X79332058Y-77913925D01*
X79183925Y-78062058D01*
X79067538Y-78236244D01*
X78987370Y-78429788D01*
X78946500Y-78635254D01*
X78946500Y-78844746D01*
X78987370Y-79050212D01*
X79067538Y-79243756D01*
X79183925Y-79417942D01*
X79332058Y-79566075D01*
X79506244Y-79682462D01*
X79699788Y-79762630D01*
X79905254Y-79803500D01*
X80114746Y-79803500D01*
X80320212Y-79762630D01*
X80513756Y-79682462D01*
X80687942Y-79566075D01*
X80746502Y-79507515D01*
X80746501Y-80512484D01*
X80687942Y-80453925D01*
X80513756Y-80337538D01*
X80320212Y-80257370D01*
X80114746Y-80216500D01*
X79905254Y-80216500D01*
X79699788Y-80257370D01*
X79506244Y-80337538D01*
X79332058Y-80453925D01*
X79183925Y-80602058D01*
X79067538Y-80776244D01*
X78987370Y-80969788D01*
X78946500Y-81175254D01*
X78946500Y-81384746D01*
X78987370Y-81590212D01*
X79067538Y-81783756D01*
X79183925Y-81957942D01*
X79332058Y-82106075D01*
X79506244Y-82222462D01*
X79699788Y-82302630D01*
X79905254Y-82343500D01*
X80114746Y-82343500D01*
X80320212Y-82302630D01*
X80513756Y-82222462D01*
X80687942Y-82106075D01*
X80746501Y-82047516D01*
X80746501Y-83052484D01*
X80687942Y-82993925D01*
X80513756Y-82877538D01*
X80320212Y-82797370D01*
X80114746Y-82756500D01*
X79905254Y-82756500D01*
X79699788Y-82797370D01*
X79506244Y-82877538D01*
X79332058Y-82993925D01*
X79183925Y-83142058D01*
X79067538Y-83316244D01*
X78987370Y-83509788D01*
X78946500Y-83715254D01*
X78946500Y-83924746D01*
X78987370Y-84130212D01*
X79067538Y-84323756D01*
X79183925Y-84497942D01*
X79332058Y-84646075D01*
X79506244Y-84762462D01*
X79699788Y-84842630D01*
X79905254Y-84883500D01*
X80114746Y-84883500D01*
X80320212Y-84842630D01*
X80513756Y-84762462D01*
X80687942Y-84646075D01*
X80746501Y-84587516D01*
X80746501Y-85210496D01*
X80658826Y-85151672D01*
X80410626Y-85048310D01*
X80200500Y-85144662D01*
X80200500Y-86169500D01*
X80220500Y-86169500D01*
X80220500Y-86550500D01*
X80200500Y-86550500D01*
X80200500Y-87575338D01*
X80410626Y-87671690D01*
X80658826Y-87568328D01*
X80746501Y-87509504D01*
X80746501Y-88132484D01*
X80687942Y-88073925D01*
X80513756Y-87957538D01*
X80320212Y-87877370D01*
X80114746Y-87836500D01*
X79905254Y-87836500D01*
X79699788Y-87877370D01*
X79506244Y-87957538D01*
X79332058Y-88073925D01*
X79183925Y-88222058D01*
X79067538Y-88396244D01*
X78987370Y-88589788D01*
X78946500Y-88795254D01*
X78946500Y-89004746D01*
X78987370Y-89210212D01*
X79067538Y-89403756D01*
X79183925Y-89577942D01*
X79332058Y-89726075D01*
X79506244Y-89842462D01*
X79699788Y-89922630D01*
X79905254Y-89963500D01*
X80114746Y-89963500D01*
X80320212Y-89922630D01*
X80513756Y-89842462D01*
X80687942Y-89726075D01*
X80746501Y-89667516D01*
X80746501Y-90154077D01*
X80435468Y-90465110D01*
X80320212Y-90417370D01*
X80114746Y-90376500D01*
X79905254Y-90376500D01*
X79699788Y-90417370D01*
X79506244Y-90497538D01*
X79332058Y-90613925D01*
X79183925Y-90762058D01*
X79067538Y-90936244D01*
X78987370Y-91129788D01*
X78946500Y-91335254D01*
X78946500Y-91544746D01*
X78987370Y-91750212D01*
X79067538Y-91943756D01*
X79183925Y-92117942D01*
X79332058Y-92266075D01*
X79506244Y-92382462D01*
X79699788Y-92462630D01*
X79905254Y-92503500D01*
X80114746Y-92503500D01*
X80320212Y-92462630D01*
X80513756Y-92382462D01*
X80687942Y-92266075D01*
X80836075Y-92117942D01*
X80952462Y-91943756D01*
X81032630Y-91750212D01*
X81073500Y-91544746D01*
X81073500Y-91335254D01*
X81072521Y-91330330D01*
X81436500Y-91330330D01*
X81436500Y-91549670D01*
X81479291Y-91764796D01*
X81563229Y-91967440D01*
X81685088Y-92149815D01*
X81840185Y-92304912D01*
X82022560Y-92426771D01*
X82225204Y-92510709D01*
X82440330Y-92553500D01*
X82659670Y-92553500D01*
X82874796Y-92510709D01*
X83077440Y-92426771D01*
X83259815Y-92304912D01*
X83414912Y-92149815D01*
X83536771Y-91967440D01*
X83620709Y-91764796D01*
X83663500Y-91549670D01*
X83663500Y-91330330D01*
X83620709Y-91115204D01*
X83536771Y-90912560D01*
X83414912Y-90730185D01*
X83259815Y-90575088D01*
X83077440Y-90453229D01*
X82874796Y-90369291D01*
X82659670Y-90326500D01*
X82440330Y-90326500D01*
X82225204Y-90369291D01*
X82022560Y-90453229D01*
X81840185Y-90575088D01*
X81685088Y-90730185D01*
X81563229Y-90912560D01*
X81479291Y-91115204D01*
X81436500Y-91330330D01*
X81072521Y-91330330D01*
X81032630Y-91129788D01*
X80984890Y-91014532D01*
X81396221Y-90603201D01*
X81411041Y-90591039D01*
X81459589Y-90531882D01*
X81495664Y-90464391D01*
X81517879Y-90391158D01*
X81523501Y-90334077D01*
X81523501Y-90334076D01*
X81525380Y-90314999D01*
X81523501Y-90295921D01*
X81523501Y-89331528D01*
X81563229Y-89427440D01*
X81685088Y-89609815D01*
X81840185Y-89764912D01*
X82022560Y-89886771D01*
X82225204Y-89970709D01*
X82440330Y-90013500D01*
X82659670Y-90013500D01*
X82874796Y-89970709D01*
X83077440Y-89886771D01*
X83259815Y-89764912D01*
X83414912Y-89609815D01*
X83536771Y-89427440D01*
X83620709Y-89224796D01*
X83663500Y-89009670D01*
X83663500Y-88790330D01*
X83620709Y-88575204D01*
X83536771Y-88372560D01*
X83414912Y-88190185D01*
X83259815Y-88035088D01*
X83077440Y-87913229D01*
X82874796Y-87829291D01*
X82659670Y-87786500D01*
X82440330Y-87786500D01*
X82225204Y-87829291D01*
X82022560Y-87913229D01*
X81840185Y-88035088D01*
X81685088Y-88190185D01*
X81563229Y-88372560D01*
X81523501Y-88468472D01*
X81523501Y-87334305D01*
X81651535Y-87461566D01*
X81883704Y-87615681D01*
X82141478Y-87721541D01*
X82359500Y-87625810D01*
X82359500Y-86550500D01*
X82339500Y-86550500D01*
X82339500Y-86169500D01*
X82359500Y-86169500D01*
X82359500Y-85094190D01*
X82141478Y-84998459D01*
X81883704Y-85104319D01*
X81651535Y-85258434D01*
X81523501Y-85385695D01*
X81523501Y-84251528D01*
X81563229Y-84347440D01*
X81685088Y-84529815D01*
X81840185Y-84684912D01*
X82022560Y-84806771D01*
X82225204Y-84890709D01*
X82440330Y-84933500D01*
X82659670Y-84933500D01*
X82874796Y-84890709D01*
X83077440Y-84806771D01*
X83259815Y-84684912D01*
X83414912Y-84529815D01*
X83536771Y-84347440D01*
X83620709Y-84144796D01*
X83663500Y-83929670D01*
X83663500Y-83710330D01*
X83620709Y-83495204D01*
X83536771Y-83292560D01*
X83414912Y-83110185D01*
X83259815Y-82955088D01*
X83077440Y-82833229D01*
X82874796Y-82749291D01*
X82659670Y-82706500D01*
X82440330Y-82706500D01*
X82225204Y-82749291D01*
X82022560Y-82833229D01*
X81840185Y-82955088D01*
X81685088Y-83110185D01*
X81563229Y-83292560D01*
X81523501Y-83388472D01*
X81523501Y-81711528D01*
X81563229Y-81807440D01*
X81685088Y-81989815D01*
X81840185Y-82144912D01*
X82022560Y-82266771D01*
X82225204Y-82350709D01*
X82440330Y-82393500D01*
X82659670Y-82393500D01*
X82874796Y-82350709D01*
X83077440Y-82266771D01*
X83259815Y-82144912D01*
X83414912Y-81989815D01*
X83536771Y-81807440D01*
X83620709Y-81604796D01*
X83663500Y-81389670D01*
X83663500Y-81170330D01*
X83620709Y-80955204D01*
X83536771Y-80752560D01*
X83414912Y-80570185D01*
X83259815Y-80415088D01*
X83077440Y-80293229D01*
X82874796Y-80209291D01*
X82659670Y-80166500D01*
X82440330Y-80166500D01*
X82225204Y-80209291D01*
X82022560Y-80293229D01*
X81840185Y-80415088D01*
X81685088Y-80570185D01*
X81563229Y-80752560D01*
X81523501Y-80848472D01*
X81523501Y-79171528D01*
X81563229Y-79267440D01*
X81685088Y-79449815D01*
X81840185Y-79604912D01*
X82022560Y-79726771D01*
X82225204Y-79810709D01*
X82440330Y-79853500D01*
X82659670Y-79853500D01*
X82874796Y-79810709D01*
X83077440Y-79726771D01*
X83259815Y-79604912D01*
X83414912Y-79449815D01*
X83536771Y-79267440D01*
X83620709Y-79064796D01*
X83663500Y-78849670D01*
X83663500Y-78630330D01*
X83620709Y-78415204D01*
X83536771Y-78212560D01*
X83414912Y-78030185D01*
X83259815Y-77875088D01*
X83077440Y-77753229D01*
X82874796Y-77669291D01*
X82659670Y-77626500D01*
X82440330Y-77626500D01*
X82225204Y-77669291D01*
X82022560Y-77753229D01*
X81840185Y-77875088D01*
X81685088Y-78030185D01*
X81563229Y-78212560D01*
X81523501Y-78308472D01*
X81523501Y-76631528D01*
X81563229Y-76727440D01*
X81685088Y-76909815D01*
X81840185Y-77064912D01*
X82022560Y-77186771D01*
X82225204Y-77270709D01*
X82440330Y-77313500D01*
X82659670Y-77313500D01*
X82874796Y-77270709D01*
X83077440Y-77186771D01*
X83259815Y-77064912D01*
X83414912Y-76909815D01*
X83536771Y-76727440D01*
X83620709Y-76524796D01*
X83663500Y-76309670D01*
X83663500Y-76090330D01*
X83620709Y-75875204D01*
X83536771Y-75672560D01*
X83414912Y-75490185D01*
X83259815Y-75335088D01*
X83077440Y-75213229D01*
X82874796Y-75129291D01*
X82659670Y-75086500D01*
X82440330Y-75086500D01*
X82225204Y-75129291D01*
X82022560Y-75213229D01*
X81840185Y-75335088D01*
X81685088Y-75490185D01*
X81563229Y-75672560D01*
X81523501Y-75768472D01*
X81523501Y-74091528D01*
X81563229Y-74187440D01*
X81685088Y-74369815D01*
X81840185Y-74524912D01*
X82022560Y-74646771D01*
X82225204Y-74730709D01*
X82440330Y-74773500D01*
X82659670Y-74773500D01*
X82874796Y-74730709D01*
X83077440Y-74646771D01*
X83259815Y-74524912D01*
X83414912Y-74369815D01*
X83536771Y-74187440D01*
X83620709Y-73984796D01*
X83663500Y-73769670D01*
X83663500Y-73550330D01*
X83620709Y-73335204D01*
X83536771Y-73132560D01*
X83414912Y-72950185D01*
X83259815Y-72795088D01*
X83077440Y-72673229D01*
X82874796Y-72589291D01*
X82659670Y-72546500D01*
X82440330Y-72546500D01*
X82225204Y-72589291D01*
X82022560Y-72673229D01*
X81840185Y-72795088D01*
X81685088Y-72950185D01*
X81563229Y-73132560D01*
X81523501Y-73228472D01*
X81523501Y-71551528D01*
X81563229Y-71647440D01*
X81685088Y-71829815D01*
X81840185Y-71984912D01*
X82022560Y-72106771D01*
X82225204Y-72190709D01*
X82440330Y-72233500D01*
X82659670Y-72233500D01*
X82874796Y-72190709D01*
X83077440Y-72106771D01*
X83259815Y-71984912D01*
X83414912Y-71829815D01*
X83536771Y-71647440D01*
X83620709Y-71444796D01*
X83663500Y-71229670D01*
X83663500Y-71010330D01*
X83620709Y-70795204D01*
X83536771Y-70592560D01*
X83414912Y-70410185D01*
X83259815Y-70255088D01*
X83077440Y-70133229D01*
X82874796Y-70049291D01*
X82659670Y-70006500D01*
X82440330Y-70006500D01*
X82225204Y-70049291D01*
X82022560Y-70133229D01*
X81840185Y-70255088D01*
X81685088Y-70410185D01*
X81563229Y-70592560D01*
X81523501Y-70688472D01*
X81523501Y-70123420D01*
X82647148Y-68999774D01*
X83306250Y-68999774D01*
X83405458Y-68990003D01*
X83500854Y-68961065D01*
X83588771Y-68914072D01*
X83665831Y-68850831D01*
X83729072Y-68773771D01*
X83770501Y-68696264D01*
X83770501Y-85639837D01*
X83646106Y-85454882D01*
X83448465Y-85258434D01*
X83216296Y-85104319D01*
X82958522Y-84998459D01*
X82740500Y-85094190D01*
X82740500Y-86169500D01*
X82760500Y-86169500D01*
X82760500Y-86550500D01*
X82740500Y-86550500D01*
X82740500Y-87625810D01*
X82958522Y-87721541D01*
X83216296Y-87615681D01*
X83448465Y-87461566D01*
X83646106Y-87265118D01*
X83770501Y-87080163D01*
X83770500Y-122124500D01*
X68629500Y-122124500D01*
X68629500Y-119282667D01*
X72284913Y-119282667D01*
X72288495Y-119294504D01*
X72397275Y-119553953D01*
X72554580Y-119787195D01*
X72754366Y-119985267D01*
X72988955Y-120140556D01*
X73249332Y-120247095D01*
X73469500Y-120151533D01*
X73469500Y-119062500D01*
X72381894Y-119062500D01*
X72284913Y-119282667D01*
X68629500Y-119282667D01*
X68629500Y-118461333D01*
X72284913Y-118461333D01*
X72381894Y-118681500D01*
X73469500Y-118681500D01*
X73469500Y-118661500D01*
X73850500Y-118661500D01*
X73850500Y-118681500D01*
X73870500Y-118681500D01*
X73870500Y-119062500D01*
X73850500Y-119062500D01*
X73850500Y-120151533D01*
X74070668Y-120247095D01*
X74331045Y-120140556D01*
X74565634Y-119985267D01*
X74765420Y-119787195D01*
X74922725Y-119553953D01*
X75031505Y-119294504D01*
X75035087Y-119282667D01*
X74938107Y-119062502D01*
X75088712Y-119062502D01*
X75116213Y-119200763D01*
X75201177Y-119405882D01*
X75324524Y-119590485D01*
X75481515Y-119747476D01*
X75666118Y-119870823D01*
X75871237Y-119955787D01*
X76088990Y-119999100D01*
X76311010Y-119999100D01*
X76528763Y-119955787D01*
X76733882Y-119870823D01*
X76918485Y-119747476D01*
X77075476Y-119590485D01*
X77198823Y-119405882D01*
X77283787Y-119200763D01*
X77327100Y-118983010D01*
X77327100Y-118760990D01*
X77612900Y-118760990D01*
X77612900Y-118983010D01*
X77656213Y-119200763D01*
X77741177Y-119405882D01*
X77864524Y-119590485D01*
X78021515Y-119747476D01*
X78206118Y-119870823D01*
X78411237Y-119955787D01*
X78628990Y-119999100D01*
X78851010Y-119999100D01*
X79068763Y-119955787D01*
X79273882Y-119870823D01*
X79458485Y-119747476D01*
X79615476Y-119590485D01*
X79738823Y-119405882D01*
X79823787Y-119200763D01*
X79867100Y-118983010D01*
X79867100Y-118760990D01*
X79823787Y-118543237D01*
X79738823Y-118338118D01*
X79615476Y-118153515D01*
X79458485Y-117996524D01*
X79273882Y-117873177D01*
X79068763Y-117788213D01*
X78851010Y-117744900D01*
X78628990Y-117744900D01*
X78411237Y-117788213D01*
X78206118Y-117873177D01*
X78021515Y-117996524D01*
X77864524Y-118153515D01*
X77741177Y-118338118D01*
X77656213Y-118543237D01*
X77612900Y-118760990D01*
X77327100Y-118760990D01*
X77283787Y-118543237D01*
X77198823Y-118338118D01*
X77075476Y-118153515D01*
X76918485Y-117996524D01*
X76733882Y-117873177D01*
X76528763Y-117788213D01*
X76311010Y-117744900D01*
X76088990Y-117744900D01*
X75871237Y-117788213D01*
X75666118Y-117873177D01*
X75481515Y-117996524D01*
X75324524Y-118153515D01*
X75201177Y-118338118D01*
X75116213Y-118543237D01*
X75088712Y-118681498D01*
X74938107Y-118681498D01*
X75035087Y-118461333D01*
X75031505Y-118449496D01*
X74922725Y-118190047D01*
X74765420Y-117956805D01*
X74565634Y-117758733D01*
X74331045Y-117603444D01*
X74070668Y-117496905D01*
X73850502Y-117592466D01*
X73850502Y-117443288D01*
X73988763Y-117415787D01*
X74193882Y-117330823D01*
X74378485Y-117207476D01*
X74535476Y-117050485D01*
X74658823Y-116865882D01*
X74743787Y-116660763D01*
X74787100Y-116443010D01*
X74787100Y-116220990D01*
X75072900Y-116220990D01*
X75072900Y-116443010D01*
X75116213Y-116660763D01*
X75201177Y-116865882D01*
X75324524Y-117050485D01*
X75481515Y-117207476D01*
X75666118Y-117330823D01*
X75871237Y-117415787D01*
X76088990Y-117459100D01*
X76311010Y-117459100D01*
X76528763Y-117415787D01*
X76733882Y-117330823D01*
X76918485Y-117207476D01*
X77075476Y-117050485D01*
X77198823Y-116865882D01*
X77283787Y-116660763D01*
X77327100Y-116443010D01*
X77327100Y-116220990D01*
X77283787Y-116003237D01*
X77198823Y-115798118D01*
X77075476Y-115613515D01*
X76930361Y-115468400D01*
X77611626Y-115468400D01*
X77611626Y-117195600D01*
X77616714Y-117247255D01*
X77631781Y-117296925D01*
X77656248Y-117342701D01*
X77689177Y-117382823D01*
X77729299Y-117415752D01*
X77775075Y-117440219D01*
X77824745Y-117455286D01*
X77876400Y-117460374D01*
X79603600Y-117460374D01*
X79655255Y-117455286D01*
X79704925Y-117440219D01*
X79750701Y-117415752D01*
X79790823Y-117382823D01*
X79823752Y-117342701D01*
X79848219Y-117296925D01*
X79863286Y-117247255D01*
X79868374Y-117195600D01*
X79868374Y-115468400D01*
X79863286Y-115416745D01*
X79848219Y-115367075D01*
X79823752Y-115321299D01*
X79790823Y-115281177D01*
X79750701Y-115248248D01*
X79704925Y-115223781D01*
X79655255Y-115208714D01*
X79603600Y-115203626D01*
X77876400Y-115203626D01*
X77824745Y-115208714D01*
X77775075Y-115223781D01*
X77729299Y-115248248D01*
X77689177Y-115281177D01*
X77656248Y-115321299D01*
X77631781Y-115367075D01*
X77616714Y-115416745D01*
X77611626Y-115468400D01*
X76930361Y-115468400D01*
X76918485Y-115456524D01*
X76733882Y-115333177D01*
X76528763Y-115248213D01*
X76311010Y-115204900D01*
X76088990Y-115204900D01*
X75871237Y-115248213D01*
X75666118Y-115333177D01*
X75481515Y-115456524D01*
X75324524Y-115613515D01*
X75201177Y-115798118D01*
X75116213Y-116003237D01*
X75072900Y-116220990D01*
X74787100Y-116220990D01*
X74743787Y-116003237D01*
X74658823Y-115798118D01*
X74535476Y-115613515D01*
X74378485Y-115456524D01*
X74193882Y-115333177D01*
X73988763Y-115248213D01*
X73771010Y-115204900D01*
X73548990Y-115204900D01*
X73331237Y-115248213D01*
X73126118Y-115333177D01*
X72941515Y-115456524D01*
X72784524Y-115613515D01*
X72661177Y-115798118D01*
X72576213Y-116003237D01*
X72532900Y-116220990D01*
X72532900Y-116443010D01*
X72576213Y-116660763D01*
X72661177Y-116865882D01*
X72784524Y-117050485D01*
X72941515Y-117207476D01*
X73126118Y-117330823D01*
X73331237Y-117415787D01*
X73469498Y-117443288D01*
X73469498Y-117592466D01*
X73249332Y-117496905D01*
X72988955Y-117603444D01*
X72754366Y-117758733D01*
X72554580Y-117956805D01*
X72397275Y-118190047D01*
X72288495Y-118449496D01*
X72284913Y-118461333D01*
X68629500Y-118461333D01*
X68629500Y-110899000D01*
X72385735Y-110899000D01*
X72396769Y-111011034D01*
X72429448Y-111118762D01*
X72482516Y-111218045D01*
X72553933Y-111305067D01*
X72640955Y-111376484D01*
X72740238Y-111429552D01*
X72847966Y-111462231D01*
X72960000Y-111473265D01*
X73326625Y-111470500D01*
X73469500Y-111327625D01*
X73469500Y-110602000D01*
X73850500Y-110602000D01*
X73850500Y-111327625D01*
X73993375Y-111470500D01*
X74360000Y-111473265D01*
X74472034Y-111462231D01*
X74579762Y-111429552D01*
X74679045Y-111376484D01*
X74766067Y-111305067D01*
X74837484Y-111218045D01*
X74890552Y-111118762D01*
X74923231Y-111011034D01*
X74934265Y-110899000D01*
X77211735Y-110899000D01*
X77222769Y-111011034D01*
X77255448Y-111118762D01*
X77308516Y-111218045D01*
X77379933Y-111305067D01*
X77466955Y-111376484D01*
X77566238Y-111429552D01*
X77673966Y-111462231D01*
X77786000Y-111473265D01*
X78152625Y-111470500D01*
X78295500Y-111327625D01*
X78295500Y-110602000D01*
X78676500Y-110602000D01*
X78676500Y-111327625D01*
X78819375Y-111470500D01*
X79186000Y-111473265D01*
X79298034Y-111462231D01*
X79405762Y-111429552D01*
X79505045Y-111376484D01*
X79592067Y-111305067D01*
X79663484Y-111218045D01*
X79716552Y-111118762D01*
X79749231Y-111011034D01*
X79760265Y-110899000D01*
X79757500Y-110744875D01*
X79614625Y-110602000D01*
X78676500Y-110602000D01*
X78295500Y-110602000D01*
X77357375Y-110602000D01*
X77214500Y-110744875D01*
X77211735Y-110899000D01*
X74934265Y-110899000D01*
X74931500Y-110744875D01*
X74788625Y-110602000D01*
X73850500Y-110602000D01*
X73469500Y-110602000D01*
X72531375Y-110602000D01*
X72388500Y-110744875D01*
X72385735Y-110899000D01*
X68629500Y-110899000D01*
X68629500Y-110380330D01*
X81436500Y-110380330D01*
X81436500Y-110599670D01*
X81479291Y-110814796D01*
X81563229Y-111017440D01*
X81685088Y-111199815D01*
X81840185Y-111354912D01*
X82022560Y-111476771D01*
X82225204Y-111560709D01*
X82440330Y-111603500D01*
X82659670Y-111603500D01*
X82874796Y-111560709D01*
X83077440Y-111476771D01*
X83259815Y-111354912D01*
X83414912Y-111199815D01*
X83536771Y-111017440D01*
X83620709Y-110814796D01*
X83663500Y-110599670D01*
X83663500Y-110380330D01*
X83620709Y-110165204D01*
X83536771Y-109962560D01*
X83414912Y-109780185D01*
X83259815Y-109625088D01*
X83077440Y-109503229D01*
X82874796Y-109419291D01*
X82659670Y-109376500D01*
X82440330Y-109376500D01*
X82225204Y-109419291D01*
X82022560Y-109503229D01*
X81840185Y-109625088D01*
X81685088Y-109780185D01*
X81563229Y-109962560D01*
X81479291Y-110165204D01*
X81436500Y-110380330D01*
X68629500Y-110380330D01*
X68629500Y-109120179D01*
X70560500Y-109120179D01*
X70560500Y-109319821D01*
X70599448Y-109515627D01*
X70675848Y-109700072D01*
X70786763Y-109866069D01*
X70927931Y-110007237D01*
X71093928Y-110118152D01*
X71278373Y-110194552D01*
X71474179Y-110233500D01*
X71673821Y-110233500D01*
X71869627Y-110194552D01*
X72054072Y-110118152D01*
X72220069Y-110007237D01*
X72361237Y-109866069D01*
X72396662Y-109813051D01*
X72385735Y-109924000D01*
X72388500Y-110078125D01*
X72531375Y-110221000D01*
X73469500Y-110221000D01*
X73469500Y-109495375D01*
X73850500Y-109495375D01*
X73850500Y-110221000D01*
X74788625Y-110221000D01*
X74931500Y-110078125D01*
X74934265Y-109924000D01*
X74923231Y-109811966D01*
X74890552Y-109704238D01*
X74837484Y-109604955D01*
X74766067Y-109517933D01*
X74679045Y-109446516D01*
X74579762Y-109393448D01*
X74472034Y-109360769D01*
X74360000Y-109349735D01*
X73993375Y-109352500D01*
X73850500Y-109495375D01*
X73469500Y-109495375D01*
X73326625Y-109352500D01*
X72960000Y-109349735D01*
X72847966Y-109360769D01*
X72740238Y-109393448D01*
X72640955Y-109446516D01*
X72553933Y-109517933D01*
X72541140Y-109533522D01*
X72548552Y-109515627D01*
X72587500Y-109319821D01*
X72587500Y-109120179D01*
X72548552Y-108924373D01*
X72522923Y-108862500D01*
X72703327Y-108862500D01*
X72704997Y-108879458D01*
X72733935Y-108974854D01*
X72780928Y-109062771D01*
X72844169Y-109139831D01*
X72921229Y-109203072D01*
X73009146Y-109250065D01*
X73104542Y-109279003D01*
X73203750Y-109288774D01*
X74116250Y-109288774D01*
X74215458Y-109279003D01*
X74310854Y-109250065D01*
X74398771Y-109203072D01*
X74475831Y-109139831D01*
X74491958Y-109120179D01*
X75440500Y-109120179D01*
X75440500Y-109319821D01*
X75479448Y-109515627D01*
X75555848Y-109700072D01*
X75666763Y-109866069D01*
X75807931Y-110007237D01*
X75973928Y-110118152D01*
X76158373Y-110194552D01*
X76354179Y-110233500D01*
X76553821Y-110233500D01*
X76749627Y-110194552D01*
X76934072Y-110118152D01*
X77100069Y-110007237D01*
X77214841Y-109892465D01*
X77211735Y-109924000D01*
X77214500Y-110078125D01*
X77357375Y-110221000D01*
X78295500Y-110221000D01*
X78295500Y-109495375D01*
X78676500Y-109495375D01*
X78676500Y-110221000D01*
X79614625Y-110221000D01*
X79757500Y-110078125D01*
X79760265Y-109924000D01*
X79749231Y-109811966D01*
X79716552Y-109704238D01*
X79663484Y-109604955D01*
X79592067Y-109517933D01*
X79505045Y-109446516D01*
X79405762Y-109393448D01*
X79298034Y-109360769D01*
X79186000Y-109349735D01*
X78819375Y-109352500D01*
X78676500Y-109495375D01*
X78295500Y-109495375D01*
X78152625Y-109352500D01*
X77786000Y-109349735D01*
X77673966Y-109360769D01*
X77566238Y-109393448D01*
X77466955Y-109446516D01*
X77437489Y-109470698D01*
X77467500Y-109319821D01*
X77467500Y-109120179D01*
X77428552Y-108924373D01*
X77402923Y-108862500D01*
X77529327Y-108862500D01*
X77530997Y-108879458D01*
X77559935Y-108974854D01*
X77606928Y-109062771D01*
X77670169Y-109139831D01*
X77747229Y-109203072D01*
X77835146Y-109250065D01*
X77930542Y-109279003D01*
X78029750Y-109288774D01*
X78942250Y-109288774D01*
X79041458Y-109279003D01*
X79136854Y-109250065D01*
X79224771Y-109203072D01*
X79301831Y-109139831D01*
X79365072Y-109062771D01*
X79412065Y-108974854D01*
X79441003Y-108879458D01*
X79450774Y-108780250D01*
X79450774Y-108292750D01*
X79441003Y-108193542D01*
X79412065Y-108098146D01*
X79365072Y-108010229D01*
X79301831Y-107933169D01*
X79224771Y-107869928D01*
X79136854Y-107822935D01*
X79041458Y-107793997D01*
X78942250Y-107784226D01*
X78029750Y-107784226D01*
X77930542Y-107793997D01*
X77835146Y-107822935D01*
X77747229Y-107869928D01*
X77670169Y-107933169D01*
X77606928Y-108010229D01*
X77566694Y-108085500D01*
X77219074Y-108085500D01*
X77199999Y-108083621D01*
X77180924Y-108085500D01*
X77180922Y-108085500D01*
X77123841Y-108091122D01*
X77050608Y-108113337D01*
X76983117Y-108149412D01*
X76923960Y-108197960D01*
X76911797Y-108212782D01*
X76841199Y-108283379D01*
X76749627Y-108245448D01*
X76553821Y-108206500D01*
X76354179Y-108206500D01*
X76158373Y-108245448D01*
X75973928Y-108321848D01*
X75807931Y-108432763D01*
X75666763Y-108573931D01*
X75555848Y-108739928D01*
X75479448Y-108924373D01*
X75440500Y-109120179D01*
X74491958Y-109120179D01*
X74539072Y-109062771D01*
X74586065Y-108974854D01*
X74615003Y-108879458D01*
X74624774Y-108780250D01*
X74624774Y-108292750D01*
X74615003Y-108193542D01*
X74586065Y-108098146D01*
X74539072Y-108010229D01*
X74475831Y-107933169D01*
X74398771Y-107869928D01*
X74310854Y-107822935D01*
X74215458Y-107793997D01*
X74116250Y-107784226D01*
X73203750Y-107784226D01*
X73104542Y-107793997D01*
X73009146Y-107822935D01*
X72921229Y-107869928D01*
X72844169Y-107933169D01*
X72780928Y-108010229D01*
X72740694Y-108085500D01*
X72339074Y-108085500D01*
X72319999Y-108083621D01*
X72300924Y-108085500D01*
X72300922Y-108085500D01*
X72243841Y-108091122D01*
X72170608Y-108113337D01*
X72103117Y-108149412D01*
X72043960Y-108197960D01*
X72031797Y-108212782D01*
X71961199Y-108283379D01*
X71869627Y-108245448D01*
X71673821Y-108206500D01*
X71474179Y-108206500D01*
X71278373Y-108245448D01*
X71093928Y-108321848D01*
X70927931Y-108432763D01*
X70786763Y-108573931D01*
X70675848Y-108739928D01*
X70599448Y-108924373D01*
X70560500Y-109120179D01*
X68629500Y-109120179D01*
X68629500Y-89620164D01*
X68753894Y-89805118D01*
X68951535Y-90001566D01*
X69183704Y-90155681D01*
X69441478Y-90261541D01*
X69659500Y-90165810D01*
X69659500Y-89090500D01*
X69639500Y-89090500D01*
X69639500Y-88709500D01*
X69659500Y-88709500D01*
X69659500Y-87634190D01*
X69441478Y-87538459D01*
X69183704Y-87644319D01*
X68951535Y-87798434D01*
X68753894Y-87994882D01*
X68629500Y-88179836D01*
X68629500Y-70270000D01*
X68735226Y-70270000D01*
X68735226Y-71970000D01*
X68740314Y-72021655D01*
X68755381Y-72071325D01*
X68779848Y-72117101D01*
X68812777Y-72157223D01*
X68852899Y-72190152D01*
X68898675Y-72214619D01*
X68948345Y-72229686D01*
X69000000Y-72234774D01*
X70700000Y-72234774D01*
X70751655Y-72229686D01*
X70767792Y-72224791D01*
X70759337Y-72240609D01*
X70737123Y-72313842D01*
X70729621Y-72390000D01*
X70731501Y-72409085D01*
X70731501Y-72975012D01*
X70714912Y-72950185D01*
X70559815Y-72795088D01*
X70377440Y-72673229D01*
X70174796Y-72589291D01*
X69959670Y-72546500D01*
X69740330Y-72546500D01*
X69525204Y-72589291D01*
X69322560Y-72673229D01*
X69140185Y-72795088D01*
X68985088Y-72950185D01*
X68863229Y-73132560D01*
X68779291Y-73335204D01*
X68736500Y-73550330D01*
X68736500Y-73769670D01*
X68779291Y-73984796D01*
X68863229Y-74187440D01*
X68985088Y-74369815D01*
X69140185Y-74524912D01*
X69322560Y-74646771D01*
X69525204Y-74730709D01*
X69740330Y-74773500D01*
X69959670Y-74773500D01*
X70174796Y-74730709D01*
X70377440Y-74646771D01*
X70559815Y-74524912D01*
X70714912Y-74369815D01*
X70731501Y-74344988D01*
X70731501Y-75515012D01*
X70714912Y-75490185D01*
X70559815Y-75335088D01*
X70377440Y-75213229D01*
X70174796Y-75129291D01*
X69959670Y-75086500D01*
X69740330Y-75086500D01*
X69525204Y-75129291D01*
X69322560Y-75213229D01*
X69140185Y-75335088D01*
X68985088Y-75490185D01*
X68863229Y-75672560D01*
X68779291Y-75875204D01*
X68736500Y-76090330D01*
X68736500Y-76309670D01*
X68779291Y-76524796D01*
X68863229Y-76727440D01*
X68985088Y-76909815D01*
X69140185Y-77064912D01*
X69322560Y-77186771D01*
X69525204Y-77270709D01*
X69740330Y-77313500D01*
X69959670Y-77313500D01*
X70174796Y-77270709D01*
X70377440Y-77186771D01*
X70559815Y-77064912D01*
X70714912Y-76909815D01*
X70731501Y-76884988D01*
X70731501Y-78055012D01*
X70714912Y-78030185D01*
X70559815Y-77875088D01*
X70377440Y-77753229D01*
X70174796Y-77669291D01*
X69959670Y-77626500D01*
X69740330Y-77626500D01*
X69525204Y-77669291D01*
X69322560Y-77753229D01*
X69140185Y-77875088D01*
X68985088Y-78030185D01*
X68863229Y-78212560D01*
X68779291Y-78415204D01*
X68736500Y-78630330D01*
X68736500Y-78849670D01*
X68779291Y-79064796D01*
X68863229Y-79267440D01*
X68985088Y-79449815D01*
X69140185Y-79604912D01*
X69322560Y-79726771D01*
X69525204Y-79810709D01*
X69740330Y-79853500D01*
X69959670Y-79853500D01*
X70174796Y-79810709D01*
X70377440Y-79726771D01*
X70559815Y-79604912D01*
X70714912Y-79449815D01*
X70731501Y-79424988D01*
X70731501Y-80595012D01*
X70714912Y-80570185D01*
X70559815Y-80415088D01*
X70377440Y-80293229D01*
X70174796Y-80209291D01*
X69959670Y-80166500D01*
X69740330Y-80166500D01*
X69525204Y-80209291D01*
X69322560Y-80293229D01*
X69140185Y-80415088D01*
X68985088Y-80570185D01*
X68863229Y-80752560D01*
X68779291Y-80955204D01*
X68736500Y-81170330D01*
X68736500Y-81389670D01*
X68779291Y-81604796D01*
X68863229Y-81807440D01*
X68985088Y-81989815D01*
X69140185Y-82144912D01*
X69322560Y-82266771D01*
X69525204Y-82350709D01*
X69740330Y-82393500D01*
X69959670Y-82393500D01*
X70174796Y-82350709D01*
X70377440Y-82266771D01*
X70559815Y-82144912D01*
X70714912Y-81989815D01*
X70731501Y-81964988D01*
X70731501Y-83135012D01*
X70714912Y-83110185D01*
X70559815Y-82955088D01*
X70377440Y-82833229D01*
X70174796Y-82749291D01*
X69959670Y-82706500D01*
X69740330Y-82706500D01*
X69525204Y-82749291D01*
X69322560Y-82833229D01*
X69140185Y-82955088D01*
X68985088Y-83110185D01*
X68863229Y-83292560D01*
X68779291Y-83495204D01*
X68736500Y-83710330D01*
X68736500Y-83929670D01*
X68779291Y-84144796D01*
X68863229Y-84347440D01*
X68985088Y-84529815D01*
X69140185Y-84684912D01*
X69322560Y-84806771D01*
X69525204Y-84890709D01*
X69740330Y-84933500D01*
X69959670Y-84933500D01*
X70174796Y-84890709D01*
X70377440Y-84806771D01*
X70559815Y-84684912D01*
X70714912Y-84529815D01*
X70731501Y-84504988D01*
X70731501Y-85675012D01*
X70714912Y-85650185D01*
X70559815Y-85495088D01*
X70377440Y-85373229D01*
X70174796Y-85289291D01*
X69959670Y-85246500D01*
X69740330Y-85246500D01*
X69525204Y-85289291D01*
X69322560Y-85373229D01*
X69140185Y-85495088D01*
X68985088Y-85650185D01*
X68863229Y-85832560D01*
X68779291Y-86035204D01*
X68736500Y-86250330D01*
X68736500Y-86469670D01*
X68779291Y-86684796D01*
X68863229Y-86887440D01*
X68985088Y-87069815D01*
X69140185Y-87224912D01*
X69322560Y-87346771D01*
X69525204Y-87430709D01*
X69740330Y-87473500D01*
X69959670Y-87473500D01*
X70174796Y-87430709D01*
X70377440Y-87346771D01*
X70559815Y-87224912D01*
X70714912Y-87069815D01*
X70731501Y-87044988D01*
X70731501Y-87787173D01*
X70516296Y-87644319D01*
X70258522Y-87538459D01*
X70040500Y-87634190D01*
X70040500Y-88709500D01*
X70060500Y-88709500D01*
X70060500Y-89090500D01*
X70040500Y-89090500D01*
X70040500Y-90165810D01*
X70258522Y-90261541D01*
X70516296Y-90155681D01*
X70731500Y-90012827D01*
X70731500Y-90755011D01*
X70714912Y-90730185D01*
X70559815Y-90575088D01*
X70377440Y-90453229D01*
X70174796Y-90369291D01*
X69959670Y-90326500D01*
X69740330Y-90326500D01*
X69525204Y-90369291D01*
X69322560Y-90453229D01*
X69140185Y-90575088D01*
X68985088Y-90730185D01*
X68863229Y-90912560D01*
X68779291Y-91115204D01*
X68736500Y-91330330D01*
X68736500Y-91549670D01*
X68779291Y-91764796D01*
X68863229Y-91967440D01*
X68985088Y-92149815D01*
X69140185Y-92304912D01*
X69322560Y-92426771D01*
X69525204Y-92510709D01*
X69740330Y-92553500D01*
X69959670Y-92553500D01*
X70174796Y-92510709D01*
X70377440Y-92426771D01*
X70559815Y-92304912D01*
X70714912Y-92149815D01*
X70731500Y-92124989D01*
X70731500Y-93295011D01*
X70714912Y-93270185D01*
X70559815Y-93115088D01*
X70377440Y-92993229D01*
X70174796Y-92909291D01*
X69959670Y-92866500D01*
X69740330Y-92866500D01*
X69525204Y-92909291D01*
X69322560Y-92993229D01*
X69140185Y-93115088D01*
X68985088Y-93270185D01*
X68863229Y-93452560D01*
X68779291Y-93655204D01*
X68736500Y-93870330D01*
X68736500Y-94089670D01*
X68779291Y-94304796D01*
X68863229Y-94507440D01*
X68985088Y-94689815D01*
X69140185Y-94844912D01*
X69322560Y-94966771D01*
X69525204Y-95050709D01*
X69740330Y-95093500D01*
X69959670Y-95093500D01*
X70174796Y-95050709D01*
X70377440Y-94966771D01*
X70559815Y-94844912D01*
X70714912Y-94689815D01*
X70731500Y-94664989D01*
X70731500Y-95835011D01*
X70714912Y-95810185D01*
X70559815Y-95655088D01*
X70377440Y-95533229D01*
X70174796Y-95449291D01*
X69959670Y-95406500D01*
X69740330Y-95406500D01*
X69525204Y-95449291D01*
X69322560Y-95533229D01*
X69140185Y-95655088D01*
X68985088Y-95810185D01*
X68863229Y-95992560D01*
X68779291Y-96195204D01*
X68736500Y-96410330D01*
X68736500Y-96629670D01*
X68779291Y-96844796D01*
X68863229Y-97047440D01*
X68985088Y-97229815D01*
X69140185Y-97384912D01*
X69322560Y-97506771D01*
X69525204Y-97590709D01*
X69740330Y-97633500D01*
X69959670Y-97633500D01*
X70174796Y-97590709D01*
X70377440Y-97506771D01*
X70559815Y-97384912D01*
X70714912Y-97229815D01*
X70731500Y-97204989D01*
X70731500Y-98375011D01*
X70714912Y-98350185D01*
X70559815Y-98195088D01*
X70377440Y-98073229D01*
X70174796Y-97989291D01*
X69959670Y-97946500D01*
X69740330Y-97946500D01*
X69525204Y-97989291D01*
X69322560Y-98073229D01*
X69140185Y-98195088D01*
X68985088Y-98350185D01*
X68863229Y-98532560D01*
X68779291Y-98735204D01*
X68736500Y-98950330D01*
X68736500Y-99169670D01*
X68779291Y-99384796D01*
X68863229Y-99587440D01*
X68985088Y-99769815D01*
X69140185Y-99924912D01*
X69322560Y-100046771D01*
X69525204Y-100130709D01*
X69740330Y-100173500D01*
X69959670Y-100173500D01*
X70174796Y-100130709D01*
X70377440Y-100046771D01*
X70559815Y-99924912D01*
X70714912Y-99769815D01*
X70731500Y-99744989D01*
X70731500Y-100915011D01*
X70714912Y-100890185D01*
X70559815Y-100735088D01*
X70377440Y-100613229D01*
X70174796Y-100529291D01*
X69959670Y-100486500D01*
X69740330Y-100486500D01*
X69525204Y-100529291D01*
X69322560Y-100613229D01*
X69140185Y-100735088D01*
X68985088Y-100890185D01*
X68863229Y-101072560D01*
X68779291Y-101275204D01*
X68736500Y-101490330D01*
X68736500Y-101709670D01*
X68779291Y-101924796D01*
X68863229Y-102127440D01*
X68985088Y-102309815D01*
X69140185Y-102464912D01*
X69322560Y-102586771D01*
X69525204Y-102670709D01*
X69740330Y-102713500D01*
X69959670Y-102713500D01*
X70174796Y-102670709D01*
X70377440Y-102586771D01*
X70559815Y-102464912D01*
X70714912Y-102309815D01*
X70731500Y-102284989D01*
X70731500Y-103455011D01*
X70714912Y-103430185D01*
X70559815Y-103275088D01*
X70377440Y-103153229D01*
X70174796Y-103069291D01*
X69959670Y-103026500D01*
X69740330Y-103026500D01*
X69525204Y-103069291D01*
X69322560Y-103153229D01*
X69140185Y-103275088D01*
X68985088Y-103430185D01*
X68863229Y-103612560D01*
X68779291Y-103815204D01*
X68736500Y-104030330D01*
X68736500Y-104249670D01*
X68779291Y-104464796D01*
X68863229Y-104667440D01*
X68985088Y-104849815D01*
X69140185Y-105004912D01*
X69322560Y-105126771D01*
X69525204Y-105210709D01*
X69740330Y-105253500D01*
X69959670Y-105253500D01*
X70174796Y-105210709D01*
X70377440Y-105126771D01*
X70559815Y-105004912D01*
X70714912Y-104849815D01*
X70731500Y-104824989D01*
X70731500Y-105382590D01*
X70682301Y-105431789D01*
X70620632Y-105524082D01*
X70578155Y-105626633D01*
X70556500Y-105735500D01*
X70556500Y-105846500D01*
X70578155Y-105955367D01*
X70620632Y-106057918D01*
X70682301Y-106150211D01*
X70760789Y-106228699D01*
X70853082Y-106290368D01*
X70955633Y-106332845D01*
X71064500Y-106354500D01*
X71175500Y-106354500D01*
X71284367Y-106332845D01*
X71386918Y-106290368D01*
X71479211Y-106228699D01*
X71557699Y-106150211D01*
X71619368Y-106057918D01*
X71661845Y-105955367D01*
X71683500Y-105846500D01*
X71683500Y-105735500D01*
X71661845Y-105626633D01*
X71619368Y-105524082D01*
X71557699Y-105431789D01*
X71508500Y-105382590D01*
X71508500Y-104734992D01*
X71563925Y-104817942D01*
X71712058Y-104966075D01*
X71886244Y-105082462D01*
X72079788Y-105162630D01*
X72285254Y-105203500D01*
X72494746Y-105203500D01*
X72700212Y-105162630D01*
X72893756Y-105082462D01*
X73067942Y-104966075D01*
X73216075Y-104817942D01*
X73332462Y-104643756D01*
X73412630Y-104450212D01*
X73453500Y-104244746D01*
X73453500Y-104035254D01*
X73412630Y-103829788D01*
X73332462Y-103636244D01*
X73216075Y-103462058D01*
X73067942Y-103313925D01*
X72893756Y-103197538D01*
X72700212Y-103117370D01*
X72494746Y-103076500D01*
X72285254Y-103076500D01*
X72079788Y-103117370D01*
X71886244Y-103197538D01*
X71712058Y-103313925D01*
X71563925Y-103462058D01*
X71508500Y-103545008D01*
X71508500Y-102194992D01*
X71563925Y-102277942D01*
X71712058Y-102426075D01*
X71886244Y-102542462D01*
X72079788Y-102622630D01*
X72285254Y-102663500D01*
X72494746Y-102663500D01*
X72700212Y-102622630D01*
X72893756Y-102542462D01*
X73067942Y-102426075D01*
X73216075Y-102277942D01*
X73332462Y-102103756D01*
X73412630Y-101910212D01*
X73453500Y-101704746D01*
X73453500Y-101495254D01*
X73412630Y-101289788D01*
X73332462Y-101096244D01*
X73216075Y-100922058D01*
X73067942Y-100773925D01*
X72893756Y-100657538D01*
X72700212Y-100577370D01*
X72494746Y-100536500D01*
X72285254Y-100536500D01*
X72079788Y-100577370D01*
X71886244Y-100657538D01*
X71712058Y-100773925D01*
X71563925Y-100922058D01*
X71508500Y-101005008D01*
X71508500Y-99654992D01*
X71563925Y-99737942D01*
X71712058Y-99886075D01*
X71886244Y-100002462D01*
X72079788Y-100082630D01*
X72285254Y-100123500D01*
X72494746Y-100123500D01*
X72700212Y-100082630D01*
X72893756Y-100002462D01*
X73067942Y-99886075D01*
X73216075Y-99737942D01*
X73332462Y-99563756D01*
X73412630Y-99370212D01*
X73453500Y-99164746D01*
X73453500Y-98955254D01*
X73412630Y-98749788D01*
X73332462Y-98556244D01*
X73216075Y-98382058D01*
X73077767Y-98243750D01*
X74410226Y-98243750D01*
X74410226Y-99156250D01*
X74419997Y-99255458D01*
X74448935Y-99350854D01*
X74495928Y-99438771D01*
X74559169Y-99515831D01*
X74636229Y-99579072D01*
X74724146Y-99626065D01*
X74819542Y-99655003D01*
X74918750Y-99664774D01*
X75406250Y-99664774D01*
X75411501Y-99664257D01*
X75411500Y-99991590D01*
X75362301Y-100040789D01*
X75300632Y-100133082D01*
X75258155Y-100235633D01*
X75236500Y-100344500D01*
X75236500Y-100455500D01*
X75258155Y-100564367D01*
X75300632Y-100666918D01*
X75362301Y-100759211D01*
X75440789Y-100837699D01*
X75533082Y-100899368D01*
X75635633Y-100941845D01*
X75744500Y-100963500D01*
X75855500Y-100963500D01*
X75964367Y-100941845D01*
X76066918Y-100899368D01*
X76159211Y-100837699D01*
X76237699Y-100759211D01*
X76299368Y-100666918D01*
X76341845Y-100564367D01*
X76363500Y-100455500D01*
X76363500Y-100344500D01*
X76341845Y-100235633D01*
X76299368Y-100133082D01*
X76237699Y-100040789D01*
X76188500Y-99991590D01*
X76188500Y-99356574D01*
X76190379Y-99337499D01*
X76188500Y-99318422D01*
X76182878Y-99261341D01*
X76160663Y-99188108D01*
X76150808Y-99169670D01*
X76124588Y-99120616D01*
X76088201Y-99076279D01*
X76076040Y-99061460D01*
X76061218Y-99049297D01*
X75914774Y-98902852D01*
X75914774Y-98243750D01*
X75905003Y-98144542D01*
X75876065Y-98049146D01*
X75829072Y-97961229D01*
X75765831Y-97884169D01*
X75688771Y-97820928D01*
X75600854Y-97773935D01*
X75505458Y-97744997D01*
X75406250Y-97735226D01*
X74918750Y-97735226D01*
X74819542Y-97744997D01*
X74724146Y-97773935D01*
X74636229Y-97820928D01*
X74559169Y-97884169D01*
X74495928Y-97961229D01*
X74448935Y-98049146D01*
X74419997Y-98144542D01*
X74410226Y-98243750D01*
X73077767Y-98243750D01*
X73067942Y-98233925D01*
X72893756Y-98117538D01*
X72700212Y-98037370D01*
X72494746Y-97996500D01*
X72285254Y-97996500D01*
X72079788Y-98037370D01*
X71886244Y-98117538D01*
X71712058Y-98233925D01*
X71563925Y-98382058D01*
X71508500Y-98465008D01*
X71508500Y-97114992D01*
X71563925Y-97197942D01*
X71712058Y-97346075D01*
X71886244Y-97462462D01*
X72079788Y-97542630D01*
X72285254Y-97583500D01*
X72494746Y-97583500D01*
X72700212Y-97542630D01*
X72893756Y-97462462D01*
X73067942Y-97346075D01*
X73216075Y-97197942D01*
X73332462Y-97023756D01*
X73412630Y-96830212D01*
X73453500Y-96624746D01*
X73453500Y-96415254D01*
X73412630Y-96209788D01*
X73332462Y-96016244D01*
X73216075Y-95842058D01*
X73067942Y-95693925D01*
X72893756Y-95577538D01*
X72700212Y-95497370D01*
X72494746Y-95456500D01*
X72285254Y-95456500D01*
X72079788Y-95497370D01*
X71886244Y-95577538D01*
X71712058Y-95693925D01*
X71563925Y-95842058D01*
X71508500Y-95925008D01*
X71508500Y-95243750D01*
X74447726Y-95243750D01*
X74447726Y-96156250D01*
X74457497Y-96255458D01*
X74486435Y-96350854D01*
X74533428Y-96438771D01*
X74596669Y-96515831D01*
X74673729Y-96579072D01*
X74761646Y-96626065D01*
X74857042Y-96655003D01*
X74956250Y-96664774D01*
X75443750Y-96664774D01*
X75542958Y-96655003D01*
X75638354Y-96626065D01*
X75726271Y-96579072D01*
X75803331Y-96515831D01*
X75866572Y-96438771D01*
X75913565Y-96350854D01*
X75942503Y-96255458D01*
X75952274Y-96156250D01*
X75952274Y-95497148D01*
X76344522Y-95104900D01*
X76332497Y-95144542D01*
X76322726Y-95243750D01*
X76322726Y-96156250D01*
X76332497Y-96255458D01*
X76361435Y-96350854D01*
X76408428Y-96438771D01*
X76471669Y-96515831D01*
X76548729Y-96579072D01*
X76611500Y-96612624D01*
X76611501Y-97770187D01*
X76599146Y-97773935D01*
X76511229Y-97820928D01*
X76434169Y-97884169D01*
X76370928Y-97961229D01*
X76323935Y-98049146D01*
X76294997Y-98144542D01*
X76285226Y-98243750D01*
X76285226Y-99156250D01*
X76294997Y-99255458D01*
X76323935Y-99350854D01*
X76370928Y-99438771D01*
X76434169Y-99515831D01*
X76511229Y-99579072D01*
X76574001Y-99612625D01*
X76574000Y-103664747D01*
X76571759Y-103687500D01*
X76574000Y-103710253D01*
X76574000Y-103710263D01*
X76580707Y-103778361D01*
X76596307Y-103829788D01*
X76607210Y-103865731D01*
X76650250Y-103946252D01*
X76692377Y-103997584D01*
X76708171Y-104016829D01*
X76725854Y-104031341D01*
X80956163Y-108261651D01*
X80970671Y-108279329D01*
X80988349Y-108293837D01*
X80988352Y-108293840D01*
X81041247Y-108337250D01*
X81084287Y-108360255D01*
X81121768Y-108380290D01*
X81209138Y-108406793D01*
X81277236Y-108413500D01*
X81277245Y-108413500D01*
X81299999Y-108415741D01*
X81322753Y-108413500D01*
X81435226Y-108413500D01*
X81435226Y-108800000D01*
X81440314Y-108851655D01*
X81455381Y-108901325D01*
X81479848Y-108947101D01*
X81512777Y-108987223D01*
X81552899Y-109020152D01*
X81598675Y-109044619D01*
X81648345Y-109059686D01*
X81700000Y-109064774D01*
X83400000Y-109064774D01*
X83451655Y-109059686D01*
X83501325Y-109044619D01*
X83547101Y-109020152D01*
X83587223Y-108987223D01*
X83620152Y-108947101D01*
X83644619Y-108901325D01*
X83659686Y-108851655D01*
X83664774Y-108800000D01*
X83664774Y-107100000D01*
X83659686Y-107048345D01*
X83644619Y-106998675D01*
X83620152Y-106952899D01*
X83587223Y-106912777D01*
X83547101Y-106879848D01*
X83501325Y-106855381D01*
X83451655Y-106840314D01*
X83400000Y-106835226D01*
X81700000Y-106835226D01*
X81648345Y-106840314D01*
X81598675Y-106855381D01*
X81552899Y-106879848D01*
X81512777Y-106912777D01*
X81479848Y-106952899D01*
X81455381Y-106998675D01*
X81440314Y-107048345D01*
X81435226Y-107100000D01*
X81435226Y-107429738D01*
X77501000Y-103495513D01*
X77501000Y-99612624D01*
X77563771Y-99579072D01*
X77640831Y-99515831D01*
X77704072Y-99438771D01*
X77751065Y-99350854D01*
X77780003Y-99255458D01*
X77789774Y-99156250D01*
X77789774Y-98955254D01*
X78946500Y-98955254D01*
X78946500Y-99164746D01*
X78987370Y-99370212D01*
X79067538Y-99563756D01*
X79183925Y-99737942D01*
X79332058Y-99886075D01*
X79506244Y-100002462D01*
X79699788Y-100082630D01*
X79905254Y-100123500D01*
X80114746Y-100123500D01*
X80320212Y-100082630D01*
X80435468Y-100034890D01*
X80764500Y-100363922D01*
X80764500Y-100666077D01*
X80764501Y-100666087D01*
X80764501Y-100850484D01*
X80687942Y-100773925D01*
X80513756Y-100657538D01*
X80320212Y-100577370D01*
X80114746Y-100536500D01*
X79905254Y-100536500D01*
X79699788Y-100577370D01*
X79506244Y-100657538D01*
X79332058Y-100773925D01*
X79183925Y-100922058D01*
X79067538Y-101096244D01*
X78987370Y-101289788D01*
X78946500Y-101495254D01*
X78946500Y-101704746D01*
X78987370Y-101910212D01*
X79067538Y-102103756D01*
X79183925Y-102277942D01*
X79332058Y-102426075D01*
X79506244Y-102542462D01*
X79699788Y-102622630D01*
X79905254Y-102663500D01*
X80114746Y-102663500D01*
X80320212Y-102622630D01*
X80513756Y-102542462D01*
X80687942Y-102426075D01*
X80764501Y-102349516D01*
X80764500Y-103390483D01*
X80687942Y-103313925D01*
X80513756Y-103197538D01*
X80320212Y-103117370D01*
X80114746Y-103076500D01*
X79905254Y-103076500D01*
X79699788Y-103117370D01*
X79506244Y-103197538D01*
X79332058Y-103313925D01*
X79183925Y-103462058D01*
X79067538Y-103636244D01*
X78987370Y-103829788D01*
X78946500Y-104035254D01*
X78946500Y-104244746D01*
X78987370Y-104450212D01*
X79067538Y-104643756D01*
X79183925Y-104817942D01*
X79332058Y-104966075D01*
X79506244Y-105082462D01*
X79699788Y-105162630D01*
X79905254Y-105203500D01*
X80114746Y-105203500D01*
X80320212Y-105162630D01*
X80513756Y-105082462D01*
X80687942Y-104966075D01*
X80764500Y-104889517D01*
X80764500Y-105382590D01*
X80715301Y-105431789D01*
X80653632Y-105524082D01*
X80611155Y-105626633D01*
X80589500Y-105735500D01*
X80589500Y-105846500D01*
X80611155Y-105955367D01*
X80653632Y-106057918D01*
X80715301Y-106150211D01*
X80793789Y-106228699D01*
X80886082Y-106290368D01*
X80988633Y-106332845D01*
X81097500Y-106354500D01*
X81208500Y-106354500D01*
X81317367Y-106332845D01*
X81419918Y-106290368D01*
X81512211Y-106228699D01*
X81590699Y-106150211D01*
X81652368Y-106057918D01*
X81694845Y-105955367D01*
X81716500Y-105846500D01*
X81716500Y-105735500D01*
X81694845Y-105626633D01*
X81652368Y-105524082D01*
X81590699Y-105431789D01*
X81541500Y-105382590D01*
X81541500Y-105200797D01*
X81552899Y-105210152D01*
X81598675Y-105234619D01*
X81648345Y-105249686D01*
X81700000Y-105254774D01*
X83400000Y-105254774D01*
X83451655Y-105249686D01*
X83501325Y-105234619D01*
X83547101Y-105210152D01*
X83587223Y-105177223D01*
X83620152Y-105137101D01*
X83644619Y-105091325D01*
X83659686Y-105041655D01*
X83664774Y-104990000D01*
X83664774Y-103290000D01*
X83659686Y-103238345D01*
X83644619Y-103188675D01*
X83620152Y-103142899D01*
X83587223Y-103102777D01*
X83547101Y-103069848D01*
X83501325Y-103045381D01*
X83451655Y-103030314D01*
X83400000Y-103025226D01*
X81700000Y-103025226D01*
X81648345Y-103030314D01*
X81598675Y-103045381D01*
X81552899Y-103069848D01*
X81541500Y-103079203D01*
X81541500Y-102074982D01*
X81563229Y-102127440D01*
X81685088Y-102309815D01*
X81840185Y-102464912D01*
X82022560Y-102586771D01*
X82225204Y-102670709D01*
X82440330Y-102713500D01*
X82659670Y-102713500D01*
X82874796Y-102670709D01*
X83077440Y-102586771D01*
X83259815Y-102464912D01*
X83414912Y-102309815D01*
X83536771Y-102127440D01*
X83620709Y-101924796D01*
X83663500Y-101709670D01*
X83663500Y-101490330D01*
X83620709Y-101275204D01*
X83536771Y-101072560D01*
X83414912Y-100890185D01*
X83259815Y-100735088D01*
X83077440Y-100613229D01*
X82874796Y-100529291D01*
X82659670Y-100486500D01*
X82440330Y-100486500D01*
X82225204Y-100529291D01*
X82022560Y-100613229D01*
X81840185Y-100735088D01*
X81685088Y-100890185D01*
X81563229Y-101072560D01*
X81541500Y-101125018D01*
X81541500Y-100222074D01*
X81543379Y-100202999D01*
X81541208Y-100180960D01*
X81535878Y-100126841D01*
X81513663Y-100053608D01*
X81477589Y-99986118D01*
X81477588Y-99986116D01*
X81441201Y-99941779D01*
X81429040Y-99926960D01*
X81414220Y-99914798D01*
X80984890Y-99485468D01*
X81032630Y-99370212D01*
X81073500Y-99164746D01*
X81073500Y-98955254D01*
X81072521Y-98950330D01*
X81436500Y-98950330D01*
X81436500Y-99169670D01*
X81479291Y-99384796D01*
X81563229Y-99587440D01*
X81685088Y-99769815D01*
X81840185Y-99924912D01*
X82022560Y-100046771D01*
X82225204Y-100130709D01*
X82440330Y-100173500D01*
X82659670Y-100173500D01*
X82874796Y-100130709D01*
X83077440Y-100046771D01*
X83259815Y-99924912D01*
X83414912Y-99769815D01*
X83536771Y-99587440D01*
X83620709Y-99384796D01*
X83663500Y-99169670D01*
X83663500Y-98950330D01*
X83620709Y-98735204D01*
X83536771Y-98532560D01*
X83414912Y-98350185D01*
X83259815Y-98195088D01*
X83077440Y-98073229D01*
X82874796Y-97989291D01*
X82659670Y-97946500D01*
X82440330Y-97946500D01*
X82225204Y-97989291D01*
X82022560Y-98073229D01*
X81840185Y-98195088D01*
X81685088Y-98350185D01*
X81563229Y-98532560D01*
X81479291Y-98735204D01*
X81436500Y-98950330D01*
X81072521Y-98950330D01*
X81032630Y-98749788D01*
X80952462Y-98556244D01*
X80836075Y-98382058D01*
X80687942Y-98233925D01*
X80513756Y-98117538D01*
X80320212Y-98037370D01*
X80114746Y-97996500D01*
X79905254Y-97996500D01*
X79699788Y-98037370D01*
X79506244Y-98117538D01*
X79332058Y-98233925D01*
X79183925Y-98382058D01*
X79067538Y-98556244D01*
X78987370Y-98749788D01*
X78946500Y-98955254D01*
X77789774Y-98955254D01*
X77789774Y-98243750D01*
X77780003Y-98144542D01*
X77751065Y-98049146D01*
X77704072Y-97961229D01*
X77640831Y-97884169D01*
X77563771Y-97820928D01*
X77538500Y-97807420D01*
X77538500Y-96612624D01*
X77601271Y-96579072D01*
X77678331Y-96515831D01*
X77741572Y-96438771D01*
X77754142Y-96415254D01*
X78946500Y-96415254D01*
X78946500Y-96624746D01*
X78987370Y-96830212D01*
X79067538Y-97023756D01*
X79183925Y-97197942D01*
X79332058Y-97346075D01*
X79506244Y-97462462D01*
X79699788Y-97542630D01*
X79905254Y-97583500D01*
X80114746Y-97583500D01*
X80320212Y-97542630D01*
X80513756Y-97462462D01*
X80687942Y-97346075D01*
X80836075Y-97197942D01*
X80952462Y-97023756D01*
X81032630Y-96830212D01*
X81073500Y-96624746D01*
X81073500Y-96415254D01*
X81072521Y-96410330D01*
X81436500Y-96410330D01*
X81436500Y-96629670D01*
X81479291Y-96844796D01*
X81563229Y-97047440D01*
X81685088Y-97229815D01*
X81840185Y-97384912D01*
X82022560Y-97506771D01*
X82225204Y-97590709D01*
X82440330Y-97633500D01*
X82659670Y-97633500D01*
X82874796Y-97590709D01*
X83077440Y-97506771D01*
X83259815Y-97384912D01*
X83414912Y-97229815D01*
X83536771Y-97047440D01*
X83620709Y-96844796D01*
X83663500Y-96629670D01*
X83663500Y-96410330D01*
X83620709Y-96195204D01*
X83536771Y-95992560D01*
X83414912Y-95810185D01*
X83259815Y-95655088D01*
X83077440Y-95533229D01*
X82874796Y-95449291D01*
X82659670Y-95406500D01*
X82440330Y-95406500D01*
X82225204Y-95449291D01*
X82022560Y-95533229D01*
X81840185Y-95655088D01*
X81685088Y-95810185D01*
X81563229Y-95992560D01*
X81479291Y-96195204D01*
X81436500Y-96410330D01*
X81072521Y-96410330D01*
X81032630Y-96209788D01*
X80952462Y-96016244D01*
X80836075Y-95842058D01*
X80687942Y-95693925D01*
X80513756Y-95577538D01*
X80320212Y-95497370D01*
X80114746Y-95456500D01*
X79905254Y-95456500D01*
X79699788Y-95497370D01*
X79506244Y-95577538D01*
X79332058Y-95693925D01*
X79183925Y-95842058D01*
X79067538Y-96016244D01*
X78987370Y-96209788D01*
X78946500Y-96415254D01*
X77754142Y-96415254D01*
X77788565Y-96350854D01*
X77817503Y-96255458D01*
X77827274Y-96156250D01*
X77827274Y-95243750D01*
X77817503Y-95144542D01*
X77788565Y-95049146D01*
X77741572Y-94961229D01*
X77678331Y-94884169D01*
X77663500Y-94871998D01*
X77663500Y-94020598D01*
X77699368Y-93966918D01*
X77737335Y-93875254D01*
X78946500Y-93875254D01*
X78946500Y-94084746D01*
X78987370Y-94290212D01*
X79067538Y-94483756D01*
X79183925Y-94657942D01*
X79332058Y-94806075D01*
X79506244Y-94922462D01*
X79699788Y-95002630D01*
X79905254Y-95043500D01*
X80114746Y-95043500D01*
X80320212Y-95002630D01*
X80513756Y-94922462D01*
X80687942Y-94806075D01*
X80836075Y-94657942D01*
X80952462Y-94483756D01*
X81032630Y-94290212D01*
X81073500Y-94084746D01*
X81073500Y-93875254D01*
X81072521Y-93870330D01*
X81436500Y-93870330D01*
X81436500Y-94089670D01*
X81479291Y-94304796D01*
X81563229Y-94507440D01*
X81685088Y-94689815D01*
X81840185Y-94844912D01*
X82022560Y-94966771D01*
X82225204Y-95050709D01*
X82440330Y-95093500D01*
X82659670Y-95093500D01*
X82874796Y-95050709D01*
X83077440Y-94966771D01*
X83259815Y-94844912D01*
X83414912Y-94689815D01*
X83536771Y-94507440D01*
X83620709Y-94304796D01*
X83663500Y-94089670D01*
X83663500Y-93870330D01*
X83620709Y-93655204D01*
X83536771Y-93452560D01*
X83414912Y-93270185D01*
X83259815Y-93115088D01*
X83077440Y-92993229D01*
X82874796Y-92909291D01*
X82659670Y-92866500D01*
X82440330Y-92866500D01*
X82225204Y-92909291D01*
X82022560Y-92993229D01*
X81840185Y-93115088D01*
X81685088Y-93270185D01*
X81563229Y-93452560D01*
X81479291Y-93655204D01*
X81436500Y-93870330D01*
X81072521Y-93870330D01*
X81032630Y-93669788D01*
X80952462Y-93476244D01*
X80836075Y-93302058D01*
X80687942Y-93153925D01*
X80513756Y-93037538D01*
X80320212Y-92957370D01*
X80114746Y-92916500D01*
X79905254Y-92916500D01*
X79699788Y-92957370D01*
X79506244Y-93037538D01*
X79332058Y-93153925D01*
X79183925Y-93302058D01*
X79067538Y-93476244D01*
X78987370Y-93669788D01*
X78946500Y-93875254D01*
X77737335Y-93875254D01*
X77741845Y-93864367D01*
X77763500Y-93755500D01*
X77763500Y-93644500D01*
X77741845Y-93535633D01*
X77699368Y-93433082D01*
X77637699Y-93340789D01*
X77559211Y-93262301D01*
X77466918Y-93200632D01*
X77364367Y-93158155D01*
X77255500Y-93136500D01*
X77144500Y-93136500D01*
X77035633Y-93158155D01*
X76933082Y-93200632D01*
X76840789Y-93262301D01*
X76762301Y-93340789D01*
X76700632Y-93433082D01*
X76658155Y-93535633D01*
X76636500Y-93644500D01*
X76636500Y-93755500D01*
X76658155Y-93864367D01*
X76700632Y-93966918D01*
X76736500Y-94020598D01*
X76736501Y-94744558D01*
X76732042Y-94744997D01*
X76636646Y-94773935D01*
X76548729Y-94820928D01*
X76483005Y-94874866D01*
X76488500Y-94819078D01*
X76488500Y-94819076D01*
X76490379Y-94800001D01*
X76488500Y-94780926D01*
X76488500Y-86808410D01*
X76537699Y-86759211D01*
X76599368Y-86666918D01*
X76641845Y-86564367D01*
X76663500Y-86455500D01*
X76663500Y-86344500D01*
X76641845Y-86235633D01*
X76599368Y-86133082D01*
X76537699Y-86040789D01*
X76459211Y-85962301D01*
X76366918Y-85900632D01*
X76264367Y-85858155D01*
X76155500Y-85836500D01*
X76044500Y-85836500D01*
X75935633Y-85858155D01*
X75833082Y-85900632D01*
X75740789Y-85962301D01*
X75662301Y-86040789D01*
X75600632Y-86133082D01*
X75558155Y-86235633D01*
X75536500Y-86344500D01*
X75536500Y-86455500D01*
X75558155Y-86564367D01*
X75600632Y-86666918D01*
X75662301Y-86759211D01*
X75711501Y-86808411D01*
X75711501Y-88193636D01*
X75699749Y-88167102D01*
X75634956Y-88075041D01*
X75553447Y-87997391D01*
X75458356Y-87937133D01*
X75353337Y-87896585D01*
X75279375Y-87878500D01*
X75136500Y-88021375D01*
X75136500Y-88513500D01*
X75160500Y-88513500D01*
X75160500Y-88886500D01*
X75136500Y-88886500D01*
X75136500Y-89378625D01*
X75279375Y-89521500D01*
X75353337Y-89503415D01*
X75458356Y-89462867D01*
X75553447Y-89402609D01*
X75634956Y-89324959D01*
X75699749Y-89232898D01*
X75711501Y-89206364D01*
X75711500Y-91593635D01*
X75699749Y-91567102D01*
X75634956Y-91475041D01*
X75553447Y-91397391D01*
X75458356Y-91337133D01*
X75353337Y-91296585D01*
X75279375Y-91278500D01*
X75136500Y-91421375D01*
X75136500Y-91913500D01*
X75160500Y-91913500D01*
X75160500Y-92286500D01*
X75136500Y-92286500D01*
X75136500Y-92778625D01*
X75279375Y-92921500D01*
X75353337Y-92903415D01*
X75458356Y-92862867D01*
X75553447Y-92802609D01*
X75634956Y-92724959D01*
X75699749Y-92632898D01*
X75711500Y-92606365D01*
X75711500Y-94639078D01*
X75591006Y-94759572D01*
X75542958Y-94744997D01*
X75443750Y-94735226D01*
X74956250Y-94735226D01*
X74857042Y-94744997D01*
X74761646Y-94773935D01*
X74673729Y-94820928D01*
X74596669Y-94884169D01*
X74533428Y-94961229D01*
X74486435Y-95049146D01*
X74457497Y-95144542D01*
X74447726Y-95243750D01*
X71508500Y-95243750D01*
X71508500Y-94574992D01*
X71563925Y-94657942D01*
X71712058Y-94806075D01*
X71886244Y-94922462D01*
X72079788Y-95002630D01*
X72285254Y-95043500D01*
X72494746Y-95043500D01*
X72700212Y-95002630D01*
X72893756Y-94922462D01*
X73067942Y-94806075D01*
X73216075Y-94657942D01*
X73332462Y-94483756D01*
X73412630Y-94290212D01*
X73453500Y-94084746D01*
X73453500Y-93875254D01*
X73412630Y-93669788D01*
X73332462Y-93476244D01*
X73216075Y-93302058D01*
X73067942Y-93153925D01*
X72893756Y-93037538D01*
X72700212Y-92957370D01*
X72494746Y-92916500D01*
X72285254Y-92916500D01*
X72079788Y-92957370D01*
X71886244Y-93037538D01*
X71712058Y-93153925D01*
X71563925Y-93302058D01*
X71508500Y-93385008D01*
X71508500Y-92034992D01*
X71563925Y-92117942D01*
X71712058Y-92266075D01*
X71886244Y-92382462D01*
X72079788Y-92462630D01*
X72285254Y-92503500D01*
X72494746Y-92503500D01*
X72700212Y-92462630D01*
X72780497Y-92429375D01*
X74128500Y-92429375D01*
X74154663Y-92529966D01*
X74200251Y-92632898D01*
X74265044Y-92724959D01*
X74346553Y-92802609D01*
X74441644Y-92862867D01*
X74546663Y-92903415D01*
X74620625Y-92921500D01*
X74763500Y-92778625D01*
X74763500Y-92286500D01*
X74271375Y-92286500D01*
X74128500Y-92429375D01*
X72780497Y-92429375D01*
X72893756Y-92382462D01*
X73067942Y-92266075D01*
X73216075Y-92117942D01*
X73332462Y-91943756D01*
X73404174Y-91770625D01*
X74128500Y-91770625D01*
X74271375Y-91913500D01*
X74763500Y-91913500D01*
X74763500Y-91421375D01*
X74620625Y-91278500D01*
X74546663Y-91296585D01*
X74441644Y-91337133D01*
X74346553Y-91397391D01*
X74265044Y-91475041D01*
X74200251Y-91567102D01*
X74154663Y-91670034D01*
X74128500Y-91770625D01*
X73404174Y-91770625D01*
X73412630Y-91750212D01*
X73453500Y-91544746D01*
X73453500Y-91335254D01*
X73412630Y-91129788D01*
X73332462Y-90936244D01*
X73216075Y-90762058D01*
X73067942Y-90613925D01*
X72893756Y-90497538D01*
X72700212Y-90417370D01*
X72494746Y-90376500D01*
X72285254Y-90376500D01*
X72079788Y-90417370D01*
X71886244Y-90497538D01*
X71712058Y-90613925D01*
X71563925Y-90762058D01*
X71508500Y-90845008D01*
X71508500Y-89949087D01*
X71517908Y-89958531D01*
X71741174Y-90108328D01*
X71989374Y-90211690D01*
X72199500Y-90115338D01*
X72199500Y-89090500D01*
X72580500Y-89090500D01*
X72580500Y-90115338D01*
X72790626Y-90211690D01*
X73038826Y-90108328D01*
X73262092Y-89958531D01*
X73451844Y-89768055D01*
X73600790Y-89544220D01*
X73701682Y-89300625D01*
X73603767Y-89090500D01*
X72580500Y-89090500D01*
X72199500Y-89090500D01*
X72179500Y-89090500D01*
X72179500Y-89029375D01*
X74128500Y-89029375D01*
X74154663Y-89129966D01*
X74200251Y-89232898D01*
X74265044Y-89324959D01*
X74346553Y-89402609D01*
X74441644Y-89462867D01*
X74546663Y-89503415D01*
X74620625Y-89521500D01*
X74763500Y-89378625D01*
X74763500Y-88886500D01*
X74271375Y-88886500D01*
X74128500Y-89029375D01*
X72179500Y-89029375D01*
X72179500Y-88709500D01*
X72199500Y-88709500D01*
X72199500Y-87684662D01*
X72580500Y-87684662D01*
X72580500Y-88709500D01*
X73603767Y-88709500D01*
X73701682Y-88499375D01*
X73648357Y-88370625D01*
X74128500Y-88370625D01*
X74271375Y-88513500D01*
X74763500Y-88513500D01*
X74763500Y-88021375D01*
X74620625Y-87878500D01*
X74546663Y-87896585D01*
X74441644Y-87937133D01*
X74346553Y-87997391D01*
X74265044Y-88075041D01*
X74200251Y-88167102D01*
X74154663Y-88270034D01*
X74128500Y-88370625D01*
X73648357Y-88370625D01*
X73600790Y-88255780D01*
X73451844Y-88031945D01*
X73262092Y-87841469D01*
X73038826Y-87691672D01*
X72790626Y-87588310D01*
X72580500Y-87684662D01*
X72199500Y-87684662D01*
X71989374Y-87588310D01*
X71741174Y-87691672D01*
X71517908Y-87841469D01*
X71508500Y-87850913D01*
X71508500Y-86954992D01*
X71563925Y-87037942D01*
X71712058Y-87186075D01*
X71886244Y-87302462D01*
X72079788Y-87382630D01*
X72285254Y-87423500D01*
X72494746Y-87423500D01*
X72700212Y-87382630D01*
X72893756Y-87302462D01*
X73067942Y-87186075D01*
X73216075Y-87037942D01*
X73332462Y-86863756D01*
X73412630Y-86670212D01*
X73453500Y-86464746D01*
X73453500Y-86255254D01*
X73412630Y-86049788D01*
X73332462Y-85856244D01*
X73216075Y-85682058D01*
X73067942Y-85533925D01*
X72893756Y-85417538D01*
X72700212Y-85337370D01*
X72494746Y-85296500D01*
X72285254Y-85296500D01*
X72079788Y-85337370D01*
X71886244Y-85417538D01*
X71712058Y-85533925D01*
X71563925Y-85682058D01*
X71508500Y-85765008D01*
X71508500Y-84414992D01*
X71563925Y-84497942D01*
X71712058Y-84646075D01*
X71886244Y-84762462D01*
X72079788Y-84842630D01*
X72285254Y-84883500D01*
X72494746Y-84883500D01*
X72700212Y-84842630D01*
X72893756Y-84762462D01*
X73067942Y-84646075D01*
X73216075Y-84497942D01*
X73332462Y-84323756D01*
X73380202Y-84208500D01*
X74510226Y-84208500D01*
X74510226Y-84276250D01*
X74519997Y-84375458D01*
X74548935Y-84470854D01*
X74595928Y-84558771D01*
X74659169Y-84635831D01*
X74736229Y-84699072D01*
X74824146Y-84746065D01*
X74919542Y-84775003D01*
X75018750Y-84784774D01*
X75506250Y-84784774D01*
X75605458Y-84775003D01*
X75700854Y-84746065D01*
X75788771Y-84699072D01*
X75865831Y-84635831D01*
X75929072Y-84558771D01*
X75976065Y-84470854D01*
X76005003Y-84375458D01*
X76014774Y-84276250D01*
X76014774Y-83363750D01*
X76005003Y-83264542D01*
X75976065Y-83169146D01*
X75929072Y-83081229D01*
X75865831Y-83004169D01*
X75788771Y-82940928D01*
X75700854Y-82893935D01*
X75605458Y-82864997D01*
X75506250Y-82855226D01*
X75018750Y-82855226D01*
X74919542Y-82864997D01*
X74824146Y-82893935D01*
X74736229Y-82940928D01*
X74659169Y-83004169D01*
X74595928Y-83081229D01*
X74548935Y-83169146D01*
X74519997Y-83264542D01*
X74510226Y-83363750D01*
X74510226Y-83431500D01*
X73380202Y-83431500D01*
X73332462Y-83316244D01*
X73216075Y-83142058D01*
X73067942Y-82993925D01*
X72893756Y-82877538D01*
X72700212Y-82797370D01*
X72494746Y-82756500D01*
X72285254Y-82756500D01*
X72079788Y-82797370D01*
X71886244Y-82877538D01*
X71712058Y-82993925D01*
X71563925Y-83142058D01*
X71508500Y-83225008D01*
X71508500Y-81874992D01*
X71563925Y-81957942D01*
X71712058Y-82106075D01*
X71886244Y-82222462D01*
X72079788Y-82302630D01*
X72285254Y-82343500D01*
X72494746Y-82343500D01*
X72700212Y-82302630D01*
X72893756Y-82222462D01*
X73067942Y-82106075D01*
X73216075Y-81957942D01*
X73332462Y-81783756D01*
X73380202Y-81668500D01*
X74510226Y-81668500D01*
X74510226Y-81736250D01*
X74519997Y-81835458D01*
X74548935Y-81930854D01*
X74595928Y-82018771D01*
X74659169Y-82095831D01*
X74736229Y-82159072D01*
X74824146Y-82206065D01*
X74919542Y-82235003D01*
X75018750Y-82244774D01*
X75506250Y-82244774D01*
X75605458Y-82235003D01*
X75700854Y-82206065D01*
X75788771Y-82159072D01*
X75865831Y-82095831D01*
X75929072Y-82018771D01*
X75976065Y-81930854D01*
X76005003Y-81835458D01*
X76014774Y-81736250D01*
X76014774Y-80823750D01*
X76005003Y-80724542D01*
X75976065Y-80629146D01*
X75929072Y-80541229D01*
X75865831Y-80464169D01*
X75788771Y-80400928D01*
X75700854Y-80353935D01*
X75605458Y-80324997D01*
X75506250Y-80315226D01*
X75018750Y-80315226D01*
X74919542Y-80324997D01*
X74824146Y-80353935D01*
X74736229Y-80400928D01*
X74659169Y-80464169D01*
X74595928Y-80541229D01*
X74548935Y-80629146D01*
X74519997Y-80724542D01*
X74510226Y-80823750D01*
X74510226Y-80891500D01*
X73380202Y-80891500D01*
X73332462Y-80776244D01*
X73216075Y-80602058D01*
X73067942Y-80453925D01*
X72893756Y-80337538D01*
X72700212Y-80257370D01*
X72494746Y-80216500D01*
X72285254Y-80216500D01*
X72079788Y-80257370D01*
X71886244Y-80337538D01*
X71712058Y-80453925D01*
X71563925Y-80602058D01*
X71508500Y-80685008D01*
X71508500Y-79334992D01*
X71563925Y-79417942D01*
X71712058Y-79566075D01*
X71886244Y-79682462D01*
X72079788Y-79762630D01*
X72285254Y-79803500D01*
X72494746Y-79803500D01*
X72700212Y-79762630D01*
X72893756Y-79682462D01*
X73067942Y-79566075D01*
X73216075Y-79417942D01*
X73332462Y-79243756D01*
X73380202Y-79128500D01*
X74510226Y-79128500D01*
X74510226Y-79196250D01*
X74519997Y-79295458D01*
X74548935Y-79390854D01*
X74595928Y-79478771D01*
X74659169Y-79555831D01*
X74736229Y-79619072D01*
X74824146Y-79666065D01*
X74919542Y-79695003D01*
X75018750Y-79704774D01*
X75506250Y-79704774D01*
X75605458Y-79695003D01*
X75700854Y-79666065D01*
X75788771Y-79619072D01*
X75865831Y-79555831D01*
X75929072Y-79478771D01*
X75976065Y-79390854D01*
X76005003Y-79295458D01*
X76014774Y-79196250D01*
X76014774Y-78283750D01*
X76005003Y-78184542D01*
X75976065Y-78089146D01*
X75929072Y-78001229D01*
X75865831Y-77924169D01*
X75788771Y-77860928D01*
X75700854Y-77813935D01*
X75605458Y-77784997D01*
X75506250Y-77775226D01*
X75018750Y-77775226D01*
X74919542Y-77784997D01*
X74824146Y-77813935D01*
X74736229Y-77860928D01*
X74659169Y-77924169D01*
X74595928Y-78001229D01*
X74548935Y-78089146D01*
X74519997Y-78184542D01*
X74510226Y-78283750D01*
X74510226Y-78351500D01*
X73380202Y-78351500D01*
X73332462Y-78236244D01*
X73216075Y-78062058D01*
X73067942Y-77913925D01*
X72893756Y-77797538D01*
X72700212Y-77717370D01*
X72494746Y-77676500D01*
X72285254Y-77676500D01*
X72079788Y-77717370D01*
X71886244Y-77797538D01*
X71712058Y-77913925D01*
X71563925Y-78062058D01*
X71508500Y-78145008D01*
X71508500Y-76794992D01*
X71563925Y-76877942D01*
X71712058Y-77026075D01*
X71886244Y-77142462D01*
X72079788Y-77222630D01*
X72285254Y-77263500D01*
X72494746Y-77263500D01*
X72700212Y-77222630D01*
X72893756Y-77142462D01*
X73067942Y-77026075D01*
X73194017Y-76900000D01*
X74200735Y-76900000D01*
X74211769Y-77012034D01*
X74244448Y-77119762D01*
X74297516Y-77219045D01*
X74368933Y-77306067D01*
X74455955Y-77377484D01*
X74555238Y-77430552D01*
X74662966Y-77463231D01*
X74775000Y-77474265D01*
X74929125Y-77471500D01*
X75072000Y-77328625D01*
X75072000Y-76390500D01*
X75453000Y-76390500D01*
X75453000Y-77328625D01*
X75595875Y-77471500D01*
X75750000Y-77474265D01*
X75862034Y-77463231D01*
X75969762Y-77430552D01*
X76069045Y-77377484D01*
X76156067Y-77306067D01*
X76227484Y-77219045D01*
X76280552Y-77119762D01*
X76313231Y-77012034D01*
X76324265Y-76900000D01*
X76321500Y-76533375D01*
X76178625Y-76390500D01*
X75453000Y-76390500D01*
X75072000Y-76390500D01*
X74346375Y-76390500D01*
X74203500Y-76533375D01*
X74200735Y-76900000D01*
X73194017Y-76900000D01*
X73216075Y-76877942D01*
X73332462Y-76703756D01*
X73412630Y-76510212D01*
X73453500Y-76304746D01*
X73453500Y-76095254D01*
X73412630Y-75889788D01*
X73332462Y-75696244D01*
X73216075Y-75522058D01*
X73194017Y-75500000D01*
X74200735Y-75500000D01*
X74203500Y-75866625D01*
X74346375Y-76009500D01*
X75072000Y-76009500D01*
X75072000Y-75071375D01*
X75453000Y-75071375D01*
X75453000Y-76009500D01*
X76178625Y-76009500D01*
X76321500Y-75866625D01*
X76324265Y-75500000D01*
X76313231Y-75387966D01*
X76280552Y-75280238D01*
X76227484Y-75180955D01*
X76156067Y-75093933D01*
X76069045Y-75022516D01*
X75969762Y-74969448D01*
X75862034Y-74936769D01*
X75750000Y-74925735D01*
X75595875Y-74928500D01*
X75453000Y-75071375D01*
X75072000Y-75071375D01*
X74929125Y-74928500D01*
X74775000Y-74925735D01*
X74662966Y-74936769D01*
X74555238Y-74969448D01*
X74455955Y-75022516D01*
X74368933Y-75093933D01*
X74297516Y-75180955D01*
X74244448Y-75280238D01*
X74211769Y-75387966D01*
X74200735Y-75500000D01*
X73194017Y-75500000D01*
X73067942Y-75373925D01*
X72893756Y-75257538D01*
X72700212Y-75177370D01*
X72494746Y-75136500D01*
X72285254Y-75136500D01*
X72079788Y-75177370D01*
X71886244Y-75257538D01*
X71712058Y-75373925D01*
X71563925Y-75522058D01*
X71508500Y-75605008D01*
X71508500Y-74254992D01*
X71563925Y-74337942D01*
X71712058Y-74486075D01*
X71886244Y-74602462D01*
X72079788Y-74682630D01*
X72285254Y-74723500D01*
X72494746Y-74723500D01*
X72700212Y-74682630D01*
X72893756Y-74602462D01*
X73067942Y-74486075D01*
X73216075Y-74337942D01*
X73332462Y-74163756D01*
X73412630Y-73970212D01*
X73453500Y-73764746D01*
X73453500Y-73555254D01*
X73412630Y-73349788D01*
X73332462Y-73156244D01*
X73216075Y-72982058D01*
X73067942Y-72833925D01*
X72893756Y-72717538D01*
X72700212Y-72637370D01*
X72494746Y-72596500D01*
X72285254Y-72596500D01*
X72079788Y-72637370D01*
X71886244Y-72717538D01*
X71712058Y-72833925D01*
X71563925Y-72982058D01*
X71508500Y-73065008D01*
X71508500Y-72550921D01*
X71874647Y-72184774D01*
X73190000Y-72184774D01*
X73241655Y-72179686D01*
X73291325Y-72164619D01*
X73337101Y-72140152D01*
X73377223Y-72107223D01*
X73410152Y-72067101D01*
X73434619Y-72021325D01*
X73449686Y-71971655D01*
X73454774Y-71920000D01*
X73454774Y-70320000D01*
X73449686Y-70268345D01*
X73434619Y-70218675D01*
X73410152Y-70172899D01*
X73377223Y-70132777D01*
X73337101Y-70099848D01*
X73291325Y-70075381D01*
X73241655Y-70060314D01*
X73190000Y-70055226D01*
X71590000Y-70055226D01*
X71538345Y-70060314D01*
X71488675Y-70075381D01*
X71442899Y-70099848D01*
X71402777Y-70132777D01*
X71369848Y-70172899D01*
X71345381Y-70218675D01*
X71330314Y-70268345D01*
X71325226Y-70320000D01*
X71325226Y-71635353D01*
X70961955Y-71998624D01*
X70964774Y-71970000D01*
X70964774Y-70270000D01*
X70959686Y-70218345D01*
X70944619Y-70168675D01*
X70920152Y-70122899D01*
X70887223Y-70082777D01*
X70847101Y-70049848D01*
X70801325Y-70025381D01*
X70751655Y-70010314D01*
X70700000Y-70005226D01*
X69000000Y-70005226D01*
X68948345Y-70010314D01*
X68898675Y-70025381D01*
X68852899Y-70049848D01*
X68812777Y-70082777D01*
X68779848Y-70122899D01*
X68755381Y-70168675D01*
X68740314Y-70218345D01*
X68735226Y-70270000D01*
X68629500Y-70270000D01*
X68629500Y-64603542D01*
X68733966Y-64635231D01*
X68846000Y-64646265D01*
X69262625Y-64643500D01*
X69405500Y-64500625D01*
X69405500Y-63287500D01*
X69786500Y-63287500D01*
X69786500Y-64500625D01*
X69929375Y-64643500D01*
X70346000Y-64646265D01*
X70458034Y-64635231D01*
X70565762Y-64602552D01*
X70665045Y-64549484D01*
X70752067Y-64478067D01*
X70802500Y-64416614D01*
X70852933Y-64478067D01*
X70939955Y-64549484D01*
X71039238Y-64602552D01*
X71146966Y-64635231D01*
X71259000Y-64646265D01*
X71675625Y-64643500D01*
X71818500Y-64500625D01*
X71818500Y-63287500D01*
X70830375Y-63287500D01*
X70802500Y-63315375D01*
X70774625Y-63287500D01*
X69786500Y-63287500D01*
X69405500Y-63287500D01*
X69385500Y-63287500D01*
X69385500Y-62906500D01*
X69405500Y-62906500D01*
X69405500Y-62886500D01*
X69786500Y-62886500D01*
X69786500Y-62906500D01*
X70774625Y-62906500D01*
X70802500Y-62878625D01*
X70830375Y-62906500D01*
G37*
X70830375Y-62906500D02*
X71818500Y-62906500D01*
X71818500Y-62886500D01*
X72199500Y-62886500D01*
X72199500Y-62906500D01*
X72219500Y-62906500D01*
X72219500Y-63287500D01*
X72199500Y-63287500D01*
X72199500Y-64500625D01*
X72342375Y-64643500D01*
X72759000Y-64646265D01*
X72871034Y-64635231D01*
X72978762Y-64602552D01*
X73069501Y-64554051D01*
X73069500Y-66322226D01*
X72683000Y-66322226D01*
X72631345Y-66327314D01*
X72581675Y-66342381D01*
X72535899Y-66366848D01*
X72495777Y-66399777D01*
X72462848Y-66439899D01*
X72438381Y-66485675D01*
X72423314Y-66535345D01*
X72418226Y-66587000D01*
X72418226Y-68287000D01*
X72423314Y-68338655D01*
X72438381Y-68388325D01*
X72462848Y-68434101D01*
X72495777Y-68474223D01*
X72535899Y-68507152D01*
X72581675Y-68531619D01*
X72631345Y-68546686D01*
X72683000Y-68551774D01*
X74383000Y-68551774D01*
X74411500Y-68548967D01*
X74411501Y-70380915D01*
X74409621Y-70400000D01*
X74417123Y-70476158D01*
X74439337Y-70549391D01*
X74475412Y-70616883D01*
X74504865Y-70652772D01*
X74523961Y-70676040D01*
X74538782Y-70688203D01*
X76761500Y-72910922D01*
X76761501Y-75255020D01*
X76699146Y-75273935D01*
X76611229Y-75320928D01*
X76534169Y-75384169D01*
X76470928Y-75461229D01*
X76423935Y-75549146D01*
X76394997Y-75644542D01*
X76385226Y-75743750D01*
X76385226Y-76656250D01*
X76394997Y-76755458D01*
X76423935Y-76850854D01*
X76470928Y-76938771D01*
X76534169Y-77015831D01*
X76611229Y-77079072D01*
X76699146Y-77126065D01*
X76761500Y-77144980D01*
X76761501Y-77795020D01*
X76699146Y-77813935D01*
X76611229Y-77860928D01*
X76534169Y-77924169D01*
X76470928Y-78001229D01*
X76423935Y-78089146D01*
X76394997Y-78184542D01*
X76385226Y-78283750D01*
X76385226Y-79196250D01*
X76394997Y-79295458D01*
X76423935Y-79390854D01*
X76470928Y-79478771D01*
X76534169Y-79555831D01*
X76611229Y-79619072D01*
X76699146Y-79666065D01*
X76794542Y-79695003D01*
X76806873Y-79696217D01*
X76762301Y-79740789D01*
X76700632Y-79833082D01*
X76658155Y-79935633D01*
X76636500Y-80044500D01*
X76636500Y-80155500D01*
X76658155Y-80264367D01*
X76695960Y-80355638D01*
X76611229Y-80400928D01*
X76534169Y-80464169D01*
X76470928Y-80541229D01*
X76423935Y-80629146D01*
X76394997Y-80724542D01*
X76385226Y-80823750D01*
X76385226Y-81736250D01*
X76394997Y-81835458D01*
X76423935Y-81930854D01*
X76470928Y-82018771D01*
X76534169Y-82095831D01*
X76611229Y-82159072D01*
X76699146Y-82206065D01*
X76761500Y-82224980D01*
X76761501Y-82875020D01*
X76699146Y-82893935D01*
X76611229Y-82940928D01*
X76534169Y-83004169D01*
X76470928Y-83081229D01*
X76423935Y-83169146D01*
X76394997Y-83264542D01*
X76385226Y-83363750D01*
X76385226Y-84276250D01*
X76394997Y-84375458D01*
X76423935Y-84470854D01*
X76470928Y-84558771D01*
X76534169Y-84635831D01*
X76611229Y-84699072D01*
X76699146Y-84746065D01*
X76761501Y-84764980D01*
X76761500Y-88225251D01*
X76752899Y-88229848D01*
X76712777Y-88262777D01*
X76679848Y-88302899D01*
X76655381Y-88348675D01*
X76640314Y-88398345D01*
X76635226Y-88450000D01*
X76635226Y-88950000D01*
X76640314Y-89001655D01*
X76655381Y-89051325D01*
X76679848Y-89097101D01*
X76712777Y-89137223D01*
X76752899Y-89170152D01*
X76798675Y-89194619D01*
X76848345Y-89209686D01*
X76900000Y-89214774D01*
X77400000Y-89214774D01*
X77451655Y-89209686D01*
X77501325Y-89194619D01*
X77547101Y-89170152D01*
X77587223Y-89137223D01*
X77620152Y-89097101D01*
X77644619Y-89051325D01*
X77659686Y-89001655D01*
X77664774Y-88950000D01*
X77664774Y-88450000D01*
X77659686Y-88398345D01*
X77644619Y-88348675D01*
X77620152Y-88302899D01*
X77587223Y-88262777D01*
X77547101Y-88229848D01*
X77538500Y-88225251D01*
X77538500Y-84757396D01*
X77575854Y-84746065D01*
X77663771Y-84699072D01*
X77740831Y-84635831D01*
X77804072Y-84558771D01*
X77811500Y-84544874D01*
X77811501Y-90889078D01*
X77115353Y-91585226D01*
X76900000Y-91585226D01*
X76848345Y-91590314D01*
X76798675Y-91605381D01*
X76752899Y-91629848D01*
X76712777Y-91662777D01*
X76679848Y-91702899D01*
X76655381Y-91748675D01*
X76640314Y-91798345D01*
X76635226Y-91850000D01*
X76635226Y-92350000D01*
X76640314Y-92401655D01*
X76655381Y-92451325D01*
X76679848Y-92497101D01*
X76712777Y-92537223D01*
X76752899Y-92570152D01*
X76798675Y-92594619D01*
X76848345Y-92609686D01*
X76900000Y-92614774D01*
X77400000Y-92614774D01*
X77451655Y-92609686D01*
X77501325Y-92594619D01*
X77547101Y-92570152D01*
X77587223Y-92537223D01*
X77620152Y-92497101D01*
X77644619Y-92451325D01*
X77659686Y-92401655D01*
X77664774Y-92350000D01*
X77664774Y-92134647D01*
X78461213Y-91338208D01*
X78476040Y-91326040D01*
X78511229Y-91283161D01*
X78524588Y-91266884D01*
X78560663Y-91199392D01*
X78582878Y-91126159D01*
X78588500Y-91069078D01*
X78588500Y-91069076D01*
X78590379Y-91050001D01*
X78588500Y-91030926D01*
X78588500Y-86760625D01*
X78698318Y-86760625D01*
X78799210Y-87004220D01*
X78948156Y-87228055D01*
X79137908Y-87418531D01*
X79361174Y-87568328D01*
X79609374Y-87671690D01*
X79819500Y-87575338D01*
X79819500Y-86550500D01*
X78796233Y-86550500D01*
X78698318Y-86760625D01*
X78588500Y-86760625D01*
X78588500Y-85959375D01*
X78698318Y-85959375D01*
X78796233Y-86169500D01*
X79819500Y-86169500D01*
X79819500Y-85144662D01*
X79609374Y-85048310D01*
X79361174Y-85151672D01*
X79137908Y-85301469D01*
X78948156Y-85491945D01*
X78799210Y-85715780D01*
X78698318Y-85959375D01*
X78588500Y-85959375D01*
X78588500Y-80069074D01*
X78590379Y-80049999D01*
X78588500Y-80030922D01*
X78582878Y-79973841D01*
X78560663Y-79900608D01*
X78524589Y-79833118D01*
X78524588Y-79833116D01*
X78507093Y-79811799D01*
X78476040Y-79773960D01*
X78461214Y-79761793D01*
X77889774Y-79190353D01*
X77889774Y-78283750D01*
X77880003Y-78184542D01*
X77851065Y-78089146D01*
X77804072Y-78001229D01*
X77740831Y-77924169D01*
X77663771Y-77860928D01*
X77575854Y-77813935D01*
X77538500Y-77802604D01*
X77538500Y-77137396D01*
X77575854Y-77126065D01*
X77663771Y-77079072D01*
X77740831Y-77015831D01*
X77804072Y-76938771D01*
X77851065Y-76850854D01*
X77880003Y-76755458D01*
X77889774Y-76656250D01*
X77889774Y-75743750D01*
X77880003Y-75644542D01*
X77851065Y-75549146D01*
X77804072Y-75461229D01*
X77740831Y-75384169D01*
X77663771Y-75320928D01*
X77575854Y-75273935D01*
X77538500Y-75262604D01*
X77538500Y-72769075D01*
X77540379Y-72750000D01*
X77538500Y-72730922D01*
X77532878Y-72673841D01*
X77510663Y-72600608D01*
X77474588Y-72533117D01*
X77426040Y-72473960D01*
X77411220Y-72461798D01*
X75188500Y-70239079D01*
X75188500Y-68735000D01*
X79624735Y-68735000D01*
X79635769Y-68847034D01*
X79668448Y-68954762D01*
X79721516Y-69054045D01*
X79792933Y-69141067D01*
X79879955Y-69212484D01*
X79979238Y-69265552D01*
X80086966Y-69298231D01*
X80199000Y-69309265D01*
X80565625Y-69306500D01*
X80708500Y-69163625D01*
X80708500Y-68438000D01*
X79770375Y-68438000D01*
X79627500Y-68580875D01*
X79624735Y-68735000D01*
X75188500Y-68735000D01*
X75188500Y-68117499D01*
X75208088Y-68146815D01*
X75363185Y-68301912D01*
X75545560Y-68423771D01*
X75748204Y-68507709D01*
X75963330Y-68550500D01*
X76182670Y-68550500D01*
X76397796Y-68507709D01*
X76600440Y-68423771D01*
X76782815Y-68301912D01*
X76937912Y-68146815D01*
X77059771Y-67964440D01*
X77143709Y-67761796D01*
X77186500Y-67546670D01*
X77186500Y-67327330D01*
X77499500Y-67327330D01*
X77499500Y-67546670D01*
X77542291Y-67761796D01*
X77626229Y-67964440D01*
X77748088Y-68146815D01*
X77903185Y-68301912D01*
X78085560Y-68423771D01*
X78288204Y-68507709D01*
X78503330Y-68550500D01*
X78722670Y-68550500D01*
X78937796Y-68507709D01*
X79140440Y-68423771D01*
X79322815Y-68301912D01*
X79477912Y-68146815D01*
X79599771Y-67964440D01*
X79627214Y-67898187D01*
X79627500Y-67914125D01*
X79770375Y-68057000D01*
X80708500Y-68057000D01*
X80708500Y-67331375D01*
X80565625Y-67188500D01*
X80199000Y-67185735D01*
X80086966Y-67196769D01*
X79979238Y-67229448D01*
X79879955Y-67282516D01*
X79792933Y-67353933D01*
X79726500Y-67434882D01*
X79726500Y-67327330D01*
X79683709Y-67112204D01*
X79599771Y-66909560D01*
X79477912Y-66727185D01*
X79322815Y-66572088D01*
X79140440Y-66450229D01*
X78937796Y-66366291D01*
X78722670Y-66323500D01*
X78503330Y-66323500D01*
X78288204Y-66366291D01*
X78085560Y-66450229D01*
X77903185Y-66572088D01*
X77748088Y-66727185D01*
X77626229Y-66909560D01*
X77542291Y-67112204D01*
X77499500Y-67327330D01*
X77186500Y-67327330D01*
X77143709Y-67112204D01*
X77059771Y-66909560D01*
X76937912Y-66727185D01*
X76807107Y-66596380D01*
X77407988Y-65995500D01*
X79929013Y-65995500D01*
X79948433Y-66014920D01*
X79943997Y-66029542D01*
X79934226Y-66128750D01*
X79934226Y-66616250D01*
X79943997Y-66715458D01*
X79972935Y-66810854D01*
X80019928Y-66898771D01*
X80083169Y-66975831D01*
X80160229Y-67039072D01*
X80248146Y-67086065D01*
X80343542Y-67115003D01*
X80442750Y-67124774D01*
X81355250Y-67124774D01*
X81454458Y-67115003D01*
X81549854Y-67086065D01*
X81637771Y-67039072D01*
X81714831Y-66975831D01*
X81778072Y-66898771D01*
X81811624Y-66836000D01*
X81937376Y-66836000D01*
X81970928Y-66898771D01*
X82034169Y-66975831D01*
X82111229Y-67039072D01*
X82199146Y-67086065D01*
X82294542Y-67115003D01*
X82393750Y-67124774D01*
X83306250Y-67124774D01*
X83405458Y-67115003D01*
X83500854Y-67086065D01*
X83588771Y-67039072D01*
X83665831Y-66975831D01*
X83729072Y-66898771D01*
X83770501Y-66821264D01*
X83770501Y-67798736D01*
X83729072Y-67721229D01*
X83665831Y-67644169D01*
X83588771Y-67580928D01*
X83500854Y-67533935D01*
X83405458Y-67504997D01*
X83306250Y-67495226D01*
X82393750Y-67495226D01*
X82294542Y-67504997D01*
X82199146Y-67533935D01*
X82137617Y-67566823D01*
X82129552Y-67540238D01*
X82076484Y-67440955D01*
X82005067Y-67353933D01*
X81918045Y-67282516D01*
X81818762Y-67229448D01*
X81711034Y-67196769D01*
X81599000Y-67185735D01*
X81232375Y-67188500D01*
X81089500Y-67331375D01*
X81089500Y-68057000D01*
X81109500Y-68057000D01*
X81109500Y-68438000D01*
X81089500Y-68438000D01*
X81089500Y-69163625D01*
X81232375Y-69306500D01*
X81241510Y-69306569D01*
X80873783Y-69674296D01*
X80858962Y-69686459D01*
X80846800Y-69701279D01*
X80810413Y-69745616D01*
X80774338Y-69813108D01*
X80752124Y-69886341D01*
X80744622Y-69962499D01*
X80746502Y-69981584D01*
X80746502Y-70352485D01*
X80687942Y-70293925D01*
X80513756Y-70177538D01*
X80320212Y-70097370D01*
X80114746Y-70056500D01*
X79905254Y-70056500D01*
X79699788Y-70097370D01*
X79506244Y-70177538D01*
X79332058Y-70293925D01*
X79183925Y-70442058D01*
X79067538Y-70616244D01*
X78987370Y-70809788D01*
X78946500Y-71015254D01*
X78946500Y-71224746D01*
X78987370Y-71430212D01*
X79067538Y-71623756D01*
X79183925Y-71797942D01*
X79332058Y-71946075D01*
X79506244Y-72062462D01*
X79699788Y-72142630D01*
X79905254Y-72183500D01*
X80114746Y-72183500D01*
X80320212Y-72142630D01*
X80513756Y-72062462D01*
X80687942Y-71946075D01*
X80746502Y-71887515D01*
X80746502Y-72892485D01*
X80687942Y-72833925D01*
X80513756Y-72717538D01*
X80320212Y-72637370D01*
X80114746Y-72596500D01*
X79905254Y-72596500D01*
X79699788Y-72637370D01*
X79506244Y-72717538D01*
X79332058Y-72833925D01*
X79183925Y-72982058D01*
X79067538Y-73156244D01*
X78987370Y-73349788D01*
X78946500Y-73555254D01*
X78946500Y-73764746D01*
X78987370Y-73970212D01*
X79067538Y-74163756D01*
X79183925Y-74337942D01*
X79332058Y-74486075D01*
X79506244Y-74602462D01*
X79699788Y-74682630D01*
X79905254Y-74723500D01*
X80114746Y-74723500D01*
X80320212Y-74682630D01*
X80513756Y-74602462D01*
X80687942Y-74486075D01*
X80746502Y-74427515D01*
X80746502Y-75432485D01*
X80687942Y-75373925D01*
X80513756Y-75257538D01*
X80320212Y-75177370D01*
X80114746Y-75136500D01*
X79905254Y-75136500D01*
X79699788Y-75177370D01*
X79506244Y-75257538D01*
X79332058Y-75373925D01*
X79183925Y-75522058D01*
X79067538Y-75696244D01*
X78987370Y-75889788D01*
X78946500Y-76095254D01*
X78946500Y-76304746D01*
X78987370Y-76510212D01*
X79067538Y-76703756D01*
X79183925Y-76877942D01*
X79332058Y-77026075D01*
X79506244Y-77142462D01*
X79699788Y-77222630D01*
X79905254Y-77263500D01*
X80114746Y-77263500D01*
X80320212Y-77222630D01*
X80513756Y-77142462D01*
X80687942Y-77026075D01*
X80746502Y-76967515D01*
X80746502Y-77972485D01*
X80687942Y-77913925D01*
X80513756Y-77797538D01*
X80320212Y-77717370D01*
X80114746Y-77676500D01*
X79905254Y-77676500D01*
X79699788Y-77717370D01*
X79506244Y-77797538D01*
X79332058Y-77913925D01*
X79183925Y-78062058D01*
X79067538Y-78236244D01*
X78987370Y-78429788D01*
X78946500Y-78635254D01*
X78946500Y-78844746D01*
X78987370Y-79050212D01*
X79067538Y-79243756D01*
X79183925Y-79417942D01*
X79332058Y-79566075D01*
X79506244Y-79682462D01*
X79699788Y-79762630D01*
X79905254Y-79803500D01*
X80114746Y-79803500D01*
X80320212Y-79762630D01*
X80513756Y-79682462D01*
X80687942Y-79566075D01*
X80746502Y-79507515D01*
X80746501Y-80512484D01*
X80687942Y-80453925D01*
X80513756Y-80337538D01*
X80320212Y-80257370D01*
X80114746Y-80216500D01*
X79905254Y-80216500D01*
X79699788Y-80257370D01*
X79506244Y-80337538D01*
X79332058Y-80453925D01*
X79183925Y-80602058D01*
X79067538Y-80776244D01*
X78987370Y-80969788D01*
X78946500Y-81175254D01*
X78946500Y-81384746D01*
X78987370Y-81590212D01*
X79067538Y-81783756D01*
X79183925Y-81957942D01*
X79332058Y-82106075D01*
X79506244Y-82222462D01*
X79699788Y-82302630D01*
X79905254Y-82343500D01*
X80114746Y-82343500D01*
X80320212Y-82302630D01*
X80513756Y-82222462D01*
X80687942Y-82106075D01*
X80746501Y-82047516D01*
X80746501Y-83052484D01*
X80687942Y-82993925D01*
X80513756Y-82877538D01*
X80320212Y-82797370D01*
X80114746Y-82756500D01*
X79905254Y-82756500D01*
X79699788Y-82797370D01*
X79506244Y-82877538D01*
X79332058Y-82993925D01*
X79183925Y-83142058D01*
X79067538Y-83316244D01*
X78987370Y-83509788D01*
X78946500Y-83715254D01*
X78946500Y-83924746D01*
X78987370Y-84130212D01*
X79067538Y-84323756D01*
X79183925Y-84497942D01*
X79332058Y-84646075D01*
X79506244Y-84762462D01*
X79699788Y-84842630D01*
X79905254Y-84883500D01*
X80114746Y-84883500D01*
X80320212Y-84842630D01*
X80513756Y-84762462D01*
X80687942Y-84646075D01*
X80746501Y-84587516D01*
X80746501Y-85210496D01*
X80658826Y-85151672D01*
X80410626Y-85048310D01*
X80200500Y-85144662D01*
X80200500Y-86169500D01*
X80220500Y-86169500D01*
X80220500Y-86550500D01*
X80200500Y-86550500D01*
X80200500Y-87575338D01*
X80410626Y-87671690D01*
X80658826Y-87568328D01*
X80746501Y-87509504D01*
X80746501Y-88132484D01*
X80687942Y-88073925D01*
X80513756Y-87957538D01*
X80320212Y-87877370D01*
X80114746Y-87836500D01*
X79905254Y-87836500D01*
X79699788Y-87877370D01*
X79506244Y-87957538D01*
X79332058Y-88073925D01*
X79183925Y-88222058D01*
X79067538Y-88396244D01*
X78987370Y-88589788D01*
X78946500Y-88795254D01*
X78946500Y-89004746D01*
X78987370Y-89210212D01*
X79067538Y-89403756D01*
X79183925Y-89577942D01*
X79332058Y-89726075D01*
X79506244Y-89842462D01*
X79699788Y-89922630D01*
X79905254Y-89963500D01*
X80114746Y-89963500D01*
X80320212Y-89922630D01*
X80513756Y-89842462D01*
X80687942Y-89726075D01*
X80746501Y-89667516D01*
X80746501Y-90154077D01*
X80435468Y-90465110D01*
X80320212Y-90417370D01*
X80114746Y-90376500D01*
X79905254Y-90376500D01*
X79699788Y-90417370D01*
X79506244Y-90497538D01*
X79332058Y-90613925D01*
X79183925Y-90762058D01*
X79067538Y-90936244D01*
X78987370Y-91129788D01*
X78946500Y-91335254D01*
X78946500Y-91544746D01*
X78987370Y-91750212D01*
X79067538Y-91943756D01*
X79183925Y-92117942D01*
X79332058Y-92266075D01*
X79506244Y-92382462D01*
X79699788Y-92462630D01*
X79905254Y-92503500D01*
X80114746Y-92503500D01*
X80320212Y-92462630D01*
X80513756Y-92382462D01*
X80687942Y-92266075D01*
X80836075Y-92117942D01*
X80952462Y-91943756D01*
X81032630Y-91750212D01*
X81073500Y-91544746D01*
X81073500Y-91335254D01*
X81072521Y-91330330D01*
X81436500Y-91330330D01*
X81436500Y-91549670D01*
X81479291Y-91764796D01*
X81563229Y-91967440D01*
X81685088Y-92149815D01*
X81840185Y-92304912D01*
X82022560Y-92426771D01*
X82225204Y-92510709D01*
X82440330Y-92553500D01*
X82659670Y-92553500D01*
X82874796Y-92510709D01*
X83077440Y-92426771D01*
X83259815Y-92304912D01*
X83414912Y-92149815D01*
X83536771Y-91967440D01*
X83620709Y-91764796D01*
X83663500Y-91549670D01*
X83663500Y-91330330D01*
X83620709Y-91115204D01*
X83536771Y-90912560D01*
X83414912Y-90730185D01*
X83259815Y-90575088D01*
X83077440Y-90453229D01*
X82874796Y-90369291D01*
X82659670Y-90326500D01*
X82440330Y-90326500D01*
X82225204Y-90369291D01*
X82022560Y-90453229D01*
X81840185Y-90575088D01*
X81685088Y-90730185D01*
X81563229Y-90912560D01*
X81479291Y-91115204D01*
X81436500Y-91330330D01*
X81072521Y-91330330D01*
X81032630Y-91129788D01*
X80984890Y-91014532D01*
X81396221Y-90603201D01*
X81411041Y-90591039D01*
X81459589Y-90531882D01*
X81495664Y-90464391D01*
X81517879Y-90391158D01*
X81523501Y-90334077D01*
X81523501Y-90334076D01*
X81525380Y-90314999D01*
X81523501Y-90295921D01*
X81523501Y-89331528D01*
X81563229Y-89427440D01*
X81685088Y-89609815D01*
X81840185Y-89764912D01*
X82022560Y-89886771D01*
X82225204Y-89970709D01*
X82440330Y-90013500D01*
X82659670Y-90013500D01*
X82874796Y-89970709D01*
X83077440Y-89886771D01*
X83259815Y-89764912D01*
X83414912Y-89609815D01*
X83536771Y-89427440D01*
X83620709Y-89224796D01*
X83663500Y-89009670D01*
X83663500Y-88790330D01*
X83620709Y-88575204D01*
X83536771Y-88372560D01*
X83414912Y-88190185D01*
X83259815Y-88035088D01*
X83077440Y-87913229D01*
X82874796Y-87829291D01*
X82659670Y-87786500D01*
X82440330Y-87786500D01*
X82225204Y-87829291D01*
X82022560Y-87913229D01*
X81840185Y-88035088D01*
X81685088Y-88190185D01*
X81563229Y-88372560D01*
X81523501Y-88468472D01*
X81523501Y-87334305D01*
X81651535Y-87461566D01*
X81883704Y-87615681D01*
X82141478Y-87721541D01*
X82359500Y-87625810D01*
X82359500Y-86550500D01*
X82339500Y-86550500D01*
X82339500Y-86169500D01*
X82359500Y-86169500D01*
X82359500Y-85094190D01*
X82141478Y-84998459D01*
X81883704Y-85104319D01*
X81651535Y-85258434D01*
X81523501Y-85385695D01*
X81523501Y-84251528D01*
X81563229Y-84347440D01*
X81685088Y-84529815D01*
X81840185Y-84684912D01*
X82022560Y-84806771D01*
X82225204Y-84890709D01*
X82440330Y-84933500D01*
X82659670Y-84933500D01*
X82874796Y-84890709D01*
X83077440Y-84806771D01*
X83259815Y-84684912D01*
X83414912Y-84529815D01*
X83536771Y-84347440D01*
X83620709Y-84144796D01*
X83663500Y-83929670D01*
X83663500Y-83710330D01*
X83620709Y-83495204D01*
X83536771Y-83292560D01*
X83414912Y-83110185D01*
X83259815Y-82955088D01*
X83077440Y-82833229D01*
X82874796Y-82749291D01*
X82659670Y-82706500D01*
X82440330Y-82706500D01*
X82225204Y-82749291D01*
X82022560Y-82833229D01*
X81840185Y-82955088D01*
X81685088Y-83110185D01*
X81563229Y-83292560D01*
X81523501Y-83388472D01*
X81523501Y-81711528D01*
X81563229Y-81807440D01*
X81685088Y-81989815D01*
X81840185Y-82144912D01*
X82022560Y-82266771D01*
X82225204Y-82350709D01*
X82440330Y-82393500D01*
X82659670Y-82393500D01*
X82874796Y-82350709D01*
X83077440Y-82266771D01*
X83259815Y-82144912D01*
X83414912Y-81989815D01*
X83536771Y-81807440D01*
X83620709Y-81604796D01*
X83663500Y-81389670D01*
X83663500Y-81170330D01*
X83620709Y-80955204D01*
X83536771Y-80752560D01*
X83414912Y-80570185D01*
X83259815Y-80415088D01*
X83077440Y-80293229D01*
X82874796Y-80209291D01*
X82659670Y-80166500D01*
X82440330Y-80166500D01*
X82225204Y-80209291D01*
X82022560Y-80293229D01*
X81840185Y-80415088D01*
X81685088Y-80570185D01*
X81563229Y-80752560D01*
X81523501Y-80848472D01*
X81523501Y-79171528D01*
X81563229Y-79267440D01*
X81685088Y-79449815D01*
X81840185Y-79604912D01*
X82022560Y-79726771D01*
X82225204Y-79810709D01*
X82440330Y-79853500D01*
X82659670Y-79853500D01*
X82874796Y-79810709D01*
X83077440Y-79726771D01*
X83259815Y-79604912D01*
X83414912Y-79449815D01*
X83536771Y-79267440D01*
X83620709Y-79064796D01*
X83663500Y-78849670D01*
X83663500Y-78630330D01*
X83620709Y-78415204D01*
X83536771Y-78212560D01*
X83414912Y-78030185D01*
X83259815Y-77875088D01*
X83077440Y-77753229D01*
X82874796Y-77669291D01*
X82659670Y-77626500D01*
X82440330Y-77626500D01*
X82225204Y-77669291D01*
X82022560Y-77753229D01*
X81840185Y-77875088D01*
X81685088Y-78030185D01*
X81563229Y-78212560D01*
X81523501Y-78308472D01*
X81523501Y-76631528D01*
X81563229Y-76727440D01*
X81685088Y-76909815D01*
X81840185Y-77064912D01*
X82022560Y-77186771D01*
X82225204Y-77270709D01*
X82440330Y-77313500D01*
X82659670Y-77313500D01*
X82874796Y-77270709D01*
X83077440Y-77186771D01*
X83259815Y-77064912D01*
X83414912Y-76909815D01*
X83536771Y-76727440D01*
X83620709Y-76524796D01*
X83663500Y-76309670D01*
X83663500Y-76090330D01*
X83620709Y-75875204D01*
X83536771Y-75672560D01*
X83414912Y-75490185D01*
X83259815Y-75335088D01*
X83077440Y-75213229D01*
X82874796Y-75129291D01*
X82659670Y-75086500D01*
X82440330Y-75086500D01*
X82225204Y-75129291D01*
X82022560Y-75213229D01*
X81840185Y-75335088D01*
X81685088Y-75490185D01*
X81563229Y-75672560D01*
X81523501Y-75768472D01*
X81523501Y-74091528D01*
X81563229Y-74187440D01*
X81685088Y-74369815D01*
X81840185Y-74524912D01*
X82022560Y-74646771D01*
X82225204Y-74730709D01*
X82440330Y-74773500D01*
X82659670Y-74773500D01*
X82874796Y-74730709D01*
X83077440Y-74646771D01*
X83259815Y-74524912D01*
X83414912Y-74369815D01*
X83536771Y-74187440D01*
X83620709Y-73984796D01*
X83663500Y-73769670D01*
X83663500Y-73550330D01*
X83620709Y-73335204D01*
X83536771Y-73132560D01*
X83414912Y-72950185D01*
X83259815Y-72795088D01*
X83077440Y-72673229D01*
X82874796Y-72589291D01*
X82659670Y-72546500D01*
X82440330Y-72546500D01*
X82225204Y-72589291D01*
X82022560Y-72673229D01*
X81840185Y-72795088D01*
X81685088Y-72950185D01*
X81563229Y-73132560D01*
X81523501Y-73228472D01*
X81523501Y-71551528D01*
X81563229Y-71647440D01*
X81685088Y-71829815D01*
X81840185Y-71984912D01*
X82022560Y-72106771D01*
X82225204Y-72190709D01*
X82440330Y-72233500D01*
X82659670Y-72233500D01*
X82874796Y-72190709D01*
X83077440Y-72106771D01*
X83259815Y-71984912D01*
X83414912Y-71829815D01*
X83536771Y-71647440D01*
X83620709Y-71444796D01*
X83663500Y-71229670D01*
X83663500Y-71010330D01*
X83620709Y-70795204D01*
X83536771Y-70592560D01*
X83414912Y-70410185D01*
X83259815Y-70255088D01*
X83077440Y-70133229D01*
X82874796Y-70049291D01*
X82659670Y-70006500D01*
X82440330Y-70006500D01*
X82225204Y-70049291D01*
X82022560Y-70133229D01*
X81840185Y-70255088D01*
X81685088Y-70410185D01*
X81563229Y-70592560D01*
X81523501Y-70688472D01*
X81523501Y-70123420D01*
X82647148Y-68999774D01*
X83306250Y-68999774D01*
X83405458Y-68990003D01*
X83500854Y-68961065D01*
X83588771Y-68914072D01*
X83665831Y-68850831D01*
X83729072Y-68773771D01*
X83770501Y-68696264D01*
X83770501Y-85639837D01*
X83646106Y-85454882D01*
X83448465Y-85258434D01*
X83216296Y-85104319D01*
X82958522Y-84998459D01*
X82740500Y-85094190D01*
X82740500Y-86169500D01*
X82760500Y-86169500D01*
X82760500Y-86550500D01*
X82740500Y-86550500D01*
X82740500Y-87625810D01*
X82958522Y-87721541D01*
X83216296Y-87615681D01*
X83448465Y-87461566D01*
X83646106Y-87265118D01*
X83770501Y-87080163D01*
X83770500Y-122124500D01*
X68629500Y-122124500D01*
X68629500Y-119282667D01*
X72284913Y-119282667D01*
X72288495Y-119294504D01*
X72397275Y-119553953D01*
X72554580Y-119787195D01*
X72754366Y-119985267D01*
X72988955Y-120140556D01*
X73249332Y-120247095D01*
X73469500Y-120151533D01*
X73469500Y-119062500D01*
X72381894Y-119062500D01*
X72284913Y-119282667D01*
X68629500Y-119282667D01*
X68629500Y-118461333D01*
X72284913Y-118461333D01*
X72381894Y-118681500D01*
X73469500Y-118681500D01*
X73469500Y-118661500D01*
X73850500Y-118661500D01*
X73850500Y-118681500D01*
X73870500Y-118681500D01*
X73870500Y-119062500D01*
X73850500Y-119062500D01*
X73850500Y-120151533D01*
X74070668Y-120247095D01*
X74331045Y-120140556D01*
X74565634Y-119985267D01*
X74765420Y-119787195D01*
X74922725Y-119553953D01*
X75031505Y-119294504D01*
X75035087Y-119282667D01*
X74938107Y-119062502D01*
X75088712Y-119062502D01*
X75116213Y-119200763D01*
X75201177Y-119405882D01*
X75324524Y-119590485D01*
X75481515Y-119747476D01*
X75666118Y-119870823D01*
X75871237Y-119955787D01*
X76088990Y-119999100D01*
X76311010Y-119999100D01*
X76528763Y-119955787D01*
X76733882Y-119870823D01*
X76918485Y-119747476D01*
X77075476Y-119590485D01*
X77198823Y-119405882D01*
X77283787Y-119200763D01*
X77327100Y-118983010D01*
X77327100Y-118760990D01*
X77612900Y-118760990D01*
X77612900Y-118983010D01*
X77656213Y-119200763D01*
X77741177Y-119405882D01*
X77864524Y-119590485D01*
X78021515Y-119747476D01*
X78206118Y-119870823D01*
X78411237Y-119955787D01*
X78628990Y-119999100D01*
X78851010Y-119999100D01*
X79068763Y-119955787D01*
X79273882Y-119870823D01*
X79458485Y-119747476D01*
X79615476Y-119590485D01*
X79738823Y-119405882D01*
X79823787Y-119200763D01*
X79867100Y-118983010D01*
X79867100Y-118760990D01*
X79823787Y-118543237D01*
X79738823Y-118338118D01*
X79615476Y-118153515D01*
X79458485Y-117996524D01*
X79273882Y-117873177D01*
X79068763Y-117788213D01*
X78851010Y-117744900D01*
X78628990Y-117744900D01*
X78411237Y-117788213D01*
X78206118Y-117873177D01*
X78021515Y-117996524D01*
X77864524Y-118153515D01*
X77741177Y-118338118D01*
X77656213Y-118543237D01*
X77612900Y-118760990D01*
X77327100Y-118760990D01*
X77283787Y-118543237D01*
X77198823Y-118338118D01*
X77075476Y-118153515D01*
X76918485Y-117996524D01*
X76733882Y-117873177D01*
X76528763Y-117788213D01*
X76311010Y-117744900D01*
X76088990Y-117744900D01*
X75871237Y-117788213D01*
X75666118Y-117873177D01*
X75481515Y-117996524D01*
X75324524Y-118153515D01*
X75201177Y-118338118D01*
X75116213Y-118543237D01*
X75088712Y-118681498D01*
X74938107Y-118681498D01*
X75035087Y-118461333D01*
X75031505Y-118449496D01*
X74922725Y-118190047D01*
X74765420Y-117956805D01*
X74565634Y-117758733D01*
X74331045Y-117603444D01*
X74070668Y-117496905D01*
X73850502Y-117592466D01*
X73850502Y-117443288D01*
X73988763Y-117415787D01*
X74193882Y-117330823D01*
X74378485Y-117207476D01*
X74535476Y-117050485D01*
X74658823Y-116865882D01*
X74743787Y-116660763D01*
X74787100Y-116443010D01*
X74787100Y-116220990D01*
X75072900Y-116220990D01*
X75072900Y-116443010D01*
X75116213Y-116660763D01*
X75201177Y-116865882D01*
X75324524Y-117050485D01*
X75481515Y-117207476D01*
X75666118Y-117330823D01*
X75871237Y-117415787D01*
X76088990Y-117459100D01*
X76311010Y-117459100D01*
X76528763Y-117415787D01*
X76733882Y-117330823D01*
X76918485Y-117207476D01*
X77075476Y-117050485D01*
X77198823Y-116865882D01*
X77283787Y-116660763D01*
X77327100Y-116443010D01*
X77327100Y-116220990D01*
X77283787Y-116003237D01*
X77198823Y-115798118D01*
X77075476Y-115613515D01*
X76930361Y-115468400D01*
X77611626Y-115468400D01*
X77611626Y-117195600D01*
X77616714Y-117247255D01*
X77631781Y-117296925D01*
X77656248Y-117342701D01*
X77689177Y-117382823D01*
X77729299Y-117415752D01*
X77775075Y-117440219D01*
X77824745Y-117455286D01*
X77876400Y-117460374D01*
X79603600Y-117460374D01*
X79655255Y-117455286D01*
X79704925Y-117440219D01*
X79750701Y-117415752D01*
X79790823Y-117382823D01*
X79823752Y-117342701D01*
X79848219Y-117296925D01*
X79863286Y-117247255D01*
X79868374Y-117195600D01*
X79868374Y-115468400D01*
X79863286Y-115416745D01*
X79848219Y-115367075D01*
X79823752Y-115321299D01*
X79790823Y-115281177D01*
X79750701Y-115248248D01*
X79704925Y-115223781D01*
X79655255Y-115208714D01*
X79603600Y-115203626D01*
X77876400Y-115203626D01*
X77824745Y-115208714D01*
X77775075Y-115223781D01*
X77729299Y-115248248D01*
X77689177Y-115281177D01*
X77656248Y-115321299D01*
X77631781Y-115367075D01*
X77616714Y-115416745D01*
X77611626Y-115468400D01*
X76930361Y-115468400D01*
X76918485Y-115456524D01*
X76733882Y-115333177D01*
X76528763Y-115248213D01*
X76311010Y-115204900D01*
X76088990Y-115204900D01*
X75871237Y-115248213D01*
X75666118Y-115333177D01*
X75481515Y-115456524D01*
X75324524Y-115613515D01*
X75201177Y-115798118D01*
X75116213Y-116003237D01*
X75072900Y-116220990D01*
X74787100Y-116220990D01*
X74743787Y-116003237D01*
X74658823Y-115798118D01*
X74535476Y-115613515D01*
X74378485Y-115456524D01*
X74193882Y-115333177D01*
X73988763Y-115248213D01*
X73771010Y-115204900D01*
X73548990Y-115204900D01*
X73331237Y-115248213D01*
X73126118Y-115333177D01*
X72941515Y-115456524D01*
X72784524Y-115613515D01*
X72661177Y-115798118D01*
X72576213Y-116003237D01*
X72532900Y-116220990D01*
X72532900Y-116443010D01*
X72576213Y-116660763D01*
X72661177Y-116865882D01*
X72784524Y-117050485D01*
X72941515Y-117207476D01*
X73126118Y-117330823D01*
X73331237Y-117415787D01*
X73469498Y-117443288D01*
X73469498Y-117592466D01*
X73249332Y-117496905D01*
X72988955Y-117603444D01*
X72754366Y-117758733D01*
X72554580Y-117956805D01*
X72397275Y-118190047D01*
X72288495Y-118449496D01*
X72284913Y-118461333D01*
X68629500Y-118461333D01*
X68629500Y-110899000D01*
X72385735Y-110899000D01*
X72396769Y-111011034D01*
X72429448Y-111118762D01*
X72482516Y-111218045D01*
X72553933Y-111305067D01*
X72640955Y-111376484D01*
X72740238Y-111429552D01*
X72847966Y-111462231D01*
X72960000Y-111473265D01*
X73326625Y-111470500D01*
X73469500Y-111327625D01*
X73469500Y-110602000D01*
X73850500Y-110602000D01*
X73850500Y-111327625D01*
X73993375Y-111470500D01*
X74360000Y-111473265D01*
X74472034Y-111462231D01*
X74579762Y-111429552D01*
X74679045Y-111376484D01*
X74766067Y-111305067D01*
X74837484Y-111218045D01*
X74890552Y-111118762D01*
X74923231Y-111011034D01*
X74934265Y-110899000D01*
X77211735Y-110899000D01*
X77222769Y-111011034D01*
X77255448Y-111118762D01*
X77308516Y-111218045D01*
X77379933Y-111305067D01*
X77466955Y-111376484D01*
X77566238Y-111429552D01*
X77673966Y-111462231D01*
X77786000Y-111473265D01*
X78152625Y-111470500D01*
X78295500Y-111327625D01*
X78295500Y-110602000D01*
X78676500Y-110602000D01*
X78676500Y-111327625D01*
X78819375Y-111470500D01*
X79186000Y-111473265D01*
X79298034Y-111462231D01*
X79405762Y-111429552D01*
X79505045Y-111376484D01*
X79592067Y-111305067D01*
X79663484Y-111218045D01*
X79716552Y-111118762D01*
X79749231Y-111011034D01*
X79760265Y-110899000D01*
X79757500Y-110744875D01*
X79614625Y-110602000D01*
X78676500Y-110602000D01*
X78295500Y-110602000D01*
X77357375Y-110602000D01*
X77214500Y-110744875D01*
X77211735Y-110899000D01*
X74934265Y-110899000D01*
X74931500Y-110744875D01*
X74788625Y-110602000D01*
X73850500Y-110602000D01*
X73469500Y-110602000D01*
X72531375Y-110602000D01*
X72388500Y-110744875D01*
X72385735Y-110899000D01*
X68629500Y-110899000D01*
X68629500Y-110380330D01*
X81436500Y-110380330D01*
X81436500Y-110599670D01*
X81479291Y-110814796D01*
X81563229Y-111017440D01*
X81685088Y-111199815D01*
X81840185Y-111354912D01*
X82022560Y-111476771D01*
X82225204Y-111560709D01*
X82440330Y-111603500D01*
X82659670Y-111603500D01*
X82874796Y-111560709D01*
X83077440Y-111476771D01*
X83259815Y-111354912D01*
X83414912Y-111199815D01*
X83536771Y-111017440D01*
X83620709Y-110814796D01*
X83663500Y-110599670D01*
X83663500Y-110380330D01*
X83620709Y-110165204D01*
X83536771Y-109962560D01*
X83414912Y-109780185D01*
X83259815Y-109625088D01*
X83077440Y-109503229D01*
X82874796Y-109419291D01*
X82659670Y-109376500D01*
X82440330Y-109376500D01*
X82225204Y-109419291D01*
X82022560Y-109503229D01*
X81840185Y-109625088D01*
X81685088Y-109780185D01*
X81563229Y-109962560D01*
X81479291Y-110165204D01*
X81436500Y-110380330D01*
X68629500Y-110380330D01*
X68629500Y-109120179D01*
X70560500Y-109120179D01*
X70560500Y-109319821D01*
X70599448Y-109515627D01*
X70675848Y-109700072D01*
X70786763Y-109866069D01*
X70927931Y-110007237D01*
X71093928Y-110118152D01*
X71278373Y-110194552D01*
X71474179Y-110233500D01*
X71673821Y-110233500D01*
X71869627Y-110194552D01*
X72054072Y-110118152D01*
X72220069Y-110007237D01*
X72361237Y-109866069D01*
X72396662Y-109813051D01*
X72385735Y-109924000D01*
X72388500Y-110078125D01*
X72531375Y-110221000D01*
X73469500Y-110221000D01*
X73469500Y-109495375D01*
X73850500Y-109495375D01*
X73850500Y-110221000D01*
X74788625Y-110221000D01*
X74931500Y-110078125D01*
X74934265Y-109924000D01*
X74923231Y-109811966D01*
X74890552Y-109704238D01*
X74837484Y-109604955D01*
X74766067Y-109517933D01*
X74679045Y-109446516D01*
X74579762Y-109393448D01*
X74472034Y-109360769D01*
X74360000Y-109349735D01*
X73993375Y-109352500D01*
X73850500Y-109495375D01*
X73469500Y-109495375D01*
X73326625Y-109352500D01*
X72960000Y-109349735D01*
X72847966Y-109360769D01*
X72740238Y-109393448D01*
X72640955Y-109446516D01*
X72553933Y-109517933D01*
X72541140Y-109533522D01*
X72548552Y-109515627D01*
X72587500Y-109319821D01*
X72587500Y-109120179D01*
X72548552Y-108924373D01*
X72522923Y-108862500D01*
X72703327Y-108862500D01*
X72704997Y-108879458D01*
X72733935Y-108974854D01*
X72780928Y-109062771D01*
X72844169Y-109139831D01*
X72921229Y-109203072D01*
X73009146Y-109250065D01*
X73104542Y-109279003D01*
X73203750Y-109288774D01*
X74116250Y-109288774D01*
X74215458Y-109279003D01*
X74310854Y-109250065D01*
X74398771Y-109203072D01*
X74475831Y-109139831D01*
X74491958Y-109120179D01*
X75440500Y-109120179D01*
X75440500Y-109319821D01*
X75479448Y-109515627D01*
X75555848Y-109700072D01*
X75666763Y-109866069D01*
X75807931Y-110007237D01*
X75973928Y-110118152D01*
X76158373Y-110194552D01*
X76354179Y-110233500D01*
X76553821Y-110233500D01*
X76749627Y-110194552D01*
X76934072Y-110118152D01*
X77100069Y-110007237D01*
X77214841Y-109892465D01*
X77211735Y-109924000D01*
X77214500Y-110078125D01*
X77357375Y-110221000D01*
X78295500Y-110221000D01*
X78295500Y-109495375D01*
X78676500Y-109495375D01*
X78676500Y-110221000D01*
X79614625Y-110221000D01*
X79757500Y-110078125D01*
X79760265Y-109924000D01*
X79749231Y-109811966D01*
X79716552Y-109704238D01*
X79663484Y-109604955D01*
X79592067Y-109517933D01*
X79505045Y-109446516D01*
X79405762Y-109393448D01*
X79298034Y-109360769D01*
X79186000Y-109349735D01*
X78819375Y-109352500D01*
X78676500Y-109495375D01*
X78295500Y-109495375D01*
X78152625Y-109352500D01*
X77786000Y-109349735D01*
X77673966Y-109360769D01*
X77566238Y-109393448D01*
X77466955Y-109446516D01*
X77437489Y-109470698D01*
X77467500Y-109319821D01*
X77467500Y-109120179D01*
X77428552Y-108924373D01*
X77402923Y-108862500D01*
X77529327Y-108862500D01*
X77530997Y-108879458D01*
X77559935Y-108974854D01*
X77606928Y-109062771D01*
X77670169Y-109139831D01*
X77747229Y-109203072D01*
X77835146Y-109250065D01*
X77930542Y-109279003D01*
X78029750Y-109288774D01*
X78942250Y-109288774D01*
X79041458Y-109279003D01*
X79136854Y-109250065D01*
X79224771Y-109203072D01*
X79301831Y-109139831D01*
X79365072Y-109062771D01*
X79412065Y-108974854D01*
X79441003Y-108879458D01*
X79450774Y-108780250D01*
X79450774Y-108292750D01*
X79441003Y-108193542D01*
X79412065Y-108098146D01*
X79365072Y-108010229D01*
X79301831Y-107933169D01*
X79224771Y-107869928D01*
X79136854Y-107822935D01*
X79041458Y-107793997D01*
X78942250Y-107784226D01*
X78029750Y-107784226D01*
X77930542Y-107793997D01*
X77835146Y-107822935D01*
X77747229Y-107869928D01*
X77670169Y-107933169D01*
X77606928Y-108010229D01*
X77566694Y-108085500D01*
X77219074Y-108085500D01*
X77199999Y-108083621D01*
X77180924Y-108085500D01*
X77180922Y-108085500D01*
X77123841Y-108091122D01*
X77050608Y-108113337D01*
X76983117Y-108149412D01*
X76923960Y-108197960D01*
X76911797Y-108212782D01*
X76841199Y-108283379D01*
X76749627Y-108245448D01*
X76553821Y-108206500D01*
X76354179Y-108206500D01*
X76158373Y-108245448D01*
X75973928Y-108321848D01*
X75807931Y-108432763D01*
X75666763Y-108573931D01*
X75555848Y-108739928D01*
X75479448Y-108924373D01*
X75440500Y-109120179D01*
X74491958Y-109120179D01*
X74539072Y-109062771D01*
X74586065Y-108974854D01*
X74615003Y-108879458D01*
X74624774Y-108780250D01*
X74624774Y-108292750D01*
X74615003Y-108193542D01*
X74586065Y-108098146D01*
X74539072Y-108010229D01*
X74475831Y-107933169D01*
X74398771Y-107869928D01*
X74310854Y-107822935D01*
X74215458Y-107793997D01*
X74116250Y-107784226D01*
X73203750Y-107784226D01*
X73104542Y-107793997D01*
X73009146Y-107822935D01*
X72921229Y-107869928D01*
X72844169Y-107933169D01*
X72780928Y-108010229D01*
X72740694Y-108085500D01*
X72339074Y-108085500D01*
X72319999Y-108083621D01*
X72300924Y-108085500D01*
X72300922Y-108085500D01*
X72243841Y-108091122D01*
X72170608Y-108113337D01*
X72103117Y-108149412D01*
X72043960Y-108197960D01*
X72031797Y-108212782D01*
X71961199Y-108283379D01*
X71869627Y-108245448D01*
X71673821Y-108206500D01*
X71474179Y-108206500D01*
X71278373Y-108245448D01*
X71093928Y-108321848D01*
X70927931Y-108432763D01*
X70786763Y-108573931D01*
X70675848Y-108739928D01*
X70599448Y-108924373D01*
X70560500Y-109120179D01*
X68629500Y-109120179D01*
X68629500Y-89620164D01*
X68753894Y-89805118D01*
X68951535Y-90001566D01*
X69183704Y-90155681D01*
X69441478Y-90261541D01*
X69659500Y-90165810D01*
X69659500Y-89090500D01*
X69639500Y-89090500D01*
X69639500Y-88709500D01*
X69659500Y-88709500D01*
X69659500Y-87634190D01*
X69441478Y-87538459D01*
X69183704Y-87644319D01*
X68951535Y-87798434D01*
X68753894Y-87994882D01*
X68629500Y-88179836D01*
X68629500Y-70270000D01*
X68735226Y-70270000D01*
X68735226Y-71970000D01*
X68740314Y-72021655D01*
X68755381Y-72071325D01*
X68779848Y-72117101D01*
X68812777Y-72157223D01*
X68852899Y-72190152D01*
X68898675Y-72214619D01*
X68948345Y-72229686D01*
X69000000Y-72234774D01*
X70700000Y-72234774D01*
X70751655Y-72229686D01*
X70767792Y-72224791D01*
X70759337Y-72240609D01*
X70737123Y-72313842D01*
X70729621Y-72390000D01*
X70731501Y-72409085D01*
X70731501Y-72975012D01*
X70714912Y-72950185D01*
X70559815Y-72795088D01*
X70377440Y-72673229D01*
X70174796Y-72589291D01*
X69959670Y-72546500D01*
X69740330Y-72546500D01*
X69525204Y-72589291D01*
X69322560Y-72673229D01*
X69140185Y-72795088D01*
X68985088Y-72950185D01*
X68863229Y-73132560D01*
X68779291Y-73335204D01*
X68736500Y-73550330D01*
X68736500Y-73769670D01*
X68779291Y-73984796D01*
X68863229Y-74187440D01*
X68985088Y-74369815D01*
X69140185Y-74524912D01*
X69322560Y-74646771D01*
X69525204Y-74730709D01*
X69740330Y-74773500D01*
X69959670Y-74773500D01*
X70174796Y-74730709D01*
X70377440Y-74646771D01*
X70559815Y-74524912D01*
X70714912Y-74369815D01*
X70731501Y-74344988D01*
X70731501Y-75515012D01*
X70714912Y-75490185D01*
X70559815Y-75335088D01*
X70377440Y-75213229D01*
X70174796Y-75129291D01*
X69959670Y-75086500D01*
X69740330Y-75086500D01*
X69525204Y-75129291D01*
X69322560Y-75213229D01*
X69140185Y-75335088D01*
X68985088Y-75490185D01*
X68863229Y-75672560D01*
X68779291Y-75875204D01*
X68736500Y-76090330D01*
X68736500Y-76309670D01*
X68779291Y-76524796D01*
X68863229Y-76727440D01*
X68985088Y-76909815D01*
X69140185Y-77064912D01*
X69322560Y-77186771D01*
X69525204Y-77270709D01*
X69740330Y-77313500D01*
X69959670Y-77313500D01*
X70174796Y-77270709D01*
X70377440Y-77186771D01*
X70559815Y-77064912D01*
X70714912Y-76909815D01*
X70731501Y-76884988D01*
X70731501Y-78055012D01*
X70714912Y-78030185D01*
X70559815Y-77875088D01*
X70377440Y-77753229D01*
X70174796Y-77669291D01*
X69959670Y-77626500D01*
X69740330Y-77626500D01*
X69525204Y-77669291D01*
X69322560Y-77753229D01*
X69140185Y-77875088D01*
X68985088Y-78030185D01*
X68863229Y-78212560D01*
X68779291Y-78415204D01*
X68736500Y-78630330D01*
X68736500Y-78849670D01*
X68779291Y-79064796D01*
X68863229Y-79267440D01*
X68985088Y-79449815D01*
X69140185Y-79604912D01*
X69322560Y-79726771D01*
X69525204Y-79810709D01*
X69740330Y-79853500D01*
X69959670Y-79853500D01*
X70174796Y-79810709D01*
X70377440Y-79726771D01*
X70559815Y-79604912D01*
X70714912Y-79449815D01*
X70731501Y-79424988D01*
X70731501Y-80595012D01*
X70714912Y-80570185D01*
X70559815Y-80415088D01*
X70377440Y-80293229D01*
X70174796Y-80209291D01*
X69959670Y-80166500D01*
X69740330Y-80166500D01*
X69525204Y-80209291D01*
X69322560Y-80293229D01*
X69140185Y-80415088D01*
X68985088Y-80570185D01*
X68863229Y-80752560D01*
X68779291Y-80955204D01*
X68736500Y-81170330D01*
X68736500Y-81389670D01*
X68779291Y-81604796D01*
X68863229Y-81807440D01*
X68985088Y-81989815D01*
X69140185Y-82144912D01*
X69322560Y-82266771D01*
X69525204Y-82350709D01*
X69740330Y-82393500D01*
X69959670Y-82393500D01*
X70174796Y-82350709D01*
X70377440Y-82266771D01*
X70559815Y-82144912D01*
X70714912Y-81989815D01*
X70731501Y-81964988D01*
X70731501Y-83135012D01*
X70714912Y-83110185D01*
X70559815Y-82955088D01*
X70377440Y-82833229D01*
X70174796Y-82749291D01*
X69959670Y-82706500D01*
X69740330Y-82706500D01*
X69525204Y-82749291D01*
X69322560Y-82833229D01*
X69140185Y-82955088D01*
X68985088Y-83110185D01*
X68863229Y-83292560D01*
X68779291Y-83495204D01*
X68736500Y-83710330D01*
X68736500Y-83929670D01*
X68779291Y-84144796D01*
X68863229Y-84347440D01*
X68985088Y-84529815D01*
X69140185Y-84684912D01*
X69322560Y-84806771D01*
X69525204Y-84890709D01*
X69740330Y-84933500D01*
X69959670Y-84933500D01*
X70174796Y-84890709D01*
X70377440Y-84806771D01*
X70559815Y-84684912D01*
X70714912Y-84529815D01*
X70731501Y-84504988D01*
X70731501Y-85675012D01*
X70714912Y-85650185D01*
X70559815Y-85495088D01*
X70377440Y-85373229D01*
X70174796Y-85289291D01*
X69959670Y-85246500D01*
X69740330Y-85246500D01*
X69525204Y-85289291D01*
X69322560Y-85373229D01*
X69140185Y-85495088D01*
X68985088Y-85650185D01*
X68863229Y-85832560D01*
X68779291Y-86035204D01*
X68736500Y-86250330D01*
X68736500Y-86469670D01*
X68779291Y-86684796D01*
X68863229Y-86887440D01*
X68985088Y-87069815D01*
X69140185Y-87224912D01*
X69322560Y-87346771D01*
X69525204Y-87430709D01*
X69740330Y-87473500D01*
X69959670Y-87473500D01*
X70174796Y-87430709D01*
X70377440Y-87346771D01*
X70559815Y-87224912D01*
X70714912Y-87069815D01*
X70731501Y-87044988D01*
X70731501Y-87787173D01*
X70516296Y-87644319D01*
X70258522Y-87538459D01*
X70040500Y-87634190D01*
X70040500Y-88709500D01*
X70060500Y-88709500D01*
X70060500Y-89090500D01*
X70040500Y-89090500D01*
X70040500Y-90165810D01*
X70258522Y-90261541D01*
X70516296Y-90155681D01*
X70731500Y-90012827D01*
X70731500Y-90755011D01*
X70714912Y-90730185D01*
X70559815Y-90575088D01*
X70377440Y-90453229D01*
X70174796Y-90369291D01*
X69959670Y-90326500D01*
X69740330Y-90326500D01*
X69525204Y-90369291D01*
X69322560Y-90453229D01*
X69140185Y-90575088D01*
X68985088Y-90730185D01*
X68863229Y-90912560D01*
X68779291Y-91115204D01*
X68736500Y-91330330D01*
X68736500Y-91549670D01*
X68779291Y-91764796D01*
X68863229Y-91967440D01*
X68985088Y-92149815D01*
X69140185Y-92304912D01*
X69322560Y-92426771D01*
X69525204Y-92510709D01*
X69740330Y-92553500D01*
X69959670Y-92553500D01*
X70174796Y-92510709D01*
X70377440Y-92426771D01*
X70559815Y-92304912D01*
X70714912Y-92149815D01*
X70731500Y-92124989D01*
X70731500Y-93295011D01*
X70714912Y-93270185D01*
X70559815Y-93115088D01*
X70377440Y-92993229D01*
X70174796Y-92909291D01*
X69959670Y-92866500D01*
X69740330Y-92866500D01*
X69525204Y-92909291D01*
X69322560Y-92993229D01*
X69140185Y-93115088D01*
X68985088Y-93270185D01*
X68863229Y-93452560D01*
X68779291Y-93655204D01*
X68736500Y-93870330D01*
X68736500Y-94089670D01*
X68779291Y-94304796D01*
X68863229Y-94507440D01*
X68985088Y-94689815D01*
X69140185Y-94844912D01*
X69322560Y-94966771D01*
X69525204Y-95050709D01*
X69740330Y-95093500D01*
X69959670Y-95093500D01*
X70174796Y-95050709D01*
X70377440Y-94966771D01*
X70559815Y-94844912D01*
X70714912Y-94689815D01*
X70731500Y-94664989D01*
X70731500Y-95835011D01*
X70714912Y-95810185D01*
X70559815Y-95655088D01*
X70377440Y-95533229D01*
X70174796Y-95449291D01*
X69959670Y-95406500D01*
X69740330Y-95406500D01*
X69525204Y-95449291D01*
X69322560Y-95533229D01*
X69140185Y-95655088D01*
X68985088Y-95810185D01*
X68863229Y-95992560D01*
X68779291Y-96195204D01*
X68736500Y-96410330D01*
X68736500Y-96629670D01*
X68779291Y-96844796D01*
X68863229Y-97047440D01*
X68985088Y-97229815D01*
X69140185Y-97384912D01*
X69322560Y-97506771D01*
X69525204Y-97590709D01*
X69740330Y-97633500D01*
X69959670Y-97633500D01*
X70174796Y-97590709D01*
X70377440Y-97506771D01*
X70559815Y-97384912D01*
X70714912Y-97229815D01*
X70731500Y-97204989D01*
X70731500Y-98375011D01*
X70714912Y-98350185D01*
X70559815Y-98195088D01*
X70377440Y-98073229D01*
X70174796Y-97989291D01*
X69959670Y-97946500D01*
X69740330Y-97946500D01*
X69525204Y-97989291D01*
X69322560Y-98073229D01*
X69140185Y-98195088D01*
X68985088Y-98350185D01*
X68863229Y-98532560D01*
X68779291Y-98735204D01*
X68736500Y-98950330D01*
X68736500Y-99169670D01*
X68779291Y-99384796D01*
X68863229Y-99587440D01*
X68985088Y-99769815D01*
X69140185Y-99924912D01*
X69322560Y-100046771D01*
X69525204Y-100130709D01*
X69740330Y-100173500D01*
X69959670Y-100173500D01*
X70174796Y-100130709D01*
X70377440Y-100046771D01*
X70559815Y-99924912D01*
X70714912Y-99769815D01*
X70731500Y-99744989D01*
X70731500Y-100915011D01*
X70714912Y-100890185D01*
X70559815Y-100735088D01*
X70377440Y-100613229D01*
X70174796Y-100529291D01*
X69959670Y-100486500D01*
X69740330Y-100486500D01*
X69525204Y-100529291D01*
X69322560Y-100613229D01*
X69140185Y-100735088D01*
X68985088Y-100890185D01*
X68863229Y-101072560D01*
X68779291Y-101275204D01*
X68736500Y-101490330D01*
X68736500Y-101709670D01*
X68779291Y-101924796D01*
X68863229Y-102127440D01*
X68985088Y-102309815D01*
X69140185Y-102464912D01*
X69322560Y-102586771D01*
X69525204Y-102670709D01*
X69740330Y-102713500D01*
X69959670Y-102713500D01*
X70174796Y-102670709D01*
X70377440Y-102586771D01*
X70559815Y-102464912D01*
X70714912Y-102309815D01*
X70731500Y-102284989D01*
X70731500Y-103455011D01*
X70714912Y-103430185D01*
X70559815Y-103275088D01*
X70377440Y-103153229D01*
X70174796Y-103069291D01*
X69959670Y-103026500D01*
X69740330Y-103026500D01*
X69525204Y-103069291D01*
X69322560Y-103153229D01*
X69140185Y-103275088D01*
X68985088Y-103430185D01*
X68863229Y-103612560D01*
X68779291Y-103815204D01*
X68736500Y-104030330D01*
X68736500Y-104249670D01*
X68779291Y-104464796D01*
X68863229Y-104667440D01*
X68985088Y-104849815D01*
X69140185Y-105004912D01*
X69322560Y-105126771D01*
X69525204Y-105210709D01*
X69740330Y-105253500D01*
X69959670Y-105253500D01*
X70174796Y-105210709D01*
X70377440Y-105126771D01*
X70559815Y-105004912D01*
X70714912Y-104849815D01*
X70731500Y-104824989D01*
X70731500Y-105382590D01*
X70682301Y-105431789D01*
X70620632Y-105524082D01*
X70578155Y-105626633D01*
X70556500Y-105735500D01*
X70556500Y-105846500D01*
X70578155Y-105955367D01*
X70620632Y-106057918D01*
X70682301Y-106150211D01*
X70760789Y-106228699D01*
X70853082Y-106290368D01*
X70955633Y-106332845D01*
X71064500Y-106354500D01*
X71175500Y-106354500D01*
X71284367Y-106332845D01*
X71386918Y-106290368D01*
X71479211Y-106228699D01*
X71557699Y-106150211D01*
X71619368Y-106057918D01*
X71661845Y-105955367D01*
X71683500Y-105846500D01*
X71683500Y-105735500D01*
X71661845Y-105626633D01*
X71619368Y-105524082D01*
X71557699Y-105431789D01*
X71508500Y-105382590D01*
X71508500Y-104734992D01*
X71563925Y-104817942D01*
X71712058Y-104966075D01*
X71886244Y-105082462D01*
X72079788Y-105162630D01*
X72285254Y-105203500D01*
X72494746Y-105203500D01*
X72700212Y-105162630D01*
X72893756Y-105082462D01*
X73067942Y-104966075D01*
X73216075Y-104817942D01*
X73332462Y-104643756D01*
X73412630Y-104450212D01*
X73453500Y-104244746D01*
X73453500Y-104035254D01*
X73412630Y-103829788D01*
X73332462Y-103636244D01*
X73216075Y-103462058D01*
X73067942Y-103313925D01*
X72893756Y-103197538D01*
X72700212Y-103117370D01*
X72494746Y-103076500D01*
X72285254Y-103076500D01*
X72079788Y-103117370D01*
X71886244Y-103197538D01*
X71712058Y-103313925D01*
X71563925Y-103462058D01*
X71508500Y-103545008D01*
X71508500Y-102194992D01*
X71563925Y-102277942D01*
X71712058Y-102426075D01*
X71886244Y-102542462D01*
X72079788Y-102622630D01*
X72285254Y-102663500D01*
X72494746Y-102663500D01*
X72700212Y-102622630D01*
X72893756Y-102542462D01*
X73067942Y-102426075D01*
X73216075Y-102277942D01*
X73332462Y-102103756D01*
X73412630Y-101910212D01*
X73453500Y-101704746D01*
X73453500Y-101495254D01*
X73412630Y-101289788D01*
X73332462Y-101096244D01*
X73216075Y-100922058D01*
X73067942Y-100773925D01*
X72893756Y-100657538D01*
X72700212Y-100577370D01*
X72494746Y-100536500D01*
X72285254Y-100536500D01*
X72079788Y-100577370D01*
X71886244Y-100657538D01*
X71712058Y-100773925D01*
X71563925Y-100922058D01*
X71508500Y-101005008D01*
X71508500Y-99654992D01*
X71563925Y-99737942D01*
X71712058Y-99886075D01*
X71886244Y-100002462D01*
X72079788Y-100082630D01*
X72285254Y-100123500D01*
X72494746Y-100123500D01*
X72700212Y-100082630D01*
X72893756Y-100002462D01*
X73067942Y-99886075D01*
X73216075Y-99737942D01*
X73332462Y-99563756D01*
X73412630Y-99370212D01*
X73453500Y-99164746D01*
X73453500Y-98955254D01*
X73412630Y-98749788D01*
X73332462Y-98556244D01*
X73216075Y-98382058D01*
X73077767Y-98243750D01*
X74410226Y-98243750D01*
X74410226Y-99156250D01*
X74419997Y-99255458D01*
X74448935Y-99350854D01*
X74495928Y-99438771D01*
X74559169Y-99515831D01*
X74636229Y-99579072D01*
X74724146Y-99626065D01*
X74819542Y-99655003D01*
X74918750Y-99664774D01*
X75406250Y-99664774D01*
X75411501Y-99664257D01*
X75411500Y-99991590D01*
X75362301Y-100040789D01*
X75300632Y-100133082D01*
X75258155Y-100235633D01*
X75236500Y-100344500D01*
X75236500Y-100455500D01*
X75258155Y-100564367D01*
X75300632Y-100666918D01*
X75362301Y-100759211D01*
X75440789Y-100837699D01*
X75533082Y-100899368D01*
X75635633Y-100941845D01*
X75744500Y-100963500D01*
X75855500Y-100963500D01*
X75964367Y-100941845D01*
X76066918Y-100899368D01*
X76159211Y-100837699D01*
X76237699Y-100759211D01*
X76299368Y-100666918D01*
X76341845Y-100564367D01*
X76363500Y-100455500D01*
X76363500Y-100344500D01*
X76341845Y-100235633D01*
X76299368Y-100133082D01*
X76237699Y-100040789D01*
X76188500Y-99991590D01*
X76188500Y-99356574D01*
X76190379Y-99337499D01*
X76188500Y-99318422D01*
X76182878Y-99261341D01*
X76160663Y-99188108D01*
X76150808Y-99169670D01*
X76124588Y-99120616D01*
X76088201Y-99076279D01*
X76076040Y-99061460D01*
X76061218Y-99049297D01*
X75914774Y-98902852D01*
X75914774Y-98243750D01*
X75905003Y-98144542D01*
X75876065Y-98049146D01*
X75829072Y-97961229D01*
X75765831Y-97884169D01*
X75688771Y-97820928D01*
X75600854Y-97773935D01*
X75505458Y-97744997D01*
X75406250Y-97735226D01*
X74918750Y-97735226D01*
X74819542Y-97744997D01*
X74724146Y-97773935D01*
X74636229Y-97820928D01*
X74559169Y-97884169D01*
X74495928Y-97961229D01*
X74448935Y-98049146D01*
X74419997Y-98144542D01*
X74410226Y-98243750D01*
X73077767Y-98243750D01*
X73067942Y-98233925D01*
X72893756Y-98117538D01*
X72700212Y-98037370D01*
X72494746Y-97996500D01*
X72285254Y-97996500D01*
X72079788Y-98037370D01*
X71886244Y-98117538D01*
X71712058Y-98233925D01*
X71563925Y-98382058D01*
X71508500Y-98465008D01*
X71508500Y-97114992D01*
X71563925Y-97197942D01*
X71712058Y-97346075D01*
X71886244Y-97462462D01*
X72079788Y-97542630D01*
X72285254Y-97583500D01*
X72494746Y-97583500D01*
X72700212Y-97542630D01*
X72893756Y-97462462D01*
X73067942Y-97346075D01*
X73216075Y-97197942D01*
X73332462Y-97023756D01*
X73412630Y-96830212D01*
X73453500Y-96624746D01*
X73453500Y-96415254D01*
X73412630Y-96209788D01*
X73332462Y-96016244D01*
X73216075Y-95842058D01*
X73067942Y-95693925D01*
X72893756Y-95577538D01*
X72700212Y-95497370D01*
X72494746Y-95456500D01*
X72285254Y-95456500D01*
X72079788Y-95497370D01*
X71886244Y-95577538D01*
X71712058Y-95693925D01*
X71563925Y-95842058D01*
X71508500Y-95925008D01*
X71508500Y-95243750D01*
X74447726Y-95243750D01*
X74447726Y-96156250D01*
X74457497Y-96255458D01*
X74486435Y-96350854D01*
X74533428Y-96438771D01*
X74596669Y-96515831D01*
X74673729Y-96579072D01*
X74761646Y-96626065D01*
X74857042Y-96655003D01*
X74956250Y-96664774D01*
X75443750Y-96664774D01*
X75542958Y-96655003D01*
X75638354Y-96626065D01*
X75726271Y-96579072D01*
X75803331Y-96515831D01*
X75866572Y-96438771D01*
X75913565Y-96350854D01*
X75942503Y-96255458D01*
X75952274Y-96156250D01*
X75952274Y-95497148D01*
X76344522Y-95104900D01*
X76332497Y-95144542D01*
X76322726Y-95243750D01*
X76322726Y-96156250D01*
X76332497Y-96255458D01*
X76361435Y-96350854D01*
X76408428Y-96438771D01*
X76471669Y-96515831D01*
X76548729Y-96579072D01*
X76611500Y-96612624D01*
X76611501Y-97770187D01*
X76599146Y-97773935D01*
X76511229Y-97820928D01*
X76434169Y-97884169D01*
X76370928Y-97961229D01*
X76323935Y-98049146D01*
X76294997Y-98144542D01*
X76285226Y-98243750D01*
X76285226Y-99156250D01*
X76294997Y-99255458D01*
X76323935Y-99350854D01*
X76370928Y-99438771D01*
X76434169Y-99515831D01*
X76511229Y-99579072D01*
X76574001Y-99612625D01*
X76574000Y-103664747D01*
X76571759Y-103687500D01*
X76574000Y-103710253D01*
X76574000Y-103710263D01*
X76580707Y-103778361D01*
X76596307Y-103829788D01*
X76607210Y-103865731D01*
X76650250Y-103946252D01*
X76692377Y-103997584D01*
X76708171Y-104016829D01*
X76725854Y-104031341D01*
X80956163Y-108261651D01*
X80970671Y-108279329D01*
X80988349Y-108293837D01*
X80988352Y-108293840D01*
X81041247Y-108337250D01*
X81084287Y-108360255D01*
X81121768Y-108380290D01*
X81209138Y-108406793D01*
X81277236Y-108413500D01*
X81277245Y-108413500D01*
X81299999Y-108415741D01*
X81322753Y-108413500D01*
X81435226Y-108413500D01*
X81435226Y-108800000D01*
X81440314Y-108851655D01*
X81455381Y-108901325D01*
X81479848Y-108947101D01*
X81512777Y-108987223D01*
X81552899Y-109020152D01*
X81598675Y-109044619D01*
X81648345Y-109059686D01*
X81700000Y-109064774D01*
X83400000Y-109064774D01*
X83451655Y-109059686D01*
X83501325Y-109044619D01*
X83547101Y-109020152D01*
X83587223Y-108987223D01*
X83620152Y-108947101D01*
X83644619Y-108901325D01*
X83659686Y-108851655D01*
X83664774Y-108800000D01*
X83664774Y-107100000D01*
X83659686Y-107048345D01*
X83644619Y-106998675D01*
X83620152Y-106952899D01*
X83587223Y-106912777D01*
X83547101Y-106879848D01*
X83501325Y-106855381D01*
X83451655Y-106840314D01*
X83400000Y-106835226D01*
X81700000Y-106835226D01*
X81648345Y-106840314D01*
X81598675Y-106855381D01*
X81552899Y-106879848D01*
X81512777Y-106912777D01*
X81479848Y-106952899D01*
X81455381Y-106998675D01*
X81440314Y-107048345D01*
X81435226Y-107100000D01*
X81435226Y-107429738D01*
X77501000Y-103495513D01*
X77501000Y-99612624D01*
X77563771Y-99579072D01*
X77640831Y-99515831D01*
X77704072Y-99438771D01*
X77751065Y-99350854D01*
X77780003Y-99255458D01*
X77789774Y-99156250D01*
X77789774Y-98955254D01*
X78946500Y-98955254D01*
X78946500Y-99164746D01*
X78987370Y-99370212D01*
X79067538Y-99563756D01*
X79183925Y-99737942D01*
X79332058Y-99886075D01*
X79506244Y-100002462D01*
X79699788Y-100082630D01*
X79905254Y-100123500D01*
X80114746Y-100123500D01*
X80320212Y-100082630D01*
X80435468Y-100034890D01*
X80764500Y-100363922D01*
X80764500Y-100666077D01*
X80764501Y-100666087D01*
X80764501Y-100850484D01*
X80687942Y-100773925D01*
X80513756Y-100657538D01*
X80320212Y-100577370D01*
X80114746Y-100536500D01*
X79905254Y-100536500D01*
X79699788Y-100577370D01*
X79506244Y-100657538D01*
X79332058Y-100773925D01*
X79183925Y-100922058D01*
X79067538Y-101096244D01*
X78987370Y-101289788D01*
X78946500Y-101495254D01*
X78946500Y-101704746D01*
X78987370Y-101910212D01*
X79067538Y-102103756D01*
X79183925Y-102277942D01*
X79332058Y-102426075D01*
X79506244Y-102542462D01*
X79699788Y-102622630D01*
X79905254Y-102663500D01*
X80114746Y-102663500D01*
X80320212Y-102622630D01*
X80513756Y-102542462D01*
X80687942Y-102426075D01*
X80764501Y-102349516D01*
X80764500Y-103390483D01*
X80687942Y-103313925D01*
X80513756Y-103197538D01*
X80320212Y-103117370D01*
X80114746Y-103076500D01*
X79905254Y-103076500D01*
X79699788Y-103117370D01*
X79506244Y-103197538D01*
X79332058Y-103313925D01*
X79183925Y-103462058D01*
X79067538Y-103636244D01*
X78987370Y-103829788D01*
X78946500Y-104035254D01*
X78946500Y-104244746D01*
X78987370Y-104450212D01*
X79067538Y-104643756D01*
X79183925Y-104817942D01*
X79332058Y-104966075D01*
X79506244Y-105082462D01*
X79699788Y-105162630D01*
X79905254Y-105203500D01*
X80114746Y-105203500D01*
X80320212Y-105162630D01*
X80513756Y-105082462D01*
X80687942Y-104966075D01*
X80764500Y-104889517D01*
X80764500Y-105382590D01*
X80715301Y-105431789D01*
X80653632Y-105524082D01*
X80611155Y-105626633D01*
X80589500Y-105735500D01*
X80589500Y-105846500D01*
X80611155Y-105955367D01*
X80653632Y-106057918D01*
X80715301Y-106150211D01*
X80793789Y-106228699D01*
X80886082Y-106290368D01*
X80988633Y-106332845D01*
X81097500Y-106354500D01*
X81208500Y-106354500D01*
X81317367Y-106332845D01*
X81419918Y-106290368D01*
X81512211Y-106228699D01*
X81590699Y-106150211D01*
X81652368Y-106057918D01*
X81694845Y-105955367D01*
X81716500Y-105846500D01*
X81716500Y-105735500D01*
X81694845Y-105626633D01*
X81652368Y-105524082D01*
X81590699Y-105431789D01*
X81541500Y-105382590D01*
X81541500Y-105200797D01*
X81552899Y-105210152D01*
X81598675Y-105234619D01*
X81648345Y-105249686D01*
X81700000Y-105254774D01*
X83400000Y-105254774D01*
X83451655Y-105249686D01*
X83501325Y-105234619D01*
X83547101Y-105210152D01*
X83587223Y-105177223D01*
X83620152Y-105137101D01*
X83644619Y-105091325D01*
X83659686Y-105041655D01*
X83664774Y-104990000D01*
X83664774Y-103290000D01*
X83659686Y-103238345D01*
X83644619Y-103188675D01*
X83620152Y-103142899D01*
X83587223Y-103102777D01*
X83547101Y-103069848D01*
X83501325Y-103045381D01*
X83451655Y-103030314D01*
X83400000Y-103025226D01*
X81700000Y-103025226D01*
X81648345Y-103030314D01*
X81598675Y-103045381D01*
X81552899Y-103069848D01*
X81541500Y-103079203D01*
X81541500Y-102074982D01*
X81563229Y-102127440D01*
X81685088Y-102309815D01*
X81840185Y-102464912D01*
X82022560Y-102586771D01*
X82225204Y-102670709D01*
X82440330Y-102713500D01*
X82659670Y-102713500D01*
X82874796Y-102670709D01*
X83077440Y-102586771D01*
X83259815Y-102464912D01*
X83414912Y-102309815D01*
X83536771Y-102127440D01*
X83620709Y-101924796D01*
X83663500Y-101709670D01*
X83663500Y-101490330D01*
X83620709Y-101275204D01*
X83536771Y-101072560D01*
X83414912Y-100890185D01*
X83259815Y-100735088D01*
X83077440Y-100613229D01*
X82874796Y-100529291D01*
X82659670Y-100486500D01*
X82440330Y-100486500D01*
X82225204Y-100529291D01*
X82022560Y-100613229D01*
X81840185Y-100735088D01*
X81685088Y-100890185D01*
X81563229Y-101072560D01*
X81541500Y-101125018D01*
X81541500Y-100222074D01*
X81543379Y-100202999D01*
X81541208Y-100180960D01*
X81535878Y-100126841D01*
X81513663Y-100053608D01*
X81477589Y-99986118D01*
X81477588Y-99986116D01*
X81441201Y-99941779D01*
X81429040Y-99926960D01*
X81414220Y-99914798D01*
X80984890Y-99485468D01*
X81032630Y-99370212D01*
X81073500Y-99164746D01*
X81073500Y-98955254D01*
X81072521Y-98950330D01*
X81436500Y-98950330D01*
X81436500Y-99169670D01*
X81479291Y-99384796D01*
X81563229Y-99587440D01*
X81685088Y-99769815D01*
X81840185Y-99924912D01*
X82022560Y-100046771D01*
X82225204Y-100130709D01*
X82440330Y-100173500D01*
X82659670Y-100173500D01*
X82874796Y-100130709D01*
X83077440Y-100046771D01*
X83259815Y-99924912D01*
X83414912Y-99769815D01*
X83536771Y-99587440D01*
X83620709Y-99384796D01*
X83663500Y-99169670D01*
X83663500Y-98950330D01*
X83620709Y-98735204D01*
X83536771Y-98532560D01*
X83414912Y-98350185D01*
X83259815Y-98195088D01*
X83077440Y-98073229D01*
X82874796Y-97989291D01*
X82659670Y-97946500D01*
X82440330Y-97946500D01*
X82225204Y-97989291D01*
X82022560Y-98073229D01*
X81840185Y-98195088D01*
X81685088Y-98350185D01*
X81563229Y-98532560D01*
X81479291Y-98735204D01*
X81436500Y-98950330D01*
X81072521Y-98950330D01*
X81032630Y-98749788D01*
X80952462Y-98556244D01*
X80836075Y-98382058D01*
X80687942Y-98233925D01*
X80513756Y-98117538D01*
X80320212Y-98037370D01*
X80114746Y-97996500D01*
X79905254Y-97996500D01*
X79699788Y-98037370D01*
X79506244Y-98117538D01*
X79332058Y-98233925D01*
X79183925Y-98382058D01*
X79067538Y-98556244D01*
X78987370Y-98749788D01*
X78946500Y-98955254D01*
X77789774Y-98955254D01*
X77789774Y-98243750D01*
X77780003Y-98144542D01*
X77751065Y-98049146D01*
X77704072Y-97961229D01*
X77640831Y-97884169D01*
X77563771Y-97820928D01*
X77538500Y-97807420D01*
X77538500Y-96612624D01*
X77601271Y-96579072D01*
X77678331Y-96515831D01*
X77741572Y-96438771D01*
X77754142Y-96415254D01*
X78946500Y-96415254D01*
X78946500Y-96624746D01*
X78987370Y-96830212D01*
X79067538Y-97023756D01*
X79183925Y-97197942D01*
X79332058Y-97346075D01*
X79506244Y-97462462D01*
X79699788Y-97542630D01*
X79905254Y-97583500D01*
X80114746Y-97583500D01*
X80320212Y-97542630D01*
X80513756Y-97462462D01*
X80687942Y-97346075D01*
X80836075Y-97197942D01*
X80952462Y-97023756D01*
X81032630Y-96830212D01*
X81073500Y-96624746D01*
X81073500Y-96415254D01*
X81072521Y-96410330D01*
X81436500Y-96410330D01*
X81436500Y-96629670D01*
X81479291Y-96844796D01*
X81563229Y-97047440D01*
X81685088Y-97229815D01*
X81840185Y-97384912D01*
X82022560Y-97506771D01*
X82225204Y-97590709D01*
X82440330Y-97633500D01*
X82659670Y-97633500D01*
X82874796Y-97590709D01*
X83077440Y-97506771D01*
X83259815Y-97384912D01*
X83414912Y-97229815D01*
X83536771Y-97047440D01*
X83620709Y-96844796D01*
X83663500Y-96629670D01*
X83663500Y-96410330D01*
X83620709Y-96195204D01*
X83536771Y-95992560D01*
X83414912Y-95810185D01*
X83259815Y-95655088D01*
X83077440Y-95533229D01*
X82874796Y-95449291D01*
X82659670Y-95406500D01*
X82440330Y-95406500D01*
X82225204Y-95449291D01*
X82022560Y-95533229D01*
X81840185Y-95655088D01*
X81685088Y-95810185D01*
X81563229Y-95992560D01*
X81479291Y-96195204D01*
X81436500Y-96410330D01*
X81072521Y-96410330D01*
X81032630Y-96209788D01*
X80952462Y-96016244D01*
X80836075Y-95842058D01*
X80687942Y-95693925D01*
X80513756Y-95577538D01*
X80320212Y-95497370D01*
X80114746Y-95456500D01*
X79905254Y-95456500D01*
X79699788Y-95497370D01*
X79506244Y-95577538D01*
X79332058Y-95693925D01*
X79183925Y-95842058D01*
X79067538Y-96016244D01*
X78987370Y-96209788D01*
X78946500Y-96415254D01*
X77754142Y-96415254D01*
X77788565Y-96350854D01*
X77817503Y-96255458D01*
X77827274Y-96156250D01*
X77827274Y-95243750D01*
X77817503Y-95144542D01*
X77788565Y-95049146D01*
X77741572Y-94961229D01*
X77678331Y-94884169D01*
X77663500Y-94871998D01*
X77663500Y-94020598D01*
X77699368Y-93966918D01*
X77737335Y-93875254D01*
X78946500Y-93875254D01*
X78946500Y-94084746D01*
X78987370Y-94290212D01*
X79067538Y-94483756D01*
X79183925Y-94657942D01*
X79332058Y-94806075D01*
X79506244Y-94922462D01*
X79699788Y-95002630D01*
X79905254Y-95043500D01*
X80114746Y-95043500D01*
X80320212Y-95002630D01*
X80513756Y-94922462D01*
X80687942Y-94806075D01*
X80836075Y-94657942D01*
X80952462Y-94483756D01*
X81032630Y-94290212D01*
X81073500Y-94084746D01*
X81073500Y-93875254D01*
X81072521Y-93870330D01*
X81436500Y-93870330D01*
X81436500Y-94089670D01*
X81479291Y-94304796D01*
X81563229Y-94507440D01*
X81685088Y-94689815D01*
X81840185Y-94844912D01*
X82022560Y-94966771D01*
X82225204Y-95050709D01*
X82440330Y-95093500D01*
X82659670Y-95093500D01*
X82874796Y-95050709D01*
X83077440Y-94966771D01*
X83259815Y-94844912D01*
X83414912Y-94689815D01*
X83536771Y-94507440D01*
X83620709Y-94304796D01*
X83663500Y-94089670D01*
X83663500Y-93870330D01*
X83620709Y-93655204D01*
X83536771Y-93452560D01*
X83414912Y-93270185D01*
X83259815Y-93115088D01*
X83077440Y-92993229D01*
X82874796Y-92909291D01*
X82659670Y-92866500D01*
X82440330Y-92866500D01*
X82225204Y-92909291D01*
X82022560Y-92993229D01*
X81840185Y-93115088D01*
X81685088Y-93270185D01*
X81563229Y-93452560D01*
X81479291Y-93655204D01*
X81436500Y-93870330D01*
X81072521Y-93870330D01*
X81032630Y-93669788D01*
X80952462Y-93476244D01*
X80836075Y-93302058D01*
X80687942Y-93153925D01*
X80513756Y-93037538D01*
X80320212Y-92957370D01*
X80114746Y-92916500D01*
X79905254Y-92916500D01*
X79699788Y-92957370D01*
X79506244Y-93037538D01*
X79332058Y-93153925D01*
X79183925Y-93302058D01*
X79067538Y-93476244D01*
X78987370Y-93669788D01*
X78946500Y-93875254D01*
X77737335Y-93875254D01*
X77741845Y-93864367D01*
X77763500Y-93755500D01*
X77763500Y-93644500D01*
X77741845Y-93535633D01*
X77699368Y-93433082D01*
X77637699Y-93340789D01*
X77559211Y-93262301D01*
X77466918Y-93200632D01*
X77364367Y-93158155D01*
X77255500Y-93136500D01*
X77144500Y-93136500D01*
X77035633Y-93158155D01*
X76933082Y-93200632D01*
X76840789Y-93262301D01*
X76762301Y-93340789D01*
X76700632Y-93433082D01*
X76658155Y-93535633D01*
X76636500Y-93644500D01*
X76636500Y-93755500D01*
X76658155Y-93864367D01*
X76700632Y-93966918D01*
X76736500Y-94020598D01*
X76736501Y-94744558D01*
X76732042Y-94744997D01*
X76636646Y-94773935D01*
X76548729Y-94820928D01*
X76483005Y-94874866D01*
X76488500Y-94819078D01*
X76488500Y-94819076D01*
X76490379Y-94800001D01*
X76488500Y-94780926D01*
X76488500Y-86808410D01*
X76537699Y-86759211D01*
X76599368Y-86666918D01*
X76641845Y-86564367D01*
X76663500Y-86455500D01*
X76663500Y-86344500D01*
X76641845Y-86235633D01*
X76599368Y-86133082D01*
X76537699Y-86040789D01*
X76459211Y-85962301D01*
X76366918Y-85900632D01*
X76264367Y-85858155D01*
X76155500Y-85836500D01*
X76044500Y-85836500D01*
X75935633Y-85858155D01*
X75833082Y-85900632D01*
X75740789Y-85962301D01*
X75662301Y-86040789D01*
X75600632Y-86133082D01*
X75558155Y-86235633D01*
X75536500Y-86344500D01*
X75536500Y-86455500D01*
X75558155Y-86564367D01*
X75600632Y-86666918D01*
X75662301Y-86759211D01*
X75711501Y-86808411D01*
X75711501Y-88193636D01*
X75699749Y-88167102D01*
X75634956Y-88075041D01*
X75553447Y-87997391D01*
X75458356Y-87937133D01*
X75353337Y-87896585D01*
X75279375Y-87878500D01*
X75136500Y-88021375D01*
X75136500Y-88513500D01*
X75160500Y-88513500D01*
X75160500Y-88886500D01*
X75136500Y-88886500D01*
X75136500Y-89378625D01*
X75279375Y-89521500D01*
X75353337Y-89503415D01*
X75458356Y-89462867D01*
X75553447Y-89402609D01*
X75634956Y-89324959D01*
X75699749Y-89232898D01*
X75711501Y-89206364D01*
X75711500Y-91593635D01*
X75699749Y-91567102D01*
X75634956Y-91475041D01*
X75553447Y-91397391D01*
X75458356Y-91337133D01*
X75353337Y-91296585D01*
X75279375Y-91278500D01*
X75136500Y-91421375D01*
X75136500Y-91913500D01*
X75160500Y-91913500D01*
X75160500Y-92286500D01*
X75136500Y-92286500D01*
X75136500Y-92778625D01*
X75279375Y-92921500D01*
X75353337Y-92903415D01*
X75458356Y-92862867D01*
X75553447Y-92802609D01*
X75634956Y-92724959D01*
X75699749Y-92632898D01*
X75711500Y-92606365D01*
X75711500Y-94639078D01*
X75591006Y-94759572D01*
X75542958Y-94744997D01*
X75443750Y-94735226D01*
X74956250Y-94735226D01*
X74857042Y-94744997D01*
X74761646Y-94773935D01*
X74673729Y-94820928D01*
X74596669Y-94884169D01*
X74533428Y-94961229D01*
X74486435Y-95049146D01*
X74457497Y-95144542D01*
X74447726Y-95243750D01*
X71508500Y-95243750D01*
X71508500Y-94574992D01*
X71563925Y-94657942D01*
X71712058Y-94806075D01*
X71886244Y-94922462D01*
X72079788Y-95002630D01*
X72285254Y-95043500D01*
X72494746Y-95043500D01*
X72700212Y-95002630D01*
X72893756Y-94922462D01*
X73067942Y-94806075D01*
X73216075Y-94657942D01*
X73332462Y-94483756D01*
X73412630Y-94290212D01*
X73453500Y-94084746D01*
X73453500Y-93875254D01*
X73412630Y-93669788D01*
X73332462Y-93476244D01*
X73216075Y-93302058D01*
X73067942Y-93153925D01*
X72893756Y-93037538D01*
X72700212Y-92957370D01*
X72494746Y-92916500D01*
X72285254Y-92916500D01*
X72079788Y-92957370D01*
X71886244Y-93037538D01*
X71712058Y-93153925D01*
X71563925Y-93302058D01*
X71508500Y-93385008D01*
X71508500Y-92034992D01*
X71563925Y-92117942D01*
X71712058Y-92266075D01*
X71886244Y-92382462D01*
X72079788Y-92462630D01*
X72285254Y-92503500D01*
X72494746Y-92503500D01*
X72700212Y-92462630D01*
X72780497Y-92429375D01*
X74128500Y-92429375D01*
X74154663Y-92529966D01*
X74200251Y-92632898D01*
X74265044Y-92724959D01*
X74346553Y-92802609D01*
X74441644Y-92862867D01*
X74546663Y-92903415D01*
X74620625Y-92921500D01*
X74763500Y-92778625D01*
X74763500Y-92286500D01*
X74271375Y-92286500D01*
X74128500Y-92429375D01*
X72780497Y-92429375D01*
X72893756Y-92382462D01*
X73067942Y-92266075D01*
X73216075Y-92117942D01*
X73332462Y-91943756D01*
X73404174Y-91770625D01*
X74128500Y-91770625D01*
X74271375Y-91913500D01*
X74763500Y-91913500D01*
X74763500Y-91421375D01*
X74620625Y-91278500D01*
X74546663Y-91296585D01*
X74441644Y-91337133D01*
X74346553Y-91397391D01*
X74265044Y-91475041D01*
X74200251Y-91567102D01*
X74154663Y-91670034D01*
X74128500Y-91770625D01*
X73404174Y-91770625D01*
X73412630Y-91750212D01*
X73453500Y-91544746D01*
X73453500Y-91335254D01*
X73412630Y-91129788D01*
X73332462Y-90936244D01*
X73216075Y-90762058D01*
X73067942Y-90613925D01*
X72893756Y-90497538D01*
X72700212Y-90417370D01*
X72494746Y-90376500D01*
X72285254Y-90376500D01*
X72079788Y-90417370D01*
X71886244Y-90497538D01*
X71712058Y-90613925D01*
X71563925Y-90762058D01*
X71508500Y-90845008D01*
X71508500Y-89949087D01*
X71517908Y-89958531D01*
X71741174Y-90108328D01*
X71989374Y-90211690D01*
X72199500Y-90115338D01*
X72199500Y-89090500D01*
X72580500Y-89090500D01*
X72580500Y-90115338D01*
X72790626Y-90211690D01*
X73038826Y-90108328D01*
X73262092Y-89958531D01*
X73451844Y-89768055D01*
X73600790Y-89544220D01*
X73701682Y-89300625D01*
X73603767Y-89090500D01*
X72580500Y-89090500D01*
X72199500Y-89090500D01*
X72179500Y-89090500D01*
X72179500Y-89029375D01*
X74128500Y-89029375D01*
X74154663Y-89129966D01*
X74200251Y-89232898D01*
X74265044Y-89324959D01*
X74346553Y-89402609D01*
X74441644Y-89462867D01*
X74546663Y-89503415D01*
X74620625Y-89521500D01*
X74763500Y-89378625D01*
X74763500Y-88886500D01*
X74271375Y-88886500D01*
X74128500Y-89029375D01*
X72179500Y-89029375D01*
X72179500Y-88709500D01*
X72199500Y-88709500D01*
X72199500Y-87684662D01*
X72580500Y-87684662D01*
X72580500Y-88709500D01*
X73603767Y-88709500D01*
X73701682Y-88499375D01*
X73648357Y-88370625D01*
X74128500Y-88370625D01*
X74271375Y-88513500D01*
X74763500Y-88513500D01*
X74763500Y-88021375D01*
X74620625Y-87878500D01*
X74546663Y-87896585D01*
X74441644Y-87937133D01*
X74346553Y-87997391D01*
X74265044Y-88075041D01*
X74200251Y-88167102D01*
X74154663Y-88270034D01*
X74128500Y-88370625D01*
X73648357Y-88370625D01*
X73600790Y-88255780D01*
X73451844Y-88031945D01*
X73262092Y-87841469D01*
X73038826Y-87691672D01*
X72790626Y-87588310D01*
X72580500Y-87684662D01*
X72199500Y-87684662D01*
X71989374Y-87588310D01*
X71741174Y-87691672D01*
X71517908Y-87841469D01*
X71508500Y-87850913D01*
X71508500Y-86954992D01*
X71563925Y-87037942D01*
X71712058Y-87186075D01*
X71886244Y-87302462D01*
X72079788Y-87382630D01*
X72285254Y-87423500D01*
X72494746Y-87423500D01*
X72700212Y-87382630D01*
X72893756Y-87302462D01*
X73067942Y-87186075D01*
X73216075Y-87037942D01*
X73332462Y-86863756D01*
X73412630Y-86670212D01*
X73453500Y-86464746D01*
X73453500Y-86255254D01*
X73412630Y-86049788D01*
X73332462Y-85856244D01*
X73216075Y-85682058D01*
X73067942Y-85533925D01*
X72893756Y-85417538D01*
X72700212Y-85337370D01*
X72494746Y-85296500D01*
X72285254Y-85296500D01*
X72079788Y-85337370D01*
X71886244Y-85417538D01*
X71712058Y-85533925D01*
X71563925Y-85682058D01*
X71508500Y-85765008D01*
X71508500Y-84414992D01*
X71563925Y-84497942D01*
X71712058Y-84646075D01*
X71886244Y-84762462D01*
X72079788Y-84842630D01*
X72285254Y-84883500D01*
X72494746Y-84883500D01*
X72700212Y-84842630D01*
X72893756Y-84762462D01*
X73067942Y-84646075D01*
X73216075Y-84497942D01*
X73332462Y-84323756D01*
X73380202Y-84208500D01*
X74510226Y-84208500D01*
X74510226Y-84276250D01*
X74519997Y-84375458D01*
X74548935Y-84470854D01*
X74595928Y-84558771D01*
X74659169Y-84635831D01*
X74736229Y-84699072D01*
X74824146Y-84746065D01*
X74919542Y-84775003D01*
X75018750Y-84784774D01*
X75506250Y-84784774D01*
X75605458Y-84775003D01*
X75700854Y-84746065D01*
X75788771Y-84699072D01*
X75865831Y-84635831D01*
X75929072Y-84558771D01*
X75976065Y-84470854D01*
X76005003Y-84375458D01*
X76014774Y-84276250D01*
X76014774Y-83363750D01*
X76005003Y-83264542D01*
X75976065Y-83169146D01*
X75929072Y-83081229D01*
X75865831Y-83004169D01*
X75788771Y-82940928D01*
X75700854Y-82893935D01*
X75605458Y-82864997D01*
X75506250Y-82855226D01*
X75018750Y-82855226D01*
X74919542Y-82864997D01*
X74824146Y-82893935D01*
X74736229Y-82940928D01*
X74659169Y-83004169D01*
X74595928Y-83081229D01*
X74548935Y-83169146D01*
X74519997Y-83264542D01*
X74510226Y-83363750D01*
X74510226Y-83431500D01*
X73380202Y-83431500D01*
X73332462Y-83316244D01*
X73216075Y-83142058D01*
X73067942Y-82993925D01*
X72893756Y-82877538D01*
X72700212Y-82797370D01*
X72494746Y-82756500D01*
X72285254Y-82756500D01*
X72079788Y-82797370D01*
X71886244Y-82877538D01*
X71712058Y-82993925D01*
X71563925Y-83142058D01*
X71508500Y-83225008D01*
X71508500Y-81874992D01*
X71563925Y-81957942D01*
X71712058Y-82106075D01*
X71886244Y-82222462D01*
X72079788Y-82302630D01*
X72285254Y-82343500D01*
X72494746Y-82343500D01*
X72700212Y-82302630D01*
X72893756Y-82222462D01*
X73067942Y-82106075D01*
X73216075Y-81957942D01*
X73332462Y-81783756D01*
X73380202Y-81668500D01*
X74510226Y-81668500D01*
X74510226Y-81736250D01*
X74519997Y-81835458D01*
X74548935Y-81930854D01*
X74595928Y-82018771D01*
X74659169Y-82095831D01*
X74736229Y-82159072D01*
X74824146Y-82206065D01*
X74919542Y-82235003D01*
X75018750Y-82244774D01*
X75506250Y-82244774D01*
X75605458Y-82235003D01*
X75700854Y-82206065D01*
X75788771Y-82159072D01*
X75865831Y-82095831D01*
X75929072Y-82018771D01*
X75976065Y-81930854D01*
X76005003Y-81835458D01*
X76014774Y-81736250D01*
X76014774Y-80823750D01*
X76005003Y-80724542D01*
X75976065Y-80629146D01*
X75929072Y-80541229D01*
X75865831Y-80464169D01*
X75788771Y-80400928D01*
X75700854Y-80353935D01*
X75605458Y-80324997D01*
X75506250Y-80315226D01*
X75018750Y-80315226D01*
X74919542Y-80324997D01*
X74824146Y-80353935D01*
X74736229Y-80400928D01*
X74659169Y-80464169D01*
X74595928Y-80541229D01*
X74548935Y-80629146D01*
X74519997Y-80724542D01*
X74510226Y-80823750D01*
X74510226Y-80891500D01*
X73380202Y-80891500D01*
X73332462Y-80776244D01*
X73216075Y-80602058D01*
X73067942Y-80453925D01*
X72893756Y-80337538D01*
X72700212Y-80257370D01*
X72494746Y-80216500D01*
X72285254Y-80216500D01*
X72079788Y-80257370D01*
X71886244Y-80337538D01*
X71712058Y-80453925D01*
X71563925Y-80602058D01*
X71508500Y-80685008D01*
X71508500Y-79334992D01*
X71563925Y-79417942D01*
X71712058Y-79566075D01*
X71886244Y-79682462D01*
X72079788Y-79762630D01*
X72285254Y-79803500D01*
X72494746Y-79803500D01*
X72700212Y-79762630D01*
X72893756Y-79682462D01*
X73067942Y-79566075D01*
X73216075Y-79417942D01*
X73332462Y-79243756D01*
X73380202Y-79128500D01*
X74510226Y-79128500D01*
X74510226Y-79196250D01*
X74519997Y-79295458D01*
X74548935Y-79390854D01*
X74595928Y-79478771D01*
X74659169Y-79555831D01*
X74736229Y-79619072D01*
X74824146Y-79666065D01*
X74919542Y-79695003D01*
X75018750Y-79704774D01*
X75506250Y-79704774D01*
X75605458Y-79695003D01*
X75700854Y-79666065D01*
X75788771Y-79619072D01*
X75865831Y-79555831D01*
X75929072Y-79478771D01*
X75976065Y-79390854D01*
X76005003Y-79295458D01*
X76014774Y-79196250D01*
X76014774Y-78283750D01*
X76005003Y-78184542D01*
X75976065Y-78089146D01*
X75929072Y-78001229D01*
X75865831Y-77924169D01*
X75788771Y-77860928D01*
X75700854Y-77813935D01*
X75605458Y-77784997D01*
X75506250Y-77775226D01*
X75018750Y-77775226D01*
X74919542Y-77784997D01*
X74824146Y-77813935D01*
X74736229Y-77860928D01*
X74659169Y-77924169D01*
X74595928Y-78001229D01*
X74548935Y-78089146D01*
X74519997Y-78184542D01*
X74510226Y-78283750D01*
X74510226Y-78351500D01*
X73380202Y-78351500D01*
X73332462Y-78236244D01*
X73216075Y-78062058D01*
X73067942Y-77913925D01*
X72893756Y-77797538D01*
X72700212Y-77717370D01*
X72494746Y-77676500D01*
X72285254Y-77676500D01*
X72079788Y-77717370D01*
X71886244Y-77797538D01*
X71712058Y-77913925D01*
X71563925Y-78062058D01*
X71508500Y-78145008D01*
X71508500Y-76794992D01*
X71563925Y-76877942D01*
X71712058Y-77026075D01*
X71886244Y-77142462D01*
X72079788Y-77222630D01*
X72285254Y-77263500D01*
X72494746Y-77263500D01*
X72700212Y-77222630D01*
X72893756Y-77142462D01*
X73067942Y-77026075D01*
X73194017Y-76900000D01*
X74200735Y-76900000D01*
X74211769Y-77012034D01*
X74244448Y-77119762D01*
X74297516Y-77219045D01*
X74368933Y-77306067D01*
X74455955Y-77377484D01*
X74555238Y-77430552D01*
X74662966Y-77463231D01*
X74775000Y-77474265D01*
X74929125Y-77471500D01*
X75072000Y-77328625D01*
X75072000Y-76390500D01*
X75453000Y-76390500D01*
X75453000Y-77328625D01*
X75595875Y-77471500D01*
X75750000Y-77474265D01*
X75862034Y-77463231D01*
X75969762Y-77430552D01*
X76069045Y-77377484D01*
X76156067Y-77306067D01*
X76227484Y-77219045D01*
X76280552Y-77119762D01*
X76313231Y-77012034D01*
X76324265Y-76900000D01*
X76321500Y-76533375D01*
X76178625Y-76390500D01*
X75453000Y-76390500D01*
X75072000Y-76390500D01*
X74346375Y-76390500D01*
X74203500Y-76533375D01*
X74200735Y-76900000D01*
X73194017Y-76900000D01*
X73216075Y-76877942D01*
X73332462Y-76703756D01*
X73412630Y-76510212D01*
X73453500Y-76304746D01*
X73453500Y-76095254D01*
X73412630Y-75889788D01*
X73332462Y-75696244D01*
X73216075Y-75522058D01*
X73194017Y-75500000D01*
X74200735Y-75500000D01*
X74203500Y-75866625D01*
X74346375Y-76009500D01*
X75072000Y-76009500D01*
X75072000Y-75071375D01*
X75453000Y-75071375D01*
X75453000Y-76009500D01*
X76178625Y-76009500D01*
X76321500Y-75866625D01*
X76324265Y-75500000D01*
X76313231Y-75387966D01*
X76280552Y-75280238D01*
X76227484Y-75180955D01*
X76156067Y-75093933D01*
X76069045Y-75022516D01*
X75969762Y-74969448D01*
X75862034Y-74936769D01*
X75750000Y-74925735D01*
X75595875Y-74928500D01*
X75453000Y-75071375D01*
X75072000Y-75071375D01*
X74929125Y-74928500D01*
X74775000Y-74925735D01*
X74662966Y-74936769D01*
X74555238Y-74969448D01*
X74455955Y-75022516D01*
X74368933Y-75093933D01*
X74297516Y-75180955D01*
X74244448Y-75280238D01*
X74211769Y-75387966D01*
X74200735Y-75500000D01*
X73194017Y-75500000D01*
X73067942Y-75373925D01*
X72893756Y-75257538D01*
X72700212Y-75177370D01*
X72494746Y-75136500D01*
X72285254Y-75136500D01*
X72079788Y-75177370D01*
X71886244Y-75257538D01*
X71712058Y-75373925D01*
X71563925Y-75522058D01*
X71508500Y-75605008D01*
X71508500Y-74254992D01*
X71563925Y-74337942D01*
X71712058Y-74486075D01*
X71886244Y-74602462D01*
X72079788Y-74682630D01*
X72285254Y-74723500D01*
X72494746Y-74723500D01*
X72700212Y-74682630D01*
X72893756Y-74602462D01*
X73067942Y-74486075D01*
X73216075Y-74337942D01*
X73332462Y-74163756D01*
X73412630Y-73970212D01*
X73453500Y-73764746D01*
X73453500Y-73555254D01*
X73412630Y-73349788D01*
X73332462Y-73156244D01*
X73216075Y-72982058D01*
X73067942Y-72833925D01*
X72893756Y-72717538D01*
X72700212Y-72637370D01*
X72494746Y-72596500D01*
X72285254Y-72596500D01*
X72079788Y-72637370D01*
X71886244Y-72717538D01*
X71712058Y-72833925D01*
X71563925Y-72982058D01*
X71508500Y-73065008D01*
X71508500Y-72550921D01*
X71874647Y-72184774D01*
X73190000Y-72184774D01*
X73241655Y-72179686D01*
X73291325Y-72164619D01*
X73337101Y-72140152D01*
X73377223Y-72107223D01*
X73410152Y-72067101D01*
X73434619Y-72021325D01*
X73449686Y-71971655D01*
X73454774Y-71920000D01*
X73454774Y-70320000D01*
X73449686Y-70268345D01*
X73434619Y-70218675D01*
X73410152Y-70172899D01*
X73377223Y-70132777D01*
X73337101Y-70099848D01*
X73291325Y-70075381D01*
X73241655Y-70060314D01*
X73190000Y-70055226D01*
X71590000Y-70055226D01*
X71538345Y-70060314D01*
X71488675Y-70075381D01*
X71442899Y-70099848D01*
X71402777Y-70132777D01*
X71369848Y-70172899D01*
X71345381Y-70218675D01*
X71330314Y-70268345D01*
X71325226Y-70320000D01*
X71325226Y-71635353D01*
X70961955Y-71998624D01*
X70964774Y-71970000D01*
X70964774Y-70270000D01*
X70959686Y-70218345D01*
X70944619Y-70168675D01*
X70920152Y-70122899D01*
X70887223Y-70082777D01*
X70847101Y-70049848D01*
X70801325Y-70025381D01*
X70751655Y-70010314D01*
X70700000Y-70005226D01*
X69000000Y-70005226D01*
X68948345Y-70010314D01*
X68898675Y-70025381D01*
X68852899Y-70049848D01*
X68812777Y-70082777D01*
X68779848Y-70122899D01*
X68755381Y-70168675D01*
X68740314Y-70218345D01*
X68735226Y-70270000D01*
X68629500Y-70270000D01*
X68629500Y-64603542D01*
X68733966Y-64635231D01*
X68846000Y-64646265D01*
X69262625Y-64643500D01*
X69405500Y-64500625D01*
X69405500Y-63287500D01*
X69786500Y-63287500D01*
X69786500Y-64500625D01*
X69929375Y-64643500D01*
X70346000Y-64646265D01*
X70458034Y-64635231D01*
X70565762Y-64602552D01*
X70665045Y-64549484D01*
X70752067Y-64478067D01*
X70802500Y-64416614D01*
X70852933Y-64478067D01*
X70939955Y-64549484D01*
X71039238Y-64602552D01*
X71146966Y-64635231D01*
X71259000Y-64646265D01*
X71675625Y-64643500D01*
X71818500Y-64500625D01*
X71818500Y-63287500D01*
X70830375Y-63287500D01*
X70802500Y-63315375D01*
X70774625Y-63287500D01*
X69786500Y-63287500D01*
X69405500Y-63287500D01*
X69385500Y-63287500D01*
X69385500Y-62906500D01*
X69405500Y-62906500D01*
X69405500Y-62886500D01*
X69786500Y-62886500D01*
X69786500Y-62906500D01*
X70774625Y-62906500D01*
X70802500Y-62878625D01*
X70830375Y-62906500D01*
G36*
X83770501Y-65923736D02*
G01*
X83729072Y-65846229D01*
X83665831Y-65769169D01*
X83588771Y-65705928D01*
X83500854Y-65658935D01*
X83405458Y-65629997D01*
X83306250Y-65620226D01*
X82393750Y-65620226D01*
X82294542Y-65629997D01*
X82199146Y-65658935D01*
X82111229Y-65705928D01*
X82034169Y-65769169D01*
X81970928Y-65846229D01*
X81937376Y-65909000D01*
X81811624Y-65909000D01*
X81778072Y-65846229D01*
X81714831Y-65769169D01*
X81637771Y-65705928D01*
X81549854Y-65658935D01*
X81454458Y-65629997D01*
X81355250Y-65620226D01*
X80864714Y-65620226D01*
X80464841Y-65220354D01*
X80450329Y-65202671D01*
X80379752Y-65144750D01*
X80299232Y-65101710D01*
X80211862Y-65075207D01*
X80143764Y-65068500D01*
X80143753Y-65068500D01*
X80121000Y-65066259D01*
X80098247Y-65068500D01*
X77238753Y-65068500D01*
X77215999Y-65066259D01*
X77193246Y-65068500D01*
X77193236Y-65068500D01*
X77125138Y-65075207D01*
X77037768Y-65101710D01*
X76985295Y-65129758D01*
X76957247Y-65144750D01*
X76904352Y-65188160D01*
X76904349Y-65188163D01*
X76886671Y-65202671D01*
X76872163Y-65220349D01*
X76360930Y-65731582D01*
X76341845Y-65635633D01*
X76299368Y-65533082D01*
X76237699Y-65440789D01*
X76159211Y-65362301D01*
X76066918Y-65300632D01*
X75964367Y-65258155D01*
X75855500Y-65236500D01*
X75744500Y-65236500D01*
X75635633Y-65258155D01*
X75533082Y-65300632D01*
X75440789Y-65362301D01*
X75362301Y-65440789D01*
X75300632Y-65533082D01*
X75258155Y-65635633D01*
X75236500Y-65744500D01*
X75236500Y-65814078D01*
X74605774Y-66444805D01*
X74603152Y-66439899D01*
X74570223Y-66399777D01*
X74530101Y-66366848D01*
X74484325Y-66342381D01*
X74434655Y-66327314D01*
X74383000Y-66322226D01*
X73996500Y-66322226D01*
X73996500Y-62740000D01*
X74523735Y-62740000D01*
X74534769Y-62852034D01*
X74567448Y-62959762D01*
X74620516Y-63059045D01*
X74691933Y-63146067D01*
X74778955Y-63217484D01*
X74878238Y-63270552D01*
X74985966Y-63303231D01*
X75098000Y-63314265D01*
X75764625Y-63311500D01*
X75907500Y-63168625D01*
X75907500Y-62180500D01*
X76288500Y-62180500D01*
X76288500Y-63168625D01*
X76431375Y-63311500D01*
X77098000Y-63314265D01*
X77210034Y-63303231D01*
X77317762Y-63270552D01*
X77417045Y-63217484D01*
X77504067Y-63146067D01*
X77575484Y-63059045D01*
X77628552Y-62959762D01*
X77661231Y-62852034D01*
X77672265Y-62740000D01*
X77669500Y-62323375D01*
X77526625Y-62180500D01*
X76288500Y-62180500D01*
X75907500Y-62180500D01*
X74669375Y-62180500D01*
X74526500Y-62323375D01*
X74523735Y-62740000D01*
X73996500Y-62740000D01*
X73996500Y-61893753D01*
X73998741Y-61870999D01*
X73996500Y-61848245D01*
X73996500Y-61848236D01*
X73989793Y-61780138D01*
X73963290Y-61692768D01*
X73935969Y-61641655D01*
X73923461Y-61618254D01*
X73929726Y-61619500D01*
X74070274Y-61619500D01*
X74208120Y-61592080D01*
X74337969Y-61538295D01*
X74454830Y-61460211D01*
X74524733Y-61390308D01*
X74526500Y-61656625D01*
X74669375Y-61799500D01*
X75907500Y-61799500D01*
X75907500Y-61779500D01*
X76288500Y-61779500D01*
X76288500Y-61799500D01*
X77526625Y-61799500D01*
X77669500Y-61656625D01*
X77672265Y-61240000D01*
X77661231Y-61127966D01*
X77628552Y-61020238D01*
X77601432Y-60969500D01*
X77686500Y-60969500D01*
X77686500Y-60976274D01*
X77713920Y-61114120D01*
X77767705Y-61243969D01*
X77845789Y-61360830D01*
X77945170Y-61460211D01*
X78062031Y-61538295D01*
X78191880Y-61592080D01*
X78329726Y-61619500D01*
X78470274Y-61619500D01*
X78608120Y-61592080D01*
X78737969Y-61538295D01*
X78854830Y-61460211D01*
X78954211Y-61360830D01*
X79032295Y-61243969D01*
X79086080Y-61114120D01*
X79113500Y-60976274D01*
X79113500Y-60969500D01*
X81026000Y-60969500D01*
X81077406Y-60964437D01*
X81126837Y-60949442D01*
X81133226Y-60946027D01*
X81133226Y-61590000D01*
X81138314Y-61641655D01*
X81153381Y-61691325D01*
X81177848Y-61737101D01*
X81210777Y-61777223D01*
X81250899Y-61810152D01*
X81296675Y-61834619D01*
X81346345Y-61849686D01*
X81398000Y-61854774D01*
X83398000Y-61854774D01*
X83449655Y-61849686D01*
X83499325Y-61834619D01*
X83545101Y-61810152D01*
X83585223Y-61777223D01*
X83618152Y-61737101D01*
X83642619Y-61691325D01*
X83657686Y-61641655D01*
X83662774Y-61590000D01*
X83662774Y-57790000D01*
X83657686Y-57738345D01*
X83642619Y-57688675D01*
X83618152Y-57642899D01*
X83585223Y-57602777D01*
X83545101Y-57569848D01*
X83499325Y-57545381D01*
X83449655Y-57530314D01*
X83398000Y-57525226D01*
X81398000Y-57525226D01*
X81346345Y-57530314D01*
X81296675Y-57545381D01*
X81289500Y-57549216D01*
X81289500Y-55675500D01*
X83770501Y-55675500D01*
X83770501Y-65923736D01*
G37*
X83770501Y-65923736D02*
X83729072Y-65846229D01*
X83665831Y-65769169D01*
X83588771Y-65705928D01*
X83500854Y-65658935D01*
X83405458Y-65629997D01*
X83306250Y-65620226D01*
X82393750Y-65620226D01*
X82294542Y-65629997D01*
X82199146Y-65658935D01*
X82111229Y-65705928D01*
X82034169Y-65769169D01*
X81970928Y-65846229D01*
X81937376Y-65909000D01*
X81811624Y-65909000D01*
X81778072Y-65846229D01*
X81714831Y-65769169D01*
X81637771Y-65705928D01*
X81549854Y-65658935D01*
X81454458Y-65629997D01*
X81355250Y-65620226D01*
X80864714Y-65620226D01*
X80464841Y-65220354D01*
X80450329Y-65202671D01*
X80379752Y-65144750D01*
X80299232Y-65101710D01*
X80211862Y-65075207D01*
X80143764Y-65068500D01*
X80143753Y-65068500D01*
X80121000Y-65066259D01*
X80098247Y-65068500D01*
X77238753Y-65068500D01*
X77215999Y-65066259D01*
X77193246Y-65068500D01*
X77193236Y-65068500D01*
X77125138Y-65075207D01*
X77037768Y-65101710D01*
X76985295Y-65129758D01*
X76957247Y-65144750D01*
X76904352Y-65188160D01*
X76904349Y-65188163D01*
X76886671Y-65202671D01*
X76872163Y-65220349D01*
X76360930Y-65731582D01*
X76341845Y-65635633D01*
X76299368Y-65533082D01*
X76237699Y-65440789D01*
X76159211Y-65362301D01*
X76066918Y-65300632D01*
X75964367Y-65258155D01*
X75855500Y-65236500D01*
X75744500Y-65236500D01*
X75635633Y-65258155D01*
X75533082Y-65300632D01*
X75440789Y-65362301D01*
X75362301Y-65440789D01*
X75300632Y-65533082D01*
X75258155Y-65635633D01*
X75236500Y-65744500D01*
X75236500Y-65814078D01*
X74605774Y-66444805D01*
X74603152Y-66439899D01*
X74570223Y-66399777D01*
X74530101Y-66366848D01*
X74484325Y-66342381D01*
X74434655Y-66327314D01*
X74383000Y-66322226D01*
X73996500Y-66322226D01*
X73996500Y-62740000D01*
X74523735Y-62740000D01*
X74534769Y-62852034D01*
X74567448Y-62959762D01*
X74620516Y-63059045D01*
X74691933Y-63146067D01*
X74778955Y-63217484D01*
X74878238Y-63270552D01*
X74985966Y-63303231D01*
X75098000Y-63314265D01*
X75764625Y-63311500D01*
X75907500Y-63168625D01*
X75907500Y-62180500D01*
X76288500Y-62180500D01*
X76288500Y-63168625D01*
X76431375Y-63311500D01*
X77098000Y-63314265D01*
X77210034Y-63303231D01*
X77317762Y-63270552D01*
X77417045Y-63217484D01*
X77504067Y-63146067D01*
X77575484Y-63059045D01*
X77628552Y-62959762D01*
X77661231Y-62852034D01*
X77672265Y-62740000D01*
X77669500Y-62323375D01*
X77526625Y-62180500D01*
X76288500Y-62180500D01*
X75907500Y-62180500D01*
X74669375Y-62180500D01*
X74526500Y-62323375D01*
X74523735Y-62740000D01*
X73996500Y-62740000D01*
X73996500Y-61893753D01*
X73998741Y-61870999D01*
X73996500Y-61848245D01*
X73996500Y-61848236D01*
X73989793Y-61780138D01*
X73963290Y-61692768D01*
X73935969Y-61641655D01*
X73923461Y-61618254D01*
X73929726Y-61619500D01*
X74070274Y-61619500D01*
X74208120Y-61592080D01*
X74337969Y-61538295D01*
X74454830Y-61460211D01*
X74524733Y-61390308D01*
X74526500Y-61656625D01*
X74669375Y-61799500D01*
X75907500Y-61799500D01*
X75907500Y-61779500D01*
X76288500Y-61779500D01*
X76288500Y-61799500D01*
X77526625Y-61799500D01*
X77669500Y-61656625D01*
X77672265Y-61240000D01*
X77661231Y-61127966D01*
X77628552Y-61020238D01*
X77601432Y-60969500D01*
X77686500Y-60969500D01*
X77686500Y-60976274D01*
X77713920Y-61114120D01*
X77767705Y-61243969D01*
X77845789Y-61360830D01*
X77945170Y-61460211D01*
X78062031Y-61538295D01*
X78191880Y-61592080D01*
X78329726Y-61619500D01*
X78470274Y-61619500D01*
X78608120Y-61592080D01*
X78737969Y-61538295D01*
X78854830Y-61460211D01*
X78954211Y-61360830D01*
X79032295Y-61243969D01*
X79086080Y-61114120D01*
X79113500Y-60976274D01*
X79113500Y-60969500D01*
X81026000Y-60969500D01*
X81077406Y-60964437D01*
X81126837Y-60949442D01*
X81133226Y-60946027D01*
X81133226Y-61590000D01*
X81138314Y-61641655D01*
X81153381Y-61691325D01*
X81177848Y-61737101D01*
X81210777Y-61777223D01*
X81250899Y-61810152D01*
X81296675Y-61834619D01*
X81346345Y-61849686D01*
X81398000Y-61854774D01*
X83398000Y-61854774D01*
X83449655Y-61849686D01*
X83499325Y-61834619D01*
X83545101Y-61810152D01*
X83585223Y-61777223D01*
X83618152Y-61737101D01*
X83642619Y-61691325D01*
X83657686Y-61641655D01*
X83662774Y-61590000D01*
X83662774Y-57790000D01*
X83657686Y-57738345D01*
X83642619Y-57688675D01*
X83618152Y-57642899D01*
X83585223Y-57602777D01*
X83545101Y-57569848D01*
X83499325Y-57545381D01*
X83449655Y-57530314D01*
X83398000Y-57525226D01*
X81398000Y-57525226D01*
X81346345Y-57530314D01*
X81296675Y-57545381D01*
X81289500Y-57549216D01*
X81289500Y-55675500D01*
X83770501Y-55675500D01*
X83770501Y-65923736D01*
D25*
G36*
X77293000Y-56406764D02*
G01*
X77267711Y-56386010D01*
X77214899Y-56357782D01*
X77157594Y-56340399D01*
X77098000Y-56334529D01*
X76378000Y-56336000D01*
X76302000Y-56412000D01*
X76302000Y-57186000D01*
X76322000Y-57186000D01*
X76322000Y-57594000D01*
X76302000Y-57594000D01*
X76302000Y-57614000D01*
X75894000Y-57614000D01*
X75894000Y-57594000D01*
X74870000Y-57594000D01*
X74794000Y-57670000D01*
X74792529Y-58140000D01*
X74798399Y-58199594D01*
X74815782Y-58256899D01*
X74844010Y-58309711D01*
X74881999Y-58356001D01*
X74899057Y-58370000D01*
X70612000Y-58370000D01*
X70602245Y-58370961D01*
X70592866Y-58373806D01*
X70584221Y-58378427D01*
X70576645Y-58384645D01*
X70570427Y-58392221D01*
X70565806Y-58400866D01*
X70562961Y-58410245D01*
X70562000Y-58420000D01*
X70562000Y-59155998D01*
X70515711Y-59118010D01*
X70462899Y-59089782D01*
X70405594Y-59072399D01*
X70346000Y-59066529D01*
X69876000Y-59068000D01*
X69800000Y-59144000D01*
X69800000Y-60143000D01*
X69820000Y-60143000D01*
X69820000Y-60551000D01*
X69800000Y-60551000D01*
X69800000Y-60571000D01*
X69392000Y-60571000D01*
X69392000Y-60551000D01*
X69372000Y-60551000D01*
X69372000Y-60143000D01*
X69392000Y-60143000D01*
X69392000Y-59144000D01*
X69316000Y-59068000D01*
X68846000Y-59066529D01*
X68786406Y-59072399D01*
X68729101Y-59089782D01*
X68676289Y-59118010D01*
X68629999Y-59155999D01*
X68616000Y-59173057D01*
X68616000Y-56640000D01*
X74792529Y-56640000D01*
X74794000Y-57110000D01*
X74870000Y-57186000D01*
X75894000Y-57186000D01*
X75894000Y-56412000D01*
X75818000Y-56336000D01*
X75098000Y-56334529D01*
X75038406Y-56340399D01*
X74981101Y-56357782D01*
X74928289Y-56386010D01*
X74881999Y-56423999D01*
X74844010Y-56470289D01*
X74815782Y-56523101D01*
X74798399Y-56580406D01*
X74792529Y-56640000D01*
X68616000Y-56640000D01*
X68616000Y-55662000D01*
X77293000Y-55662000D01*
X77293000Y-56406764D01*
G37*
X77293000Y-56406764D02*
X77267711Y-56386010D01*
X77214899Y-56357782D01*
X77157594Y-56340399D01*
X77098000Y-56334529D01*
X76378000Y-56336000D01*
X76302000Y-56412000D01*
X76302000Y-57186000D01*
X76322000Y-57186000D01*
X76322000Y-57594000D01*
X76302000Y-57594000D01*
X76302000Y-57614000D01*
X75894000Y-57614000D01*
X75894000Y-57594000D01*
X74870000Y-57594000D01*
X74794000Y-57670000D01*
X74792529Y-58140000D01*
X74798399Y-58199594D01*
X74815782Y-58256899D01*
X74844010Y-58309711D01*
X74881999Y-58356001D01*
X74899057Y-58370000D01*
X70612000Y-58370000D01*
X70602245Y-58370961D01*
X70592866Y-58373806D01*
X70584221Y-58378427D01*
X70576645Y-58384645D01*
X70570427Y-58392221D01*
X70565806Y-58400866D01*
X70562961Y-58410245D01*
X70562000Y-58420000D01*
X70562000Y-59155998D01*
X70515711Y-59118010D01*
X70462899Y-59089782D01*
X70405594Y-59072399D01*
X70346000Y-59066529D01*
X69876000Y-59068000D01*
X69800000Y-59144000D01*
X69800000Y-60143000D01*
X69820000Y-60143000D01*
X69820000Y-60551000D01*
X69800000Y-60551000D01*
X69800000Y-60571000D01*
X69392000Y-60571000D01*
X69392000Y-60551000D01*
X69372000Y-60551000D01*
X69372000Y-60143000D01*
X69392000Y-60143000D01*
X69392000Y-59144000D01*
X69316000Y-59068000D01*
X68846000Y-59066529D01*
X68786406Y-59072399D01*
X68729101Y-59089782D01*
X68676289Y-59118010D01*
X68629999Y-59155999D01*
X68616000Y-59173057D01*
X68616000Y-56640000D01*
X74792529Y-56640000D01*
X74794000Y-57110000D01*
X74870000Y-57186000D01*
X75894000Y-57186000D01*
X75894000Y-56412000D01*
X75818000Y-56336000D01*
X75098000Y-56334529D01*
X75038406Y-56340399D01*
X74981101Y-56357782D01*
X74928289Y-56386010D01*
X74881999Y-56423999D01*
X74844010Y-56470289D01*
X74815782Y-56523101D01*
X74798399Y-56580406D01*
X74792529Y-56640000D01*
X68616000Y-56640000D01*
X68616000Y-55662000D01*
X77293000Y-55662000D01*
X77293000Y-56406764D01*
G36*
X80976000Y-55674246D02*
G01*
X80976000Y-60656000D01*
X79054121Y-60656000D01*
X79020332Y-60574426D01*
X78943726Y-60459776D01*
X78846224Y-60362274D01*
X78731574Y-60285668D01*
X78604182Y-60232901D01*
X78468944Y-60206000D01*
X78331056Y-60206000D01*
X78195818Y-60232901D01*
X78068426Y-60285668D01*
X77953776Y-60362274D01*
X77856274Y-60459776D01*
X77779668Y-60574426D01*
X77745879Y-60656000D01*
X77314002Y-60656000D01*
X77351990Y-60609711D01*
X77380218Y-60556899D01*
X77397601Y-60499594D01*
X77403471Y-60440000D01*
X77402000Y-59970000D01*
X77326000Y-59894000D01*
X76302000Y-59894000D01*
X76302000Y-59914000D01*
X75894000Y-59914000D01*
X75894000Y-59894000D01*
X74870000Y-59894000D01*
X74794000Y-59970000D01*
X74792529Y-60440000D01*
X74798399Y-60499594D01*
X74815782Y-60556899D01*
X74844010Y-60609711D01*
X74881998Y-60656000D01*
X74654121Y-60656000D01*
X74620332Y-60574426D01*
X74543726Y-60459776D01*
X74446224Y-60362274D01*
X74331574Y-60285668D01*
X74204182Y-60232901D01*
X74068944Y-60206000D01*
X73931056Y-60206000D01*
X73795818Y-60232901D01*
X73668426Y-60285668D01*
X73553776Y-60362274D01*
X73456274Y-60459776D01*
X73379668Y-60574426D01*
X73345879Y-60656000D01*
X73063061Y-60656000D01*
X73063000Y-60627000D01*
X72987000Y-60551000D01*
X72213000Y-60551000D01*
X72213000Y-60571000D01*
X71805000Y-60571000D01*
X71805000Y-60551000D01*
X71785000Y-60551000D01*
X71785000Y-60143000D01*
X71805000Y-60143000D01*
X71805000Y-59144000D01*
X72213000Y-59144000D01*
X72213000Y-60143000D01*
X72987000Y-60143000D01*
X73063000Y-60067000D01*
X73064471Y-59372000D01*
X73058601Y-59312406D01*
X73041218Y-59255101D01*
X73012990Y-59202289D01*
X72975001Y-59155999D01*
X72928711Y-59118010D01*
X72875899Y-59089782D01*
X72818594Y-59072399D01*
X72759000Y-59066529D01*
X72289000Y-59068000D01*
X72213000Y-59144000D01*
X71805000Y-59144000D01*
X71729000Y-59068000D01*
X71259000Y-59066529D01*
X71199406Y-59072399D01*
X71142101Y-59089782D01*
X71089289Y-59118010D01*
X71043000Y-59155998D01*
X71043000Y-58724000D01*
X74881998Y-58724000D01*
X74844010Y-58770289D01*
X74815782Y-58823101D01*
X74798399Y-58880406D01*
X74792529Y-58940000D01*
X74794000Y-59410000D01*
X74870000Y-59486000D01*
X75894000Y-59486000D01*
X75894000Y-59466000D01*
X76302000Y-59466000D01*
X76302000Y-59486000D01*
X77326000Y-59486000D01*
X77402000Y-59410000D01*
X77403471Y-58940000D01*
X77397601Y-58880406D01*
X77380218Y-58823101D01*
X77351990Y-58770289D01*
X77314002Y-58724000D01*
X77470000Y-58724000D01*
X77479755Y-58723039D01*
X77489134Y-58720194D01*
X77497779Y-58715573D01*
X77505355Y-58709355D01*
X77511573Y-58701779D01*
X77516194Y-58693134D01*
X77519039Y-58683755D01*
X77520000Y-58674000D01*
X77520000Y-58596505D01*
X77550867Y-58558893D01*
X77573970Y-58515671D01*
X77588196Y-58468773D01*
X77593000Y-58420000D01*
X77593000Y-55662000D01*
X80633113Y-55662000D01*
X80976000Y-55674246D01*
G37*
X80976000Y-55674246D02*
X80976000Y-60656000D01*
X79054121Y-60656000D01*
X79020332Y-60574426D01*
X78943726Y-60459776D01*
X78846224Y-60362274D01*
X78731574Y-60285668D01*
X78604182Y-60232901D01*
X78468944Y-60206000D01*
X78331056Y-60206000D01*
X78195818Y-60232901D01*
X78068426Y-60285668D01*
X77953776Y-60362274D01*
X77856274Y-60459776D01*
X77779668Y-60574426D01*
X77745879Y-60656000D01*
X77314002Y-60656000D01*
X77351990Y-60609711D01*
X77380218Y-60556899D01*
X77397601Y-60499594D01*
X77403471Y-60440000D01*
X77402000Y-59970000D01*
X77326000Y-59894000D01*
X76302000Y-59894000D01*
X76302000Y-59914000D01*
X75894000Y-59914000D01*
X75894000Y-59894000D01*
X74870000Y-59894000D01*
X74794000Y-59970000D01*
X74792529Y-60440000D01*
X74798399Y-60499594D01*
X74815782Y-60556899D01*
X74844010Y-60609711D01*
X74881998Y-60656000D01*
X74654121Y-60656000D01*
X74620332Y-60574426D01*
X74543726Y-60459776D01*
X74446224Y-60362274D01*
X74331574Y-60285668D01*
X74204182Y-60232901D01*
X74068944Y-60206000D01*
X73931056Y-60206000D01*
X73795818Y-60232901D01*
X73668426Y-60285668D01*
X73553776Y-60362274D01*
X73456274Y-60459776D01*
X73379668Y-60574426D01*
X73345879Y-60656000D01*
X73063061Y-60656000D01*
X73063000Y-60627000D01*
X72987000Y-60551000D01*
X72213000Y-60551000D01*
X72213000Y-60571000D01*
X71805000Y-60571000D01*
X71805000Y-60551000D01*
X71785000Y-60551000D01*
X71785000Y-60143000D01*
X71805000Y-60143000D01*
X71805000Y-59144000D01*
X72213000Y-59144000D01*
X72213000Y-60143000D01*
X72987000Y-60143000D01*
X73063000Y-60067000D01*
X73064471Y-59372000D01*
X73058601Y-59312406D01*
X73041218Y-59255101D01*
X73012990Y-59202289D01*
X72975001Y-59155999D01*
X72928711Y-59118010D01*
X72875899Y-59089782D01*
X72818594Y-59072399D01*
X72759000Y-59066529D01*
X72289000Y-59068000D01*
X72213000Y-59144000D01*
X71805000Y-59144000D01*
X71729000Y-59068000D01*
X71259000Y-59066529D01*
X71199406Y-59072399D01*
X71142101Y-59089782D01*
X71089289Y-59118010D01*
X71043000Y-59155998D01*
X71043000Y-58724000D01*
X74881998Y-58724000D01*
X74844010Y-58770289D01*
X74815782Y-58823101D01*
X74798399Y-58880406D01*
X74792529Y-58940000D01*
X74794000Y-59410000D01*
X74870000Y-59486000D01*
X75894000Y-59486000D01*
X75894000Y-59466000D01*
X76302000Y-59466000D01*
X76302000Y-59486000D01*
X77326000Y-59486000D01*
X77402000Y-59410000D01*
X77403471Y-58940000D01*
X77397601Y-58880406D01*
X77380218Y-58823101D01*
X77351990Y-58770289D01*
X77314002Y-58724000D01*
X77470000Y-58724000D01*
X77479755Y-58723039D01*
X77489134Y-58720194D01*
X77497779Y-58715573D01*
X77505355Y-58709355D01*
X77511573Y-58701779D01*
X77516194Y-58693134D01*
X77519039Y-58683755D01*
X77520000Y-58674000D01*
X77520000Y-58596505D01*
X77550867Y-58558893D01*
X77573970Y-58515671D01*
X77588196Y-58468773D01*
X77593000Y-58420000D01*
X77593000Y-55662000D01*
X80633113Y-55662000D01*
X80976000Y-55674246D01*
M02*
