G04 #@! TF.FileFunction,Copper,L2,Bot,Signal*
%FSLAX46Y46*%
G04 Gerber Fmt 4.6, Leading zero omitted, Abs format (unit mm)*
G04 Created by KiCad (PCBNEW 4.0.7-e1-6374~58~ubuntu16.04.1) date Tue Aug 22 02:53:50 2017*
%MOMM*%
%LPD*%
G01*
G04 APERTURE LIST*
%ADD10C,0.100000*%
%ADD11R,1.727200X1.727200*%
%ADD12O,1.727200X1.727200*%
%ADD13R,1.600000X1.600000*%
%ADD14O,1.600000X1.600000*%
%ADD15R,2.000000X3.800000*%
%ADD16R,2.000000X1.500000*%
%ADD17C,1.500000*%
%ADD18R,1.700000X1.700000*%
%ADD19O,1.700000X1.700000*%
%ADD20R,1.250000X1.000000*%
%ADD21R,1.500000X1.950000*%
%ADD22R,0.700000X1.300000*%
%ADD23R,0.500000X0.500000*%
%ADD24C,0.600000*%
%ADD25C,0.400000*%
%ADD26C,0.250000*%
%ADD27C,0.127000*%
G04 APERTURE END LIST*
D10*
D11*
X78740000Y-116332000D03*
D12*
X78740000Y-118872000D03*
X76200000Y-116332000D03*
X76200000Y-118872000D03*
X73660000Y-116332000D03*
X73660000Y-118872000D03*
D13*
X72390000Y-71120000D03*
D14*
X80010000Y-104140000D03*
X72390000Y-73660000D03*
X80010000Y-101600000D03*
X72390000Y-76200000D03*
X80010000Y-99060000D03*
X72390000Y-78740000D03*
X80010000Y-96520000D03*
X72390000Y-81280000D03*
X80010000Y-93980000D03*
X72390000Y-83820000D03*
X80010000Y-91440000D03*
X72390000Y-86360000D03*
X80010000Y-88900000D03*
X72390000Y-88900000D03*
X80010000Y-86360000D03*
X72390000Y-91440000D03*
X80010000Y-83820000D03*
X72390000Y-93980000D03*
X80010000Y-81280000D03*
X72390000Y-96520000D03*
X80010000Y-78740000D03*
X72390000Y-99060000D03*
X80010000Y-76200000D03*
X72390000Y-101600000D03*
X80010000Y-73660000D03*
X72390000Y-104140000D03*
X80010000Y-71120000D03*
D15*
X82398000Y-59690000D03*
D16*
X76098000Y-59690000D03*
X76098000Y-57390000D03*
X76098000Y-61990000D03*
D17*
X76454000Y-109220000D03*
X71574000Y-109220000D03*
D18*
X73533000Y-67437000D03*
D19*
X76073000Y-67437000D03*
X78613000Y-67437000D03*
D18*
X82550000Y-107950000D03*
D19*
X82550000Y-110490000D03*
D18*
X69850000Y-71120000D03*
D19*
X69850000Y-73660000D03*
X69850000Y-76200000D03*
X69850000Y-78740000D03*
X69850000Y-81280000D03*
X69850000Y-83820000D03*
X69850000Y-86360000D03*
X69850000Y-88900000D03*
X69850000Y-91440000D03*
X69850000Y-93980000D03*
X69850000Y-96520000D03*
X69850000Y-99060000D03*
X69850000Y-101600000D03*
X69850000Y-104140000D03*
D18*
X82550000Y-104140000D03*
D19*
X82550000Y-101600000D03*
X82550000Y-99060000D03*
X82550000Y-96520000D03*
X82550000Y-93980000D03*
X82550000Y-91440000D03*
X82550000Y-88900000D03*
X82550000Y-86360000D03*
X82550000Y-83820000D03*
X82550000Y-81280000D03*
X82550000Y-78740000D03*
X82550000Y-76200000D03*
X82550000Y-73660000D03*
X82550000Y-71120000D03*
D20*
X80899000Y-66310000D03*
X80899000Y-68310000D03*
D21*
X69596000Y-60347000D03*
X69596000Y-63097000D03*
X72009000Y-60347000D03*
X72009000Y-63097000D03*
D20*
X78486000Y-108474000D03*
X78486000Y-110474000D03*
X73660000Y-108474000D03*
X73660000Y-110474000D03*
D22*
X75250000Y-81280000D03*
X77150000Y-81280000D03*
X75250000Y-78740000D03*
X77150000Y-78740000D03*
X75250000Y-83820000D03*
X77150000Y-83820000D03*
X77150000Y-76200000D03*
X75250000Y-76200000D03*
D23*
X77150000Y-88700000D03*
X74950000Y-88700000D03*
X77150000Y-92100000D03*
X74950000Y-92100000D03*
D24*
X76581000Y-104013000D03*
X77200000Y-90450000D03*
X74900000Y-86400000D03*
X70040500Y-65976500D03*
X74803000Y-65595500D03*
X71374000Y-111506000D03*
X79375000Y-69469000D03*
X76454000Y-111506000D03*
X73787000Y-57848500D03*
X81153000Y-105791000D03*
X75500000Y-66150000D03*
X77350000Y-70350000D03*
D25*
X76073000Y-67437000D02*
X76073000Y-66675000D01*
X76073000Y-66675000D02*
X77216000Y-65532000D01*
X77216000Y-65532000D02*
X80121000Y-65532000D01*
X80121000Y-65532000D02*
X80899000Y-66310000D01*
X76581000Y-104013000D02*
X80518000Y-107950000D01*
X80518000Y-107950000D02*
X82550000Y-107950000D01*
D26*
X72390000Y-88900000D02*
X72390000Y-89040000D01*
X72390000Y-89040000D02*
X73800000Y-90450000D01*
X73800000Y-90450000D02*
X77200000Y-90450000D01*
X72390000Y-88900000D02*
X72390000Y-88660000D01*
X72390000Y-88660000D02*
X74650000Y-86400000D01*
X74650000Y-86400000D02*
X74900000Y-86400000D01*
X70040500Y-65976500D02*
X69596000Y-65532000D01*
X69596000Y-65532000D02*
X69596000Y-63097000D01*
X76098000Y-61990000D02*
X76098000Y-64300500D01*
X76098000Y-64300500D02*
X74803000Y-65595500D01*
X73660000Y-110474000D02*
X72025000Y-110474000D01*
X72025000Y-110474000D02*
X71374000Y-111125000D01*
X71374000Y-111125000D02*
X71374000Y-111506000D01*
X79375000Y-69469000D02*
X80534000Y-68310000D01*
X80534000Y-68310000D02*
X80899000Y-68310000D01*
X80010000Y-86360000D02*
X79629000Y-86360000D01*
X76454000Y-111506000D02*
X77236000Y-110724000D01*
X77236000Y-110724000D02*
X78486000Y-110724000D01*
X72009000Y-63722000D02*
X72009000Y-63754000D01*
D25*
X73787000Y-57848500D02*
X73660000Y-57721500D01*
X73660000Y-57721500D02*
X73660000Y-57340500D01*
X73533000Y-67437000D02*
X73533000Y-61871000D01*
X73533000Y-61871000D02*
X72009000Y-60347000D01*
D26*
X72285000Y-60347000D02*
X72009000Y-60347000D01*
X72041000Y-59690000D02*
X72009000Y-59722000D01*
X76098000Y-59690000D02*
X76200000Y-59690000D01*
X76066000Y-59722000D02*
X76098000Y-59690000D01*
X77200000Y-108474000D02*
X76454000Y-109220000D01*
X78486000Y-108474000D02*
X77200000Y-108474000D01*
X72320000Y-108474000D02*
X71574000Y-109220000D01*
X73660000Y-108474000D02*
X72320000Y-108474000D01*
X72390000Y-81280000D02*
X75250000Y-81280000D01*
X72390000Y-78740000D02*
X75250000Y-78740000D01*
X73660000Y-116332000D02*
X71247000Y-116332000D01*
X71247000Y-116332000D02*
X69342000Y-114427000D01*
X69342000Y-114427000D02*
X69342000Y-107569000D01*
X69342000Y-107569000D02*
X71120000Y-105791000D01*
X71120000Y-105791000D02*
X71120000Y-72390000D01*
X71120000Y-72390000D02*
X69850000Y-71120000D01*
X72390000Y-71120000D02*
X71882000Y-71120000D01*
X81153000Y-100457000D02*
X82550000Y-99060000D01*
X81153000Y-105791000D02*
X81153000Y-100457000D01*
X72390000Y-83820000D02*
X75250000Y-83820000D01*
X77150000Y-88700000D02*
X77150000Y-83820000D01*
X76980000Y-81280000D02*
X77150000Y-81280000D01*
X76200000Y-80500000D02*
X76980000Y-81280000D01*
X76200000Y-71000000D02*
X76200000Y-80500000D01*
X74800000Y-69600000D02*
X76200000Y-71000000D01*
X74800000Y-66850000D02*
X74800000Y-69600000D01*
X75500000Y-66150000D02*
X74800000Y-66850000D01*
X77150000Y-81280000D02*
X77150000Y-80706000D01*
X77150000Y-81280000D02*
X77150000Y-83820000D01*
X77150000Y-78740000D02*
X77150000Y-79000000D01*
X77150000Y-79000000D02*
X78200000Y-80050000D01*
X78200000Y-91050000D02*
X77150000Y-92100000D01*
X78200000Y-80050000D02*
X78200000Y-91050000D01*
X77150000Y-70550000D02*
X77150000Y-76200000D01*
X77350000Y-70350000D02*
X77150000Y-70550000D01*
X77150000Y-76200000D02*
X77150000Y-78740000D01*
D27*
G36*
X83770500Y-85648410D02*
X83448468Y-85258428D01*
X82958523Y-84998451D01*
X82740500Y-85094182D01*
X82740500Y-86169500D01*
X82760500Y-86169500D01*
X82760500Y-86550500D01*
X82740500Y-86550500D01*
X82740500Y-87625818D01*
X82958523Y-87721549D01*
X83448468Y-87461572D01*
X83770500Y-87071590D01*
X83770500Y-122124500D01*
X68629500Y-122124500D01*
X68629500Y-119282667D01*
X72284913Y-119282667D01*
X72397270Y-119553957D01*
X72754363Y-119985272D01*
X73249331Y-120247102D01*
X73469500Y-120151540D01*
X73469500Y-119062500D01*
X72381894Y-119062500D01*
X72284913Y-119282667D01*
X68629500Y-119282667D01*
X68629500Y-89611590D01*
X68951532Y-90001572D01*
X69441477Y-90261549D01*
X69659500Y-90165818D01*
X69659500Y-89090500D01*
X69639500Y-89090500D01*
X69639500Y-88709500D01*
X69659500Y-88709500D01*
X69659500Y-87634182D01*
X69441477Y-87538451D01*
X68951532Y-87798428D01*
X68629500Y-88188410D01*
X68629500Y-64600910D01*
X68732321Y-64643500D01*
X69262625Y-64643500D01*
X69405500Y-64500625D01*
X69405500Y-63287500D01*
X69786500Y-63287500D01*
X69786500Y-64500625D01*
X69929375Y-64643500D01*
X70459679Y-64643500D01*
X70669729Y-64556494D01*
X70802500Y-64423722D01*
X70935271Y-64556494D01*
X71145321Y-64643500D01*
X71675625Y-64643500D01*
X71818500Y-64500625D01*
X71818500Y-63287500D01*
X70830375Y-63287500D01*
X70802500Y-63315375D01*
X70774625Y-63287500D01*
X69786500Y-63287500D01*
X69405500Y-63287500D01*
X69385500Y-63287500D01*
X69385500Y-62906500D01*
X69405500Y-62906500D01*
X69405500Y-62886500D01*
X69786500Y-62886500D01*
X69786500Y-62906500D01*
X70774625Y-62906500D01*
X70802500Y-62878625D01*
X70830375Y-62906500D01*
X71818500Y-62906500D01*
X71818500Y-62886500D01*
X72199500Y-62886500D01*
X72199500Y-62906500D01*
X72219500Y-62906500D01*
X72219500Y-63287500D01*
X72199500Y-63287500D01*
X72199500Y-64500625D01*
X72342375Y-64643500D01*
X72872679Y-64643500D01*
X73069500Y-64561974D01*
X73069500Y-66318338D01*
X72683000Y-66318338D01*
X72585353Y-66336712D01*
X72495670Y-66394421D01*
X72435505Y-66482475D01*
X72414338Y-66587000D01*
X72414338Y-68287000D01*
X72432712Y-68384647D01*
X72490421Y-68474330D01*
X72578475Y-68534495D01*
X72683000Y-68555662D01*
X74383000Y-68555662D01*
X74411500Y-68550299D01*
X74411500Y-69600000D01*
X74441073Y-69748673D01*
X74466283Y-69786402D01*
X74525289Y-69874711D01*
X75811500Y-71160922D01*
X75811500Y-75019019D01*
X75713678Y-74978500D01*
X75567875Y-74978500D01*
X75425000Y-75121375D01*
X75425000Y-76009500D01*
X75460500Y-76009500D01*
X75460500Y-76390500D01*
X75425000Y-76390500D01*
X75425000Y-77278625D01*
X75567875Y-77421500D01*
X75713678Y-77421500D01*
X75811500Y-77380981D01*
X75811500Y-77932074D01*
X75792579Y-77902670D01*
X75704525Y-77842505D01*
X75600000Y-77821338D01*
X74900000Y-77821338D01*
X74802353Y-77839712D01*
X74712670Y-77897421D01*
X74652505Y-77985475D01*
X74631338Y-78090000D01*
X74631338Y-78351500D01*
X73397058Y-78351500D01*
X73393381Y-78333016D01*
X73162843Y-77987992D01*
X72817819Y-77757454D01*
X72410835Y-77676500D01*
X72369165Y-77676500D01*
X71962181Y-77757454D01*
X71617157Y-77987992D01*
X71508500Y-78150608D01*
X71508500Y-76789392D01*
X71617157Y-76952008D01*
X71962181Y-77182546D01*
X72369165Y-77263500D01*
X72410835Y-77263500D01*
X72817819Y-77182546D01*
X73162843Y-76952008D01*
X73393381Y-76606984D01*
X73408022Y-76533375D01*
X74328500Y-76533375D01*
X74328500Y-76963679D01*
X74415506Y-77173729D01*
X74576272Y-77334494D01*
X74786322Y-77421500D01*
X74932125Y-77421500D01*
X75075000Y-77278625D01*
X75075000Y-76390500D01*
X74471375Y-76390500D01*
X74328500Y-76533375D01*
X73408022Y-76533375D01*
X73474335Y-76200000D01*
X73393381Y-75793016D01*
X73162843Y-75447992D01*
X73145377Y-75436321D01*
X74328500Y-75436321D01*
X74328500Y-75866625D01*
X74471375Y-76009500D01*
X75075000Y-76009500D01*
X75075000Y-75121375D01*
X74932125Y-74978500D01*
X74786322Y-74978500D01*
X74576272Y-75065506D01*
X74415506Y-75226271D01*
X74328500Y-75436321D01*
X73145377Y-75436321D01*
X72817819Y-75217454D01*
X72410835Y-75136500D01*
X72369165Y-75136500D01*
X71962181Y-75217454D01*
X71617157Y-75447992D01*
X71508500Y-75610608D01*
X71508500Y-74249392D01*
X71617157Y-74412008D01*
X71962181Y-74642546D01*
X72369165Y-74723500D01*
X72410835Y-74723500D01*
X72817819Y-74642546D01*
X73162843Y-74412008D01*
X73393381Y-74066984D01*
X73474335Y-73660000D01*
X73393381Y-73253016D01*
X73162843Y-72907992D01*
X72817819Y-72677454D01*
X72410835Y-72596500D01*
X72369165Y-72596500D01*
X71962181Y-72677454D01*
X71617157Y-72907992D01*
X71508500Y-73070608D01*
X71508500Y-72390000D01*
X71478927Y-72241327D01*
X71394711Y-72115289D01*
X70968662Y-71689240D01*
X70968662Y-70320000D01*
X71321338Y-70320000D01*
X71321338Y-71920000D01*
X71339712Y-72017647D01*
X71397421Y-72107330D01*
X71485475Y-72167495D01*
X71590000Y-72188662D01*
X73190000Y-72188662D01*
X73287647Y-72170288D01*
X73377330Y-72112579D01*
X73437495Y-72024525D01*
X73458662Y-71920000D01*
X73458662Y-70320000D01*
X73440288Y-70222353D01*
X73382579Y-70132670D01*
X73294525Y-70072505D01*
X73190000Y-70051338D01*
X71590000Y-70051338D01*
X71492353Y-70069712D01*
X71402670Y-70127421D01*
X71342505Y-70215475D01*
X71321338Y-70320000D01*
X70968662Y-70320000D01*
X70968662Y-70270000D01*
X70950288Y-70172353D01*
X70892579Y-70082670D01*
X70804525Y-70022505D01*
X70700000Y-70001338D01*
X69000000Y-70001338D01*
X68902353Y-70019712D01*
X68812670Y-70077421D01*
X68752505Y-70165475D01*
X68731338Y-70270000D01*
X68731338Y-71970000D01*
X68749712Y-72067647D01*
X68807421Y-72157330D01*
X68895475Y-72217495D01*
X69000000Y-72238662D01*
X70419240Y-72238662D01*
X70731500Y-72550922D01*
X70731500Y-72980874D01*
X70659178Y-72872637D01*
X70297933Y-72631260D01*
X69871815Y-72546500D01*
X69828185Y-72546500D01*
X69402067Y-72631260D01*
X69040822Y-72872637D01*
X68799445Y-73233882D01*
X68714685Y-73660000D01*
X68799445Y-74086118D01*
X69040822Y-74447363D01*
X69402067Y-74688740D01*
X69828185Y-74773500D01*
X69871815Y-74773500D01*
X70297933Y-74688740D01*
X70659178Y-74447363D01*
X70731500Y-74339126D01*
X70731500Y-75520874D01*
X70659178Y-75412637D01*
X70297933Y-75171260D01*
X69871815Y-75086500D01*
X69828185Y-75086500D01*
X69402067Y-75171260D01*
X69040822Y-75412637D01*
X68799445Y-75773882D01*
X68714685Y-76200000D01*
X68799445Y-76626118D01*
X69040822Y-76987363D01*
X69402067Y-77228740D01*
X69828185Y-77313500D01*
X69871815Y-77313500D01*
X70297933Y-77228740D01*
X70659178Y-76987363D01*
X70731500Y-76879126D01*
X70731500Y-78060874D01*
X70659178Y-77952637D01*
X70297933Y-77711260D01*
X69871815Y-77626500D01*
X69828185Y-77626500D01*
X69402067Y-77711260D01*
X69040822Y-77952637D01*
X68799445Y-78313882D01*
X68714685Y-78740000D01*
X68799445Y-79166118D01*
X69040822Y-79527363D01*
X69402067Y-79768740D01*
X69828185Y-79853500D01*
X69871815Y-79853500D01*
X70297933Y-79768740D01*
X70659178Y-79527363D01*
X70731500Y-79419126D01*
X70731500Y-80600874D01*
X70659178Y-80492637D01*
X70297933Y-80251260D01*
X69871815Y-80166500D01*
X69828185Y-80166500D01*
X69402067Y-80251260D01*
X69040822Y-80492637D01*
X68799445Y-80853882D01*
X68714685Y-81280000D01*
X68799445Y-81706118D01*
X69040822Y-82067363D01*
X69402067Y-82308740D01*
X69828185Y-82393500D01*
X69871815Y-82393500D01*
X70297933Y-82308740D01*
X70659178Y-82067363D01*
X70731500Y-81959126D01*
X70731500Y-83140874D01*
X70659178Y-83032637D01*
X70297933Y-82791260D01*
X69871815Y-82706500D01*
X69828185Y-82706500D01*
X69402067Y-82791260D01*
X69040822Y-83032637D01*
X68799445Y-83393882D01*
X68714685Y-83820000D01*
X68799445Y-84246118D01*
X69040822Y-84607363D01*
X69402067Y-84848740D01*
X69828185Y-84933500D01*
X69871815Y-84933500D01*
X70297933Y-84848740D01*
X70659178Y-84607363D01*
X70731500Y-84499126D01*
X70731500Y-85680874D01*
X70659178Y-85572637D01*
X70297933Y-85331260D01*
X69871815Y-85246500D01*
X69828185Y-85246500D01*
X69402067Y-85331260D01*
X69040822Y-85572637D01*
X68799445Y-85933882D01*
X68714685Y-86360000D01*
X68799445Y-86786118D01*
X69040822Y-87147363D01*
X69402067Y-87388740D01*
X69828185Y-87473500D01*
X69871815Y-87473500D01*
X70297933Y-87388740D01*
X70659178Y-87147363D01*
X70731500Y-87039126D01*
X70731500Y-87789424D01*
X70258523Y-87538451D01*
X70040500Y-87634182D01*
X70040500Y-88709500D01*
X70060500Y-88709500D01*
X70060500Y-89090500D01*
X70040500Y-89090500D01*
X70040500Y-90165818D01*
X70258523Y-90261549D01*
X70731500Y-90010576D01*
X70731500Y-90760874D01*
X70659178Y-90652637D01*
X70297933Y-90411260D01*
X69871815Y-90326500D01*
X69828185Y-90326500D01*
X69402067Y-90411260D01*
X69040822Y-90652637D01*
X68799445Y-91013882D01*
X68714685Y-91440000D01*
X68799445Y-91866118D01*
X69040822Y-92227363D01*
X69402067Y-92468740D01*
X69828185Y-92553500D01*
X69871815Y-92553500D01*
X70297933Y-92468740D01*
X70659178Y-92227363D01*
X70731500Y-92119126D01*
X70731500Y-93300874D01*
X70659178Y-93192637D01*
X70297933Y-92951260D01*
X69871815Y-92866500D01*
X69828185Y-92866500D01*
X69402067Y-92951260D01*
X69040822Y-93192637D01*
X68799445Y-93553882D01*
X68714685Y-93980000D01*
X68799445Y-94406118D01*
X69040822Y-94767363D01*
X69402067Y-95008740D01*
X69828185Y-95093500D01*
X69871815Y-95093500D01*
X70297933Y-95008740D01*
X70659178Y-94767363D01*
X70731500Y-94659126D01*
X70731500Y-95840874D01*
X70659178Y-95732637D01*
X70297933Y-95491260D01*
X69871815Y-95406500D01*
X69828185Y-95406500D01*
X69402067Y-95491260D01*
X69040822Y-95732637D01*
X68799445Y-96093882D01*
X68714685Y-96520000D01*
X68799445Y-96946118D01*
X69040822Y-97307363D01*
X69402067Y-97548740D01*
X69828185Y-97633500D01*
X69871815Y-97633500D01*
X70297933Y-97548740D01*
X70659178Y-97307363D01*
X70731500Y-97199126D01*
X70731500Y-98380874D01*
X70659178Y-98272637D01*
X70297933Y-98031260D01*
X69871815Y-97946500D01*
X69828185Y-97946500D01*
X69402067Y-98031260D01*
X69040822Y-98272637D01*
X68799445Y-98633882D01*
X68714685Y-99060000D01*
X68799445Y-99486118D01*
X69040822Y-99847363D01*
X69402067Y-100088740D01*
X69828185Y-100173500D01*
X69871815Y-100173500D01*
X70297933Y-100088740D01*
X70659178Y-99847363D01*
X70731500Y-99739126D01*
X70731500Y-100920874D01*
X70659178Y-100812637D01*
X70297933Y-100571260D01*
X69871815Y-100486500D01*
X69828185Y-100486500D01*
X69402067Y-100571260D01*
X69040822Y-100812637D01*
X68799445Y-101173882D01*
X68714685Y-101600000D01*
X68799445Y-102026118D01*
X69040822Y-102387363D01*
X69402067Y-102628740D01*
X69828185Y-102713500D01*
X69871815Y-102713500D01*
X70297933Y-102628740D01*
X70659178Y-102387363D01*
X70731500Y-102279126D01*
X70731500Y-103460874D01*
X70659178Y-103352637D01*
X70297933Y-103111260D01*
X69871815Y-103026500D01*
X69828185Y-103026500D01*
X69402067Y-103111260D01*
X69040822Y-103352637D01*
X68799445Y-103713882D01*
X68714685Y-104140000D01*
X68799445Y-104566118D01*
X69040822Y-104927363D01*
X69402067Y-105168740D01*
X69828185Y-105253500D01*
X69871815Y-105253500D01*
X70297933Y-105168740D01*
X70659178Y-104927363D01*
X70731500Y-104819126D01*
X70731500Y-105630078D01*
X69067289Y-107294289D01*
X68983073Y-107420327D01*
X68953500Y-107569000D01*
X68953500Y-114427000D01*
X68983073Y-114575673D01*
X69067289Y-114701711D01*
X70972289Y-116606711D01*
X71098328Y-116690928D01*
X71247000Y-116720500D01*
X72588096Y-116720500D01*
X72596614Y-116763322D01*
X72840939Y-117128980D01*
X73206597Y-117373305D01*
X73526312Y-117436900D01*
X73469498Y-117436900D01*
X73469498Y-117592459D01*
X73249331Y-117496898D01*
X72754363Y-117758728D01*
X72397270Y-118190043D01*
X72284913Y-118461333D01*
X72381894Y-118681500D01*
X73469500Y-118681500D01*
X73469500Y-118661500D01*
X73850500Y-118661500D01*
X73850500Y-118681500D01*
X73870500Y-118681500D01*
X73870500Y-119062500D01*
X73850500Y-119062500D01*
X73850500Y-120151540D01*
X74070669Y-120247102D01*
X74565637Y-119985272D01*
X74922730Y-119553957D01*
X75035087Y-119282667D01*
X74938107Y-119062502D01*
X75088712Y-119062502D01*
X75136614Y-119303322D01*
X75380939Y-119668980D01*
X75746597Y-119913305D01*
X76177919Y-119999100D01*
X76222081Y-119999100D01*
X76653403Y-119913305D01*
X77019061Y-119668980D01*
X77263386Y-119303322D01*
X77349181Y-118872000D01*
X77590819Y-118872000D01*
X77676614Y-119303322D01*
X77920939Y-119668980D01*
X78286597Y-119913305D01*
X78717919Y-119999100D01*
X78762081Y-119999100D01*
X79193403Y-119913305D01*
X79559061Y-119668980D01*
X79803386Y-119303322D01*
X79889181Y-118872000D01*
X79803386Y-118440678D01*
X79559061Y-118075020D01*
X79193403Y-117830695D01*
X78762081Y-117744900D01*
X78717919Y-117744900D01*
X78286597Y-117830695D01*
X77920939Y-118075020D01*
X77676614Y-118440678D01*
X77590819Y-118872000D01*
X77349181Y-118872000D01*
X77263386Y-118440678D01*
X77019061Y-118075020D01*
X76653403Y-117830695D01*
X76222081Y-117744900D01*
X76177919Y-117744900D01*
X75746597Y-117830695D01*
X75380939Y-118075020D01*
X75136614Y-118440678D01*
X75088712Y-118681498D01*
X74938107Y-118681498D01*
X75035087Y-118461333D01*
X74922730Y-118190043D01*
X74565637Y-117758728D01*
X74070669Y-117496898D01*
X73850502Y-117592459D01*
X73850502Y-117436900D01*
X73793688Y-117436900D01*
X74113403Y-117373305D01*
X74479061Y-117128980D01*
X74723386Y-116763322D01*
X74809181Y-116332000D01*
X75050819Y-116332000D01*
X75136614Y-116763322D01*
X75380939Y-117128980D01*
X75746597Y-117373305D01*
X76177919Y-117459100D01*
X76222081Y-117459100D01*
X76653403Y-117373305D01*
X77019061Y-117128980D01*
X77263386Y-116763322D01*
X77349181Y-116332000D01*
X77263386Y-115900678D01*
X77019061Y-115535020D01*
X76919358Y-115468400D01*
X77607738Y-115468400D01*
X77607738Y-117195600D01*
X77626112Y-117293247D01*
X77683821Y-117382930D01*
X77771875Y-117443095D01*
X77876400Y-117464262D01*
X79603600Y-117464262D01*
X79701247Y-117445888D01*
X79790930Y-117388179D01*
X79851095Y-117300125D01*
X79872262Y-117195600D01*
X79872262Y-115468400D01*
X79853888Y-115370753D01*
X79796179Y-115281070D01*
X79708125Y-115220905D01*
X79603600Y-115199738D01*
X77876400Y-115199738D01*
X77778753Y-115218112D01*
X77689070Y-115275821D01*
X77628905Y-115363875D01*
X77607738Y-115468400D01*
X76919358Y-115468400D01*
X76653403Y-115290695D01*
X76222081Y-115204900D01*
X76177919Y-115204900D01*
X75746597Y-115290695D01*
X75380939Y-115535020D01*
X75136614Y-115900678D01*
X75050819Y-116332000D01*
X74809181Y-116332000D01*
X74723386Y-115900678D01*
X74479061Y-115535020D01*
X74113403Y-115290695D01*
X73682081Y-115204900D01*
X73637919Y-115204900D01*
X73206597Y-115290695D01*
X72840939Y-115535020D01*
X72596614Y-115900678D01*
X72588096Y-115943500D01*
X71407922Y-115943500D01*
X69730500Y-114266078D01*
X69730500Y-110807375D01*
X72463500Y-110807375D01*
X72463500Y-111087678D01*
X72550506Y-111297728D01*
X72711271Y-111458494D01*
X72921321Y-111545500D01*
X73326625Y-111545500D01*
X73469500Y-111402625D01*
X73469500Y-110664500D01*
X73850500Y-110664500D01*
X73850500Y-111402625D01*
X73993375Y-111545500D01*
X74398679Y-111545500D01*
X74608729Y-111458494D01*
X74769494Y-111297728D01*
X74856500Y-111087678D01*
X74856500Y-110807375D01*
X77289500Y-110807375D01*
X77289500Y-111087678D01*
X77376506Y-111297728D01*
X77537271Y-111458494D01*
X77747321Y-111545500D01*
X78152625Y-111545500D01*
X78295500Y-111402625D01*
X78295500Y-110664500D01*
X78676500Y-110664500D01*
X78676500Y-111402625D01*
X78819375Y-111545500D01*
X79224679Y-111545500D01*
X79434729Y-111458494D01*
X79595494Y-111297728D01*
X79682500Y-111087678D01*
X79682500Y-110807375D01*
X79539625Y-110664500D01*
X78676500Y-110664500D01*
X78295500Y-110664500D01*
X77432375Y-110664500D01*
X77289500Y-110807375D01*
X74856500Y-110807375D01*
X74713625Y-110664500D01*
X73850500Y-110664500D01*
X73469500Y-110664500D01*
X72606375Y-110664500D01*
X72463500Y-110807375D01*
X69730500Y-110807375D01*
X69730500Y-110490000D01*
X81414685Y-110490000D01*
X81499445Y-110916118D01*
X81740822Y-111277363D01*
X82102067Y-111518740D01*
X82528185Y-111603500D01*
X82571815Y-111603500D01*
X82997933Y-111518740D01*
X83359178Y-111277363D01*
X83600555Y-110916118D01*
X83685315Y-110490000D01*
X83600555Y-110063882D01*
X83359178Y-109702637D01*
X82997933Y-109461260D01*
X82571815Y-109376500D01*
X82528185Y-109376500D01*
X82102067Y-109461260D01*
X81740822Y-109702637D01*
X81499445Y-110063882D01*
X81414685Y-110490000D01*
X69730500Y-110490000D01*
X69730500Y-109420713D01*
X70560324Y-109420713D01*
X70714295Y-109793352D01*
X70999149Y-110078703D01*
X71371518Y-110233324D01*
X71774713Y-110233676D01*
X72147352Y-110079705D01*
X72367117Y-109860322D01*
X72463500Y-109860322D01*
X72463500Y-110140625D01*
X72606375Y-110283500D01*
X73469500Y-110283500D01*
X73469500Y-109545375D01*
X73850500Y-109545375D01*
X73850500Y-110283500D01*
X74713625Y-110283500D01*
X74856500Y-110140625D01*
X74856500Y-109860322D01*
X74769494Y-109650272D01*
X74608729Y-109489506D01*
X74442649Y-109420713D01*
X75440324Y-109420713D01*
X75594295Y-109793352D01*
X75879149Y-110078703D01*
X76251518Y-110233324D01*
X76654713Y-110233676D01*
X77027352Y-110079705D01*
X77247117Y-109860322D01*
X77289500Y-109860322D01*
X77289500Y-110140625D01*
X77432375Y-110283500D01*
X78295500Y-110283500D01*
X78295500Y-109545375D01*
X78676500Y-109545375D01*
X78676500Y-110283500D01*
X79539625Y-110283500D01*
X79682500Y-110140625D01*
X79682500Y-109860322D01*
X79595494Y-109650272D01*
X79434729Y-109489506D01*
X79224679Y-109402500D01*
X78819375Y-109402500D01*
X78676500Y-109545375D01*
X78295500Y-109545375D01*
X78152625Y-109402500D01*
X77747321Y-109402500D01*
X77537271Y-109489506D01*
X77376506Y-109650272D01*
X77289500Y-109860322D01*
X77247117Y-109860322D01*
X77312703Y-109794851D01*
X77467324Y-109422482D01*
X77467676Y-109019287D01*
X77402893Y-108862500D01*
X77592338Y-108862500D01*
X77592338Y-108974000D01*
X77610712Y-109071647D01*
X77668421Y-109161330D01*
X77756475Y-109221495D01*
X77861000Y-109242662D01*
X79111000Y-109242662D01*
X79208647Y-109224288D01*
X79298330Y-109166579D01*
X79358495Y-109078525D01*
X79379662Y-108974000D01*
X79379662Y-107974000D01*
X79361288Y-107876353D01*
X79303579Y-107786670D01*
X79215525Y-107726505D01*
X79111000Y-107705338D01*
X77861000Y-107705338D01*
X77763353Y-107723712D01*
X77673670Y-107781421D01*
X77613505Y-107869475D01*
X77592338Y-107974000D01*
X77592338Y-108085500D01*
X77200000Y-108085500D01*
X77051327Y-108115073D01*
X76925289Y-108199289D01*
X76841200Y-108283378D01*
X76656482Y-108206676D01*
X76253287Y-108206324D01*
X75880648Y-108360295D01*
X75595297Y-108645149D01*
X75440676Y-109017518D01*
X75440324Y-109420713D01*
X74442649Y-109420713D01*
X74398679Y-109402500D01*
X73993375Y-109402500D01*
X73850500Y-109545375D01*
X73469500Y-109545375D01*
X73326625Y-109402500D01*
X72921321Y-109402500D01*
X72711271Y-109489506D01*
X72550506Y-109650272D01*
X72463500Y-109860322D01*
X72367117Y-109860322D01*
X72432703Y-109794851D01*
X72587324Y-109422482D01*
X72587676Y-109019287D01*
X72522893Y-108862500D01*
X72766338Y-108862500D01*
X72766338Y-108974000D01*
X72784712Y-109071647D01*
X72842421Y-109161330D01*
X72930475Y-109221495D01*
X73035000Y-109242662D01*
X74285000Y-109242662D01*
X74382647Y-109224288D01*
X74472330Y-109166579D01*
X74532495Y-109078525D01*
X74553662Y-108974000D01*
X74553662Y-107974000D01*
X74535288Y-107876353D01*
X74477579Y-107786670D01*
X74389525Y-107726505D01*
X74285000Y-107705338D01*
X73035000Y-107705338D01*
X72937353Y-107723712D01*
X72847670Y-107781421D01*
X72787505Y-107869475D01*
X72766338Y-107974000D01*
X72766338Y-108085500D01*
X72320000Y-108085500D01*
X72171327Y-108115073D01*
X72045289Y-108199289D01*
X71961200Y-108283378D01*
X71776482Y-108206676D01*
X71373287Y-108206324D01*
X71000648Y-108360295D01*
X70715297Y-108645149D01*
X70560676Y-109017518D01*
X70560324Y-109420713D01*
X69730500Y-109420713D01*
X69730500Y-107729922D01*
X71394711Y-106065711D01*
X71478928Y-105939672D01*
X71508500Y-105791000D01*
X71508500Y-104729392D01*
X71617157Y-104892008D01*
X71962181Y-105122546D01*
X72369165Y-105203500D01*
X72410835Y-105203500D01*
X72817819Y-105122546D01*
X73162843Y-104892008D01*
X73393381Y-104546984D01*
X73474335Y-104140000D01*
X73471271Y-104124595D01*
X76017402Y-104124595D01*
X76103009Y-104331780D01*
X76261386Y-104490434D01*
X76468421Y-104576402D01*
X76488932Y-104576420D01*
X80190256Y-108277744D01*
X80340626Y-108378218D01*
X80518000Y-108413500D01*
X81431338Y-108413500D01*
X81431338Y-108800000D01*
X81449712Y-108897647D01*
X81507421Y-108987330D01*
X81595475Y-109047495D01*
X81700000Y-109068662D01*
X83400000Y-109068662D01*
X83497647Y-109050288D01*
X83587330Y-108992579D01*
X83647495Y-108904525D01*
X83668662Y-108800000D01*
X83668662Y-107100000D01*
X83650288Y-107002353D01*
X83592579Y-106912670D01*
X83504525Y-106852505D01*
X83400000Y-106831338D01*
X81700000Y-106831338D01*
X81602353Y-106849712D01*
X81512670Y-106907421D01*
X81452505Y-106995475D01*
X81431338Y-107100000D01*
X81431338Y-107486500D01*
X80709988Y-107486500D01*
X77144581Y-103921093D01*
X77144598Y-103901405D01*
X77058991Y-103694220D01*
X76900614Y-103535566D01*
X76693579Y-103449598D01*
X76469405Y-103449402D01*
X76262220Y-103535009D01*
X76103566Y-103693386D01*
X76017598Y-103900421D01*
X76017402Y-104124595D01*
X73471271Y-104124595D01*
X73393381Y-103733016D01*
X73162843Y-103387992D01*
X72817819Y-103157454D01*
X72410835Y-103076500D01*
X72369165Y-103076500D01*
X71962181Y-103157454D01*
X71617157Y-103387992D01*
X71508500Y-103550608D01*
X71508500Y-102189392D01*
X71617157Y-102352008D01*
X71962181Y-102582546D01*
X72369165Y-102663500D01*
X72410835Y-102663500D01*
X72817819Y-102582546D01*
X73162843Y-102352008D01*
X73393381Y-102006984D01*
X73474335Y-101600000D01*
X78925665Y-101600000D01*
X79006619Y-102006984D01*
X79237157Y-102352008D01*
X79582181Y-102582546D01*
X79989165Y-102663500D01*
X80030835Y-102663500D01*
X80437819Y-102582546D01*
X80764500Y-102364264D01*
X80764500Y-103375736D01*
X80437819Y-103157454D01*
X80030835Y-103076500D01*
X79989165Y-103076500D01*
X79582181Y-103157454D01*
X79237157Y-103387992D01*
X79006619Y-103733016D01*
X78925665Y-104140000D01*
X79006619Y-104546984D01*
X79237157Y-104892008D01*
X79582181Y-105122546D01*
X79989165Y-105203500D01*
X80030835Y-105203500D01*
X80437819Y-105122546D01*
X80764500Y-104904264D01*
X80764500Y-105382607D01*
X80675566Y-105471386D01*
X80589598Y-105678421D01*
X80589402Y-105902595D01*
X80675009Y-106109780D01*
X80833386Y-106268434D01*
X81040421Y-106354402D01*
X81264595Y-106354598D01*
X81471780Y-106268991D01*
X81630434Y-106110614D01*
X81716402Y-105903579D01*
X81716598Y-105679405D01*
X81630991Y-105472220D01*
X81541500Y-105382572D01*
X81541500Y-105200615D01*
X81595475Y-105237495D01*
X81700000Y-105258662D01*
X83400000Y-105258662D01*
X83497647Y-105240288D01*
X83587330Y-105182579D01*
X83647495Y-105094525D01*
X83668662Y-104990000D01*
X83668662Y-103290000D01*
X83650288Y-103192353D01*
X83592579Y-103102670D01*
X83504525Y-103042505D01*
X83400000Y-103021338D01*
X81700000Y-103021338D01*
X81602353Y-103039712D01*
X81541500Y-103078870D01*
X81541500Y-102089058D01*
X81740822Y-102387363D01*
X82102067Y-102628740D01*
X82528185Y-102713500D01*
X82571815Y-102713500D01*
X82997933Y-102628740D01*
X83359178Y-102387363D01*
X83600555Y-102026118D01*
X83685315Y-101600000D01*
X83600555Y-101173882D01*
X83359178Y-100812637D01*
X82997933Y-100571260D01*
X82571815Y-100486500D01*
X82528185Y-100486500D01*
X82102067Y-100571260D01*
X81740822Y-100812637D01*
X81541500Y-101110942D01*
X81541500Y-100617922D01*
X82083253Y-100076169D01*
X82102067Y-100088740D01*
X82528185Y-100173500D01*
X82571815Y-100173500D01*
X82997933Y-100088740D01*
X83359178Y-99847363D01*
X83600555Y-99486118D01*
X83685315Y-99060000D01*
X83600555Y-98633882D01*
X83359178Y-98272637D01*
X82997933Y-98031260D01*
X82571815Y-97946500D01*
X82528185Y-97946500D01*
X82102067Y-98031260D01*
X81740822Y-98272637D01*
X81499445Y-98633882D01*
X81414685Y-99060000D01*
X81499445Y-99486118D01*
X81529492Y-99531086D01*
X80878289Y-100182289D01*
X80794073Y-100308327D01*
X80764500Y-100457000D01*
X80764500Y-100835736D01*
X80437819Y-100617454D01*
X80030835Y-100536500D01*
X79989165Y-100536500D01*
X79582181Y-100617454D01*
X79237157Y-100847992D01*
X79006619Y-101193016D01*
X78925665Y-101600000D01*
X73474335Y-101600000D01*
X73393381Y-101193016D01*
X73162843Y-100847992D01*
X72817819Y-100617454D01*
X72410835Y-100536500D01*
X72369165Y-100536500D01*
X71962181Y-100617454D01*
X71617157Y-100847992D01*
X71508500Y-101010608D01*
X71508500Y-99649392D01*
X71617157Y-99812008D01*
X71962181Y-100042546D01*
X72369165Y-100123500D01*
X72410835Y-100123500D01*
X72817819Y-100042546D01*
X73162843Y-99812008D01*
X73393381Y-99466984D01*
X73474335Y-99060000D01*
X78925665Y-99060000D01*
X79006619Y-99466984D01*
X79237157Y-99812008D01*
X79582181Y-100042546D01*
X79989165Y-100123500D01*
X80030835Y-100123500D01*
X80437819Y-100042546D01*
X80782843Y-99812008D01*
X81013381Y-99466984D01*
X81094335Y-99060000D01*
X81013381Y-98653016D01*
X80782843Y-98307992D01*
X80437819Y-98077454D01*
X80030835Y-97996500D01*
X79989165Y-97996500D01*
X79582181Y-98077454D01*
X79237157Y-98307992D01*
X79006619Y-98653016D01*
X78925665Y-99060000D01*
X73474335Y-99060000D01*
X73393381Y-98653016D01*
X73162843Y-98307992D01*
X72817819Y-98077454D01*
X72410835Y-97996500D01*
X72369165Y-97996500D01*
X71962181Y-98077454D01*
X71617157Y-98307992D01*
X71508500Y-98470608D01*
X71508500Y-97109392D01*
X71617157Y-97272008D01*
X71962181Y-97502546D01*
X72369165Y-97583500D01*
X72410835Y-97583500D01*
X72817819Y-97502546D01*
X73162843Y-97272008D01*
X73393381Y-96926984D01*
X73474335Y-96520000D01*
X78925665Y-96520000D01*
X79006619Y-96926984D01*
X79237157Y-97272008D01*
X79582181Y-97502546D01*
X79989165Y-97583500D01*
X80030835Y-97583500D01*
X80437819Y-97502546D01*
X80782843Y-97272008D01*
X81013381Y-96926984D01*
X81094335Y-96520000D01*
X81414685Y-96520000D01*
X81499445Y-96946118D01*
X81740822Y-97307363D01*
X82102067Y-97548740D01*
X82528185Y-97633500D01*
X82571815Y-97633500D01*
X82997933Y-97548740D01*
X83359178Y-97307363D01*
X83600555Y-96946118D01*
X83685315Y-96520000D01*
X83600555Y-96093882D01*
X83359178Y-95732637D01*
X82997933Y-95491260D01*
X82571815Y-95406500D01*
X82528185Y-95406500D01*
X82102067Y-95491260D01*
X81740822Y-95732637D01*
X81499445Y-96093882D01*
X81414685Y-96520000D01*
X81094335Y-96520000D01*
X81013381Y-96113016D01*
X80782843Y-95767992D01*
X80437819Y-95537454D01*
X80030835Y-95456500D01*
X79989165Y-95456500D01*
X79582181Y-95537454D01*
X79237157Y-95767992D01*
X79006619Y-96113016D01*
X78925665Y-96520000D01*
X73474335Y-96520000D01*
X73393381Y-96113016D01*
X73162843Y-95767992D01*
X72817819Y-95537454D01*
X72410835Y-95456500D01*
X72369165Y-95456500D01*
X71962181Y-95537454D01*
X71617157Y-95767992D01*
X71508500Y-95930608D01*
X71508500Y-94569392D01*
X71617157Y-94732008D01*
X71962181Y-94962546D01*
X72369165Y-95043500D01*
X72410835Y-95043500D01*
X72817819Y-94962546D01*
X73162843Y-94732008D01*
X73393381Y-94386984D01*
X73474335Y-93980000D01*
X78925665Y-93980000D01*
X79006619Y-94386984D01*
X79237157Y-94732008D01*
X79582181Y-94962546D01*
X79989165Y-95043500D01*
X80030835Y-95043500D01*
X80437819Y-94962546D01*
X80782843Y-94732008D01*
X81013381Y-94386984D01*
X81094335Y-93980000D01*
X81414685Y-93980000D01*
X81499445Y-94406118D01*
X81740822Y-94767363D01*
X82102067Y-95008740D01*
X82528185Y-95093500D01*
X82571815Y-95093500D01*
X82997933Y-95008740D01*
X83359178Y-94767363D01*
X83600555Y-94406118D01*
X83685315Y-93980000D01*
X83600555Y-93553882D01*
X83359178Y-93192637D01*
X82997933Y-92951260D01*
X82571815Y-92866500D01*
X82528185Y-92866500D01*
X82102067Y-92951260D01*
X81740822Y-93192637D01*
X81499445Y-93553882D01*
X81414685Y-93980000D01*
X81094335Y-93980000D01*
X81013381Y-93573016D01*
X80782843Y-93227992D01*
X80437819Y-92997454D01*
X80030835Y-92916500D01*
X79989165Y-92916500D01*
X79582181Y-92997454D01*
X79237157Y-93227992D01*
X79006619Y-93573016D01*
X78925665Y-93980000D01*
X73474335Y-93980000D01*
X73393381Y-93573016D01*
X73162843Y-93227992D01*
X72817819Y-92997454D01*
X72410835Y-92916500D01*
X72369165Y-92916500D01*
X71962181Y-92997454D01*
X71617157Y-93227992D01*
X71508500Y-93390608D01*
X71508500Y-92029392D01*
X71617157Y-92192008D01*
X71962181Y-92422546D01*
X72369165Y-92503500D01*
X72410835Y-92503500D01*
X72817819Y-92422546D01*
X72899639Y-92367875D01*
X74128500Y-92367875D01*
X74128500Y-92463679D01*
X74215506Y-92673729D01*
X74376272Y-92834494D01*
X74586322Y-92921500D01*
X74682125Y-92921500D01*
X74825000Y-92778625D01*
X74825000Y-92225000D01*
X75075000Y-92225000D01*
X75075000Y-92778625D01*
X75217875Y-92921500D01*
X75313678Y-92921500D01*
X75523728Y-92834494D01*
X75684494Y-92673729D01*
X75771500Y-92463679D01*
X75771500Y-92367875D01*
X75628625Y-92225000D01*
X75075000Y-92225000D01*
X74825000Y-92225000D01*
X74271375Y-92225000D01*
X74128500Y-92367875D01*
X72899639Y-92367875D01*
X73162843Y-92192008D01*
X73393381Y-91846984D01*
X73415393Y-91736321D01*
X74128500Y-91736321D01*
X74128500Y-91832125D01*
X74271375Y-91975000D01*
X74825000Y-91975000D01*
X74825000Y-91421375D01*
X75075000Y-91421375D01*
X75075000Y-91975000D01*
X75628625Y-91975000D01*
X75771500Y-91832125D01*
X75771500Y-91736321D01*
X75684494Y-91526271D01*
X75523728Y-91365506D01*
X75313678Y-91278500D01*
X75217875Y-91278500D01*
X75075000Y-91421375D01*
X74825000Y-91421375D01*
X74682125Y-91278500D01*
X74586322Y-91278500D01*
X74376272Y-91365506D01*
X74215506Y-91526271D01*
X74128500Y-91736321D01*
X73415393Y-91736321D01*
X73474335Y-91440000D01*
X73393381Y-91033016D01*
X73162843Y-90687992D01*
X72817819Y-90457454D01*
X72410835Y-90376500D01*
X72369165Y-90376500D01*
X71962181Y-90457454D01*
X71617157Y-90687992D01*
X71508500Y-90850608D01*
X71508500Y-89947035D01*
X71517904Y-89958538D01*
X71989373Y-90211698D01*
X72199500Y-90115346D01*
X72199500Y-89090500D01*
X72580500Y-89090500D01*
X72580500Y-90115346D01*
X72790627Y-90211698D01*
X73262096Y-89958538D01*
X73600797Y-89544225D01*
X73701682Y-89300625D01*
X73603767Y-89090500D01*
X72580500Y-89090500D01*
X72199500Y-89090500D01*
X72179500Y-89090500D01*
X72179500Y-88967875D01*
X74128500Y-88967875D01*
X74128500Y-89063679D01*
X74215506Y-89273729D01*
X74376272Y-89434494D01*
X74586322Y-89521500D01*
X74682125Y-89521500D01*
X74825000Y-89378625D01*
X74825000Y-88825000D01*
X75075000Y-88825000D01*
X75075000Y-89378625D01*
X75217875Y-89521500D01*
X75313678Y-89521500D01*
X75523728Y-89434494D01*
X75684494Y-89273729D01*
X75771500Y-89063679D01*
X75771500Y-88967875D01*
X75628625Y-88825000D01*
X75075000Y-88825000D01*
X74825000Y-88825000D01*
X74271375Y-88825000D01*
X74128500Y-88967875D01*
X72179500Y-88967875D01*
X72179500Y-88709500D01*
X72199500Y-88709500D01*
X72199500Y-87684654D01*
X72580500Y-87684654D01*
X72580500Y-88709500D01*
X73603767Y-88709500D01*
X73701682Y-88499375D01*
X73634155Y-88336321D01*
X74128500Y-88336321D01*
X74128500Y-88432125D01*
X74271375Y-88575000D01*
X74825000Y-88575000D01*
X74825000Y-88021375D01*
X75075000Y-88021375D01*
X75075000Y-88575000D01*
X75628625Y-88575000D01*
X75771500Y-88432125D01*
X75771500Y-88336321D01*
X75684494Y-88126271D01*
X75523728Y-87965506D01*
X75313678Y-87878500D01*
X75217875Y-87878500D01*
X75075000Y-88021375D01*
X74825000Y-88021375D01*
X74682125Y-87878500D01*
X74586322Y-87878500D01*
X74376272Y-87965506D01*
X74215506Y-88126271D01*
X74128500Y-88336321D01*
X73634155Y-88336321D01*
X73600797Y-88255775D01*
X73262096Y-87841462D01*
X72790627Y-87588302D01*
X72580500Y-87684654D01*
X72199500Y-87684654D01*
X71989373Y-87588302D01*
X71517904Y-87841462D01*
X71508500Y-87852965D01*
X71508500Y-86949392D01*
X71617157Y-87112008D01*
X71962181Y-87342546D01*
X72369165Y-87423500D01*
X72410835Y-87423500D01*
X72817819Y-87342546D01*
X73162843Y-87112008D01*
X73393381Y-86766984D01*
X73474335Y-86360000D01*
X73393381Y-85953016D01*
X73162843Y-85607992D01*
X72817819Y-85377454D01*
X72410835Y-85296500D01*
X72369165Y-85296500D01*
X71962181Y-85377454D01*
X71617157Y-85607992D01*
X71508500Y-85770608D01*
X71508500Y-84409392D01*
X71617157Y-84572008D01*
X71962181Y-84802546D01*
X72369165Y-84883500D01*
X72410835Y-84883500D01*
X72817819Y-84802546D01*
X73162843Y-84572008D01*
X73393381Y-84226984D01*
X73397058Y-84208500D01*
X74631338Y-84208500D01*
X74631338Y-84470000D01*
X74649712Y-84567647D01*
X74707421Y-84657330D01*
X74795475Y-84717495D01*
X74900000Y-84738662D01*
X75600000Y-84738662D01*
X75697647Y-84720288D01*
X75787330Y-84662579D01*
X75847495Y-84574525D01*
X75868662Y-84470000D01*
X75868662Y-83170000D01*
X75850288Y-83072353D01*
X75792579Y-82982670D01*
X75704525Y-82922505D01*
X75600000Y-82901338D01*
X74900000Y-82901338D01*
X74802353Y-82919712D01*
X74712670Y-82977421D01*
X74652505Y-83065475D01*
X74631338Y-83170000D01*
X74631338Y-83431500D01*
X73397058Y-83431500D01*
X73393381Y-83413016D01*
X73162843Y-83067992D01*
X72817819Y-82837454D01*
X72410835Y-82756500D01*
X72369165Y-82756500D01*
X71962181Y-82837454D01*
X71617157Y-83067992D01*
X71508500Y-83230608D01*
X71508500Y-81869392D01*
X71617157Y-82032008D01*
X71962181Y-82262546D01*
X72369165Y-82343500D01*
X72410835Y-82343500D01*
X72817819Y-82262546D01*
X73162843Y-82032008D01*
X73393381Y-81686984D01*
X73397058Y-81668500D01*
X74631338Y-81668500D01*
X74631338Y-81930000D01*
X74649712Y-82027647D01*
X74707421Y-82117330D01*
X74795475Y-82177495D01*
X74900000Y-82198662D01*
X75600000Y-82198662D01*
X75697647Y-82180288D01*
X75787330Y-82122579D01*
X75847495Y-82034525D01*
X75868662Y-81930000D01*
X75868662Y-80689963D01*
X75879378Y-80706000D01*
X75925289Y-80774711D01*
X76531338Y-81380760D01*
X76531338Y-81930000D01*
X76549712Y-82027647D01*
X76607421Y-82117330D01*
X76695475Y-82177495D01*
X76761500Y-82190865D01*
X76761500Y-82908582D01*
X76702353Y-82919712D01*
X76612670Y-82977421D01*
X76552505Y-83065475D01*
X76531338Y-83170000D01*
X76531338Y-84470000D01*
X76549712Y-84567647D01*
X76607421Y-84657330D01*
X76695475Y-84717495D01*
X76761500Y-84730865D01*
X76761500Y-88226000D01*
X76712670Y-88257421D01*
X76652505Y-88345475D01*
X76631338Y-88450000D01*
X76631338Y-88950000D01*
X76649712Y-89047647D01*
X76707421Y-89137330D01*
X76795475Y-89197495D01*
X76900000Y-89218662D01*
X77400000Y-89218662D01*
X77497647Y-89200288D01*
X77587330Y-89142579D01*
X77647495Y-89054525D01*
X77668662Y-88950000D01*
X77668662Y-88450000D01*
X77650288Y-88352353D01*
X77592579Y-88262670D01*
X77538500Y-88225719D01*
X77538500Y-84731418D01*
X77597647Y-84720288D01*
X77687330Y-84662579D01*
X77747495Y-84574525D01*
X77768662Y-84470000D01*
X77768662Y-83170000D01*
X77750288Y-83072353D01*
X77692579Y-82982670D01*
X77604525Y-82922505D01*
X77538500Y-82909135D01*
X77538500Y-82191418D01*
X77597647Y-82180288D01*
X77687330Y-82122579D01*
X77747495Y-82034525D01*
X77768662Y-81930000D01*
X77768662Y-80630000D01*
X77750288Y-80532353D01*
X77692579Y-80442670D01*
X77604525Y-80382505D01*
X77500000Y-80361338D01*
X77320022Y-80361338D01*
X77298673Y-80347073D01*
X77150000Y-80317500D01*
X77001327Y-80347073D01*
X76979978Y-80361338D01*
X76800000Y-80361338D01*
X76702353Y-80379712D01*
X76657802Y-80408380D01*
X76588500Y-80339078D01*
X76588500Y-79547926D01*
X76607421Y-79577330D01*
X76695475Y-79637495D01*
X76800000Y-79658662D01*
X77259240Y-79658662D01*
X77811500Y-80210922D01*
X77811500Y-90889078D01*
X77119240Y-91581338D01*
X76900000Y-91581338D01*
X76802353Y-91599712D01*
X76712670Y-91657421D01*
X76652505Y-91745475D01*
X76631338Y-91850000D01*
X76631338Y-92350000D01*
X76649712Y-92447647D01*
X76707421Y-92537330D01*
X76795475Y-92597495D01*
X76900000Y-92618662D01*
X77400000Y-92618662D01*
X77497647Y-92600288D01*
X77587330Y-92542579D01*
X77647495Y-92454525D01*
X77668662Y-92350000D01*
X77668662Y-92130760D01*
X78359422Y-91440000D01*
X78925665Y-91440000D01*
X79006619Y-91846984D01*
X79237157Y-92192008D01*
X79582181Y-92422546D01*
X79989165Y-92503500D01*
X80030835Y-92503500D01*
X80437819Y-92422546D01*
X80782843Y-92192008D01*
X81013381Y-91846984D01*
X81094335Y-91440000D01*
X81414685Y-91440000D01*
X81499445Y-91866118D01*
X81740822Y-92227363D01*
X82102067Y-92468740D01*
X82528185Y-92553500D01*
X82571815Y-92553500D01*
X82997933Y-92468740D01*
X83359178Y-92227363D01*
X83600555Y-91866118D01*
X83685315Y-91440000D01*
X83600555Y-91013882D01*
X83359178Y-90652637D01*
X82997933Y-90411260D01*
X82571815Y-90326500D01*
X82528185Y-90326500D01*
X82102067Y-90411260D01*
X81740822Y-90652637D01*
X81499445Y-91013882D01*
X81414685Y-91440000D01*
X81094335Y-91440000D01*
X81013381Y-91033016D01*
X80782843Y-90687992D01*
X80437819Y-90457454D01*
X80030835Y-90376500D01*
X79989165Y-90376500D01*
X79582181Y-90457454D01*
X79237157Y-90687992D01*
X79006619Y-91033016D01*
X78925665Y-91440000D01*
X78359422Y-91440000D01*
X78474711Y-91324711D01*
X78505588Y-91278500D01*
X78558927Y-91198673D01*
X78588500Y-91050000D01*
X78588500Y-88900000D01*
X78925665Y-88900000D01*
X79006619Y-89306984D01*
X79237157Y-89652008D01*
X79582181Y-89882546D01*
X79989165Y-89963500D01*
X80030835Y-89963500D01*
X80437819Y-89882546D01*
X80782843Y-89652008D01*
X81013381Y-89306984D01*
X81094335Y-88900000D01*
X81414685Y-88900000D01*
X81499445Y-89326118D01*
X81740822Y-89687363D01*
X82102067Y-89928740D01*
X82528185Y-90013500D01*
X82571815Y-90013500D01*
X82997933Y-89928740D01*
X83359178Y-89687363D01*
X83600555Y-89326118D01*
X83685315Y-88900000D01*
X83600555Y-88473882D01*
X83359178Y-88112637D01*
X82997933Y-87871260D01*
X82571815Y-87786500D01*
X82528185Y-87786500D01*
X82102067Y-87871260D01*
X81740822Y-88112637D01*
X81499445Y-88473882D01*
X81414685Y-88900000D01*
X81094335Y-88900000D01*
X81013381Y-88493016D01*
X80782843Y-88147992D01*
X80437819Y-87917454D01*
X80030835Y-87836500D01*
X79989165Y-87836500D01*
X79582181Y-87917454D01*
X79237157Y-88147992D01*
X79006619Y-88493016D01*
X78925665Y-88900000D01*
X78588500Y-88900000D01*
X78588500Y-86760625D01*
X78698318Y-86760625D01*
X78799203Y-87004225D01*
X79137904Y-87418538D01*
X79609373Y-87671698D01*
X79819500Y-87575346D01*
X79819500Y-86550500D01*
X80200500Y-86550500D01*
X80200500Y-87575346D01*
X80410627Y-87671698D01*
X80882096Y-87418538D01*
X81220797Y-87004225D01*
X81253440Y-86925404D01*
X81298370Y-87033891D01*
X81651532Y-87461572D01*
X82141477Y-87721549D01*
X82359500Y-87625818D01*
X82359500Y-86550500D01*
X81285646Y-86550500D01*
X81255394Y-86618371D01*
X81223767Y-86550500D01*
X80200500Y-86550500D01*
X79819500Y-86550500D01*
X78796233Y-86550500D01*
X78698318Y-86760625D01*
X78588500Y-86760625D01*
X78588500Y-85959375D01*
X78698318Y-85959375D01*
X78796233Y-86169500D01*
X79819500Y-86169500D01*
X79819500Y-85144654D01*
X80200500Y-85144654D01*
X80200500Y-86169500D01*
X81223767Y-86169500D01*
X81255394Y-86101629D01*
X81285646Y-86169500D01*
X82359500Y-86169500D01*
X82359500Y-85094182D01*
X82141477Y-84998451D01*
X81651532Y-85258428D01*
X81298370Y-85686109D01*
X81253440Y-85794596D01*
X81220797Y-85715775D01*
X80882096Y-85301462D01*
X80410627Y-85048302D01*
X80200500Y-85144654D01*
X79819500Y-85144654D01*
X79609373Y-85048302D01*
X79137904Y-85301462D01*
X78799203Y-85715775D01*
X78698318Y-85959375D01*
X78588500Y-85959375D01*
X78588500Y-83820000D01*
X78925665Y-83820000D01*
X79006619Y-84226984D01*
X79237157Y-84572008D01*
X79582181Y-84802546D01*
X79989165Y-84883500D01*
X80030835Y-84883500D01*
X80437819Y-84802546D01*
X80782843Y-84572008D01*
X81013381Y-84226984D01*
X81094335Y-83820000D01*
X81414685Y-83820000D01*
X81499445Y-84246118D01*
X81740822Y-84607363D01*
X82102067Y-84848740D01*
X82528185Y-84933500D01*
X82571815Y-84933500D01*
X82997933Y-84848740D01*
X83359178Y-84607363D01*
X83600555Y-84246118D01*
X83685315Y-83820000D01*
X83600555Y-83393882D01*
X83359178Y-83032637D01*
X82997933Y-82791260D01*
X82571815Y-82706500D01*
X82528185Y-82706500D01*
X82102067Y-82791260D01*
X81740822Y-83032637D01*
X81499445Y-83393882D01*
X81414685Y-83820000D01*
X81094335Y-83820000D01*
X81013381Y-83413016D01*
X80782843Y-83067992D01*
X80437819Y-82837454D01*
X80030835Y-82756500D01*
X79989165Y-82756500D01*
X79582181Y-82837454D01*
X79237157Y-83067992D01*
X79006619Y-83413016D01*
X78925665Y-83820000D01*
X78588500Y-83820000D01*
X78588500Y-81280000D01*
X78925665Y-81280000D01*
X79006619Y-81686984D01*
X79237157Y-82032008D01*
X79582181Y-82262546D01*
X79989165Y-82343500D01*
X80030835Y-82343500D01*
X80437819Y-82262546D01*
X80782843Y-82032008D01*
X81013381Y-81686984D01*
X81094335Y-81280000D01*
X81414685Y-81280000D01*
X81499445Y-81706118D01*
X81740822Y-82067363D01*
X82102067Y-82308740D01*
X82528185Y-82393500D01*
X82571815Y-82393500D01*
X82997933Y-82308740D01*
X83359178Y-82067363D01*
X83600555Y-81706118D01*
X83685315Y-81280000D01*
X83600555Y-80853882D01*
X83359178Y-80492637D01*
X82997933Y-80251260D01*
X82571815Y-80166500D01*
X82528185Y-80166500D01*
X82102067Y-80251260D01*
X81740822Y-80492637D01*
X81499445Y-80853882D01*
X81414685Y-81280000D01*
X81094335Y-81280000D01*
X81013381Y-80873016D01*
X80782843Y-80527992D01*
X80437819Y-80297454D01*
X80030835Y-80216500D01*
X79989165Y-80216500D01*
X79582181Y-80297454D01*
X79237157Y-80527992D01*
X79006619Y-80873016D01*
X78925665Y-81280000D01*
X78588500Y-81280000D01*
X78588500Y-80050000D01*
X78558927Y-79901327D01*
X78474711Y-79775289D01*
X77768662Y-79069240D01*
X77768662Y-78740000D01*
X78925665Y-78740000D01*
X79006619Y-79146984D01*
X79237157Y-79492008D01*
X79582181Y-79722546D01*
X79989165Y-79803500D01*
X80030835Y-79803500D01*
X80437819Y-79722546D01*
X80782843Y-79492008D01*
X81013381Y-79146984D01*
X81094335Y-78740000D01*
X81414685Y-78740000D01*
X81499445Y-79166118D01*
X81740822Y-79527363D01*
X82102067Y-79768740D01*
X82528185Y-79853500D01*
X82571815Y-79853500D01*
X82997933Y-79768740D01*
X83359178Y-79527363D01*
X83600555Y-79166118D01*
X83685315Y-78740000D01*
X83600555Y-78313882D01*
X83359178Y-77952637D01*
X82997933Y-77711260D01*
X82571815Y-77626500D01*
X82528185Y-77626500D01*
X82102067Y-77711260D01*
X81740822Y-77952637D01*
X81499445Y-78313882D01*
X81414685Y-78740000D01*
X81094335Y-78740000D01*
X81013381Y-78333016D01*
X80782843Y-77987992D01*
X80437819Y-77757454D01*
X80030835Y-77676500D01*
X79989165Y-77676500D01*
X79582181Y-77757454D01*
X79237157Y-77987992D01*
X79006619Y-78333016D01*
X78925665Y-78740000D01*
X77768662Y-78740000D01*
X77768662Y-78090000D01*
X77750288Y-77992353D01*
X77692579Y-77902670D01*
X77604525Y-77842505D01*
X77538500Y-77829135D01*
X77538500Y-77111418D01*
X77597647Y-77100288D01*
X77687330Y-77042579D01*
X77747495Y-76954525D01*
X77768662Y-76850000D01*
X77768662Y-76200000D01*
X78925665Y-76200000D01*
X79006619Y-76606984D01*
X79237157Y-76952008D01*
X79582181Y-77182546D01*
X79989165Y-77263500D01*
X80030835Y-77263500D01*
X80437819Y-77182546D01*
X80782843Y-76952008D01*
X81013381Y-76606984D01*
X81094335Y-76200000D01*
X81414685Y-76200000D01*
X81499445Y-76626118D01*
X81740822Y-76987363D01*
X82102067Y-77228740D01*
X82528185Y-77313500D01*
X82571815Y-77313500D01*
X82997933Y-77228740D01*
X83359178Y-76987363D01*
X83600555Y-76626118D01*
X83685315Y-76200000D01*
X83600555Y-75773882D01*
X83359178Y-75412637D01*
X82997933Y-75171260D01*
X82571815Y-75086500D01*
X82528185Y-75086500D01*
X82102067Y-75171260D01*
X81740822Y-75412637D01*
X81499445Y-75773882D01*
X81414685Y-76200000D01*
X81094335Y-76200000D01*
X81013381Y-75793016D01*
X80782843Y-75447992D01*
X80437819Y-75217454D01*
X80030835Y-75136500D01*
X79989165Y-75136500D01*
X79582181Y-75217454D01*
X79237157Y-75447992D01*
X79006619Y-75793016D01*
X78925665Y-76200000D01*
X77768662Y-76200000D01*
X77768662Y-75550000D01*
X77750288Y-75452353D01*
X77692579Y-75362670D01*
X77604525Y-75302505D01*
X77538500Y-75289135D01*
X77538500Y-73660000D01*
X78925665Y-73660000D01*
X79006619Y-74066984D01*
X79237157Y-74412008D01*
X79582181Y-74642546D01*
X79989165Y-74723500D01*
X80030835Y-74723500D01*
X80437819Y-74642546D01*
X80782843Y-74412008D01*
X81013381Y-74066984D01*
X81094335Y-73660000D01*
X81414685Y-73660000D01*
X81499445Y-74086118D01*
X81740822Y-74447363D01*
X82102067Y-74688740D01*
X82528185Y-74773500D01*
X82571815Y-74773500D01*
X82997933Y-74688740D01*
X83359178Y-74447363D01*
X83600555Y-74086118D01*
X83685315Y-73660000D01*
X83600555Y-73233882D01*
X83359178Y-72872637D01*
X82997933Y-72631260D01*
X82571815Y-72546500D01*
X82528185Y-72546500D01*
X82102067Y-72631260D01*
X81740822Y-72872637D01*
X81499445Y-73233882D01*
X81414685Y-73660000D01*
X81094335Y-73660000D01*
X81013381Y-73253016D01*
X80782843Y-72907992D01*
X80437819Y-72677454D01*
X80030835Y-72596500D01*
X79989165Y-72596500D01*
X79582181Y-72677454D01*
X79237157Y-72907992D01*
X79006619Y-73253016D01*
X78925665Y-73660000D01*
X77538500Y-73660000D01*
X77538500Y-71120000D01*
X78925665Y-71120000D01*
X79006619Y-71526984D01*
X79237157Y-71872008D01*
X79582181Y-72102546D01*
X79989165Y-72183500D01*
X80030835Y-72183500D01*
X80437819Y-72102546D01*
X80782843Y-71872008D01*
X81013381Y-71526984D01*
X81094335Y-71120000D01*
X81414685Y-71120000D01*
X81499445Y-71546118D01*
X81740822Y-71907363D01*
X82102067Y-72148740D01*
X82528185Y-72233500D01*
X82571815Y-72233500D01*
X82997933Y-72148740D01*
X83359178Y-71907363D01*
X83600555Y-71546118D01*
X83685315Y-71120000D01*
X83600555Y-70693882D01*
X83359178Y-70332637D01*
X82997933Y-70091260D01*
X82571815Y-70006500D01*
X82528185Y-70006500D01*
X82102067Y-70091260D01*
X81740822Y-70332637D01*
X81499445Y-70693882D01*
X81414685Y-71120000D01*
X81094335Y-71120000D01*
X81013381Y-70713016D01*
X80782843Y-70367992D01*
X80437819Y-70137454D01*
X80030835Y-70056500D01*
X79989165Y-70056500D01*
X79582181Y-70137454D01*
X79237157Y-70367992D01*
X79006619Y-70713016D01*
X78925665Y-71120000D01*
X77538500Y-71120000D01*
X77538500Y-70881822D01*
X77668780Y-70827991D01*
X77827434Y-70669614D01*
X77913402Y-70462579D01*
X77913598Y-70238405D01*
X77827991Y-70031220D01*
X77669614Y-69872566D01*
X77462579Y-69786598D01*
X77238405Y-69786402D01*
X77031220Y-69872009D01*
X76872566Y-70030386D01*
X76786598Y-70237421D01*
X76786434Y-70424647D01*
X76761500Y-70550000D01*
X76761500Y-75288582D01*
X76702353Y-75299712D01*
X76612670Y-75357421D01*
X76588500Y-75392795D01*
X76588500Y-71000000D01*
X76558927Y-70851327D01*
X76474711Y-70725289D01*
X75188500Y-69439078D01*
X75188500Y-68643375D01*
X79702500Y-68643375D01*
X79702500Y-68923678D01*
X79789506Y-69133728D01*
X79950271Y-69294494D01*
X80160321Y-69381500D01*
X80565625Y-69381500D01*
X80708500Y-69238625D01*
X80708500Y-68500500D01*
X81089500Y-68500500D01*
X81089500Y-69238625D01*
X81232375Y-69381500D01*
X81637679Y-69381500D01*
X81847729Y-69294494D01*
X82008494Y-69133728D01*
X82095500Y-68923678D01*
X82095500Y-68643375D01*
X81952625Y-68500500D01*
X81089500Y-68500500D01*
X80708500Y-68500500D01*
X79845375Y-68500500D01*
X79702500Y-68643375D01*
X75188500Y-68643375D01*
X75188500Y-68100803D01*
X75285637Y-68246178D01*
X75646882Y-68487555D01*
X76073000Y-68572315D01*
X76499118Y-68487555D01*
X76860363Y-68246178D01*
X77101740Y-67884933D01*
X77186500Y-67458815D01*
X77186500Y-67415185D01*
X77499500Y-67415185D01*
X77499500Y-67458815D01*
X77584260Y-67884933D01*
X77825637Y-68246178D01*
X78186882Y-68487555D01*
X78613000Y-68572315D01*
X79039118Y-68487555D01*
X79400363Y-68246178D01*
X79641740Y-67884933D01*
X79679256Y-67696322D01*
X79702500Y-67696322D01*
X79702500Y-67976625D01*
X79845375Y-68119500D01*
X80708500Y-68119500D01*
X80708500Y-67381375D01*
X81089500Y-67381375D01*
X81089500Y-68119500D01*
X81952625Y-68119500D01*
X82095500Y-67976625D01*
X82095500Y-67696322D01*
X82008494Y-67486272D01*
X81847729Y-67325506D01*
X81637679Y-67238500D01*
X81232375Y-67238500D01*
X81089500Y-67381375D01*
X80708500Y-67381375D01*
X80565625Y-67238500D01*
X80160321Y-67238500D01*
X79950271Y-67325506D01*
X79789506Y-67486272D01*
X79702500Y-67696322D01*
X79679256Y-67696322D01*
X79726500Y-67458815D01*
X79726500Y-67415185D01*
X79641740Y-66989067D01*
X79400363Y-66627822D01*
X79039118Y-66386445D01*
X78613000Y-66301685D01*
X78186882Y-66386445D01*
X77825637Y-66627822D01*
X77584260Y-66989067D01*
X77499500Y-67415185D01*
X77186500Y-67415185D01*
X77101740Y-66989067D01*
X76860363Y-66627822D01*
X76809591Y-66593897D01*
X77407988Y-65995500D01*
X79929012Y-65995500D01*
X80005338Y-66071826D01*
X80005338Y-66810000D01*
X80023712Y-66907647D01*
X80081421Y-66997330D01*
X80169475Y-67057495D01*
X80274000Y-67078662D01*
X81524000Y-67078662D01*
X81621647Y-67060288D01*
X81711330Y-67002579D01*
X81771495Y-66914525D01*
X81792662Y-66810000D01*
X81792662Y-65810000D01*
X81774288Y-65712353D01*
X81716579Y-65622670D01*
X81628525Y-65562505D01*
X81524000Y-65541338D01*
X80785826Y-65541338D01*
X80448744Y-65204256D01*
X80298374Y-65103782D01*
X80121000Y-65068500D01*
X77216000Y-65068500D01*
X77038626Y-65103782D01*
X76888256Y-65204256D01*
X76060823Y-66031689D01*
X75977991Y-65831220D01*
X75819614Y-65672566D01*
X75612579Y-65586598D01*
X75388405Y-65586402D01*
X75181220Y-65672009D01*
X75022566Y-65830386D01*
X74936598Y-66037421D01*
X74936487Y-66164091D01*
X74624650Y-66475928D01*
X74575579Y-66399670D01*
X74487525Y-66339505D01*
X74383000Y-66318338D01*
X73996500Y-66318338D01*
X73996500Y-62323375D01*
X74526500Y-62323375D01*
X74526500Y-62853679D01*
X74613506Y-63063729D01*
X74774272Y-63224494D01*
X74984322Y-63311500D01*
X75764625Y-63311500D01*
X75907500Y-63168625D01*
X75907500Y-62180500D01*
X76288500Y-62180500D01*
X76288500Y-63168625D01*
X76431375Y-63311500D01*
X77211678Y-63311500D01*
X77421728Y-63224494D01*
X77582494Y-63063729D01*
X77669500Y-62853679D01*
X77669500Y-62323375D01*
X77526625Y-62180500D01*
X76288500Y-62180500D01*
X75907500Y-62180500D01*
X74669375Y-62180500D01*
X74526500Y-62323375D01*
X73996500Y-62323375D01*
X73996500Y-61871000D01*
X73961218Y-61693626D01*
X73911637Y-61619423D01*
X74141301Y-61619623D01*
X74403637Y-61511228D01*
X74526500Y-61388580D01*
X74526500Y-61656625D01*
X74669375Y-61799500D01*
X75907500Y-61799500D01*
X75907500Y-61779500D01*
X76288500Y-61779500D01*
X76288500Y-61799500D01*
X77526625Y-61799500D01*
X77669500Y-61656625D01*
X77669500Y-61126321D01*
X77600400Y-60959500D01*
X77686453Y-60959500D01*
X77686377Y-61047301D01*
X77794772Y-61309637D01*
X77995307Y-61510523D01*
X78257453Y-61619376D01*
X78541301Y-61619623D01*
X78803637Y-61511228D01*
X79004523Y-61310693D01*
X79113376Y-61048547D01*
X79113453Y-60959500D01*
X81026000Y-60959500D01*
X81118136Y-60942163D01*
X81129338Y-60934955D01*
X81129338Y-61590000D01*
X81147712Y-61687647D01*
X81205421Y-61777330D01*
X81293475Y-61837495D01*
X81398000Y-61858662D01*
X83398000Y-61858662D01*
X83495647Y-61840288D01*
X83585330Y-61782579D01*
X83645495Y-61694525D01*
X83666662Y-61590000D01*
X83666662Y-57790000D01*
X83648288Y-57692353D01*
X83590579Y-57602670D01*
X83502525Y-57542505D01*
X83398000Y-57521338D01*
X81398000Y-57521338D01*
X81300353Y-57539712D01*
X81279500Y-57553130D01*
X81279500Y-55675500D01*
X83770500Y-55675500D01*
X83770500Y-85648410D01*
X83770500Y-85648410D01*
G37*
X83770500Y-85648410D02*
X83448468Y-85258428D01*
X82958523Y-84998451D01*
X82740500Y-85094182D01*
X82740500Y-86169500D01*
X82760500Y-86169500D01*
X82760500Y-86550500D01*
X82740500Y-86550500D01*
X82740500Y-87625818D01*
X82958523Y-87721549D01*
X83448468Y-87461572D01*
X83770500Y-87071590D01*
X83770500Y-122124500D01*
X68629500Y-122124500D01*
X68629500Y-119282667D01*
X72284913Y-119282667D01*
X72397270Y-119553957D01*
X72754363Y-119985272D01*
X73249331Y-120247102D01*
X73469500Y-120151540D01*
X73469500Y-119062500D01*
X72381894Y-119062500D01*
X72284913Y-119282667D01*
X68629500Y-119282667D01*
X68629500Y-89611590D01*
X68951532Y-90001572D01*
X69441477Y-90261549D01*
X69659500Y-90165818D01*
X69659500Y-89090500D01*
X69639500Y-89090500D01*
X69639500Y-88709500D01*
X69659500Y-88709500D01*
X69659500Y-87634182D01*
X69441477Y-87538451D01*
X68951532Y-87798428D01*
X68629500Y-88188410D01*
X68629500Y-64600910D01*
X68732321Y-64643500D01*
X69262625Y-64643500D01*
X69405500Y-64500625D01*
X69405500Y-63287500D01*
X69786500Y-63287500D01*
X69786500Y-64500625D01*
X69929375Y-64643500D01*
X70459679Y-64643500D01*
X70669729Y-64556494D01*
X70802500Y-64423722D01*
X70935271Y-64556494D01*
X71145321Y-64643500D01*
X71675625Y-64643500D01*
X71818500Y-64500625D01*
X71818500Y-63287500D01*
X70830375Y-63287500D01*
X70802500Y-63315375D01*
X70774625Y-63287500D01*
X69786500Y-63287500D01*
X69405500Y-63287500D01*
X69385500Y-63287500D01*
X69385500Y-62906500D01*
X69405500Y-62906500D01*
X69405500Y-62886500D01*
X69786500Y-62886500D01*
X69786500Y-62906500D01*
X70774625Y-62906500D01*
X70802500Y-62878625D01*
X70830375Y-62906500D01*
X71818500Y-62906500D01*
X71818500Y-62886500D01*
X72199500Y-62886500D01*
X72199500Y-62906500D01*
X72219500Y-62906500D01*
X72219500Y-63287500D01*
X72199500Y-63287500D01*
X72199500Y-64500625D01*
X72342375Y-64643500D01*
X72872679Y-64643500D01*
X73069500Y-64561974D01*
X73069500Y-66318338D01*
X72683000Y-66318338D01*
X72585353Y-66336712D01*
X72495670Y-66394421D01*
X72435505Y-66482475D01*
X72414338Y-66587000D01*
X72414338Y-68287000D01*
X72432712Y-68384647D01*
X72490421Y-68474330D01*
X72578475Y-68534495D01*
X72683000Y-68555662D01*
X74383000Y-68555662D01*
X74411500Y-68550299D01*
X74411500Y-69600000D01*
X74441073Y-69748673D01*
X74466283Y-69786402D01*
X74525289Y-69874711D01*
X75811500Y-71160922D01*
X75811500Y-75019019D01*
X75713678Y-74978500D01*
X75567875Y-74978500D01*
X75425000Y-75121375D01*
X75425000Y-76009500D01*
X75460500Y-76009500D01*
X75460500Y-76390500D01*
X75425000Y-76390500D01*
X75425000Y-77278625D01*
X75567875Y-77421500D01*
X75713678Y-77421500D01*
X75811500Y-77380981D01*
X75811500Y-77932074D01*
X75792579Y-77902670D01*
X75704525Y-77842505D01*
X75600000Y-77821338D01*
X74900000Y-77821338D01*
X74802353Y-77839712D01*
X74712670Y-77897421D01*
X74652505Y-77985475D01*
X74631338Y-78090000D01*
X74631338Y-78351500D01*
X73397058Y-78351500D01*
X73393381Y-78333016D01*
X73162843Y-77987992D01*
X72817819Y-77757454D01*
X72410835Y-77676500D01*
X72369165Y-77676500D01*
X71962181Y-77757454D01*
X71617157Y-77987992D01*
X71508500Y-78150608D01*
X71508500Y-76789392D01*
X71617157Y-76952008D01*
X71962181Y-77182546D01*
X72369165Y-77263500D01*
X72410835Y-77263500D01*
X72817819Y-77182546D01*
X73162843Y-76952008D01*
X73393381Y-76606984D01*
X73408022Y-76533375D01*
X74328500Y-76533375D01*
X74328500Y-76963679D01*
X74415506Y-77173729D01*
X74576272Y-77334494D01*
X74786322Y-77421500D01*
X74932125Y-77421500D01*
X75075000Y-77278625D01*
X75075000Y-76390500D01*
X74471375Y-76390500D01*
X74328500Y-76533375D01*
X73408022Y-76533375D01*
X73474335Y-76200000D01*
X73393381Y-75793016D01*
X73162843Y-75447992D01*
X73145377Y-75436321D01*
X74328500Y-75436321D01*
X74328500Y-75866625D01*
X74471375Y-76009500D01*
X75075000Y-76009500D01*
X75075000Y-75121375D01*
X74932125Y-74978500D01*
X74786322Y-74978500D01*
X74576272Y-75065506D01*
X74415506Y-75226271D01*
X74328500Y-75436321D01*
X73145377Y-75436321D01*
X72817819Y-75217454D01*
X72410835Y-75136500D01*
X72369165Y-75136500D01*
X71962181Y-75217454D01*
X71617157Y-75447992D01*
X71508500Y-75610608D01*
X71508500Y-74249392D01*
X71617157Y-74412008D01*
X71962181Y-74642546D01*
X72369165Y-74723500D01*
X72410835Y-74723500D01*
X72817819Y-74642546D01*
X73162843Y-74412008D01*
X73393381Y-74066984D01*
X73474335Y-73660000D01*
X73393381Y-73253016D01*
X73162843Y-72907992D01*
X72817819Y-72677454D01*
X72410835Y-72596500D01*
X72369165Y-72596500D01*
X71962181Y-72677454D01*
X71617157Y-72907992D01*
X71508500Y-73070608D01*
X71508500Y-72390000D01*
X71478927Y-72241327D01*
X71394711Y-72115289D01*
X70968662Y-71689240D01*
X70968662Y-70320000D01*
X71321338Y-70320000D01*
X71321338Y-71920000D01*
X71339712Y-72017647D01*
X71397421Y-72107330D01*
X71485475Y-72167495D01*
X71590000Y-72188662D01*
X73190000Y-72188662D01*
X73287647Y-72170288D01*
X73377330Y-72112579D01*
X73437495Y-72024525D01*
X73458662Y-71920000D01*
X73458662Y-70320000D01*
X73440288Y-70222353D01*
X73382579Y-70132670D01*
X73294525Y-70072505D01*
X73190000Y-70051338D01*
X71590000Y-70051338D01*
X71492353Y-70069712D01*
X71402670Y-70127421D01*
X71342505Y-70215475D01*
X71321338Y-70320000D01*
X70968662Y-70320000D01*
X70968662Y-70270000D01*
X70950288Y-70172353D01*
X70892579Y-70082670D01*
X70804525Y-70022505D01*
X70700000Y-70001338D01*
X69000000Y-70001338D01*
X68902353Y-70019712D01*
X68812670Y-70077421D01*
X68752505Y-70165475D01*
X68731338Y-70270000D01*
X68731338Y-71970000D01*
X68749712Y-72067647D01*
X68807421Y-72157330D01*
X68895475Y-72217495D01*
X69000000Y-72238662D01*
X70419240Y-72238662D01*
X70731500Y-72550922D01*
X70731500Y-72980874D01*
X70659178Y-72872637D01*
X70297933Y-72631260D01*
X69871815Y-72546500D01*
X69828185Y-72546500D01*
X69402067Y-72631260D01*
X69040822Y-72872637D01*
X68799445Y-73233882D01*
X68714685Y-73660000D01*
X68799445Y-74086118D01*
X69040822Y-74447363D01*
X69402067Y-74688740D01*
X69828185Y-74773500D01*
X69871815Y-74773500D01*
X70297933Y-74688740D01*
X70659178Y-74447363D01*
X70731500Y-74339126D01*
X70731500Y-75520874D01*
X70659178Y-75412637D01*
X70297933Y-75171260D01*
X69871815Y-75086500D01*
X69828185Y-75086500D01*
X69402067Y-75171260D01*
X69040822Y-75412637D01*
X68799445Y-75773882D01*
X68714685Y-76200000D01*
X68799445Y-76626118D01*
X69040822Y-76987363D01*
X69402067Y-77228740D01*
X69828185Y-77313500D01*
X69871815Y-77313500D01*
X70297933Y-77228740D01*
X70659178Y-76987363D01*
X70731500Y-76879126D01*
X70731500Y-78060874D01*
X70659178Y-77952637D01*
X70297933Y-77711260D01*
X69871815Y-77626500D01*
X69828185Y-77626500D01*
X69402067Y-77711260D01*
X69040822Y-77952637D01*
X68799445Y-78313882D01*
X68714685Y-78740000D01*
X68799445Y-79166118D01*
X69040822Y-79527363D01*
X69402067Y-79768740D01*
X69828185Y-79853500D01*
X69871815Y-79853500D01*
X70297933Y-79768740D01*
X70659178Y-79527363D01*
X70731500Y-79419126D01*
X70731500Y-80600874D01*
X70659178Y-80492637D01*
X70297933Y-80251260D01*
X69871815Y-80166500D01*
X69828185Y-80166500D01*
X69402067Y-80251260D01*
X69040822Y-80492637D01*
X68799445Y-80853882D01*
X68714685Y-81280000D01*
X68799445Y-81706118D01*
X69040822Y-82067363D01*
X69402067Y-82308740D01*
X69828185Y-82393500D01*
X69871815Y-82393500D01*
X70297933Y-82308740D01*
X70659178Y-82067363D01*
X70731500Y-81959126D01*
X70731500Y-83140874D01*
X70659178Y-83032637D01*
X70297933Y-82791260D01*
X69871815Y-82706500D01*
X69828185Y-82706500D01*
X69402067Y-82791260D01*
X69040822Y-83032637D01*
X68799445Y-83393882D01*
X68714685Y-83820000D01*
X68799445Y-84246118D01*
X69040822Y-84607363D01*
X69402067Y-84848740D01*
X69828185Y-84933500D01*
X69871815Y-84933500D01*
X70297933Y-84848740D01*
X70659178Y-84607363D01*
X70731500Y-84499126D01*
X70731500Y-85680874D01*
X70659178Y-85572637D01*
X70297933Y-85331260D01*
X69871815Y-85246500D01*
X69828185Y-85246500D01*
X69402067Y-85331260D01*
X69040822Y-85572637D01*
X68799445Y-85933882D01*
X68714685Y-86360000D01*
X68799445Y-86786118D01*
X69040822Y-87147363D01*
X69402067Y-87388740D01*
X69828185Y-87473500D01*
X69871815Y-87473500D01*
X70297933Y-87388740D01*
X70659178Y-87147363D01*
X70731500Y-87039126D01*
X70731500Y-87789424D01*
X70258523Y-87538451D01*
X70040500Y-87634182D01*
X70040500Y-88709500D01*
X70060500Y-88709500D01*
X70060500Y-89090500D01*
X70040500Y-89090500D01*
X70040500Y-90165818D01*
X70258523Y-90261549D01*
X70731500Y-90010576D01*
X70731500Y-90760874D01*
X70659178Y-90652637D01*
X70297933Y-90411260D01*
X69871815Y-90326500D01*
X69828185Y-90326500D01*
X69402067Y-90411260D01*
X69040822Y-90652637D01*
X68799445Y-91013882D01*
X68714685Y-91440000D01*
X68799445Y-91866118D01*
X69040822Y-92227363D01*
X69402067Y-92468740D01*
X69828185Y-92553500D01*
X69871815Y-92553500D01*
X70297933Y-92468740D01*
X70659178Y-92227363D01*
X70731500Y-92119126D01*
X70731500Y-93300874D01*
X70659178Y-93192637D01*
X70297933Y-92951260D01*
X69871815Y-92866500D01*
X69828185Y-92866500D01*
X69402067Y-92951260D01*
X69040822Y-93192637D01*
X68799445Y-93553882D01*
X68714685Y-93980000D01*
X68799445Y-94406118D01*
X69040822Y-94767363D01*
X69402067Y-95008740D01*
X69828185Y-95093500D01*
X69871815Y-95093500D01*
X70297933Y-95008740D01*
X70659178Y-94767363D01*
X70731500Y-94659126D01*
X70731500Y-95840874D01*
X70659178Y-95732637D01*
X70297933Y-95491260D01*
X69871815Y-95406500D01*
X69828185Y-95406500D01*
X69402067Y-95491260D01*
X69040822Y-95732637D01*
X68799445Y-96093882D01*
X68714685Y-96520000D01*
X68799445Y-96946118D01*
X69040822Y-97307363D01*
X69402067Y-97548740D01*
X69828185Y-97633500D01*
X69871815Y-97633500D01*
X70297933Y-97548740D01*
X70659178Y-97307363D01*
X70731500Y-97199126D01*
X70731500Y-98380874D01*
X70659178Y-98272637D01*
X70297933Y-98031260D01*
X69871815Y-97946500D01*
X69828185Y-97946500D01*
X69402067Y-98031260D01*
X69040822Y-98272637D01*
X68799445Y-98633882D01*
X68714685Y-99060000D01*
X68799445Y-99486118D01*
X69040822Y-99847363D01*
X69402067Y-100088740D01*
X69828185Y-100173500D01*
X69871815Y-100173500D01*
X70297933Y-100088740D01*
X70659178Y-99847363D01*
X70731500Y-99739126D01*
X70731500Y-100920874D01*
X70659178Y-100812637D01*
X70297933Y-100571260D01*
X69871815Y-100486500D01*
X69828185Y-100486500D01*
X69402067Y-100571260D01*
X69040822Y-100812637D01*
X68799445Y-101173882D01*
X68714685Y-101600000D01*
X68799445Y-102026118D01*
X69040822Y-102387363D01*
X69402067Y-102628740D01*
X69828185Y-102713500D01*
X69871815Y-102713500D01*
X70297933Y-102628740D01*
X70659178Y-102387363D01*
X70731500Y-102279126D01*
X70731500Y-103460874D01*
X70659178Y-103352637D01*
X70297933Y-103111260D01*
X69871815Y-103026500D01*
X69828185Y-103026500D01*
X69402067Y-103111260D01*
X69040822Y-103352637D01*
X68799445Y-103713882D01*
X68714685Y-104140000D01*
X68799445Y-104566118D01*
X69040822Y-104927363D01*
X69402067Y-105168740D01*
X69828185Y-105253500D01*
X69871815Y-105253500D01*
X70297933Y-105168740D01*
X70659178Y-104927363D01*
X70731500Y-104819126D01*
X70731500Y-105630078D01*
X69067289Y-107294289D01*
X68983073Y-107420327D01*
X68953500Y-107569000D01*
X68953500Y-114427000D01*
X68983073Y-114575673D01*
X69067289Y-114701711D01*
X70972289Y-116606711D01*
X71098328Y-116690928D01*
X71247000Y-116720500D01*
X72588096Y-116720500D01*
X72596614Y-116763322D01*
X72840939Y-117128980D01*
X73206597Y-117373305D01*
X73526312Y-117436900D01*
X73469498Y-117436900D01*
X73469498Y-117592459D01*
X73249331Y-117496898D01*
X72754363Y-117758728D01*
X72397270Y-118190043D01*
X72284913Y-118461333D01*
X72381894Y-118681500D01*
X73469500Y-118681500D01*
X73469500Y-118661500D01*
X73850500Y-118661500D01*
X73850500Y-118681500D01*
X73870500Y-118681500D01*
X73870500Y-119062500D01*
X73850500Y-119062500D01*
X73850500Y-120151540D01*
X74070669Y-120247102D01*
X74565637Y-119985272D01*
X74922730Y-119553957D01*
X75035087Y-119282667D01*
X74938107Y-119062502D01*
X75088712Y-119062502D01*
X75136614Y-119303322D01*
X75380939Y-119668980D01*
X75746597Y-119913305D01*
X76177919Y-119999100D01*
X76222081Y-119999100D01*
X76653403Y-119913305D01*
X77019061Y-119668980D01*
X77263386Y-119303322D01*
X77349181Y-118872000D01*
X77590819Y-118872000D01*
X77676614Y-119303322D01*
X77920939Y-119668980D01*
X78286597Y-119913305D01*
X78717919Y-119999100D01*
X78762081Y-119999100D01*
X79193403Y-119913305D01*
X79559061Y-119668980D01*
X79803386Y-119303322D01*
X79889181Y-118872000D01*
X79803386Y-118440678D01*
X79559061Y-118075020D01*
X79193403Y-117830695D01*
X78762081Y-117744900D01*
X78717919Y-117744900D01*
X78286597Y-117830695D01*
X77920939Y-118075020D01*
X77676614Y-118440678D01*
X77590819Y-118872000D01*
X77349181Y-118872000D01*
X77263386Y-118440678D01*
X77019061Y-118075020D01*
X76653403Y-117830695D01*
X76222081Y-117744900D01*
X76177919Y-117744900D01*
X75746597Y-117830695D01*
X75380939Y-118075020D01*
X75136614Y-118440678D01*
X75088712Y-118681498D01*
X74938107Y-118681498D01*
X75035087Y-118461333D01*
X74922730Y-118190043D01*
X74565637Y-117758728D01*
X74070669Y-117496898D01*
X73850502Y-117592459D01*
X73850502Y-117436900D01*
X73793688Y-117436900D01*
X74113403Y-117373305D01*
X74479061Y-117128980D01*
X74723386Y-116763322D01*
X74809181Y-116332000D01*
X75050819Y-116332000D01*
X75136614Y-116763322D01*
X75380939Y-117128980D01*
X75746597Y-117373305D01*
X76177919Y-117459100D01*
X76222081Y-117459100D01*
X76653403Y-117373305D01*
X77019061Y-117128980D01*
X77263386Y-116763322D01*
X77349181Y-116332000D01*
X77263386Y-115900678D01*
X77019061Y-115535020D01*
X76919358Y-115468400D01*
X77607738Y-115468400D01*
X77607738Y-117195600D01*
X77626112Y-117293247D01*
X77683821Y-117382930D01*
X77771875Y-117443095D01*
X77876400Y-117464262D01*
X79603600Y-117464262D01*
X79701247Y-117445888D01*
X79790930Y-117388179D01*
X79851095Y-117300125D01*
X79872262Y-117195600D01*
X79872262Y-115468400D01*
X79853888Y-115370753D01*
X79796179Y-115281070D01*
X79708125Y-115220905D01*
X79603600Y-115199738D01*
X77876400Y-115199738D01*
X77778753Y-115218112D01*
X77689070Y-115275821D01*
X77628905Y-115363875D01*
X77607738Y-115468400D01*
X76919358Y-115468400D01*
X76653403Y-115290695D01*
X76222081Y-115204900D01*
X76177919Y-115204900D01*
X75746597Y-115290695D01*
X75380939Y-115535020D01*
X75136614Y-115900678D01*
X75050819Y-116332000D01*
X74809181Y-116332000D01*
X74723386Y-115900678D01*
X74479061Y-115535020D01*
X74113403Y-115290695D01*
X73682081Y-115204900D01*
X73637919Y-115204900D01*
X73206597Y-115290695D01*
X72840939Y-115535020D01*
X72596614Y-115900678D01*
X72588096Y-115943500D01*
X71407922Y-115943500D01*
X69730500Y-114266078D01*
X69730500Y-110807375D01*
X72463500Y-110807375D01*
X72463500Y-111087678D01*
X72550506Y-111297728D01*
X72711271Y-111458494D01*
X72921321Y-111545500D01*
X73326625Y-111545500D01*
X73469500Y-111402625D01*
X73469500Y-110664500D01*
X73850500Y-110664500D01*
X73850500Y-111402625D01*
X73993375Y-111545500D01*
X74398679Y-111545500D01*
X74608729Y-111458494D01*
X74769494Y-111297728D01*
X74856500Y-111087678D01*
X74856500Y-110807375D01*
X77289500Y-110807375D01*
X77289500Y-111087678D01*
X77376506Y-111297728D01*
X77537271Y-111458494D01*
X77747321Y-111545500D01*
X78152625Y-111545500D01*
X78295500Y-111402625D01*
X78295500Y-110664500D01*
X78676500Y-110664500D01*
X78676500Y-111402625D01*
X78819375Y-111545500D01*
X79224679Y-111545500D01*
X79434729Y-111458494D01*
X79595494Y-111297728D01*
X79682500Y-111087678D01*
X79682500Y-110807375D01*
X79539625Y-110664500D01*
X78676500Y-110664500D01*
X78295500Y-110664500D01*
X77432375Y-110664500D01*
X77289500Y-110807375D01*
X74856500Y-110807375D01*
X74713625Y-110664500D01*
X73850500Y-110664500D01*
X73469500Y-110664500D01*
X72606375Y-110664500D01*
X72463500Y-110807375D01*
X69730500Y-110807375D01*
X69730500Y-110490000D01*
X81414685Y-110490000D01*
X81499445Y-110916118D01*
X81740822Y-111277363D01*
X82102067Y-111518740D01*
X82528185Y-111603500D01*
X82571815Y-111603500D01*
X82997933Y-111518740D01*
X83359178Y-111277363D01*
X83600555Y-110916118D01*
X83685315Y-110490000D01*
X83600555Y-110063882D01*
X83359178Y-109702637D01*
X82997933Y-109461260D01*
X82571815Y-109376500D01*
X82528185Y-109376500D01*
X82102067Y-109461260D01*
X81740822Y-109702637D01*
X81499445Y-110063882D01*
X81414685Y-110490000D01*
X69730500Y-110490000D01*
X69730500Y-109420713D01*
X70560324Y-109420713D01*
X70714295Y-109793352D01*
X70999149Y-110078703D01*
X71371518Y-110233324D01*
X71774713Y-110233676D01*
X72147352Y-110079705D01*
X72367117Y-109860322D01*
X72463500Y-109860322D01*
X72463500Y-110140625D01*
X72606375Y-110283500D01*
X73469500Y-110283500D01*
X73469500Y-109545375D01*
X73850500Y-109545375D01*
X73850500Y-110283500D01*
X74713625Y-110283500D01*
X74856500Y-110140625D01*
X74856500Y-109860322D01*
X74769494Y-109650272D01*
X74608729Y-109489506D01*
X74442649Y-109420713D01*
X75440324Y-109420713D01*
X75594295Y-109793352D01*
X75879149Y-110078703D01*
X76251518Y-110233324D01*
X76654713Y-110233676D01*
X77027352Y-110079705D01*
X77247117Y-109860322D01*
X77289500Y-109860322D01*
X77289500Y-110140625D01*
X77432375Y-110283500D01*
X78295500Y-110283500D01*
X78295500Y-109545375D01*
X78676500Y-109545375D01*
X78676500Y-110283500D01*
X79539625Y-110283500D01*
X79682500Y-110140625D01*
X79682500Y-109860322D01*
X79595494Y-109650272D01*
X79434729Y-109489506D01*
X79224679Y-109402500D01*
X78819375Y-109402500D01*
X78676500Y-109545375D01*
X78295500Y-109545375D01*
X78152625Y-109402500D01*
X77747321Y-109402500D01*
X77537271Y-109489506D01*
X77376506Y-109650272D01*
X77289500Y-109860322D01*
X77247117Y-109860322D01*
X77312703Y-109794851D01*
X77467324Y-109422482D01*
X77467676Y-109019287D01*
X77402893Y-108862500D01*
X77592338Y-108862500D01*
X77592338Y-108974000D01*
X77610712Y-109071647D01*
X77668421Y-109161330D01*
X77756475Y-109221495D01*
X77861000Y-109242662D01*
X79111000Y-109242662D01*
X79208647Y-109224288D01*
X79298330Y-109166579D01*
X79358495Y-109078525D01*
X79379662Y-108974000D01*
X79379662Y-107974000D01*
X79361288Y-107876353D01*
X79303579Y-107786670D01*
X79215525Y-107726505D01*
X79111000Y-107705338D01*
X77861000Y-107705338D01*
X77763353Y-107723712D01*
X77673670Y-107781421D01*
X77613505Y-107869475D01*
X77592338Y-107974000D01*
X77592338Y-108085500D01*
X77200000Y-108085500D01*
X77051327Y-108115073D01*
X76925289Y-108199289D01*
X76841200Y-108283378D01*
X76656482Y-108206676D01*
X76253287Y-108206324D01*
X75880648Y-108360295D01*
X75595297Y-108645149D01*
X75440676Y-109017518D01*
X75440324Y-109420713D01*
X74442649Y-109420713D01*
X74398679Y-109402500D01*
X73993375Y-109402500D01*
X73850500Y-109545375D01*
X73469500Y-109545375D01*
X73326625Y-109402500D01*
X72921321Y-109402500D01*
X72711271Y-109489506D01*
X72550506Y-109650272D01*
X72463500Y-109860322D01*
X72367117Y-109860322D01*
X72432703Y-109794851D01*
X72587324Y-109422482D01*
X72587676Y-109019287D01*
X72522893Y-108862500D01*
X72766338Y-108862500D01*
X72766338Y-108974000D01*
X72784712Y-109071647D01*
X72842421Y-109161330D01*
X72930475Y-109221495D01*
X73035000Y-109242662D01*
X74285000Y-109242662D01*
X74382647Y-109224288D01*
X74472330Y-109166579D01*
X74532495Y-109078525D01*
X74553662Y-108974000D01*
X74553662Y-107974000D01*
X74535288Y-107876353D01*
X74477579Y-107786670D01*
X74389525Y-107726505D01*
X74285000Y-107705338D01*
X73035000Y-107705338D01*
X72937353Y-107723712D01*
X72847670Y-107781421D01*
X72787505Y-107869475D01*
X72766338Y-107974000D01*
X72766338Y-108085500D01*
X72320000Y-108085500D01*
X72171327Y-108115073D01*
X72045289Y-108199289D01*
X71961200Y-108283378D01*
X71776482Y-108206676D01*
X71373287Y-108206324D01*
X71000648Y-108360295D01*
X70715297Y-108645149D01*
X70560676Y-109017518D01*
X70560324Y-109420713D01*
X69730500Y-109420713D01*
X69730500Y-107729922D01*
X71394711Y-106065711D01*
X71478928Y-105939672D01*
X71508500Y-105791000D01*
X71508500Y-104729392D01*
X71617157Y-104892008D01*
X71962181Y-105122546D01*
X72369165Y-105203500D01*
X72410835Y-105203500D01*
X72817819Y-105122546D01*
X73162843Y-104892008D01*
X73393381Y-104546984D01*
X73474335Y-104140000D01*
X73471271Y-104124595D01*
X76017402Y-104124595D01*
X76103009Y-104331780D01*
X76261386Y-104490434D01*
X76468421Y-104576402D01*
X76488932Y-104576420D01*
X80190256Y-108277744D01*
X80340626Y-108378218D01*
X80518000Y-108413500D01*
X81431338Y-108413500D01*
X81431338Y-108800000D01*
X81449712Y-108897647D01*
X81507421Y-108987330D01*
X81595475Y-109047495D01*
X81700000Y-109068662D01*
X83400000Y-109068662D01*
X83497647Y-109050288D01*
X83587330Y-108992579D01*
X83647495Y-108904525D01*
X83668662Y-108800000D01*
X83668662Y-107100000D01*
X83650288Y-107002353D01*
X83592579Y-106912670D01*
X83504525Y-106852505D01*
X83400000Y-106831338D01*
X81700000Y-106831338D01*
X81602353Y-106849712D01*
X81512670Y-106907421D01*
X81452505Y-106995475D01*
X81431338Y-107100000D01*
X81431338Y-107486500D01*
X80709988Y-107486500D01*
X77144581Y-103921093D01*
X77144598Y-103901405D01*
X77058991Y-103694220D01*
X76900614Y-103535566D01*
X76693579Y-103449598D01*
X76469405Y-103449402D01*
X76262220Y-103535009D01*
X76103566Y-103693386D01*
X76017598Y-103900421D01*
X76017402Y-104124595D01*
X73471271Y-104124595D01*
X73393381Y-103733016D01*
X73162843Y-103387992D01*
X72817819Y-103157454D01*
X72410835Y-103076500D01*
X72369165Y-103076500D01*
X71962181Y-103157454D01*
X71617157Y-103387992D01*
X71508500Y-103550608D01*
X71508500Y-102189392D01*
X71617157Y-102352008D01*
X71962181Y-102582546D01*
X72369165Y-102663500D01*
X72410835Y-102663500D01*
X72817819Y-102582546D01*
X73162843Y-102352008D01*
X73393381Y-102006984D01*
X73474335Y-101600000D01*
X78925665Y-101600000D01*
X79006619Y-102006984D01*
X79237157Y-102352008D01*
X79582181Y-102582546D01*
X79989165Y-102663500D01*
X80030835Y-102663500D01*
X80437819Y-102582546D01*
X80764500Y-102364264D01*
X80764500Y-103375736D01*
X80437819Y-103157454D01*
X80030835Y-103076500D01*
X79989165Y-103076500D01*
X79582181Y-103157454D01*
X79237157Y-103387992D01*
X79006619Y-103733016D01*
X78925665Y-104140000D01*
X79006619Y-104546984D01*
X79237157Y-104892008D01*
X79582181Y-105122546D01*
X79989165Y-105203500D01*
X80030835Y-105203500D01*
X80437819Y-105122546D01*
X80764500Y-104904264D01*
X80764500Y-105382607D01*
X80675566Y-105471386D01*
X80589598Y-105678421D01*
X80589402Y-105902595D01*
X80675009Y-106109780D01*
X80833386Y-106268434D01*
X81040421Y-106354402D01*
X81264595Y-106354598D01*
X81471780Y-106268991D01*
X81630434Y-106110614D01*
X81716402Y-105903579D01*
X81716598Y-105679405D01*
X81630991Y-105472220D01*
X81541500Y-105382572D01*
X81541500Y-105200615D01*
X81595475Y-105237495D01*
X81700000Y-105258662D01*
X83400000Y-105258662D01*
X83497647Y-105240288D01*
X83587330Y-105182579D01*
X83647495Y-105094525D01*
X83668662Y-104990000D01*
X83668662Y-103290000D01*
X83650288Y-103192353D01*
X83592579Y-103102670D01*
X83504525Y-103042505D01*
X83400000Y-103021338D01*
X81700000Y-103021338D01*
X81602353Y-103039712D01*
X81541500Y-103078870D01*
X81541500Y-102089058D01*
X81740822Y-102387363D01*
X82102067Y-102628740D01*
X82528185Y-102713500D01*
X82571815Y-102713500D01*
X82997933Y-102628740D01*
X83359178Y-102387363D01*
X83600555Y-102026118D01*
X83685315Y-101600000D01*
X83600555Y-101173882D01*
X83359178Y-100812637D01*
X82997933Y-100571260D01*
X82571815Y-100486500D01*
X82528185Y-100486500D01*
X82102067Y-100571260D01*
X81740822Y-100812637D01*
X81541500Y-101110942D01*
X81541500Y-100617922D01*
X82083253Y-100076169D01*
X82102067Y-100088740D01*
X82528185Y-100173500D01*
X82571815Y-100173500D01*
X82997933Y-100088740D01*
X83359178Y-99847363D01*
X83600555Y-99486118D01*
X83685315Y-99060000D01*
X83600555Y-98633882D01*
X83359178Y-98272637D01*
X82997933Y-98031260D01*
X82571815Y-97946500D01*
X82528185Y-97946500D01*
X82102067Y-98031260D01*
X81740822Y-98272637D01*
X81499445Y-98633882D01*
X81414685Y-99060000D01*
X81499445Y-99486118D01*
X81529492Y-99531086D01*
X80878289Y-100182289D01*
X80794073Y-100308327D01*
X80764500Y-100457000D01*
X80764500Y-100835736D01*
X80437819Y-100617454D01*
X80030835Y-100536500D01*
X79989165Y-100536500D01*
X79582181Y-100617454D01*
X79237157Y-100847992D01*
X79006619Y-101193016D01*
X78925665Y-101600000D01*
X73474335Y-101600000D01*
X73393381Y-101193016D01*
X73162843Y-100847992D01*
X72817819Y-100617454D01*
X72410835Y-100536500D01*
X72369165Y-100536500D01*
X71962181Y-100617454D01*
X71617157Y-100847992D01*
X71508500Y-101010608D01*
X71508500Y-99649392D01*
X71617157Y-99812008D01*
X71962181Y-100042546D01*
X72369165Y-100123500D01*
X72410835Y-100123500D01*
X72817819Y-100042546D01*
X73162843Y-99812008D01*
X73393381Y-99466984D01*
X73474335Y-99060000D01*
X78925665Y-99060000D01*
X79006619Y-99466984D01*
X79237157Y-99812008D01*
X79582181Y-100042546D01*
X79989165Y-100123500D01*
X80030835Y-100123500D01*
X80437819Y-100042546D01*
X80782843Y-99812008D01*
X81013381Y-99466984D01*
X81094335Y-99060000D01*
X81013381Y-98653016D01*
X80782843Y-98307992D01*
X80437819Y-98077454D01*
X80030835Y-97996500D01*
X79989165Y-97996500D01*
X79582181Y-98077454D01*
X79237157Y-98307992D01*
X79006619Y-98653016D01*
X78925665Y-99060000D01*
X73474335Y-99060000D01*
X73393381Y-98653016D01*
X73162843Y-98307992D01*
X72817819Y-98077454D01*
X72410835Y-97996500D01*
X72369165Y-97996500D01*
X71962181Y-98077454D01*
X71617157Y-98307992D01*
X71508500Y-98470608D01*
X71508500Y-97109392D01*
X71617157Y-97272008D01*
X71962181Y-97502546D01*
X72369165Y-97583500D01*
X72410835Y-97583500D01*
X72817819Y-97502546D01*
X73162843Y-97272008D01*
X73393381Y-96926984D01*
X73474335Y-96520000D01*
X78925665Y-96520000D01*
X79006619Y-96926984D01*
X79237157Y-97272008D01*
X79582181Y-97502546D01*
X79989165Y-97583500D01*
X80030835Y-97583500D01*
X80437819Y-97502546D01*
X80782843Y-97272008D01*
X81013381Y-96926984D01*
X81094335Y-96520000D01*
X81414685Y-96520000D01*
X81499445Y-96946118D01*
X81740822Y-97307363D01*
X82102067Y-97548740D01*
X82528185Y-97633500D01*
X82571815Y-97633500D01*
X82997933Y-97548740D01*
X83359178Y-97307363D01*
X83600555Y-96946118D01*
X83685315Y-96520000D01*
X83600555Y-96093882D01*
X83359178Y-95732637D01*
X82997933Y-95491260D01*
X82571815Y-95406500D01*
X82528185Y-95406500D01*
X82102067Y-95491260D01*
X81740822Y-95732637D01*
X81499445Y-96093882D01*
X81414685Y-96520000D01*
X81094335Y-96520000D01*
X81013381Y-96113016D01*
X80782843Y-95767992D01*
X80437819Y-95537454D01*
X80030835Y-95456500D01*
X79989165Y-95456500D01*
X79582181Y-95537454D01*
X79237157Y-95767992D01*
X79006619Y-96113016D01*
X78925665Y-96520000D01*
X73474335Y-96520000D01*
X73393381Y-96113016D01*
X73162843Y-95767992D01*
X72817819Y-95537454D01*
X72410835Y-95456500D01*
X72369165Y-95456500D01*
X71962181Y-95537454D01*
X71617157Y-95767992D01*
X71508500Y-95930608D01*
X71508500Y-94569392D01*
X71617157Y-94732008D01*
X71962181Y-94962546D01*
X72369165Y-95043500D01*
X72410835Y-95043500D01*
X72817819Y-94962546D01*
X73162843Y-94732008D01*
X73393381Y-94386984D01*
X73474335Y-93980000D01*
X78925665Y-93980000D01*
X79006619Y-94386984D01*
X79237157Y-94732008D01*
X79582181Y-94962546D01*
X79989165Y-95043500D01*
X80030835Y-95043500D01*
X80437819Y-94962546D01*
X80782843Y-94732008D01*
X81013381Y-94386984D01*
X81094335Y-93980000D01*
X81414685Y-93980000D01*
X81499445Y-94406118D01*
X81740822Y-94767363D01*
X82102067Y-95008740D01*
X82528185Y-95093500D01*
X82571815Y-95093500D01*
X82997933Y-95008740D01*
X83359178Y-94767363D01*
X83600555Y-94406118D01*
X83685315Y-93980000D01*
X83600555Y-93553882D01*
X83359178Y-93192637D01*
X82997933Y-92951260D01*
X82571815Y-92866500D01*
X82528185Y-92866500D01*
X82102067Y-92951260D01*
X81740822Y-93192637D01*
X81499445Y-93553882D01*
X81414685Y-93980000D01*
X81094335Y-93980000D01*
X81013381Y-93573016D01*
X80782843Y-93227992D01*
X80437819Y-92997454D01*
X80030835Y-92916500D01*
X79989165Y-92916500D01*
X79582181Y-92997454D01*
X79237157Y-93227992D01*
X79006619Y-93573016D01*
X78925665Y-93980000D01*
X73474335Y-93980000D01*
X73393381Y-93573016D01*
X73162843Y-93227992D01*
X72817819Y-92997454D01*
X72410835Y-92916500D01*
X72369165Y-92916500D01*
X71962181Y-92997454D01*
X71617157Y-93227992D01*
X71508500Y-93390608D01*
X71508500Y-92029392D01*
X71617157Y-92192008D01*
X71962181Y-92422546D01*
X72369165Y-92503500D01*
X72410835Y-92503500D01*
X72817819Y-92422546D01*
X72899639Y-92367875D01*
X74128500Y-92367875D01*
X74128500Y-92463679D01*
X74215506Y-92673729D01*
X74376272Y-92834494D01*
X74586322Y-92921500D01*
X74682125Y-92921500D01*
X74825000Y-92778625D01*
X74825000Y-92225000D01*
X75075000Y-92225000D01*
X75075000Y-92778625D01*
X75217875Y-92921500D01*
X75313678Y-92921500D01*
X75523728Y-92834494D01*
X75684494Y-92673729D01*
X75771500Y-92463679D01*
X75771500Y-92367875D01*
X75628625Y-92225000D01*
X75075000Y-92225000D01*
X74825000Y-92225000D01*
X74271375Y-92225000D01*
X74128500Y-92367875D01*
X72899639Y-92367875D01*
X73162843Y-92192008D01*
X73393381Y-91846984D01*
X73415393Y-91736321D01*
X74128500Y-91736321D01*
X74128500Y-91832125D01*
X74271375Y-91975000D01*
X74825000Y-91975000D01*
X74825000Y-91421375D01*
X75075000Y-91421375D01*
X75075000Y-91975000D01*
X75628625Y-91975000D01*
X75771500Y-91832125D01*
X75771500Y-91736321D01*
X75684494Y-91526271D01*
X75523728Y-91365506D01*
X75313678Y-91278500D01*
X75217875Y-91278500D01*
X75075000Y-91421375D01*
X74825000Y-91421375D01*
X74682125Y-91278500D01*
X74586322Y-91278500D01*
X74376272Y-91365506D01*
X74215506Y-91526271D01*
X74128500Y-91736321D01*
X73415393Y-91736321D01*
X73474335Y-91440000D01*
X73393381Y-91033016D01*
X73162843Y-90687992D01*
X72817819Y-90457454D01*
X72410835Y-90376500D01*
X72369165Y-90376500D01*
X71962181Y-90457454D01*
X71617157Y-90687992D01*
X71508500Y-90850608D01*
X71508500Y-89947035D01*
X71517904Y-89958538D01*
X71989373Y-90211698D01*
X72199500Y-90115346D01*
X72199500Y-89090500D01*
X72580500Y-89090500D01*
X72580500Y-90115346D01*
X72790627Y-90211698D01*
X73262096Y-89958538D01*
X73600797Y-89544225D01*
X73701682Y-89300625D01*
X73603767Y-89090500D01*
X72580500Y-89090500D01*
X72199500Y-89090500D01*
X72179500Y-89090500D01*
X72179500Y-88967875D01*
X74128500Y-88967875D01*
X74128500Y-89063679D01*
X74215506Y-89273729D01*
X74376272Y-89434494D01*
X74586322Y-89521500D01*
X74682125Y-89521500D01*
X74825000Y-89378625D01*
X74825000Y-88825000D01*
X75075000Y-88825000D01*
X75075000Y-89378625D01*
X75217875Y-89521500D01*
X75313678Y-89521500D01*
X75523728Y-89434494D01*
X75684494Y-89273729D01*
X75771500Y-89063679D01*
X75771500Y-88967875D01*
X75628625Y-88825000D01*
X75075000Y-88825000D01*
X74825000Y-88825000D01*
X74271375Y-88825000D01*
X74128500Y-88967875D01*
X72179500Y-88967875D01*
X72179500Y-88709500D01*
X72199500Y-88709500D01*
X72199500Y-87684654D01*
X72580500Y-87684654D01*
X72580500Y-88709500D01*
X73603767Y-88709500D01*
X73701682Y-88499375D01*
X73634155Y-88336321D01*
X74128500Y-88336321D01*
X74128500Y-88432125D01*
X74271375Y-88575000D01*
X74825000Y-88575000D01*
X74825000Y-88021375D01*
X75075000Y-88021375D01*
X75075000Y-88575000D01*
X75628625Y-88575000D01*
X75771500Y-88432125D01*
X75771500Y-88336321D01*
X75684494Y-88126271D01*
X75523728Y-87965506D01*
X75313678Y-87878500D01*
X75217875Y-87878500D01*
X75075000Y-88021375D01*
X74825000Y-88021375D01*
X74682125Y-87878500D01*
X74586322Y-87878500D01*
X74376272Y-87965506D01*
X74215506Y-88126271D01*
X74128500Y-88336321D01*
X73634155Y-88336321D01*
X73600797Y-88255775D01*
X73262096Y-87841462D01*
X72790627Y-87588302D01*
X72580500Y-87684654D01*
X72199500Y-87684654D01*
X71989373Y-87588302D01*
X71517904Y-87841462D01*
X71508500Y-87852965D01*
X71508500Y-86949392D01*
X71617157Y-87112008D01*
X71962181Y-87342546D01*
X72369165Y-87423500D01*
X72410835Y-87423500D01*
X72817819Y-87342546D01*
X73162843Y-87112008D01*
X73393381Y-86766984D01*
X73474335Y-86360000D01*
X73393381Y-85953016D01*
X73162843Y-85607992D01*
X72817819Y-85377454D01*
X72410835Y-85296500D01*
X72369165Y-85296500D01*
X71962181Y-85377454D01*
X71617157Y-85607992D01*
X71508500Y-85770608D01*
X71508500Y-84409392D01*
X71617157Y-84572008D01*
X71962181Y-84802546D01*
X72369165Y-84883500D01*
X72410835Y-84883500D01*
X72817819Y-84802546D01*
X73162843Y-84572008D01*
X73393381Y-84226984D01*
X73397058Y-84208500D01*
X74631338Y-84208500D01*
X74631338Y-84470000D01*
X74649712Y-84567647D01*
X74707421Y-84657330D01*
X74795475Y-84717495D01*
X74900000Y-84738662D01*
X75600000Y-84738662D01*
X75697647Y-84720288D01*
X75787330Y-84662579D01*
X75847495Y-84574525D01*
X75868662Y-84470000D01*
X75868662Y-83170000D01*
X75850288Y-83072353D01*
X75792579Y-82982670D01*
X75704525Y-82922505D01*
X75600000Y-82901338D01*
X74900000Y-82901338D01*
X74802353Y-82919712D01*
X74712670Y-82977421D01*
X74652505Y-83065475D01*
X74631338Y-83170000D01*
X74631338Y-83431500D01*
X73397058Y-83431500D01*
X73393381Y-83413016D01*
X73162843Y-83067992D01*
X72817819Y-82837454D01*
X72410835Y-82756500D01*
X72369165Y-82756500D01*
X71962181Y-82837454D01*
X71617157Y-83067992D01*
X71508500Y-83230608D01*
X71508500Y-81869392D01*
X71617157Y-82032008D01*
X71962181Y-82262546D01*
X72369165Y-82343500D01*
X72410835Y-82343500D01*
X72817819Y-82262546D01*
X73162843Y-82032008D01*
X73393381Y-81686984D01*
X73397058Y-81668500D01*
X74631338Y-81668500D01*
X74631338Y-81930000D01*
X74649712Y-82027647D01*
X74707421Y-82117330D01*
X74795475Y-82177495D01*
X74900000Y-82198662D01*
X75600000Y-82198662D01*
X75697647Y-82180288D01*
X75787330Y-82122579D01*
X75847495Y-82034525D01*
X75868662Y-81930000D01*
X75868662Y-80689963D01*
X75879378Y-80706000D01*
X75925289Y-80774711D01*
X76531338Y-81380760D01*
X76531338Y-81930000D01*
X76549712Y-82027647D01*
X76607421Y-82117330D01*
X76695475Y-82177495D01*
X76761500Y-82190865D01*
X76761500Y-82908582D01*
X76702353Y-82919712D01*
X76612670Y-82977421D01*
X76552505Y-83065475D01*
X76531338Y-83170000D01*
X76531338Y-84470000D01*
X76549712Y-84567647D01*
X76607421Y-84657330D01*
X76695475Y-84717495D01*
X76761500Y-84730865D01*
X76761500Y-88226000D01*
X76712670Y-88257421D01*
X76652505Y-88345475D01*
X76631338Y-88450000D01*
X76631338Y-88950000D01*
X76649712Y-89047647D01*
X76707421Y-89137330D01*
X76795475Y-89197495D01*
X76900000Y-89218662D01*
X77400000Y-89218662D01*
X77497647Y-89200288D01*
X77587330Y-89142579D01*
X77647495Y-89054525D01*
X77668662Y-88950000D01*
X77668662Y-88450000D01*
X77650288Y-88352353D01*
X77592579Y-88262670D01*
X77538500Y-88225719D01*
X77538500Y-84731418D01*
X77597647Y-84720288D01*
X77687330Y-84662579D01*
X77747495Y-84574525D01*
X77768662Y-84470000D01*
X77768662Y-83170000D01*
X77750288Y-83072353D01*
X77692579Y-82982670D01*
X77604525Y-82922505D01*
X77538500Y-82909135D01*
X77538500Y-82191418D01*
X77597647Y-82180288D01*
X77687330Y-82122579D01*
X77747495Y-82034525D01*
X77768662Y-81930000D01*
X77768662Y-80630000D01*
X77750288Y-80532353D01*
X77692579Y-80442670D01*
X77604525Y-80382505D01*
X77500000Y-80361338D01*
X77320022Y-80361338D01*
X77298673Y-80347073D01*
X77150000Y-80317500D01*
X77001327Y-80347073D01*
X76979978Y-80361338D01*
X76800000Y-80361338D01*
X76702353Y-80379712D01*
X76657802Y-80408380D01*
X76588500Y-80339078D01*
X76588500Y-79547926D01*
X76607421Y-79577330D01*
X76695475Y-79637495D01*
X76800000Y-79658662D01*
X77259240Y-79658662D01*
X77811500Y-80210922D01*
X77811500Y-90889078D01*
X77119240Y-91581338D01*
X76900000Y-91581338D01*
X76802353Y-91599712D01*
X76712670Y-91657421D01*
X76652505Y-91745475D01*
X76631338Y-91850000D01*
X76631338Y-92350000D01*
X76649712Y-92447647D01*
X76707421Y-92537330D01*
X76795475Y-92597495D01*
X76900000Y-92618662D01*
X77400000Y-92618662D01*
X77497647Y-92600288D01*
X77587330Y-92542579D01*
X77647495Y-92454525D01*
X77668662Y-92350000D01*
X77668662Y-92130760D01*
X78359422Y-91440000D01*
X78925665Y-91440000D01*
X79006619Y-91846984D01*
X79237157Y-92192008D01*
X79582181Y-92422546D01*
X79989165Y-92503500D01*
X80030835Y-92503500D01*
X80437819Y-92422546D01*
X80782843Y-92192008D01*
X81013381Y-91846984D01*
X81094335Y-91440000D01*
X81414685Y-91440000D01*
X81499445Y-91866118D01*
X81740822Y-92227363D01*
X82102067Y-92468740D01*
X82528185Y-92553500D01*
X82571815Y-92553500D01*
X82997933Y-92468740D01*
X83359178Y-92227363D01*
X83600555Y-91866118D01*
X83685315Y-91440000D01*
X83600555Y-91013882D01*
X83359178Y-90652637D01*
X82997933Y-90411260D01*
X82571815Y-90326500D01*
X82528185Y-90326500D01*
X82102067Y-90411260D01*
X81740822Y-90652637D01*
X81499445Y-91013882D01*
X81414685Y-91440000D01*
X81094335Y-91440000D01*
X81013381Y-91033016D01*
X80782843Y-90687992D01*
X80437819Y-90457454D01*
X80030835Y-90376500D01*
X79989165Y-90376500D01*
X79582181Y-90457454D01*
X79237157Y-90687992D01*
X79006619Y-91033016D01*
X78925665Y-91440000D01*
X78359422Y-91440000D01*
X78474711Y-91324711D01*
X78505588Y-91278500D01*
X78558927Y-91198673D01*
X78588500Y-91050000D01*
X78588500Y-88900000D01*
X78925665Y-88900000D01*
X79006619Y-89306984D01*
X79237157Y-89652008D01*
X79582181Y-89882546D01*
X79989165Y-89963500D01*
X80030835Y-89963500D01*
X80437819Y-89882546D01*
X80782843Y-89652008D01*
X81013381Y-89306984D01*
X81094335Y-88900000D01*
X81414685Y-88900000D01*
X81499445Y-89326118D01*
X81740822Y-89687363D01*
X82102067Y-89928740D01*
X82528185Y-90013500D01*
X82571815Y-90013500D01*
X82997933Y-89928740D01*
X83359178Y-89687363D01*
X83600555Y-89326118D01*
X83685315Y-88900000D01*
X83600555Y-88473882D01*
X83359178Y-88112637D01*
X82997933Y-87871260D01*
X82571815Y-87786500D01*
X82528185Y-87786500D01*
X82102067Y-87871260D01*
X81740822Y-88112637D01*
X81499445Y-88473882D01*
X81414685Y-88900000D01*
X81094335Y-88900000D01*
X81013381Y-88493016D01*
X80782843Y-88147992D01*
X80437819Y-87917454D01*
X80030835Y-87836500D01*
X79989165Y-87836500D01*
X79582181Y-87917454D01*
X79237157Y-88147992D01*
X79006619Y-88493016D01*
X78925665Y-88900000D01*
X78588500Y-88900000D01*
X78588500Y-86760625D01*
X78698318Y-86760625D01*
X78799203Y-87004225D01*
X79137904Y-87418538D01*
X79609373Y-87671698D01*
X79819500Y-87575346D01*
X79819500Y-86550500D01*
X80200500Y-86550500D01*
X80200500Y-87575346D01*
X80410627Y-87671698D01*
X80882096Y-87418538D01*
X81220797Y-87004225D01*
X81253440Y-86925404D01*
X81298370Y-87033891D01*
X81651532Y-87461572D01*
X82141477Y-87721549D01*
X82359500Y-87625818D01*
X82359500Y-86550500D01*
X81285646Y-86550500D01*
X81255394Y-86618371D01*
X81223767Y-86550500D01*
X80200500Y-86550500D01*
X79819500Y-86550500D01*
X78796233Y-86550500D01*
X78698318Y-86760625D01*
X78588500Y-86760625D01*
X78588500Y-85959375D01*
X78698318Y-85959375D01*
X78796233Y-86169500D01*
X79819500Y-86169500D01*
X79819500Y-85144654D01*
X80200500Y-85144654D01*
X80200500Y-86169500D01*
X81223767Y-86169500D01*
X81255394Y-86101629D01*
X81285646Y-86169500D01*
X82359500Y-86169500D01*
X82359500Y-85094182D01*
X82141477Y-84998451D01*
X81651532Y-85258428D01*
X81298370Y-85686109D01*
X81253440Y-85794596D01*
X81220797Y-85715775D01*
X80882096Y-85301462D01*
X80410627Y-85048302D01*
X80200500Y-85144654D01*
X79819500Y-85144654D01*
X79609373Y-85048302D01*
X79137904Y-85301462D01*
X78799203Y-85715775D01*
X78698318Y-85959375D01*
X78588500Y-85959375D01*
X78588500Y-83820000D01*
X78925665Y-83820000D01*
X79006619Y-84226984D01*
X79237157Y-84572008D01*
X79582181Y-84802546D01*
X79989165Y-84883500D01*
X80030835Y-84883500D01*
X80437819Y-84802546D01*
X80782843Y-84572008D01*
X81013381Y-84226984D01*
X81094335Y-83820000D01*
X81414685Y-83820000D01*
X81499445Y-84246118D01*
X81740822Y-84607363D01*
X82102067Y-84848740D01*
X82528185Y-84933500D01*
X82571815Y-84933500D01*
X82997933Y-84848740D01*
X83359178Y-84607363D01*
X83600555Y-84246118D01*
X83685315Y-83820000D01*
X83600555Y-83393882D01*
X83359178Y-83032637D01*
X82997933Y-82791260D01*
X82571815Y-82706500D01*
X82528185Y-82706500D01*
X82102067Y-82791260D01*
X81740822Y-83032637D01*
X81499445Y-83393882D01*
X81414685Y-83820000D01*
X81094335Y-83820000D01*
X81013381Y-83413016D01*
X80782843Y-83067992D01*
X80437819Y-82837454D01*
X80030835Y-82756500D01*
X79989165Y-82756500D01*
X79582181Y-82837454D01*
X79237157Y-83067992D01*
X79006619Y-83413016D01*
X78925665Y-83820000D01*
X78588500Y-83820000D01*
X78588500Y-81280000D01*
X78925665Y-81280000D01*
X79006619Y-81686984D01*
X79237157Y-82032008D01*
X79582181Y-82262546D01*
X79989165Y-82343500D01*
X80030835Y-82343500D01*
X80437819Y-82262546D01*
X80782843Y-82032008D01*
X81013381Y-81686984D01*
X81094335Y-81280000D01*
X81414685Y-81280000D01*
X81499445Y-81706118D01*
X81740822Y-82067363D01*
X82102067Y-82308740D01*
X82528185Y-82393500D01*
X82571815Y-82393500D01*
X82997933Y-82308740D01*
X83359178Y-82067363D01*
X83600555Y-81706118D01*
X83685315Y-81280000D01*
X83600555Y-80853882D01*
X83359178Y-80492637D01*
X82997933Y-80251260D01*
X82571815Y-80166500D01*
X82528185Y-80166500D01*
X82102067Y-80251260D01*
X81740822Y-80492637D01*
X81499445Y-80853882D01*
X81414685Y-81280000D01*
X81094335Y-81280000D01*
X81013381Y-80873016D01*
X80782843Y-80527992D01*
X80437819Y-80297454D01*
X80030835Y-80216500D01*
X79989165Y-80216500D01*
X79582181Y-80297454D01*
X79237157Y-80527992D01*
X79006619Y-80873016D01*
X78925665Y-81280000D01*
X78588500Y-81280000D01*
X78588500Y-80050000D01*
X78558927Y-79901327D01*
X78474711Y-79775289D01*
X77768662Y-79069240D01*
X77768662Y-78740000D01*
X78925665Y-78740000D01*
X79006619Y-79146984D01*
X79237157Y-79492008D01*
X79582181Y-79722546D01*
X79989165Y-79803500D01*
X80030835Y-79803500D01*
X80437819Y-79722546D01*
X80782843Y-79492008D01*
X81013381Y-79146984D01*
X81094335Y-78740000D01*
X81414685Y-78740000D01*
X81499445Y-79166118D01*
X81740822Y-79527363D01*
X82102067Y-79768740D01*
X82528185Y-79853500D01*
X82571815Y-79853500D01*
X82997933Y-79768740D01*
X83359178Y-79527363D01*
X83600555Y-79166118D01*
X83685315Y-78740000D01*
X83600555Y-78313882D01*
X83359178Y-77952637D01*
X82997933Y-77711260D01*
X82571815Y-77626500D01*
X82528185Y-77626500D01*
X82102067Y-77711260D01*
X81740822Y-77952637D01*
X81499445Y-78313882D01*
X81414685Y-78740000D01*
X81094335Y-78740000D01*
X81013381Y-78333016D01*
X80782843Y-77987992D01*
X80437819Y-77757454D01*
X80030835Y-77676500D01*
X79989165Y-77676500D01*
X79582181Y-77757454D01*
X79237157Y-77987992D01*
X79006619Y-78333016D01*
X78925665Y-78740000D01*
X77768662Y-78740000D01*
X77768662Y-78090000D01*
X77750288Y-77992353D01*
X77692579Y-77902670D01*
X77604525Y-77842505D01*
X77538500Y-77829135D01*
X77538500Y-77111418D01*
X77597647Y-77100288D01*
X77687330Y-77042579D01*
X77747495Y-76954525D01*
X77768662Y-76850000D01*
X77768662Y-76200000D01*
X78925665Y-76200000D01*
X79006619Y-76606984D01*
X79237157Y-76952008D01*
X79582181Y-77182546D01*
X79989165Y-77263500D01*
X80030835Y-77263500D01*
X80437819Y-77182546D01*
X80782843Y-76952008D01*
X81013381Y-76606984D01*
X81094335Y-76200000D01*
X81414685Y-76200000D01*
X81499445Y-76626118D01*
X81740822Y-76987363D01*
X82102067Y-77228740D01*
X82528185Y-77313500D01*
X82571815Y-77313500D01*
X82997933Y-77228740D01*
X83359178Y-76987363D01*
X83600555Y-76626118D01*
X83685315Y-76200000D01*
X83600555Y-75773882D01*
X83359178Y-75412637D01*
X82997933Y-75171260D01*
X82571815Y-75086500D01*
X82528185Y-75086500D01*
X82102067Y-75171260D01*
X81740822Y-75412637D01*
X81499445Y-75773882D01*
X81414685Y-76200000D01*
X81094335Y-76200000D01*
X81013381Y-75793016D01*
X80782843Y-75447992D01*
X80437819Y-75217454D01*
X80030835Y-75136500D01*
X79989165Y-75136500D01*
X79582181Y-75217454D01*
X79237157Y-75447992D01*
X79006619Y-75793016D01*
X78925665Y-76200000D01*
X77768662Y-76200000D01*
X77768662Y-75550000D01*
X77750288Y-75452353D01*
X77692579Y-75362670D01*
X77604525Y-75302505D01*
X77538500Y-75289135D01*
X77538500Y-73660000D01*
X78925665Y-73660000D01*
X79006619Y-74066984D01*
X79237157Y-74412008D01*
X79582181Y-74642546D01*
X79989165Y-74723500D01*
X80030835Y-74723500D01*
X80437819Y-74642546D01*
X80782843Y-74412008D01*
X81013381Y-74066984D01*
X81094335Y-73660000D01*
X81414685Y-73660000D01*
X81499445Y-74086118D01*
X81740822Y-74447363D01*
X82102067Y-74688740D01*
X82528185Y-74773500D01*
X82571815Y-74773500D01*
X82997933Y-74688740D01*
X83359178Y-74447363D01*
X83600555Y-74086118D01*
X83685315Y-73660000D01*
X83600555Y-73233882D01*
X83359178Y-72872637D01*
X82997933Y-72631260D01*
X82571815Y-72546500D01*
X82528185Y-72546500D01*
X82102067Y-72631260D01*
X81740822Y-72872637D01*
X81499445Y-73233882D01*
X81414685Y-73660000D01*
X81094335Y-73660000D01*
X81013381Y-73253016D01*
X80782843Y-72907992D01*
X80437819Y-72677454D01*
X80030835Y-72596500D01*
X79989165Y-72596500D01*
X79582181Y-72677454D01*
X79237157Y-72907992D01*
X79006619Y-73253016D01*
X78925665Y-73660000D01*
X77538500Y-73660000D01*
X77538500Y-71120000D01*
X78925665Y-71120000D01*
X79006619Y-71526984D01*
X79237157Y-71872008D01*
X79582181Y-72102546D01*
X79989165Y-72183500D01*
X80030835Y-72183500D01*
X80437819Y-72102546D01*
X80782843Y-71872008D01*
X81013381Y-71526984D01*
X81094335Y-71120000D01*
X81414685Y-71120000D01*
X81499445Y-71546118D01*
X81740822Y-71907363D01*
X82102067Y-72148740D01*
X82528185Y-72233500D01*
X82571815Y-72233500D01*
X82997933Y-72148740D01*
X83359178Y-71907363D01*
X83600555Y-71546118D01*
X83685315Y-71120000D01*
X83600555Y-70693882D01*
X83359178Y-70332637D01*
X82997933Y-70091260D01*
X82571815Y-70006500D01*
X82528185Y-70006500D01*
X82102067Y-70091260D01*
X81740822Y-70332637D01*
X81499445Y-70693882D01*
X81414685Y-71120000D01*
X81094335Y-71120000D01*
X81013381Y-70713016D01*
X80782843Y-70367992D01*
X80437819Y-70137454D01*
X80030835Y-70056500D01*
X79989165Y-70056500D01*
X79582181Y-70137454D01*
X79237157Y-70367992D01*
X79006619Y-70713016D01*
X78925665Y-71120000D01*
X77538500Y-71120000D01*
X77538500Y-70881822D01*
X77668780Y-70827991D01*
X77827434Y-70669614D01*
X77913402Y-70462579D01*
X77913598Y-70238405D01*
X77827991Y-70031220D01*
X77669614Y-69872566D01*
X77462579Y-69786598D01*
X77238405Y-69786402D01*
X77031220Y-69872009D01*
X76872566Y-70030386D01*
X76786598Y-70237421D01*
X76786434Y-70424647D01*
X76761500Y-70550000D01*
X76761500Y-75288582D01*
X76702353Y-75299712D01*
X76612670Y-75357421D01*
X76588500Y-75392795D01*
X76588500Y-71000000D01*
X76558927Y-70851327D01*
X76474711Y-70725289D01*
X75188500Y-69439078D01*
X75188500Y-68643375D01*
X79702500Y-68643375D01*
X79702500Y-68923678D01*
X79789506Y-69133728D01*
X79950271Y-69294494D01*
X80160321Y-69381500D01*
X80565625Y-69381500D01*
X80708500Y-69238625D01*
X80708500Y-68500500D01*
X81089500Y-68500500D01*
X81089500Y-69238625D01*
X81232375Y-69381500D01*
X81637679Y-69381500D01*
X81847729Y-69294494D01*
X82008494Y-69133728D01*
X82095500Y-68923678D01*
X82095500Y-68643375D01*
X81952625Y-68500500D01*
X81089500Y-68500500D01*
X80708500Y-68500500D01*
X79845375Y-68500500D01*
X79702500Y-68643375D01*
X75188500Y-68643375D01*
X75188500Y-68100803D01*
X75285637Y-68246178D01*
X75646882Y-68487555D01*
X76073000Y-68572315D01*
X76499118Y-68487555D01*
X76860363Y-68246178D01*
X77101740Y-67884933D01*
X77186500Y-67458815D01*
X77186500Y-67415185D01*
X77499500Y-67415185D01*
X77499500Y-67458815D01*
X77584260Y-67884933D01*
X77825637Y-68246178D01*
X78186882Y-68487555D01*
X78613000Y-68572315D01*
X79039118Y-68487555D01*
X79400363Y-68246178D01*
X79641740Y-67884933D01*
X79679256Y-67696322D01*
X79702500Y-67696322D01*
X79702500Y-67976625D01*
X79845375Y-68119500D01*
X80708500Y-68119500D01*
X80708500Y-67381375D01*
X81089500Y-67381375D01*
X81089500Y-68119500D01*
X81952625Y-68119500D01*
X82095500Y-67976625D01*
X82095500Y-67696322D01*
X82008494Y-67486272D01*
X81847729Y-67325506D01*
X81637679Y-67238500D01*
X81232375Y-67238500D01*
X81089500Y-67381375D01*
X80708500Y-67381375D01*
X80565625Y-67238500D01*
X80160321Y-67238500D01*
X79950271Y-67325506D01*
X79789506Y-67486272D01*
X79702500Y-67696322D01*
X79679256Y-67696322D01*
X79726500Y-67458815D01*
X79726500Y-67415185D01*
X79641740Y-66989067D01*
X79400363Y-66627822D01*
X79039118Y-66386445D01*
X78613000Y-66301685D01*
X78186882Y-66386445D01*
X77825637Y-66627822D01*
X77584260Y-66989067D01*
X77499500Y-67415185D01*
X77186500Y-67415185D01*
X77101740Y-66989067D01*
X76860363Y-66627822D01*
X76809591Y-66593897D01*
X77407988Y-65995500D01*
X79929012Y-65995500D01*
X80005338Y-66071826D01*
X80005338Y-66810000D01*
X80023712Y-66907647D01*
X80081421Y-66997330D01*
X80169475Y-67057495D01*
X80274000Y-67078662D01*
X81524000Y-67078662D01*
X81621647Y-67060288D01*
X81711330Y-67002579D01*
X81771495Y-66914525D01*
X81792662Y-66810000D01*
X81792662Y-65810000D01*
X81774288Y-65712353D01*
X81716579Y-65622670D01*
X81628525Y-65562505D01*
X81524000Y-65541338D01*
X80785826Y-65541338D01*
X80448744Y-65204256D01*
X80298374Y-65103782D01*
X80121000Y-65068500D01*
X77216000Y-65068500D01*
X77038626Y-65103782D01*
X76888256Y-65204256D01*
X76060823Y-66031689D01*
X75977991Y-65831220D01*
X75819614Y-65672566D01*
X75612579Y-65586598D01*
X75388405Y-65586402D01*
X75181220Y-65672009D01*
X75022566Y-65830386D01*
X74936598Y-66037421D01*
X74936487Y-66164091D01*
X74624650Y-66475928D01*
X74575579Y-66399670D01*
X74487525Y-66339505D01*
X74383000Y-66318338D01*
X73996500Y-66318338D01*
X73996500Y-62323375D01*
X74526500Y-62323375D01*
X74526500Y-62853679D01*
X74613506Y-63063729D01*
X74774272Y-63224494D01*
X74984322Y-63311500D01*
X75764625Y-63311500D01*
X75907500Y-63168625D01*
X75907500Y-62180500D01*
X76288500Y-62180500D01*
X76288500Y-63168625D01*
X76431375Y-63311500D01*
X77211678Y-63311500D01*
X77421728Y-63224494D01*
X77582494Y-63063729D01*
X77669500Y-62853679D01*
X77669500Y-62323375D01*
X77526625Y-62180500D01*
X76288500Y-62180500D01*
X75907500Y-62180500D01*
X74669375Y-62180500D01*
X74526500Y-62323375D01*
X73996500Y-62323375D01*
X73996500Y-61871000D01*
X73961218Y-61693626D01*
X73911637Y-61619423D01*
X74141301Y-61619623D01*
X74403637Y-61511228D01*
X74526500Y-61388580D01*
X74526500Y-61656625D01*
X74669375Y-61799500D01*
X75907500Y-61799500D01*
X75907500Y-61779500D01*
X76288500Y-61779500D01*
X76288500Y-61799500D01*
X77526625Y-61799500D01*
X77669500Y-61656625D01*
X77669500Y-61126321D01*
X77600400Y-60959500D01*
X77686453Y-60959500D01*
X77686377Y-61047301D01*
X77794772Y-61309637D01*
X77995307Y-61510523D01*
X78257453Y-61619376D01*
X78541301Y-61619623D01*
X78803637Y-61511228D01*
X79004523Y-61310693D01*
X79113376Y-61048547D01*
X79113453Y-60959500D01*
X81026000Y-60959500D01*
X81118136Y-60942163D01*
X81129338Y-60934955D01*
X81129338Y-61590000D01*
X81147712Y-61687647D01*
X81205421Y-61777330D01*
X81293475Y-61837495D01*
X81398000Y-61858662D01*
X83398000Y-61858662D01*
X83495647Y-61840288D01*
X83585330Y-61782579D01*
X83645495Y-61694525D01*
X83666662Y-61590000D01*
X83666662Y-57790000D01*
X83648288Y-57692353D01*
X83590579Y-57602670D01*
X83502525Y-57542505D01*
X83398000Y-57521338D01*
X81398000Y-57521338D01*
X81300353Y-57539712D01*
X81279500Y-57553130D01*
X81279500Y-55675500D01*
X83770500Y-55675500D01*
X83770500Y-85648410D01*
D10*
G36*
X77293000Y-56405079D02*
X77270202Y-56382281D01*
X77158469Y-56336000D01*
X76378000Y-56336000D01*
X76302000Y-56412000D01*
X76302000Y-57186000D01*
X76322000Y-57186000D01*
X76322000Y-57594000D01*
X76302000Y-57594000D01*
X76302000Y-57614000D01*
X75894000Y-57614000D01*
X75894000Y-57594000D01*
X74870000Y-57594000D01*
X74794000Y-57670000D01*
X74794000Y-58200470D01*
X74840281Y-58312202D01*
X74898079Y-58370000D01*
X70612000Y-58370000D01*
X70592547Y-58373939D01*
X70576160Y-58385136D01*
X70565419Y-58401827D01*
X70562000Y-58420000D01*
X70562000Y-59158079D01*
X70518202Y-59114281D01*
X70406470Y-59068000D01*
X69876000Y-59068000D01*
X69800000Y-59144000D01*
X69800000Y-60143000D01*
X69820000Y-60143000D01*
X69820000Y-60551000D01*
X69800000Y-60551000D01*
X69800000Y-60571000D01*
X69392000Y-60571000D01*
X69392000Y-60551000D01*
X69372000Y-60551000D01*
X69372000Y-60143000D01*
X69392000Y-60143000D01*
X69392000Y-59144000D01*
X69316000Y-59068000D01*
X68785530Y-59068000D01*
X68673798Y-59114281D01*
X68616000Y-59172079D01*
X68616000Y-56579530D01*
X74794000Y-56579530D01*
X74794000Y-57110000D01*
X74870000Y-57186000D01*
X75894000Y-57186000D01*
X75894000Y-56412000D01*
X75818000Y-56336000D01*
X75037531Y-56336000D01*
X74925798Y-56382281D01*
X74840281Y-56467798D01*
X74794000Y-56579530D01*
X68616000Y-56579530D01*
X68616000Y-55662000D01*
X77293000Y-55662000D01*
X77293000Y-56405079D01*
X77293000Y-56405079D01*
G37*
X77293000Y-56405079D02*
X77270202Y-56382281D01*
X77158469Y-56336000D01*
X76378000Y-56336000D01*
X76302000Y-56412000D01*
X76302000Y-57186000D01*
X76322000Y-57186000D01*
X76322000Y-57594000D01*
X76302000Y-57594000D01*
X76302000Y-57614000D01*
X75894000Y-57614000D01*
X75894000Y-57594000D01*
X74870000Y-57594000D01*
X74794000Y-57670000D01*
X74794000Y-58200470D01*
X74840281Y-58312202D01*
X74898079Y-58370000D01*
X70612000Y-58370000D01*
X70592547Y-58373939D01*
X70576160Y-58385136D01*
X70565419Y-58401827D01*
X70562000Y-58420000D01*
X70562000Y-59158079D01*
X70518202Y-59114281D01*
X70406470Y-59068000D01*
X69876000Y-59068000D01*
X69800000Y-59144000D01*
X69800000Y-60143000D01*
X69820000Y-60143000D01*
X69820000Y-60551000D01*
X69800000Y-60551000D01*
X69800000Y-60571000D01*
X69392000Y-60571000D01*
X69392000Y-60551000D01*
X69372000Y-60551000D01*
X69372000Y-60143000D01*
X69392000Y-60143000D01*
X69392000Y-59144000D01*
X69316000Y-59068000D01*
X68785530Y-59068000D01*
X68673798Y-59114281D01*
X68616000Y-59172079D01*
X68616000Y-56579530D01*
X74794000Y-56579530D01*
X74794000Y-57110000D01*
X74870000Y-57186000D01*
X75894000Y-57186000D01*
X75894000Y-56412000D01*
X75818000Y-56336000D01*
X75037531Y-56336000D01*
X74925798Y-56382281D01*
X74840281Y-56467798D01*
X74794000Y-56579530D01*
X68616000Y-56579530D01*
X68616000Y-55662000D01*
X77293000Y-55662000D01*
X77293000Y-56405079D01*
G36*
X80976000Y-55674246D02*
X80976000Y-60656000D01*
X79054103Y-60656000D01*
X78993777Y-60510000D01*
X78797036Y-60312915D01*
X78539850Y-60206122D01*
X78261372Y-60205879D01*
X78004000Y-60312223D01*
X77806915Y-60508964D01*
X77745860Y-60656000D01*
X77311921Y-60656000D01*
X77355719Y-60612202D01*
X77402000Y-60500470D01*
X77402000Y-59970000D01*
X77326000Y-59894000D01*
X76302000Y-59894000D01*
X76302000Y-59914000D01*
X75894000Y-59914000D01*
X75894000Y-59894000D01*
X74870000Y-59894000D01*
X74794000Y-59970000D01*
X74794000Y-60500470D01*
X74840281Y-60612202D01*
X74884079Y-60656000D01*
X74654103Y-60656000D01*
X74593777Y-60510000D01*
X74397036Y-60312915D01*
X74139850Y-60206122D01*
X73861372Y-60205879D01*
X73604000Y-60312223D01*
X73406915Y-60508964D01*
X73345860Y-60656000D01*
X73063000Y-60656000D01*
X73063000Y-60627000D01*
X72987000Y-60551000D01*
X72213000Y-60551000D01*
X72213000Y-60571000D01*
X71805000Y-60571000D01*
X71805000Y-60551000D01*
X71785000Y-60551000D01*
X71785000Y-60143000D01*
X71805000Y-60143000D01*
X71805000Y-59144000D01*
X72213000Y-59144000D01*
X72213000Y-60143000D01*
X72987000Y-60143000D01*
X73063000Y-60067000D01*
X73063000Y-59311531D01*
X73016719Y-59199798D01*
X72931202Y-59114281D01*
X72819470Y-59068000D01*
X72289000Y-59068000D01*
X72213000Y-59144000D01*
X71805000Y-59144000D01*
X71729000Y-59068000D01*
X71198530Y-59068000D01*
X71086798Y-59114281D01*
X71043000Y-59158079D01*
X71043000Y-58724000D01*
X74884079Y-58724000D01*
X74840281Y-58767798D01*
X74794000Y-58879530D01*
X74794000Y-59410000D01*
X74870000Y-59486000D01*
X75894000Y-59486000D01*
X75894000Y-59466000D01*
X76302000Y-59466000D01*
X76302000Y-59486000D01*
X77326000Y-59486000D01*
X77402000Y-59410000D01*
X77402000Y-58879530D01*
X77355719Y-58767798D01*
X77311921Y-58724000D01*
X77470000Y-58724000D01*
X77489453Y-58720061D01*
X77505840Y-58708864D01*
X77516581Y-58692173D01*
X77520000Y-58674000D01*
X77520000Y-58577903D01*
X77564091Y-58513373D01*
X77583000Y-58420000D01*
X77583000Y-55662000D01*
X80633113Y-55662000D01*
X80976000Y-55674246D01*
X80976000Y-55674246D01*
G37*
X80976000Y-55674246D02*
X80976000Y-60656000D01*
X79054103Y-60656000D01*
X78993777Y-60510000D01*
X78797036Y-60312915D01*
X78539850Y-60206122D01*
X78261372Y-60205879D01*
X78004000Y-60312223D01*
X77806915Y-60508964D01*
X77745860Y-60656000D01*
X77311921Y-60656000D01*
X77355719Y-60612202D01*
X77402000Y-60500470D01*
X77402000Y-59970000D01*
X77326000Y-59894000D01*
X76302000Y-59894000D01*
X76302000Y-59914000D01*
X75894000Y-59914000D01*
X75894000Y-59894000D01*
X74870000Y-59894000D01*
X74794000Y-59970000D01*
X74794000Y-60500470D01*
X74840281Y-60612202D01*
X74884079Y-60656000D01*
X74654103Y-60656000D01*
X74593777Y-60510000D01*
X74397036Y-60312915D01*
X74139850Y-60206122D01*
X73861372Y-60205879D01*
X73604000Y-60312223D01*
X73406915Y-60508964D01*
X73345860Y-60656000D01*
X73063000Y-60656000D01*
X73063000Y-60627000D01*
X72987000Y-60551000D01*
X72213000Y-60551000D01*
X72213000Y-60571000D01*
X71805000Y-60571000D01*
X71805000Y-60551000D01*
X71785000Y-60551000D01*
X71785000Y-60143000D01*
X71805000Y-60143000D01*
X71805000Y-59144000D01*
X72213000Y-59144000D01*
X72213000Y-60143000D01*
X72987000Y-60143000D01*
X73063000Y-60067000D01*
X73063000Y-59311531D01*
X73016719Y-59199798D01*
X72931202Y-59114281D01*
X72819470Y-59068000D01*
X72289000Y-59068000D01*
X72213000Y-59144000D01*
X71805000Y-59144000D01*
X71729000Y-59068000D01*
X71198530Y-59068000D01*
X71086798Y-59114281D01*
X71043000Y-59158079D01*
X71043000Y-58724000D01*
X74884079Y-58724000D01*
X74840281Y-58767798D01*
X74794000Y-58879530D01*
X74794000Y-59410000D01*
X74870000Y-59486000D01*
X75894000Y-59486000D01*
X75894000Y-59466000D01*
X76302000Y-59466000D01*
X76302000Y-59486000D01*
X77326000Y-59486000D01*
X77402000Y-59410000D01*
X77402000Y-58879530D01*
X77355719Y-58767798D01*
X77311921Y-58724000D01*
X77470000Y-58724000D01*
X77489453Y-58720061D01*
X77505840Y-58708864D01*
X77516581Y-58692173D01*
X77520000Y-58674000D01*
X77520000Y-58577903D01*
X77564091Y-58513373D01*
X77583000Y-58420000D01*
X77583000Y-55662000D01*
X80633113Y-55662000D01*
X80976000Y-55674246D01*
M02*
